<svg width="133" height="82" xmlns="http://www.w3.org/2000/svg"><g fill="none" fill-rule="evenodd"><g fill="#fff" fill-rule="nonzero"><path d="M6.629 81.52v-60h119v60M33.629 15.52v-14h36v14"/></g><path d="M7 22.02h120v59H7z"/><path d="M7 80.52v-58m119 0v58M1 21.49h130.58M21.78 80.52v-40H75v40M112 80.83V46.52H91.85v34.31M21.78 48.52H75M21.78 55.52H75M21.78 62.52H75M67.76 1h-32.3a2.38 2.38 0 00-2.39 2.36v9.81a2.38 2.38 0 002.39 2.36h32.3a2.38 2.38 0 002.39-2.36V3.36A2.38 2.38 0 0067.76 1zM39.81 15.53v4.55M64.18 15.53v4.55" stroke="#000" stroke-width="2" stroke-linecap="round" stroke-linejoin="round"/><path d="M43.86 6.62a2.57 2.57 0 00-5 .38 2.06 2.06 0 001.86 2l1 .2c.55.11.86.43.86.84s-.41.87-1.15.87a1.42 1.42 0 01-1.55-1.33l-1.3.42a2.59 2.59 0 002.82 2.22A2.33 2.33 0 0044 10a2.16 2.16 0 00-2-2.09l-1-.21c-.52-.1-.77-.41-.77-.8a1 1 0 011.1-.9 1.21 1.21 0 011.29 1l1.24-.38zm7 5.4V4.93H49.5v2.85h-3.09V4.93H45V12h1.38V9.08h3.12V12l1.36.02zm2.53-3.55a2.22 2.22 0 114.43 0 2.22 2.22 0 11-4.43 0zM52 8.48a3.65 3.65 0 107.29 0 3.65 3.65 0 10-7.29 0zm9.77-.32v-2h1.09a1 1 0 010 2h-1.09zM63 9.35a2.16 2.16 0 002.33-2.21A2.17 2.17 0 0063 4.93h-2.63V12h1.38V9.35H63z" fill="#181818" fill-rule="nonzero"/></g></svg>
