<svg width="130px" height="79px" viewBox="0 0 262 79" version="1.1" xmlns="http://www.w3.org/2000/svg" xmlnsXlink="http://www.w3.org/1999/xlink">
    <g id="Page-1" stroke="none" strokeWidth="1" fill="none" fillRule="evenodd">
        <g id="brands-circular">
            <g id="bridgestone">
                <circle id="Oval" fillOpacity="0.259833916" fill="#ffffff38" cx="39.5" cy="39.5" r="39.5"></circle>
                <g id="11b" transform="translate(21.000000, 25.000000)" fill="#FFFFFF">
                    <path d="M25.8150837,13.7151697 C28.0239944,14.4816469 31.0154163,16.3139873 29.6004176,21.1412753 C28.0775613,26.3376078 24.7936932,28 19.4020761,28 L0,28 L18.1112224,10.8658896 L14.828621,22.9129497 L16.5871717,22.9129497 C17.8767767,22.9129497 18.6973818,22.0870006 19.049186,21.0234894 L24.9096945,0 C29.1302595,0 33.8068671,0.48691559 32.8817522,6.6141244 C32.1052131,11.758186 28.7008195,12.9591685 25.8547159,13.499663 C25.6735657,13.5229669 25.6735657,13.6988498 25.8150837,13.7151697 L25.8150837,13.7151697 Z M24.75,0 L4.8125,18.4390244 L10.0196413,0 L24.75,0 L24.75,0 Z" id="Shape"></path>
                </g>
            </g>
            <g id="brand-pirelli" transform="translate(93.000000, 0.000000)">
                <circle id="Oval" fillOpacity="0.259833916" fill="#ffffff38" cx="39.5" cy="39.5" r="39.5"></circle>
                <g id="72b" transform="translate(16.000000, 35.000000)" fill="#FFFFFF">
                    <path d="M7,11 L10.0503495,11 L10.0503495,5 L7,5 L7,11 Z M45.9493525,11 L49,11 L49,5 L45.9493525,5 L45.9493525,11 Z" id="Shape"></path>
                    <path d="M47.9977,0.000275069962 L0,0.000275069962 L0,11 L5.3155,11 L5.3155,4.08987898 L47.99745,4.09099006 C48.25885,4.09547591 48.51845,4.04589269 48.76125,3.94512711 C49.004,3.84436153 49.225,3.69443327 49.4114,3.50407522 C49.5978,3.31371716 49.7458,3.08673501 49.84685,2.83636827 C49.94795,2.58599634 50,2.31724486 50,2.0457728 C50,1.77430074 49.948,1.50554407 49.847,1.25515656 C49.74595,1.00477424 49.59795,0.777776519 49.4116,0.587387311 C49.2252,0.397003814 49.0042,0.247042329 48.7615,0.146243003 C48.51875,0.0454439361 48.2591,-0.00417654851 47.9977,0.000275069962 L47.9977,0.000275069962 Z M42.1016,2.6962632 L5.31575,2.6962632 L5.31575,1.39167398 L42.1016,1.3952772 C42.18495,1.39349117 42.2678,1.40899436 42.3453,1.44088339 C42.4228,1.47276722 42.4934,1.52039827 42.55295,1.58097807 C42.61255,1.64156306 42.65985,1.7138767 42.69215,1.79368752 C42.72445,1.87349834 42.7411,1.95919685 42.7411,2.0457728 C42.7411,2.13234356 42.72445,2.21804726 42.69215,2.29785808 C42.65985,2.3776689 42.61255,2.44998254 42.55295,2.51056234 C42.4934,2.57114214 42.4228,2.61877319 42.3453,2.65066221 C42.2678,2.68254604 42.18495,2.69804924 42.1016,2.6962632 Z" id="Shape"></path>
                    <path d="M19.4977242,8.84644758 C20.1316371,8.53930672 20.5326892,7.85639922 20.5326892,7.06379855 C20.5326892,5.98367211 19.7384666,5 18.3855599,5 L12,5 L12,11 L15.1033289,11 L15.1033289,9.06410476 L16.1180341,9.06410476 L17.052913,11 L20.5340533,11 L19.4977242,8.84644758 Z M16.8739603,7.61075137 L15.1033289,7.61075137 L15.1033289,6.34074228 L16.8739603,6.34711853 C17.0306323,6.34711853 17.1809384,6.41369093 17.291685,6.53213794 C17.4024821,6.65063898 17.4647265,6.81134217 17.4647265,6.97890793 C17.4647265,7.14652773 17.4024821,7.30723092 17.291685,7.42573196 C17.1809384,7.54417897 17.0306323,7.61075137 16.8739603,7.61075137 L16.8739603,7.61075137 Z M22.4804039,11 L29.3239049,11 L29.3239049,9.65952791 L25.5834297,9.65952791 L25.5834297,8.77657898 L29.3239049,8.77657898 L29.3239049,7.32992606 L25.5834297,7.32992606 L25.5834297,6.44697713 L29.3239049,6.44697713 L29.3239049,5 L22.4804039,5 L22.4804039,11 Z M34.5427861,5 L31.4392047,5 L31.4392047,11 L37.6857756,11 L37.6857756,9.65952791 L34.5427861,9.65952791 L34.5427861,5 Z M41.8567074,5 L38.7536817,5 L38.7536817,11 L45,11 L45,9.65952791 L41.8567074,9.65952791 L41.8567074,5 L41.8567074,5 Z" id="Shape"></path>
                </g>
            </g>
            <g id="brand-firestone" transform="translate(183.000000, 0.000000)">
                <circle id="Oval" fillOpacity="0.259833916" fill="#ffffff38" cx="39.5" cy="39.5" r="39.5"></circle>
                <g id="35b" transform="translate(11.000000, 35.000000)" fill="#FFFFFF" fillRule="nonzero">
                    <path d="M8.36125,3.77762959 C8.36125,2.70060273 7.948,2.60363544 7.66975,2.4339401 L10.02585,1.56989105 C10.3324,1.80019224 10.69565,1.9317907 10.69565,2.86163638 L10.69565,5.15768571 C10.69565,5.65290888 10.69565,6.14642257 11.3805,6.42170532 L9.256,7.2632454 C8.44455,6.9740894 8.36125,6.18102776 8.36125,5.68756603 L8.36125,3.77762959 Z M41.2747,1.56816079 C43.959,1.88849784 44.6305,3.28240642 44.6305,4.53258915 C44.6305,6.10137347 42.5044,7.03124513 41.6946,7.29270658 C39.71005,7.14721929 38.11545,5.83991201 38.08715,4.2122521 C38.0588,2.584587 40.4632,1.88849784 41.2747,1.56816079 L41.2747,1.56816079 Z M40.82645,2.84778391 C40.69375,3.1139789 40.6136,3.40505741 40.5907,3.7039039 C40.56785,4.0027504 40.60265,4.30334274 40.69315,4.58799902 C40.85645,5.05898297 41.22135,5.51090288 41.9162,5.81221747 C42.0895,5.64942757 42.3694,4.82868697 42.0995,4.05467897 C41.9345,3.57849905 41.5596,3.12310303 40.82645,2.84778391 L40.82645,2.84778391 Z M26.02015,5.73775915 L26.76165,5.15595025 L28.35625,6.14465594 C28.80445,6.40611739 29.0694,5.88319448 28.60785,5.59232381 L26.3151,4.11008885 C25.8652,3.79840829 25.8802,3.2875972 26.3434,2.99150457 L28.90945,1.349987 L31.6354,3.03479224 L30.89395,3.62352217 L29.5243,2.77332559 C29.0144,2.46857127 28.70615,3.02093977 29.14105,3.28240642 L31.4205,4.69016228 C31.86205,4.98452985 31.907,5.51266951 31.47715,5.79662954 L28.83445,7.48142439 L26.02015,5.73775915 L26.02015,5.73775915 Z M0,3.05037497 C0.2699325,-0.303653301 2.792635,-0.00755662058 3.15421,0.0166852001 C4.31059,0.0946051822 4.73715,0.356070794 5.4803,0.482474313 C6.20845,0.605414196 7.0799,0.643511084 7.7897,0.0582427109 C7.81805,0.55173458 8.048,2.96379964 4.280595,2.49974193 C4.028995,3.04517899 3.96401,3.1577342 4.22228,4.2711225 C4.557195,4.03909624 5.7319,3.19582589 6.43175,4.00966104 L5.7469,5.53516809 C5.45195,5.18712091 5.0054,5.14209778 4.530535,5.46242444 C4.55886,6.13083464 5.1454,9 1.70624,9 C2.517705,8.15674524 2.2761,7.41392867 2.1378,6.73164522 C1.90619,5.58193186 1.376325,4.18454717 2.63601,2.42528361 C2.2711,2.27983268 1.188035,2.17766942 0,3.05037497 L0,3.05037497 Z M35.961,3.1369555 L35.961,5.17153298 C35.961,5.6650155 36.00265,6.15852919 36.68915,6.43557857 L34.5647,7.2632454 C33.75325,6.9740894 33.6699,6.18102776 33.6699,5.68756603 L33.6699,3.1369555 L32.43855,3.1369555 L35.9627,0.433990672 L35.9627,1.82962744 L37.33235,1.82962744 L37.33235,3.1369555 L35.961,3.1369555 L35.961,3.1369555 Z M48.5862,3.57330827 L48.5862,5.15768571 C48.5862,5.65290888 48.6695,6.20352633 49.21605,6.45116649 L47.1732,7.26501204 C46.3634,6.97580407 46.27845,6.18274243 46.27845,5.6892807 L46.27845,3.77762959 C46.27845,2.92050677 46.0385,2.66597155 45.58695,2.4339401 L47.95635,1.56989105 C48.2113,1.76209536 48.47455,1.88503732 48.55785,2.44779257 L50.8075,1.54045585 C51.6755,1.74478237 52.2055,2.54302959 52.2055,3.47287527 L52.2055,5.12998077 C52.2055,5.6234477 52.2335,6.0165232 52.8485,6.43729324 L50.8055,7.26501204 C49.99585,6.97580407 49.91085,6.18274243 49.91085,5.6892807 L49.91085,4.12567157 C49.91085,3.45729254 49.63095,3.28413668 49.23935,3.28413668 L48.5862,3.57330827 L48.5862,3.57330827 Z M15.07125,2.54822557 L16.86245,1.59759599 L18.16215,3.79148206 L16.27425,4.7940558 L15.58945,3.6598836 L15.08625,3.94385922 L15.08625,5.15768571 C15.08625,5.65290888 15.1279,6.14642257 15.8144,6.42170532 L13.70155,7.2632454 C12.8901,6.9740894 12.8068,6.18102776 12.8068,5.68756603 L12.8068,3.77762959 C12.8068,2.92050677 12.5652,2.64692311 12.11365,2.4339401 L14.4564,1.56989105 C14.7263,1.77075185 15.00625,1.89715953 15.07125,2.54822557 Z M21.59625,5.28752792 C22.5077,6.00961255 23.87405,5.68060342 24.5955,5.24944143 L23.70075,6.89095381 C22.37275,7.22515891 20.6215,7.48319102 19.3635,6.17583179 C18.32875,5.09707986 18.667,3.74472868 19.04525,3.09712835 C19.32685,2.61575246 19.965,2.0824324 20.8498,1.80365276 C21.353,1.64434937 22.0295,1.52140741 22.95925,1.47985 L24.7638,3.80533453 L21.59625,5.28752792 Z M20.9864,4.51181045 L22.32775,3.87806259 L21.5596,2.88934132 C20.9931,3.14561199 20.50155,3.59408697 20.9864,4.51181045 Z M56.8375,5.28752792 C57.749,6.00961255 59.115,5.68060342 59.8365,5.24944143 L58.942,6.89095381 C57.614,7.22515891 55.8625,7.48319102 54.603,6.17583179 C53.5665,5.09881012 53.9065,3.74472868 54.283,3.09885861 C54.5665,2.61748791 55.203,2.08416786 56.0875,1.80538302 C56.5925,1.64607963 57.2675,1.52314286 58.197,1.48158546 L60,3.80706479 L56.8375,5.28752792 L56.8375,5.28752792 Z M56.2275,4.51181045 L57.569,3.87806259 L56.801,2.88934132 C56.2325,3.14561199 55.7425,3.59408697 56.2275,4.51181045 Z" id="Shape"></path>
                </g>
            </g>
        </g>
    </g>
</svg>
