<svg id="camera" data-name="camera" xmlns="http://www.w3.org/2000/svg" viewBox="0 0 100 82.7" width="39" height="39"><defs><style>.cls-1{fill:#fff;}</style></defs><path class="cls-1" d="M50.08,90q-18.63,0-37.27,0C4,90,.15,86.14.13,77.36q0-21.7,0-43.42C.16,25.52,4,21.7,12.28,21.66a21,21,0,0,1,3.07,0c6.26.9,10.2-1.52,12.34-7.62C29.29,9.5,33.15,7.42,38,7.38c8.07-.07,16.14,0,24.21,0,4.94,0,8.87,2.1,10.57,6.82,2.11,5.86,5.88,8.33,12,7.5a29.08,29.08,0,0,1,5.75,0C95.72,22,99.92,25.8,100,31c.18,16.52.21,33,0,49.56C99.88,86.39,95.23,90,88.51,90,75.7,90.06,62.89,90,50.08,90Zm.18-4.12q18.65,0,37.29,0c6.65,0,8.66-2,8.67-8.74q0-19.8,0-39.6c0-11.21-.75-12.26-12-11.84-7.44.28-12.31-2.33-14.82-9.4-1.27-3.58-4-5-7.8-4.92-7.43.14-14.87.21-22.3,0-4.5-.14-7.31,1.63-8.82,5.79-2.27,6.27-6.77,9-13.39,8.46-1.66-.14-3.33,0-5,0-5.77.06-7.88,2.11-7.89,7.9q-.06,22.29,0,44.59c0,5.75,2.12,7.78,8,7.79C24.88,85.91,37.57,85.89,50.26,85.89Z" transform="translate(-0.12 -7.33)"/><path class="cls-1" d="M50.43,30.77A24.92,24.92,0,0,1,75.24,56.21a25.06,25.06,0,1,1-50.11-.9A24.88,24.88,0,0,1,50.43,30.77ZM29.13,55.38a21.07,21.07,0,0,0,21,21.47,21.07,21.07,0,0,0,.38-42.13A21,21,0,0,0,29.13,55.38Z" transform="translate(-0.12 -7.33)"/><path class="cls-1" d="M50,21.45a69.47,69.47,0,0,1-7.64-.09c-1-.11-1.78-1.27-2.67-2,.8-.63,1.58-1.78,2.4-1.81q8-.25,16,0c.85,0,1.66,1.15,2.49,1.76-.87.71-1.68,1.93-2.62,2A79.18,79.18,0,0,1,50,21.45Z" transform="translate(-0.12 -7.33)"/><path class="cls-1" d="M82.45,33.44a12.17,12.17,0,0,1,3.42.07,12.34,12.34,0,0,1,2.88,1.85C87.84,36,87,37.13,86,37.26a27.55,27.55,0,0,1-6.85,0c-1-.13-1.76-1.28-2.63-2A9.25,9.25,0,0,1,79,33.52,12.89,12.89,0,0,1,82.45,33.44Z" transform="translate(-0.12 -7.33)"/><path class="cls-1" d="M50.3,66.39A10.63,10.63,0,1,1,60.74,55.84,10.47,10.47,0,0,1,50.3,66.39Zm-.17-3.91A6.86,6.86,0,0,0,56.81,56a6.61,6.61,0,0,0-6.74-6.76,6.43,6.43,0,0,0-6.42,6.64A6.56,6.56,0,0,0,50.13,62.48Z" transform="translate(-0.12 -7.33)"/></svg>