<svg xmlns="http://www.w3.org/2000/svg" width="31" height="32" fill="none" viewBox="0 0 31 32">
  <defs/>
  <path fill="currentColor" fill-rule="evenodd" d="M14.258 6.6c2.342 1.277 4.9 2.13 7.507 2.682-.312 3.407-2.463 7.47-6.265 7.47-1.756 0-3.159-.862-4.19-2.126l2.02.017v.406h3.432v-2.21H13.33v.385l-2.1-.027a2.853 2.853 0 01-.933-.155 10.707 10.707 0 01-1.064-3.81c1.765-.693 3.472-1.537 5.024-2.631zm9.348 2.078C23.717 3.698 20.781 0 15.5 0c-5.28 0-8.217 3.698-8.106 8.678.1 4.56 3.015 9.88 8.106 9.88 5.082 0 8.003-5.325 8.106-9.88zM22.11 19.975c1.79.277 3.673.748 5.059 1.911 1.564 1.314 2.027 3.154 2.027 5.135v3.066H1.805V27.02c0-1.98.464-3.822 2.028-5.135 1.384-1.163 3.27-1.633 5.058-1.911L15.5 25.79l6.609-5.815zm6.22.529c-1.904-1.6-4.391-2.117-6.789-2.434l-6.04 5.316-6.04-5.315c-2.398.317-4.885.834-6.789 2.433C.997 21.91 0 23.976 0 27.022v4.87h31v-4.87c0-3.046-.997-5.112-2.671-6.518zm-6.573-13.07c-2.301-.517-4.561-1.288-6.636-2.417l-.985-.538-.917.646c-1.23.866-2.572 1.562-3.957 2.146.391-3.295 2.546-5.466 6.239-5.466 3.753 0 5.917 2.241 6.256 5.628z" clip-rule="evenodd"/>
</svg>
