<svg width="24" height="25" viewBox="0 0 24 25" fill="none" xmlns="http://www.w3.org/2000/svg">
<path d="M19.3551 5.14836C17.3389 3.13215 14.6034 2 11.7517 2C8.89998 2 6.16553 3.13342 4.14836 5.1496C2.13215 7.16581 1 9.90128 1 12.753C1 15.6047 2.13221 18.3401 4.14836 20.3563C6.16578 22.3725 8.90004 23.5059 11.7517 23.5059C14.6035 23.5059 17.3389 22.3737 19.3551 20.3576C21.3701 18.3402 22.501 15.6047 22.501 12.753C22.501 9.90128 21.37 7.16584 19.3551 5.14836ZM18.3282 6.17523C19.9799 7.83302 20.9463 10.0515 21.0371 12.3898C21.1267 14.7281 20.3323 17.0144 18.8126 18.7932L5.71014 5.68605C7.49022 4.16634 9.77641 3.37318 12.1147 3.46397C14.4531 3.5548 16.6714 4.52235 18.3281 6.17527L18.3282 6.17523ZM5.17245 19.331C3.52799 17.6744 2.56528 15.461 2.47569 13.1285C2.38608 10.7963 3.17561 8.5148 4.68807 6.73726L17.7905 19.8202C16.0105 21.3399 13.7243 22.1331 11.3859 22.0423C9.0476 21.9515 6.82924 20.9839 5.1726 19.331L5.17245 19.331Z" fill="currentColor" stroke="currentColor"/>
</svg>
