<svg width="15" height="15" viewBox="0 0 15 15" fill="none" xmlns="http://www.w3.org/2000/svg">
<path d="M7.5 0C3.35805 0 0 3.35805 0 7.5C0 11.642 3.35805 15 7.5 15C11.642 15 15 11.642 15 7.5C15 3.35805 11.642 0 7.5 0ZM6.6334 10.7373V7.30365C6.6334 6.82553 7.02129 6.43705 7.5 6.43705C7.97871 6.43705 8.3666 6.82553 8.3666 7.30365V10.7373C8.3666 11.216 7.97871 11.6039 7.5 11.6039C7.02129 11.6039 6.6334 11.216 6.6334 10.7373ZM7.5 5.49135C7.07871 5.49135 6.69903 5.23764 6.53789 4.84857C6.37617 4.4595 6.46523 4.01127 6.76347 3.71361C7.06113 3.41537 7.50938 3.32631 7.89843 3.48744C8.28808 3.64857 8.54179 4.02885 8.54179 4.45014C8.54179 4.72611 8.43164 4.99097 8.23652 5.18667C8.0414 5.38179 7.77598 5.49135 7.5 5.49135Z" fill="currentColor"/>
</svg>
