<svg xmlns="http://www.w3.org/2000/svg" width="30" height="32" viewBox="0 0 30 32" fill="none">
<circle cx="15" cy="12.1079" r="4.65" stroke="currentColor" stroke-width="1.7"/>
<path d="M12.3336 1.93473C13.0892 1.18695 13.7503 1 14.6948 1C16.4067 1 16.5838 1.93473 18.4727 2.86945C20.3616 3.80418 21.5422 2.63577 23.1951 4.27154C24.1395 5.20627 23.6673 6.60836 24.1395 8.01045C24.6118 9.41254 26.5007 9.64623 26.5007 12.2167C26.5007 14.0862 25.084 14.5535 24.6118 15.0209C24.1395 15.4883 23.7459 16.6973 23.6673 17.3577C23.6673 18.2925 23.3574 19.5339 22.7228 20.1619C22.0883 20.7899 20.8339 21.0966 20.3616 21.0966C19.8894 21.0966 18.2838 21.2836 17.5282 22.0314C16.5838 22.9661 16.1115 23.4335 14.6948 23.4335C13.5614 23.4335 13.168 23.0658 11.8614 22.0314C10.5548 20.9969 9.63539 21.1825 9.02798 21.0966C6.38346 20.7227 5.25009 19.6945 5.25009 17.8251C5.25009 16.8904 5.25009 15.9556 4.77786 15.4883C3.83339 14.5535 2.88892 13.6188 2.88892 12.2167C2.88892 10.8146 4.12854 10.0552 4.77786 9.41254C5.15565 9.03865 5.25009 8.01045 5.25009 7.54309C5.25009 5.67364 5.85515 5.07483 6.6668 4.27154C7.47846 3.46826 9.02798 3.33682 9.97245 3.33682C10.9169 3.33682 11.3892 2.86945 12.3336 1.93473Z" stroke="currentColor" stroke-width="1.7"/>
<path d="M5.25012 18.7593L1 27.1718H5.72236L8.55577 30.9107L12.8059 23.4329" stroke="currentColor" stroke-width="1.7" stroke-linecap="round" stroke-linejoin="round"/>
<path d="M23.6371 18.2112L28.6521 26.2005L23.9498 26.631L21.4764 30.6123L16.5484 23.5537" stroke="currentColor" stroke-width="1.7" stroke-linecap="round" stroke-linejoin="round"/>
</svg>