<svg xmlns="http://www.w3.org/2000/svg" width="50.65" height="57.38" viewBox="0 0 50.65 57.38"><g id="Layer_2" data-name="Layer 2"><g id="Layer_1-2" data-name="Layer 1"><path d="M14.5,47.6c.8,10.6,14.3,12.2,16.8,1.5" fill="none" stroke="currentColor" stroke-linecap="round" stroke-linejoin="round" stroke-width="2"/><path d="M26.8,6.3a2.62,2.62,0,0,1,2.4,3,.55.55,0,0,0,.4.6,18.2,18.2,0,0,1,5.1,3.4,12.35,12.35,0,0,1,4.2,10.6C37.7,34,37.6,37.5,43.7,42.7a3.44,3.44,0,0,1,.2,2.6,1.3,1.3,0,0,1-1.4.9l-38-3.4a1.48,1.48,0,0,1-1.3-1.2,2.83,2.83,0,0,1,.6-2.5c6.9-4,7.4-7.5,8-17.6a12,12,0,0,1,5.9-9.7,18.92,18.92,0,0,1,5.6-2.4c.3-.1.5-.3.5-.5A2.74,2.74,0,0,1,26.8,6.3Zm0-.6a3.17,3.17,0,0,0-3.5,3.1S11.8,11.2,11.2,21.5,10,34.9,3.4,38.7a3.54,3.54,0,0,0-.8,3.1,2,2,0,0,0,1.8,1.7l37.9,3.3a2,2,0,0,0,2.1-1.4,3.35,3.35,0,0,0-.3-3.2c-5.8-4.9-5.9-8-4.7-18.3S29.7,9.3,29.7,9.3A3.12,3.12,0,0,0,26.8,5.7Z" fill="none" stroke="currentColor" stroke-width="1.5"/><path d="M6.6,21.7S6.5,12.3,16.4,6" fill="none" stroke="currentColor" stroke-linecap="round" stroke-linejoin="round" stroke-width="2"/><path d="M1,21.2A25.74,25.74,0,0,1,13.4,1" fill="none" stroke="currentColor" stroke-linecap="round" stroke-linejoin="round" stroke-width="2"/><path d="M43.9,25s1.7-9.2-7-17.2" fill="none" stroke="currentColor" stroke-linecap="round" stroke-linejoin="round" stroke-width="2"/><path d="M49.5,25.5A25.91,25.91,0,0,0,40.8,3.4" fill="none" stroke="currentColor" stroke-linecap="round" stroke-linejoin="round" stroke-width="2"/></g></g></svg>