<svg height="17.4"  width="13.42"  id="Layer_1" data-name="Layer 1" xmlns="http://www.w3.org/2000/svg" viewBox="0 0 13.42 17.4"><path d="M6.32,11.73c-.49,2.07-.94,4.22-2.59,6-.06-.34-.1-.59-.14-.84-.29-2.25.46-4.35.93-6.49.12-.56.29-1.11.39-1.68A1.72,1.72,0,0,0,4.85,8a3.66,3.66,0,0,1,.33-3,1.61,1.61,0,0,1,1.9-.73A1.45,1.45,0,0,1,7.83,6Q7.49,7.49,7.05,9a1.58,1.58,0,0,0,.48,1.84,1.85,1.85,0,0,0,2,.16,3.71,3.71,0,0,0,1.79-2.26A7.55,7.55,0,0,0,11.77,5,3.66,3.66,0,0,0,8.52,2,5.36,5.36,0,0,0,4.34,3.05C2.82,4.26,2,7.2,3.3,8.78c.22.27-.07,1-.12,1.43a2.46,2.46,0,0,1-.84-.16A3.53,3.53,0,0,1,.87,7.52a6.25,6.25,0,0,1,5.25-7,7,7,0,0,1,6.16,1.37,5.41,5.41,0,0,1,1.91,4.72,8,8,0,0,1-1.29,4.06,4.55,4.55,0,0,1-5.1,2A9.14,9.14,0,0,1,6.32,11.73Z" transform="translate(-0.79 -0.3)"/></svg>