<svg width="32" height="28" viewBox="0 0 32 28" fill="none" xmlns="http://www.w3.org/2000/svg">
<path d="M10.5842 3.81777C10.5842 5.78528 8.96248 7.38554 6.95715 7.38554C4.94951 7.38554 3.33008 5.78538 3.33008 3.81777C3.33008 1.85244 4.94961 0.25 6.95715 0.25C8.96238 0.25 10.5842 1.85254 10.5842 3.81777Z" fill="currentColor" stroke="currentColor" stroke-width="0.5"/>
<path d="M27.502 2H22.498C21.6707 2 21 2.67068 21 3.498C21 4.32532 21.6707 4.996 22.498 4.996H27.502C28.3293 4.996 29 4.32532 29 3.498C29 2.67068 28.3293 2 27.502 2Z" fill="currentColor"/>
<path d="M31.4336 18.9686C28.2541 24.3835 22.3378 27.7494 16.0001 27.75C9.6651 27.7494 3.75101 24.3836 0.564116 18.9685C-0.0794937 17.8727 0.296907 16.4691 1.41218 15.8361L1.41231 15.836C2.53359 15.1986 3.96175 15.5762 4.60623 16.6712C6.96084 20.6757 11.3274 23.1606 16.0001 23.1606C20.6749 23.1606 25.0442 20.6759 27.3941 16.671L27.3942 16.6707C28.0368 15.573 29.4598 15.1899 30.5846 15.8355L30.5856 15.8361C31.7017 16.4696 32.0815 17.8731 31.434 18.9679L31.4336 18.9686Z" fill="currentColor" stroke="currentColor" stroke-width="0.5"/>
</svg>
