<svg width="24" height="24" viewBox="0 0 24 24" fill="none" xmlns="http://www.w3.org/2000/svg">
<path d="M9.42501 6.37926V6.55426H9.60001H13.5398C17.2826 6.55426 20.325 9.59589 20.325 13.3598C20.325 17.1029 17.283 20.145 13.5398 20.145H7.57961C6.75594 20.145 6.09445 19.4835 6.09445 18.6598C6.09445 17.8361 6.75594 17.1747 7.57961 17.1747H13.5398C15.6556 17.1747 17.375 15.4774 17.375 13.3599C17.375 11.2428 15.6569 9.52465 13.5398 9.52465H9.60001H9.42501V9.69965V11.5598C9.42501 12.0885 8.79718 12.3953 8.36822 12.062C8.36804 12.0619 8.36786 12.0617 8.36768 12.0616L3.93039 8.54317C3.93019 8.543 3.92998 8.54283 3.92977 8.54267C3.59697 8.27298 3.59691 7.78575 3.92959 7.51599L8.36851 4.01669L8.36852 4.0167L8.37071 4.01492C8.79253 3.67124 9.42501 3.9821 9.42501 4.5191V6.37926Z" fill="currentColor"/>
</svg>
