<svg width="11" height="10" viewBox="0 0 11 10" fill="none" xmlns="http://www.w3.org/2000/svg">
<path d="M4.25 5.53149C4.25 5.56548 4.23183 5.59659 4.20225 5.61335C4.17223 5.63004 4.13641 5.62926 4.10728 5.6114L4.10714 5.61132L0.169636 3.205L0.169161 3.20471C0.142173 3.18838 0.125 3.15823 0.125 3.12518C0.125 3.09212 0.142178 3.06197 0.169153 3.04565L0.169635 3.04536L4.10714 0.639036L4.10727 0.638951C4.13642 0.621089 4.17224 0.620311 4.20225 0.637007C4.23183 0.653757 4.25 0.684863 4.25 0.718863V2.03136V2.15636H4.375L6.64051 2.15636C6.64055 2.15636 6.64058 2.15636 6.64062 2.15636C7.56449 2.15745 8.44989 2.5249 9.10352 3.17799C9.75656 3.8316 10.124 4.71691 10.1251 5.64075C10.124 6.56457 9.75656 7.44992 9.10352 8.10354C8.44988 8.75666 7.56444 9.12412 6.64051 9.12517H2.84382C2.79199 9.12517 2.75007 9.08324 2.75007 9.03142V7.28142C2.75007 7.2296 2.79199 7.18767 2.84382 7.18767H6.64066C7.49501 7.18767 8.1875 6.49514 8.1875 5.64083C8.1875 4.78652 7.49497 4.09399 6.64066 4.09399H4.375H4.25V4.21899V5.53149Z" fill="currentColor"/>
</svg>
