<svg width="50" height="32" viewBox="0 0 50 32" fill="none" xmlns="http://www.w3.org/2000/svg">
<path d="M4.10645 29.5199V9.58057H45.8937V29.5199" stroke="currentColor" stroke-width="1.5" stroke-linecap="round" stroke-linejoin="round"/>
<path d="M10.0415 29.5201V17.0269H28.7802V29.5201" stroke="currentColor" stroke-width="1.5" stroke-linecap="round" stroke-linejoin="round"/>
<path d="M2.5 9.5H47.5" stroke="currentColor" stroke-width="1.5" stroke-linecap="round" stroke-linejoin="round"/>
<path d="M41.79 29.5205V19.1975H36.2581V29.5205" stroke="currentColor" stroke-width="1.5" stroke-linecap="round" stroke-linejoin="round"/>
<path d="M10.0415 19.5508H28.7802" stroke="currentColor" stroke-width="1.5" stroke-linecap="round" stroke-linejoin="round"/>
<path d="M10.0415 22.0415H28.7802" stroke="currentColor" stroke-width="1.5" stroke-linecap="round" stroke-linejoin="round"/>
<path d="M10.0415 24.5339H28.7802" stroke="currentColor" stroke-width="1.5" stroke-linecap="round" stroke-linejoin="round"/>
<path d="M10.0415 27.0247H28.7802" stroke="currentColor" stroke-width="1.5" stroke-linecap="round" stroke-linejoin="round"/>
<path d="M25.5202 1H14.1534C13.689 1 13.3125 1.37209 13.3125 1.83109V5.2822C13.3125 5.7412 13.689 6.11329 14.1534 6.11329H25.5202C25.9845 6.11329 26.361 5.7412 26.361 5.2822V1.83109C26.361 1.37209 25.9845 1 25.5202 1Z" stroke="currentColor" stroke-width="1.5" stroke-linecap="round" stroke-linejoin="round"/>
<path d="M15.6846 7.11377V8.7137" stroke="currentColor" stroke-width="1.5" stroke-linecap="round" stroke-linejoin="round"/>
<path d="M24.2598 7.11377V8.7137" stroke="currentColor" stroke-width="1.5" stroke-linecap="round" stroke-linejoin="round"/>
<rect y="30.6641" width="50" height="1.33493" fill="currentColor"/>
</svg>
