<svg width="33" height="29" viewBox="0 0 33 29" fill="none" xmlns="http://www.w3.org/2000/svg">
<path d="M11.0029 3.9375C11.0029 6.11296 9.23843 7.875 7.06543 7.875C4.88998 7.875 3.12793 6.11296 3.12793 3.9375C3.12793 1.7645 4.88998 0 7.06543 0C9.23843 0 11.0029 1.7645 11.0029 3.9375Z" fill="currentColor"/>
<path d="M29.376 3.9375C29.376 6.11296 27.6139 7.875 25.4385 7.875C23.2655 7.875 21.501 6.11296 21.501 3.9375C21.501 1.7645 23.2655 0 25.4385 0C27.6139 0 29.376 1.7645 29.376 3.9375Z" fill="currentColor"/>
<path d="M16.2514 28.8796C9.72779 28.8796 3.63695 25.3605 0.354024 19.6955C-0.371925 18.4404 0.0537916 16.8334 1.30885 16.1099C2.56639 15.3839 4.17094 15.8121 4.89689 17.0647C7.24219 21.1154 11.5932 23.6306 16.2495 23.6306C20.908 23.6306 25.2616 21.1155 27.6021 17.0647C28.3256 15.8096 29.9252 15.3741 31.1877 16.1099C32.4427 16.8334 32.8734 18.4404 32.1425 19.6955C28.867 25.3605 22.7738 28.8796 16.2476 28.8796H16.2514Z" fill="currentColor"/>
</svg>
