<svg xmlns="http://www.w3.org/2000/svg" width="35" height="37" fill="none" viewBox="0 0 35 37">
  <defs/>
  <path stroke="currentColor" stroke-linecap="round" stroke-linejoin="bevel" stroke-width="2" d="M25.875 1.049l7.5 3.495M1.375 4.545l3.75-1.498 3.75-1.498"/>
  <path fill="currentColor" d="M12.25 13.032c0 2.759-1.764 4.994-3.938 4.994-2.175 0-3.937-2.235-3.937-4.994 0-2.755 1.762-4.993 3.938-4.993 2.172 0 3.937 2.238 3.937 4.993zM30.75 13.032c0 2.759-1.762 4.994-3.938 4.994-2.172 0-3.937-2.235-3.937-4.994 0-2.755 1.765-4.993 3.938-4.993 2.175 0 3.937 2.238 3.937 4.993zM17.377 36.002c-6.424 0-11.27-1.616-14.502-5.494-.715-.86-1.5-2.994 0-3.995 1.17-.783 2.5-.5 4 1 2.5 1.997 5.915 3.897 10.5 3.897 4.587 0 7.5-1.399 10.5-3.398 1-1 3-1.997 4.5-1 1 .666.72 2.137 0 2.997-3 3.581-8.576 5.993-15.002 5.993h.004z"/>
</svg>
