<svg width="24" height="24" viewBox="0 0 24 24" fill="none" xmlns="http://www.w3.org/2000/svg">
<path d="M20.1783 8.16656C20.9841 8.28138 21.6415 8.82736 21.8939 9.59199C22.1463 10.3558 21.9406 11.1805 21.3593 11.7422L18.4663 14.534C18.3146 14.6799 18.2453 14.8913 18.2815 15.098L18.9703 19.034C19.1091 19.8262 18.7861 20.6126 18.1282 21.0862C17.4704 21.5589 16.6135 21.6222 15.8925 21.2482L12.311 19.3935C12.1229 19.2964 11.8986 19.2972 11.7113 19.3943L8.13397 21.2569C7.74757 21.4498 7.31186 21.4993 7.14231 21.5C6.70478 21.5 6.27022 21.3646 5.89822 21.0986C5.23938 20.6269 4.91471 19.8413 5.05079 19.0491L5.72999 15.1113C5.7654 14.9045 5.69606 14.6939 5.54446 14.5488L2.64454 11.7639C2.06149 11.2033 1.85397 10.3802 2.10456 9.61549C2.35511 8.85084 3.01166 8.30309 3.8165 8.18649L7.81849 7.60697C8.02849 7.57668 8.20945 7.44619 8.30308 7.2581L10.0887 3.67415C10.4483 2.95317 11.177 2.50422 11.9909 2.50333H11.9936C12.418 2.47103 13.36 2.65997 13.732 3.67415C14.104 4.68833 15.1924 6.48008 15.69 7.24918C15.7845 7.43736 15.9656 7.56702 16.1755 7.59652L20.1783 8.16656ZM20.1783 8.16656L20.1684 8.23474" stroke="currentColor" stroke-width="1.7"/>
</svg>
