<svg width="24" height="24" viewBox="0 0 24 24" fill="none" xmlns="http://www.w3.org/2000/svg">
<g clip-path="url(#clip0)">
<path d="M10.3 17.42V12.42C10.3 10.42 11.77 7.97 12.3 6.99C12.83 6.01 14 3.14 15.71 4C17.18 4.74 16.71 6 16.2 8.47C16.03 9.34 16.36 9.47 16.69 9.47H20.62C22.62 9.47 22.43 11.47 22.1 12.47C21.434 14.7445 20.4222 16.903 19.1 18.87C18.61 19.61 18.03 19.87 16.64 19.87H12.76C10.79 19.84 10.3 19.35 10.3 17.42Z" stroke="currentColor" stroke-width="1.7"/>
<path d="M6.76005 9.35999H2.82005C2.25672 9.35999 1.80005 9.81665 1.80005 10.38V18.92C1.80005 19.4833 2.25672 19.94 2.82005 19.94H6.76005C7.32338 19.94 7.78005 19.4833 7.78005 18.92V10.38C7.78005 9.81665 7.32338 9.35999 6.76005 9.35999Z" stroke="currentColor" stroke-width="1.6"/>
</g>
<defs>
<clipPath id="clip0">
<rect width="22.15" height="17.73" fill="white" transform="translate(1 3)"/>
</clipPath>
</defs>
</svg>
