<svg width="39" height="38" viewBox="0 0 39 38" fill="none" xmlns="http://www.w3.org/2000/svg">
<path fill-rule="evenodd" clip-rule="evenodd" d="M32.3228 21.7551C30.3878 21.7063 28.4855 22.578 27.3076 24.2372C25.765 26.4071 25.8751 29.3141 27.5106 31.3714L24.4375 37.491H26.116L29.0765 31.5957C29.2185 31.3129 29.1678 30.9715 28.9497 30.7422C27.4744 29.1914 27.3032 26.8322 28.5301 25.1063C29.1633 24.2143 30.0836 23.6222 31.1003 23.3788L30.0138 25.8493C29.8476 26.2272 30.0181 26.6684 30.3953 26.8364L34.0833 28.4783C34.2655 28.5595 34.4726 28.5647 34.6587 28.4927C34.8448 28.4208 34.9945 28.2777 35.0748 28.0951L36.1546 25.6399C36.6469 26.5543 36.8206 27.6295 36.5837 28.6921C36.1229 30.7567 34.2567 32.2093 32.116 32.1522C31.8131 32.1441 31.5351 32.3191 31.4113 32.5957C31.1729 33.1287 30.6702 34.2141 30.1588 35.3185L30.1299 35.3809C29.778 36.1406 29.4242 36.9047 29.1557 37.491H30.8067C31.0168 37.0353 31.2534 36.5243 31.491 36.0113L31.5256 35.9365C31.9203 35.0844 32.3138 34.2346 32.5833 33.6439C35.2195 33.4931 37.466 31.6248 38.0477 29.0189C38.4903 27.0332 37.865 25.0332 36.5363 23.631C36.3635 23.4487 36.1109 23.3649 35.8634 23.4079C35.6159 23.451 35.4064 23.615 35.3053 23.8449L34.0051 26.8016L31.6874 25.7697L32.9904 22.8068C33.0911 22.578 33.0711 22.314 32.9371 22.1029C32.8031 21.8919 32.5728 21.7614 32.3228 21.7551Z" fill="currentColor"/>
<path d="M9.86705 15.6659C9.73737 15.9768 9.68424 16.3205 9.7233 16.6658L9.82799 17.5986C9.8983 18.2283 10.6389 19.9907 11.0264 20.4907M10.8308 20.1872L13.0264 23.9907C13.8092 25.6626 15.9717 26.5549 17.8342 26.5549H18.2155C20.078 26.5549 22.0264 25.4907 23.0264 24.4907L25.0264 20.4907L25.2129 20.1872C25.5254 19.5 26.1513 18.2283 26.2216 17.5986L26.3263 16.6658C26.3654 16.3205 26.3122 15.9768 26.1826 15.6659" stroke="currentColor" stroke-width="2" stroke-linejoin="round"/>
<path d="M23.1729 29.6658L22.9369 29.8283C20.0417 31.8283 16.8542 31.983 13.8057 30.2252L12.8354 29.6658" stroke="currentColor" stroke-width="2"/>
<path d="M26.1992 15.4824C25.7789 15.4824 25.3617 15.4074 24.968 15.259H24.9695L24.0508 14.9135C20.1758 13.4573 15.8883 13.5341 12.0695 15.1293L11.3945 15.4105C11.032 15.6168 10.6305 15.7479 10.2164 15.7979C9.87265 15.7979 9.54453 15.6574 9.30859 15.409C9.07109 15.1606 8.94765 14.826 8.96484 14.4839L9.44921 5.02463C9.49609 4.07926 10.0289 3.22598 10.8586 2.76348C15.0805 0.411982 20.9523 0.412087 25.1742 2.76359C26.0039 3.22609 26.5367 4.07932 26.5867 5.02463V5.02616L27.0867 14.5512C27.0992 14.7933 27.0117 15.0308 26.8445 15.2058C26.6758 15.3823 26.443 15.4824 26.1992 15.4824ZM26.1992 15.4824H26.2008" stroke="currentColor" stroke-width="2"/>
<path d="M8.96277 10.8015H9.77526C10.2706 10.8015 10.7612 10.7046 11.219 10.5156L12.0784 10.1625C15.9019 8.59062 20.1769 8.51394 24.055 9.94994L24.8863 10.2577L24.8878 10.2562C25.3097 10.4124 25.755 10.4921 26.2051 10.4921H27.0879" stroke="currentColor" stroke-width="2"/>
<path fill-rule="evenodd" clip-rule="evenodd" d="M32.029 33.05C32.2297 33.3052 32.3972 33.5996 32.5234 33.9261L33.9028 37.4909H36.0473L34.3889 33.2052C34.304 32.9854 34.2051 32.7714 34.0931 32.565C33.4714 32.8007 32.7958 32.9206 32.0956 32.9019C32.0752 32.9474 32.053 32.9969 32.029 33.05ZM27.2777 29.441C27.5178 30.1013 27.895 30.7221 28.4059 31.2591L28.2109 31.6474L23.7916 30.8305C23.6809 30.81 23.5744 30.7709 23.4766 30.715C23.4782 30.7159 23.4779 30.7158 23.475 30.7144C23.467 30.7106 23.4395 30.6976 23.3787 30.6722C23.3612 30.6649 23.3325 30.6532 23.3 30.6399L23.2998 30.6398L23.299 30.6395C23.2388 30.6148 23.1632 30.5839 23.109 30.5608C23.0088 30.5182 22.8828 30.4619 22.7607 30.3941C22.6524 30.3339 22.4716 30.2243 22.3177 30.0517C21.8457 29.5223 21.5355 28.8431 21.4475 28.1006L21.4454 28.0805L21.3532 27.1399C21.2993 26.5903 21.7012 26.101 22.2509 26.0472C22.8005 25.9933 23.2898 26.3952 23.3436 26.9449L23.4347 27.8741C23.4725 28.1793 23.5913 28.4492 23.7595 28.6602C23.7901 28.6756 23.8331 28.6954 23.8921 28.7205C23.9443 28.7427 23.982 28.758 24.0242 28.7752C24.0591 28.7894 24.0971 28.8049 24.1491 28.8266C24.1889 28.8432 24.2391 28.8644 24.2934 28.8893L27.2777 29.441ZM13.7492 26.0455C13.1996 25.9916 12.7103 26.3935 12.6564 26.9432L12.5652 27.874C12.5452 28.0401 12.501 28.1955 12.4383 28.3348C12.3765 28.4719 12.2993 28.5927 12.2103 28.6956C12.2053 28.6994 12.1982 28.7045 12.189 28.711C12.1495 28.7385 12.0939 28.7733 12.0222 28.8147C11.9517 28.8555 11.8772 28.8962 11.8003 28.9378L11.7366 28.9721L6.87672 29.8289L5.51866 30.0658C3.67688 30.3087 2.27683 31.6135 1.64396 33.2485L0 37.4909H2.14488L3.50911 33.9705C3.92343 32.9001 4.7827 32.1748 5.79429 32.0468C5.80977 32.0448 5.82521 32.0425 5.84059 32.0398L7.22034 31.7992L12.2472 30.913C12.3608 30.8929 12.4702 30.8533 12.5703 30.796C12.6043 30.7766 12.6486 30.7526 12.7134 30.7177L12.7135 30.7176L12.7137 30.7175L12.7138 30.7175L12.7512 30.6972C12.8301 30.6546 12.9264 30.6022 13.0237 30.5459C13.1759 30.4579 13.4752 30.2815 13.6809 30.0517C13.9213 29.7842 14.1155 29.4812 14.2619 29.156C14.4107 28.8256 14.5099 28.4678 14.5529 28.0961L14.5547 28.0788L14.6469 27.1383C14.7008 26.5886 14.2989 26.0994 13.7492 26.0455ZM13.6809 30.0517L13.6793 30.0534L12.936 29.3845L13.6824 30.05L13.6809 30.0517Z" fill="currentColor"/>
</svg>
