<?xml version="1.0" encoding="UTF-8"?>
<svg width="131px" height="40px" viewBox="0 0 131 40" version="1.1" xmlns="http://www.w3.org/2000/svg" xmlns:xlink="http://www.w3.org/1999/xlink">
    <title>tire-types</title>
    <g id="Page-1" stroke="none" stroke-width="1" fill="none" fill-rule="evenodd">
        <g id="tire-types">
            <g id="winter" transform="translate(90.801527, 0.000000)" fill="#FFFFFF" fill-rule="nonzero">
                <circle id="Oval" fill-opacity="0.219607843" cx="19.5992366" cy="19.5992366" r="19.5992366"></circle>
                <g id="Winter" transform="translate(7.198473, 6.000000)">
                    <path d="M0.0945777778,19.9535111 C0.242382222,20.1900444 0.478871111,20.3082667 0.744915556,20.3082667 C0.863155556,20.3082667 1.01096,20.2787556 1.09964444,20.2195556 L3.61231111,18.7711111 L3.61231111,21.6680889 C3.61231111,22.0819556 3.93748444,22.4071111 4.35133333,22.4071111 C4.76518222,22.4071111 5.09035556,22.0819556 5.09035556,21.6680889 L5.09035556,17.9138667 L10.8547556,14.5735111 L10.8547556,21.2542222 L7.60302222,23.1461333 C7.24826667,23.3530667 7.13004444,23.7964444 7.33697778,24.1512 C7.4848,24.3876444 7.72124444,24.5058667 7.98728889,24.5058667 C8.1056,24.5058667 8.25333333,24.4763556 8.34204444,24.4172444 L10.8547556,22.9687111 L10.8547556,25.8656889 C10.8547556,26.2795556 11.1799111,26.6047111 11.5936889,26.6047111 C12.0075556,26.6047111 12.3327111,26.2795556 12.3327111,25.8656889 L12.3327111,22.9687111 L14.8454222,24.4172444 C14.9636444,24.4763556 15.0818667,24.5058667 15.2001778,24.5058667 C15.4662222,24.5058667 15.7026667,24.3876444 15.8504889,24.1512 C16.0574222,23.7964444 15.9392,23.3530667 15.5844444,23.1461333 L12.3327111,21.2542222 L12.3327111,14.5735111 L18.0970667,17.9138667 L18.0970667,21.6680889 C18.0970667,22.0819556 18.4223111,22.4071111 18.8360889,22.4071111 C19.2499556,22.4071111 19.5751111,22.0819556 19.5751111,21.6680889 L19.5751111,18.7711111 L22.0878222,20.2195556 C22.2060444,20.2787556 22.3242667,20.3082667 22.4425778,20.3082667 C22.7086222,20.3082667 22.9450667,20.1900444 23.0928889,19.9535111 C23.2998222,19.5988444 23.1816,19.1553778 22.8268444,18.9484444 L20.3141333,17.5 L22.8268444,16.0515556 C23.1816,15.8446222 23.2998222,15.4011556 23.0928889,15.0464889 C22.8859556,14.6917333 22.4425778,14.5735111 22.0878222,14.7804444 L18.8360889,16.6722667 L13.1013333,13.3024 L18.8656889,9.96195556 L22.1174222,11.8538667 C22.2356444,11.9129778 22.3538667,11.9425778 22.4720889,11.9425778 C22.7381333,11.9425778 22.9746667,11.8243556 23.1224889,11.5878222 C23.3293333,11.2330667 23.2111111,10.7896889 22.8564444,10.5827556 L20.3437333,9.13431111 L22.8564444,7.68581333 C23.2111111,7.47888 23.3293333,7.03547556 23.1224889,6.68073778 C22.9155556,6.32600889 22.4720889,6.20776889 22.1174222,6.41469333 L19.6047111,7.86317333 L19.6047111,4.96621333 C19.6047111,4.55236444 19.2795556,4.22719111 18.8656889,4.22719111 C18.4518222,4.22719111 18.1266667,4.55236444 18.1266667,4.96621333 L18.1266667,8.72043556 L12.3623111,12.0312889 L12.3623111,5.35050667 L15.6140444,3.45861333 C15.9687111,3.25168889 16.0869333,2.80827556 15.8800889,2.45354667 C15.6731556,2.09881778 15.2296889,1.98057778 14.8750222,2.18750222 L12.3623111,3.63598222 L12.3623111,0.739020444 C12.3623111,0.325168889 12.0371556,0 11.6232889,0 C11.2094222,0 10.8842667,0.325168889 10.8842667,0.739020444 L10.8842667,3.63598222 L8.37164444,2.18750222 C8.01688889,1.98057778 7.57342222,2.09881778 7.36657778,2.45354667 C7.15964444,2.80827556 7.27786667,3.25168889 7.63262222,3.45861333 L10.8842667,5.35050667 L10.8842667,12.0312889 L5.11991111,8.69088 L5.11991111,4.93665778 C5.11991111,4.5228 4.79474667,4.19763556 4.38089778,4.19763556 C3.96704,4.19763556 3.64187556,4.5228 3.64187556,4.93665778 L3.64187556,7.83360889 L1.12920889,6.38513778 C0.77448,6.17820444 0.331066667,6.29645333 0.124142222,6.65118222 C-0.0827822222,7.00591111 0.0354577778,7.44932444 0.390186667,7.65624889 L2.90285333,9.10471111 L0.390186667,10.5532444 C0.0354577778,10.7600889 -0.0827822222,11.2035556 0.124142222,11.5583111 C0.271946667,11.7947556 0.508426667,11.9129778 0.77448,11.9129778 C0.89272,11.9129778 1.04052444,11.8834667 1.12920889,11.8243556 L4.38089778,9.93244444 L10.1452444,13.3024 L4.38089778,16.6427556 L1.12920889,14.7508444 C0.77448,14.5439111 0.331066667,14.6621333 0.124142222,15.0168889 C-0.0827822222,15.3716444 0.0354577778,15.8150222 0.390186667,16.0219556 L2.90285333,17.4704 L0.390186667,18.9189333 C0.0354577778,19.1553778 -0.112346667,19.5988444 0.0945777778,19.9535111 Z" id="Path"></path>
                </g>
            </g>
            <g id="all-season" transform="translate(46.145038, 0.000000)">
                <circle id="Oval" fill-opacity="0.219607843" fill="#FFFFFF" fill-rule="nonzero" cx="19.5992366" cy="19.5992366" r="19.5992366"></circle>
                <g id="All-Season" transform="translate(7.854962, 8.000000)">
                    <line x1="10.0550897" y1="3.13658483" x2="10.0550897" y2="0.653826207" id="Path" stroke="#FFFFFF" stroke-width="0.68" stroke-linecap="round"></line>
                    <path d="M4.55172414,11.1724138 C4.55172414,14.6003586 7.33064276,17.3793103 10.7586207,17.3793103 L10.7586207,4.96551724 C7.33064276,4.96551724 4.55172414,7.74446897 4.55172414,11.1724138 Z" id="Path" fill="#FFFFFF" fill-rule="nonzero"></path>
                    <line x1="6.18591724" y1="4.42102345" x2="4.84327448" y2="2.03219586" id="Path" stroke="#FFFFFF" stroke-width="0.68" stroke-linecap="round"></line>
                    <line x1="3.17282483" y1="7.3838069" x2="0.775257931" y2="6.11183172" id="Path" stroke="#FFFFFF" stroke-width="0.68" stroke-linecap="round"></line>
                    <line x1="3.33255724" y1="15.3568552" x2="0.926995862" y2="16.6287724" id="Path" stroke="#FFFFFF" stroke-width="0.68" stroke-linecap="round"></line>
                    <line x1="6.09780414" y1="18.4747034" x2="4.62729103" y2="20.7859862" id="Path" stroke="#FFFFFF" stroke-width="0.68" stroke-linecap="round"></line>
                    <line x1="10.0550897" y1="19.862069" x2="10.0550897" y2="22.4774069" id="Path" stroke="#FFFFFF" stroke-width="0.68" stroke-linecap="round"></line>
                    <line x1="2.70925241" y1="11.4167172" x2="0" y2="11.4167172" id="Path" stroke="#FFFFFF" stroke-width="0.68" stroke-linecap="round"></line>
                    <path d="M23.904331,5.7770069 C23.8605517,5.70340138 23.8021241,5.63894069 23.7325241,5.58735724 C23.6629241,5.53576552 23.5834759,5.49806897 23.4988138,5.47643586 C23.414069,5.45480276 23.3257655,5.44966345 23.2390345,5.46131586 C23.1523034,5.47296828 23.0687172,5.50118069 22.9933241,5.54432276 L20.7155586,6.81629793 L20.7155586,4.28011034 C20.6976,4.12056 20.6194759,3.97309241 20.496331,3.86596138 C20.3731862,3.75883034 20.2136276,3.69958345 20.0482759,3.69958345 C19.8829241,3.69958345 19.7233655,3.75883034 19.6002207,3.86596138 C19.4769931,3.97309241 19.3989517,4.12056 19.3809103,4.28011034 L19.3809103,7.56091034 L14.1622345,10.4616 L14.1622345,4.59034759 L17.1032276,2.9616 C17.186731,2.92378759 17.261131,2.86953931 17.3217103,2.80228966 C17.3823724,2.73504828 17.4279724,2.6562869 17.455531,2.57102069 C17.4830897,2.48575448 17.4920276,2.39585379 17.4818483,2.30703724 C17.471669,2.21822069 17.4425379,2.13244138 17.3962759,2.0551531 C17.3500966,1.97786483 17.2877793,1.91075586 17.2133793,1.8581131 C17.1389793,1.80547034 17.054069,1.76843586 16.9641103,1.74937655 C16.8741517,1.73031724 16.7810483,1.72963862 16.6908414,1.74739034 C16.6005517,1.76514207 16.5151448,1.80093517 16.4399172,1.85249379 L14.1622345,3.11671448 L14.1622345,0.580518621 C14.1441931,0.420976552 14.0661517,0.27350069 13.9430069,0.166369655 C13.8198621,0.0592468966 13.6603034,0 13.4949517,0 C13.3295172,0 13.1699586,0.0592468966 13.0468138,0.166369655 C12.923669,0.27350069 12.8456276,0.420976552 12.8275862,0.580518621 L12.8275862,3.11671448 L12.8275862,4.59034759 L12.8275862,10.4227862 L12.8275862,22.5918621 C12.8456276,22.7514207 12.923669,22.8988966 13.0468138,23.006069 C13.1699586,23.1131586 13.3295172,23.1724138 13.4949517,23.1724138 C13.6603034,23.1724138 13.8198621,23.1131586 13.9430069,23.006069 C14.0661517,22.8988966 14.1441931,22.7514207 14.1622345,22.5918621 L14.1622345,20.0246897 L16.4319724,21.2889103 C16.5306207,21.3389793 16.6401931,21.3655448 16.7515862,21.3664552 C16.8697655,21.3705931 16.986869,21.3439448 17.0908138,21.2894069 C17.1947586,21.234869 17.2818207,21.1543448 17.3429793,21.0561931 C17.3884138,20.9838621 17.4182069,20.9033379 17.4307034,20.8195034 C17.4432,20.735669 17.438069,20.6502621 17.4157241,20.5684138 C17.3932966,20.4864828 17.354069,20.409931 17.3003586,20.3431448 C17.246731,20.2763586 17.1796138,20.2207448 17.1032276,20.1797793 L14.1382345,18.5510069 L14.1382345,12.6797793 L19.3569931,15.6038069 L19.3569931,18.8845241 C19.3548414,18.9700138 19.3704,19.0550069 19.4029241,19.1345379 C19.4353655,19.2139862 19.4840276,19.2863172 19.545931,19.3471448 C19.6078345,19.4079724 19.6818207,19.4560552 19.7633379,19.4884966 C19.8447724,19.5209379 19.9322483,19.5371586 20.0203034,19.5360828 C20.1087724,19.5370759 20.1964966,19.5209379 20.2784276,19.4885793 C20.3603586,19.4562207 20.4348414,19.4082207 20.4974069,19.3475586 C20.5599724,19.2868138 20.6093793,19.2146483 20.642731,19.1351172 C20.6760828,19.0555862 20.6927172,18.9704276 20.6916414,18.8845241 L20.6916414,16.3560828 L22.9612966,17.6203034 C23.0624276,17.6716138 23.1748966,17.6981793 23.2890207,17.697931 C23.4345931,17.7014069 23.577269,17.6577103 23.6944552,17.5737103 C23.8116414,17.4897103 23.8966345,17.3702897 23.9360276,17.2341517 C23.9754207,17.0980966 23.9669793,16.9531034 23.9120276,16.8222621 C23.8571586,16.6913379 23.7588414,16.5818483 23.6326345,16.5112552 L21.3629793,15.2392552 L23.6326345,13.9750345 C23.7090207,13.934069 23.7760552,13.8785379 23.8297655,13.8117517 C23.8834759,13.7449655 23.9227034,13.668331 23.945131,13.5864828 C23.9674759,13.5045517 23.9726069,13.4191448 23.9601103,13.3353103 C23.9476138,13.2514759 23.9177379,13.1709517 23.8723862,13.0986207 C23.8293517,13.0242207 23.7714207,12.9590069 23.7018207,12.9067862 C23.6323034,12.8546483 23.5526897,12.8164966 23.4676966,12.7948138 C23.3827034,12.773131 23.294069,12.7682483 23.2070897,12.7804138 C23.1200276,12.7926621 23.0365241,12.8217103 22.9612966,12.8659034 L20.0203034,14.517931 L14.8335724,11.570731 L20.0522483,8.64670345 L22.9933241,10.3065103 C23.093131,10.3536 23.2020414,10.38 23.3129379,10.3840552 C23.4305379,10.3850483 23.5464828,10.3571586 23.6498483,10.302869 C23.7532966,10.2486621 23.8408552,10.1697931 23.904331,10.0737931 C23.9488552,10.0005517 23.9779034,9.91953103 23.9899034,9.83528276 C24.0019034,9.75111724 23.9966069,9.66546207 23.9743448,9.5832 C23.952,9.50102069 23.9131862,9.42388966 23.8600552,9.35635862 C23.8068414,9.28882759 23.740469,9.23213793 23.6645793,9.1896 L21.3868966,7.92537931 L23.6645793,6.66118345 C23.740469,6.61867034 23.8068414,6.56199724 23.8600552,6.49444138 C23.9131862,6.42688552 23.952,6.34977931 23.9743448,6.26757517 C23.9966069,6.18537103 24.0019034,6.09969931 23.9899034,6.01550069 C23.9779034,5.93130207 23.9488552,5.85024 23.904331,5.7770069 L23.904331,5.7770069 Z" id="Path" fill="#FFFFFF" fill-rule="nonzero"></path>
                </g>
            </g>
            <g id="performance" fill="#FFFFFF" fill-rule="nonzero">
                <circle id="Oval" fill-opacity="0.219607843" cx="19.5992366" cy="19.5992366" r="19.5992366"></circle>
                <g id="Performance" transform="translate(8.000000, 8.000000)">
                    <path d="M23.0905548,9.69406452 L23.0907871,9.69522581 C23.3461935,10.9721032 23.3464258,12.2495226 23.0905548,13.656929 L23.0903226,13.6582452 C22.0677677,19.921471 16.0594839,24.0148645 9.79176774,22.9919226 C4.93035871,22.0961032 1.09567742,18.3869419 0.328789935,13.5299613 L0.328724903,13.5295742 C-0.694412903,7.26283355 3.52632,1.25305548 9.79099355,0.230249032 C16.0564645,-0.79268129 21.9394065,3.42675871 23.0905548,9.69406452 Z M20.3965161,17.321729 L20.3968258,17.3218839 L20.4005419,17.3158452 C21.4367226,15.6320516 22.0854968,13.6872 22.0854968,11.6110452 C22.0854968,6.55282065 18.3250839,2.1432 13.395329,1.36472516 C7.8164129,0.456637935 2.49958452,4.34872258 1.59192,10.0540645 L1.59190452,10.0541419 C1.20275613,12.5187871 1.7216671,15.1127226 3.14816516,17.3173161 L3.14801032,17.3173935 L3.15123097,17.321729 C3.94323871,18.377729 5.27146839,18.7803871 6.46861935,18.1155871 C9.79246452,16.3259613 13.7551742,16.3259613 17.0790968,18.1155871 C18.2762323,18.7803871 19.6045161,18.377729 20.3965161,17.321729 Z M12.9421161,11.2988129 L12.9194323,11.3214968 L12.9194323,11.3535484 L12.9194323,11.3543226 L12.9194323,11.3550968 L12.9194323,11.355871 L12.9194323,11.3565677 L12.9194323,11.3573419 L12.9194323,11.3581161 L12.9194323,11.3588129 L12.9194323,11.3595871 L12.9194323,11.3603613 L12.9194323,11.3611355 L12.9194323,11.3618323 L12.9194323,11.3626065 L12.9194323,11.3633806 L12.9194323,11.3641548 L12.9194323,11.3648516 L12.9194323,11.3656258 L12.9194323,11.3664 L12.9194323,11.3671742 L12.9194323,11.367871 L12.9194323,11.3686452 L12.9194323,11.3694194 L12.9194323,11.3701935 L12.9194323,11.3708903 L12.9194323,11.3716645 L12.9194323,11.3724387 L12.9194323,11.3731355 L12.9194323,11.3739097 L12.9194323,11.3746839 L12.9194323,11.3754581 L12.9194323,11.3761548 L12.9194323,11.376929 L12.9194323,11.3777032 L12.9194323,11.3784 L12.9194323,11.3791742 L12.9194323,11.3799484 L12.9194323,11.3806452 L12.9194323,11.3814194 L12.9194323,11.3821935 L12.9194323,11.3829677 L12.9194323,11.3836645 L12.9194323,11.3844387 L12.9194323,11.3852129 L12.9194323,11.3859097 L12.9194323,11.3866839 L12.9194323,11.3874581 L12.9194323,11.3881548 L12.9194323,11.388929 L12.9194323,11.3897032 L12.9194323,11.3904 L12.9194323,11.3911742 L12.9194323,11.3919484 L12.9194323,11.3926452 L12.9194323,11.3934194 L12.9194323,11.3941161 L12.9194323,11.3948903 L12.9194323,11.3956645 L12.9194323,11.3963613 L12.9194323,11.3971355 L12.9194323,11.3979097 L12.9194323,11.3986065 L12.9194323,11.3993806 L12.9194323,11.4000774 L12.9194323,11.4008516 L12.9194323,11.4016258 L12.9194323,11.4023226 L12.9194323,11.4030968 L12.9194323,11.4037935 L12.9194323,11.4045677 L12.9194323,11.4052645 L12.9194323,11.4060387 L12.9194323,11.4068129 L12.9194323,11.4075097 L12.9194323,11.4082839 L12.9194323,11.4089806 L12.9194323,11.4097548 L12.9194323,11.4104516 L12.9194323,11.4112258 L12.9194323,11.4119226 L12.9194323,11.4126968 L12.9194323,11.4133935 L12.9194323,11.4141677 L12.9194323,11.4148645 L12.9194323,11.4156387 L12.9194323,11.4163355 L12.9194323,11.4171097 L12.9194323,11.4178065 L12.9194323,11.4185806 L12.9194323,11.4192774 L12.9194323,11.4200516 L12.9194323,11.4207484 L12.9194323,11.4215226 L12.9194323,11.4222194 L12.9194323,11.4229161 L12.9194323,11.4236903 L12.9194323,11.4243871 L12.9194323,11.4251613 L12.9194323,11.4258581 L12.9194323,11.4265548 L12.9194323,11.427329 L12.9194323,11.4280258 L12.9194323,11.4288 L12.9194323,11.4294968 L12.9194323,11.4301935 L12.9194323,11.4309677 L12.9194323,11.4316645 L12.9194323,11.4323613 L12.9194323,11.4331355 L12.9194323,11.4338323 L12.9194323,11.434529 L12.9194323,11.4353032 L12.9194323,11.436 L12.9194323,11.4366968 L12.9194323,11.4373935 L12.9194323,11.4381677 L12.9194323,11.4388645 L12.9194323,11.4395613 L12.9194323,11.4402581 L12.9194323,11.4410323 L12.9194323,11.441729 L12.9194323,11.4424258 L12.9194323,11.4431226 L12.9194323,11.4438194 L12.9194323,11.4445935 L12.9194323,11.4452903 L12.9194323,11.4459871 L12.9194323,11.4466839 L12.9194323,11.4473806 L12.9194323,11.4480774 L12.9194323,11.4488516 L12.9194323,11.4495484 L12.9194323,11.4502452 L12.9194323,11.4509419 L12.9194323,11.4516387 L12.9194323,11.4523355 L12.9194323,11.4530323 L12.9194323,11.453729 L12.9194323,11.4544258 L12.9194323,11.4551226 L12.9194323,11.4558194 L12.9194323,11.4565161 L12.9194323,11.4572129 L12.9194323,11.4579097 L12.9194323,11.4586065 L12.9194323,11.4593032 L12.9194323,11.46 L12.9194323,11.4606968 L12.9194323,11.4613935 L12.9194323,11.4620903 L12.9194323,11.4627871 L12.9194323,11.4634839 L12.9194323,11.4641806 L12.9194323,11.4648774 L12.9194323,11.4655742 L12.9194323,11.4661935 L12.9194323,11.4668903 L12.9194323,11.4675871 L12.9194323,11.4682839 L12.9194323,11.4689806 L12.9194323,11.4696774 L12.9194323,11.4702968 L12.9194323,11.4709935 L12.9194323,11.4716903 L12.9194323,11.4723871 L12.9194323,11.4730065 L12.9194323,11.4737032 L12.9194323,11.4744 L12.9194323,11.4750968 L12.9194323,11.4757161 L12.9194323,11.4764129 L12.9194323,11.4771097 L12.9194323,11.477729 L12.9194323,11.4784258 L12.9194323,11.4791226 L12.9194323,11.4797419 L12.9194323,11.4804387 L12.9194323,11.4811355 L12.9194323,11.4817548 L12.9194323,11.4824516 L12.9194323,11.483071 L12.9194323,11.4837677 L12.9194323,11.4843871 L12.9194323,11.4850839 L12.9194323,11.4857032 L12.9194323,11.4864 L12.9194323,11.4870194 L12.9194323,11.4877161 L12.9194323,11.4883355 L12.9194323,11.4890323 L12.9194323,11.4896516 L12.9194323,11.490271 L12.9194323,11.4909677 L12.9194323,11.4915871 L12.9194323,11.4922839 L12.9194323,11.4929032 L12.9194323,11.4935226 L12.9194323,11.4942194 L12.9194323,11.4948387 L12.9194323,11.4954581 L12.9194323,11.4960774 L12.9194323,11.4967742 L12.9194323,11.4973935 L12.9194323,11.4980129 L12.9194323,11.4986323 L12.9194323,11.499329 L12.9194323,11.4999484 L12.9194323,11.5005677 L12.9194323,11.5011871 L12.9194323,11.5018065 L12.9194323,11.5024258 L12.9194323,11.5031226 L12.9194323,11.5037419 L12.9194323,11.5043613 L12.9194323,11.5049806 L12.9194323,11.5056 L12.9194323,11.5062194 L12.9194323,11.5068387 L12.9194323,11.5074581 L12.9194323,11.5080774 L12.9194323,11.5086968 L12.9194323,11.5093161 L12.9194323,11.5099355 L12.9194323,11.5105548 L12.9194323,11.5111742 L12.9194323,11.5117161 L12.9194323,11.5123355 L12.9194323,11.5129548 L12.9194323,11.5135742 L12.9194323,11.5141935 L12.9194323,11.5148129 L12.9194323,11.5153548 L12.9194323,11.5159742 L12.9194323,11.5165935 L12.9194323,11.5172129 L12.9194323,11.5177548 L12.9194323,11.5183742 L12.9194323,11.5189935 L12.9194323,11.5195355 L12.9194323,11.5201548 L12.9194323,11.5207742 L12.9194323,11.5213161 L12.9194323,11.5219355 L12.9194323,11.5224774 L12.9194323,11.5230968 L12.9194323,11.5237161 L12.9194323,11.5242581 L12.9194323,11.5248774 L12.9194323,11.5254194 L12.9194323,11.5260387 L12.9194323,11.5265806 L12.9194323,11.5271226 L12.9194323,11.5277419 L12.9194323,11.5282839 L12.9194323,11.5289032 L12.9194323,11.5294452 L12.9194323,11.5299871 L12.9194323,11.5306065 L12.9194323,11.5311484 L12.9194323,11.5316903 L12.9194323,11.5322323 L12.9194323,11.5328516 L12.9194323,11.5333935 L12.9194323,11.5339355 L12.9194323,11.5344774 L12.9194323,11.5350194 L12.9194323,11.5356387 L12.9194323,11.5361806 L12.9194323,11.5367226 L12.9194323,11.5372645 L12.9194323,11.5378065 L12.9194323,11.5383484 L12.9194323,11.5388903 L12.9194323,11.5394323 L12.9194323,11.5399742 L12.9194323,11.5405161 L12.9194323,11.5410581 L12.9194323,11.5416 L12.9194323,11.5421419 L12.9194323,11.5426839 L12.9194323,11.5432258 L12.9194323,11.5436903 L12.9194323,11.5442323 L12.9194323,11.5447742 L12.9194323,11.5453161 L12.9194323,11.5458581 L12.9194323,11.5463226 L12.9194323,11.5468645 L12.9194323,11.5474065 L12.9194323,11.547871 L12.9194323,11.5484129 L12.9194323,11.5489548 L12.9194323,11.5494194 L12.9194323,11.5499613 L12.9194323,11.5504258 L12.9194323,11.5509677 L12.9194323,11.5514323 L12.9194323,11.5519742 L12.9194323,11.5524387 L12.9194323,11.5529806 L12.9194323,11.5534452 L12.9194323,11.5539871 L12.9194323,11.5544516 L12.9194323,11.5549161 L12.9194323,11.5554581 L12.9194323,11.5559226 L12.9194323,11.5563871 L12.9194323,11.556929 L12.9194323,11.5573935 L12.9194323,11.5578581 L12.9194323,11.5583226 L12.9194323,11.5588645 L12.9194323,11.559329 L12.9194323,11.5597935 L12.9194323,11.5602581 L12.9194323,11.5607226 L12.9194323,11.5611871 L12.9194323,11.5616516 L12.9194323,11.5621161 L12.9194323,11.5625806 L12.9194323,11.5630452 L12.9194323,11.5635097 L12.9194323,11.5639742 L12.9194323,11.5644387 L12.9194323,11.5649032 L12.9194323,11.5653677 L12.9194323,11.5657548 L12.9194323,11.5662194 L12.9194323,11.5666839 L12.9194323,11.5671484 L12.9194323,11.5676129 L12.9194323,11.568 L12.9194323,11.5684645 L12.9194323,11.568929 L12.9194323,11.5693161 L12.9194323,11.5697806 L12.9194323,11.5701677 L12.9194323,11.5706323 L12.9194323,11.5710968 L12.9194323,11.5714839 L12.9194323,11.571871 L12.9194323,11.5723355 L12.9194323,11.5727226 L12.9194323,11.5731871 L12.9194323,11.5735742 L12.9194323,11.5740387 L12.9194323,11.5744258 L12.9194323,11.5748129 L12.9194323,11.5752 L12.9194323,11.5756645 L12.9194323,11.5760516 L12.9194323,11.5764387 L12.9194323,11.5768258 L12.9194323,11.5772129 L12.9194323,11.5776774 L12.9194323,11.5780645 L12.9194323,11.5784516 L12.9194323,11.5788387 L12.9194323,11.5792258 L12.9194323,11.5796129 L12.9194323,11.58 L12.9194323,11.5803871 L12.9194323,11.5807742 L12.9194323,11.5811613 L12.9194323,11.581471 L12.9194323,11.5818581 L12.9194323,11.5822452 L12.9194323,11.5826323 L12.9194323,11.5830194 L12.9194323,11.583329 L12.9194323,11.5837161 L12.9194323,11.5841032 L12.9194323,11.5844129 L12.9194323,11.5848 L12.9194323,11.5851097 L12.9194323,11.5854968 L12.9194323,11.5858839 L12.9194323,11.5861935 L12.9194323,11.5865806 L12.9194323,11.5868903 L12.9194323,11.5872 L12.9194323,11.5875871 L12.9194323,11.5878968 L12.9194323,11.5882839 L12.9194323,11.5885935 L12.9194323,11.5889032 L12.9194323,11.5892129 L12.9194323,11.5896 L12.9194323,11.5899097 L12.9194323,11.5902194 L12.9194323,11.590529 L12.9194323,11.5908387 L12.9194323,11.5911484 L12.9194323,11.5914581 L12.9194323,11.5917677 L12.9194323,11.5920774 L12.9194323,11.5923871 L12.9194323,11.5926968 L12.9194323,11.5930065 L12.9194323,11.5933161 L12.9194323,11.5936258 L12.9194323,11.5939355 L12.9194323,11.5941677 L12.9194323,11.5944774 L12.9194323,11.5947871 L12.9194323,11.5950968 L12.9194323,11.595329 L12.9194323,11.5956387 L12.9194323,11.595871 L12.9194323,11.5961806 L12.9194323,11.5964903 L12.9194323,11.5967226 L12.9194323,11.5970323 L12.9194323,11.5972645 L12.9194323,11.5974968 L12.9194323,11.5978065 L12.9194323,11.5980387 L12.9194323,11.598271 L12.9194323,11.5985806 L12.9194323,11.5988129 L12.9194323,11.5990452 L12.9194323,11.5992774 L12.9194323,11.5995871 L12.9194323,11.5998194 L12.9194323,11.6000516 L12.9194323,11.6002839 L12.9194323,11.6005161 L12.9194323,11.6007484 L12.9194323,11.6009806 L12.9194323,11.6012129 L12.9194323,11.6014452 L12.9194323,11.6016774 L12.9194323,11.6019097 L12.9194323,11.6020645 L12.9194323,11.6022968 L12.9194323,11.602529 L12.9194323,11.6027613 L12.9194323,11.6029161 L12.9194323,11.6031484 L12.9194323,11.6033806 L12.9194323,11.6035355 L12.9194323,11.6037677 L12.9194323,11.6039226 L12.9194323,11.6041548 L12.9194323,11.6043097 L12.9194323,11.6045419 L12.9194323,11.6046968 L12.9194323,11.604929 L12.9194323,11.6050839 L12.9194323,11.6052387 L12.9194323,11.6053935 L12.9194323,11.6056258 L12.9194323,11.6057806 L12.9194323,11.6059355 L12.9194323,11.6060903 L12.9194323,11.6062452 L12.9194323,11.6064 L12.9194323,11.6065548 L12.9194323,11.6067097 L12.9194323,11.6068645 L12.9194323,11.6070194 L12.9194323,11.6071742 L12.9194323,11.607329 L12.9194323,11.6074839 L12.9194323,11.6076387 L12.9194323,11.6077161 L12.9194323,11.607871 L12.9194323,11.6080258 L12.9194323,11.6081032 L12.9194323,11.6082581 L12.9194323,11.6084129 L12.9194323,11.6084903 L12.9194323,11.6086452 L12.9194323,11.6087226 L12.9194323,11.6088774 L12.9194323,11.6089548 L12.9194323,11.6090323 L12.9194323,11.6091871 L12.9194323,11.6092645 L12.9194323,11.6093419 L12.9194323,11.6094968 L12.9194323,11.6095742 L12.9194323,11.6096516 L12.9194323,11.609729 L12.9194323,11.6098065 L12.9194323,11.6098839 L12.9194323,11.6099613 L12.9194323,11.6100387 L12.9194323,11.6101161 L12.9194323,11.6101935 L12.9194323,11.610271 L12.9194323,11.6103484 L12.9194323,11.6104258 L12.9194323,11.6104258 L12.9194323,11.6105032 L12.9194323,11.6105806 L12.9194323,11.6105806 L12.9194323,11.6106581 L12.9194323,11.6107355 L12.9194323,11.6107355 L12.9194323,11.6108129 L12.9194323,11.6108129 L12.9194323,11.6108903 L12.9194323,11.6108903 L12.9194323,11.6108903 L12.9194323,11.6109677 L12.9194323,11.6109677 L12.9194323,11.6109677 L12.9194323,11.6109677 L12.9194323,11.6110452 L12.9194323,11.6110452 C12.9194323,11.9796387 12.7968774,12.2808 12.5880774,12.4896 C12.3792774,12.6984 12.0781161,12.8209548 11.7095226,12.8209548 C11.340929,12.8209548 11.0397677,12.6984 10.8309677,12.4896 C10.6221677,12.2808 10.4996129,11.9796387 10.4996129,11.6110452 C10.4996129,11.2424516 10.6221677,10.9412903 10.8309677,10.7324903 C11.0397677,10.5236903 11.340929,10.4011355 11.7095226,10.4011355 L11.7102968,10.4011355 L11.7109935,10.4011355 L11.7117677,10.4011355 L11.7125419,10.4011355 L11.7133161,10.4011355 L11.7140129,10.4011355 L11.7147871,10.4011355 L11.7155613,10.4011355 L11.7163355,10.4011355 L11.7170323,10.4011355 L11.7178065,10.4011355 L11.7185806,10.4011355 L11.7193548,10.4011355 L11.7200516,10.4011355 L11.7208258,10.4011355 L11.7216,10.4011355 L11.7222968,10.4011355 L11.723071,10.4011355 L11.7238452,10.4011355 L11.7246194,10.4011355 L11.7253161,10.4011355 L11.7260903,10.4011355 L11.7268645,10.4011355 L11.7276387,10.4011355 L11.7283355,10.4011355 L11.7291097,10.4011355 L11.7298839,10.4011355 L11.7305806,10.4011355 L11.7313548,10.4011355 L11.732129,10.4011355 L11.7329032,10.4011355 L11.7336,10.4011355 L11.7343742,10.4011355 L11.7351484,10.4011355 L11.7358452,10.4011355 L11.7366194,10.4011355 L11.7373935,10.4011355 L11.7380903,10.4011355 L11.7388645,10.4011355 L11.7396387,10.4011355 L11.7403355,10.4011355 L11.7411097,10.4011355 L11.7418839,10.4011355 L11.7426581,10.4011355 L11.7433548,10.4011355 L11.744129,10.4011355 L11.7449032,10.4011355 L11.7456,10.4011355 L11.7463742,10.4011355 L11.747071,10.4011355 L11.7478452,10.4011355 L11.7486194,10.4011355 L11.7493161,10.4011355 L11.7500903,10.4011355 L11.7508645,10.4011355 L11.7515613,10.4011355 L11.7523355,10.4011355 L11.7531097,10.4011355 L11.7538065,10.4011355 L11.7545806,10.4011355 L11.7552774,10.4011355 L11.7560516,10.4011355 L11.7568258,10.4011355 L11.7575226,10.4011355 L11.7582968,10.4011355 L11.7589935,10.4011355 L11.7597677,10.4011355 L11.7604645,10.4011355 L11.7612387,10.4011355 L11.7620129,10.4011355 L11.7627097,10.4011355 L11.7634839,10.4011355 L11.7641806,10.4011355 L11.7649548,10.4011355 L11.7656516,10.4011355 L11.7664258,10.4011355 L11.7671226,10.4011355 L11.7678968,10.4011355 L11.7685935,10.4011355 L11.7693677,10.4011355 L11.7700645,10.4011355 L11.7708387,10.4011355 L11.7715355,10.4011355 L11.7723097,10.4011355 L11.7730065,10.4011355 L11.7737806,10.4011355 L11.7744774,10.4011355 L11.7752516,10.4011355 L11.7759484,10.4011355 L11.7767226,10.4011355 L11.7774194,10.4011355 L11.7781935,10.4011355 L11.7788903,10.4011355 L11.7795871,10.4011355 L11.7803613,10.4011355 L11.7810581,10.4011355 L11.7818323,10.4011355 L11.782529,10.4011355 L11.7832258,10.4011355 L11.784,10.4011355 L11.7846968,10.4011355 L11.7853935,10.4011355 L11.7861677,10.4011355 L11.7868645,10.4011355 L11.7876387,10.4011355 L11.7883355,10.4011355 L11.7890323,10.4011355 L11.789729,10.4011355 L11.7905032,10.4011355 L11.7912,10.4011355 L11.7918968,10.4011355 L11.792671,10.4011355 L11.7933677,10.4011355 L11.7940645,10.4011355 L11.7947613,10.4011355 L11.7955355,10.4011355 L11.7962323,10.4011355 L11.796929,10.4011355 L11.7976258,10.4011355 L11.7984,10.4011355 L11.7990968,10.4011355 L11.7997935,10.4011355 L11.8004903,10.4011355 L11.8011871,10.4011355 L11.8019613,10.4011355 L11.8026581,10.4011355 L11.8033548,10.4011355 L11.8040516,10.4011355 L11.8047484,10.4011355 L11.8054452,10.4011355 L11.8061419,10.4011355 L11.8068387,10.4011355 L11.8076129,10.4011355 L11.8083097,10.4011355 L11.8090065,10.4011355 L11.8097032,10.4011355 L11.8104,10.4011355 L11.8110968,10.4011355 L11.8117935,10.4011355 L11.8124903,10.4011355 L11.8131871,10.4011355 L11.8138839,10.4011355 L11.8145806,10.4011355 L11.8152774,10.4011355 L11.8159742,10.4011355 L11.816671,10.4011355 L11.8173677,10.4011355 L11.8180645,10.4011355 L11.8187613,10.4011355 L11.8193806,10.4011355 L11.8200774,10.4011355 L11.8207742,10.4011355 L11.821471,10.4011355 L11.8221677,10.4011355 L11.8228645,10.4011355 L11.8235613,10.4011355 L11.8242581,10.4011355 L11.8248774,10.4011355 L11.8255742,10.4011355 L11.826271,10.4011355 L11.8269677,10.4011355 L11.8276645,10.4011355 L11.8282839,10.4011355 L11.8289806,10.4011355 L11.8296774,10.4011355 L11.8303742,10.4011355 L11.8309935,10.4011355 L11.8316903,10.4011355 L11.8323871,10.4011355 L11.8330065,10.4011355 L11.8337032,10.4011355 L11.8344,10.4011355 L11.8350194,10.4011355 L11.8357161,10.4011355 L11.8363355,10.4011355 L11.8370323,10.4011355 L11.837729,10.4011355 L11.8383484,10.4011355 L11.8390452,10.4011355 L11.8396645,10.4011355 L11.8403613,10.4011355 L11.8409806,10.4011355 L11.8416774,10.4011355 L11.8422968,10.4011355 L11.8429935,10.4011355 L11.8436129,10.4011355 L11.8443097,10.4011355 L11.844929,10.4011355 L11.8456258,10.4011355 L11.8462452,10.4011355 L11.8468645,10.4011355 L11.8475613,10.4011355 L11.8481806,10.4011355 L11.8488774,10.4011355 L11.8494968,10.4011355 L11.8501161,10.4011355 L11.8508129,10.4011355 L11.8514323,10.4011355 L11.8520516,10.4011355 L11.852671,10.4011355 L11.8533677,10.4011355 L11.8539871,10.4011355 L11.8546065,10.4011355 L11.8552258,10.4011355 L11.8558452,10.4011355 L11.8565419,10.4011355 L11.8571613,10.4011355 L11.8577806,10.4011355 L11.8584,10.4011355 L11.8590194,10.4011355 L11.8596387,10.4011355 L11.8602581,10.4011355 L11.8608774,10.4011355 L11.8614968,10.4011355 L11.8621161,10.4011355 L11.8627355,10.4011355 L11.8633548,10.4011355 L11.8639742,10.4011355 L11.8645935,10.4011355 L11.8652129,10.4011355 L11.8658323,10.4011355 L11.8664516,10.4011355 L11.867071,10.4011355 L11.8676903,10.4011355 L11.8683097,10.4011355 L11.868929,10.4011355 L11.8695484,10.4011355 L11.8700903,10.4011355 L11.8707097,10.4011355 L11.871329,10.4011355 L11.8719484,10.4011355 L11.8725677,10.4011355 L11.8731097,10.4011355 L11.873729,10.4011355 L11.8743484,10.4011355 L11.8748903,10.4011355 L11.8755097,10.4011355 L11.876129,10.4011355 L11.876671,10.4011355 L11.8772903,10.4011355 L11.8779097,10.4011355 L11.8784516,10.4011355 L11.879071,10.4011355 L11.8796129,10.4011355 L11.8802323,10.4011355 L11.8807742,10.4011355 L11.8813935,10.4011355 L11.8819355,10.4011355 L11.8825548,10.4011355 L11.8830968,10.4011355 L11.8836387,10.4011355 L11.8842581,10.4011355 L11.8848,10.4011355 L11.8854194,10.4011355 L11.8859613,10.4011355 L11.8865032,10.4011355 L11.8871226,10.4011355 L11.8876645,10.4011355 L11.8882065,10.4011355 L11.8887484,10.4011355 L11.8893677,10.4011355 L11.8899097,10.4011355 L11.8904516,10.4011355 L11.8909935,10.4011355 L11.8915355,10.4011355 L11.8920774,10.4011355 L11.8926194,10.4011355 L11.8932387,10.4011355 L11.8937806,10.4011355 L11.8943226,10.4011355 L11.8948645,10.4011355 L11.8954065,10.4011355 L11.8959484,10.4011355 L11.8964903,10.4011355 L11.8970323,10.4011355 L11.8974968,10.4011355 L11.8980387,10.4011355 L11.8985806,10.4011355 L11.8991226,10.4011355 L11.8996645,10.4011355 L11.9002065,10.4011355 L11.9007484,10.4011355 L11.9012129,10.4011355 L11.9017548,10.4011355 L11.9022968,10.4011355 L11.9028387,10.4011355 L11.9033032,10.4011355 L11.9038452,10.4011355 L11.9043871,10.4011355 L11.9048516,10.4011355 L11.9053935,10.4011355 L11.9058581,10.4011355 L11.9064,10.4011355 L11.9068645,10.4011355 L11.9074065,10.4011355 L11.907871,10.4011355 L11.9084129,10.4011355 L11.9088774,10.4011355 L11.9094194,10.4011355 L11.9098839,10.4011355 L11.9104258,10.4011355 L11.9108903,10.4011355 L11.9113548,10.4011355 L11.9118968,10.4011355 L11.9123613,10.4011355 L11.9128258,10.4011355 L11.9132903,10.4011355 L11.9138323,10.4011355 L11.9142968,10.4011355 L11.9147613,10.4011355 L11.9152258,10.4011355 L11.9156903,10.4011355 L11.9162323,10.4011355 L11.9166968,10.4011355 L11.9171613,10.4011355 L11.9176258,10.4011355 L11.9180903,10.4011355 L11.9185548,10.4011355 L11.9190194,10.4011355 L11.9194839,10.4011355 L11.9199484,10.4011355 L11.9203355,10.4011355 L11.9208,10.4011355 L11.9212645,10.4011355 L11.921729,10.4011355 L11.9221935,10.4011355 L11.9226581,10.4011355 L11.9230452,10.4011355 L11.9235097,10.4011355 L11.9239742,10.4011355 L11.9244387,10.4011355 L11.9248258,10.4011355 L11.9252903,10.4011355 L11.9256774,10.4011355 L11.9261419,10.4011355 L11.9266065,10.4011355 L11.9269935,10.4011355 L11.9274581,10.4011355 L11.9278452,10.4011355 L11.9283097,10.4011355 L11.9286968,10.4011355 L11.9290839,10.4011355 L11.9295484,10.4011355 L11.9299355,10.4011355 L11.9303226,10.4011355 L11.9307871,10.4011355 L11.9311742,10.4011355 L11.9315613,10.4011355 L11.9320258,10.4011355 L11.9324129,10.4011355 L11.9328,10.4011355 L11.9331871,10.4011355 L11.9335742,10.4011355 L11.9339613,10.4011355 L11.9343484,10.4011355 L11.9347355,10.4011355 L11.9351226,10.4011355 L11.9355097,10.4011355 L11.9358968,10.4011355 L11.9362839,10.4011355 L11.936671,10.4011355 L11.9370581,10.4011355 L11.9374452,10.4011355 L11.9378323,10.4011355 L11.9382194,10.4011355 L11.938529,10.4011355 L11.9389161,10.4011355 L11.9393032,10.4011355 L11.9396903,10.4011355 L11.94,10.4011355 L11.9403871,10.4011355 L11.9406968,10.4011355 L11.9410839,10.4011355 L11.941471,10.4011355 L11.9417806,10.4011355 L11.9421677,10.4011355 L11.9424774,10.4011355 L11.9428645,10.4011355 L11.9431742,10.4011355 L11.9434839,10.4011355 L11.943871,10.4011355 L11.9441806,10.4011355 L11.9444903,10.4011355 L11.9448774,10.4011355 L11.9451871,10.4011355 L11.9454968,10.4011355 L11.9458065,10.4011355 L11.9461161,10.4011355 L11.9465032,10.4011355 L11.9468129,10.4011355 L11.9471226,10.4011355 L11.9474323,10.4011355 L11.9477419,10.4011355 L11.9480516,10.4011355 L11.9483613,10.4011355 L11.948671,10.4011355 L11.9489806,10.4011355 L11.9492903,10.4011355 L11.9495226,10.4011355 L11.9498323,10.4011355 L11.9501419,10.4011355 L11.9504516,10.4011355 L11.9506839,10.4011355 L11.9509935,10.4011355 L11.9513032,10.4011355 L11.9515355,10.4011355 L11.9518452,10.4011355 L11.9521548,10.4011355 L11.9523871,10.4011355 L11.9526968,10.4011355 L11.952929,10.4011355 L11.9532387,10.4011355 L11.953471,10.4011355 L11.9537032,10.4011355 L11.9540129,10.4011355 L11.9542452,10.4011355 L11.9544774,10.4011355 L11.9547871,10.4011355 L11.9550194,10.4011355 L11.9552516,10.4011355 L11.9554839,10.4011355 L11.9557161,10.4011355 L11.9559484,10.4011355 L11.9562581,10.4011355 L11.9564903,10.4011355 L11.9567226,10.4011355 L11.9569548,10.4011355 L11.9571871,10.4011355 L11.9573419,10.4011355 L11.9575742,10.4011355 L11.9578065,10.4011355 L11.9580387,10.4011355 L11.958271,10.4011355 L11.9585032,10.4011355 L11.9586581,10.4011355 L11.9588903,10.4011355 L11.9591226,10.4011355 L11.9592774,10.4011355 L11.9595097,10.4011355 L11.9596645,10.4011355 L11.9598968,10.4011355 L11.9600516,10.4011355 L11.9602839,10.4011355 L11.9604387,10.4011355 L11.960671,10.4011355 L11.9608258,10.4011355 L11.9609806,10.4011355 L11.9612129,10.4011355 L11.9613677,10.4011355 L11.9615226,10.4011355 L11.9616774,10.4011355 L11.9619097,10.4011355 L11.9620645,10.4011355 L11.9622194,10.4011355 L11.9623742,10.4011355 L11.962529,10.4011355 L11.9626839,10.4011355 L11.9628387,10.4011355 L11.9629935,10.4011355 L11.9631484,10.4011355 L11.9633032,10.4011355 L11.9633806,10.4011355 L11.9635355,10.4011355 L11.9636903,10.4011355 L11.9638452,10.4011355 L11.9639226,10.4011355 L11.9640774,10.4011355 L11.9642323,10.4011355 L11.9643097,10.4011355 L11.9644645,10.4011355 L11.9645419,10.4011355 L11.9646968,10.4011355 L11.9647742,10.4011355 L11.964929,10.4011355 L11.9650065,10.4011355 L11.9650839,10.4011355 L11.9652387,10.4011355 L11.9653161,10.4011355 L11.9653935,10.4011355 L11.965471,10.4011355 L11.9656258,10.4011355 L11.9657032,10.4011355 L11.9657806,10.4011355 L11.9658581,10.4011355 L11.9659355,10.4011355 L11.9660129,10.4011355 L11.9660903,10.4011355 L11.9661677,10.4011355 L11.9662452,10.4011355 L11.9662452,10.4011355 L11.9663226,10.4011355 L11.9664,10.4011355 L11.9664774,10.4011355 L11.9664774,10.4011355 L11.9665548,10.4011355 L11.9666323,10.4011355 L11.9666323,10.4011355 L11.9667097,10.4011355 L11.9667097,10.4011355 L11.9667871,10.4011355 L11.9667871,10.4011355 L11.9668645,10.4011355 L11.9668645,10.4011355 L11.9668645,10.4011355 L11.9669419,10.4011355 L11.9669419,10.4011355 L11.9669419,10.4011355 L11.9669419,10.4011355 L11.9669419,10.4011355 L11.9669419,10.4011355 L11.999071,10.4011355 L12.0217548,10.3784516 L17.0330323,5.36711226 C17.146529,5.31391742 17.3191742,5.28510194 17.4960774,5.29983484 C17.6787097,5.31505548 17.8515097,5.37547355 17.9626839,5.48661677 C18.1899097,5.71385032 18.1899097,6.0510271 17.9626839,6.27826065 L12.9421161,11.2988129 Z" id="Shape"></path>
                </g>
            </g>
        </g>
    </g>
</svg>