<svg width="30" height="30" viewBox="0 0 30 30" fill="none" xmlns="http://www.w3.org/2000/svg">
<path d="M28 25H2C1.44772 25 1 25.4477 1 26V27C1 27.5523 1.44771 28 2 28H28C28.5523 28 29 27.5523 29 27V26C29 25.4477 28.5523 25 28 25Z" stroke="currentColor" stroke-width="1.3" stroke-linejoin="round"/>
<path d="M15 25H5L13.6364 2.60862C14.0909 1.46154 14.2727 1 15 1" stroke="currentColor" stroke-width="1.3"/>
<path d="M15 25H25L16.3636 2.60862C15.9091 1.46154 15.7273 1 15 1" stroke="currentColor" stroke-width="1.3"/>
<path d="M9 14L21 14" stroke="currentColor" stroke-width="1.3"/>
<path d="M7 20L23 20" stroke="currentColor" stroke-width="1.3"/>
</svg>
