<svg width="30" height="30" viewBox="0 0 30 30" fill="none" xmlns="http://www.w3.org/2000/svg">
<path d="M15 18C18.1733 18 22 13.7647 22 9.05882L22 2C19.9 2 17.3323 2 15 2" stroke="currentColor" stroke-width="1.3" stroke-linecap="round" stroke-linejoin="round"/>
<path d="M15 18C11.8267 18 8 13.7647 8 9.05882L8 2C10.1 2 12.6677 2 15 2" stroke="currentColor" stroke-width="1.3" stroke-linecap="round" stroke-linejoin="round"/>
<path d="M13 17.5L13 24" stroke="currentColor" stroke-width="1.3"/>
<path d="M17 17.5L17 24" stroke="currentColor" stroke-width="1.3"/>
<path d="M10 15C4.81348 13.7889 2 10.1197 2 7.11381C2 6.66898 2.24479 4 4.85586 4C6.47161 4 7.33748 4.7949 7.76283 5.64686L8.09609 6.31682" stroke="currentColor" stroke-width="1.3"/>
<path d="M20 15C25.1865 13.7889 28 10.1197 28 7.11381C28 6.66898 27.7552 4 25.1441 4C23.5284 4 22.6625 4.7949 22.2372 5.64686L21.9039 6.31682" stroke="currentColor" stroke-width="1.3"/>
<path d="M10.5 24H19H19.5L21 29H9L10.5 24Z" stroke="currentColor" stroke-width="1.3" stroke-linejoin="round"/>
</svg>
