<svg width="30" height="30" viewBox="0 0 30 30" fill="none" xmlns="http://www.w3.org/2000/svg">
<path d="M2.1064 22.4477C2.27268 22.7138 2.53873 22.8468 2.83803 22.8468C2.97105 22.8468 3.13733 22.8136 3.2371 22.747L6.06385 21.1175V24.3766C6.06385 24.8422 6.42967 25.208 6.89525 25.208C7.36083 25.208 7.72665 24.8422 7.72665 24.3766V20.1531L14.2116 16.3952V23.911L10.5534 26.0394C10.1543 26.2722 10.0213 26.771 10.2541 27.1701C10.4204 27.4361 10.6864 27.5691 10.9857 27.5691C11.1188 27.5691 11.285 27.5359 11.3848 27.4694L14.2116 25.8398V29.0989C14.2116 29.5645 14.5774 29.9303 15.0429 29.9303C15.5085 29.9303 15.8743 29.5645 15.8743 29.0989V25.8398L18.7011 27.4694C18.8341 27.5359 18.9671 27.5691 19.1002 27.5691C19.3995 27.5691 19.6655 27.4361 19.8318 27.1701C20.0646 26.771 19.9316 26.2722 19.5325 26.0394L15.8743 23.911V16.3952L22.3592 20.1531V24.3766C22.3592 24.8422 22.7251 25.208 23.1906 25.208C23.6562 25.208 24.022 24.8422 24.022 24.3766V21.1175L26.8488 22.747C26.9818 22.8136 27.1148 22.8468 27.2479 22.8468C27.5472 22.8468 27.8132 22.7138 27.9795 22.4477C28.2123 22.0487 28.0793 21.5498 27.6802 21.317L24.8534 19.6875L27.6802 18.058C28.0793 17.8252 28.2123 17.3263 27.9795 16.9273C27.7467 16.5282 27.2479 16.3952 26.8488 16.628L23.1906 18.7563L16.739 14.9652L23.2239 11.2072L26.8821 13.3356C27.0151 13.4021 27.1481 13.4354 27.2811 13.4354C27.5804 13.4354 27.8465 13.3024 28.0128 13.0363C28.2455 12.6372 28.1125 12.1384 27.7135 11.9056L24.8867 10.2761L27.7135 8.64654C28.1125 8.41374 28.2455 7.91491 28.0128 7.51583C27.78 7.11676 27.2811 6.98374 26.8821 7.21653L24.0553 8.84607V5.58699C24.0553 5.12141 23.6895 4.75559 23.2239 4.75559C22.7583 4.75559 22.3925 5.12141 22.3925 5.58699V9.81049L15.9076 13.5352V6.01932L19.5658 3.89094C19.9648 3.65815 20.0978 3.15931 19.8651 2.76024C19.6323 2.36117 19.1334 2.22815 18.7344 2.46094L15.9076 4.09048V0.831398C15.9076 0.365815 15.5418 0 15.0762 0C14.6106 0 14.2448 0.365815 14.2448 0.831398V4.09048L11.4181 2.46094C11.019 2.22815 10.5201 2.36117 10.2874 2.76024C10.0546 3.15931 10.1876 3.65815 10.5867 3.89094L14.2448 6.01932V13.5352L7.7599 9.77724V5.55374C7.7599 5.08815 7.39409 4.72234 6.92851 4.72234C6.46292 4.72234 6.09711 5.08815 6.09711 5.55374V8.81281L3.27036 7.18328C2.87129 6.95048 2.37245 7.08351 2.13966 7.48258C1.90687 7.88165 2.03989 8.38049 2.43896 8.61328L5.26571 10.2428L2.43896 11.8724C2.03989 12.1051 1.90687 12.604 2.13966 13.0031C2.30594 13.2691 2.57198 13.4021 2.87129 13.4021C3.00431 13.4021 3.17059 13.3689 3.27036 13.3024L6.92851 11.174L13.4134 14.9652L6.92851 18.7231L3.27036 16.5947C2.87129 16.3619 2.37245 16.4949 2.13966 16.894C1.90687 17.2931 2.03989 17.7919 2.43896 18.0247L5.26571 19.6542L2.43896 21.2838C2.03989 21.5498 1.87361 22.0487 2.1064 22.4477Z" fill="currentColor"/>
</svg>
