<svg width="30" height="30" viewBox="0 0 30 30" fill="none" xmlns="http://www.w3.org/2000/svg">
<path fill-rule="evenodd" clip-rule="evenodd" d="M14.8499 1H13.2267L15.0814 4.70931C15.1729 4.8923 15.1729 5.10769 15.0814 5.29068L13.2267 9L15.0814 12.7093C15.1729 12.8923 15.1729 13.1077 15.0814 13.2907L13.2267 17L15.0814 20.7093C15.1729 20.8923 15.1729 21.1077 15.0814 21.2907L13.2267 25L15.0814 28.7093C15.1281 28.8028 15.1502 28.9021 15.1501 29H16.7733L14.9186 25.2907C14.8271 25.1077 14.8271 24.8923 14.9186 24.7093L16.7733 21L14.9186 17.2907C14.8271 17.1077 14.8271 16.8923 14.9186 16.7093L16.7733 13L14.9186 9.29068C14.8271 9.10769 14.8271 8.8923 14.9186 8.70931L16.7733 5L14.9186 1.29068C14.8719 1.19721 14.8498 1.09785 14.8499 1ZM18.1501 28.9944C19.1846 28.9177 20 28.0541 20 27V3C20 1.89543 19.1046 1 18 1H16.2267L18.0814 4.70931C18.1729 4.8923 18.1729 5.10769 18.0814 5.29068L16.2267 9L18.0814 12.7093C18.1729 12.8923 18.1729 13.1077 18.0814 13.2907L16.2267 17L18.0814 20.7093C18.1729 20.8923 18.1729 21.1077 18.0814 21.2907L16.2267 25L18.0814 28.7093C18.1272 28.801 18.1494 28.8984 18.1501 28.9944ZM10 3C10 1.94593 10.8154 1.08232 11.8499 1.00555C11.8506 1.1016 11.8728 1.19897 11.9186 1.29068L13.7733 5L11.9186 8.70931C11.8271 8.8923 11.8271 9.10769 11.9186 9.29068L13.7733 13L11.9186 16.7093C11.8271 16.8923 11.8271 17.1077 11.9186 17.2907L13.7733 21L11.9186 24.7093C11.8271 24.8923 11.8271 25.1077 11.9186 25.2907L13.7733 29H12C10.8954 29 10 28.1046 10 27V3Z" fill="currentColor"/>
<circle cx="8" cy="27" r="1" transform="rotate(-180 8 27)" fill="currentColor"/>
<circle cx="22" cy="27" r="1" transform="rotate(-180 22 27)" fill="currentColor"/>
<circle cx="7" cy="24" r="1" transform="rotate(-180 7 24)" fill="currentColor"/>
<circle cx="23" cy="24" r="1" transform="rotate(-180 23 24)" fill="currentColor"/>
<circle cx="3" cy="22" r="1" transform="rotate(-180 3 22)" fill="currentColor"/>
<circle cx="27" cy="22" r="1" transform="rotate(-180 27 22)" fill="currentColor"/>
</svg>
