<svg width="24" height="24" viewBox="0 0 24 24" fill="none" xmlns="http://www.w3.org/2000/svg">
<path d="M13.065 14.62V14.53C13.065 13.915 13.35 13.45 13.875 13.075L14.49 12.64C15.375 12.01 15.975 11.17 15.975 9.985C15.975 8.47 14.76 7 12.435 7C10.215 7 9 8.56 9 10.18C9 10.405 9.015 10.645 9.075 10.855L10.965 10.93C10.92 10.795 10.905 10.63 10.905 10.45C10.905 9.61 11.37 8.755 12.435 8.755C13.44 8.755 13.935 9.415 13.935 10.105C13.935 10.555 13.74 10.96 13.29 11.29L12.57 11.83C11.715 12.475 11.385 13.21 11.385 14.005C11.385 14.23 11.415 14.425 11.445 14.62H13.065ZM11.1 16.795C11.1 17.455 11.625 17.98 12.285 17.98C12.945 17.98 13.485 17.455 13.485 16.795C13.485 16.135 12.945 15.595 12.285 15.595C11.625 15.595 11.1 16.135 11.1 16.795Z" fill="currentColor"/>
<rect x="1" y="1" width="22" height="22" rx="8" stroke="currentColor" stroke-width="2"/>
</svg>
