<svg width="63" height="25" stroke="currentColor" viewBox="0 0 63 25" fill="none" xmlns="http://www.w3.org/2000/svg">
<path d="M34.0898 13.3423H32.0229"  stroke-width="1.2" stroke-linecap="round" stroke-linejoin="round"/>
<path d="M8.96754 20.552L3.99688 19.7149C3.15709 19.5723 2.39511 19.1365 1.84638 18.4849C1.29766 17.8334 0.997765 17.0084 1.00001 16.1566V9.20179C1.00001 9.19726 1.0009 9.19279 1.00263 9.18861C1.00437 9.18443 1.0069 9.18063 1.0101 9.17743C1.0133 9.17423 1.0171 9.17169 1.02128 9.16996C1.02546 9.16823 1.02994 9.16734 1.03446 9.16734H26.1806V2.16432C26.1801 2.011 26.21 1.85911 26.2686 1.71742C26.3272 1.57573 26.4132 1.44705 26.5218 1.33879C26.6304 1.23054 26.7593 1.14487 26.9012 1.08672C27.043 1.02858 27.195 0.99911 27.3483 1.00002H37.9648C38.5438 1.0001 39.116 1.12473 39.6426 1.36544C40.1692 1.60615 40.6379 1.95732 41.0168 2.39511L47.1586 9.4877L55.7703 10.3902C56.8269 10.4817 57.8316 10.8886 58.654 11.5581C59.4765 12.2277 60.0788 13.1289 60.3827 14.1449L61.2818 17.097C61.4288 17.5594 61.4547 18.0518 61.357 18.527C61.2593 19.0023 61.0413 19.4445 60.7238 19.8114C60.5309 20.03 60.2933 20.2047 60.027 20.3236C59.7608 20.4424 59.4721 20.5027 59.1805 20.5003"  stroke-width="1.2" stroke-linecap="round" stroke-linejoin="round"/>
<path d="M42.7423 20.5518H22.157"  stroke-width="1.2" stroke-linecap="round" stroke-linejoin="round"/>
<path d="M47.2552 9.49805H29.4875"  stroke-width="1.2" stroke-linecap="round" stroke-linejoin="round"/>
<path d="M60.1583 14.4343H58.0871C58.0038 14.4561 57.8372 14.5669 57.8372 14.8359C57.837 16.0804 58.2896 16.9239 58.8179 17.1901H61.2818"  stroke-width="1.2" stroke-linecap="round" stroke-linejoin="round"/>
<path d="M1 11.9646H3.75574V15.4093H1"  stroke-width="1.2" stroke-linecap="round" stroke-linejoin="round"/>
<path d="M49.6658 16.1158C50.3734 15.6422 51.2056 15.3891 52.057 15.3884C52.6228 15.388 53.1831 15.499 53.7059 15.7152C54.2287 15.9314 54.7038 16.2485 55.104 16.6484C55.5042 17.0482 55.8216 17.5231 56.0382 18.0457C56.2548 18.5683 56.3663 19.1285 56.3663 19.6943C56.3663 20.5457 56.1139 21.3781 55.6409 22.0861C55.1679 22.7941 54.4956 23.346 53.7091 23.672C52.9225 23.998 52.0569 24.0835 51.2217 23.9176C50.3866 23.7518 49.6193 23.342 49.017 22.7402C48.4147 22.1383 48.0043 21.3714 47.8378 20.5364C47.6713 19.7014 47.756 18.8357 48.0814 18.0489C48.4068 17.262 48.9581 16.5893 49.6658 16.1158Z"  stroke-width="1.2"/>
<path d="M15.2885 15.3884C14.4371 15.3898 13.6053 15.6435 12.8981 16.1174C12.191 16.5914 11.6401 17.2644 11.3153 18.0513C10.9904 18.8382 10.9062 19.7037 11.0731 20.5385C11.24 21.3733 11.6506 22.1399 12.2531 22.7414C12.8555 23.3429 13.6228 23.7523 14.4578 23.9179C15.2929 24.0835 16.1583 23.9978 16.9447 23.6717C17.7311 23.3456 18.4032 22.7937 18.876 22.0858C19.3488 21.3778 19.6012 20.5456 19.6012 19.6943C19.6012 19.1282 19.4896 18.5678 19.2728 18.0449C19.0559 17.522 18.7382 17.0471 18.3376 16.6471C17.937 16.2472 17.4615 15.9302 16.9383 15.7142C16.4151 15.4982 15.8545 15.3875 15.2885 15.3884Z"  stroke-width="1.2"/>
</svg>
