<svg width="45" height="36" viewBox="0 0 45 36"  stroke="currentColor" fill="none" xmlns="http://www.w3.org/2000/svg">
<path d="M13.2864 32.7632H20.4925"  stroke-width="1.2" stroke-linecap="round" stroke-linejoin="round"/>
<path d="M1.24951 27.1538V7.84302C1.25033 6.93664 1.61075 6.06761 2.25166 5.4267C2.89256 4.7858 3.76159 4.42538 4.66797 4.42456H20.4064L29.4064 23.0892H21.1941C20.8677 23.0892 20.5547 23.2188 20.3238 23.4497C20.093 23.6805 19.9634 23.9935 19.9634 24.3199V25.403H15.5234V23.0123C15.5238 22.7029 15.4632 22.3965 15.3451 22.1105C15.227 21.8246 15.0536 21.5647 14.835 21.3458C14.6164 21.1269 14.3568 20.9533 14.071 20.8348C13.7852 20.7163 13.4789 20.6553 13.1695 20.6553H4.01874V25.9569"  stroke-width="1.2" stroke-linecap="round" stroke-linejoin="round"/>
<path d="M20.1326 18.3477L21.8033 19.4V23.0892"  stroke-width="1.2" stroke-linecap="round" stroke-linejoin="round"/>
<path d="M20.9417 16.4861L19.0063 19.9538"  stroke-width="1.2" stroke-linecap="round" stroke-linejoin="round"/>
<path d="M6.33264 20.4862V13.6154C6.33182 13.2243 6.17586 12.8494 5.89897 12.5731C5.62208 12.2968 5.24688 12.1416 4.85571 12.1416"  stroke-width="1.2" stroke-linecap="round" stroke-linejoin="round"/>
<path d="M29.4064 23.0892V4.42462H27.7295V1H32.5633C32.8987 1 33.2204 1.13324 33.4576 1.3704C33.6947 1.60756 33.828 1.92922 33.828 2.26462V30.9723H41.4126C41.4126 30.9723 44.0341 31 44.0341 28.3477"  stroke-width="1.2" stroke-linecap="round" stroke-linejoin="round"/>
<path d="M26.56 25.7693C25.6471 25.7693 24.7548 26.04 23.9958 26.5471C23.2368 27.0543 22.6452 27.7751 22.2959 28.6184C21.9466 29.4618 21.8552 30.3898 22.0333 31.2851C22.2114 32.1804 22.6509 33.0028 23.2964 33.6482C23.9419 34.2937 24.7643 34.7333 25.6596 34.9114C26.5548 35.0895 27.4828 34.9981 28.3262 34.6487C29.1695 34.2994 29.8904 33.7078 30.3975 32.9488C30.9047 32.1898 31.1754 31.2975 31.1754 30.3847C31.1754 29.1606 30.6891 27.9867 29.8235 27.1211C28.958 26.2555 27.784 25.7693 26.56 25.7693Z"  stroke-width="1.2"/>
<path d="M3.18615 27.876C3.81865 27.4534 4.56226 27.2278 5.32296 27.2278C5.82805 27.2278 6.32818 27.3273 6.79482 27.5206C7.26146 27.7138 7.68545 27.9971 8.0426 28.3543C8.39975 28.7114 8.68306 29.1354 8.87634 29.6021C9.06963 30.0687 9.16912 30.5689 9.16912 31.0739C9.16912 31.8346 8.94354 32.5783 8.52092 33.2107C8.0983 33.8432 7.49761 34.3362 6.79482 34.6273C6.09203 34.9184 5.3187 34.9946 4.57261 34.8462C3.82653 34.6978 3.14121 34.3315 2.60332 33.7936C2.06543 33.2557 1.69912 32.5704 1.55071 31.8243C1.40231 31.0782 1.47847 30.3049 1.76958 29.6021C2.06069 28.8993 2.55366 28.2986 3.18615 27.876Z"  stroke-width="1.2"/>
</svg>
