<svg xmlns="http://www.w3.org/2000/svg" width="42" height="18" viewBox="0 0 42 18" fill="none">
  <path stroke="currentColor" stroke-linecap="round" stroke-linejoin="round" stroke-width="2" d="M2.63245 13.0665S1 13.0665 1 9.70383c0-3.36271 2.5236-4.12674 1.63245-5.9607C1.7413 1.90917 14.8036.534048 19.1081 1.14855c4.3046.61451 8.4607 3.9383 10.2416 4.03047 1.781.09218 9.6475.97092 10.2403 3.43577.5928 2.46481 2.0584 4.49321-2.2659 5.35811"/>
  <path stroke="currentColor" stroke-linecap="round" stroke-linejoin="round" stroke-width="2" d="M6.78223 5.04895S11.5809 6.332 14.8827 6.6186c3.3019.28661 10.0616 1.02493 10.0616 1.02493M14.8367 13.9729h10.3225"/>
  <path fill="currentColor" stroke="currentColor" stroke-width=".15" d="M31.8142 10.0061c-1.9517 0-3.5345 1.5827-3.5345 3.5344 0 1.9517 1.5828 3.5344 3.5345 3.5344s3.5344-1.5827 3.5344-3.5344c0-1.9517-1.5827-3.5344-3.5344-3.5344zm0 5.544c-1.1051 0-2.0007-.8956-2.0007-2.0006s.8956-2.0007 2.0007-2.0007c1.105 0 2.0006.8957 2.0006 2.0007s-.8956 2.0006-2.0006 2.0006zM8.35055 10.0061c-1.95172 0-3.53444 1.5827-3.53444 3.5344 0 1.9517 1.58272 3.5344 3.53444 3.5344 1.95175 0 3.53445-1.5827 3.53445-3.5344 0-1.9517-1.5827-3.5344-3.53445-3.5344zm0 5.544c-1.10504 0-2.00066-.8956-2.00066-2.0006s.89562-2.0007 2.00066-2.0007c1.10504 0 2.00065.8957 2.00065 2.0007 0 1.1044-.89496 2-1.99931 2.0006h-.00134z"/>
</svg>