<svg width="60" height="25"  stroke="currentColor" viewBox="0 0 60 25" fill="none" xmlns="http://www.w3.org/2000/svg">
<path d="M58.4136 16.3004H57.2225C56.9988 16.3014 56.7792 16.2404 56.5876 16.1241C56.396 16.0079 56.2399 15.8408 56.1361 15.6412L55.4522 13.4131C55.3963 13.3018 55.3698 13.1779 55.3755 13.0534C55.3812 12.9288 55.4189 12.8078 55.4848 12.7023C55.5507 12.5967 55.6426 12.5102 55.7516 12.451C55.8606 12.3919 55.9829 12.3622 56.1067 12.3649H57.4155"  stroke-width="1.2" stroke-linecap="round" stroke-linejoin="round"/>
<path d="M20.5906 20.7568H41.8074"  stroke-width="1.2" stroke-linecap="round" stroke-linejoin="round"/>
<path d="M55.6911 20.3018C57.5137 20.3018 58.6983 18.6274 58.4725 16.8047C58.1682 14.3194 57.8704 9.88292 55.161 9.08197C50.953 7.83935 47.2031 6.93293 47.2031 6.93293C47.2031 6.93293 43.1423 1 37.2557 1H2.67208C2.22862 1 1.80332 1.17745 1.48974 1.49332C1.17617 1.80918 1 2.23759 1 2.68429V16.8574C0.99929 17.3535 1.13221 17.8406 1.3846 18.2666C1.637 18.6927 1.9994 19.0418 2.43322 19.2767C3.41487 19.8173 5.03132 20.5226 5.03132 20.5226"  stroke-width="1.2" stroke-linecap="round" stroke-linejoin="round"/>
<path d="M40.6947 11.0203H39.1306"  stroke-width="1.2" stroke-linecap="round" stroke-linejoin="round"/>
<path d="M32.8416 11.1091H34.2093"  stroke-width="1.2" stroke-linecap="round" stroke-linejoin="round"/>
<path d="M34.1637 8.29428H24.946C24.4209 8.29428 23.9174 8.08418 23.5461 7.71021C23.1749 7.33624 22.9663 6.82903 22.9663 6.30015V4.29614"  stroke-width="1.2" stroke-linecap="round" stroke-linejoin="round"/>
<path d="M1 9.62231H2.89459C3.11155 9.62231 3.31962 9.70913 3.47303 9.86366C3.62645 10.0182 3.71263 10.2278 3.71263 10.4463V14.4577C3.71263 14.7762 3.58725 15.0817 3.36398 15.3072C3.1407 15.5327 2.83775 15.6598 2.52156 15.6607H1"  stroke-width="1.2" stroke-linecap="round" stroke-linejoin="round"/>
<path d="M46.0609 8.29428H40.4099C39.8631 8.29428 39.3388 8.0755 38.9522 7.68608C38.5656 7.29665 38.3484 6.76848 38.3484 6.21775V4.29614"  stroke-width="1.2" stroke-linecap="round" stroke-linejoin="round"/>
<path d="M50.7926 15.7598C49.9836 15.7598 49.1928 16.0014 48.5202 16.4541C47.8476 16.9068 47.3233 17.5503 47.0137 18.3032C46.7042 19.056 46.6232 19.8844 46.781 20.6836C46.9388 21.4829 47.3284 22.217 47.9004 22.7932C48.4724 23.3694 49.2012 23.7618 49.9946 23.9208C50.7881 24.0798 51.6105 23.9982 52.3579 23.6863C53.1053 23.3745 53.7441 22.8464 54.1935 22.1689C54.6429 21.4913 54.8828 20.6947 54.8828 19.8799C54.8828 18.7871 54.4519 17.7392 53.6848 16.9665C52.9178 16.1938 51.8774 15.7598 50.7926 15.7598Z" stroke-width="1.2"/>
<path d="M13.7156 15.7598C12.9068 15.7604 12.1163 16.0026 11.4441 16.4557C10.7719 16.9089 10.2482 17.5525 9.93907 18.3055C9.63 19.0584 9.54946 19.8867 9.70766 20.6857C9.86585 21.4847 10.2557 22.2185 10.8278 22.7944C11.4 23.3702 12.1288 23.7623 12.9221 23.921C13.7155 24.0797 14.5377 23.998 15.2849 23.686C16.0321 23.3741 16.6707 22.846 17.12 22.1685C17.5693 21.491 17.8091 20.6946 17.8091 19.8799C17.8095 19.3384 17.7039 18.8022 17.4983 18.3019C17.2927 17.8016 16.9912 17.3471 16.6109 16.9644C16.2307 16.5817 15.7792 16.2783 15.2824 16.0716C14.7856 15.8649 14.2531 15.7589 13.7156 15.7598Z"  stroke-width="1.2"/>
</svg>
