<svg width="62" height="20" viewBox="0 0 62 20" stroke="currentColor" fill="none" xmlns="http://www.w3.org/2000/svg">
<path d="M21.6836 16.0925H41.5951"  stroke-width="1.2" stroke-linecap="round" stroke-linejoin="round"/>
<path d="M9.03827 15.6673C6.76578 15.6673 3.40818 14.7075 2.15814 14.5986C1.83654 14.5718 1.53741 14.4229 1.32213 14.1825C1.10685 13.942 0.991758 13.6283 1.00046 13.3057C1.00046 12.7714 1.02685 12.1184 1.02685 11.5181C1.02685 9.06749 2.45828 8.83662 2.45828 6.67957C2.45828 5.21845 3.63905 5.20855 3.63905 5.20855H9.96508C11.4031 5.20855 14.1011 1 20.1303 1H29.3653C29.3653 1 34.6425 1 37.6109 2.64912C40.5793 4.29824 43.2179 5.53838 43.2179 5.53838C43.2179 5.53838 53.2248 6.46189 57.4004 7.00939C57.8607 7.0704 58.2963 7.2533 58.6622 7.53918C59.0282 7.82507 59.311 8.20354 59.4816 8.63543C61.5034 13.751 61.9124 16.0927 58.1623 16.0927"  stroke-width="1.2" stroke-linecap="round" stroke-linejoin="round"/>
<path d="M30.0114 8.17676H28.0325"  stroke-width="1.2" stroke-linecap="round" stroke-linejoin="round"/>
<path d="M17.1492 8.17676H19.1281"  stroke-width="1.2" stroke-linecap="round" stroke-linejoin="round"/>
<path d="M43.2575 5.54834H17.1614"  stroke-width="1.2" stroke-linecap="round" stroke-linejoin="round"/>
<path d="M2.63609 7.59644H4.22593C4.29442 7.59622 4.36183 7.61682 4.42171 7.65628C4.48159 7.69573 4.53196 7.75273 4.56802 7.82183C4.60407 7.89093 4.62461 7.96983 4.62767 8.05102C4.63074 8.13221 4.61622 8.21298 4.58552 8.28562L3.88016 9.97248C3.84648 10.0513 3.79506 10.1176 3.73159 10.164C3.66813 10.2103 3.59509 10.2349 3.52057 10.235H1.32983"  stroke-width="1.2" stroke-linecap="round" stroke-linejoin="round"/>
<path d="M59.269 8.91639H57.3356C57.1604 8.90946 56.9873 8.96053 56.8378 9.06324C56.6883 9.16595 56.569 9.31577 56.4947 9.49406C56.4204 9.67235 56.3944 9.87124 56.42 10.066C56.4455 10.2607 56.5215 10.4427 56.6385 10.5893L56.9751 11.0511C57.1414 11.2774 57.3502 11.4597 57.5867 11.5846C57.8231 11.7096 58.0812 11.7742 58.3425 11.7738L60.3683 11.8842"  stroke-width="1.2" stroke-linecap="round" stroke-linejoin="round"/>
<path d="M12.3929 11.8435C13.0701 11.3897 13.8665 11.1468 14.6816 11.1455C15.2236 11.1446 15.7604 11.2506 16.2614 11.4574C16.7624 11.6642 17.2176 11.9678 17.6012 12.3507C17.9847 12.7336 18.289 13.1884 18.4966 13.6891C18.7042 14.1897 18.811 14.7263 18.811 15.2683C18.811 16.0834 18.5694 16.8803 18.1167 17.5581C17.6639 18.236 17.0204 18.7644 16.2675 19.0766C15.5145 19.3889 14.6859 19.4709 13.8863 19.3124C13.0868 19.1538 12.3521 18.7618 11.7753 18.1859C11.1985 17.61 10.8053 16.876 10.6455 16.0767C10.4856 15.2774 10.5663 14.4486 10.8774 13.6952C11.1884 12.9417 11.7158 12.2973 12.3929 11.8435Z"  stroke-width="1.2"/>
<path d="M49.7611 11.8419C50.4386 11.3885 51.2354 11.1462 52.0507 11.1455C52.5923 11.1451 53.1288 11.2514 53.6294 11.4584C54.13 11.6654 54.5849 11.969 54.9681 12.3519C55.3512 12.7348 55.6552 13.1894 55.8626 13.6898C56.07 14.1902 56.1768 14.7266 56.1768 15.2683C56.1768 16.0836 55.935 16.8806 55.4822 17.5585C55.0293 18.2364 54.3856 18.7648 53.6324 19.077C52.8793 19.3891 52.0505 19.4709 51.2508 19.3121C50.4512 19.1533 49.7166 18.761 49.1399 18.1847C48.5631 17.6085 48.1702 16.8742 48.0108 16.0746C47.8513 15.2751 47.9325 14.4463 48.244 13.6929C48.5556 12.9395 49.0835 12.2953 49.7611 11.8419Z"  stroke-width="1.2"/>
</svg>
