<svg xmlns="http://www.w3.org/2000/svg" width="12.83" height="11.93" viewBox="0 0 12.83 11.93"><path d="M9.07.5l-5,10.76" fill="none" stroke="#c9c9c9" stroke-linecap="round" stroke-linejoin="round"/><path d="M3.06,1l6.8,9.73" fill="none" stroke="#c9c9c9" stroke-linecap="round" stroke-linejoin="round"/><path d="M.5,6.49l11.83-1" fill="none" stroke="#c9c9c9" stroke-linecap="round" stroke-linejoin="round"/><path d="M10,1.67l-1.82.66L7.56.51" fill="none" stroke="#c9c9c9" stroke-linecap="round" stroke-linejoin="round"/><path d="M4.55.77,4.22,2.68,2.31,2.34" fill="none" stroke="#c9c9c9" stroke-linecap="round" stroke-linejoin="round"/><path d="M1,5.07,2.51,6.32,1.27,7.8" fill="none" stroke="#c9c9c9" stroke-linecap="round" stroke-linejoin="round"/><path d="M3,10.27l1.82-.66.66,1.82" fill="none" stroke="#c9c9c9" stroke-linecap="round" stroke-linejoin="round"/><path d="M8.48,11.17l.34-1.91,1.91.34" fill="none" stroke="#c9c9c9" stroke-linecap="round" stroke-linejoin="round"/><path d="M12,6.87,10.52,5.62l1.25-1.48" fill="none" stroke="#c9c9c9" stroke-linecap="round" stroke-linejoin="round"/><path d="M5.08,3.75,4,6.1,5.46,8.23,8.05,8l1.1-2.36L7.66,3.52Z" fill="none" stroke="#c9c9c9" stroke-linecap="round" stroke-linejoin="round"/></svg>