<svg width="14" height="17" viewBox="0 0 14 17" fill="none" xmlns="http://www.w3.org/2000/svg">
<path fill-rule="evenodd" clip-rule="evenodd" d="M5 4C5 2.89543 5.89543 2 7 2C8.10457 2 9 2.89543 9 4C9 5.10457 8.10457 6 7 6C5.89543 6 5 5.10457 5 4ZM7 0C4.79086 0 3 1.79086 3 4C3 6.20914 4.79086 8 7 8C9.20914 8 11 6.20914 11 4C11 1.79086 9.20914 0 7 0ZM2 16C2 13.2386 4.23858 11 7 11C9.76142 11 12 13.2386 12 16C12 16.5523 12.4477 17 13 17C13.5523 17 14 16.5523 14 16C14 12.134 10.866 9 7 9C3.13401 9 0 12.134 0 16C0 16.5523 0.447715 17 1 17C1.55228 17 2 16.5523 2 16Z" fill="#222222"/>
</svg>
