<svg width="30" height="29" viewBox="0 0 30 29" fill="none" xmlns="http://www.w3.org/2000/svg">
<path d="M16 28.0757V24.9312L16.0321 3.94664V0.802163C16.0321 0.352952 16.385 0 16.8342 0C17.2835 0 17.6364 0.352952 17.6364 0.802163V3.94664L20.3638 2.3744C20.7488 2.1498 21.2301 2.27814 21.4547 2.66318C21.6793 3.04822 21.551 3.52952 21.1659 3.75412L17.6364 5.80766V13.0592L23.8933 9.46552V5.39053C23.8933 4.94132 24.2462 4.58837 24.6954 4.58837C25.1447 4.58837 25.4976 4.94132 25.4976 5.39053V8.53501L28.225 6.96277C28.61 6.73817 29.0913 6.86651 29.3159 7.25155C29.5405 7.63659 29.4122 8.11789 29.0271 8.34249L26.2998 9.91473L29.0271 11.487C29.4122 11.7116 29.5405 12.1929 29.3159 12.5779C29.1555 12.8346 28.8988 12.9629 28.61 12.9629C28.4817 12.9629 28.3533 12.9309 28.225 12.8667L24.6954 10.8132L18.4386 14.4389L24.6634 18.0968L28.1929 16.0433C28.5779 15.8186 29.0592 15.947 29.2838 16.332C29.5084 16.7171 29.3801 17.1984 28.995 17.423L26.2677 18.9952L28.995 20.5674C29.3801 20.7921 29.5084 21.2734 29.2838 21.6584C29.1234 21.9151 28.8667 22.0434 28.5779 22.0434C28.4496 22.0434 28.3212 22.0113 28.1929 21.9472L25.4655 20.3749V23.5194C25.4655 23.9686 25.1126 24.3216 24.6634 24.3216C24.2141 24.3216 23.8612 23.9686 23.8612 23.5194V19.4444L17.6043 15.8186V23.0702L21.1338 25.1237C21.5189 25.3483 21.6472 25.8296 21.4226 26.2147C21.2622 26.4714 21.0055 26.5997 20.7167 26.5997C20.5884 26.5997 20.46 26.5676 20.3317 26.5035L17.6043 24.9312V28.0757C17.6043 28.5249 17.2514 28.8779 16.8022 28.8779C16.353 28.8779 16 28.5249 16 28.0757Z" fill="currentColor"/>
<path d="M14.1421 14.1421C14.1421 18.3476 14.1421 21.7568 14.1421 21.7568C9.93658 21.7568 6.52734 18.3476 6.52734 14.1421C6.52734 9.93658 9.93658 6.52734 14.1421 6.52734C14.1421 6.52734 14.1421 9.93658 14.1421 14.1421Z" fill="currentColor"/>
<line x1="13.5049" y1="4.07813" x2="13.5049" y2="1.00163" stroke="currentColor" stroke-width="2" stroke-linecap="round"/>
<line x1="8.39456" y1="5.49098" x2="6.87624" y2="2.81525" stroke="currentColor" stroke-width="2" stroke-linecap="round"/>
<line x1="4.60309" y1="9.29932" x2="1.8752" y2="7.87685" stroke="currentColor" stroke-width="2" stroke-linecap="round"/>
<line x1="4.95765" y1="19.3566" x2="2.22887" y2="20.7774" stroke="currentColor" stroke-width="2" stroke-linecap="round"/>
<line x1="8.5703" y1="23.2384" x2="6.89817" y2="25.8208" stroke="currentColor" stroke-width="2" stroke-linecap="round"/>
<line x1="13.6996" y1="24.8405" x2="13.6977" y2="27.917" stroke="currentColor" stroke-width="2" stroke-linecap="round"/>
<line x1="4.07617" y1="14.4102" x2="0.999679" y2="14.4102" stroke="currentColor" stroke-width="2" stroke-linecap="round"/>
</svg>
