<svg xmlns="http://www.w3.org/2000/svg" width="65" height="35" fill="none" viewBox="0 0 65 35">
  <defs/>
  <path stroke="currentColor" stroke-linecap="round" stroke-linejoin="round" stroke-width="1.7" d="M0 18l3-3.5L6 18"/>
  <path stroke="currentColor" stroke-linecap="round" stroke-linejoin="round" stroke-width="1.7" d="M7.555 6.5c1.333-1.833 5.7-5.5 12.5-5.5 6 0 16.5 4.5 16.5 17 0 5.5-5 16-16.5 16-14.8-.4-17.5-13.167-17-19.5"/>
  <path fill="currentColor" d="M20.42 26.34h-1.56v-2.08c-1.293-.133-2.313-.58-3.06-1.34-.747-.773-1.18-1.647-1.3-2.62l1.9-.6c.067.693.307 1.3.72 1.82s.993.847 1.74.98v-4.18l-.5-.1c-1.04-.213-1.853-.633-2.44-1.26s-.88-1.42-.88-2.38.353-1.8 1.06-2.52c.72-.72 1.64-1.147 2.76-1.28v-2.1h1.56v2.12c1.107.147 1.953.533 2.54 1.16.6.613 1 1.313 1.2 2.1l-1.8.66c-.067-.44-.267-.867-.6-1.28-.333-.413-.78-.7-1.34-.86v4.1l.3.06c1.093.213 1.96.66 2.6 1.34.64.68.96 1.473.96 2.38 0 .947-.34 1.78-1.02 2.5-.68.72-1.627 1.153-2.84 1.3v2.08zm1.9-5.78c0-.44-.16-.833-.48-1.18-.32-.347-.793-.593-1.42-.74v3.86c.627-.12 1.1-.353 1.42-.7.32-.347.48-.76.48-1.24zm-5.3-6.06c0 .973.613 1.58 1.84 1.82v-3.8c-.573.107-1.027.34-1.36.7-.32.36-.48.787-.48 1.28z"/>
</svg>
