<svg width="5" height="8" viewBox="0 0 5 8"  xmlns="http://www.w3.org/2000/svg">
<path d="M1.11528 6.57704L3.62034 4.07199C3.73571 3.95662 3.84975 3.83912 3.96725 3.72507L3.97202 3.7203V4.2831L3.00476 3.31584C2.72946 3.04054 2.45522 2.7663 2.17995 2.49103C1.94258 2.25366 1.70467 2.01575 1.46703 1.77811C1.35166 1.66274 1.23496 1.5479 1.12012 1.4312C1.11879 1.42988 1.11694 1.42802 1.11535 1.42643C1.04321 1.35429 0.998646 1.2474 0.998646 1.14529C0.998646 1.04769 1.04161 0.931262 1.11535 0.86416C1.19094 0.793343 1.29039 0.741626 1.39648 0.746399C1.50204 0.751173 1.60123 0.786713 1.67761 0.8631L4.18267 3.36816C4.29804 3.48353 4.41474 3.59837 4.52958 3.71507L4.53436 3.71984C4.68607 3.87155 4.68686 4.13041 4.53436 4.28265L2.0293 6.78771C1.91393 6.90308 1.79909 7.01978 1.68239 7.13462L1.67761 7.13939C1.60547 7.21153 1.49859 7.25609 1.39648 7.25609C1.29888 7.25609 1.18245 7.21313 1.11535 7.13939C1.04586 7.0638 0.993873 6.96435 0.998646 6.85826C1.00342 6.75296 1.03896 6.65298 1.11535 6.57712L1.11528 6.57704Z" stroke-width="0.6"/>
</svg>
