<svg width="40" height="29" viewBox="0 0 40 29" fill="none" xmlns="http://www.w3.org/2000/svg">
<path fill-rule="evenodd" clip-rule="evenodd" d="M16.4881 0C14.384 0 12.6786 1.73098 12.6786 3.86667V4.51111C12.6786 6.64616 14.384 8.37778 16.4881 8.37778H17.123C19.2265 8.37778 20.9325 6.64616 20.9325 4.51111H26.6468V6.44444C26.6468 6.97869 27.0735 7.41111 27.5992 7.41111C28.1249 7.41111 28.5516 6.97869 28.5516 6.44444V3.54444C28.5516 3.0102 27.867 2.57778 27.3413 2.57778H20.7143C20.1904 1.07744 18.7803 0 17.123 0H16.4881ZM16.4881 1.93333H17.123C18.1751 1.93333 19.0278 2.79882 19.0278 3.86667V4.51111C19.0278 5.57896 18.1751 6.44444 17.123 6.44444H16.4881C15.436 6.44444 14.5833 5.57896 14.5833 4.51111V3.86667C14.5833 2.79882 15.436 1.93333 16.4881 1.93333ZM6.17064 2.19514C2.74778 2.19514 0 5.05277 0 8.41806V23.4819C0 26.9349 3.2327 29 6.62698 29H34.4048C37.7425 29 40 26.9368 40 23.4819V8.41806C40 4.87812 37.4302 2.19514 34.1667 2.19514C33.641 2.19514 33.1151 2.62756 33.1151 3.16181C33.1151 3.69605 33.6211 4.12847 34.1468 4.12847C35.4942 4.12847 36.6498 4.79966 37.3611 5.88056L22.5992 15.4063C21.3262 16.1448 19.7327 16.1659 18.4921 15.4667L2.93651 5.61875C3.72465 4.70754 4.90187 4.12847 6.21032 4.12847C6.73603 4.12847 7.06349 3.69605 7.06349 3.16181C7.06349 2.62756 6.69635 2.19514 6.17064 2.19514ZM2.04365 7.35069L17.5397 17.1181C18.4552 17.6349 19.4694 17.9035 20.496 17.9035C21.557 17.9035 22.6325 17.6144 23.5913 17.0576L38.0556 7.75347C38.0833 7.96635 38.0952 8.19314 38.0952 8.41806V23.4819C38.0952 25.8935 36.7102 27.0667 34.4048 27.0667H6.62698C4.16921 27.0667 1.90476 25.7246 1.90476 23.4819V8.41806C1.90476 8.05596 1.95553 7.68916 2.04365 7.35069Z" fill="currentColor"/>
</svg>
