<svg width="63" height="63" viewBox="0 0 63 63" fill="none" xmlns="http://www.w3.org/2000/svg">
<mask id="mask0" mask-type="alpha" maskUnits="userSpaceOnUse" x="0" y="0" width="63" height="63">
<rect width="62.8605" height="62.8605" fill="#C4C4C4"/>
</mask>
<g mask="url(#mask0)">
<path fill-rule="evenodd" clip-rule="evenodd" d="M59.3261 4.33664C59.3343 5.34609 59.4118 29.195 50.2252 43.3162C45.8822 49.9914 37.9404 53.413 27.2613 53.21C21.4417 53.0996 16.3704 51.9687 13.9524 51.3337L5.78459 59.5015C5.09441 60.1917 3.97463 60.1917 3.28386 59.5009C2.59368 58.8107 2.59367 57.6909 3.28385 57.0007L11.4517 48.8329C10.8167 46.4149 9.68513 41.343 9.57539 35.524C9.37232 24.8449 12.7939 16.9043 19.4698 12.5607C33.5915 3.37473 57.4398 3.45161 58.4493 3.45982C58.9317 3.46334 59.3226 3.85422 59.3261 4.33664ZM42.7404 20.0823C42.0448 19.3867 40.9171 19.3867 40.2216 20.0823L12.3563 47.9475C11.6608 48.6431 11.6608 49.7708 12.3563 50.4663C13.0519 51.1619 14.1796 51.1619 14.8751 50.4663L42.7404 22.6011C43.4359 21.9055 43.4359 20.7778 42.7404 20.0823Z" fill="currentColor"/>
</g>
</svg>
