<svg width="16" height="16" viewBox="0 0 16 16" fill="none" xmlns="http://www.w3.org/2000/svg">
<rect x="0.75" y="0.75" width="14.5" height="14.5" rx="3.25" stroke="currentColor" stroke-width="1.5"/>
<path d="M11.5636 4.07273C11.4909 4 11.3455 4 11.2727 4H7.63636C7.2 4 6.90909 4.29091 6.90909 4.72727C6.90909 5.16364 7.2 5.45455 7.63636 5.45455H9.52727L4.21818 10.7636C3.92727 11.0545 3.92727 11.4909 4.21818 11.7818C4.50909 12.0727 4.94545 12.0727 5.23636 11.7818L10.5455 6.47273V8.36364C10.5455 8.8 10.8364 9.09091 11.2727 9.09091C11.7091 9.09091 12 8.8 12 8.36364V4.72727C12 4.43636 11.8545 4.14545 11.5636 4.07273Z" fill="currentColor"/>
</svg>
