<svg width="21" height="37" viewBox="0 0 21 37" fill="none" xmlns="http://www.w3.org/2000/svg">
<path d="M17.3927 0H3.60729C2.6509 0.00104189 1.73397 0.382488 1.0577 1.06065C0.381425 1.7388 0.00103899 2.65828 0 3.61734V33.3827C0.00103899 34.3417 0.381425 35.2612 1.0577 35.9394C1.73397 36.6175 2.6509 36.999 3.60729 37H17.3927C18.3491 36.999 19.266 36.6175 19.9423 35.9394C20.6186 35.2612 20.999 34.3417 21 33.3827V3.61734C20.999 2.65828 20.6186 1.7388 19.9423 1.06065C19.266 0.382488 18.3491 0.00104189 17.3927 0ZM1.57009 5.95543H19.4299V29.5213H1.57009V5.95543ZM3.60729 1.57447H17.3927C17.933 1.57447 18.4512 1.7897 18.8332 2.17281C19.2153 2.55592 19.4299 3.07554 19.4299 3.61734V4.38096H1.57009V3.61734C1.57009 3.07554 1.78473 2.55592 2.16677 2.17281C2.54882 1.7897 3.06699 1.57447 3.60729 1.57447ZM17.3927 35.4255H3.60729C3.06699 35.4255 2.54882 35.2103 2.16677 34.8272C1.78473 34.4441 1.57009 33.9245 1.57009 33.3827V31.0957H19.4299V33.3827C19.4299 33.9245 19.2153 34.4441 18.8332 34.8272C18.4512 35.2103 17.933 35.4255 17.3927 35.4255Z" fill="currentColor"/>
<path d="M10.4996 34.6894C11.2323 34.6894 11.8263 34.0938 11.8263 33.359C11.8263 32.6242 11.2323 32.0286 10.4996 32.0286C9.76685 32.0286 9.17285 32.6242 9.17285 33.359C9.17285 34.0938 9.76685 34.6894 10.4996 34.6894Z" fill="currentColor"/>
<path d="M5.8855 18.2048H14.7173" stroke="currentColor" stroke-width="1.2" stroke-linecap="round" stroke-linejoin="round"/>
<path d="M7.1792 21.3354L13.4233 15.074" stroke="currentColor" stroke-width="1.2" stroke-linecap="round" stroke-linejoin="round"/>
<path d="M10.3013 22.633V13.7766" stroke="currentColor" stroke-width="1.2" stroke-linecap="round" stroke-linejoin="round"/>
<path d="M13.4233 21.3354L7.1792 15.074" stroke="currentColor" stroke-width="1.2" stroke-linecap="round" stroke-linejoin="round"/>
<path d="M10.3012 20.4189C11.5206 20.4189 12.5092 19.4276 12.5092 18.2048C12.5092 16.982 11.5206 15.9907 10.3012 15.9907C9.08179 15.9907 8.09326 16.982 8.09326 18.2048C8.09326 19.4276 9.08179 20.4189 10.3012 20.4189Z" fill="currentColor"/>
<path d="M10.3041 10.8245C6.24006 10.8245 2.94434 14.1294 2.94434 18.2048C2.94434 22.2802 6.24006 25.5851 10.3041 25.5851C14.3682 25.5851 17.664 22.2802 17.664 18.2048C17.664 14.1294 14.3682 10.8245 10.3041 10.8245ZM10.3041 22.6536C7.86511 22.6536 5.88826 20.6713 5.88826 18.2254C5.88826 15.7796 7.86511 13.7973 10.3041 13.7973C12.7432 13.7973 14.72 15.7796 14.72 18.2254C14.72 20.6713 12.7432 22.6536 10.3041 22.6536Z" fill="currentColor"/>
</svg>
