<svg width="23" height="30" viewBox="0 0 23 30" fill="none" xmlns="http://www.w3.org/2000/svg">
<path d="M18.9204 8.32783C18.76 8.08735 18.4504 7.99735 18.1882 8.11829C17.926 8.23783 17.7837 8.52611 17.8548 8.80879C18.1519 10.0449 18.0864 11.4611 17.9023 12.6973C17.3793 11.3289 16.4686 10.0999 15.4797 8.76667L15.039 8.17885C13.3668 5.89926 14.7294 0.811238 14.7419 0.761916C14.8075 0.528471 14.7294 0.282383 14.5397 0.131899C14.3556 -0.018575 14.099 -0.0424831 13.8912 0.0714277C13.5704 0.245809 6.47023 4.16942 5.84542 11.5975C5.47581 11.0392 5.15505 10.187 5.24431 8.97477C5.26244 8.71038 5.11321 8.47133 4.86914 8.36866C4.63065 8.27303 4.3573 8.34475 4.19135 8.54304C3.98354 8.79476 -0.836409 14.7349 0.127226 21.2208C0.63907 24.6536 2.67388 27.5743 6.1911 29.9032C6.42261 30.0536 6.73222 30.0227 6.93444 29.8314C7.13109 29.6332 7.17293 29.321 7.0237 29.0819C4.81037 25.5001 6.48258 22.2122 7.59553 20.6454C7.8103 21.2881 8.21477 22.032 8.97625 22.6382C9.16732 22.7886 9.42254 22.8125 9.63033 22.6916C9.83814 22.5777 9.95808 22.3499 9.93437 22.1094C9.93437 22.0616 9.5592 17.6809 12.898 15.5687C12.9747 17.0692 13.3151 19.8888 14.7669 21.551C17.3554 24.5267 16.4098 27.2745 15.1658 29.0507C14.9998 29.2842 15.0235 29.6034 15.2132 29.8073C15.3317 29.9339 15.4866 30 15.6469 30C15.7543 30 15.8617 29.9705 15.9621 29.91C16.2118 29.7539 22.1684 26.0104 22.9368 20.184C23.5797 15.2648 19.1112 8.61035 18.9201 8.32738L18.9204 8.32783Z" fill="currentColor"/>
</svg>
