<svg width="122" height="20" xmlns="http://www.w3.org/2000/svg"><g><path d="M.55 9.025l4.074 2.958c.465.338.66.938.482 1.484L3.55 18.256c-.397 1.223 1.003 2.24 2.044 1.485l4.074-2.96a1.326 1.326 0 011.561 0l4.074 2.96c1.041.755 2.442-.262 2.045-1.485l-1.556-4.789a1.325 1.325 0 01.482-1.484l4.074-2.958c1.04-.757.506-2.403-.78-2.403H14.53c-.575 0-1.086-.37-1.263-.917L11.712.918c-.398-1.224-2.128-1.224-2.527 0L7.628 5.705a1.326 1.326 0 01-1.262.917H1.33c-1.287 0-1.82 1.646-.78 2.403zM25.655 9.025l4.074 2.958c.466.338.66.938.483 1.484l-1.557 4.789c-.397 1.223 1.003 2.24 2.045 1.485l4.074-2.96a1.326 1.326 0 011.56 0l4.075 2.96c1.04.755 2.441-.262 2.044-1.485l-1.556-4.789a1.325 1.325 0 01.483-1.484l4.073-2.958c1.04-.757.507-2.403-.78-2.403h-5.037c-.574 0-1.086-.37-1.263-.917L36.817.918c-.398-1.224-2.128-1.224-2.527 0l-1.556 4.787a1.326 1.326 0 01-1.263.917h-5.035c-1.287 0-1.821 1.646-.78 2.403zM50.764 9.025l4.075 2.958c.465.338.66.938.482 1.484l-1.556 4.789c-.398 1.223 1.003 2.24 2.044 1.485l4.074-2.96a1.326 1.326 0 011.56 0l4.075 2.96c1.041.755 2.442-.262 2.044-1.485l-1.555-4.789a1.324 1.324 0 01.482-1.484l4.073-2.958c1.04-.757.507-2.403-.78-2.403h-5.036c-.575 0-1.086-.37-1.263-.917L61.927.918c-.398-1.224-2.128-1.224-2.527 0l-1.557 4.787a1.326 1.326 0 01-1.262.917h-5.036c-1.287 0-1.82 1.646-.78 2.403zM75.87 9.025l4.074 2.958c.465.338.66.938.483 1.484l-1.557 4.789c-.397 1.223 1.003 2.24 2.044 1.485l4.075-2.96a1.326 1.326 0 011.56 0l4.075 2.96c1.04.755 2.441-.262 2.044-1.485l-1.556-4.789a1.324 1.324 0 01.483-1.484l4.073-2.958c1.04-.757.506-2.403-.78-2.403H89.85c-.575 0-1.086-.37-1.263-.917L87.032.918c-.398-1.224-2.128-1.224-2.527 0l-1.557 4.787a1.326 1.326 0 01-1.262.917h-5.035c-1.287 0-1.821 1.646-.781 2.403zM100.979 9.025l4.074 2.958c.466.338.661.938.483 1.484l-1.557 4.789c-.397 1.223 1.004 2.24 2.045 1.485l4.074-2.96a1.326 1.326 0 011.561 0l4.074 2.96c1.041.755 2.442-.262 2.044-1.485l-1.556-4.789a1.326 1.326 0 01.483-1.484l4.073-2.958c1.041-.757.507-2.403-.78-2.403h-5.036c-.575 0-1.087-.37-1.263-.917L112.142.918c-.398-1.224-2.129-1.224-2.528 0l-1.556 4.787a1.327 1.327 0 01-1.263.917h-5.035c-1.287 0-1.821 1.646-.781 2.403z"/></g></svg>