<svg width="23px" height="23px" viewBox="0 0 23 23" version="1.1" xmlns="http://www.w3.org/2000/svg" xmlns:xlink="http://www.w3.org/1999/xlink">
  <path d="M11.7517,0.419922 C14.732217,0.419922 17.5918467,1.55650955 19.7015964,3.58187771 C21.8136475,5.61204222 23.001,8.36782764 23.001,11.2428 C23.001,14.1178457 21.813656,16.8736843 19.7013611,18.9038983 C17.5917897,20.9290324 14.7322406,22.0656 11.7517,22.0656 C8.77231154,22.0656 5.9136598,20.9286212 3.80208515,18.9026851 C1.68856825,16.8736082 0.5,14.1177188 0.5,11.2428 C0.5,8.36776921 1.68855438,5.61184278 3.80218282,3.58276118 C5.9134019,1.5569885 8.77225287,0.419922 11.7517,0.419922 Z M4.73,6.2 L4.65475307,6.29559676 C3.4945894,7.82277263 2.89930319,9.684736 2.97529028,11.5833111 C3.05969701,13.692961 3.96724661,15.6966297 5.51829393,17.1966017 C7.08583199,18.6979202 9.18745193,19.5781678 11.4045323,19.6608473 C13.3998611,19.735254 15.3544528,19.1581261 16.9539633,18.0350323 L17.023,17.984 L4.73,6.2 Z M6.54668047,4.45080633 L6.477,4.501 L18.771,16.309 L18.8486248,16.2122234 C19.9498814,14.7681526 20.5451794,13.0235458 20.5439404,11.2310726 L20.5375085,10.9143084 C20.4519218,8.79843134 19.5403031,6.79038716 17.9823594,5.28925151 C16.4147628,3.78790498 14.3131826,2.90766046 12.0960699,2.8249928 C10.100787,2.75060989 8.14621516,3.32772422 6.54668047,4.45080633 Z" fill="currentColor"></path>
</svg>
