<svg xmlns="http://www.w3.org/2000/svg" width="80" height="25" fill="none" viewBox="0 0 80 25">
  <defs/>
  <path fill="currentColor" fill-rule="evenodd" d="M0 5.72h3.168v1.873H0V5.72zm0 11.424h1.743v1.872H0v-1.872zM47.437 2.857H38.93V.007L1.3 0v1.872H9.89v3.837H4.172v1.864h5.719v3.836H4.172v1.866h5.719v3.837H2.732v1.864H15.61a4.517 4.517 0 004.51 4.287 4.51 4.51 0 004.507-4.287H39.94a4.516 4.516 0 004.508 4.287 4.512 4.512 0 004.509-4.287h2.738v-7.082l-4.258-9.037zm-4.213 1.858h2.926l3.09 6.694h-6.016V4.715zM20.12 21.391c-1.508 0-2.637-1.133-2.637-2.63 0-1.502 1.137-2.628 2.637-2.628s2.637 1.153 2.637 2.675c0 1.497-1.11 2.583-2.637 2.583zm4.192-4.279a4.515 4.515 0 00-4.2-2.845 4.533 4.533 0 00-4.198 2.845H11.74V1.864h25.306l.014 15.248h-12.75zm20.117 4.279c-1.507 0-2.637-1.133-2.637-2.63 0-1.502 1.136-2.628 2.637-2.628 1.5 0 2.64 1.153 2.64 2.675.005 1.497-1.105 2.583-2.64 2.583zm5.383-4.285h-1.183a4.512 4.512 0 00-4.2-2.845 4.53 4.53 0 00-4.198 2.845h-1.313V4.716h2.423v8.551h8.471v3.839z" clip-rule="evenodd"/>
  <path fill="currentColor" d="M.945 23.664H79.54v1.335H.945z"/>
</svg>
