<?xml version="1.0" encoding="UTF-8"?>
<svg width="28px" height="23px" viewBox="0 0 28 23" version="1.1" xmlns="http://www.w3.org/2000/svg" xmlns:xlink="http://www.w3.org/1999/xlink">
    <g id="Page-1" stroke="none" stroke-width="1" fill="none" fill-rule="evenodd">
        <path d="M7.88100014,0 L0,4.81300009 L7.88100014,9.62500017 L7.88110014,5.93860011 L17.8964003,5.93860011 C21.8814164,5.93860011 25.1127004,9.16709196 25.1127004,13.1508002 C25.1127004,17.1346111 21.8815137,20.3631004 17.8964003,20.3631004 L7.07600013,20.3630004 L7.07600013,22.6120004 L17.8935652,22.613002 C20.2968025,22.6102766 22.6048141,21.6968246 24.3558513,20.0650785 L24.5911334,19.8381334 C26.367536,18.0617308 27.3661546,15.656589 27.3690021,13.1534376 C27.3661546,10.6445498 26.3675649,8.23951929 24.592627,6.46465933 C22.8143431,4.68937647 20.4060164,3.6911435 17.8964003,3.68828007 L7.88110014,3.68828007 L7.88100014,0 Z" id="Path" fill="currentColor" fill-rule="nonzero"></path>
    </g>
</svg>
