<svg width="19" height="19" viewBox="0 0 19 19" fill="none" xmlns="http://www.w3.org/2000/svg">
<mask id="mask0" mask-type="alpha" maskUnits="userSpaceOnUse" x="0" y="0" width="19" height="19">
<rect width="19" height="19" fill="white"/>
</mask>
<g mask="url(#mask0)">
<path fill-rule="evenodd" clip-rule="evenodd" d="M17.9311 1.31067C17.9336 1.61578 17.957 8.82427 15.1803 13.0925C13.8676 15.1101 11.4671 16.1443 8.23931 16.083C6.4803 16.0496 4.94746 15.7078 4.2166 15.5158L1.74783 17.9846C1.53921 18.1932 1.20075 18.1932 0.991961 17.9844C0.783348 17.7758 0.783347 17.4374 0.99196 17.2287L3.46074 14.76C3.2688 14.0291 2.92679 12.4961 2.89362 10.7373C2.83224 7.50944 3.86643 5.10933 5.88426 3.79645C10.1527 1.01992 17.361 1.04316 17.6661 1.04564C17.8119 1.04671 17.93 1.16485 17.9311 1.31067ZM12.9178 6.06992C12.7076 5.85969 12.3668 5.85969 12.1565 6.06992L3.73406 14.4924C3.52383 14.7026 3.52383 15.0435 3.73406 15.2537C3.94429 15.4639 4.28515 15.4639 4.49538 15.2537L12.9178 6.83124C13.1281 6.621 13.1281 6.28015 12.9178 6.06992Z" fill="currentColor"/>
</g>
</svg>
