<svg width="36" height="36" viewBox="0 0 36 36" fill="none" xmlns="http://www.w3.org/2000/svg">
<path d="M8.04857 30.5188L7.78712 30.3129L7.55158 30.548L2.91783 35.1739C2.61152 35.4797 2.2379 35.625 1.87222 35.625C1.50654 35.625 1.13292 35.4797 0.826606 35.1739C0.224465 34.5728 0.224465 33.6424 0.826606 33.0413L5.46035 28.4154L5.69554 28.1806L5.49073 27.9189C0.926512 22.0866 1.33561 13.6078 6.67845 8.18174C6.91387 7.94672 7.08672 7.77474 7.30165 7.60309L7.31223 7.59463L7.32218 7.58544C12.2937 2.98997 18.8017 1.23036 24.1867 0.638838C29.4997 0.0552308 33.6748 0.613518 34.1041 0.670925L34.1121 0.67199C34.7973 0.788408 35.3131 1.31634 35.3867 1.97802L35.3866 1.97803L35.3877 1.98619C35.432 2.31797 35.9438 6.57173 35.3109 11.9623C34.6774 17.3587 32.9026 23.8437 28.4166 28.6896L28.4075 28.6994L28.3991 28.7098C28.2269 28.9247 28.0544 29.0975 27.8184 29.3331C22.4308 34.7115 13.8918 35.1216 8.04857 30.5188ZM8.81532 10.3155L8.8138 10.3171C4.65905 14.513 4.22291 21.072 7.55899 25.7057L7.81644 26.0633L8.12826 25.752L17.8638 16.0329C18.4663 15.4314 19.3993 15.4314 20.0018 16.0329C20.604 16.634 20.604 17.5644 20.0018 18.1655L10.2195 27.9313L9.90723 28.2431L10.2652 28.501C14.9525 31.8778 21.5233 31.4439 25.7271 27.2472L25.746 27.2284L25.762 27.2071C25.8136 27.1384 25.8762 27.075 25.9612 26.9902L25.9678 26.9836C26.042 26.9095 26.1346 26.8171 26.218 26.709C29.5067 23.1332 31.1379 18.4353 31.9216 14.147C32.707 9.8494 32.6478 5.9272 32.5298 3.8775L32.5108 3.54789L32.1814 3.52495C30.1515 3.38357 26.2799 3.2772 22.0026 4.04392C17.7333 4.80921 13.0286 6.44996 9.35466 9.82532C9.15153 9.97985 8.95558 10.1755 8.82231 10.3085L8.81532 10.3155Z" fill="currentColor"/>
<path d="M1.62012 34.3661L19.211 16.7751" stroke="currentColor" stroke-width="2.5" stroke-linecap="round"/>
</svg>
