<svg width="35" height="34" viewBox="0 0 35 34" fill="none" xmlns="http://www.w3.org/2000/svg">
<path fill-rule="evenodd" clip-rule="evenodd" d="M25.7943 0C28.6651 0.0599948 30.9553 2.40675 30.915 5.24892C30.9019 6.23087 30.6331 7.1914 30.1293 8.04734L29.6746 8.72766H31.8944C33.5164 8.72766 34.7918 10.0225 34.7918 11.6433L34.7918 14.8146C34.7981 15.5801 34.6132 16.2059 34.0527 16.8182C33.6865 17.2182 33.2019 17.5034 32.6021 17.6742V29.8115C32.6021 32.0796 30.7383 33.9173 28.4399 33.9173H6.35145C4.05304 33.9173 2.18932 32.0796 2.18932 29.8101L2.28371 17.6789C1.67372 17.5313 1.18056 17.2701 0.807342 16.8943C0.191195 16.274 -0.00639046 15.6238 0.000156613 14.8236V11.6433C0.000156613 10.0224 1.27504 8.72766 2.90025 8.72769L5.08881 8.77463L4.65672 8.03988C4.15762 7.19148 3.88874 6.23096 3.87568 5.24985C3.83505 2.40291 6.1295 0.0599159 9.01812 0C12.3147 0 15.0187 2.00804 16.9915 5.9059L17.3683 6.7539L17.8026 5.89883C19.7737 2.00461 22.4793 0 25.7943 0ZM31.8937 15.8685C32.4785 15.8685 32.9525 15.3974 32.9525 14.817L32.9533 11.6217C32.9717 11.3722 32.8563 11.0849 32.6537 10.8848C32.4424 10.676 32.1522 10.5709 31.8367 10.594L18.3237 10.5919V15.8685H31.8937ZM25.7896 8.72766C27.5275 8.72766 29.0114 7.13836 29.0165 5.25805C29.0641 3.4521 27.6349 1.93807 25.8181 1.86484C22.8643 1.86431 20.5072 3.98267 18.8943 8.11346L18.6127 8.72766H25.7896ZM5.77371 5.26491C5.77906 7.13968 7.26372 8.72766 9.0031 8.72766L16.1566 8.77404L15.8938 8.10491C14.2967 4.02555 11.9066 1.86682 9.00875 1.86421C7.15955 1.94062 5.72633 3.44683 5.77371 5.26491ZM2.87463 10.5911C2.62769 10.5707 2.3401 10.6837 2.13644 10.8849C1.94276 11.0762 1.84017 11.3516 1.83767 11.6663C1.83591 11.8891 1.83589 12.9401 1.83764 14.8172C1.83764 15.3976 2.3116 15.8686 2.89644 15.8686L16.4836 15.87L16.4812 10.594L2.87463 10.5911ZM4.08743 17.71V29.8117C4.08743 31.0499 5.10017 32.0533 6.35157 32.0533L16.4836 32.0878L16.4811 17.71H4.08743ZM18.3098 32.0533H28.4395C29.6904 32.0533 30.7032 31.0499 30.7032 29.8113L30.7378 17.71H18.3387L18.3098 32.0533Z" fill="currentColor"/>
</svg>
