<svg width="64" height="72" viewBox="0 0 64 72" fill="none" xmlns="http://www.w3.org/2000/svg">
<path d="M0.753395 53.5C1.14939 54.1222 1.78298 54.4333 2.49577 54.4333C2.81257 54.4333 3.20856 54.3556 3.44616 54.2L10.1781 50.3889V58.0111C10.1781 59.1 11.0493 59.9556 12.1581 59.9556C13.2668 59.9556 14.138 59.1 14.138 58.0111V48.1333L29.5818 39.3444V56.9222L20.8699 61.9C19.9196 62.4444 19.6028 63.6111 20.1572 64.5444C20.5531 65.1667 21.1867 65.4778 21.8995 65.4778C22.2163 65.4778 22.6123 65.4 22.8499 65.2444L29.5818 61.4333V69.0556C29.5818 70.1444 30.453 71 31.5618 71C32.6706 71 33.5418 70.1444 33.5418 69.0556V61.4333L40.2737 65.2444C40.5905 65.4 40.9073 65.4778 41.2241 65.4778C41.9369 65.4778 42.5705 65.1667 42.9665 64.5444C43.5209 63.6111 43.2041 62.4444 42.2537 61.9L33.5418 56.9222V39.3444L48.9856 48.1333V58.0111C48.9856 59.1 49.8568 59.9556 50.9656 59.9556C52.0744 59.9556 52.9455 59.1 52.9455 58.0111V50.3889L59.6775 54.2C59.9943 54.3556 60.3111 54.4333 60.6279 54.4333C61.3406 54.4333 61.9742 54.1222 62.3702 53.5C62.9246 52.5667 62.6078 51.4 61.6574 50.8556L54.9255 47.0444L61.6574 43.2333C62.6078 42.6889 62.9246 41.5222 62.3702 40.5889C61.8158 39.6556 60.6279 39.3444 59.6775 39.8889L50.9656 44.8667L35.601 36L51.0448 27.2111L59.7567 32.1889C60.0735 32.3444 60.3903 32.4222 60.7071 32.4222C61.4198 32.4222 62.0534 32.1111 62.4494 31.4889C63.0038 30.5556 62.687 29.3889 61.7366 28.8444L55.0047 25.0333L61.7366 21.2222C62.687 20.6778 63.0038 19.5111 62.4494 18.5778C61.895 17.6444 60.7071 17.3333 59.7567 17.8778L53.0247 21.6889V14.0667C53.0247 12.9778 52.1536 12.1222 51.0448 12.1222C49.936 12.1222 49.0648 12.9778 49.0648 14.0667V23.9444L33.621 32.6556V15.0778L42.3329 10.1C43.2833 9.55556 43.6001 8.38889 43.0457 7.45556C42.4913 6.52222 41.3033 6.21111 40.3529 6.75556L33.621 10.5667V2.94444C33.621 1.85556 32.7498 1 31.641 1C30.5322 1 29.661 1.85556 29.661 2.94444V10.5667L22.9291 6.75556C21.9787 6.21111 20.7907 6.52222 20.2364 7.45556C19.682 8.38889 19.9988 9.55556 20.9491 10.1L29.661 15.0778V32.6556L14.2172 23.8667V13.9889C14.2172 12.9 13.346 12.0444 12.2373 12.0444C11.1285 12.0444 10.2573 12.9 10.2573 13.9889V21.6111L3.52536 17.8C2.57497 17.2556 1.38699 17.5667 0.832594 18.5C0.278201 19.4333 0.594997 20.6 1.54539 21.1444L8.2773 24.9556L1.54539 28.7667C0.594997 29.3111 0.278201 30.4778 0.832594 31.4111C1.22859 32.0333 1.86218 32.3444 2.57497 32.3444C2.89177 32.3444 3.28776 32.2667 3.52536 32.1111L12.2373 27.1333L27.6811 36L12.2373 44.7889L3.52536 39.8111C2.57497 39.2667 1.38699 39.5778 0.832594 40.5111C0.278201 41.4444 0.594997 42.6111 1.54539 43.1556L8.2773 46.9667L1.54539 50.7778C0.594997 51.4 0.199002 52.5667 0.753395 53.5Z" fill="white" stroke="white" stroke-width="0.8"/>
</svg>
