<svg width="24" height="13" viewBox="0 0 24 13" fill="none" xmlns="http://www.w3.org/2000/svg">
<path fill-rule="evenodd" clip-rule="evenodd" d="M19.0788 3.45496L15.6626 6.87042C14.8815 7.65137 13.6152 7.65124 12.8342 6.87013L10.0378 4.07322C9.25682 3.29204 7.99039 3.29198 7.20929 4.07308L0.748386 10.534C0.309175 10.9732 0.309176 11.6853 0.748386 12.1245C1.18757 12.5637 1.89963 12.5637 2.33885 12.1246L7.20958 7.25457C7.99065 6.47363 9.2569 6.47368 10.0379 7.25468L12.8343 10.0511C13.6153 10.8321 14.8816 10.8322 15.6627 10.0512L20.6693 5.04543L21.678 6.05416C22.2876 6.66372 23.3312 6.26795 23.3833 5.40748L23.6985 0.200195L18.617 0.676625C17.7742 0.755645 17.4047 1.78079 18.0032 2.37936L19.0788 3.45496Z" fill="#FE5F10"/>
</svg>
