<svg width="24" height="24" viewBox="0 0 24 24" fill="none" xmlns="http://www.w3.org/2000/svg">
<path d="M7 11.6965V9.68511C7.09242 9.85409 7.20836 10.0089 7.34453 10.1456L9.90233 12.7034C10.2529 13.055 10.7199 13.2661 11.2154 13.2984V17.4634C11.2154 17.5192 11.1935 17.5722 11.1541 17.6116L10.0844 18.6813C10.0582 18.7086 10.0215 18.7245 9.98327 18.7245C9.94553 18.7245 9.90889 18.7086 9.88264 18.6813L8.81842 17.6171L8.81896 17.6176C8.77795 17.5766 8.75607 17.5208 8.75717 17.4634V16.934C8.75771 16.87 8.78342 16.8088 8.82826 16.7634L9.39646 16.1952H9.39701C9.41451 16.1771 9.42435 16.1536 9.42435 16.1285C9.42435 16.1033 9.41451 16.0798 9.39701 16.0617L8.89169 15.5564C8.76591 15.4306 8.76591 15.2261 8.89169 15.1003L9.39701 14.595C9.41451 14.577 9.42435 14.5534 9.42435 14.5283C9.42435 14.5031 9.41451 14.4796 9.39701 14.4616L8.82881 13.8934H8.82826C8.78232 13.8474 8.75607 13.7851 8.75553 13.72V12.9834H8.28248C7.94178 12.9834 7.61475 12.8477 7.37412 12.606C7.13349 12.3648 6.99896 12.0378 7.00005 11.6966L7 11.6965ZM7.89195 9.59649C7.64914 9.35586 7.51297 9.02829 7.51297 8.68649C7.51297 8.34524 7.64915 8.01767 7.89195 7.77649L10.2955 5.37843C10.5367 5.13616 10.8642 5 11.2055 5C11.5473 5 11.8748 5.13617 12.1155 5.37843L14.6622 7.93231C14.9045 8.17295 15.0412 8.50052 15.0412 8.84231C15.0412 9.18356 14.9045 9.51114 14.6622 9.75231L14.3275 10.087L17.5027 13.2562C17.5421 13.2956 17.564 13.3481 17.5645 13.4033V14.91C17.5645 14.9466 17.5498 14.9827 17.5235 15.009C17.4973 15.0352 17.4617 15.05 17.4245 15.05H15.9223C15.8665 15.0494 15.8135 15.0275 15.7741 14.9882L15.3962 14.6103H15.3957C15.3503 14.5638 15.3246 14.5015 15.3246 14.4364V13.633C15.3235 13.6073 15.312 13.5832 15.2929 13.5663C15.2732 13.5493 15.248 13.5411 15.2223 13.5433H14.5081C14.3298 13.5433 14.1849 13.3984 14.1849 13.2201V12.5015C14.1849 12.4501 14.1428 12.408 14.0914 12.408H13.2875C13.2219 12.408 13.159 12.3818 13.1125 12.3353L12.593 11.8158L12.2583 12.1504C12.0176 12.3927 11.6901 12.5283 11.3483 12.5283C11.007 12.5283 10.6794 12.3927 10.4383 12.1504L7.89195 9.59649ZM9.82129 8.25938V8.25993C10.0138 8.45188 10.3031 8.5093 10.5547 8.40486C10.8062 8.30042 10.9703 8.0554 10.9703 7.78306C10.9703 7.51072 10.8062 7.26517 10.5547 7.16126C10.3031 7.05681 10.0138 7.11423 9.82129 7.30619C9.69387 7.43252 9.62277 7.60424 9.62277 7.78362C9.62277 7.963 9.69387 8.13471 9.82129 8.26105V8.25938Z" fill="currentColor" />
</svg>
