<svg width="29" height="35" viewBox="0 0 29 35" fill="none" xmlns="http://www.w3.org/2000/svg">
<path d="M17.3904 11.6821L16.6066 13.0036H18.143H27.6243H27.6259C27.798 13.0036 27.9739 13.1109 28.0706 13.3243C28.1638 13.5303 28.1364 13.7322 28.0027 13.881L27.9965 13.8879L27.9905 13.8949L10.74 33.9256L10.7334 33.9332L10.727 33.941C10.5663 34.1365 10.3349 34.1749 10.1067 34.0668C9.99283 34.0128 9.91481 33.9342 9.87465 33.8601C9.8403 33.7967 9.82125 33.717 9.85103 33.6011L9.85114 33.6011L9.85434 33.5878L12.3677 23.1281L12.627 22.0487H11.5169H1.3497C1.20329 22.0487 1.04555 21.9622 0.945957 21.7803C0.847995 21.6013 0.855529 21.4191 0.943473 21.2819L0.954259 21.2651L0.964266 21.2478L12.5844 1.16322C12.771 0.940848 12.9682 0.875 13.1166 0.875H22.8267C23.1012 0.875 23.2686 1.00092 23.3478 1.13271C23.4237 1.25879 23.4543 1.44701 23.3263 1.67526L17.3904 11.6821Z" stroke="currentColor" stroke-width="1.75"/>
</svg>
