<svg width="18" height="18" fill="currentColor" viewBox="0 0 18 18" xmlns="http://www.w3.org/2000/svg">
<path d="M0.37793 6.28254V17.5H4.12207V6.28254H0.37793ZM10.125 17.5H6.37207V8.81771C6.37207 8.81771 6.31055 6.66409 6.31055 6.28254H10.002L10.125 7.83416C10.8721 6.74888 11.9971 5.92643 13.5 5.92643C16.1279 5.92643 18 7.73242 18 10.9883V17.5H14.2471V11.3529C14.2471 9.5384 13.333 8.81771 12.208 8.81771C11.083 8.81771 10.125 9.5384 10.125 10.9883V17.5ZM2.23242 4.47656C3.62109 4.47656 4.5 3.59476 4.5 2.48404C4.48242 1.36484 3.62109 0.5 2.26758 0.5C0.896484 0.5 0 1.36484 0 2.48404C0 3.59476 0.878906 4.47656 2.20605 4.47656H2.23242Z" />
</svg>
