<svg width="16" height="20" viewBox="0 0 16 20" fill="none" xmlns="http://www.w3.org/2000/svg">
<path fill-rule="evenodd" clip-rule="evenodd" d="M2.5 7.35294C2.5 4.41804 4.94074 2 8 2C11.0593 2 13.5 4.41804 13.5 7.35294C13.5 8.83766 12.7742 10.7889 11.5735 12.8263C10.5706 14.5281 9.29066 16.1987 7.99931 17.5722C6.67454 16.1681 5.39022 14.4925 4.39364 12.7948C3.20664 10.7727 2.5 8.84148 2.5 7.35294ZM8 0C3.87956 0 0.5 3.27057 0.5 7.35294C0.5 9.37304 1.41836 11.6771 2.66886 13.8073C3.93494 15.964 5.61596 18.0682 7.30103 19.7152C7.68962 20.095 8.31038 20.095 8.69897 19.7152C10.3401 18.1111 12.0204 16.0072 13.2966 13.8417C14.5559 11.7049 15.5 9.37685 15.5 7.35294C15.5 3.27057 12.1204 0 8 0ZM8 9.75C9.24264 9.75 10.25 8.74264 10.25 7.5C10.25 6.25736 9.24264 5.25 8 5.25C6.75736 5.25 5.75 6.25736 5.75 7.5C5.75 8.74264 6.75736 9.75 8 9.75Z" fill="#222222"/>
</svg>
