<svg width="18" height="17" viewBox="0 0 18 17" fill="none" xmlns="http://www.w3.org/2000/svg">
<path d="M4.37923 7.9218L8.98008 10.4416C9.13344 10.5424 9.33792 10.5424 9.49128 10.4416L14.0921 7.9218C14.7056 7.61942 14.1944 6.71229 13.5809 7.06506L9.23568 9.43368L4.89044 7.01467C4.27699 6.71229 3.81691 7.56902 4.37923 7.9218Z" fill="white" stroke="white"/>
<path d="M2.89121 15.9H15.4993C16.5709 15.9 17.3905 15.0921 17.3905 14.0356V6.08061C17.3905 5.39698 17.0122 4.71335 16.3188 4.40261L9.44739 1.04661C9.25827 0.984463 9.06915 0.984463 8.88003 1.04661L2.07168 4.46475C1.37824 4.7755 1 5.39698 1 6.08061V14.0356C1 15.0921 1.81952 15.9 2.89121 15.9ZM2.2608 6.08061C2.2608 5.83201 2.38689 5.64557 2.63905 5.52127L9.19523 2.28957L15.7514 5.52127C16.0036 5.64557 16.1297 5.89416 16.1297 6.08061V14.0356C16.1297 14.4084 15.8775 14.657 15.4993 14.657H2.89121C2.51297 14.657 2.2608 14.4084 2.2608 14.0356V6.08061Z" fill="white" stroke="white" stroke-width="0.5"/>
</svg>
