<svg xmlns="http://www.w3.org/2000/svg" fill="none" width="18" height="17" viewBox="0 0 18 17"><defs/><path fill="currentColor" stroke="currentColor" d="M4.38 7.922l4.6 2.52c.153.1.358.1.511 0l4.601-2.52c.614-.303.102-1.21-.511-.857L9.236 9.434 4.89 7.014c-.613-.302-1.073.555-.51.908z"/><path fill="currentColor" stroke="currentColor" stroke-width=".5" d="M2.891 15.9H15.5c1.072 0 1.891-.808 1.891-1.864V6.08a1.83 1.83 0 00-1.071-1.678L9.447 1.047a.887.887 0 00-.567 0L2.072 4.465C1.378 4.775 1 5.397 1 6.08v7.955c0 1.056.82 1.864 1.891 1.864zm-.63-9.82c0-.248.126-.434.378-.559L9.195 2.29l6.556 3.231c.253.125.379.373.379.56v7.955c0 .372-.252.621-.63.621H2.89c-.378 0-.63-.249-.63-.621V6.08z"/></svg>
