<svg width="18" height="14" viewBox="0 0 18 14" fill="none" xmlns="http://www.w3.org/2000/svg">
<path fill-rule="evenodd" clip-rule="evenodd" d="M3 0C1.61929 0 0.5 1.11929 0.5 2.5V11.5C0.5 12.8807 1.61929 14 3 14H15C16.3807 14 17.5 12.8807 17.5 11.5V2.5C17.5 1.11929 16.3807 0 15 0H3ZM2.5 2.91421V11.5C2.5 11.7761 2.72386 12 3 12H15C15.2761 12 15.5 11.7761 15.5 11.5V2.91421L9.70711 8.70711C9.31658 9.09763 8.68342 9.09763 8.29289 8.70711L2.5 2.91421ZM13.5858 2H4.41421L9 6.58579L13.5858 2Z" fill="currentColor"/>
</svg>
