<svg width="34" height="34" viewBox="0 0 34 34" fill="none" xmlns="http://www.w3.org/2000/svg">
<path fill-rule="evenodd" clip-rule="evenodd" d="M5 15.3888C5 9.65124 9.65124 5 15.3888 5C21.1264 5 25.7777 9.65124 25.7777 15.3888C25.7777 21.1264 21.1264 25.7777 15.3888 25.7777C9.65124 25.7777 5 21.1264 5 15.3888ZM15.3888 0C6.88982 0 0 6.88982 0 15.3888C0 23.8879 6.88982 30.7777 15.3888 30.7777C18.7359 30.7777 21.8334 29.7091 24.3588 27.8945L29.7322 33.268C30.7085 34.2443 32.2914 34.2443 33.2677 33.268C34.244 32.2917 34.244 30.7087 33.2677 29.7324L27.8943 24.359C29.709 21.8336 30.7777 18.736 30.7777 15.3888C30.7777 6.88982 23.8879 0 15.3888 0Z" fill="#222222"/>
</svg>
