<svg width="20" height="20" fill="currentColor" viewBox="0 0 20 20" xmlns="http://www.w3.org/2000/svg">
<path fill-rule="evenodd" clip-rule="evenodd" d="M2.85712 9.04757C2.85712 5.6287 5.62864 2.85715 9.04747 2.85715C12.4663 2.85715 15.2378 5.6287 15.2378 9.04757C15.2378 12.4664 12.4663 15.238 9.04747 15.238C5.62864 15.238 2.85712 12.4664 2.85712 9.04757ZM9.04747 0C4.05069 0 0 4.05074 0 9.04757C0 14.0444 4.05069 18.0951 9.04747 18.0951C11.0304 18.0951 12.8643 17.4572 14.3552 16.3754L17.5613 19.5816C18.1192 20.1395 19.0237 20.1395 19.5816 19.5816C20.1395 19.0237 20.1395 18.1192 19.5816 17.5613L16.3755 14.3551C17.4571 12.8642 18.0949 11.0304 18.0949 9.04757C18.0949 4.05074 14.0443 0 9.04747 0Z" />
</svg>
