<svg xmlns="http://www.w3.org/2000/svg" width="29" height="32" fill="none" viewBox="0 0 29 32">
  <defs/>
  <circle cx="14.022" cy="12.216" r="4.758" fill="#F4F4F4" stroke="currentColor" stroke-width="1.7"/>
  <path stroke="currentColor" stroke-width="1.7" d="M11.218 1.935C11.966 1.187 12.62 1 13.555 1c1.694 0 1.87.935 3.74 1.87 1.868.934 3.037-.234 4.673 1.402.934.934.467 2.336.934 3.738.468 1.403 2.337 1.636 2.337 4.207 0 1.87-1.402 2.336-1.87 2.804-.466.467-.856 1.676-.934 2.337 0 .934-.307 2.176-.935 2.804-.628.628-1.87.935-2.337.935-.467 0-2.056.187-2.804.934-.934.935-1.402 1.402-2.804 1.402-1.121 0-1.51-.367-2.804-1.402-1.293-1.034-2.203-.848-2.804-.934-2.617-.374-3.74-1.402-3.74-3.272 0-.935 0-1.87-.466-2.337-.935-.934-1.87-1.87-1.87-3.271 0-1.402 1.227-2.162 1.87-2.804.373-.374.467-1.403.467-1.87 0-1.87.599-2.468 1.402-3.271.803-.804 2.337-.935 3.272-.935.934 0 1.402-.468 2.336-1.402z"/>
  <path stroke="currentColor" stroke-linecap="round" stroke-linejoin="round" stroke-width="1.7" d="M4.206 18.76L0 27.172h4.674l2.804 3.74 4.206-7.479M22.405 18.212L27.37 26.2l-4.654.43-2.448 3.982-4.877-7.059"/>
</svg>
