<svg width="32" height="31" viewBox="0 0 32 31" fill="none" xmlns="http://www.w3.org/2000/svg">
<path d="M30.7343 12.5506L30.7346 12.5521C31.0652 14.2053 31.0655 15.8592 30.7342 17.6813L30.7339 17.6831C29.41 25.7919 21.6312 31.0916 13.5165 29.7673C7.22243 28.6075 2.25764 23.8052 1.26475 17.5169L1.26466 17.5164C-0.0599853 9.40291 5.40457 1.62209 13.5154 0.297868C21.6272 -1.02651 29.2439 4.43637 30.7343 12.5506ZM27.246 22.4258L27.2463 22.4261L27.2511 22.4182C28.5926 20.2383 29.4326 17.7204 29.4326 15.0325C29.4326 8.48388 24.5641 2.77496 18.1818 1.7671C10.9591 0.591448 4.07566 5.63034 2.90055 13.0168L2.90053 13.0169C2.39672 16.2077 3.06853 19.566 4.91535 22.4202L4.91515 22.4203L4.91931 22.4258C5.94464 23.793 7.66414 24.3142 9.21395 23.4536C13.5174 21.1366 18.6479 21.1366 22.9513 23.4536C24.5011 24.3142 26.2206 23.793 27.246 22.4258ZM17.5953 14.6285L17.566 14.6578V14.6992V14.7002V14.7011V14.7021V14.7031V14.7041V14.705V14.706V14.707V14.708V14.7089V14.7099V14.7109V14.7119V14.7128V14.7138V14.7148V14.7158V14.7167V14.7177V14.7187V14.7197V14.7206V14.7216V14.7226V14.7236V14.7245V14.7255V14.7265V14.7275V14.7284V14.7294V14.7304V14.7314V14.7323V14.7333V14.7343V14.7352V14.7362V14.7372V14.7382V14.7391V14.7401V14.7411V14.742V14.743V14.744V14.7449V14.7459V14.7469V14.7478V14.7488V14.7498V14.7507V14.7517V14.7527V14.7536V14.7546V14.7556V14.7565V14.7575V14.7585V14.7594V14.7604V14.7613V14.7623V14.7633V14.7642V14.7652V14.7661V14.7671V14.7681V14.769V14.77V14.7709V14.7719V14.7728V14.7738V14.7748V14.7757V14.7767V14.7776V14.7786V14.7795V14.7805V14.7814V14.7824V14.7833V14.7843V14.7852V14.7862V14.7871V14.7881V14.789V14.7899V14.7909V14.7918V14.7928V14.7937V14.7946V14.7956V14.7965V14.7975V14.7984V14.7993V14.8003V14.8012V14.8021V14.8031V14.804V14.8049V14.8059V14.8068V14.8077V14.8087V14.8096V14.8105V14.8114V14.8124V14.8133V14.8142V14.8151V14.8161V14.817V14.8179V14.8188V14.8197V14.8207V14.8216V14.8225V14.8234V14.8243V14.8252V14.8261V14.827V14.828V14.8289V14.8298V14.8307V14.8316V14.8325V14.8334V14.8343V14.8352V14.8361V14.837V14.8379V14.8388V14.8397V14.8406V14.8415V14.8424V14.8433V14.8441V14.845V14.8459V14.8468V14.8477V14.8486V14.8495V14.8503V14.8512V14.8521V14.853V14.8539V14.8547V14.8556V14.8565V14.8573V14.8582V14.8591V14.86V14.8608V14.8617V14.8626V14.8634V14.8643V14.8651V14.866V14.8669V14.8677V14.8686V14.8694V14.8703V14.8711V14.872V14.8728V14.8737V14.8745V14.8754V14.8762V14.877V14.8779V14.8787V14.8796V14.8804V14.8812V14.8821V14.8829V14.8837V14.8846V14.8854V14.8862V14.887V14.8879V14.8887V14.8895V14.8903V14.8911V14.8919V14.8928V14.8936V14.8944V14.8952V14.896V14.8968V14.8976V14.8984V14.8992V14.9V14.9008V14.9016V14.9024V14.9032V14.904V14.9048V14.9055V14.9063V14.9071V14.9079V14.9087V14.9095V14.9102V14.911V14.9118V14.9126V14.9133V14.9141V14.9149V14.9156V14.9164V14.9171V14.9179V14.9187V14.9194V14.9202V14.9209V14.9217V14.9224V14.9232V14.9239V14.9247V14.9254V14.9261V14.9269V14.9276V14.9283V14.9291V14.9298V14.9305V14.9313V14.932V14.9327V14.9334V14.9341V14.9349V14.9356V14.9363V14.937V14.9377V14.9384V14.9391V14.9398V14.9405V14.9412V14.9419V14.9426V14.9433V14.944V14.9447V14.9454V14.946V14.9467V14.9474V14.9481V14.9487V14.9494V14.9501V14.9508V14.9514V14.9521V14.9528V14.9534V14.9541V14.9547V14.9554V14.956V14.9567V14.9573V14.958V14.9586V14.9593V14.9599V14.9605V14.9612V14.9618V14.9624V14.963V14.9637V14.9643V14.9649V14.9655V14.9661V14.9668V14.9674V14.968V14.9686V14.9692V14.9698V14.9704V14.971V14.9716V14.9722V14.9728V14.9733V14.9739V14.9745V14.9751V14.9757V14.9762V14.9768V14.9774V14.978V14.9785V14.9791V14.9796V14.9802V14.9808V14.9813V14.9819V14.9824V14.9829V14.9835V14.984V14.9846V14.9851V14.9856V14.9862V14.9867V14.9872V14.9877V14.9882V14.9888V14.9893V14.9898V14.9903V14.9908V14.9913V14.9918V14.9923V14.9928V14.9933V14.9938V14.9943V14.9948V14.9952V14.9957V14.9962V14.9967V14.9971V14.9976V14.9981V14.9985V14.999V14.9994V14.9999V15.0004V15.0008V15.0012V15.0017V15.0021V15.0026V15.003V15.0034V15.0039V15.0043V15.0047V15.0051V15.0055V15.006V15.0064V15.0068V15.0072V15.0076V15.008V15.0084V15.0088V15.0092V15.0096V15.0099V15.0103V15.0107V15.0111V15.0115V15.0118V15.0122V15.0126V15.0129V15.0133V15.0136V15.014V15.0143V15.0147V15.015V15.0154V15.0157V15.016V15.0164V15.0167V15.017V15.0173V15.0176V15.018V15.0183V15.0186V15.0189V15.0192V15.0195V15.0198V15.0201V15.0204V15.0207V15.0209V15.0212V15.0215V15.0218V15.022V15.0223V15.0226V15.0228V15.0231V15.0233V15.0236V15.0238V15.0241V15.0243V15.0246V15.0248V15.025V15.0252V15.0255V15.0257V15.0259V15.0261V15.0263V15.0265V15.0267V15.0269V15.0271V15.0273V15.0275V15.0277V15.0279V15.0281V15.0282V15.0284V15.0286V15.0288V15.0289V15.0291V15.0292V15.0294V15.0295V15.0297V15.0298V15.03V15.0301V15.0302V15.0304V15.0305V15.0306V15.0307V15.0308V15.0309V15.031V15.0311V15.0312V15.0313V15.0314V15.0315V15.0316V15.0317V15.0318V15.0318V15.0319V15.032V15.032V15.0321V15.0321V15.0322V15.0322V15.0323V15.0323V15.0324V15.0324V15.0324V15.0324V15.0325V15.0325V15.0325C17.566 15.5098 17.4073 15.8997 17.1369 16.1701C16.8665 16.4405 16.4766 16.5992 15.9993 16.5992C15.522 16.5992 15.1321 16.4405 14.8617 16.1701C14.5913 15.8997 14.4326 15.5098 14.4326 15.0325C14.4326 14.5552 14.5913 14.1653 14.8617 13.8949C15.1321 13.6245 15.522 13.4658 15.9993 13.4658H16.0003H16.0013H16.0022H16.0032H16.0042H16.0052H16.0061H16.0071H16.0081H16.0091H16.01H16.011H16.012H16.013H16.0139H16.0149H16.0159H16.0169H16.0179H16.0188H16.0198H16.0208H16.0218H16.0227H16.0237H16.0247H16.0256H16.0266H16.0276H16.0286H16.0295H16.0305H16.0315H16.0325H16.0334H16.0344H16.0354H16.0363H16.0373H16.0383H16.0393H16.0402H16.0412H16.0422H16.0431H16.0441H16.0451H16.046H16.047H16.048H16.0489H16.0499H16.0509H16.0518H16.0528H16.0538H16.0547H16.0557H16.0567H16.0576H16.0586H16.0596H16.0605H16.0615H16.0624H16.0634H16.0644H16.0653H16.0663H16.0672H16.0682H16.0692H16.0701H16.0711H16.072H16.073H16.0739H16.0749H16.0758H16.0768H16.0777H16.0787H16.0796H16.0806H16.0816H16.0825H16.0834H16.0844H16.0853H16.0863H16.0872H16.0882H16.0891H16.0901H16.091H16.092H16.0929H16.0938H16.0948H16.0957H16.0967H16.0976H16.0985H16.0995H16.1004H16.1013H16.1023H16.1032H16.1041H16.1051H16.106H16.1069H16.1079H16.1088H16.1097H16.1106H16.1116H16.1125H16.1134H16.1143H16.1153H16.1162H16.1171H16.118H16.1189H16.1199H16.1208H16.1217H16.1226H16.1235H16.1244H16.1254H16.1263H16.1272H16.1281H16.129H16.1299H16.1308H16.1317H16.1326H16.1335H16.1344H16.1353H16.1362H16.1371H16.138H16.1389H16.1398H16.1407H16.1416H16.1425H16.1434H16.1443H16.1452H16.146H16.1469H16.1478H16.1487H16.1496H16.1505H16.1513H16.1522H16.1531H16.154H16.1549H16.1557H16.1566H16.1575H16.1583H16.1592H16.1601H16.161H16.1618H16.1627H16.1635H16.1644H16.1653H16.1661H16.167H16.1678H16.1687H16.1696H16.1704H16.1713H16.1721H16.173H16.1738H16.1746H16.1755H16.1763H16.1772H16.178H16.1789H16.1797H16.1805H16.1814H16.1822H16.183H16.1839H16.1847H16.1855H16.1863H16.1872H16.188H16.1888H16.1896H16.1904H16.1913H16.1921H16.1929H16.1937H16.1945H16.1953H16.1961H16.1969H16.1977H16.1985H16.1993H16.2001H16.2009H16.2017H16.2025H16.2033H16.2041H16.2049H16.2057H16.2065H16.2072H16.208H16.2088H16.2096H16.2104H16.2111H16.2119H16.2127H16.2135H16.2142H16.215H16.2158H16.2165H16.2173H16.218H16.2188H16.2195H16.2203H16.2211H16.2218H16.2226H16.2233H16.224H16.2248H16.2255H16.2263H16.227H16.2277H16.2285H16.2292H16.2299H16.2307H16.2314H16.2321H16.2328H16.2336H16.2343H16.235H16.2357H16.2364H16.2371H16.2378H16.2385H16.2392H16.2399H16.2406H16.2413H16.242H16.2427H16.2434H16.2441H16.2448H16.2455H16.2462H16.2468H16.2475H16.2482H16.2489H16.2496H16.2502H16.2509H16.2516H16.2522H16.2529H16.2535H16.2542H16.2549H16.2555H16.2562H16.2568H16.2575H16.2581H16.2587H16.2594H16.26H16.2607H16.2613H16.2619H16.2626H16.2632H16.2638H16.2644H16.265H16.2657H16.2663H16.2669H16.2675H16.2681H16.2687H16.2693H16.2699H16.2705H16.2711H16.2717H16.2723H16.2729H16.2735H16.2741H16.2746H16.2752H16.2758H16.2764H16.2769H16.2775H16.2781H16.2786H16.2792H16.2798H16.2803H16.2809H16.2814H16.282H16.2825H16.2831H16.2836H16.2842H16.2847H16.2852H16.2858H16.2863H16.2868H16.2873H16.2879H16.2884H16.2889H16.2894H16.2899H16.2904H16.2909H16.2914H16.2919H16.2924H16.2929H16.2934H16.2939H16.2944H16.2949H16.2954H16.2958H16.2963H16.2968H16.2973H16.2977H16.2982H16.2987H16.2991H16.2996H16.3H16.3005H16.3009H16.3014H16.3018H16.3023H16.3027H16.3031H16.3036H16.304H16.3044H16.3048H16.3053H16.3057H16.3061H16.3065H16.3069H16.3073H16.3077H16.3081H16.3085H16.3089H16.3093H16.3097H16.3101H16.3105H16.3108H16.3112H16.3116H16.312H16.3123H16.3127H16.313H16.3134H16.3138H16.3141H16.3145H16.3148H16.3151H16.3155H16.3158H16.3162H16.3165H16.3168H16.3171H16.3175H16.3178H16.3181H16.3184H16.3187H16.319H16.3193H16.3196H16.3199H16.3202H16.3205H16.3208H16.3211H16.3213H16.3216H16.3219H16.3222H16.3224H16.3227H16.323H16.3232H16.3235H16.3237H16.324H16.3242H16.3244H16.3247H16.3249H16.3252H16.3254H16.3256H16.3258H16.326H16.3263H16.3265H16.3267H16.3269H16.3271H16.3273H16.3275H16.3277H16.3278H16.328H16.3282H16.3284H16.3286H16.3287H16.3289H16.3291H16.3292H16.3294H16.3295H16.3297H16.3298H16.33H16.3301H16.3302H16.3304H16.3305H16.3306H16.3307H16.3308H16.331H16.3311H16.3312H16.3313H16.3314H16.3315H16.3316H16.3316H16.3317H16.3318H16.3319H16.332H16.332H16.3321H16.3322H16.3322H16.3323H16.3323H16.3324H16.3324H16.3324H16.3325H16.3325H16.3325H16.3326H16.3326H16.3326H16.3326H16.3326H16.3741L16.4033 13.4366L22.8914 6.94847C23.0384 6.87956 23.262 6.84224 23.491 6.86133C23.7275 6.88104 23.9513 6.95927 24.0953 7.10322C24.3895 7.3975 24.3895 7.83418 24.0953 8.12846L17.5953 14.6285Z" fill="currentColor" stroke="white" stroke-width="0.2"/>
</svg>
