<svg width="18px" height="18px" viewBox="0 0 18 18" version="1.1" xmlns="http://www.w3.org/2000/svg" xmlns:xlink="http://www.w3.org/1999/xlink">
  <path d="M6.59976,8.5603 L6.599,6.7 L10.5396,6.70014 C12.5599584,6.70014 14.1998,8.33995802 14.1998,10.3603 C14.1998,12.3763409 12.5634917,14.0001 10.5396,14.0001 L4.57936,14.0001 C3.65903655,14.0001 2.9192,14.7399538 2.9192,15.6603 C2.9192,16.5806462 3.65903655,17.3205 4.57936,17.3205 L10.5396,17.3205 C14.3793498,17.3205 17.4998,14.2000498 17.4998,10.3603 L17.4957627,10.1202094 C17.369599,6.37443259 14.3024739,3.37974 10.5396,3.37974 L6.599,3.379 L6.59976,1.51958 C6.59976,0.833179712 5.79457798,0.444126306 5.25759888,0.881636724 L0.821010091,4.37904833 C0.430118916,4.69599019 0.402282736,5.25239839 0.735939524,5.60224881 L0.818977656,5.67881069 L5.25870076,9.19922386 L5.35334329,9.26312708 C5.90638932,9.57655711 6.59976,9.18674838 6.59976,8.5603 Z" fill="currentColor"></path>
</svg>
