<svg width="12" height="10" viewBox="0 0 12 10" fill="none" xmlns="http://www.w3.org/2000/svg">
<path d="M5.025 0.855038L1.10579 3.25018L5.025 5.64531V4.34399V4.11899H5.25H7.51566C8.42519 4.11899 9.1625 4.85629 9.1625 5.76583C9.1625 6.67536 8.42524 7.41267 7.51566 7.41267H3.72507V9.15017L7.5154 9.15017L7.51566 9.15017M5.025 0.855038L10.0669 8.31697C9.38985 8.99345 8.4727 9.37408 7.51566 9.37517V9.15017M5.025 0.855038V2.15636V2.38136H5.25L7.5154 2.38136C7.51543 2.38136 7.51547 2.38136 7.5155 2.38136C8.41282 2.38242 9.2728 2.73928 9.90771 3.3736C10.5421 4.00848 10.899 4.86841 10.9001 5.76575C10.899 6.66304 10.5421 7.52298 9.90778 8.15787M5.025 0.855038L9.90778 8.15787M7.51566 9.15017C8.41296 9.14908 9.27291 8.79219 9.90778 8.15787M7.51566 9.15017L9.90778 8.15787" fill="currentColor" stroke="currentColor" stroke-width="0.45"/>
</svg>
