<svg width="42" height="39" viewBox="0 0 42 39" fill="none" xmlns="http://www.w3.org/2000/svg">
<path d="M21 38.0001C12.75 38.0001 5.50001 32.4187 3.43751 24.3916C3.37501 24.078 3.56251 23.7018 3.87501 23.6391C4.18751 23.5764 4.56251 23.7645 4.62501 24.078C6.56251 31.5408 13.3125 36.7458 21 36.7458C30.3125 36.7458 37.875 29.1577 37.875 19.8136C37.875 19.4374 38.125 19.1865 38.5 19.1865C38.875 19.1865 39.125 19.4374 39.125 19.8136C39.125 29.8475 31 38.0001 21 38.0001Z" fill="currentColor" stroke="currentColor" stroke-width="0.25"/>
<path d="M3.5 19.8136C3.125 19.8136 2.875 19.5627 2.875 19.1864C2.875 9.15254 11 1 21 1C29.25 1 36.5 6.58136 38.5625 14.6085C38.625 14.922 38.4375 15.2983 38.125 15.361C37.8125 15.4237 37.4375 15.2356 37.375 14.922C35.4375 7.45932 28.6875 2.25424 21 2.25424C11.6875 2.25424 4.125 9.84237 4.125 19.1864C4.125 19.5627 3.875 19.8136 3.5 19.8136Z" fill="currentColor" stroke="currentColor" stroke-width="0.25"/>
<path d="M3.5 19.8136C3.3125 19.8136 3.1875 19.7509 3.0625 19.6254L1.1875 17.7441C0.9375 17.4932 0.9375 17.117 1.1875 16.8661C1.4375 16.6153 1.8125 16.6153 2.0625 16.8661L3.9375 18.7475C4.1875 18.9983 4.1875 19.3746 3.9375 19.6254C3.8125 19.7509 3.6875 19.8136 3.5 19.8136Z" fill="currentColor" stroke="currentColor" stroke-width="0.25"/>
<path d="M3.5 19.8136C3.3125 19.8136 3.1875 19.7509 3.0625 19.6254C2.8125 19.3746 2.8125 18.9983 3.0625 18.7475L4.9375 16.8661C5.1875 16.6153 5.5625 16.6153 5.8125 16.8661C6.0625 17.117 6.0625 17.4932 5.8125 17.7441L3.9375 19.6254C3.8125 19.7509 3.6875 19.8136 3.5 19.8136Z" fill="currentColor" stroke="currentColor" stroke-width="0.25"/>
<path d="M40.375 21.6949C40.1875 21.6949 40.0625 21.6322 39.9375 21.5068L38.0625 19.6254C37.8125 19.3746 37.8125 18.9983 38.0625 18.7475C38.3125 18.4966 38.6875 18.4966 38.9375 18.7475L40.8125 20.6288C41.0625 20.8797 41.0625 21.2559 40.8125 21.5068C40.6875 21.6322 40.5625 21.6949 40.375 21.6949Z" fill="currentColor" stroke="currentColor" stroke-width="0.25"/>
<path d="M36.625 21.6949C36.4375 21.6949 36.3125 21.6322 36.1875 21.5068C35.9375 21.2559 35.9375 20.8797 36.1875 20.6288L38.0625 18.7475C38.3125 18.4966 38.6875 18.4966 38.9375 18.7475C39.1875 18.9983 39.1875 19.3746 38.9375 19.6254L37.0625 21.5068C36.9375 21.6322 36.8125 21.6949 36.625 21.6949Z" fill="currentColor" stroke="currentColor" stroke-width="0.25"/>
<path d="M9.75 33.861C9.375 33.861 9.125 33.6102 9.125 33.2339V17.3051C9.125 16.9288 9.375 16.678 9.75 16.678C10.125 16.678 10.375 16.9288 10.375 17.3051V33.2966C10.375 33.6102 10.125 33.861 9.75 33.861Z" fill="currentColor" stroke="currentColor" stroke-width="0.25"/>
<path d="M32.25 33.861C31.875 33.861 31.625 33.6102 31.625 33.2339V17.3051C31.625 16.9288 31.875 16.678 32.25 16.678C32.625 16.678 32.875 16.9288 32.875 17.3051V33.2966C32.875 33.6102 32.625 33.861 32.25 33.861Z" fill="currentColor" stroke="currentColor" stroke-width="0.25"/>
<path d="M32.25 17.9322H9.75C9.375 17.9322 9.125 17.6814 9.125 17.3051C9.125 16.9288 9.375 16.678 9.75 16.678H32.25C32.625 16.678 32.875 16.9288 32.875 17.3051C32.875 17.6814 32.625 17.9322 32.25 17.9322Z" fill="currentColor" stroke="currentColor" stroke-width="0.25"/>
<path d="M9.75 17.932C9.625 17.932 9.5 17.932 9.4375 17.8693C9.125 17.6812 9.0625 17.3049 9.25 16.9913L11.125 13.8557C11.3125 13.5422 11.6875 13.4795 12 13.6676C12.3125 13.8557 12.375 14.232 12.1875 14.5456L10.3125 17.6812C10.1875 17.8066 9.9375 17.932 9.75 17.932Z" fill="currentColor" stroke="currentColor" stroke-width="0.25"/>
<path d="M32.2502 17.9321C32.0627 17.9321 31.8127 17.8067 31.6877 17.6185L29.8127 14.483C29.6252 14.1694 29.7502 13.7931 30.0002 13.605C30.2502 13.4169 30.6877 13.5423 30.8752 13.7931L32.7502 16.9287C32.9377 17.2423 32.8127 17.6185 32.5627 17.8067C32.5002 17.8694 32.3752 17.9321 32.2502 17.9321Z" fill="currentColor" stroke="currentColor" stroke-width="0.25"/>
<path d="M30.375 14.7965H11.625C11.25 14.7965 11 14.5456 11 14.1694C11 13.7931 11.25 13.5422 11.625 13.5422H30.375C30.75 13.5422 31 13.7931 31 14.1694C31 14.5456 30.75 14.7965 30.375 14.7965Z" fill="currentColor" stroke="currentColor" stroke-width="0.25"/>
<path d="M18.5018 17.9334C18.4393 17.9334 18.4393 17.9334 18.3768 17.9334C18.0643 17.8707 17.8143 17.5572 17.8768 17.1809L18.5018 14.0453C18.5643 13.7317 18.8768 13.4809 19.2518 13.5436C19.5643 13.6063 19.8143 13.9199 19.7518 14.2962L19.1268 17.4317C19.0643 17.7453 18.8143 17.9334 18.5018 17.9334Z" fill="currentColor" stroke="currentColor" stroke-width="0.25"/>
<path d="M23.4999 17.932C23.1874 17.932 22.9374 17.7439 22.8749 17.4303L22.2499 14.2947C22.1874 13.9811 22.3749 13.6049 22.7499 13.5422C23.0624 13.4794 23.4374 13.6676 23.4999 14.0439L24.1249 17.1794C24.1874 17.493 23.9999 17.8693 23.6249 17.932C23.5624 17.932 23.5624 17.932 23.4999 17.932Z" fill="currentColor" stroke="currentColor" stroke-width="0.25"/>
<path d="M18.5 21.6949C18.125 21.6949 17.875 21.4441 17.875 21.0678V17.3051C17.875 16.9288 18.125 16.678 18.5 16.678C18.875 16.678 19.125 16.9288 19.125 17.3051V21.0678C19.125 21.3814 18.875 21.6949 18.5 21.6949Z" fill="currentColor" stroke="currentColor" stroke-width="0.25"/>
<path d="M23.5 21.6949C23.125 21.6949 22.875 21.4441 22.875 21.0678V17.3051C22.875 16.9288 23.125 16.678 23.5 16.678C23.875 16.678 24.125 16.9288 24.125 17.3051V21.0678C24.125 21.3814 23.875 21.6949 23.5 21.6949Z" fill="currentColor" stroke="currentColor" stroke-width="0.25"/>
<path d="M23.5016 21.6951C23.4391 21.6951 23.3766 21.6951 23.3766 21.6951L20.8766 21.068C20.5641 21.0053 20.3141 20.629 20.4391 20.3155C20.5016 20.0019 20.8766 19.7511 21.1891 19.8765L23.6891 20.5036C24.0016 20.5663 24.2516 20.9426 24.1266 21.2562C24.0641 21.507 23.7516 21.6951 23.5016 21.6951Z" fill="currentColor" stroke="currentColor" stroke-width="0.25"/>
<path d="M18.5003 21.6946C18.2503 21.6946 17.9378 21.5065 17.8753 21.1929C17.8128 20.8794 18.0003 20.5031 18.3128 20.4404L20.8128 19.8133C21.1253 19.7506 21.5003 19.9387 21.5628 20.2523C21.6253 20.5658 21.4378 20.9421 21.1253 21.0048L18.6253 21.6319C18.6253 21.6946 18.5628 21.6946 18.5003 21.6946Z" fill="currentColor" stroke="currentColor" stroke-width="0.25"/>
<path d="M26.625 29.2203H15.375C15 29.2203 14.75 28.9695 14.75 28.5932C14.75 28.2169 15 27.9661 15.375 27.9661H26.625C27 27.9661 27.25 28.2169 27.25 28.5932C27.25 28.9695 27 29.2203 26.625 29.2203Z" fill="currentColor" stroke="currentColor" stroke-width="0.25"/>
<path d="M26.625 26.7118H15.375C15 26.7118 14.75 26.4609 14.75 26.0846C14.75 25.7084 15 25.4575 15.375 25.4575H26.625C27 25.4575 27.25 25.7084 27.25 26.0846C27.25 26.4609 27 26.7118 26.625 26.7118Z" fill="currentColor" stroke="currentColor" stroke-width="0.25"/>
<path d="M23.5 31.7286H18.5C18.125 31.7286 17.875 31.4778 17.875 31.1015C17.875 30.7252 18.125 30.4744 18.5 30.4744H23.5C23.875 30.4744 24.125 30.7252 24.125 31.1015C24.125 31.4778 23.875 31.7286 23.5 31.7286Z" fill="currentColor" stroke="currentColor" stroke-width="0.25"/>
</svg>
