<svg width="13" height="13" fill="none" xmlns="http://www.w3.org/2000/svg">
<path d="M12.71 5.913l-.602-.45a.745.745 0 01-.232-.861l.287-.697a.742.742 0 00-.588-1.01l-.751-.096a.726.726 0 01-.63-.628L10.1 1.42A.743.743 0 009.09.833l-.698.287A.747.747 0 017.53.888L7.065.287a.731.731 0 00-1.161 0L5.466.9a.747.747 0 01-.861.232l-.697-.3a.743.743 0 00-1.01.587l-.096.752a.726.726 0 01-.63.628l-.751.095a.742.742 0 00-.588 1.01l.287.697c.123.3.028.656-.232.86l-.6.465a.73.73 0 000 1.16l.614.451c.259.205.355.56.232.86l-.3.697c-.179.45.109.942.587 1.01l.752.096c.327.04.587.3.629.628l.095.751a.743.743 0 001.011.588l.697-.287a.747.747 0 01.862.232l.464.6a.732.732 0 001.162 0l.464-.6a.747.747 0 01.861-.232l.697.287a.743.743 0 001.012-.588l.095-.75a.726.726 0 01.629-.63l.752-.095a.742.742 0 00.588-1.01l-.288-.697a.746.746 0 01.232-.86l.602-.464c.355-.287.355-.86-.028-1.161zm-3.84-.15L6.394 8.235a.702.702 0 01-.505.204.702.702 0 01-.506-.204L4.14 6.992a.709.709 0 010-.997.71.71 0 01.998 0l.738.737 1.996-1.966a.71.71 0 01.997 0 .709.709 0 010 .997z" fill="#fff" fill-opacity=".6"/>
</svg>