<svg width="24px" height="24px" viewBox="0 0 24 24" version="1.1" xmlns="http://www.w3.org/2000/svg" xmlns:xlink="http://www.w3.org/1999/xlink">
  <path d="M12.0001,0.4 C18.3981602,0.4 23.6001,5.60199853 23.6001,12.0001 C23.6001,18.3981708 18.3981708,23.6001 12.0001,23.6001 C5.60199853,23.6001 0.4,18.3981602 0.4,12.0001 C0.4,5.60200915 5.60200915,0.4 12.0001,0.4 Z M12.0001,2.2665 C6.63124085,2.2665 2.2665,6.63124085 2.2665,12.0001 C2.2665,17.3689189 6.63123064,21.7336 12.0001,21.7336 C17.3689292,21.7336 21.7336,17.3689292 21.7336,12.0001 C21.7336,6.63123064 17.3689189,2.2665 12.0001,2.2665 Z M12.0003,5.58398 C15.5411093,5.58398 18.4167,8.45953216 18.4167,12.0003 C18.4167,15.5411136 15.5411136,18.4167 12.0003,18.4167 C8.45953216,18.4167 5.58398,15.5411093 5.58398,12.0003 C5.58398,8.45953644 8.45953644,5.58398 12.0003,5.58398 Z M12.0003,7.75049 C9.65446356,7.75049 7.75049,9.65446356 7.75049,12.0003 C7.75049,14.3461893 9.65446647,16.2502 12.0003,16.2502 C14.3461864,16.2502 16.2502,14.3461864 16.2502,12.0003 C16.2502,9.65446647 14.3461893,7.75049 12.0003,7.75049 Z" fill="currentColor"></path>
</svg>
