<svg width="54" height="34" viewBox="0 0 54 34" fill="none" xmlns="http://www.w3.org/2000/svg">
<mask id="path-1-outside-1" maskUnits="userSpaceOnUse" x="-0.207031" y="0.0625" width="54" height="34" fill="black">
<rect fill="white" x="-0.207031" y="0.0625" width="54" height="34"/>
<path d="M53.2937 18.746C52.9808 13.5026 41.9555 1.70726 41.4815 1.20473L41.3393 1.0625H8.95532C4.45228 1.0625 0.792969 4.72247 0.792969 9.22632V18.7745C0.792969 23.0034 3.98776 26.4927 8.14951 26.9004C8.14951 26.9383 8.15899 26.9857 8.15899 27.0236C8.15899 27.0711 8.16847 27.1185 8.16847 27.1659C8.17795 27.2228 8.17795 27.2797 8.18743 27.3365C8.19691 27.384 8.19691 27.4314 8.20639 27.4788C8.21587 27.5357 8.22535 27.5926 8.23483 27.6494C8.24431 27.6969 8.25379 27.7443 8.26327 27.7917C8.27275 27.8486 8.29171 27.9055 8.30119 27.9623C8.31067 28.0098 8.32015 28.0572 8.32963 28.0951C8.34859 28.152 8.35807 28.2089 8.37703 28.2658C8.38651 28.3132 8.40547 28.3511 8.41495 28.3985C8.43391 28.4554 8.45287 28.5123 8.47183 28.5692C8.48131 28.6071 8.50027 28.6545 8.50975 28.6924C8.52871 28.7588 8.55715 28.8157 8.58559 28.8821C8.59507 28.9105 8.61403 28.9485 8.62351 28.9769C8.66144 29.0717 8.70884 29.157 8.74676 29.2519C8.76572 29.2898 8.78468 29.3182 8.80364 29.3562C8.83208 29.4131 8.86052 29.4699 8.88896 29.5174C8.90792 29.5553 8.93636 29.5932 8.95532 29.6311C8.98376 29.6785 9.0122 29.726 9.04064 29.7734C9.06908 29.8113 9.08804 29.8492 9.11648 29.8966C9.14492 29.944 9.17336 29.9914 9.2018 30.0294C9.23024 30.0673 9.25868 30.1052 9.28712 30.1432C9.31556 30.1906 9.344 30.2285 9.38192 30.2664C9.41036 30.3043 9.4388 30.3423 9.46724 30.3802C9.49568 30.4181 9.5336 30.4655 9.56204 30.5035C9.59048 30.5414 9.6284 30.5793 9.65684 30.6172C9.69476 30.6552 9.7232 30.6931 9.76112 30.731C9.78956 30.769 9.82749 30.8069 9.86541 30.8353C9.90333 30.8733 9.93177 30.9112 9.96969 30.9491C10.0076 30.987 10.036 31.0155 10.074 31.0534C10.1119 31.0913 10.1498 31.1198 10.1877 31.1577C10.2256 31.1956 10.2636 31.2241 10.3015 31.2525C10.3394 31.2905 10.3773 31.3189 10.4152 31.3568C10.4532 31.3853 10.4911 31.4232 10.529 31.4516C10.5669 31.4801 10.6049 31.518 10.6523 31.5465C10.6902 31.5749 10.7281 31.6034 10.766 31.6318C10.8039 31.6602 10.8513 31.6887 10.8893 31.7171C10.9272 31.7456 10.9746 31.774 11.0125 31.8025C11.0599 31.8309 11.0978 31.8594 11.1452 31.8878C11.1831 31.9163 11.2305 31.9352 11.2685 31.9637C11.3159 31.9921 11.3538 32.0206 11.4012 32.0395C11.4391 32.068 11.4865 32.0869 11.5339 32.1059C11.5813 32.1343 11.6287 32.1533 11.6761 32.1817C11.7235 32.2007 11.7614 32.2292 11.8088 32.2481C11.8562 32.2671 11.9036 32.2955 11.951 32.3145C11.9984 32.3335 12.0363 32.3524 12.0837 32.3714C12.1311 32.3903 12.188 32.4093 12.2354 32.4283C12.2828 32.4472 12.3207 32.4662 12.3681 32.4757C12.4155 32.4946 12.4724 32.5136 12.5198 32.5326C12.5672 32.5515 12.6146 32.561 12.6525 32.58C12.7094 32.5989 12.7568 32.6084 12.8137 32.6274C12.8611 32.6369 12.9085 32.6558 12.9464 32.6653C13.0033 32.6748 13.0602 32.6938 13.1171 32.7032C13.1645 32.7127 13.2119 32.7222 13.2498 32.7317C13.3067 32.7412 13.3636 32.7506 13.4204 32.7601C13.4678 32.7696 13.5058 32.7791 13.5532 32.7791C13.6195 32.7886 13.6764 32.7981 13.7428 32.8075C13.7807 32.817 13.8281 32.817 13.866 32.8265C13.9324 32.836 14.0082 32.836 14.0746 32.8455C14.1125 32.8455 14.1504 32.8549 14.1788 32.8549C14.2831 32.8644 14.3969 32.8644 14.5012 32.8644C14.6054 32.8644 14.7192 32.8644 14.8235 32.8549C14.8614 32.8549 14.8898 32.8455 14.9278 32.8455C14.9941 32.8455 15.07 32.836 15.1363 32.8265C15.1743 32.8265 15.2217 32.817 15.2596 32.8075C15.3259 32.7981 15.3828 32.7886 15.4492 32.7791C15.4966 32.7696 15.5345 32.7601 15.5819 32.7601C15.6388 32.7506 15.6957 32.7412 15.762 32.7317C15.8094 32.7222 15.8473 32.7127 15.8947 32.7032C15.9516 32.6938 16.0085 32.6748 16.0654 32.6653C16.1128 32.6558 16.1507 32.6369 16.1981 32.6274C16.255 32.6084 16.3024 32.5989 16.3593 32.58C16.4067 32.5705 16.4446 32.5515 16.492 32.5326C16.5489 32.5136 16.5963 32.4946 16.6531 32.4757C16.7005 32.4567 16.7385 32.4472 16.7859 32.4283C16.8333 32.4093 16.8901 32.3903 16.9375 32.3714C16.9849 32.3524 17.0229 32.3335 17.0703 32.3145C17.1177 32.2955 17.1651 32.2671 17.2219 32.2481C17.2693 32.2292 17.3073 32.2102 17.3452 32.1817C17.3926 32.1533 17.44 32.1343 17.4874 32.1059C17.5253 32.0869 17.5727 32.0585 17.6106 32.0395C17.658 32.0111 17.7054 31.9826 17.7528 31.9542C17.7908 31.9257 17.8287 31.9068 17.8761 31.8783C17.9235 31.8499 17.9709 31.8214 18.0088 31.793C18.0467 31.7645 18.0846 31.7456 18.1226 31.7171C18.17 31.6887 18.2079 31.6508 18.2553 31.6223C18.2932 31.5939 18.3311 31.5654 18.369 31.537C18.4164 31.5085 18.4544 31.4706 18.4923 31.4327C18.5302 31.4042 18.5681 31.3758 18.5966 31.3473C18.6345 31.3094 18.6819 31.281 18.7198 31.243C18.7577 31.2146 18.7862 31.1862 18.8241 31.1482C18.862 31.1103 18.8999 31.0724 18.9378 31.0344C18.9663 31.006 19.0042 30.9681 19.0326 30.9396C19.0706 30.9017 19.1085 30.8638 19.1464 30.8164C19.1748 30.7879 19.2128 30.75 19.2412 30.7215C19.2791 30.6836 19.317 30.6362 19.355 30.5888C19.3834 30.5509 19.4118 30.5224 19.4403 30.4845C19.4782 30.4371 19.5161 30.3897 19.5446 30.3423C19.573 30.3138 19.592 30.2759 19.6204 30.2475C19.6583 30.2 19.6962 30.1432 19.7342 30.0957C19.7531 30.0673 19.7816 30.0389 19.8005 30.0009C19.8384 29.9346 19.8859 29.8777 19.9238 29.8113C19.9333 29.7923 19.9522 29.7734 19.9617 29.7544C20.0091 29.6691 20.066 29.5837 20.1134 29.4889C20.1323 29.4605 20.1418 29.432 20.1513 29.4131C20.1797 29.3467 20.2177 29.2898 20.2461 29.2234C20.2651 29.1855 20.2745 29.1476 20.2935 29.1191C20.3219 29.0622 20.3409 29.0053 20.3693 28.9485C20.3883 28.9105 20.3978 28.8726 20.4167 28.8252C20.4357 28.7683 20.4641 28.7209 20.4831 28.664C20.5021 28.6261 20.5115 28.5787 20.5305 28.5313C20.5495 28.4744 20.5684 28.427 20.5874 28.3701C20.5969 28.3227 20.6158 28.2847 20.6253 28.2373C20.6443 28.1804 20.6537 28.133 20.6727 28.0761C20.6822 28.0287 20.6917 27.9813 20.7106 27.9339C20.7201 27.877 20.7391 27.8296 20.7485 27.7727C20.758 27.7253 20.7675 27.6779 20.777 27.6305C20.7865 27.5736 20.7959 27.5167 20.8054 27.4693C20.8149 27.4219 20.8244 27.3745 20.8244 27.3271C20.8339 27.2702 20.8433 27.2133 20.8433 27.1564C20.8528 27.109 20.8528 27.0616 20.8623 27.0047C20.8623 26.9762 20.8718 26.9383 20.8718 26.9099H32.7788C32.7788 26.9478 32.7882 26.9762 32.7882 27.0047C32.7882 27.0521 32.7977 27.0995 32.7977 27.1469C32.8072 27.2038 32.8072 27.2607 32.8167 27.3176C32.8262 27.365 32.8262 27.4124 32.8356 27.4598C32.8451 27.5167 32.8546 27.5736 32.8641 27.6305C32.8736 27.6779 32.883 27.7253 32.8925 27.7727C32.902 27.8296 32.921 27.8865 32.9304 27.9434C32.9399 27.9908 32.9494 28.0382 32.9684 28.0761C32.9873 28.133 32.9968 28.1899 33.0158 28.2373C33.0252 28.2847 33.0442 28.3227 33.0537 28.3701C33.0726 28.427 33.0916 28.4838 33.1106 28.5313C33.1295 28.5692 33.139 28.6166 33.158 28.6545C33.1769 28.7114 33.2054 28.7683 33.2243 28.8252C33.2433 28.8631 33.2528 28.901 33.2717 28.939C33.3002 28.9959 33.3191 29.0527 33.3476 29.1096C33.3665 29.1476 33.376 29.176 33.395 29.2139C33.4234 29.2803 33.4613 29.3467 33.4992 29.4131C33.5087 29.4415 33.5277 29.4605 33.5372 29.4889C33.5846 29.5742 33.632 29.6691 33.6888 29.7544C33.6983 29.7734 33.7078 29.7923 33.7268 29.8113C33.7647 29.8777 33.8121 29.944 33.8595 30.0104C33.8784 30.0389 33.8974 30.0673 33.9258 30.0957C33.9638 30.1526 34.0017 30.2 34.0396 30.2569C34.0681 30.2854 34.087 30.3233 34.1155 30.3518C34.1534 30.3992 34.1913 30.4466 34.2292 30.494C34.2577 30.5319 34.2861 30.5604 34.3145 30.5888C34.3525 30.6362 34.3904 30.6741 34.4283 30.7215C34.4567 30.75 34.4852 30.7879 34.5231 30.8164C34.561 30.8543 34.5989 30.9017 34.6369 30.9396C34.6653 30.9681 34.7032 31.006 34.7317 31.0344C34.7696 31.0724 34.8075 31.1103 34.8549 31.1482C34.8928 31.1767 34.9213 31.2051 34.9592 31.243C34.9971 31.281 35.0445 31.3189 35.0824 31.3473C35.1203 31.3758 35.1488 31.4042 35.1867 31.4327C35.2246 31.4706 35.272 31.4991 35.3194 31.537C35.3573 31.5654 35.3953 31.5939 35.4332 31.6223C35.4806 31.6508 35.5185 31.6887 35.5659 31.7171C35.6038 31.7456 35.6417 31.7645 35.6797 31.793C35.7271 31.8214 35.7745 31.8499 35.8124 31.8783C35.8503 31.9068 35.8882 31.9257 35.9356 31.9542C35.983 31.9826 36.0304 32.0111 36.0778 32.0395C36.1157 32.0585 36.1631 32.0869 36.2011 32.1059C36.2485 32.1343 36.2959 32.1533 36.3433 32.1817C36.3812 32.2007 36.4286 32.2197 36.4665 32.2386C36.5139 32.2576 36.5613 32.286 36.6182 32.305C36.6656 32.324 36.7035 32.3429 36.7509 32.3619C36.7983 32.3809 36.8552 32.3998 36.9026 32.4188C36.95 32.4378 36.9879 32.4567 37.0353 32.4662C37.0922 32.4852 37.1396 32.5041 37.1965 32.5231C37.2439 32.542 37.2818 32.5515 37.3292 32.5705C37.3861 32.5895 37.4335 32.5989 37.4904 32.6179C37.5378 32.6274 37.5757 32.6464 37.6231 32.6558C37.68 32.6653 37.7368 32.6843 37.7937 32.6938C37.8411 32.7032 37.879 32.7127 37.9264 32.7222C37.9833 32.7317 38.0402 32.7412 38.1066 32.7507C38.154 32.7601 38.1919 32.7696 38.2393 32.7696C38.3056 32.7791 38.3625 32.7886 38.4289 32.7981C38.4668 32.8075 38.5142 32.8075 38.5521 32.817C38.6185 32.8265 38.6943 32.8265 38.7607 32.836C38.7986 32.836 38.827 32.8455 38.865 32.8455C38.9692 32.8549 39.083 32.8549 39.1873 32.8549C39.2916 32.8549 39.4053 32.8549 39.5096 32.8455C39.5475 32.8455 39.576 32.836 39.6139 32.836C39.6803 32.836 39.7561 32.8265 39.8225 32.817C39.8604 32.817 39.9078 32.8075 39.9457 32.7981C40.0121 32.7886 40.0689 32.7791 40.1353 32.7696C40.1827 32.7601 40.2206 32.7507 40.268 32.7507C40.3249 32.7412 40.3913 32.7317 40.4481 32.7222C40.4955 32.7127 40.5335 32.7032 40.5809 32.6938C40.6377 32.6843 40.6946 32.6653 40.7515 32.6558C40.7989 32.6464 40.8368 32.6274 40.8842 32.6179C40.9411 32.5989 40.998 32.5895 41.0454 32.5705C41.0928 32.561 41.1307 32.542 41.1781 32.5326C41.235 32.5136 41.2824 32.4946 41.3393 32.4757C41.3867 32.4567 41.4246 32.4472 41.472 32.4283C41.5289 32.4093 41.5763 32.3903 41.6332 32.3619C41.6711 32.3429 41.7185 32.324 41.7564 32.305C41.8038 32.286 41.8607 32.2576 41.9081 32.2386C41.946 32.2197 41.9934 32.2007 42.0313 32.1817C42.0787 32.1533 42.1356 32.1343 42.183 32.1059C42.2209 32.0869 42.2588 32.0585 42.3062 32.0395C42.3536 32.0111 42.401 31.9826 42.4484 31.9542C42.4864 31.9352 42.5243 31.9068 42.5622 31.8878C42.6096 31.8594 42.657 31.8309 42.7044 31.793C42.7423 31.7645 42.7802 31.7456 42.8182 31.7171C42.8656 31.6887 42.913 31.6508 42.9604 31.6223C42.9983 31.5939 43.0267 31.5749 43.0646 31.5465C43.112 31.5085 43.15 31.4801 43.1974 31.4422C43.2353 31.4137 43.2637 31.3853 43.3016 31.3568C43.349 31.3189 43.387 31.281 43.4344 31.243C43.4628 31.2146 43.5007 31.1862 43.5292 31.1577C43.5766 31.1198 43.6145 31.0819 43.6524 31.0344C43.6809 31.006 43.7093 30.9776 43.7377 30.9491C43.7757 30.9112 43.8231 30.8638 43.861 30.8164C43.8894 30.7879 43.9179 30.7595 43.9463 30.731C43.9842 30.6836 44.0221 30.6362 44.0695 30.5888C44.098 30.5604 44.1169 30.5319 44.1454 30.5035C44.1833 30.4561 44.2212 30.3992 44.2686 30.3518C44.2876 30.3233 44.316 30.2949 44.335 30.2664C44.3729 30.2095 44.4108 30.1526 44.4582 30.0957C44.4772 30.0673 44.4961 30.0483 44.5151 30.0199C44.5625 29.9535 44.6004 29.8871 44.6478 29.8208C44.6573 29.8018 44.6668 29.7828 44.6763 29.7734C44.7805 29.6027 44.8753 29.4225 44.9701 29.2424C44.9796 29.2234 44.9891 29.195 44.9986 29.176C45.027 29.1096 45.0649 29.0338 45.0934 28.9674C45.1029 28.939 45.1218 28.901 45.1313 28.8726C45.1597 28.8157 45.1787 28.7493 45.2071 28.683C45.2166 28.645 45.2356 28.6071 45.2451 28.5692C45.264 28.5123 45.283 28.4554 45.3019 28.389C45.3114 28.3511 45.3304 28.3037 45.3399 28.2658C45.3588 28.2089 45.3778 28.152 45.3873 28.0951C45.3967 28.0477 45.4062 28.0098 45.4157 27.9623C45.4252 27.9055 45.4441 27.8486 45.4536 27.7917C45.4631 27.7443 45.4726 27.6969 45.4821 27.6494C45.4915 27.5926 45.501 27.5357 45.5105 27.4788C45.52 27.4314 45.52 27.384 45.5295 27.3365C45.5389 27.2797 45.5484 27.2228 45.5484 27.1659C45.5579 27.1185 45.5579 27.0711 45.5579 27.0142C45.5579 26.9762 45.5674 26.9478 45.5674 26.9099C49.8713 26.6823 53.3031 23.1171 53.3031 18.7555L53.2937 18.746ZM50.2885 13.8724H38.9503V2.01068H40.9316C41.8702 3.02523 47.2643 8.93239 50.2885 13.8724ZM44.6289 26.4832C44.6289 26.5306 44.6289 26.5875 44.6289 26.6349C44.6289 26.6823 44.6289 26.7202 44.6289 26.7676C44.6289 26.815 44.6194 26.8719 44.6194 26.9193C44.6194 26.9573 44.6099 27.0047 44.6099 27.0426C44.6004 27.0995 44.6004 27.1469 44.5909 27.2038C44.5815 27.2417 44.5815 27.2797 44.572 27.3176C44.5625 27.3745 44.553 27.4219 44.5435 27.4788C44.5341 27.5167 44.5341 27.5451 44.5246 27.5831C44.5151 27.64 44.4961 27.6969 44.4867 27.7443C44.4772 27.7727 44.4677 27.8106 44.4677 27.8391C44.4487 27.896 44.4393 27.9529 44.4203 28.0098C44.4108 28.0382 44.4013 28.0666 44.3919 28.1046C44.3729 28.1615 44.3539 28.2184 44.335 28.2752C44.3255 28.3037 44.316 28.3321 44.3065 28.3606C44.2876 28.4175 44.2591 28.4744 44.2402 28.5313C44.2307 28.5597 44.2212 28.5787 44.2117 28.6071C44.1833 28.664 44.1643 28.7209 44.1359 28.7778C44.1264 28.7967 44.1169 28.8252 44.1075 28.8442C44.079 28.901 44.0506 28.9579 44.0221 29.0148C44.0127 29.0338 44.0032 29.0622 43.9842 29.0812C43.9558 29.1381 43.9179 29.195 43.8894 29.2519C43.8799 29.2708 43.8705 29.2898 43.8515 29.3088C43.8136 29.3656 43.7851 29.4225 43.7472 29.4794C43.7377 29.4984 43.7283 29.5174 43.7093 29.5363C43.6714 29.5932 43.6334 29.6406 43.5955 29.6975C43.586 29.7165 43.5671 29.7354 43.5576 29.7449C43.5197 29.8018 43.4723 29.8492 43.4344 29.9061C43.4249 29.9251 43.4059 29.9346 43.3964 29.9535C43.349 30.0009 43.3111 30.0578 43.2637 30.1052C43.2542 30.1242 43.2353 30.1337 43.2258 30.1526C43.1784 30.2 43.131 30.2475 43.0836 30.3043C43.0741 30.3138 43.0552 30.3328 43.0457 30.3423C42.9983 30.3897 42.9509 30.4371 42.894 30.4845C42.8845 30.494 42.8656 30.5129 42.8561 30.5224C42.8087 30.5698 42.7518 30.6172 42.6949 30.6552C42.6854 30.6647 42.6665 30.6836 42.657 30.6931C42.6001 30.7405 42.5527 30.7784 42.4958 30.8164C42.4769 30.8258 42.4674 30.8448 42.4484 30.8543C42.3916 30.8922 42.3442 30.9301 42.2873 30.9681C42.2683 30.9776 42.2588 30.9965 42.2399 31.006C42.183 31.0439 42.1261 31.0819 42.0692 31.1103C42.0503 31.1198 42.0313 31.1293 42.0218 31.1482C41.965 31.1862 41.9081 31.2146 41.8512 31.2525C41.8322 31.262 41.8133 31.2715 41.7943 31.281C41.7374 31.3094 41.6806 31.3379 41.6237 31.3663C41.6047 31.3758 41.5858 31.3853 41.5573 31.3948C41.5004 31.4232 41.4436 31.4516 41.3867 31.4706C41.3677 31.4801 41.3393 31.4896 41.3203 31.4991C41.2634 31.5275 41.2066 31.5465 41.1497 31.5654C41.1212 31.5749 41.1023 31.5844 41.0738 31.5939C41.0169 31.6128 40.9601 31.6318 40.9032 31.6508C40.8747 31.6602 40.8558 31.6697 40.8273 31.6792C40.7705 31.6982 40.7136 31.7171 40.6567 31.7266C40.6283 31.7361 40.5998 31.7456 40.5714 31.7551C40.5145 31.774 40.4576 31.7835 40.3913 31.793C40.3628 31.8025 40.3344 31.8025 40.3059 31.812C40.2396 31.8214 40.1827 31.8309 40.1163 31.8499C40.0879 31.8499 40.0689 31.8594 40.0405 31.8594C39.9741 31.8688 39.9173 31.8783 39.8509 31.8878C39.8225 31.8878 39.794 31.8973 39.7656 31.8973C39.6992 31.9068 39.6329 31.9068 39.5665 31.9163C39.5381 31.9163 39.5191 31.9163 39.4907 31.9257C39.3959 31.9257 39.3011 31.9352 39.2157 31.9352C39.1304 31.9352 39.0261 31.9352 38.9408 31.9257C38.9124 31.9257 38.8934 31.9257 38.865 31.9163C38.7986 31.9163 38.7323 31.9068 38.6659 31.8973C38.628 31.8973 38.5995 31.8878 38.5616 31.8878C38.5047 31.8783 38.4478 31.8783 38.391 31.8688C38.353 31.8594 38.3246 31.8594 38.2962 31.8499C38.2393 31.8404 38.1824 31.8309 38.1255 31.8214C38.0876 31.812 38.0497 31.8025 38.0212 31.793C37.9738 31.7835 37.917 31.774 37.8696 31.7551C37.8316 31.7456 37.8032 31.7361 37.7653 31.7266C37.7179 31.7077 37.661 31.6982 37.6136 31.6792C37.5852 31.6697 37.5472 31.6602 37.5188 31.6508C37.4619 31.6318 37.4145 31.6128 37.3576 31.5939C37.3292 31.5844 37.2913 31.5654 37.2628 31.5559C37.2154 31.537 37.1586 31.518 37.1112 31.4991C37.0827 31.4896 37.0543 31.4706 37.0258 31.4611C36.9784 31.4422 36.9216 31.4137 36.8742 31.3948C36.8457 31.3853 36.8173 31.3663 36.7888 31.3473C36.7414 31.3189 36.6846 31.2999 36.6372 31.2715C36.6087 31.262 36.5897 31.243 36.5613 31.2241C36.5139 31.1956 36.457 31.1672 36.4096 31.1387C36.3812 31.1198 36.3622 31.1103 36.3338 31.0913C36.2864 31.0629 36.239 31.0344 36.1916 30.9965C36.1631 30.9776 36.1442 30.9586 36.1157 30.9491C36.0683 30.9112 36.0209 30.8827 35.9735 30.8448C35.9546 30.8258 35.9261 30.8069 35.9072 30.7879C35.8598 30.75 35.8124 30.7121 35.765 30.6836C35.746 30.6647 35.7271 30.6457 35.7081 30.6267C35.6607 30.5888 35.6133 30.5509 35.5754 30.5129C35.5564 30.494 35.5375 30.475 35.5185 30.4561C35.4711 30.4181 35.4332 30.3707 35.3858 30.3328C35.3668 30.3138 35.3479 30.2949 35.3289 30.2759C35.291 30.2285 35.2436 30.1906 35.2057 30.1432C35.1867 30.1242 35.1677 30.1052 35.1583 30.0863C35.1203 30.0389 35.0729 29.9914 35.035 29.944C35.0161 29.9251 34.9971 29.8966 34.9876 29.8777C34.9497 29.8303 34.9118 29.7828 34.8739 29.7354C34.8549 29.7165 34.8359 29.688 34.8265 29.6691C34.7885 29.6217 34.7601 29.5742 34.7222 29.5268C34.7032 29.4984 34.6937 29.4794 34.6748 29.451C34.6463 29.4036 34.6084 29.3562 34.58 29.3088C34.561 29.2803 34.5515 29.2614 34.5326 29.2329C34.5041 29.1855 34.4757 29.1381 34.4473 29.0812C34.4378 29.0527 34.4188 29.0243 34.4093 29.0053C34.3809 28.9579 34.3525 28.901 34.3335 28.8536C34.324 28.8252 34.305 28.7967 34.2956 28.7683C34.2671 28.7114 34.2482 28.664 34.2197 28.6071C34.2103 28.5787 34.2008 28.5502 34.1818 28.5218C34.1629 28.4649 34.1344 28.4175 34.1155 28.3606C34.106 28.3321 34.0965 28.2942 34.087 28.2658C34.0681 28.2089 34.0491 28.1615 34.0301 28.1046C34.0206 28.0761 34.0112 28.0382 34.0017 28.0003C33.9827 27.9434 33.9732 27.896 33.9543 27.8391C33.9448 27.8012 33.9353 27.7727 33.9258 27.7348C33.9164 27.6779 33.8974 27.6305 33.8879 27.5736C33.8784 27.5357 33.8784 27.4977 33.869 27.4598C33.8595 27.4124 33.85 27.3555 33.8405 27.3081C33.831 27.2702 33.831 27.2322 33.8216 27.1943C33.8121 27.1469 33.8026 27.09 33.8026 27.0426C33.8026 27.0047 33.7931 26.9573 33.7931 26.9193C33.7931 26.8719 33.7836 26.815 33.7836 26.7676C33.7836 26.7202 33.7836 26.6823 33.7836 26.6349C33.7836 26.5875 33.7836 26.5306 33.7836 26.4832C33.7836 23.4775 36.2295 21.0406 39.2252 21.0406C42.2209 21.0406 44.6668 23.4775 44.6668 26.4737L44.6289 26.4832ZM32.8072 25.9996H20.9761V14.8206H38.0023V20.1873C35.1962 20.7183 33.0252 23.0887 32.8072 25.9996ZM19.9617 26.6254C19.9617 26.6728 19.9617 26.7107 19.9617 26.7582C19.9617 26.8056 19.9522 26.853 19.9522 26.9004C19.9522 26.9478 19.9427 26.9857 19.9427 27.0331C19.9333 27.0805 19.9333 27.1279 19.9238 27.1754C19.9143 27.2228 19.9143 27.2607 19.9048 27.3081C19.8953 27.3555 19.8859 27.3934 19.8764 27.4408C19.8669 27.4883 19.8574 27.5262 19.8479 27.5736C19.8384 27.621 19.829 27.6589 19.8195 27.7063C19.81 27.7537 19.8005 27.7917 19.791 27.8391C19.7816 27.8865 19.7626 27.9244 19.7531 27.9718C19.7436 28.0098 19.7342 28.0572 19.7152 28.0951C19.7057 28.1425 19.6868 28.1804 19.6678 28.2278C19.6583 28.2658 19.6394 28.3132 19.6299 28.3511C19.6109 28.389 19.6014 28.4364 19.5825 28.4744C19.5635 28.5123 19.554 28.5597 19.5351 28.5976C19.5161 28.6356 19.4972 28.683 19.4782 28.7209C19.4592 28.7588 19.4403 28.7967 19.4213 28.8442C19.4024 28.8821 19.3834 28.92 19.3644 28.9674C19.3455 29.0053 19.3265 29.0433 19.3076 29.0812C19.2886 29.1191 19.2602 29.157 19.2412 29.2045C19.2222 29.2424 19.2033 29.2803 19.1748 29.3088C19.1464 29.3467 19.1274 29.3846 19.099 29.432C19.08 29.4699 19.0516 29.4984 19.0326 29.5363C19.0042 29.5742 18.9758 29.6122 18.9568 29.6501C18.9284 29.688 18.9094 29.7165 18.881 29.7544C18.8525 29.7923 18.8241 29.8303 18.7956 29.8587C18.7672 29.8871 18.7482 29.9251 18.7198 29.9535C18.6914 29.9914 18.6629 30.0199 18.625 30.0578C18.5966 30.0863 18.5681 30.1242 18.5492 30.1526C18.5207 30.1906 18.4828 30.219 18.4544 30.2569C18.4259 30.2854 18.3975 30.3138 18.369 30.3423C18.3311 30.3802 18.3027 30.4086 18.2648 30.4371C18.2363 30.4655 18.2079 30.494 18.1794 30.5224C18.1415 30.5509 18.1036 30.5888 18.0657 30.6172C18.0372 30.6457 18.0088 30.6647 17.9804 30.6931C17.9424 30.7215 17.9045 30.7595 17.8571 30.7879C17.8287 30.8069 17.8002 30.8353 17.7718 30.8543C17.7339 30.8827 17.696 30.9112 17.6486 30.9396C17.6201 30.9586 17.5917 30.987 17.5538 31.006C17.5158 31.0344 17.4779 31.0534 17.4305 31.0819C17.3926 31.1008 17.3641 31.1293 17.3262 31.1482C17.2883 31.1767 17.2409 31.1956 17.1935 31.2241C17.1651 31.243 17.1271 31.262 17.0987 31.281C17.0513 31.3094 17.0039 31.3284 16.9565 31.3473C16.9281 31.3663 16.8901 31.3853 16.8617 31.3948C16.8143 31.4137 16.7669 31.4422 16.7195 31.4611C16.6911 31.4706 16.6531 31.4896 16.6247 31.5085C16.5773 31.5275 16.5299 31.5465 16.4825 31.5654C16.4446 31.5749 16.4161 31.5939 16.3782 31.6034C16.3308 31.6223 16.2834 31.6413 16.2265 31.6508C16.1886 31.6602 16.1602 31.6792 16.1223 31.6887C16.0749 31.7077 16.018 31.7171 15.9706 31.7361C15.9327 31.7456 15.9042 31.7551 15.8663 31.7645C15.8094 31.774 15.762 31.793 15.7051 31.8025C15.6672 31.812 15.6388 31.8214 15.6009 31.8309C15.544 31.8404 15.4966 31.8499 15.4397 31.8594C15.4018 31.8688 15.3733 31.8688 15.3354 31.8783C15.288 31.8878 15.2406 31.8878 15.1932 31.8973C15.1553 31.9068 15.1079 31.9068 15.07 31.9163C15.0131 31.9257 14.9657 31.9257 14.9088 31.9257C14.8709 31.9257 14.833 31.9352 14.795 31.9352C14.7002 31.9352 14.6054 31.9447 14.5106 31.9447C14.4158 31.9447 14.321 31.9447 14.2262 31.9352C14.1978 31.9352 14.1788 31.9352 14.1504 31.9257C14.084 31.9257 14.0177 31.9163 13.9513 31.9068C13.9039 31.9068 13.866 31.8973 13.8186 31.8878C13.7712 31.8783 13.7238 31.8783 13.6764 31.8688C13.629 31.8594 13.5816 31.8499 13.5247 31.8404C13.4868 31.8309 13.4489 31.8309 13.4015 31.8214C13.3351 31.812 13.2688 31.793 13.2024 31.774C13.1834 31.7645 13.1645 31.7645 13.1455 31.7645C13.0792 31.7456 13.0128 31.7266 12.9464 31.7077C12.9275 31.6982 12.9085 31.6982 12.8896 31.6887C12.8137 31.6602 12.7284 31.6413 12.6525 31.6128C12.6431 31.6128 12.6431 31.6128 12.6336 31.6034C12.5577 31.5749 12.4819 31.5465 12.4061 31.518C12.3966 31.518 12.3871 31.5085 12.3871 31.5085C12.3113 31.4706 12.2259 31.4422 12.1501 31.4042C12.0743 31.3663 11.9984 31.3284 11.9226 31.2905H11.9131C11.0694 30.8258 10.3584 30.1526 9.85593 29.3277C9.80853 29.2614 9.77061 29.1855 9.73268 29.1096L9.7232 29.1002C9.68528 29.0338 9.64736 28.9579 9.61892 28.8916C9.61892 28.8821 9.60944 28.8726 9.60944 28.8631C9.581 28.7967 9.54308 28.7304 9.51464 28.6545C9.50516 28.645 9.50516 28.6356 9.49568 28.6166C9.46724 28.5502 9.4388 28.4838 9.41984 28.4175C9.41036 28.3985 9.41036 28.389 9.40088 28.3701C9.38192 28.3037 9.35348 28.2373 9.33452 28.1804C9.32504 28.1615 9.32504 28.1425 9.31556 28.1235C9.2966 28.0572 9.27764 28.0003 9.25868 27.9339C9.2492 27.9149 9.2492 27.8865 9.23972 27.8675C9.22076 27.8106 9.21128 27.7537 9.2018 27.6874C9.19232 27.6589 9.19232 27.6305 9.18284 27.602C9.17336 27.5451 9.16388 27.4883 9.1544 27.4314C9.14492 27.3934 9.14492 27.365 9.13544 27.3271C9.12596 27.2797 9.12596 27.2228 9.11648 27.1754C9.107 27.1374 9.107 27.0995 9.09752 27.0616C9.08804 27.0142 9.08804 26.9668 9.08804 26.9099C9.08804 26.8719 9.07856 26.8245 9.07856 26.7866C9.07856 26.7392 9.07856 26.6918 9.07856 26.6444C9.07856 26.597 9.07856 26.5496 9.07856 26.5021C9.07856 23.4964 11.5244 21.0596 14.5201 21.0596C17.5158 21.0596 19.9617 23.4964 19.9617 26.5021V26.5116C19.9712 26.5306 19.9617 26.578 19.9617 26.6254ZM20.9761 13.8724V2.01068H38.0023V13.8724H20.9761ZM8.95532 2.01068H20.0186V13.8724H1.74098V9.22632C1.74098 5.25345 4.98316 2.01068 8.95532 2.01068ZM1.74098 18.7745V14.8206H20.0281V23.2214C18.9094 21.3441 16.8617 20.083 14.5296 20.083C11.1831 20.083 8.43391 22.6715 8.15899 25.9522C4.51864 25.5445 1.74098 22.4914 1.74098 18.7745ZM45.5484 25.9806C45.2925 22.681 42.5338 20.083 39.1778 20.083C39.102 20.083 39.0261 20.083 38.9408 20.0925V14.8301H50.8478C51.701 16.3471 52.2793 17.741 52.3456 18.7935C52.3362 22.6241 49.331 25.7626 45.5484 25.9806Z"/>
</mask>
<path d="M53.2937 18.746C52.9808 13.5026 41.9555 1.70726 41.4815 1.20473L41.3393 1.0625H8.95532C4.45228 1.0625 0.792969 4.72247 0.792969 9.22632V18.7745C0.792969 23.0034 3.98776 26.4927 8.14951 26.9004C8.14951 26.9383 8.15899 26.9857 8.15899 27.0236C8.15899 27.0711 8.16847 27.1185 8.16847 27.1659C8.17795 27.2228 8.17795 27.2797 8.18743 27.3365C8.19691 27.384 8.19691 27.4314 8.20639 27.4788C8.21587 27.5357 8.22535 27.5926 8.23483 27.6494C8.24431 27.6969 8.25379 27.7443 8.26327 27.7917C8.27275 27.8486 8.29171 27.9055 8.30119 27.9623C8.31067 28.0098 8.32015 28.0572 8.32963 28.0951C8.34859 28.152 8.35807 28.2089 8.37703 28.2658C8.38651 28.3132 8.40547 28.3511 8.41495 28.3985C8.43391 28.4554 8.45287 28.5123 8.47183 28.5692C8.48131 28.6071 8.50027 28.6545 8.50975 28.6924C8.52871 28.7588 8.55715 28.8157 8.58559 28.8821C8.59507 28.9105 8.61403 28.9485 8.62351 28.9769C8.66144 29.0717 8.70884 29.157 8.74676 29.2519C8.76572 29.2898 8.78468 29.3182 8.80364 29.3562C8.83208 29.4131 8.86052 29.4699 8.88896 29.5174C8.90792 29.5553 8.93636 29.5932 8.95532 29.6311C8.98376 29.6785 9.0122 29.726 9.04064 29.7734C9.06908 29.8113 9.08804 29.8492 9.11648 29.8966C9.14492 29.944 9.17336 29.9914 9.2018 30.0294C9.23024 30.0673 9.25868 30.1052 9.28712 30.1432C9.31556 30.1906 9.344 30.2285 9.38192 30.2664C9.41036 30.3043 9.4388 30.3423 9.46724 30.3802C9.49568 30.4181 9.5336 30.4655 9.56204 30.5035C9.59048 30.5414 9.6284 30.5793 9.65684 30.6172C9.69476 30.6552 9.7232 30.6931 9.76112 30.731C9.78956 30.769 9.82749 30.8069 9.86541 30.8353C9.90333 30.8733 9.93177 30.9112 9.96969 30.9491C10.0076 30.987 10.036 31.0155 10.074 31.0534C10.1119 31.0913 10.1498 31.1198 10.1877 31.1577C10.2256 31.1956 10.2636 31.2241 10.3015 31.2525C10.3394 31.2905 10.3773 31.3189 10.4152 31.3568C10.4532 31.3853 10.4911 31.4232 10.529 31.4516C10.5669 31.4801 10.6049 31.518 10.6523 31.5465C10.6902 31.5749 10.7281 31.6034 10.766 31.6318C10.8039 31.6602 10.8513 31.6887 10.8893 31.7171C10.9272 31.7456 10.9746 31.774 11.0125 31.8025C11.0599 31.8309 11.0978 31.8594 11.1452 31.8878C11.1831 31.9163 11.2305 31.9352 11.2685 31.9637C11.3159 31.9921 11.3538 32.0206 11.4012 32.0395C11.4391 32.068 11.4865 32.0869 11.5339 32.1059C11.5813 32.1343 11.6287 32.1533 11.6761 32.1817C11.7235 32.2007 11.7614 32.2292 11.8088 32.2481C11.8562 32.2671 11.9036 32.2955 11.951 32.3145C11.9984 32.3335 12.0363 32.3524 12.0837 32.3714C12.1311 32.3903 12.188 32.4093 12.2354 32.4283C12.2828 32.4472 12.3207 32.4662 12.3681 32.4757C12.4155 32.4946 12.4724 32.5136 12.5198 32.5326C12.5672 32.5515 12.6146 32.561 12.6525 32.58C12.7094 32.5989 12.7568 32.6084 12.8137 32.6274C12.8611 32.6369 12.9085 32.6558 12.9464 32.6653C13.0033 32.6748 13.0602 32.6938 13.1171 32.7032C13.1645 32.7127 13.2119 32.7222 13.2498 32.7317C13.3067 32.7412 13.3636 32.7506 13.4204 32.7601C13.4678 32.7696 13.5058 32.7791 13.5532 32.7791C13.6195 32.7886 13.6764 32.7981 13.7428 32.8075C13.7807 32.817 13.8281 32.817 13.866 32.8265C13.9324 32.836 14.0082 32.836 14.0746 32.8455C14.1125 32.8455 14.1504 32.8549 14.1788 32.8549C14.2831 32.8644 14.3969 32.8644 14.5012 32.8644C14.6054 32.8644 14.7192 32.8644 14.8235 32.8549C14.8614 32.8549 14.8898 32.8455 14.9278 32.8455C14.9941 32.8455 15.07 32.836 15.1363 32.8265C15.1743 32.8265 15.2217 32.817 15.2596 32.8075C15.3259 32.7981 15.3828 32.7886 15.4492 32.7791C15.4966 32.7696 15.5345 32.7601 15.5819 32.7601C15.6388 32.7506 15.6957 32.7412 15.762 32.7317C15.8094 32.7222 15.8473 32.7127 15.8947 32.7032C15.9516 32.6938 16.0085 32.6748 16.0654 32.6653C16.1128 32.6558 16.1507 32.6369 16.1981 32.6274C16.255 32.6084 16.3024 32.5989 16.3593 32.58C16.4067 32.5705 16.4446 32.5515 16.492 32.5326C16.5489 32.5136 16.5963 32.4946 16.6531 32.4757C16.7005 32.4567 16.7385 32.4472 16.7859 32.4283C16.8333 32.4093 16.8901 32.3903 16.9375 32.3714C16.9849 32.3524 17.0229 32.3335 17.0703 32.3145C17.1177 32.2955 17.1651 32.2671 17.2219 32.2481C17.2693 32.2292 17.3073 32.2102 17.3452 32.1817C17.3926 32.1533 17.44 32.1343 17.4874 32.1059C17.5253 32.0869 17.5727 32.0585 17.6106 32.0395C17.658 32.0111 17.7054 31.9826 17.7528 31.9542C17.7908 31.9257 17.8287 31.9068 17.8761 31.8783C17.9235 31.8499 17.9709 31.8214 18.0088 31.793C18.0467 31.7645 18.0846 31.7456 18.1226 31.7171C18.17 31.6887 18.2079 31.6508 18.2553 31.6223C18.2932 31.5939 18.3311 31.5654 18.369 31.537C18.4164 31.5085 18.4544 31.4706 18.4923 31.4327C18.5302 31.4042 18.5681 31.3758 18.5966 31.3473C18.6345 31.3094 18.6819 31.281 18.7198 31.243C18.7577 31.2146 18.7862 31.1862 18.8241 31.1482C18.862 31.1103 18.8999 31.0724 18.9378 31.0344C18.9663 31.006 19.0042 30.9681 19.0326 30.9396C19.0706 30.9017 19.1085 30.8638 19.1464 30.8164C19.1748 30.7879 19.2128 30.75 19.2412 30.7215C19.2791 30.6836 19.317 30.6362 19.355 30.5888C19.3834 30.5509 19.4118 30.5224 19.4403 30.4845C19.4782 30.4371 19.5161 30.3897 19.5446 30.3423C19.573 30.3138 19.592 30.2759 19.6204 30.2475C19.6583 30.2 19.6962 30.1432 19.7342 30.0957C19.7531 30.0673 19.7816 30.0389 19.8005 30.0009C19.8384 29.9346 19.8859 29.8777 19.9238 29.8113C19.9333 29.7923 19.9522 29.7734 19.9617 29.7544C20.0091 29.6691 20.066 29.5837 20.1134 29.4889C20.1323 29.4605 20.1418 29.432 20.1513 29.4131C20.1797 29.3467 20.2177 29.2898 20.2461 29.2234C20.2651 29.1855 20.2745 29.1476 20.2935 29.1191C20.3219 29.0622 20.3409 29.0053 20.3693 28.9485C20.3883 28.9105 20.3978 28.8726 20.4167 28.8252C20.4357 28.7683 20.4641 28.7209 20.4831 28.664C20.5021 28.6261 20.5115 28.5787 20.5305 28.5313C20.5495 28.4744 20.5684 28.427 20.5874 28.3701C20.5969 28.3227 20.6158 28.2847 20.6253 28.2373C20.6443 28.1804 20.6537 28.133 20.6727 28.0761C20.6822 28.0287 20.6917 27.9813 20.7106 27.9339C20.7201 27.877 20.7391 27.8296 20.7485 27.7727C20.758 27.7253 20.7675 27.6779 20.777 27.6305C20.7865 27.5736 20.7959 27.5167 20.8054 27.4693C20.8149 27.4219 20.8244 27.3745 20.8244 27.3271C20.8339 27.2702 20.8433 27.2133 20.8433 27.1564C20.8528 27.109 20.8528 27.0616 20.8623 27.0047C20.8623 26.9762 20.8718 26.9383 20.8718 26.9099H32.7788C32.7788 26.9478 32.7882 26.9762 32.7882 27.0047C32.7882 27.0521 32.7977 27.0995 32.7977 27.1469C32.8072 27.2038 32.8072 27.2607 32.8167 27.3176C32.8262 27.365 32.8262 27.4124 32.8356 27.4598C32.8451 27.5167 32.8546 27.5736 32.8641 27.6305C32.8736 27.6779 32.883 27.7253 32.8925 27.7727C32.902 27.8296 32.921 27.8865 32.9304 27.9434C32.9399 27.9908 32.9494 28.0382 32.9684 28.0761C32.9873 28.133 32.9968 28.1899 33.0158 28.2373C33.0252 28.2847 33.0442 28.3227 33.0537 28.3701C33.0726 28.427 33.0916 28.4838 33.1106 28.5313C33.1295 28.5692 33.139 28.6166 33.158 28.6545C33.1769 28.7114 33.2054 28.7683 33.2243 28.8252C33.2433 28.8631 33.2528 28.901 33.2717 28.939C33.3002 28.9959 33.3191 29.0527 33.3476 29.1096C33.3665 29.1476 33.376 29.176 33.395 29.2139C33.4234 29.2803 33.4613 29.3467 33.4992 29.4131C33.5087 29.4415 33.5277 29.4605 33.5372 29.4889C33.5846 29.5742 33.632 29.6691 33.6888 29.7544C33.6983 29.7734 33.7078 29.7923 33.7268 29.8113C33.7647 29.8777 33.8121 29.944 33.8595 30.0104C33.8784 30.0389 33.8974 30.0673 33.9258 30.0957C33.9638 30.1526 34.0017 30.2 34.0396 30.2569C34.0681 30.2854 34.087 30.3233 34.1155 30.3518C34.1534 30.3992 34.1913 30.4466 34.2292 30.494C34.2577 30.5319 34.2861 30.5604 34.3145 30.5888C34.3525 30.6362 34.3904 30.6741 34.4283 30.7215C34.4567 30.75 34.4852 30.7879 34.5231 30.8164C34.561 30.8543 34.5989 30.9017 34.6369 30.9396C34.6653 30.9681 34.7032 31.006 34.7317 31.0344C34.7696 31.0724 34.8075 31.1103 34.8549 31.1482C34.8928 31.1767 34.9213 31.2051 34.9592 31.243C34.9971 31.281 35.0445 31.3189 35.0824 31.3473C35.1203 31.3758 35.1488 31.4042 35.1867 31.4327C35.2246 31.4706 35.272 31.4991 35.3194 31.537C35.3573 31.5654 35.3953 31.5939 35.4332 31.6223C35.4806 31.6508 35.5185 31.6887 35.5659 31.7171C35.6038 31.7456 35.6417 31.7645 35.6797 31.793C35.7271 31.8214 35.7745 31.8499 35.8124 31.8783C35.8503 31.9068 35.8882 31.9257 35.9356 31.9542C35.983 31.9826 36.0304 32.0111 36.0778 32.0395C36.1157 32.0585 36.1631 32.0869 36.2011 32.1059C36.2485 32.1343 36.2959 32.1533 36.3433 32.1817C36.3812 32.2007 36.4286 32.2197 36.4665 32.2386C36.5139 32.2576 36.5613 32.286 36.6182 32.305C36.6656 32.324 36.7035 32.3429 36.7509 32.3619C36.7983 32.3809 36.8552 32.3998 36.9026 32.4188C36.95 32.4378 36.9879 32.4567 37.0353 32.4662C37.0922 32.4852 37.1396 32.5041 37.1965 32.5231C37.2439 32.542 37.2818 32.5515 37.3292 32.5705C37.3861 32.5895 37.4335 32.5989 37.4904 32.6179C37.5378 32.6274 37.5757 32.6464 37.6231 32.6558C37.68 32.6653 37.7368 32.6843 37.7937 32.6938C37.8411 32.7032 37.879 32.7127 37.9264 32.7222C37.9833 32.7317 38.0402 32.7412 38.1066 32.7507C38.154 32.7601 38.1919 32.7696 38.2393 32.7696C38.3056 32.7791 38.3625 32.7886 38.4289 32.7981C38.4668 32.8075 38.5142 32.8075 38.5521 32.817C38.6185 32.8265 38.6943 32.8265 38.7607 32.836C38.7986 32.836 38.827 32.8455 38.865 32.8455C38.9692 32.8549 39.083 32.8549 39.1873 32.8549C39.2916 32.8549 39.4053 32.8549 39.5096 32.8455C39.5475 32.8455 39.576 32.836 39.6139 32.836C39.6803 32.836 39.7561 32.8265 39.8225 32.817C39.8604 32.817 39.9078 32.8075 39.9457 32.7981C40.0121 32.7886 40.0689 32.7791 40.1353 32.7696C40.1827 32.7601 40.2206 32.7507 40.268 32.7507C40.3249 32.7412 40.3913 32.7317 40.4481 32.7222C40.4955 32.7127 40.5335 32.7032 40.5809 32.6938C40.6377 32.6843 40.6946 32.6653 40.7515 32.6558C40.7989 32.6464 40.8368 32.6274 40.8842 32.6179C40.9411 32.5989 40.998 32.5895 41.0454 32.5705C41.0928 32.561 41.1307 32.542 41.1781 32.5326C41.235 32.5136 41.2824 32.4946 41.3393 32.4757C41.3867 32.4567 41.4246 32.4472 41.472 32.4283C41.5289 32.4093 41.5763 32.3903 41.6332 32.3619C41.6711 32.3429 41.7185 32.324 41.7564 32.305C41.8038 32.286 41.8607 32.2576 41.9081 32.2386C41.946 32.2197 41.9934 32.2007 42.0313 32.1817C42.0787 32.1533 42.1356 32.1343 42.183 32.1059C42.2209 32.0869 42.2588 32.0585 42.3062 32.0395C42.3536 32.0111 42.401 31.9826 42.4484 31.9542C42.4864 31.9352 42.5243 31.9068 42.5622 31.8878C42.6096 31.8594 42.657 31.8309 42.7044 31.793C42.7423 31.7645 42.7802 31.7456 42.8182 31.7171C42.8656 31.6887 42.913 31.6508 42.9604 31.6223C42.9983 31.5939 43.0267 31.5749 43.0646 31.5465C43.112 31.5085 43.15 31.4801 43.1974 31.4422C43.2353 31.4137 43.2637 31.3853 43.3016 31.3568C43.349 31.3189 43.387 31.281 43.4344 31.243C43.4628 31.2146 43.5007 31.1862 43.5292 31.1577C43.5766 31.1198 43.6145 31.0819 43.6524 31.0344C43.6809 31.006 43.7093 30.9776 43.7377 30.9491C43.7757 30.9112 43.8231 30.8638 43.861 30.8164C43.8894 30.7879 43.9179 30.7595 43.9463 30.731C43.9842 30.6836 44.0221 30.6362 44.0695 30.5888C44.098 30.5604 44.1169 30.5319 44.1454 30.5035C44.1833 30.4561 44.2212 30.3992 44.2686 30.3518C44.2876 30.3233 44.316 30.2949 44.335 30.2664C44.3729 30.2095 44.4108 30.1526 44.4582 30.0957C44.4772 30.0673 44.4961 30.0483 44.5151 30.0199C44.5625 29.9535 44.6004 29.8871 44.6478 29.8208C44.6573 29.8018 44.6668 29.7828 44.6763 29.7734C44.7805 29.6027 44.8753 29.4225 44.9701 29.2424C44.9796 29.2234 44.9891 29.195 44.9986 29.176C45.027 29.1096 45.0649 29.0338 45.0934 28.9674C45.1029 28.939 45.1218 28.901 45.1313 28.8726C45.1597 28.8157 45.1787 28.7493 45.2071 28.683C45.2166 28.645 45.2356 28.6071 45.2451 28.5692C45.264 28.5123 45.283 28.4554 45.3019 28.389C45.3114 28.3511 45.3304 28.3037 45.3399 28.2658C45.3588 28.2089 45.3778 28.152 45.3873 28.0951C45.3967 28.0477 45.4062 28.0098 45.4157 27.9623C45.4252 27.9055 45.4441 27.8486 45.4536 27.7917C45.4631 27.7443 45.4726 27.6969 45.4821 27.6494C45.4915 27.5926 45.501 27.5357 45.5105 27.4788C45.52 27.4314 45.52 27.384 45.5295 27.3365C45.5389 27.2797 45.5484 27.2228 45.5484 27.1659C45.5579 27.1185 45.5579 27.0711 45.5579 27.0142C45.5579 26.9762 45.5674 26.9478 45.5674 26.9099C49.8713 26.6823 53.3031 23.1171 53.3031 18.7555L53.2937 18.746ZM50.2885 13.8724H38.9503V2.01068H40.9316C41.8702 3.02523 47.2643 8.93239 50.2885 13.8724ZM44.6289 26.4832C44.6289 26.5306 44.6289 26.5875 44.6289 26.6349C44.6289 26.6823 44.6289 26.7202 44.6289 26.7676C44.6289 26.815 44.6194 26.8719 44.6194 26.9193C44.6194 26.9573 44.6099 27.0047 44.6099 27.0426C44.6004 27.0995 44.6004 27.1469 44.5909 27.2038C44.5815 27.2417 44.5815 27.2797 44.572 27.3176C44.5625 27.3745 44.553 27.4219 44.5435 27.4788C44.5341 27.5167 44.5341 27.5451 44.5246 27.5831C44.5151 27.64 44.4961 27.6969 44.4867 27.7443C44.4772 27.7727 44.4677 27.8106 44.4677 27.8391C44.4487 27.896 44.4393 27.9529 44.4203 28.0098C44.4108 28.0382 44.4013 28.0666 44.3919 28.1046C44.3729 28.1615 44.3539 28.2184 44.335 28.2752C44.3255 28.3037 44.316 28.3321 44.3065 28.3606C44.2876 28.4175 44.2591 28.4744 44.2402 28.5313C44.2307 28.5597 44.2212 28.5787 44.2117 28.6071C44.1833 28.664 44.1643 28.7209 44.1359 28.7778C44.1264 28.7967 44.1169 28.8252 44.1075 28.8442C44.079 28.901 44.0506 28.9579 44.0221 29.0148C44.0127 29.0338 44.0032 29.0622 43.9842 29.0812C43.9558 29.1381 43.9179 29.195 43.8894 29.2519C43.8799 29.2708 43.8705 29.2898 43.8515 29.3088C43.8136 29.3656 43.7851 29.4225 43.7472 29.4794C43.7377 29.4984 43.7283 29.5174 43.7093 29.5363C43.6714 29.5932 43.6334 29.6406 43.5955 29.6975C43.586 29.7165 43.5671 29.7354 43.5576 29.7449C43.5197 29.8018 43.4723 29.8492 43.4344 29.9061C43.4249 29.9251 43.4059 29.9346 43.3964 29.9535C43.349 30.0009 43.3111 30.0578 43.2637 30.1052C43.2542 30.1242 43.2353 30.1337 43.2258 30.1526C43.1784 30.2 43.131 30.2475 43.0836 30.3043C43.0741 30.3138 43.0552 30.3328 43.0457 30.3423C42.9983 30.3897 42.9509 30.4371 42.894 30.4845C42.8845 30.494 42.8656 30.5129 42.8561 30.5224C42.8087 30.5698 42.7518 30.6172 42.6949 30.6552C42.6854 30.6647 42.6665 30.6836 42.657 30.6931C42.6001 30.7405 42.5527 30.7784 42.4958 30.8164C42.4769 30.8258 42.4674 30.8448 42.4484 30.8543C42.3916 30.8922 42.3442 30.9301 42.2873 30.9681C42.2683 30.9776 42.2588 30.9965 42.2399 31.006C42.183 31.0439 42.1261 31.0819 42.0692 31.1103C42.0503 31.1198 42.0313 31.1293 42.0218 31.1482C41.965 31.1862 41.9081 31.2146 41.8512 31.2525C41.8322 31.262 41.8133 31.2715 41.7943 31.281C41.7374 31.3094 41.6806 31.3379 41.6237 31.3663C41.6047 31.3758 41.5858 31.3853 41.5573 31.3948C41.5004 31.4232 41.4436 31.4516 41.3867 31.4706C41.3677 31.4801 41.3393 31.4896 41.3203 31.4991C41.2634 31.5275 41.2066 31.5465 41.1497 31.5654C41.1212 31.5749 41.1023 31.5844 41.0738 31.5939C41.0169 31.6128 40.9601 31.6318 40.9032 31.6508C40.8747 31.6602 40.8558 31.6697 40.8273 31.6792C40.7705 31.6982 40.7136 31.7171 40.6567 31.7266C40.6283 31.7361 40.5998 31.7456 40.5714 31.7551C40.5145 31.774 40.4576 31.7835 40.3913 31.793C40.3628 31.8025 40.3344 31.8025 40.3059 31.812C40.2396 31.8214 40.1827 31.8309 40.1163 31.8499C40.0879 31.8499 40.0689 31.8594 40.0405 31.8594C39.9741 31.8688 39.9173 31.8783 39.8509 31.8878C39.8225 31.8878 39.794 31.8973 39.7656 31.8973C39.6992 31.9068 39.6329 31.9068 39.5665 31.9163C39.5381 31.9163 39.5191 31.9163 39.4907 31.9257C39.3959 31.9257 39.3011 31.9352 39.2157 31.9352C39.1304 31.9352 39.0261 31.9352 38.9408 31.9257C38.9124 31.9257 38.8934 31.9257 38.865 31.9163C38.7986 31.9163 38.7323 31.9068 38.6659 31.8973C38.628 31.8973 38.5995 31.8878 38.5616 31.8878C38.5047 31.8783 38.4478 31.8783 38.391 31.8688C38.353 31.8594 38.3246 31.8594 38.2962 31.8499C38.2393 31.8404 38.1824 31.8309 38.1255 31.8214C38.0876 31.812 38.0497 31.8025 38.0212 31.793C37.9738 31.7835 37.917 31.774 37.8696 31.7551C37.8316 31.7456 37.8032 31.7361 37.7653 31.7266C37.7179 31.7077 37.661 31.6982 37.6136 31.6792C37.5852 31.6697 37.5472 31.6602 37.5188 31.6508C37.4619 31.6318 37.4145 31.6128 37.3576 31.5939C37.3292 31.5844 37.2913 31.5654 37.2628 31.5559C37.2154 31.537 37.1586 31.518 37.1112 31.4991C37.0827 31.4896 37.0543 31.4706 37.0258 31.4611C36.9784 31.4422 36.9216 31.4137 36.8742 31.3948C36.8457 31.3853 36.8173 31.3663 36.7888 31.3473C36.7414 31.3189 36.6846 31.2999 36.6372 31.2715C36.6087 31.262 36.5897 31.243 36.5613 31.2241C36.5139 31.1956 36.457 31.1672 36.4096 31.1387C36.3812 31.1198 36.3622 31.1103 36.3338 31.0913C36.2864 31.0629 36.239 31.0344 36.1916 30.9965C36.1631 30.9776 36.1442 30.9586 36.1157 30.9491C36.0683 30.9112 36.0209 30.8827 35.9735 30.8448C35.9546 30.8258 35.9261 30.8069 35.9072 30.7879C35.8598 30.75 35.8124 30.7121 35.765 30.6836C35.746 30.6647 35.7271 30.6457 35.7081 30.6267C35.6607 30.5888 35.6133 30.5509 35.5754 30.5129C35.5564 30.494 35.5375 30.475 35.5185 30.4561C35.4711 30.4181 35.4332 30.3707 35.3858 30.3328C35.3668 30.3138 35.3479 30.2949 35.3289 30.2759C35.291 30.2285 35.2436 30.1906 35.2057 30.1432C35.1867 30.1242 35.1677 30.1052 35.1583 30.0863C35.1203 30.0389 35.0729 29.9914 35.035 29.944C35.0161 29.9251 34.9971 29.8966 34.9876 29.8777C34.9497 29.8303 34.9118 29.7828 34.8739 29.7354C34.8549 29.7165 34.8359 29.688 34.8265 29.6691C34.7885 29.6217 34.7601 29.5742 34.7222 29.5268C34.7032 29.4984 34.6937 29.4794 34.6748 29.451C34.6463 29.4036 34.6084 29.3562 34.58 29.3088C34.561 29.2803 34.5515 29.2614 34.5326 29.2329C34.5041 29.1855 34.4757 29.1381 34.4473 29.0812C34.4378 29.0527 34.4188 29.0243 34.4093 29.0053C34.3809 28.9579 34.3525 28.901 34.3335 28.8536C34.324 28.8252 34.305 28.7967 34.2956 28.7683C34.2671 28.7114 34.2482 28.664 34.2197 28.6071C34.2103 28.5787 34.2008 28.5502 34.1818 28.5218C34.1629 28.4649 34.1344 28.4175 34.1155 28.3606C34.106 28.3321 34.0965 28.2942 34.087 28.2658C34.0681 28.2089 34.0491 28.1615 34.0301 28.1046C34.0206 28.0761 34.0112 28.0382 34.0017 28.0003C33.9827 27.9434 33.9732 27.896 33.9543 27.8391C33.9448 27.8012 33.9353 27.7727 33.9258 27.7348C33.9164 27.6779 33.8974 27.6305 33.8879 27.5736C33.8784 27.5357 33.8784 27.4977 33.869 27.4598C33.8595 27.4124 33.85 27.3555 33.8405 27.3081C33.831 27.2702 33.831 27.2322 33.8216 27.1943C33.8121 27.1469 33.8026 27.09 33.8026 27.0426C33.8026 27.0047 33.7931 26.9573 33.7931 26.9193C33.7931 26.8719 33.7836 26.815 33.7836 26.7676C33.7836 26.7202 33.7836 26.6823 33.7836 26.6349C33.7836 26.5875 33.7836 26.5306 33.7836 26.4832C33.7836 23.4775 36.2295 21.0406 39.2252 21.0406C42.2209 21.0406 44.6668 23.4775 44.6668 26.4737L44.6289 26.4832ZM32.8072 25.9996H20.9761V14.8206H38.0023V20.1873C35.1962 20.7183 33.0252 23.0887 32.8072 25.9996ZM19.9617 26.6254C19.9617 26.6728 19.9617 26.7107 19.9617 26.7582C19.9617 26.8056 19.9522 26.853 19.9522 26.9004C19.9522 26.9478 19.9427 26.9857 19.9427 27.0331C19.9333 27.0805 19.9333 27.1279 19.9238 27.1754C19.9143 27.2228 19.9143 27.2607 19.9048 27.3081C19.8953 27.3555 19.8859 27.3934 19.8764 27.4408C19.8669 27.4883 19.8574 27.5262 19.8479 27.5736C19.8384 27.621 19.829 27.6589 19.8195 27.7063C19.81 27.7537 19.8005 27.7917 19.791 27.8391C19.7816 27.8865 19.7626 27.9244 19.7531 27.9718C19.7436 28.0098 19.7342 28.0572 19.7152 28.0951C19.7057 28.1425 19.6868 28.1804 19.6678 28.2278C19.6583 28.2658 19.6394 28.3132 19.6299 28.3511C19.6109 28.389 19.6014 28.4364 19.5825 28.4744C19.5635 28.5123 19.554 28.5597 19.5351 28.5976C19.5161 28.6356 19.4972 28.683 19.4782 28.7209C19.4592 28.7588 19.4403 28.7967 19.4213 28.8442C19.4024 28.8821 19.3834 28.92 19.3644 28.9674C19.3455 29.0053 19.3265 29.0433 19.3076 29.0812C19.2886 29.1191 19.2602 29.157 19.2412 29.2045C19.2222 29.2424 19.2033 29.2803 19.1748 29.3088C19.1464 29.3467 19.1274 29.3846 19.099 29.432C19.08 29.4699 19.0516 29.4984 19.0326 29.5363C19.0042 29.5742 18.9758 29.6122 18.9568 29.6501C18.9284 29.688 18.9094 29.7165 18.881 29.7544C18.8525 29.7923 18.8241 29.8303 18.7956 29.8587C18.7672 29.8871 18.7482 29.9251 18.7198 29.9535C18.6914 29.9914 18.6629 30.0199 18.625 30.0578C18.5966 30.0863 18.5681 30.1242 18.5492 30.1526C18.5207 30.1906 18.4828 30.219 18.4544 30.2569C18.4259 30.2854 18.3975 30.3138 18.369 30.3423C18.3311 30.3802 18.3027 30.4086 18.2648 30.4371C18.2363 30.4655 18.2079 30.494 18.1794 30.5224C18.1415 30.5509 18.1036 30.5888 18.0657 30.6172C18.0372 30.6457 18.0088 30.6647 17.9804 30.6931C17.9424 30.7215 17.9045 30.7595 17.8571 30.7879C17.8287 30.8069 17.8002 30.8353 17.7718 30.8543C17.7339 30.8827 17.696 30.9112 17.6486 30.9396C17.6201 30.9586 17.5917 30.987 17.5538 31.006C17.5158 31.0344 17.4779 31.0534 17.4305 31.0819C17.3926 31.1008 17.3641 31.1293 17.3262 31.1482C17.2883 31.1767 17.2409 31.1956 17.1935 31.2241C17.1651 31.243 17.1271 31.262 17.0987 31.281C17.0513 31.3094 17.0039 31.3284 16.9565 31.3473C16.9281 31.3663 16.8901 31.3853 16.8617 31.3948C16.8143 31.4137 16.7669 31.4422 16.7195 31.4611C16.6911 31.4706 16.6531 31.4896 16.6247 31.5085C16.5773 31.5275 16.5299 31.5465 16.4825 31.5654C16.4446 31.5749 16.4161 31.5939 16.3782 31.6034C16.3308 31.6223 16.2834 31.6413 16.2265 31.6508C16.1886 31.6602 16.1602 31.6792 16.1223 31.6887C16.0749 31.7077 16.018 31.7171 15.9706 31.7361C15.9327 31.7456 15.9042 31.7551 15.8663 31.7645C15.8094 31.774 15.762 31.793 15.7051 31.8025C15.6672 31.812 15.6388 31.8214 15.6009 31.8309C15.544 31.8404 15.4966 31.8499 15.4397 31.8594C15.4018 31.8688 15.3733 31.8688 15.3354 31.8783C15.288 31.8878 15.2406 31.8878 15.1932 31.8973C15.1553 31.9068 15.1079 31.9068 15.07 31.9163C15.0131 31.9257 14.9657 31.9257 14.9088 31.9257C14.8709 31.9257 14.833 31.9352 14.795 31.9352C14.7002 31.9352 14.6054 31.9447 14.5106 31.9447C14.4158 31.9447 14.321 31.9447 14.2262 31.9352C14.1978 31.9352 14.1788 31.9352 14.1504 31.9257C14.084 31.9257 14.0177 31.9163 13.9513 31.9068C13.9039 31.9068 13.866 31.8973 13.8186 31.8878C13.7712 31.8783 13.7238 31.8783 13.6764 31.8688C13.629 31.8594 13.5816 31.8499 13.5247 31.8404C13.4868 31.8309 13.4489 31.8309 13.4015 31.8214C13.3351 31.812 13.2688 31.793 13.2024 31.774C13.1834 31.7645 13.1645 31.7645 13.1455 31.7645C13.0792 31.7456 13.0128 31.7266 12.9464 31.7077C12.9275 31.6982 12.9085 31.6982 12.8896 31.6887C12.8137 31.6602 12.7284 31.6413 12.6525 31.6128C12.6431 31.6128 12.6431 31.6128 12.6336 31.6034C12.5577 31.5749 12.4819 31.5465 12.4061 31.518C12.3966 31.518 12.3871 31.5085 12.3871 31.5085C12.3113 31.4706 12.2259 31.4422 12.1501 31.4042C12.0743 31.3663 11.9984 31.3284 11.9226 31.2905H11.9131C11.0694 30.8258 10.3584 30.1526 9.85593 29.3277C9.80853 29.2614 9.77061 29.1855 9.73268 29.1096L9.7232 29.1002C9.68528 29.0338 9.64736 28.9579 9.61892 28.8916C9.61892 28.8821 9.60944 28.8726 9.60944 28.8631C9.581 28.7967 9.54308 28.7304 9.51464 28.6545C9.50516 28.645 9.50516 28.6356 9.49568 28.6166C9.46724 28.5502 9.4388 28.4838 9.41984 28.4175C9.41036 28.3985 9.41036 28.389 9.40088 28.3701C9.38192 28.3037 9.35348 28.2373 9.33452 28.1804C9.32504 28.1615 9.32504 28.1425 9.31556 28.1235C9.2966 28.0572 9.27764 28.0003 9.25868 27.9339C9.2492 27.9149 9.2492 27.8865 9.23972 27.8675C9.22076 27.8106 9.21128 27.7537 9.2018 27.6874C9.19232 27.6589 9.19232 27.6305 9.18284 27.602C9.17336 27.5451 9.16388 27.4883 9.1544 27.4314C9.14492 27.3934 9.14492 27.365 9.13544 27.3271C9.12596 27.2797 9.12596 27.2228 9.11648 27.1754C9.107 27.1374 9.107 27.0995 9.09752 27.0616C9.08804 27.0142 9.08804 26.9668 9.08804 26.9099C9.08804 26.8719 9.07856 26.8245 9.07856 26.7866C9.07856 26.7392 9.07856 26.6918 9.07856 26.6444C9.07856 26.597 9.07856 26.5496 9.07856 26.5021C9.07856 23.4964 11.5244 21.0596 14.5201 21.0596C17.5158 21.0596 19.9617 23.4964 19.9617 26.5021V26.5116C19.9712 26.5306 19.9617 26.578 19.9617 26.6254ZM20.9761 13.8724V2.01068H38.0023V13.8724H20.9761ZM8.95532 2.01068H20.0186V13.8724H1.74098V9.22632C1.74098 5.25345 4.98316 2.01068 8.95532 2.01068ZM1.74098 18.7745V14.8206H20.0281V23.2214C18.9094 21.3441 16.8617 20.083 14.5296 20.083C11.1831 20.083 8.43391 22.6715 8.15899 25.9522C4.51864 25.5445 1.74098 22.4914 1.74098 18.7745ZM45.5484 25.9806C45.2925 22.681 42.5338 20.083 39.1778 20.083C39.102 20.083 39.0261 20.083 38.9408 20.0925V14.8301H50.8478C51.701 16.3471 52.2793 17.741 52.3456 18.7935C52.3362 22.6241 49.331 25.7626 45.5484 25.9806Z" fill="white"/>
<path d="M53.2937 18.746C52.9808 13.5026 41.9555 1.70726 41.4815 1.20473L41.3393 1.0625H8.95532C4.45228 1.0625 0.792969 4.72247 0.792969 9.22632V18.7745C0.792969 23.0034 3.98776 26.4927 8.14951 26.9004C8.14951 26.9383 8.15899 26.9857 8.15899 27.0236C8.15899 27.0711 8.16847 27.1185 8.16847 27.1659C8.17795 27.2228 8.17795 27.2797 8.18743 27.3365C8.19691 27.384 8.19691 27.4314 8.20639 27.4788C8.21587 27.5357 8.22535 27.5926 8.23483 27.6494C8.24431 27.6969 8.25379 27.7443 8.26327 27.7917C8.27275 27.8486 8.29171 27.9055 8.30119 27.9623C8.31067 28.0098 8.32015 28.0572 8.32963 28.0951C8.34859 28.152 8.35807 28.2089 8.37703 28.2658C8.38651 28.3132 8.40547 28.3511 8.41495 28.3985C8.43391 28.4554 8.45287 28.5123 8.47183 28.5692C8.48131 28.6071 8.50027 28.6545 8.50975 28.6924C8.52871 28.7588 8.55715 28.8157 8.58559 28.8821C8.59507 28.9105 8.61403 28.9485 8.62351 28.9769C8.66144 29.0717 8.70884 29.157 8.74676 29.2519C8.76572 29.2898 8.78468 29.3182 8.80364 29.3562C8.83208 29.4131 8.86052 29.4699 8.88896 29.5174C8.90792 29.5553 8.93636 29.5932 8.95532 29.6311C8.98376 29.6785 9.0122 29.726 9.04064 29.7734C9.06908 29.8113 9.08804 29.8492 9.11648 29.8966C9.14492 29.944 9.17336 29.9914 9.2018 30.0294C9.23024 30.0673 9.25868 30.1052 9.28712 30.1432C9.31556 30.1906 9.344 30.2285 9.38192 30.2664C9.41036 30.3043 9.4388 30.3423 9.46724 30.3802C9.49568 30.4181 9.5336 30.4655 9.56204 30.5035C9.59048 30.5414 9.6284 30.5793 9.65684 30.6172C9.69476 30.6552 9.7232 30.6931 9.76112 30.731C9.78956 30.769 9.82749 30.8069 9.86541 30.8353C9.90333 30.8733 9.93177 30.9112 9.96969 30.9491C10.0076 30.987 10.036 31.0155 10.074 31.0534C10.1119 31.0913 10.1498 31.1198 10.1877 31.1577C10.2256 31.1956 10.2636 31.2241 10.3015 31.2525C10.3394 31.2905 10.3773 31.3189 10.4152 31.3568C10.4532 31.3853 10.4911 31.4232 10.529 31.4516C10.5669 31.4801 10.6049 31.518 10.6523 31.5465C10.6902 31.5749 10.7281 31.6034 10.766 31.6318C10.8039 31.6602 10.8513 31.6887 10.8893 31.7171C10.9272 31.7456 10.9746 31.774 11.0125 31.8025C11.0599 31.8309 11.0978 31.8594 11.1452 31.8878C11.1831 31.9163 11.2305 31.9352 11.2685 31.9637C11.3159 31.9921 11.3538 32.0206 11.4012 32.0395C11.4391 32.068 11.4865 32.0869 11.5339 32.1059C11.5813 32.1343 11.6287 32.1533 11.6761 32.1817C11.7235 32.2007 11.7614 32.2292 11.8088 32.2481C11.8562 32.2671 11.9036 32.2955 11.951 32.3145C11.9984 32.3335 12.0363 32.3524 12.0837 32.3714C12.1311 32.3903 12.188 32.4093 12.2354 32.4283C12.2828 32.4472 12.3207 32.4662 12.3681 32.4757C12.4155 32.4946 12.4724 32.5136 12.5198 32.5326C12.5672 32.5515 12.6146 32.561 12.6525 32.58C12.7094 32.5989 12.7568 32.6084 12.8137 32.6274C12.8611 32.6369 12.9085 32.6558 12.9464 32.6653C13.0033 32.6748 13.0602 32.6938 13.1171 32.7032C13.1645 32.7127 13.2119 32.7222 13.2498 32.7317C13.3067 32.7412 13.3636 32.7506 13.4204 32.7601C13.4678 32.7696 13.5058 32.7791 13.5532 32.7791C13.6195 32.7886 13.6764 32.7981 13.7428 32.8075C13.7807 32.817 13.8281 32.817 13.866 32.8265C13.9324 32.836 14.0082 32.836 14.0746 32.8455C14.1125 32.8455 14.1504 32.8549 14.1788 32.8549C14.2831 32.8644 14.3969 32.8644 14.5012 32.8644C14.6054 32.8644 14.7192 32.8644 14.8235 32.8549C14.8614 32.8549 14.8898 32.8455 14.9278 32.8455C14.9941 32.8455 15.07 32.836 15.1363 32.8265C15.1743 32.8265 15.2217 32.817 15.2596 32.8075C15.3259 32.7981 15.3828 32.7886 15.4492 32.7791C15.4966 32.7696 15.5345 32.7601 15.5819 32.7601C15.6388 32.7506 15.6957 32.7412 15.762 32.7317C15.8094 32.7222 15.8473 32.7127 15.8947 32.7032C15.9516 32.6938 16.0085 32.6748 16.0654 32.6653C16.1128 32.6558 16.1507 32.6369 16.1981 32.6274C16.255 32.6084 16.3024 32.5989 16.3593 32.58C16.4067 32.5705 16.4446 32.5515 16.492 32.5326C16.5489 32.5136 16.5963 32.4946 16.6531 32.4757C16.7005 32.4567 16.7385 32.4472 16.7859 32.4283C16.8333 32.4093 16.8901 32.3903 16.9375 32.3714C16.9849 32.3524 17.0229 32.3335 17.0703 32.3145C17.1177 32.2955 17.1651 32.2671 17.2219 32.2481C17.2693 32.2292 17.3073 32.2102 17.3452 32.1817C17.3926 32.1533 17.44 32.1343 17.4874 32.1059C17.5253 32.0869 17.5727 32.0585 17.6106 32.0395C17.658 32.0111 17.7054 31.9826 17.7528 31.9542C17.7908 31.9257 17.8287 31.9068 17.8761 31.8783C17.9235 31.8499 17.9709 31.8214 18.0088 31.793C18.0467 31.7645 18.0846 31.7456 18.1226 31.7171C18.17 31.6887 18.2079 31.6508 18.2553 31.6223C18.2932 31.5939 18.3311 31.5654 18.369 31.537C18.4164 31.5085 18.4544 31.4706 18.4923 31.4327C18.5302 31.4042 18.5681 31.3758 18.5966 31.3473C18.6345 31.3094 18.6819 31.281 18.7198 31.243C18.7577 31.2146 18.7862 31.1862 18.8241 31.1482C18.862 31.1103 18.8999 31.0724 18.9378 31.0344C18.9663 31.006 19.0042 30.9681 19.0326 30.9396C19.0706 30.9017 19.1085 30.8638 19.1464 30.8164C19.1748 30.7879 19.2128 30.75 19.2412 30.7215C19.2791 30.6836 19.317 30.6362 19.355 30.5888C19.3834 30.5509 19.4118 30.5224 19.4403 30.4845C19.4782 30.4371 19.5161 30.3897 19.5446 30.3423C19.573 30.3138 19.592 30.2759 19.6204 30.2475C19.6583 30.2 19.6962 30.1432 19.7342 30.0957C19.7531 30.0673 19.7816 30.0389 19.8005 30.0009C19.8384 29.9346 19.8859 29.8777 19.9238 29.8113C19.9333 29.7923 19.9522 29.7734 19.9617 29.7544C20.0091 29.6691 20.066 29.5837 20.1134 29.4889C20.1323 29.4605 20.1418 29.432 20.1513 29.4131C20.1797 29.3467 20.2177 29.2898 20.2461 29.2234C20.2651 29.1855 20.2745 29.1476 20.2935 29.1191C20.3219 29.0622 20.3409 29.0053 20.3693 28.9485C20.3883 28.9105 20.3978 28.8726 20.4167 28.8252C20.4357 28.7683 20.4641 28.7209 20.4831 28.664C20.5021 28.6261 20.5115 28.5787 20.5305 28.5313C20.5495 28.4744 20.5684 28.427 20.5874 28.3701C20.5969 28.3227 20.6158 28.2847 20.6253 28.2373C20.6443 28.1804 20.6537 28.133 20.6727 28.0761C20.6822 28.0287 20.6917 27.9813 20.7106 27.9339C20.7201 27.877 20.7391 27.8296 20.7485 27.7727C20.758 27.7253 20.7675 27.6779 20.777 27.6305C20.7865 27.5736 20.7959 27.5167 20.8054 27.4693C20.8149 27.4219 20.8244 27.3745 20.8244 27.3271C20.8339 27.2702 20.8433 27.2133 20.8433 27.1564C20.8528 27.109 20.8528 27.0616 20.8623 27.0047C20.8623 26.9762 20.8718 26.9383 20.8718 26.9099H32.7788C32.7788 26.9478 32.7882 26.9762 32.7882 27.0047C32.7882 27.0521 32.7977 27.0995 32.7977 27.1469C32.8072 27.2038 32.8072 27.2607 32.8167 27.3176C32.8262 27.365 32.8262 27.4124 32.8356 27.4598C32.8451 27.5167 32.8546 27.5736 32.8641 27.6305C32.8736 27.6779 32.883 27.7253 32.8925 27.7727C32.902 27.8296 32.921 27.8865 32.9304 27.9434C32.9399 27.9908 32.9494 28.0382 32.9684 28.0761C32.9873 28.133 32.9968 28.1899 33.0158 28.2373C33.0252 28.2847 33.0442 28.3227 33.0537 28.3701C33.0726 28.427 33.0916 28.4838 33.1106 28.5313C33.1295 28.5692 33.139 28.6166 33.158 28.6545C33.1769 28.7114 33.2054 28.7683 33.2243 28.8252C33.2433 28.8631 33.2528 28.901 33.2717 28.939C33.3002 28.9959 33.3191 29.0527 33.3476 29.1096C33.3665 29.1476 33.376 29.176 33.395 29.2139C33.4234 29.2803 33.4613 29.3467 33.4992 29.4131C33.5087 29.4415 33.5277 29.4605 33.5372 29.4889C33.5846 29.5742 33.632 29.6691 33.6888 29.7544C33.6983 29.7734 33.7078 29.7923 33.7268 29.8113C33.7647 29.8777 33.8121 29.944 33.8595 30.0104C33.8784 30.0389 33.8974 30.0673 33.9258 30.0957C33.9638 30.1526 34.0017 30.2 34.0396 30.2569C34.0681 30.2854 34.087 30.3233 34.1155 30.3518C34.1534 30.3992 34.1913 30.4466 34.2292 30.494C34.2577 30.5319 34.2861 30.5604 34.3145 30.5888C34.3525 30.6362 34.3904 30.6741 34.4283 30.7215C34.4567 30.75 34.4852 30.7879 34.5231 30.8164C34.561 30.8543 34.5989 30.9017 34.6369 30.9396C34.6653 30.9681 34.7032 31.006 34.7317 31.0344C34.7696 31.0724 34.8075 31.1103 34.8549 31.1482C34.8928 31.1767 34.9213 31.2051 34.9592 31.243C34.9971 31.281 35.0445 31.3189 35.0824 31.3473C35.1203 31.3758 35.1488 31.4042 35.1867 31.4327C35.2246 31.4706 35.272 31.4991 35.3194 31.537C35.3573 31.5654 35.3953 31.5939 35.4332 31.6223C35.4806 31.6508 35.5185 31.6887 35.5659 31.7171C35.6038 31.7456 35.6417 31.7645 35.6797 31.793C35.7271 31.8214 35.7745 31.8499 35.8124 31.8783C35.8503 31.9068 35.8882 31.9257 35.9356 31.9542C35.983 31.9826 36.0304 32.0111 36.0778 32.0395C36.1157 32.0585 36.1631 32.0869 36.2011 32.1059C36.2485 32.1343 36.2959 32.1533 36.3433 32.1817C36.3812 32.2007 36.4286 32.2197 36.4665 32.2386C36.5139 32.2576 36.5613 32.286 36.6182 32.305C36.6656 32.324 36.7035 32.3429 36.7509 32.3619C36.7983 32.3809 36.8552 32.3998 36.9026 32.4188C36.95 32.4378 36.9879 32.4567 37.0353 32.4662C37.0922 32.4852 37.1396 32.5041 37.1965 32.5231C37.2439 32.542 37.2818 32.5515 37.3292 32.5705C37.3861 32.5895 37.4335 32.5989 37.4904 32.6179C37.5378 32.6274 37.5757 32.6464 37.6231 32.6558C37.68 32.6653 37.7368 32.6843 37.7937 32.6938C37.8411 32.7032 37.879 32.7127 37.9264 32.7222C37.9833 32.7317 38.0402 32.7412 38.1066 32.7507C38.154 32.7601 38.1919 32.7696 38.2393 32.7696C38.3056 32.7791 38.3625 32.7886 38.4289 32.7981C38.4668 32.8075 38.5142 32.8075 38.5521 32.817C38.6185 32.8265 38.6943 32.8265 38.7607 32.836C38.7986 32.836 38.827 32.8455 38.865 32.8455C38.9692 32.8549 39.083 32.8549 39.1873 32.8549C39.2916 32.8549 39.4053 32.8549 39.5096 32.8455C39.5475 32.8455 39.576 32.836 39.6139 32.836C39.6803 32.836 39.7561 32.8265 39.8225 32.817C39.8604 32.817 39.9078 32.8075 39.9457 32.7981C40.0121 32.7886 40.0689 32.7791 40.1353 32.7696C40.1827 32.7601 40.2206 32.7507 40.268 32.7507C40.3249 32.7412 40.3913 32.7317 40.4481 32.7222C40.4955 32.7127 40.5335 32.7032 40.5809 32.6938C40.6377 32.6843 40.6946 32.6653 40.7515 32.6558C40.7989 32.6464 40.8368 32.6274 40.8842 32.6179C40.9411 32.5989 40.998 32.5895 41.0454 32.5705C41.0928 32.561 41.1307 32.542 41.1781 32.5326C41.235 32.5136 41.2824 32.4946 41.3393 32.4757C41.3867 32.4567 41.4246 32.4472 41.472 32.4283C41.5289 32.4093 41.5763 32.3903 41.6332 32.3619C41.6711 32.3429 41.7185 32.324 41.7564 32.305C41.8038 32.286 41.8607 32.2576 41.9081 32.2386C41.946 32.2197 41.9934 32.2007 42.0313 32.1817C42.0787 32.1533 42.1356 32.1343 42.183 32.1059C42.2209 32.0869 42.2588 32.0585 42.3062 32.0395C42.3536 32.0111 42.401 31.9826 42.4484 31.9542C42.4864 31.9352 42.5243 31.9068 42.5622 31.8878C42.6096 31.8594 42.657 31.8309 42.7044 31.793C42.7423 31.7645 42.7802 31.7456 42.8182 31.7171C42.8656 31.6887 42.913 31.6508 42.9604 31.6223C42.9983 31.5939 43.0267 31.5749 43.0646 31.5465C43.112 31.5085 43.15 31.4801 43.1974 31.4422C43.2353 31.4137 43.2637 31.3853 43.3016 31.3568C43.349 31.3189 43.387 31.281 43.4344 31.243C43.4628 31.2146 43.5007 31.1862 43.5292 31.1577C43.5766 31.1198 43.6145 31.0819 43.6524 31.0344C43.6809 31.006 43.7093 30.9776 43.7377 30.9491C43.7757 30.9112 43.8231 30.8638 43.861 30.8164C43.8894 30.7879 43.9179 30.7595 43.9463 30.731C43.9842 30.6836 44.0221 30.6362 44.0695 30.5888C44.098 30.5604 44.1169 30.5319 44.1454 30.5035C44.1833 30.4561 44.2212 30.3992 44.2686 30.3518C44.2876 30.3233 44.316 30.2949 44.335 30.2664C44.3729 30.2095 44.4108 30.1526 44.4582 30.0957C44.4772 30.0673 44.4961 30.0483 44.5151 30.0199C44.5625 29.9535 44.6004 29.8871 44.6478 29.8208C44.6573 29.8018 44.6668 29.7828 44.6763 29.7734C44.7805 29.6027 44.8753 29.4225 44.9701 29.2424C44.9796 29.2234 44.9891 29.195 44.9986 29.176C45.027 29.1096 45.0649 29.0338 45.0934 28.9674C45.1029 28.939 45.1218 28.901 45.1313 28.8726C45.1597 28.8157 45.1787 28.7493 45.2071 28.683C45.2166 28.645 45.2356 28.6071 45.2451 28.5692C45.264 28.5123 45.283 28.4554 45.3019 28.389C45.3114 28.3511 45.3304 28.3037 45.3399 28.2658C45.3588 28.2089 45.3778 28.152 45.3873 28.0951C45.3967 28.0477 45.4062 28.0098 45.4157 27.9623C45.4252 27.9055 45.4441 27.8486 45.4536 27.7917C45.4631 27.7443 45.4726 27.6969 45.4821 27.6494C45.4915 27.5926 45.501 27.5357 45.5105 27.4788C45.52 27.4314 45.52 27.384 45.5295 27.3365C45.5389 27.2797 45.5484 27.2228 45.5484 27.1659C45.5579 27.1185 45.5579 27.0711 45.5579 27.0142C45.5579 26.9762 45.5674 26.9478 45.5674 26.9099C49.8713 26.6823 53.3031 23.1171 53.3031 18.7555L53.2937 18.746ZM50.2885 13.8724H38.9503V2.01068H40.9316C41.8702 3.02523 47.2643 8.93239 50.2885 13.8724ZM44.6289 26.4832C44.6289 26.5306 44.6289 26.5875 44.6289 26.6349C44.6289 26.6823 44.6289 26.7202 44.6289 26.7676C44.6289 26.815 44.6194 26.8719 44.6194 26.9193C44.6194 26.9573 44.6099 27.0047 44.6099 27.0426C44.6004 27.0995 44.6004 27.1469 44.5909 27.2038C44.5815 27.2417 44.5815 27.2797 44.572 27.3176C44.5625 27.3745 44.553 27.4219 44.5435 27.4788C44.5341 27.5167 44.5341 27.5451 44.5246 27.5831C44.5151 27.64 44.4961 27.6969 44.4867 27.7443C44.4772 27.7727 44.4677 27.8106 44.4677 27.8391C44.4487 27.896 44.4393 27.9529 44.4203 28.0098C44.4108 28.0382 44.4013 28.0666 44.3919 28.1046C44.3729 28.1615 44.3539 28.2184 44.335 28.2752C44.3255 28.3037 44.316 28.3321 44.3065 28.3606C44.2876 28.4175 44.2591 28.4744 44.2402 28.5313C44.2307 28.5597 44.2212 28.5787 44.2117 28.6071C44.1833 28.664 44.1643 28.7209 44.1359 28.7778C44.1264 28.7967 44.1169 28.8252 44.1075 28.8442C44.079 28.901 44.0506 28.9579 44.0221 29.0148C44.0127 29.0338 44.0032 29.0622 43.9842 29.0812C43.9558 29.1381 43.9179 29.195 43.8894 29.2519C43.8799 29.2708 43.8705 29.2898 43.8515 29.3088C43.8136 29.3656 43.7851 29.4225 43.7472 29.4794C43.7377 29.4984 43.7283 29.5174 43.7093 29.5363C43.6714 29.5932 43.6334 29.6406 43.5955 29.6975C43.586 29.7165 43.5671 29.7354 43.5576 29.7449C43.5197 29.8018 43.4723 29.8492 43.4344 29.9061C43.4249 29.9251 43.4059 29.9346 43.3964 29.9535C43.349 30.0009 43.3111 30.0578 43.2637 30.1052C43.2542 30.1242 43.2353 30.1337 43.2258 30.1526C43.1784 30.2 43.131 30.2475 43.0836 30.3043C43.0741 30.3138 43.0552 30.3328 43.0457 30.3423C42.9983 30.3897 42.9509 30.4371 42.894 30.4845C42.8845 30.494 42.8656 30.5129 42.8561 30.5224C42.8087 30.5698 42.7518 30.6172 42.6949 30.6552C42.6854 30.6647 42.6665 30.6836 42.657 30.6931C42.6001 30.7405 42.5527 30.7784 42.4958 30.8164C42.4769 30.8258 42.4674 30.8448 42.4484 30.8543C42.3916 30.8922 42.3442 30.9301 42.2873 30.9681C42.2683 30.9776 42.2588 30.9965 42.2399 31.006C42.183 31.0439 42.1261 31.0819 42.0692 31.1103C42.0503 31.1198 42.0313 31.1293 42.0218 31.1482C41.965 31.1862 41.9081 31.2146 41.8512 31.2525C41.8322 31.262 41.8133 31.2715 41.7943 31.281C41.7374 31.3094 41.6806 31.3379 41.6237 31.3663C41.6047 31.3758 41.5858 31.3853 41.5573 31.3948C41.5004 31.4232 41.4436 31.4516 41.3867 31.4706C41.3677 31.4801 41.3393 31.4896 41.3203 31.4991C41.2634 31.5275 41.2066 31.5465 41.1497 31.5654C41.1212 31.5749 41.1023 31.5844 41.0738 31.5939C41.0169 31.6128 40.9601 31.6318 40.9032 31.6508C40.8747 31.6602 40.8558 31.6697 40.8273 31.6792C40.7705 31.6982 40.7136 31.7171 40.6567 31.7266C40.6283 31.7361 40.5998 31.7456 40.5714 31.7551C40.5145 31.774 40.4576 31.7835 40.3913 31.793C40.3628 31.8025 40.3344 31.8025 40.3059 31.812C40.2396 31.8214 40.1827 31.8309 40.1163 31.8499C40.0879 31.8499 40.0689 31.8594 40.0405 31.8594C39.9741 31.8688 39.9173 31.8783 39.8509 31.8878C39.8225 31.8878 39.794 31.8973 39.7656 31.8973C39.6992 31.9068 39.6329 31.9068 39.5665 31.9163C39.5381 31.9163 39.5191 31.9163 39.4907 31.9257C39.3959 31.9257 39.3011 31.9352 39.2157 31.9352C39.1304 31.9352 39.0261 31.9352 38.9408 31.9257C38.9124 31.9257 38.8934 31.9257 38.865 31.9163C38.7986 31.9163 38.7323 31.9068 38.6659 31.8973C38.628 31.8973 38.5995 31.8878 38.5616 31.8878C38.5047 31.8783 38.4478 31.8783 38.391 31.8688C38.353 31.8594 38.3246 31.8594 38.2962 31.8499C38.2393 31.8404 38.1824 31.8309 38.1255 31.8214C38.0876 31.812 38.0497 31.8025 38.0212 31.793C37.9738 31.7835 37.917 31.774 37.8696 31.7551C37.8316 31.7456 37.8032 31.7361 37.7653 31.7266C37.7179 31.7077 37.661 31.6982 37.6136 31.6792C37.5852 31.6697 37.5472 31.6602 37.5188 31.6508C37.4619 31.6318 37.4145 31.6128 37.3576 31.5939C37.3292 31.5844 37.2913 31.5654 37.2628 31.5559C37.2154 31.537 37.1586 31.518 37.1112 31.4991C37.0827 31.4896 37.0543 31.4706 37.0258 31.4611C36.9784 31.4422 36.9216 31.4137 36.8742 31.3948C36.8457 31.3853 36.8173 31.3663 36.7888 31.3473C36.7414 31.3189 36.6846 31.2999 36.6372 31.2715C36.6087 31.262 36.5897 31.243 36.5613 31.2241C36.5139 31.1956 36.457 31.1672 36.4096 31.1387C36.3812 31.1198 36.3622 31.1103 36.3338 31.0913C36.2864 31.0629 36.239 31.0344 36.1916 30.9965C36.1631 30.9776 36.1442 30.9586 36.1157 30.9491C36.0683 30.9112 36.0209 30.8827 35.9735 30.8448C35.9546 30.8258 35.9261 30.8069 35.9072 30.7879C35.8598 30.75 35.8124 30.7121 35.765 30.6836C35.746 30.6647 35.7271 30.6457 35.7081 30.6267C35.6607 30.5888 35.6133 30.5509 35.5754 30.5129C35.5564 30.494 35.5375 30.475 35.5185 30.4561C35.4711 30.4181 35.4332 30.3707 35.3858 30.3328C35.3668 30.3138 35.3479 30.2949 35.3289 30.2759C35.291 30.2285 35.2436 30.1906 35.2057 30.1432C35.1867 30.1242 35.1677 30.1052 35.1583 30.0863C35.1203 30.0389 35.0729 29.9914 35.035 29.944C35.0161 29.9251 34.9971 29.8966 34.9876 29.8777C34.9497 29.8303 34.9118 29.7828 34.8739 29.7354C34.8549 29.7165 34.8359 29.688 34.8265 29.6691C34.7885 29.6217 34.7601 29.5742 34.7222 29.5268C34.7032 29.4984 34.6937 29.4794 34.6748 29.451C34.6463 29.4036 34.6084 29.3562 34.58 29.3088C34.561 29.2803 34.5515 29.2614 34.5326 29.2329C34.5041 29.1855 34.4757 29.1381 34.4473 29.0812C34.4378 29.0527 34.4188 29.0243 34.4093 29.0053C34.3809 28.9579 34.3525 28.901 34.3335 28.8536C34.324 28.8252 34.305 28.7967 34.2956 28.7683C34.2671 28.7114 34.2482 28.664 34.2197 28.6071C34.2103 28.5787 34.2008 28.5502 34.1818 28.5218C34.1629 28.4649 34.1344 28.4175 34.1155 28.3606C34.106 28.3321 34.0965 28.2942 34.087 28.2658C34.0681 28.2089 34.0491 28.1615 34.0301 28.1046C34.0206 28.0761 34.0112 28.0382 34.0017 28.0003C33.9827 27.9434 33.9732 27.896 33.9543 27.8391C33.9448 27.8012 33.9353 27.7727 33.9258 27.7348C33.9164 27.6779 33.8974 27.6305 33.8879 27.5736C33.8784 27.5357 33.8784 27.4977 33.869 27.4598C33.8595 27.4124 33.85 27.3555 33.8405 27.3081C33.831 27.2702 33.831 27.2322 33.8216 27.1943C33.8121 27.1469 33.8026 27.09 33.8026 27.0426C33.8026 27.0047 33.7931 26.9573 33.7931 26.9193C33.7931 26.8719 33.7836 26.815 33.7836 26.7676C33.7836 26.7202 33.7836 26.6823 33.7836 26.6349C33.7836 26.5875 33.7836 26.5306 33.7836 26.4832C33.7836 23.4775 36.2295 21.0406 39.2252 21.0406C42.2209 21.0406 44.6668 23.4775 44.6668 26.4737L44.6289 26.4832ZM32.8072 25.9996H20.9761V14.8206H38.0023V20.1873C35.1962 20.7183 33.0252 23.0887 32.8072 25.9996ZM19.9617 26.6254C19.9617 26.6728 19.9617 26.7107 19.9617 26.7582C19.9617 26.8056 19.9522 26.853 19.9522 26.9004C19.9522 26.9478 19.9427 26.9857 19.9427 27.0331C19.9333 27.0805 19.9333 27.1279 19.9238 27.1754C19.9143 27.2228 19.9143 27.2607 19.9048 27.3081C19.8953 27.3555 19.8859 27.3934 19.8764 27.4408C19.8669 27.4883 19.8574 27.5262 19.8479 27.5736C19.8384 27.621 19.829 27.6589 19.8195 27.7063C19.81 27.7537 19.8005 27.7917 19.791 27.8391C19.7816 27.8865 19.7626 27.9244 19.7531 27.9718C19.7436 28.0098 19.7342 28.0572 19.7152 28.0951C19.7057 28.1425 19.6868 28.1804 19.6678 28.2278C19.6583 28.2658 19.6394 28.3132 19.6299 28.3511C19.6109 28.389 19.6014 28.4364 19.5825 28.4744C19.5635 28.5123 19.554 28.5597 19.5351 28.5976C19.5161 28.6356 19.4972 28.683 19.4782 28.7209C19.4592 28.7588 19.4403 28.7967 19.4213 28.8442C19.4024 28.8821 19.3834 28.92 19.3644 28.9674C19.3455 29.0053 19.3265 29.0433 19.3076 29.0812C19.2886 29.1191 19.2602 29.157 19.2412 29.2045C19.2222 29.2424 19.2033 29.2803 19.1748 29.3088C19.1464 29.3467 19.1274 29.3846 19.099 29.432C19.08 29.4699 19.0516 29.4984 19.0326 29.5363C19.0042 29.5742 18.9758 29.6122 18.9568 29.6501C18.9284 29.688 18.9094 29.7165 18.881 29.7544C18.8525 29.7923 18.8241 29.8303 18.7956 29.8587C18.7672 29.8871 18.7482 29.9251 18.7198 29.9535C18.6914 29.9914 18.6629 30.0199 18.625 30.0578C18.5966 30.0863 18.5681 30.1242 18.5492 30.1526C18.5207 30.1906 18.4828 30.219 18.4544 30.2569C18.4259 30.2854 18.3975 30.3138 18.369 30.3423C18.3311 30.3802 18.3027 30.4086 18.2648 30.4371C18.2363 30.4655 18.2079 30.494 18.1794 30.5224C18.1415 30.5509 18.1036 30.5888 18.0657 30.6172C18.0372 30.6457 18.0088 30.6647 17.9804 30.6931C17.9424 30.7215 17.9045 30.7595 17.8571 30.7879C17.8287 30.8069 17.8002 30.8353 17.7718 30.8543C17.7339 30.8827 17.696 30.9112 17.6486 30.9396C17.6201 30.9586 17.5917 30.987 17.5538 31.006C17.5158 31.0344 17.4779 31.0534 17.4305 31.0819C17.3926 31.1008 17.3641 31.1293 17.3262 31.1482C17.2883 31.1767 17.2409 31.1956 17.1935 31.2241C17.1651 31.243 17.1271 31.262 17.0987 31.281C17.0513 31.3094 17.0039 31.3284 16.9565 31.3473C16.9281 31.3663 16.8901 31.3853 16.8617 31.3948C16.8143 31.4137 16.7669 31.4422 16.7195 31.4611C16.6911 31.4706 16.6531 31.4896 16.6247 31.5085C16.5773 31.5275 16.5299 31.5465 16.4825 31.5654C16.4446 31.5749 16.4161 31.5939 16.3782 31.6034C16.3308 31.6223 16.2834 31.6413 16.2265 31.6508C16.1886 31.6602 16.1602 31.6792 16.1223 31.6887C16.0749 31.7077 16.018 31.7171 15.9706 31.7361C15.9327 31.7456 15.9042 31.7551 15.8663 31.7645C15.8094 31.774 15.762 31.793 15.7051 31.8025C15.6672 31.812 15.6388 31.8214 15.6009 31.8309C15.544 31.8404 15.4966 31.8499 15.4397 31.8594C15.4018 31.8688 15.3733 31.8688 15.3354 31.8783C15.288 31.8878 15.2406 31.8878 15.1932 31.8973C15.1553 31.9068 15.1079 31.9068 15.07 31.9163C15.0131 31.9257 14.9657 31.9257 14.9088 31.9257C14.8709 31.9257 14.833 31.9352 14.795 31.9352C14.7002 31.9352 14.6054 31.9447 14.5106 31.9447C14.4158 31.9447 14.321 31.9447 14.2262 31.9352C14.1978 31.9352 14.1788 31.9352 14.1504 31.9257C14.084 31.9257 14.0177 31.9163 13.9513 31.9068C13.9039 31.9068 13.866 31.8973 13.8186 31.8878C13.7712 31.8783 13.7238 31.8783 13.6764 31.8688C13.629 31.8594 13.5816 31.8499 13.5247 31.8404C13.4868 31.8309 13.4489 31.8309 13.4015 31.8214C13.3351 31.812 13.2688 31.793 13.2024 31.774C13.1834 31.7645 13.1645 31.7645 13.1455 31.7645C13.0792 31.7456 13.0128 31.7266 12.9464 31.7077C12.9275 31.6982 12.9085 31.6982 12.8896 31.6887C12.8137 31.6602 12.7284 31.6413 12.6525 31.6128C12.6431 31.6128 12.6431 31.6128 12.6336 31.6034C12.5577 31.5749 12.4819 31.5465 12.4061 31.518C12.3966 31.518 12.3871 31.5085 12.3871 31.5085C12.3113 31.4706 12.2259 31.4422 12.1501 31.4042C12.0743 31.3663 11.9984 31.3284 11.9226 31.2905H11.9131C11.0694 30.8258 10.3584 30.1526 9.85593 29.3277C9.80853 29.2614 9.77061 29.1855 9.73268 29.1096L9.7232 29.1002C9.68528 29.0338 9.64736 28.9579 9.61892 28.8916C9.61892 28.8821 9.60944 28.8726 9.60944 28.8631C9.581 28.7967 9.54308 28.7304 9.51464 28.6545C9.50516 28.645 9.50516 28.6356 9.49568 28.6166C9.46724 28.5502 9.4388 28.4838 9.41984 28.4175C9.41036 28.3985 9.41036 28.389 9.40088 28.3701C9.38192 28.3037 9.35348 28.2373 9.33452 28.1804C9.32504 28.1615 9.32504 28.1425 9.31556 28.1235C9.2966 28.0572 9.27764 28.0003 9.25868 27.9339C9.2492 27.9149 9.2492 27.8865 9.23972 27.8675C9.22076 27.8106 9.21128 27.7537 9.2018 27.6874C9.19232 27.6589 9.19232 27.6305 9.18284 27.602C9.17336 27.5451 9.16388 27.4883 9.1544 27.4314C9.14492 27.3934 9.14492 27.365 9.13544 27.3271C9.12596 27.2797 9.12596 27.2228 9.11648 27.1754C9.107 27.1374 9.107 27.0995 9.09752 27.0616C9.08804 27.0142 9.08804 26.9668 9.08804 26.9099C9.08804 26.8719 9.07856 26.8245 9.07856 26.7866C9.07856 26.7392 9.07856 26.6918 9.07856 26.6444C9.07856 26.597 9.07856 26.5496 9.07856 26.5021C9.07856 23.4964 11.5244 21.0596 14.5201 21.0596C17.5158 21.0596 19.9617 23.4964 19.9617 26.5021V26.5116C19.9712 26.5306 19.9617 26.578 19.9617 26.6254ZM20.9761 13.8724V2.01068H38.0023V13.8724H20.9761ZM8.95532 2.01068H20.0186V13.8724H1.74098V9.22632C1.74098 5.25345 4.98316 2.01068 8.95532 2.01068ZM1.74098 18.7745V14.8206H20.0281V23.2214C18.9094 21.3441 16.8617 20.083 14.5296 20.083C11.1831 20.083 8.43391 22.6715 8.15899 25.9522C4.51864 25.5445 1.74098 22.4914 1.74098 18.7745ZM45.5484 25.9806C45.2925 22.681 42.5338 20.083 39.1778 20.083C39.102 20.083 39.0261 20.083 38.9408 20.0925V14.8301H50.8478C51.701 16.3471 52.2793 17.741 52.3456 18.7935C52.3362 22.6241 49.331 25.7626 45.5484 25.9806Z" stroke="white" stroke-width="0.5" mask="url(#path-1-outside-1)"/>
</svg>
