<svg width="17" height="17" fill="currentColor" viewBox="0 0 17 17" xmlns="http://www.w3.org/2000/svg">
<path fill-rule="evenodd" clip-rule="evenodd" d="M2 7.5C2 4.46243 4.46243 2 7.5 2C10.5376 2 13 4.46243 13 7.5C13 10.5376 10.5376 13 7.5 13C4.46243 13 2 10.5376 2 7.5ZM7.5 0C3.35786 0 0 3.35786 0 7.5C0 11.6421 3.35786 15 7.5 15C9.21054 15 10.7873 14.4274 12.0491 13.4633L14.918 16.3323C15.3086 16.7228 15.9417 16.7228 16.3323 16.3323C16.7228 15.9417 16.7228 15.3086 16.3323 14.918L13.4633 12.0491C14.4274 10.7873 15 9.21054 15 7.5C15 3.35786 11.6421 0 7.5 0Z" />
</svg>
