<svg width="28px" height="17px" viewBox="0 0 28 17" version="1.1" xmlns="http://www.w3.org/2000/svg" xmlns:xlink="http://www.w3.org/1999/xlink">
  <path d="M18.3326,0.75 C19.0254541,0.75 19.5946354,1.27908271 19.6592005,1.95526521 L19.6653,2.08368 L19.665,3.999 L21.8265367,4.00226011 C22.2887296,4.00269763 22.7362069,4.14533976 23.1103784,4.40596899 L23.2660787,4.52482032 L23.4117779,4.65769542 L26.5853851,7.81703258 C26.9636018,8.19357925 27.1941352,8.69059442 27.239673,9.21805784 L27.2480052,9.41710806 L27.2407992,12.3318234 C27.2385402,13.2377069 26.6102423,13.9959541 25.7660177,14.1974296 L25.6148789,14.2271211 L25.517,14.238 L25.4699773,14.3979857 C25.1125996,15.4690287 24.1671377,16.2511347 23.0373555,16.3937949 L22.847421,16.4115907 L22.6642,16.4172 C21.4393219,16.4172 20.3681038,15.6653919 19.9242736,14.5730442 L19.8594779,14.3977983 L19.814,14.249 L13.057,14.249 L13.0133773,14.3979857 C12.6559996,15.4690287 11.7105377,16.2511347 10.5807555,16.3937949 L10.390821,16.4115907 L10.2076,16.4172 C8.98273391,16.4172 7.91150857,15.6653786 7.46770647,14.573034 L7.40291557,14.3977887 L7.358,14.249 L6.41735,14.2499 C5.81101296,14.2499 5.29953776,13.8454048 5.13789957,13.2914183 L5.108,13.167 L4.79235,13.1672 C4.4276228,13.1672 4.1205451,12.920929 4.02831718,12.5855575 L4.00725149,12.4824303 L4.00002,12.3749 C4.00002,11.9708997 4.30221944,11.6376502 4.69367382,11.588773 L4.79327366,11.5826017 L5.083,11.583 L5.083,9.918 L3.70868,9.91828 C3.34418623,9.91828 3.03694597,9.67147472 2.94465737,9.33635306 L2.92357704,9.23332555 L2.91634,9.12595 C2.91634,8.72479615 3.21431853,8.39416241 3.60113819,8.34184258 L3.70868,8.33463 L5.083,8.334 L5.083,6.667 L2.625,6.6673 C2.26031656,6.6673 1.95391108,6.42103831 1.86190601,6.08564485 L1.84089262,5.98250999 L1.83368,5.87497 C1.83368,5.47377141 2.13084324,5.14317496 2.5174887,5.09086165 L2.625,5.08365 L5.083,5.083 L5.084,3.416 L1.54233,3.41632 C1.17756298,3.41632 0.870511826,3.17069698 0.778293859,2.83556868 L0.757230582,2.73250114 L0.75,2.625 C0.75,2.22452054 1.04820988,1.89332481 1.43484832,1.84090663 L1.54233,1.83368 L5.108,1.833 C5.21054763,1.30041181 5.62613326,0.881669129 6.15462419,0.775910734 L6.28898329,0.756106884 L6.41735,0.75 L18.3326,0.75 Z M10.2077,12.0826 C9.45020237,12.0826 8.83367,12.6996199 8.83367,13.4575 C8.83367,14.216098 9.44982049,14.8325 10.2077,14.8325 C10.9663657,14.8325 11.5827,14.2161919 11.5827,13.4575 C11.5827,12.699526 10.9659837,12.0826 10.2077,12.0826 Z M22.6663,12.0826 C21.9085843,12.0826 21.2913,12.6998581 21.2913,13.4575 C21.2913,14.2158599 21.9082021,14.8325 22.6663,14.8325 C23.4250288,14.8325 24.0413,14.2162288 24.0413,13.4575 C24.0413,12.699489 23.4246468,12.0826 22.6663,12.0826 Z M16.3333,2.33462 L8.41925,2.33462 C7.50113575,2.33462 6.74814254,3.04164156 6.67506349,3.94093664 L6.66925,4.08445339 L6.66853,11.7797 C6.66853,12.1945042 6.95294838,12.5427611 7.33740407,12.6400992 L7.366,12.645 L7.40363856,12.5193824 C7.78011131,11.389037 8.81303299,10.5800004 10.0255371,10.5055124 L10.2087,10.4999 C11.498842,10.4999 12.6181753,11.3328318 13.0144407,12.519291 L13.059,12.667 L16.332,12.6672 C17.2500374,12.6672 18.0030208,11.960265 18.0761741,11.0610557 L18.082,10.9175524 L18.0833001,4.08495475 C18.083475,3.1183268 17.2999143,2.33462 16.3333,2.33462 Z M19.666,5.584 L19.6654999,12.5883375 C19.6654999,12.6318781 19.7007904,12.6672 19.7444,12.6672 C19.7839571,12.6672 19.8251074,12.6345187 19.8411278,12.5826431 C20.2205865,11.3537132 21.3603702,10.4999 22.6664,10.4999 C23.9736135,10.4999 25.1148199,11.3562936 25.4938412,12.5871671 C25.5089764,12.6363481 25.5478407,12.6672 25.585,12.6672 C25.6155701,12.6672 25.6418156,12.6486407 25.6530566,12.6221825 L25.6589005,12.5934863 L25.6645085,9.8662763 C25.6653437,9.4579827 25.5234833,9.06421852 25.2664898,8.75157379 L25.1493812,8.62274383 L22.6124903,6.0960929 C22.3257617,5.81055103 21.9503327,5.6344594 21.5511555,5.59466947 L21.378815,5.58603993 L19.666,5.584 Z" fill="currentColor"></path>
</svg>
