<svg width="15" height="11" viewBox="0 0 15 11" fill="none" xmlns="http://www.w3.org/2000/svg">
<path d="M11.7266 10.1542C11.261 10.1542 10.8416 9.88846 10.664 9.48131C10.4858 9.07474 10.5844 8.60568 10.9131 8.29434C11.2418 7.98299 11.7365 7.88953 12.1663 8.05835C12.5962 8.22658 12.8768 8.62379 12.8768 9.06483C12.8768 9.35339 12.7553 9.63086 12.5394 9.8353C12.3242 10.0392 12.0313 10.1542 11.7266 10.1542ZM14.6043 6.09617V8.47954C14.6043 8.59754 14.555 8.71086 14.4662 8.79498C14.378 8.87851 14.2583 8.92524 14.1331 8.92524H13.5004C13.4251 8.05078 12.653 7.37721 11.7267 7.37721C10.7998 7.37721 10.0282 8.05072 9.95246 8.92524H5.61389C5.53803 8.05078 4.76651 7.37721 3.83962 7.37721C2.91273 7.37721 2.14113 8.05072 2.06535 8.92524H1.83655C1.5763 8.92524 1.36537 8.72547 1.36537 8.47954V6.13715H3.16616C3.35611 6.13715 3.53744 6.06121 3.6651 5.92803C3.79276 5.79426 3.85504 5.61611 3.83654 5.43676C3.79275 5.1038 3.49118 4.85555 3.13717 4.86079H0.923681C0.783685 4.86138 0.64862 4.8088 0.549329 4.71476C0.450036 4.62071 0.394531 4.49337 0.394531 4.36019C0.394531 4.22759 0.450036 4.09966 0.549329 4.00619C0.648622 3.91215 0.783688 3.85958 0.923681 3.85958H5.09648C5.28643 3.85958 5.46775 3.78364 5.59542 3.64988C5.72369 3.51669 5.78536 3.33795 5.76686 3.15861C5.72307 2.82564 5.42149 2.57797 5.06749 2.58322H1.36534V1.46401C1.36534 1.29986 1.43441 1.14215 1.55713 1.0259C1.67986 0.909656 1.84637 0.844238 2.01968 0.844238H9.97847C10.1524 0.844238 10.3183 0.909662 10.441 1.0259C10.5637 1.14214 10.6328 1.29986 10.6328 1.46401V3.35255H13.1336C13.2453 3.35255 13.347 3.41213 13.397 3.50617L14.4621 5.52376C14.5558 5.70134 14.6045 5.89761 14.6045 6.09621L14.6043 6.09617ZM14.0159 5.92561L12.9515 3.90981H10.6325V6.08861H14.0159L14.0159 5.92561ZM4.98956 9.06475C4.98956 8.62373 4.70958 8.2265 4.27971 8.05827C3.84985 7.88946 3.35524 7.98292 3.02592 8.29426C2.69721 8.6056 2.59853 9.07468 2.77676 9.48182C2.955 9.88839 3.37438 10.1542 3.83938 10.1542C4.14466 10.1542 4.43699 10.0391 4.65283 9.83522C4.86807 9.63077 4.98956 9.3533 4.98956 9.06475Z" fill="currentColor" fill-opacity="0.85"/>
</svg>
