<svg width="22" height="20" fill="none" xmlns="http://www.w3.org/2000/svg">
<path d="M.87 9.025l4.073 2.958c.466.338.66.938.483 1.484L3.87 18.256c-.397 1.223 1.004 2.24 2.045 1.485l4.074-2.96a1.326 1.326 0 011.56 0l4.075 2.96c1.04.755 2.441-.262 2.044-1.485l-1.556-4.789a1.325 1.325 0 01.483-1.484l4.073-2.958c1.04-.757.507-2.403-.78-2.403H14.85c-.575 0-1.087-.37-1.264-.917L12.033.918c-.398-1.224-2.129-1.224-2.528 0L7.948 5.705a1.326 1.326 0 01-1.263.917H1.65c-1.287 0-1.82 1.646-.78 2.403z" fill="currentColor"/>
</svg>