<svg width="23px" height="21px" viewBox="0 0 23 21" version="1.1" xmlns="http://www.w3.org/2000/svg" xmlns:xlink="http://www.w3.org/1999/xlink">
  <path d="M11.6302,0.02617 C12.487691,0.02617 13.2632421,0.472314262 13.6871521,1.1968705 L13.7725094,1.35633283 L15.7021623,5.25394958 C15.7729466,5.39694872 15.8988788,5.50342073 16.0489925,5.55087261 L16.1417147,5.57208139 L20.4488505,6.19313191 C21.3556003,6.32554723 22.0946669,6.94847014 22.3808364,7.82336521 C22.6437696,8.63649616 22.4597644,9.50783398 21.9015058,10.1411136 L21.7761771,10.2730647 L18.6652278,13.3127659 C18.5511723,13.4241453 18.4887264,13.5768501 18.4899176,13.7337399 L18.4983649,13.8280789 L19.2392773,18.1149918 C19.3945802,19.0194029 19.031175,19.9149731 18.2884917,20.4563696 C17.5969919,20.9590478 16.7114309,21.0539192 15.9348697,20.7185367 L15.7702425,20.6400753 L11.9195191,18.6209251 C11.7774602,18.5464929 11.6133975,18.5342964 11.4640418,18.584334 L11.3764869,18.6218247 L7.53364327,20.6476915 C6.72202514,21.0780873 5.75443574,21.0094747 5.00687467,20.4681931 C4.31522702,19.9640574 3.95101022,19.1500941 4.03146406,18.3112427 L4.05555307,18.1312117 L4.78578572,13.8446426 C4.81271817,13.686185 4.77362615,13.5261882 4.67993651,13.3996458 L4.61726243,13.3280149 L1.49958929,10.2955285 C0.982523475,9.79207598 0.723160699,9.09654544 0.783722032,8.38189881 L0.805563458,8.20293899 L0.830232039,8.08020148 L0.858726759,7.96246882 L0.892063353,7.84464307 C1.15554316,7.02997999 1.81766408,6.4307158 2.64210631,6.24676254 L2.82117089,6.21377364 L7.12532628,5.58269385 C7.28364483,5.55957285 7.42355333,5.4730803 7.51475408,5.34524385 L7.56338722,5.26375694 L9.48381277,1.36102216 C9.85512937,0.607552255 10.5721325,0.119346048 11.4199679,0.0375066876 L11.6302,0.02617 Z M11.7243781,1.93436154 L11.6143588,1.92609549 C11.4582452,1.93035802 11.3244254,2.00042596 11.2357535,2.1218796 L11.1881509,2.20080271 L9.26822205,6.10252871 C8.93553102,6.77962165 8.3144935,7.26502124 7.58463252,7.42861533 L7.40000401,7.46273428 L3.09668948,8.09369104 C2.9370707,8.11700016 2.80935794,8.20638766 2.73908272,8.33380369 L2.70401435,8.41459233 L2.68051816,8.50957276 C2.66047781,8.63536256 2.6891651,8.75782387 2.76207518,8.86081401 L2.82497913,8.93415354 L5.94192211,11.9659295 C6.48299603,12.4914341 6.7529039,13.231625 6.683397,13.9768084 L6.65890964,14.1630869 L5.92851839,18.4505863 C5.89576618,18.6410977 5.96793401,18.817546 6.12551241,18.9324047 C6.25644683,19.0272075 6.41036302,19.0523375 6.55703723,19.0055789 L6.64393093,18.9688795 L10.4903633,16.9411151 C11.1578487,16.5889036 11.9449712,16.5608525 12.6318683,16.8571435 L12.8013774,16.9379735 L16.6523469,18.9572528 C16.8248091,19.0473986 17.0145764,19.0334563 17.1710857,18.9196838 C17.3021927,18.82411 17.3735655,18.6859337 17.3746154,18.5313042 L17.3667218,18.4367613 L16.6261174,14.1516357 C16.4977611,13.4083937 16.7148575,12.6504531 17.208574,12.08947 L17.3377262,11.95345 L20.4482773,8.91413784 C20.5872035,8.77830053 20.6328277,8.59295914 20.573211,8.40858864 C20.5229573,8.25495572 20.4130088,8.14396832 20.2666531,8.09501533 L20.1746571,8.07324278 L15.8704557,7.45261813 C15.1235757,7.34453452 14.4700405,6.90460307 14.0888766,6.2617213 L13.9993636,6.09684731 L12.0692377,2.1982671 C11.9992231,2.05470145 11.8759948,1.96145557 11.7243781,1.93436154 Z" fill="currentColor"></path>
</svg>
