<svg width="10" height="10" viewBox="0 0 10 10" fill="none" xmlns="http://www.w3.org/2000/svg">
<path d="M5.66134 1.07237C5.51251 0.924324 5.31838 0.830575 5.11018 0.806355L2.495 0.506358C2.21297 0.473155 1.93173 0.571201 1.73173 0.772375L0.772357 1.73175C0.571579 1.93174 0.47314 2.21299 0.50634 2.49463L0.806337 5.10981C0.830556 5.31839 0.924306 5.51253 1.07235 5.66136L4.63952 9.22813C5.0028 9.59062 5.59068 9.59062 5.95401 9.22813L9.22818 5.95396C9.59068 5.59068 9.59068 5.0028 9.22818 4.63947L5.66134 1.07237ZM8.79841 5.52393L5.52384 8.7981C5.39845 8.92349 5.19494 8.92349 5.06955 8.7981L1.50238 5.23133C1.45121 5.17977 1.41879 5.11258 1.41058 5.04072L1.1102 2.42554C1.09887 2.32827 1.13285 2.23101 1.20238 2.16187L2.16176 1.2025C2.2309 1.13297 2.32816 1.09898 2.42542 1.11071L5.0406 1.4107C5.11247 1.4193 5.17966 1.45133 5.23122 1.5025L8.79798 5.06967C8.92337 5.19505 8.9238 5.39854 8.79841 5.52393Z" fill="currentColor" stroke="currentColor" stroke-width="0.75"/>
<circle cx="3.5419" cy="3.54031" r="1.04166" fill="currentColor"/>
</svg>
