<svg width="13" height="13" viewBox="0 0 13 13" fill="none" xmlns="http://www.w3.org/2000/svg">
<path d="M7.29328 1.68685C7.11468 1.50919 6.88171 1.39669 6.63187 1.36763L3.49363 1.00763C3.1552 0.967786 2.8177 1.08544 2.5777 1.32685L1.42644 2.47811C1.18551 2.71811 1.06738 3.05561 1.10722 3.39358L1.46722 6.53182C1.49628 6.78213 1.60878 7.01509 1.78644 7.19369L6.06708 11.4739C6.50302 11.9089 7.20849 11.9089 7.64448 11.4739L11.5735 7.54481C12.0085 7.10887 12.0085 6.40341 11.5735 5.96741L7.29328 1.68685ZM11.0578 7.02877L7.12828 10.9578C6.97781 11.1083 6.73359 11.1083 6.58312 10.9578L2.30248 6.67765C2.24107 6.61578 2.20216 6.53515 2.19232 6.44891L1.83185 3.31067C1.81826 3.19395 1.85904 3.07723 1.94248 2.99427L3.09373 1.84301C3.1767 1.75957 3.29343 1.71879 3.41014 1.73285L6.54838 2.09285C6.63463 2.10317 6.71525 2.1416 6.77712 2.20301L11.0573 6.48365C11.2078 6.63412 11.2083 6.87831 11.0578 7.02877Z" fill="currentColor" stroke="currentColor" stroke-width="0.75"/>
<circle cx="4.75" cy="4.64844" r="1.25" fill="currentColor"/>
</svg>
