<svg width="24" height="24" viewBox="0 0 24 24" fill="none" xmlns="http://www.w3.org/2000/svg">
<path d="M13.4696 3.27193C13.1389 2.94294 12.7074 2.73461 12.2448 2.68078L6.43331 2.01413C5.80659 1.94034 5.1816 2.15822 4.73716 2.60527L2.60524 4.7372C2.15906 5.18164 1.94031 5.80663 2.01409 6.43248L2.68075 12.244C2.73456 12.7075 2.9429 13.1389 3.27189 13.4696L11.1989 21.3957C12.0062 22.2013 13.3126 22.2013 14.12 21.3957L21.3958 14.1198C22.2014 13.3126 22.2014 12.0062 21.3958 11.1988L13.4696 3.27193ZM20.4408 13.1642L13.164 20.4401C12.8854 20.7188 12.4331 20.7188 12.1545 20.4401L4.2275 12.514C4.11379 12.3994 4.04174 12.2501 4.02351 12.0904L3.35599 6.27895C3.33081 6.06281 3.40633 5.84667 3.56085 5.69303L5.69277 3.5611C5.84641 3.40659 6.06256 3.33106 6.27869 3.35711L12.0902 4.02377C12.2499 4.04287 12.3992 4.11405 12.5138 4.22776L20.4399 12.1548C20.7185 12.4334 20.7195 12.8856 20.4408 13.1642Z" fill="currentColor" stroke="currentColor" stroke-width="0.5"/>
<circle cx="8.75619" cy="8.75899" r="2.06478" fill="currentColor" stroke="currentColor" stroke-width="0.5"/>
</svg>
