<svg width="22px" height="19px" viewBox="0 0 22 19" version="1.1" xmlns="http://www.w3.org/2000/svg" xmlns:xlink="http://www.w3.org/1999/xlink">
  <path d="M13.3434,0.65 C13.5449957,0.65 13.7433926,0.675240287 13.9383897,0.72599026 L14.1322459,0.78525344 L14.3160123,0.858654606 L14.5132372,0.947468775 C15.5474947,1.41253221 16.1900363,2.59552234 16.0513441,3.72402439 L16.0246323,3.89279448 L15.9868268,4.05582453 L15.351,6.41 L18.782,6.41081 C20.010293,6.41081 21.0673894,7.2418401 21.3811432,8.38727252 L21.4208467,8.55298873 L21.4500659,8.72264782 L21.467972,8.89355296 L21.4744752,9.05674227 C21.5284311,9.72811976 21.525671,10.253357 21.4515684,10.5498585 C20.701754,13.5824485 18.4074143,17.7509687 17.0377148,18.3448116 L16.928733,18.3850346 L16.8132652,18.4090752 L16.7029,18.4168 L10.57265,18.4168 C9.20770203,18.4168 8.06746276,17.3929371 7.90003004,16.0584591 L7.88422177,15.8900831 L7.87906,15.7232 L7.87906,9.10448 C7.87906,8.49088465 8.99662708,6.12539873 11.1742736,2.02326501 C11.5520788,1.19364223 12.4108123,0.65 13.3434,0.65 Z M13.337,2.288 L13.2293349,2.29690485 C13.0461127,2.32401843 12.8794188,2.41699649 12.7607048,2.55664435 L12.6954856,2.64587988 L11.9361146,4.09209145 C10.7408845,6.39754117 9.77089414,8.3995214 9.55592789,8.99522433 L9.51406999,9.12532846 L9.51523,15.7231 C9.51523,16.224243 9.86759968,16.6501701 10.3399097,16.7544166 L10.4509277,16.772651 L10.571365,16.7793 L16.4975234,16.7932669 L16.5199126,16.7800999 C17.2862499,16.2450042 19.0592006,12.8866297 19.7372156,10.6133581 L19.8033631,10.3822231 L19.8627341,10.1544047 C19.8726032,10.1154785 19.8753135,9.95718099 19.870416,9.75608629 L19.8563933,9.41585802 L19.8369355,9.13876824 L19.836,9.1057 C19.836,8.60455395 19.4836654,8.17866711 19.0113607,8.07443094 L18.9003435,8.05619837 L18.7799,8.04955 L14.2808,8.04955 C14.0254115,8.04955 13.7854567,7.93108338 13.6307701,7.72819861 C13.5280801,7.59351171 13.4701438,7.43212197 13.4633832,7.26224709 L13.4680085,7.13353461 L13.4902658,7.01735319 L14.4034189,3.63027735 C14.5025626,3.26177707 14.3359576,2.80717484 14.0323553,2.56077253 L13.9372935,2.49339214 L13.8391896,2.44138527 L13.6500525,2.35591315 L13.5518347,2.31909633 L13.4513013,2.29661578 L13.337,2.288 Z" fill="currentColor"></path>
  <path d="M6.40729,6.55437 C6.82035775,6.55437 7.17994164,6.80418132 7.28565383,7.16481711 L7.30803953,7.26581562 L7.31588,7.37308 L7.31588,17.4586 C7.31588,17.8423705 7.02771272,18.1604134 6.6321231,18.2509979 L6.52170746,18.2699417 L6.4087,18.2761086 L1.558591,18.2761086 C1.14552724,18.2761086 0.785940109,18.0262961 0.680226624,17.6656621 L0.657840622,17.5646641 L0.65,17.4574 L0.65,7.37308 C0.65,6.98939313 0.937870578,6.67167528 1.3342309,6.58014164 L1.44488423,6.56090617 L1.558591,6.55437 L6.40729,6.55437 Z M5.497,8.191 L2.465,8.191 L2.465,16.639 L5.497,16.639 L5.497,8.191 Z" fill="currentColor"></path>
</svg>
