<svg xmlns="http://www.w3.org/2000/svg" width="40" height="39" fill="none" viewBox="0 0 40 39">
  <path stroke="currentColor" stroke-linejoin="round" stroke-width="2" d="M10.842 15.666a2.01 2.01 0 00-.144 1l.105.933c.07.63.81 2.392 1.198 2.892m-.196-.304l2.196 3.804c.783 1.672 2.945 2.564 4.808 2.564h.381c1.863 0 3.811-1.064 4.811-2.064l2-4m-.744 1c.548-.325 1.869-3.263 1.94-3.892l.104-.933a2.011 2.011 0 00-.144-1"/>
  <path fill="currentColor" d="M13.631 26.943a1 1 0 011.99.195l-.092.94-.002.018c-.042.372-.142.73-.29 1.06-.147.325-.341.628-.582.896l.002-.002-.746-.666.743.67.002-.002c-.206.23-.506.406-.658.494a10.6 10.6 0 01-.272.151l-.038.02-.143.079c-.1.057-.21.097-.323.117l-5.027.886-1.38.24-.046.008c-1.012.128-1.871.853-2.285 1.924l-1.365 3.52H.975l1.644-4.242c.632-1.636 2.032-2.94 3.874-3.183l1.358-.237 4.86-.857.064-.034c.077-.042.151-.082.222-.123a2.432 2.432 0 00.188-.12c.089-.102.166-.223.228-.36.063-.14.107-.295.127-.461l.091-.93z"/>
  <path fill="currentColor" fill-rule="evenodd" d="M37.022 37.49l-1.658-4.285c-.623-1.612-1.994-2.909-3.807-3.173-.45-.073-.9-.15-1.351-.23l-4.938-.913a4.471 4.471 0 00-.27-.114l-.131-.054a2.36 2.36 0 01-.133-.06 1.569 1.569 0 01-.325-.787l-.09-.93a1 1 0 10-1.991.196l.092.94.002.02c.088.743.398 1.422.87 1.952.154.172.335.282.443.342.122.068.248.124.349.167l.19.079.08.032a2.184 2.184 0 01.097.043c.098.056.204.095.315.116l5.088.94c.463.082.925.16 1.39.236l.018.003c.99.143 1.829.863 2.236 1.916l1.38 3.565h2.144z" clip-rule="evenodd"/>
  <path stroke="currentColor" stroke-width="2" d="M24.148 29.666l-.236.162c-2.895 2-6.083 2.155-9.131.397l-.97-.56M27.174 15.482a3.49 3.49 0 01-1.231-.223h.001l-.919-.345a16.256 16.256 0 00-11.98.215l-.676.282a3.146 3.146 0 01-1.178.387 1.251 1.251 0 01-1.252-1.314l.485-9.46a2.745 2.745 0 011.41-2.26c4.221-2.352 10.093-2.352 14.315 0a2.755 2.755 0 011.412 2.26v.002l.5 9.525a.883.883 0 01-.242.655.893.893 0 01-.645.276zm0 0h.001"/>
  <path stroke="currentColor" stroke-width="2" d="M9.938 10.802h.812c.496 0 .986-.097 1.444-.286l.86-.354A16.462 16.462 0 0125.03 9.95l.831.308.002-.002a3.79 3.79 0 001.317.236h.883"/>
  <path fill="white" d="M30.5 38.49c.49-1.097 2.08-4.49 2.57-5.588a5.19 5.19 0 005.22-4.047c.385-1.729-.157-3.477-1.324-4.708l-1.604 3.646-3.687-1.642 1.603-3.646c-1.7-.043-3.36.722-4.385 2.167a5.19 5.19 0 00.488 6.587L26 37.991"/>
  <path fill="currentColor" fill-rule="evenodd" d="M33.297 21.755c-1.935-.049-3.837.823-5.015 2.482a5.935 5.935 0 00.203 7.134l-3.073 6.12h1.678l2.96-5.895a.75.75 0 00-.126-.854 4.44 4.44 0 01-.42-5.636 4.39 4.39 0 012.57-1.727l-1.086 2.47a.75.75 0 00.381.987l3.688 1.642a.75.75 0 00.992-.383l1.08-2.455c.492.914.666 1.99.429 3.052a4.441 4.441 0 01-4.468 3.46.75.75 0 00-.705.444c-.238.533-.74 1.618-1.252 2.723l-.029.062c-.352.76-.706 1.524-.974 2.11h1.65l.685-1.48.035-.075c.394-.852.788-1.701 1.057-2.292a5.937 5.937 0 005.465-4.625c.443-1.986-.183-3.986-1.512-5.388a.75.75 0 00-1.23.214l-1.3 2.957-2.318-1.032 1.303-2.963a.75.75 0 00-.668-1.052z" clip-rule="evenodd"/>
</svg>
