<svg width="32" height="30" viewBox="0 0 32 30" fill="none" xmlns="http://www.w3.org/2000/svg">
<path d="M22.5955 12.1275C22.0887 11.4305 21.109 11.2313 20.3995 11.7292C20.2982 11.7956 20.1631 11.8952 20.0955 11.9947L18.9806 13.2892L14.3185 5.78801C13.8793 5.0578 12.8995 4.82547 12.1563 5.25695C11.9198 5.38972 11.7171 5.58886 11.582 5.8212L1.21036 24.0099C0.771169 24.7733 1.04144 25.7027 1.81847 26.1341C2.05495 26.2669 2.32522 26.3333 2.59549 26.3333H29.4198C30.2982 26.3333 31.0077 25.6363 31.0077 24.7733C31.0077 24.4746 30.9063 24.1759 30.7374 23.9103L22.5955 12.1275ZM20.8725 12.6586C20.9739 12.5258 21.1428 12.4594 21.3117 12.4926C21.4806 12.4926 21.6158 12.5922 21.7171 12.7249L23.9131 15.8781L21.8523 17.9028L19.555 14.2185L20.8725 12.6586ZM12.4941 6.35226C12.5955 6.1863 12.7644 6.08673 12.9333 6.08673C13.1023 6.08673 13.2712 6.1863 13.3725 6.31907L17.9671 13.6875L16.4468 14.6168C16.2441 14.7164 16.0077 14.7164 15.8387 14.5836L14.4198 13.4883C13.8455 13.0237 13.0347 13.0237 12.4266 13.4883L11.0414 14.5836C10.8725 14.7164 10.636 14.7496 10.4333 14.6168L8.47387 13.3556L12.4941 6.35226ZM2.59549 25.3044C2.29144 25.3044 2.05495 25.072 2.05495 24.7733C2.05495 24.6737 2.08874 24.6074 2.12252 24.5078L7.96712 14.2849L9.89279 15.4798C10.4671 15.8449 11.2104 15.7785 11.7171 15.3802L13.1023 14.2849C13.305 14.119 13.5752 14.119 13.7779 14.2849L15.1968 15.3802C15.7036 15.7785 16.4468 15.8449 16.9874 15.513L18.5414 14.5836L24.6901 24.4746C24.8252 24.7069 24.7577 25.0388 24.5212 25.1716C24.4536 25.238 24.3523 25.238 24.2509 25.238H2.59549V25.3044ZM29.8928 25.0388C29.7914 25.2048 29.6225 25.3044 29.4198 25.3044H25.7036C25.8725 24.8729 25.8387 24.375 25.5685 23.9767L22.359 18.7989L24.4874 16.7411L29.8252 24.5078C29.9604 24.6405 29.9604 24.8397 29.8928 25.0388Z" fill="currentColor" stroke="currentColor" stroke-width="0.3"/>
<path d="M25.0619 3C23.3051 3 21.8862 4.39403 21.8862 6.11996C21.8862 7.8459 23.3051 9.23992 25.0619 9.23992C26.8187 9.23992 28.2376 7.8459 28.2376 6.11996C28.2376 4.39403 26.8187 3 25.0619 3ZM25.0619 8.17781C23.8795 8.17781 22.9673 7.24846 22.9673 6.11996C22.9673 4.99146 23.9133 4.06211 25.0619 4.06211C26.2443 4.06211 27.1565 4.99146 27.1565 6.11996C27.1565 7.24846 26.2443 8.17781 25.0619 8.17781Z" fill="currentColor" stroke="currentColor" stroke-width="0.3"/>
</svg>
