<svg xmlns="http://www.w3.org/2000/svg" width="30" height="30" viewBox="0 0 30 30">
<g id="Layer_2" data-name="Layer 2"><g id="Layer_1-2" data-name="Layer 1">
<circle cx="15" cy="15" r="1.73" fill="currentColor"/>
<line x1="15" y1="15" x2="22.76" y2="8.28" fill="none" stroke="currentColor" stroke-linecap="round" stroke-miterlimit="10" stroke-width="1.55"/>
<path d="M12.41,6.21A9.78,9.78,0,0,1,19,8.79L22.4,6A11.69,11.69,0,0,0,4.06,10.88,9.8,9.8,0,0,1,12.41,6.21Z" fill="currentColor"/>
<path d="M15,0A15,15,0,1,0,30,15,15,15,0,0,0,15,0Zm1.51,1.88a13.2,13.2,0,0,1,9.74,20,5.12,5.12,0,0,1-3.66,2.33l-.55.07a7.81,7.81,0,0,1-2.62-.46,12.8,12.8,0,0,0-8.84,0A7.81,7.81,0,0,1,8,24.31l-.66-.1a5.12,5.12,0,0,1-3.6-2.37,13.22,13.22,0,0,1,12.81-20Z" fill="currentColor"/>
</g></g></svg>