<svg xmlns="http://www.w3.org/2000/svg" width="29.3" height="27.8" viewBox="0 0 29.3 27.8">
    <g id="Layer_2" data-name="Layer 2">
        <g id="All_Weather" data-name="All Weather">
        <path d="M28.65,27.15H.65L6.34,15.54l2.38,2.32L15.65.65l3,12.11L22.48,10Z" fill="none" stroke="currentColor" stroke-linejoin="round" stroke-width="1.3"/>
        <circle cx="16.11" cy="19.7" r="1.64"/>
        <path d="M10.87,22.69a.37.37,0,0,0,.3.16.42.42,0,0,0,.16,0l1.13-.66v1.31a.34.34,0,0,0,.34.34.33.33,0,0,0,.33-.34v-1.7l2.61-1.51v3l-1.47.86a.34.34,0,0,0-.12.46.35.35,0,0,0,.29.16.38.38,0,0,0,.16,0l1.14-.66v1.31a.34.34,0,1,0,.67,0V24.05l1.14.66a.42.42,0,0,0,.16,0,.35.35,0,0,0,.29-.16.34.34,0,0,0-.12-.46l-1.47-.86v-3L19,21.76v1.7a.33.33,0,0,0,.33.34.34.34,0,0,0,.34-.34V22.15l1.13.66a.53.53,0,0,0,.16,0,.37.37,0,0,0,.3-.16.34.34,0,0,0-.12-.46L20,21.58l1.14-.66a.33.33,0,0,0,.12-.45.33.33,0,0,0-.46-.12l-1.47.85-2.59-1.52,2.61-1.51,1.47.85a.29.29,0,0,0,.16,0,.33.33,0,0,0,.17-.61L20,17.79l1.14-.65a.34.34,0,0,0,.12-.46.33.33,0,0,0-.45-.12l-1.14.66V15.91a.34.34,0,1,0-.67,0V17.6l-2.61,1.5v-3l1.47-.86a.33.33,0,1,0-.33-.57l-1.14.65V14a.33.33,0,0,0-.33-.33.34.34,0,0,0-.34.33V15.3l-1.13-.65a.33.33,0,0,0-.46.12.33.33,0,0,0,.12.45l1.47.86v3l-2.6-1.51v-1.7a.33.33,0,0,0-.34-.33.32.32,0,0,0-.33.33V17.2l-1.14-.65a.33.33,0,1,0-.33.57l1.13.66L11,18.43a.33.33,0,0,0,.17.62.29.29,0,0,0,.16,0l1.47-.86,2.61,1.53-2.61,1.51-1.47-.86a.33.33,0,0,0-.45.12.33.33,0,0,0,.12.46l1.13.65L11,22.22A.36.36,0,0,0,10.87,22.69Z" fill="currentColor"/>
        </g>
    </g>
</svg>