<svg width="30" height="30" viewBox="0 0 30 30" fill="none" xmlns="http://www.w3.org/2000/svg">
<mask id="mask0" mask-type="alpha" maskUnits="userSpaceOnUse" x="3" y="25" width="7" height="5">
<rect x="3" y="25" width="7" height="5" fill="white"/>
</mask>
<g mask="url(#mask0)">
<rect x="4" y="23" width="5" height="7" rx="2" fill="currentColor"/>
</g>
<mask id="mask1" mask-type="alpha" maskUnits="userSpaceOnUse" x="19" y="25" width="8" height="5">
<rect x="19" y="25" width="8" height="5" fill="white"/>
</mask>
<g mask="url(#mask1)">
<rect x="21" y="22" width="5" height="8" rx="2" fill="currentColor"/>
</g>
<mask id="path-5-inside-1" fill="white">
<path fill-rule="evenodd" clip-rule="evenodd" d="M2 4C2 1.79086 3.79086 0 6 0H24C26.2091 0 28 1.79086 28 4V18V19V20V26H2V20V19V18V4Z"/>
</mask>
<path d="M28 26V27.3H29.3V26H28ZM2 26H0.7V27.3H2V26ZM6 -1.3C3.07289 -1.3 0.7 1.07289 0.7 4H3.3C3.3 2.50883 4.50883 1.3 6 1.3V-1.3ZM24 -1.3H6V1.3H24V-1.3ZM29.3 4C29.3 1.07289 26.9271 -1.3 24 -1.3V1.3C25.4912 1.3 26.7 2.50883 26.7 4H29.3ZM29.3 18V4H26.7V18H29.3ZM29.3 19V18H26.7V19H29.3ZM26.7 19V20H29.3V19H26.7ZM26.7 20V26H29.3V20H26.7ZM28 24.7H2V27.3H28V24.7ZM3.3 26V20H0.7V26H3.3ZM3.3 20V19H0.7V20H3.3ZM0.7 18V19H3.3V18H0.7ZM0.7 4V18H3.3V4H0.7Z" fill="currentColor" mask="url(#path-5-inside-1)"/>
<circle cx="7.5" cy="19.5" r="1" fill="currentColor" stroke="currentColor"/>
<circle cx="22.5" cy="19.5" r="1" fill="currentColor" stroke="currentColor"/>
<path d="M6.65 10C6.65 9.25442 7.25442 8.65 8 8.65H22C22.7456 8.65 23.35 9.25442 23.35 10V14.35H6.65V10Z" stroke="currentColor" stroke-width="1.3"/>
<rect x="11" y="21" width="8" height="1" rx="0.5" fill="currentColor"/>
<rect x="11" y="19" width="8" height="1" rx="0.5" fill="currentColor"/>
<rect x="11" y="17" width="8" height="1" rx="0.5" fill="currentColor"/>
</svg>
