<svg width="31" height="30" viewBox="0 0 31 30" fill="none" xmlns="http://www.w3.org/2000/svg">
<path d="M29.8253 12.5215L29.8256 12.523C30.1555 14.1723 30.1558 15.8223 29.8253 17.6402L29.825 17.6419C28.5042 25.7319 20.7435 31.0192 12.6477 29.6979C6.36838 28.5408 1.41525 23.7498 0.424687 17.4762L0.424603 17.4757C-0.89695 9.38116 4.55483 1.61853 12.6467 0.297405C20.7396 -1.02388 28.3384 4.42623 29.8253 12.5215ZM26.3455 22.3739L26.3459 22.3741L26.3507 22.3663C27.6891 20.1914 28.5271 17.6793 28.5271 14.9976C28.5271 8.46406 23.6699 2.7683 17.3023 1.76277C10.0962 0.589824 3.22863 5.6171 2.05623 12.9865L2.05621 12.9866C1.55356 16.1701 2.22382 19.5206 4.06638 22.3682L4.06618 22.3683L4.07034 22.3739C5.09335 23.7379 6.80898 24.258 8.3553 23.3993C12.6486 21.0877 17.7671 21.0877 22.0605 23.3993C23.6068 24.258 25.3225 23.7379 26.3455 22.3739ZM16.7169 14.5943L16.6876 14.6236V14.665V14.666V14.667V14.668V14.6689V14.6699V14.6709V14.6718V14.6728V14.6738V14.6748V14.6757V14.6767V14.6777V14.6787V14.6796V14.6806V14.6816V14.6826V14.6835V14.6845V14.6855V14.6865V14.6874V14.6884V14.6894V14.6903V14.6913V14.6923V14.6933V14.6942V14.6952V14.6962V14.6971V14.6981V14.6991V14.7V14.701V14.702V14.703V14.7039V14.7049V14.7059V14.7068V14.7078V14.7088V14.7097V14.7107V14.7117V14.7126V14.7136V14.7146V14.7155V14.7165V14.7174V14.7184V14.7194V14.7203V14.7213V14.7223V14.7232V14.7242V14.7251V14.7261V14.7271V14.728V14.729V14.7299V14.7309V14.7318V14.7328V14.7338V14.7347V14.7357V14.7366V14.7376V14.7385V14.7395V14.7404V14.7414V14.7423V14.7433V14.7442V14.7452V14.7461V14.7471V14.748V14.749V14.7499V14.7509V14.7518V14.7528V14.7537V14.7546V14.7556V14.7565V14.7575V14.7584V14.7593V14.7603V14.7612V14.7622V14.7631V14.764V14.765V14.7659V14.7668V14.7678V14.7687V14.7696V14.7706V14.7715V14.7724V14.7733V14.7743V14.7752V14.7761V14.777V14.778V14.7789V14.7798V14.7807V14.7816V14.7826V14.7835V14.7844V14.7853V14.7862V14.7871V14.7881V14.789V14.7899V14.7908V14.7917V14.7926V14.7935V14.7944V14.7953V14.7962V14.7971V14.798V14.7989V14.7998V14.8007V14.8016V14.8025V14.8034V14.8043V14.8052V14.8061V14.807V14.8079V14.8088V14.8097V14.8105V14.8114V14.8123V14.8132V14.8141V14.815V14.8158V14.8167V14.8176V14.8185V14.8193V14.8202V14.8211V14.822V14.8228V14.8237V14.8246V14.8254V14.8263V14.8272V14.828V14.8289V14.8298V14.8306V14.8315V14.8323V14.8332V14.834V14.8349V14.8357V14.8366V14.8374V14.8383V14.8391V14.84V14.8408V14.8416V14.8425V14.8433V14.8442V14.845V14.8458V14.8467V14.8475V14.8483V14.8491V14.85V14.8508V14.8516V14.8524V14.8533V14.8541V14.8549V14.8557V14.8565V14.8573V14.8582V14.859V14.8598V14.8606V14.8614V14.8622V14.863V14.8638V14.8646V14.8654V14.8662V14.867V14.8678V14.8686V14.8693V14.8701V14.8709V14.8717V14.8725V14.8733V14.874V14.8748V14.8756V14.8764V14.8771V14.8779V14.8787V14.8794V14.8802V14.881V14.8817V14.8825V14.8832V14.884V14.8848V14.8855V14.8863V14.887V14.8878V14.8885V14.8892V14.89V14.8907V14.8915V14.8922V14.8929V14.8937V14.8944V14.8951V14.8958V14.8966V14.8973V14.898V14.8987V14.8994V14.9002V14.9009V14.9016V14.9023V14.903V14.9037V14.9044V14.9051V14.9058V14.9065V14.9072V14.9079V14.9086V14.9093V14.91V14.9106V14.9113V14.912V14.9127V14.9134V14.914V14.9147V14.9154V14.916V14.9167V14.9174V14.918V14.9187V14.9193V14.92V14.9206V14.9213V14.9219V14.9226V14.9232V14.9239V14.9245V14.9251V14.9258V14.9264V14.927V14.9277V14.9283V14.9289V14.9295V14.9302V14.9308V14.9314V14.932V14.9326V14.9332V14.9338V14.9344V14.935V14.9356V14.9362V14.9368V14.9374V14.938V14.9386V14.9391V14.9397V14.9403V14.9409V14.9415V14.942V14.9426V14.9432V14.9437V14.9443V14.9448V14.9454V14.946V14.9465V14.947V14.9476V14.9481V14.9487V14.9492V14.9498V14.9503V14.9508V14.9513V14.9519V14.9524V14.9529V14.9534V14.9539V14.9545V14.955V14.9555V14.956V14.9565V14.957V14.9575V14.958V14.9585V14.959V14.9594V14.9599V14.9604V14.9609V14.9614V14.9618V14.9623V14.9628V14.9632V14.9637V14.9641V14.9646V14.9651V14.9655V14.966V14.9664V14.9668V14.9673V14.9677V14.9682V14.9686V14.969V14.9694V14.9699V14.9703V14.9707V14.9711V14.9715V14.9719V14.9723V14.9727V14.9731V14.9735V14.9739V14.9743V14.9747V14.9751V14.9755V14.9758V14.9762V14.9766V14.977V14.9773V14.9777V14.978V14.9784V14.9788V14.9791V14.9795V14.9798V14.9801V14.9805V14.9808V14.9811V14.9815V14.9818V14.9821V14.9824V14.9828V14.9831V14.9834V14.9837V14.984V14.9843V14.9846V14.9849V14.9852V14.9855V14.9858V14.986V14.9863V14.9866V14.9869V14.9871V14.9874V14.9877V14.9879V14.9882V14.9884V14.9887V14.9889V14.9892V14.9894V14.9897V14.9899V14.9901V14.9903V14.9906V14.9908V14.991V14.9912V14.9914V14.9916V14.9918V14.992V14.9922V14.9924V14.9926V14.9928V14.993V14.9932V14.9933V14.9935V14.9937V14.9938V14.994V14.9942V14.9943V14.9945V14.9946V14.9948V14.9949V14.995V14.9952V14.9953V14.9954V14.9956V14.9957V14.9958V14.9959V14.996V14.9961V14.9962V14.9963V14.9964V14.9965V14.9966V14.9967V14.9968V14.9968V14.9969V14.997V14.997V14.9971V14.9972V14.9972V14.9973V14.9973V14.9974V14.9974V14.9974V14.9975V14.9975V14.9975V14.9975V14.9976V14.9976C16.6876 15.4737 16.5293 15.8627 16.2596 16.1324C15.9899 16.4021 15.6009 16.5604 15.1248 16.5604C14.6487 16.5604 14.2597 16.4021 13.99 16.1324C13.7203 15.8627 13.562 15.4737 13.562 14.9976C13.562 14.5215 13.7203 14.1325 13.99 13.8628C14.2597 13.5931 14.6487 13.4348 15.1248 13.4348H15.1258H15.1267H15.1277H15.1287H15.1297H15.1306H15.1316H15.1326H15.1336H15.1345H15.1355H15.1365H15.1375H15.1384H15.1394H15.1404H15.1413H15.1423H15.1433H15.1443H15.1452H15.1462H15.1472H15.1482H15.1491H15.1501H15.1511H15.152H15.153H15.154H15.155H15.1559H15.1569H15.1579H15.1588H15.1598H15.1608H15.1617H15.1627H15.1637H15.1646H15.1656H15.1666H15.1676H15.1685H15.1695H15.1705H15.1714H15.1724H15.1733H15.1743H15.1753H15.1762H15.1772H15.1782H15.1791H15.1801H15.1811H15.182H15.183H15.1839H15.1849H15.1859H15.1868H15.1878H15.1887H15.1897H15.1906H15.1916H15.1926H15.1935H15.1945H15.1954H15.1964H15.1973H15.1983H15.1992H15.2002H15.2011H15.2021H15.203H15.204H15.2049H15.2059H15.2068H15.2078H15.2087H15.2097H15.2106H15.2116H15.2125H15.2135H15.2144H15.2153H15.2163H15.2172H15.2182H15.2191H15.22H15.221H15.2219H15.2228H15.2238H15.2247H15.2257H15.2266H15.2275H15.2284H15.2294H15.2303H15.2312H15.2322H15.2331H15.234H15.2349H15.2359H15.2368H15.2377H15.2386H15.2396H15.2405H15.2414H15.2423H15.2432H15.2442H15.2451H15.246H15.2469H15.2478H15.2487H15.2496H15.2505H15.2515H15.2524H15.2533H15.2542H15.2551H15.256H15.2569H15.2578H15.2587H15.2596H15.2605H15.2614H15.2623H15.2632H15.2641H15.265H15.2659H15.2667H15.2676H15.2685H15.2694H15.2703H15.2712H15.2721H15.273H15.2738H15.2747H15.2756H15.2765H15.2774H15.2782H15.2791H15.28H15.2809H15.2817H15.2826H15.2835H15.2843H15.2852H15.2861H15.2869H15.2878H15.2886H15.2895H15.2904H15.2912H15.2921H15.2929H15.2938H15.2946H15.2955H15.2963H15.2972H15.298H15.2989H15.2997H15.3006H15.3014H15.3022H15.3031H15.3039H15.3048H15.3056H15.3064H15.3073H15.3081H15.3089H15.3097H15.3106H15.3114H15.3122H15.313H15.3138H15.3147H15.3155H15.3163H15.3171H15.3179H15.3187H15.3195H15.3203H15.3211H15.3219H15.3227H15.3235H15.3243H15.3251H15.3259H15.3267H15.3275H15.3283H15.3291H15.3299H15.3307H15.3315H15.3322H15.333H15.3338H15.3346H15.3354H15.3361H15.3369H15.3377H15.3384H15.3392H15.34H15.3407H15.3415H15.3423H15.343H15.3438H15.3445H15.3453H15.346H15.3468H15.3475H15.3483H15.349H15.3497H15.3505H15.3512H15.352H15.3527H15.3534H15.3542H15.3549H15.3556H15.3563H15.3571H15.3578H15.3585H15.3592H15.3599H15.3606H15.3613H15.3621H15.3628H15.3635H15.3642H15.3649H15.3656H15.3663H15.367H15.3676H15.3683H15.369H15.3697H15.3704H15.3711H15.3718H15.3724H15.3731H15.3738H15.3745H15.3751H15.3758H15.3765H15.3771H15.3778H15.3784H15.3791H15.3797H15.3804H15.381H15.3817H15.3823H15.383H15.3836H15.3843H15.3849H15.3855H15.3862H15.3868H15.3874H15.388H15.3887H15.3893H15.3899H15.3905H15.3911H15.3918H15.3924H15.393H15.3936H15.3942H15.3948H15.3954H15.396H15.3966H15.3971H15.3977H15.3983H15.3989H15.3995H15.4001H15.4006H15.4012H15.4018H15.4024H15.4029H15.4035H15.404H15.4046H15.4052H15.4057H15.4063H15.4068H15.4074H15.4079H15.4084H15.409H15.4095H15.41H15.4106H15.4111H15.4116H15.4122H15.4127H15.4132H15.4137H15.4142H15.4147H15.4152H15.4157H15.4162H15.4167H15.4172H15.4177H15.4182H15.4187H15.4192H15.4197H15.4202H15.4206H15.4211H15.4216H15.4221H15.4225H15.423H15.4234H15.4239H15.4244H15.4248H15.4253H15.4257H15.4262H15.4266H15.427H15.4275H15.4279H15.4283H15.4288H15.4292H15.4296H15.43H15.4304H15.4309H15.4313H15.4317H15.4321H15.4325H15.4329H15.4333H15.4337H15.4341H15.4345H15.4348H15.4352H15.4356H15.436H15.4363H15.4367H15.4371H15.4374H15.4378H15.4382H15.4385H15.4389H15.4392H15.4396H15.4399H15.4402H15.4406H15.4409H15.4412H15.4416H15.4419H15.4422H15.4425H15.4428H15.4431H15.4435H15.4438H15.4441H15.4444H15.4447H15.4449H15.4452H15.4455H15.4458H15.4461H15.4464H15.4466H15.4469H15.4472H15.4474H15.4477H15.4479H15.4482H15.4484H15.4487H15.4489H15.4492H15.4494H15.4496H15.4499H15.4501H15.4503H15.4505H15.4508H15.451H15.4512H15.4514H15.4516H15.4518H15.452H15.4522H15.4524H15.4526H15.4527H15.4529H15.4531H15.4533H15.4534H15.4536H15.4538H15.4539H15.4541H15.4542H15.4544H15.4545H15.4547H15.4548H15.4549H15.4551H15.4552H15.4553H15.4554H15.4556H15.4557H15.4558H15.4559H15.456H15.4561H15.4562H15.4563H15.4564H15.4564H15.4565H15.4566H15.4567H15.4567H15.4568H15.4569H15.4569H15.457H15.457H15.4571H15.4571H15.4572H15.4572H15.4572H15.4573H15.4573H15.4573H15.4573H15.4573H15.4573H15.4988L15.5281 13.4055L22.001 6.93252C22.1476 6.86381 22.3706 6.82659 22.5991 6.84562C22.835 6.86528 23.0582 6.94332 23.2018 7.08688C23.4953 7.38039 23.4953 7.81591 23.2018 8.10942L16.7169 14.5943Z" fill="currentColor" />
</svg>
