<svg width="30" height="30" viewBox="0 0 30 30" fill="none" xmlns="http://www.w3.org/2000/svg">
<path fill-rule="evenodd" clip-rule="evenodd" d="M16.3499 1H14.7267L16.5814 4.70931C16.6729 4.8923 16.6729 5.10769 16.5814 5.29068L14.7267 9L16.5814 12.7093C16.6729 12.8923 16.6729 13.1077 16.5814 13.2907L14.7267 17L16.5814 20.7093C16.6729 20.8923 16.6729 21.1077 16.5814 21.2907L14.7267 25L16.5814 28.7093C16.6281 28.8028 16.6502 28.9021 16.6501 29H18.2733L16.4186 25.2907C16.3271 25.1077 16.3271 24.8923 16.4186 24.7093L18.2733 21L16.4186 17.2907C16.3271 17.1077 16.3271 16.8923 16.4186 16.7093L18.2733 13L16.4186 9.29068C16.3271 9.10769 16.3271 8.8923 16.4186 8.70931L18.2733 5L16.4186 1.29068C16.3719 1.19721 16.3498 1.09785 16.3499 1ZM19.6416 28.8949C20.4315 28.6275 21 27.8801 21 27V3C21 1.89543 20.1046 1 19 1H17.7267L19.5814 4.70931C19.6729 4.8923 19.6729 5.10769 19.5814 5.29068L17.7267 9L19.5814 12.7093C19.6729 12.8923 19.6729 13.1077 19.5814 13.2907L17.7267 17L19.5814 20.7093C19.6729 20.8923 19.6729 21.1077 19.5814 21.2907L17.7267 25L19.5814 28.7093C19.6114 28.7694 19.6313 28.8319 19.6416 28.8949ZM11.7267 1H13.3499C13.3498 1.09785 13.3719 1.19721 13.4186 1.29068L15.2733 5L13.4186 8.70931C13.3271 8.8923 13.3271 9.10769 13.4186 9.29068L15.2733 13L13.4186 16.7093C13.3271 16.8923 13.3271 17.1077 13.4186 17.2907L15.2733 21L13.4186 24.7093C13.3271 24.8923 13.3271 25.1077 13.4186 25.2907L15.2733 29H13.6501C13.6502 28.9021 13.6281 28.8028 13.5814 28.7093L11.7267 25L13.5814 21.2907C13.6729 21.1077 13.6729 20.8923 13.5814 20.7093L11.7267 17L13.5814 13.2907C13.6729 13.1077 13.6729 12.8923 13.5814 12.7093L11.7267 9L13.5814 5.29068C13.6729 5.10769 13.6729 4.8923 13.5814 4.70931L11.7267 1ZM10.3584 1.10514C9.56853 1.3725 9 2.11986 9 3V27C9 28.1046 9.89543 29 11 29H12.2733L10.4186 25.2907C10.3271 25.1077 10.3271 24.8923 10.4186 24.7093L12.2733 21L10.4186 17.2907C10.3271 17.1077 10.3271 16.8923 10.4186 16.7093L12.2733 13L10.4186 9.29068C10.3271 9.10769 10.3271 8.8923 10.4186 8.70931L12.2733 5L10.4186 1.29068C10.3886 1.23061 10.3687 1.16811 10.3584 1.10514Z" fill="currentColor"/>
<circle cx="7" cy="27" r="1" transform="rotate(-180 7 27)" fill="currentColor"/>
<circle cx="23" cy="27" r="1" transform="rotate(-180 23 27)" fill="currentColor"/>
<circle cx="6" cy="24" r="1" transform="rotate(-180 6 24)" fill="currentColor"/>
<circle cx="24" cy="24" r="1" transform="rotate(-180 24 24)" fill="currentColor"/>
<circle cx="2" cy="22" r="1" transform="rotate(-180 2 22)" fill="currentColor"/>
<circle cx="28" cy="22" r="1" transform="rotate(-180 28 22)" fill="currentColor"/>
</svg>
