<svg width="30" height="30" viewBox="0 0 30 30" fill="none" xmlns="http://www.w3.org/2000/svg">
<path d="M14 15.5C12 13.5 8.16667 14.6667 7.5 15.5C9 13.0001 13 5.49989 13 5.49989C15.4 4.29989 18.6667 5.99989 19.5 6.99989C20.5 8.16656 22.8 10.7999 24 11.9999C25.6094 13.6093 27.8333 13.1666 29 12.9999C28.8333 13.3332 27.6 15.6 24 22C18 23 16.5 18 14 15.5Z" stroke="currentColor" stroke-width="1.3" stroke-linejoin="round"/>
<path d="M14.3333 2.83333C9.12634 12.271 1 27 1 27C1 27 9.54301 11.4377 14.75 2" stroke="currentColor" stroke-width="1.3" stroke-linecap="round" stroke-linejoin="round"/>
</svg>
