<svg width="21" height="18" fill="currentColor" viewBox="0 0 21 18" xmlns="http://www.w3.org/2000/svg">
<g clip-path="url(#clip0)">
<path d="M6.60408 17.5007C14.5286 17.5007 18.863 10.9598 18.863 5.28752C18.863 5.10173 18.863 4.91679 18.8504 4.73268C19.6938 4.12512 20.4212 3.37278 21 2.51081C20.2138 2.85811 19.3796 3.08573 18.5254 3.18616C19.425 2.64973 20.0978 1.80617 20.4196 0.811982C19.5737 1.31159 18.6488 1.66474 17.6837 1.85387C16.0524 0.124919 13.3224 0.0420694 11.5878 1.66725C10.4689 2.71584 9.99432 4.27742 10.3412 5.76871C6.87708 5.59548 3.64896 3.96527 1.4616 1.28397C0.31836 3.24474 0.90216 5.75448 2.79552 7.01396C2.11008 6.99388 1.43892 6.80977 0.84 6.4767C0.84 6.49427 0.84 6.51268 0.84 6.53109C0.84084 8.57471 2.28648 10.3346 4.2966 10.7388C3.6624 10.9112 2.99712 10.9363 2.35116 10.8125C2.91564 12.5607 4.53348 13.7591 6.37644 13.7934C4.851 14.9876 2.96604 15.6361 1.02564 15.6345C0.68292 15.6336 0.3402 15.6135 0 15.5725C1.97064 16.832 4.263 17.5007 6.60408 17.4973" />
</g>
<defs>
<clipPath id="clip0">
<path d="M0 0.5H21V17.5H0V0.5Z" />
</clipPath>
</defs>
</svg>
