<svg width="24px" height="24px" viewBox="0 0 24 24" version="1.1" xmlns="http://www.w3.org/2000/svg" xmlns:xlink="http://www.w3.org/1999/xlink">
  <path d="M12.0645,14.2805 L12.0645,14.1905 C12.0645,13.5755 12.3495,13.1105 12.8745,12.7355 L13.4895,12.3005 C14.3745,11.6705 14.9745,10.8305 14.9745,9.6455 C14.9745,8.13051 13.7595,6.66051 11.4345,6.66051 C9.21453,6.66051 7.99953,8.22051 7.99953,9.8405 C7.99953,10.0655 8.01453,10.3055 8.07453,10.5155 L9.9645,10.5905 C9.9195,10.4555 9.9045,10.2905 9.9045,10.1105 C9.9045,9.27051 10.3695,8.41551 11.4345,8.41551 C12.4395,8.41551 12.9345,9.07551 12.9345,9.7655 C12.9345,10.2155 12.7395,10.6205 12.2895,10.9505 L11.5695,11.4905 C10.7145,12.1355 10.3845,12.8705 10.3845,13.6655 C10.3845,13.8905 10.4145,14.0855 10.4445,14.2805 L12.0645,14.2805 Z M10.0995,16.4555 C10.0995,17.1155 10.6245,17.6405 11.2845,17.6405 C11.9445,17.6405 12.4845,17.1155 12.4845,16.4555 C12.4845,15.7955 11.9445,15.2555 11.2845,15.2555 C10.6245,15.2555 10.0995,15.7955 10.0995,16.4555 Z M11.5679,0 C14.2801,0.02436 17.0644,0.312192 18.5757,0.88781 C21.7913,2.13557 22.5357,5.68781 22.5357,5.68781 C23.0157,7.70429 23.1602,9.7444 23.1377,11.5688 C23.1590636,13.2051636 23.0222455,15.0397917 22.6365618,16.8741869 L22.4892412,17.5250094 C22.339708,18.111696 21.44734,21.10128 18.5533,22.2243 C17.0411,22.8243 14.2811,23.0877 11.5689,23.1121 C8.85662,23.0887 6.09658,22.7999 4.58438,22.2243 C1.60994075,21.070085 0.749939113,17.9441677 0.637670088,17.4817726 L0.62438,17.4243 C0.144374,15.4078 0,13.3678 0,11.5678 C0,9.91007273 0.11932562,8.07346942 0.501649286,6.23817791 L0.64844096,5.58710087 C0.7979864,5.0004158 1.690412,2.010839 4.58438,0.88781 C6.09566,0.312192 8.88014,0.024374 11.5679,0 Z M11.5499374,1.99991934 L11.2375977,2.00462168 C8.69280509,2.05026939 6.39206796,2.33945325 5.30792751,2.75234185 C4.5556336,3.04427592 3.94815358,3.55124052 3.45897163,4.23639412 C3.15872684,4.65692026 2.92269377,5.11772628 2.74892909,5.57776973 C2.6489783,5.84239027 2.59604532,6.03033635 2.57002176,6.15092783 C2.17499464,7.81050821 2,9.61333106 2,11.5678 C2,13.286139 2.13868819,14.9016452 2.45488901,16.4405468 L2.58186105,17.0140952 C2.59605261,17.0818168 2.64897955,17.269757 2.74892269,17.5343711 C2.92267472,17.994405 3.15869616,18.4552016 3.45893167,18.875719 C3.94810403,19.5608661 4.55558611,20.0678262 5.29585662,20.3551288 C6.4476303,20.793537 8.89423068,21.0889501 11.550908,21.1121809 C14.3199069,21.0872699 16.7067307,20.8052914 17.8297732,20.3597601 C18.5820892,20.0678271 19.189571,19.5608666 19.6787444,18.8757185 C19.9789807,18.4552002 20.2150033,17.9944026 20.3887566,17.5343677 C20.4687118,17.3226759 20.5185765,17.1600554 20.5486772,17.0416047 L20.5677083,16.9609719 C20.9306333,15.4369893 21.1174642,13.807703 21.1379488,12.1619093 L21.1378521,11.5441362 C21.1586123,9.86080303 21.0253206,8.23493281 20.7065246,6.67842951 L20.5782191,6.09801561 C20.5640274,6.03029325 20.5111006,5.84235315 20.4111586,5.57773972 C20.2374088,5.11770784 20.0013912,4.65691355 19.7011619,4.23639875 C19.2119895,3.55124165 18.6045087,3.04428113 17.8638339,2.75683292 C16.7172576,2.32012946 14.2523446,2.02419138 11.5499374,1.99991934 Z" fill="currentColor"></path>
</svg>
