<svg width="62" height="30" viewBox="0 0 62 30" stroke="currentColor" fill="none" xmlns="http://www.w3.org/2000/svg">
<path d="M46.7486 25.4668H22.0684"  stroke-width="1.2" stroke-linecap="round" stroke-linejoin="round"/>
<path d="M58.3517 26.1647C58.8619 26.0158 59.3642 25.841 59.8566 25.641C61.527 24.9547 61.0184 22.3603 60.9762 20.6598C60.9577 20.1619 60.809 19.6776 60.5449 19.2551C60.2809 18.8326 59.9107 18.4867 59.4713 18.2519C58.767 15.4287 55.5586 14.6823 55.5586 14.6823C55.5586 14.6823 47.1944 4.45793 46.147 3.25708"  stroke-width="1.2" stroke-linecap="round" stroke-linejoin="round"/>
<path d="M58.8368 16.8556C58.8368 16.8556 57.2025 15.9527 56.3868 16.3079C55.5712 16.663 57.3831 19.0769 60.0467 18.6645"  stroke-width="1.2" stroke-linecap="round" stroke-linejoin="round"/>
<path d="M43.1367 17.2532V18.7581"  stroke-width="1.2" stroke-linecap="round" stroke-linejoin="round"/>
<path d="M42.8684 10.2429C42.8684 10.2429 43.0761 14.8088 45.8993 15.3596C48.7225 15.9104 49.812 15.8171 49.812 15.8171"  stroke-width="1.2" stroke-linecap="round" stroke-linejoin="round"/>
<path d="M30.5981 22.0683V8.27144C30.5981 7.98966 30.7101 7.71942 30.9093 7.52017C31.1086 7.32092 31.3788 7.20898 31.6606 7.20898H35.7028C35.9845 7.20898 36.2548 7.32092 36.454 7.52017C36.6533 7.71942 36.7652 7.98966 36.7652 8.27144C36.7652 8.27144 36.7652 16.3277 36.7652 22.0683"  stroke-width="1.2" stroke-linecap="round" stroke-linejoin="round"/>
<path d="M32.9045 14.5439V16.0488"  stroke-width="1.2" stroke-linecap="round" stroke-linejoin="round"/>
<path d="M7.32056 25.4668H1V4.24175C0.999997 3.40675 1.33108 2.60582 1.92067 2.01454C2.51025 1.42326 3.31024 1.08988 4.14523 1.08749H41.1657C41.1657 1.08749 43.421 1.05553 45.0934 2.22071C45.4868 2.49475 46.1398 3.25749 46.1398 3.25749"  stroke-width="1.2" stroke-linecap="round" stroke-linejoin="round"/>
<path d="M52.2641 22.1096C52.8828 21.6962 53.6102 21.4756 54.3543 21.4756C55.3521 21.4756 56.309 21.872 57.0146 22.5775C57.7201 23.2831 58.1165 24.24 58.1165 25.2378C58.1165 25.9819 57.8959 26.7093 57.4825 27.328C57.0691 27.9467 56.4815 28.4289 55.794 28.7137C55.1066 28.9984 54.3501 29.0729 53.6203 28.9278C52.8905 28.7826 52.2201 28.4243 51.694 27.8981C51.1678 27.372 50.8095 26.7016 50.6643 25.9718C50.5192 25.242 50.5937 24.4855 50.8784 23.7981C51.1632 23.1106 51.6454 22.523 52.2641 22.1096Z"  stroke-width="1.2"/>
<path d="M12.655 22.1096C13.2737 21.6962 14.0011 21.4756 14.7452 21.4756C15.743 21.4756 16.6999 21.872 17.4055 22.5775C18.111 23.2831 18.5074 24.24 18.5074 25.2378C18.5074 25.9819 18.2867 26.7093 17.8733 27.328C17.4599 27.9467 16.8724 28.4289 16.1849 28.7137C15.4974 28.9984 14.741 29.0729 14.0112 28.9278C13.2814 28.7826 12.611 28.4243 12.0848 27.8981C11.5587 27.372 11.2004 26.7016 11.0552 25.9718C10.91 25.242 10.9845 24.4855 11.2693 23.7981C11.5541 23.1106 12.0363 22.523 12.655 22.1096Z"  stroke-width="1.2"/>
</svg>
