<svg width="56" height="43" viewBox="0 0 56 43" fill="none" xmlns="http://www.w3.org/2000/svg">
<path d="M5.41056 20.4321H14.2423V1H29.0267L35.3027 20.4429H35.4537C37.8908 20.4429 39.875 22.427 39.875 24.8641V25.7484H43.412V3.64199H45.1805V38.0956H55.77V39.8749H43.4012V32.8117H39.8642V33.6959C39.8642 36.133 37.88 38.1172 35.4429 38.1172H33.5989C33.1784 40.619 31.0001 42.5385 28.3797 42.5385C25.7592 42.5385 23.5809 40.619 23.1604 38.1172H16.8196C16.3991 40.619 14.2208 42.5385 11.6004 42.5385C8.97993 42.5385 6.80165 40.619 6.38109 38.1172H5.42134C2.98425 38.1172 1.00006 36.133 1.00006 33.6959V24.8641C0.989285 22.4163 2.97346 20.4321 5.41056 20.4321ZM43.4012 31.0324V27.4953H39.8642V31.0324H43.4012ZM27.7326 2.75773H16.0108V20.4321H27.9914L25.7916 14.555L27.4415 13.9296L29.8786 20.4213H33.4479L27.7326 2.75773ZM28.3797 40.7592C30.3315 40.7592 31.9167 39.174 31.9167 37.2222C31.9167 35.2703 30.3315 33.6851 28.3797 33.6851C26.4278 33.6851 24.8426 35.2703 24.8426 37.2222C24.8426 39.174 26.4278 40.7592 28.3797 40.7592ZM11.5896 40.7592C13.5414 40.7592 15.1266 39.174 15.1266 37.2222C15.1266 35.2703 13.5414 33.6851 11.5896 33.6851C9.63774 33.6851 8.05255 35.2703 8.05255 37.2222C8.05255 39.174 9.64852 40.7592 11.5896 40.7592ZM2.75779 33.6851C2.75779 35.1517 3.94399 36.3379 5.41056 36.3379H6.3703C6.79086 33.8361 8.96915 31.9166 11.5896 31.9166C14.21 31.9166 16.3883 33.8361 16.8088 36.3379H23.1496C23.5702 33.8361 25.7484 31.9166 28.3689 31.9166C30.9893 31.9166 33.1676 33.8361 33.5881 36.3379H35.4321C36.8987 36.3379 38.0849 35.1517 38.0849 33.6851V24.8534C38.0849 23.3868 36.8987 22.2006 35.4321 22.2006H5.41056C3.94399 22.2006 2.75779 23.3868 2.75779 24.8534V33.6851Z" fill="currentColor" stroke="currentColor" stroke-width="0.25"/>
<path d="M23.0796 26.6191H24.8481V28.3877H23.0796V26.6191Z" fill="currentColor" stroke="currentColor" stroke-width="0.25"/>
<path d="M19.5516 26.6191H21.3201V28.3877H19.5516V26.6191Z" fill="currentColor" stroke="currentColor" stroke-width="0.25"/>
<path d="M16.014 26.6191H17.7825V28.3877H16.014V26.6191Z" fill="currentColor" stroke="currentColor" stroke-width="0.25"/>
</svg>
