<svg xmlns="http://www.w3.org/2000/svg" width="806.32" height="376.05" viewBox="0 0 806.32 376.05" stroke="currentColor" fill="currentColor"><title>rv02</title><path d="M441.73,346.47H390.22a12,12,0,0,1-12-12V328H251.41" transform="translate(0 0)" fill="none"  stroke-linecap="round" stroke-linejoin="round" stroke-width="8"/><path d="M766.19,337.28a206.8,206.8,0,0,0,19.85-7c22.18-9.11,15.45-43.58,14.9-66.19s-19.86-32-19.86-32c-9.38-37.5-51.78-47.43-51.78-47.43s-68.23-81.9-81-93.83S553.09,79.6,553.09,79.6" transform="translate(0 0)" fill="none"  stroke-linecap="round" stroke-linejoin="round" stroke-width="8"/><path d="M772.63,213.55s-21.72-12.19-32.56-7.29,13.26,36.81,48.64,31.34" transform="translate(0 0)" fill="none"  stroke-linecap="round" stroke-linejoin="round" stroke-width="8"/><line x1="531.21" y1="328.08" x2="624.43" y2="328.08" fill="none"  stroke-linecap="round" stroke-linejoin="round" stroke-width="8"/><line x1="567.07" y1="199.58" x2="567.07" y2="221.66" fill="none"  stroke-linecap="round" stroke-linejoin="round" stroke-width="8"/><path d="M560.45,125.67s2.76,60.67,40.26,67.84,51.85,6.07,51.85,6.07" transform="translate(0 0)" fill="none"  stroke-linecap="round" stroke-linejoin="round" stroke-width="8"/><path d="M77,82.93v43.21a24.55,24.55,0,0,0,24.55,24.55h33.22" transform="translate(0 0)" fill="none"  stroke-linecap="round" stroke-linejoin="round" stroke-width="8"/><path d="M397.37,295.89V71.47a14.09,14.09,0,0,1,14.09-14.09h53.76a14.09,14.09,0,0,1,14.09,14.09V291.31" transform="translate(0 0)" fill="none"  stroke-linecap="round" stroke-linejoin="round" stroke-width="8"/><line x1="418.07" y1="181.79" x2="418.07" y2="205.1" fill="none"  stroke-linecap="round" stroke-linejoin="round" stroke-width="8"/><path d="M517.44,150.85V84a23.9,23.9,0,0,1,23.9-23.9h87.84C624.37,3,553.8,4,553.8,4H45.9A41.9,41.9,0,0,0,4,45.9H4V328.08H121.36c0-26,9.34-70.18,68.77-70.18" transform="translate(0 0)" fill="none"  stroke-linecap="round" stroke-linejoin="round" stroke-width="8"/><line x1="683.08" y1="326.05" x2="743.08" y2="326.05" fill="none"  stroke-linecap="round" stroke-linejoin="round" stroke-width="8"/><line x1="691.87" y1="347.26" x2="734.3" y2="304.83" fill="none"  stroke-linecap="round" stroke-linejoin="round" stroke-width="8"/><line x1="713.08" y1="356.05" x2="713.08" y2="296.05" fill="none"  stroke-linecap="round" stroke-linejoin="round" stroke-width="8"/><line x1="734.3" y1="347.26" x2="691.87" y2="304.83" fill="none"  stroke-linecap="round" stroke-linejoin="round" stroke-width="8"/><circle cx="713.08" cy="326.05" r="15"/><path d="M713.06,276.05a50,50,0,1,0,50,50h0A50,50,0,0,0,713.06,276.05Zm0,80.14a30,30,0,1,1,30-30,30,30,0,0,1-30,30Z" transform="translate(0 0)"/><line x1="156.69" y1="326.05" x2="216.69" y2="326.05" fill="none"  stroke-linecap="round" stroke-linejoin="round" stroke-width="8"/><line x1="165.48" y1="347.26" x2="207.91" y2="304.83" fill="none"  stroke-linecap="round" stroke-linejoin="round" stroke-width="8"/><line x1="186.69" y1="356.05" x2="186.69" y2="296.05" fill="none"  stroke-linecap="round" stroke-linejoin="round" stroke-width="8"/><line x1="207.91" y1="347.26" x2="165.48" y2="304.83" fill="none"  stroke-linecap="round" stroke-linejoin="round" stroke-width="8"/><circle cx="186.69" cy="326.05" r="15"/><path d="M186.67,276.05a50,50,0,1,0,50,50h0A50,50,0,0,0,186.67,276.05Zm0,80.14a30,30,0,1,1,30-30,30,30,0,0,1-30,30Z" transform="translate(0 0)"/></svg>