<svg xmlns="http://www.w3.org/2000/svg" width="696.53" height="350.99" stroke="currentColor" fill="currentColor" viewBox="0 0 696.53 350.99"><line x1="558.57" y1="211.66" x2="534.57" y2="211.66" fill="none"  stroke-linecap="round" stroke-linejoin="round" stroke-width="8"/><line x1="310.92" y1="309.93" x2="484.02" y2="309.93" fill="none"  stroke-linecap="round" stroke-linejoin="round" stroke-width="8"/><path d="M4,281.41s12.72,26.81,49.44,26.81H88.2" fill="none"  stroke-linecap="round" stroke-linejoin="round" stroke-width="8"/><path d="M495.06,84.35h108.5c17.3,0,29.53,4.58,35.44,16.21,7.11,14,53.53,91.83,53.53,120.77v81.45H656" fill="none"  stroke-linecap="round" stroke-linejoin="round" stroke-width="8"/><line x1="639.47" y1="183.04" x2="495.06" y2="183.04" fill="none"  stroke-linecap="round" stroke-linejoin="round" stroke-width="8"/><path d="M465.32,244.29V26.06A22.07,22.07,0,0,0,443.25,4H26.06A22.06,22.06,0,0,0,4,26.06V244.29H78.66" fill="none"  stroke-linecap="round" stroke-linejoin="round" stroke-width="8"/><polyline points="692.48 218.97 655.95 218.97 655.95 253.93 692.48 253.93" fill="none"  stroke-linecap="round" stroke-linejoin="round" stroke-width="8"/<path d="M583.56,249.87a50.56,50.56,0,1,0,50.6,50.56,50.56,50.56,0,0,0-50.6-50.56Zm.16,80.6a30,30,0,1,1,.08,0Z"/><line x1="583.73" y1="300.43" x2="583.73" y2="263.66" fill="none"  stroke-linecap="round" stroke-linejoin="round" stroke-width="8"/><line x1="583.73" y1="300.43" x2="557.72" y2="274.43" fill="none"  stroke-linecap="round" stroke-linejoin="round" stroke-width="8"/><line x1="583.73" y1="300.43" x2="546.95" y2="300.43" fill="none"  stroke-linecap="round" stroke-linejoin="round" stroke-width="8"/><line x1="583.73" y1="300.43" x2="557.72" y2="326.44" fill="none"  stroke-linecap="round" stroke-linejoin="round" stroke-width="8"/><line x1="583.73" y1="300.43" x2="583.73" y2="337.21" fill="none"  stroke-linecap="round" stroke-linejoin="round" stroke-width="8"/><line x1="583.73" y1="300.43" x2="609.73" y2="326.44" fill="none"  stroke-linecap="round" stroke-linejoin="round" stroke-width="8"/><line x1="583.73" y1="300.43" x2="620.51" y2="300.43" fill="none"  stroke-linecap="round" stroke-linejoin="round" stroke-width="8"/><line x1="583.73" y1="300.43" x2="609.73" y2="274.43" fill="none"  stroke-linecap="round" stroke-linejoin="round" stroke-width="8"/><circle cx="583.58" cy="300.43" r="15"/><path d="M162.29,249.87a50.56,50.56,0,1,0,50.6,50.57,50.56,50.56,0,0,0-50.6-50.57Zm.16,80.61a30,30,0,1,1,.08,0Z"/><line x1="162.46" y1="300.44" x2="162.46" y2="263.66" fill="none"  stroke-linecap="round" stroke-linejoin="round" stroke-width="8"/><line x1="162.46" y1="300.44" x2="136.46" y2="274.44" fill="none"  stroke-linecap="round" stroke-linejoin="round" stroke-width="8"/><line x1="162.46" y1="300.44" x2="125.68" y2="300.44" fill="none"  stroke-linecap="round" stroke-linejoin="round" stroke-width="8"/><line x1="162.46" y1="300.44" x2="136.46" y2="326.45" fill="none"  stroke-linecap="round" stroke-linejoin="round" stroke-width="8"/><line x1="162.46" y1="300.44" x2="162.46" y2="337.22" fill="none"  stroke-linecap="round" stroke-linejoin="round" stroke-width="8"/><line x1="162.46" y1="300.44" x2="188.47" y2="326.45" fill="none"  stroke-linecap="round" stroke-linejoin="round" stroke-width="8"/><line x1="162.46" y1="300.44" x2="199.24" y2="300.44" fill="none"  stroke-linecap="round" stroke-linejoin="round" stroke-width="8"/><line x1="162.46" y1="300.44" x2="188.47" y2="274.44" fill="none"  stroke-linecap="round" stroke-linejoin="round" stroke-width="8"/><circle cx="162.31" cy="300.44" r="15"/></svg>