<svg xmlns="http://www.w3.org/2000/svg" width="709.49" stroke="currentColor" fill="currentColor" height="271.09" viewBox="0 0 709.49 271.09"><line x1="388.24" y1="131.31" x2="364.24" y2="131.31" fill="none"  stroke-linecap="round" stroke-linejoin="round" stroke-width="8"/><path d="M96.54,231.06l-57.73-9.75A41.76,41.76,0,0,1,4,180.13V99.26a.4.4,0,0,1,.4-.4H296.46V17.52A13.52,13.52,0,0,1,310,4H433.24a46.82,46.82,0,0,1,35.44,16.21l71.22,82.34L640.1,113a61.45,61.45,0,0,1,53.58,43.59L704,190.94c3.26,10.92,1.19,23.07-6.49,31.49a23.44,23.44,0,0,1-17.9,8" fill="none"  stroke-linecap="round" stroke-linejoin="round" stroke-width="8"/><line x1="488.7" y1="231.06" x2="249.67" y2="231.06" fill="none"  stroke-linecap="round" stroke-linejoin="round" stroke-width="8"/><line x1="517.11" y1="102.69" x2="334.81" y2="102.69" fill="none"  stroke-linecap="round" stroke-linejoin="round" stroke-width="8"/><path d="M693.68,156.62H653.51a3.8,3.8,0,0,0-2.06,7c7.32,4.88,14.77,12.7,16,24.62a3.76,3.76,0,0,0,3.77,3.35H704" fill="none"  stroke-linecap="round" stroke-linejoin="round" stroke-width="8"/><polyline points="4 131.31 56.01 131.31 56.01 172.72 4 172.72" fill="none"  stroke-linecap="round" stroke-linejoin="round" stroke-width="8"/><line x1="37.13" y1="131.31" x2="37.13" y2="172.72" fill="none"  stroke-linecap="round" stroke-linejoin="round" stroke-width="8"/><path d="M237.67,221.28A67.71,67.71,0,0,0,170,153.58" fill="none"  stroke-linecap="round" stroke-linejoin="round" stroke-width="8"/><line x1="566.91" y1="221.09" x2="626.91" y2="221.09" fill="none"  stroke-linecap="round" stroke-linejoin="round" stroke-width="8"/><line x1="575.7" y1="242.3" x2="618.12" y2="199.88" fill="none"  stroke-linecap="round" stroke-linejoin="round" stroke-width="8"/><line x1="596.91" y1="251.09" x2="596.91" y2="191.09" fill="none"  stroke-linecap="round" stroke-linejoin="round" stroke-width="8"/><line x1="618.12" y1="242.3" x2="575.7" y2="199.88" fill="none"  stroke-linecap="round" stroke-linejoin="round" stroke-width="8"/><circle cx="596.91" cy="221.09" r="15"/><path d="M596.89,171.09a50,50,0,1,0,50,50A50,50,0,0,0,596.89,171.09Zm0,80.14a30,30,0,1,1,30-30,30,30,0,0,1-30,30Z"/><line x1="139.96" y1="221.09" x2="199.96" y2="221.09" fill="none"  stroke-linecap="round" stroke-linejoin="round" stroke-width="8"/><line x1="148.75" y1="242.3" x2="191.17" y2="199.88" fill="none"  stroke-linecap="round" stroke-linejoin="round" stroke-width="8"/><line x1="169.96" y1="251.09" x2="169.96" y2="191.09" fill="none"  stroke-linecap="round" stroke-linejoin="round" stroke-width="8"/><line x1="191.17" y1="242.3" x2="148.75" y2="199.88" fill="none"  stroke-linecap="round" stroke-linejoin="round" stroke-width="8"/><circle cx="169.96" cy="221.09" r="15"/><path d="M169.94,171.09a50,50,0,1,0,50,50A50,50,0,0,0,169.94,171.09Zm0,80.14a30,30,0,1,1,.06,0Z"/></svg>