<svg width="48" height="36" viewBox="0 0 48 36" stroke="currentColor" fill="none" xmlns="http://www.w3.org/2000/svg">
<path d="M6.64941 15.9667V4.15894H26.4756L28.6569 16.6832C33.5332 16.7523 38.3911 17.2962 43.1619 18.3073C45.2732 18.7722 46.012 20.0141 46.012 20.7115V23.3227C44.1553 22.7424 43.0345 22.1764 40.28 22.3993C40.28 22.3993 34.3061 22.7878 34.3061 29.1821"  stroke-width="1.2" stroke-linecap="round" stroke-linejoin="round"/>
<path d="M19.8523 29.8062H27.3102"  stroke-width="1.2" stroke-linecap="round" stroke-linejoin="round"/>
<path d="M22.8132 18.3074H24.9372"  stroke-width="1.2" stroke-linecap="round" stroke-linejoin="round"/>
<path d="M14.0178 16.4476V4.16846"  stroke-width="1.2" stroke-linecap="round" stroke-linejoin="round"/>
<path d="M31.4839 16.4476V3.4106C31.5221 2.85784 31.7292 2.33016 32.0772 1.899C32.4252 1.46783 32.8973 1.15401 33.4296 1"  stroke-width="1.2" stroke-linecap="round" stroke-linejoin="round"/>
<path d="M19.9791 27.4306C19.9792 25.1808 19.2259 22.9957 17.8395 21.2238C16.4531 19.4518 14.5134 18.1951 12.3296 17.6539C10.1458 17.1127 7.84372 17.3183 5.79034 18.2377C3.73696 19.1572 2.05055 20.7378 1 22.7273"  stroke-width="1.2" stroke-linecap="round" stroke-linejoin="round"/>
<path d="M4.67505 4.15894H6.64939H28.0677"  stroke-width="1.2" stroke-linecap="round" stroke-linejoin="round"/>
<path d="M39.2908 25.8829C40.1097 25.3364 41.0723 25.045 42.0568 25.0457C43.3763 25.0465 44.6415 25.5713 45.5742 26.5046C46.5069 27.4379 47.0309 28.7034 47.0309 30.0229C47.0309 31.0074 46.7389 31.9699 46.1919 32.7884C45.6448 33.607 44.8673 34.2449 43.9576 34.6216C43.048 34.9982 42.0471 35.0966 41.0815 34.9043C40.1159 34.712 39.229 34.2376 38.5331 33.5412C37.8371 32.8448 37.3634 31.9577 37.1717 30.992C36.98 30.0263 37.079 29.0254 37.4562 28.116C37.8334 27.2066 38.4718 26.4294 39.2908 25.8829Z"  stroke-width="1.2"/>
<path d="M9.9165 19.8706C8.42055 19.8706 6.9582 20.3142 5.7144 21.1454C4.47061 21.9766 3.50124 23.158 2.92891 24.5401C2.35658 25.9222 2.207 27.4431 2.49907 28.9102C2.79115 30.3774 3.51177 31.725 4.56979 32.7826C5.62781 33.8401 6.97571 34.5602 8.44299 34.8516C9.91028 35.1431 11.431 34.9929 12.8129 34.42C14.1948 33.8471 15.3758 32.8772 16.2064 31.633C17.0371 30.3889 17.4801 28.9264 17.4795 27.4304C17.4786 25.4251 16.6815 23.5023 15.2632 22.0846C13.845 20.667 11.9218 19.8706 9.9165 19.8706Z"  stroke-width="1.2"/>
</svg>
