<svg width="55" height="25" viewBox="0 0 55 25" fill="none" xmlns="http://www.w3.org/2000/svg">
<path d="M7.73389 1.03589H31.7677M20.2544 9.02072V1.03589" stroke="currentColor" stroke-width="1.5" stroke-linecap="round" stroke-linejoin="round"/>
<path d="M1.29688 18.2939C1.29688 18.2939 1.41857 15.2528 2.09977 12.7469C2.78098 10.241 4.75162 9.19897 5.74909 9.19897C6.74657 9.19897 37.7077 9.19897 37.7077 9.19897M37.7077 9.19897L31.6505 1M37.7077 9.19897C37.7077 9.19897 39.0449 9.32508 46.8236 11.036C54.6023 12.7469 53.9916 20.6521 53.9916 20.6521M17.6703 20.6521H37.7077M35.7253 12.7469H38.4309" stroke="currentColor" stroke-width="1.5" stroke-linecap="round" stroke-linejoin="round"/>
<path d="M6.01147 9.19965C6.01147 9.19965 6.005 6.74982 7.70179 4.4167C9.39858 2.08358 10.5964 1.23828 10.5964 1.23828" stroke="currentColor" stroke-width="1.5" stroke-linecap="round" stroke-linejoin="round"/>
<circle cx="9.5" cy="19.5" r="4.5" stroke="currentColor" stroke-width="1.5" stroke-linecap="round" stroke-linejoin="round"/>
<circle cx="45.5" cy="19.5" r="4.5" stroke="currentColor" stroke-width="1.5" stroke-linecap="round" stroke-linejoin="round"/>
</svg>
