<svg xmlns="http://www.w3.org/2000/svg" stroke="currentColor" fill="currentColor" width="145.55" height="107.76" viewBox="0 0 145.55 107.76"><g  class="Layer_2" data-name="Layer 2"><g  class="farm"><g  class="solid-body-background"><path  class="Vector" d="M18.74,48V10.92H81l6.85,39.33a235.8,235.8,0,0,1,45.55,5.1c6.63,1.46,8.95,5.36,8.95,7.55v8.2a63.87,63.87,0,0,0-18-2.9s-18.76,1.22-18.76,21.3l-45-4.86s-.22-37.75-41.25-30.77" fill="#ecebe1" opacity="0"/></g><g  class="body-car"><path d="M18.74,48V10.92H81l6.85,39.33a235.8,235.8,0,0,1,45.55,5.1c6.63,1.46,8.95,5.36,8.95,7.55v8.2a63.87,63.87,0,0,0-18-2.9s-18.76,1.22-18.76,21.3" fill="none"  stroke-linecap="round" stroke-linejoin="round" stroke-width="2"/><line x1="60.2" y1="91.46" x2="83.62" y2="91.46" fill="none"  stroke-linecap="round" stroke-linejoin="round" stroke-width="2"/><line x1="69.5" y1="55.35" x2="76.17" y2="55.35" fill="none"  stroke-linecap="round" stroke-linejoin="round" stroke-width="2"/><line x1="41.88" y1="49.51" x2="41.88" y2="10.95" fill="none"  stroke-linecap="round" stroke-linejoin="round" stroke-width="2"/><path d="M96.73,49.51V8.57A8.49,8.49,0,0,1,102.84,1L107,6.61s-3.89.47-3.89,6.06v24" fill="none"  stroke-linecap="round" stroke-linejoin="round" stroke-width="2"/><path d="M60.6,84A31.63,31.63,0,0,0,1,69.23" fill="none"  stroke-linecap="round" stroke-linejoin="round" stroke-width="2"/><path d="M18.74,10.92h-4.2V8.82A3.5,3.5,0,0,1,18,5.33H76.66a6.33,6.33,0,0,1,5.42,3.05l1.54,2.54Z" fill="none"  stroke-linecap="round" stroke-linejoin="round" stroke-width="2"/></g><g  class="front-wheel"><path d="M129.93,76.51a15.63,15.63,0,1,0,15.62,15.63A15.63,15.63,0,0,0,129.93,76.51Zm0,25a9.38,9.38,0,1,1,9.38-9.37A9.37,9.37,0,0,1,130,101.51Z"/><line x1="129.93" y1="101.77" x2="129.93" y2="82.5" fill="none"  stroke-linecap="round" stroke-linejoin="round" stroke-width="2"/><line x1="136.7" y1="98.96" x2="123.08" y2="85.34" fill="none"  stroke-linecap="round" stroke-linejoin="round" stroke-width="2"/><line x1="139.51" y1="92.18" x2="120.24" y2="92.18" fill="none"  stroke-linecap="round" stroke-linejoin="round" stroke-width="2"/><line x1="136.7" y1="85.41" x2="123.08" y2="99.03" fill="none"  stroke-linecap="round" stroke-linejoin="round" stroke-width="2"/><circle cx="129.93" cy="92.14" r="4.59"/></g><g  class="back-wheel"><path d="M29,60.26A23.75,23.75,0,1,0,52.75,84,23.75,23.75,0,0,0,29,60.26Zm.07,38.13A14.38,14.38,0,1,1,43.44,84,14.38,14.38,0,0,1,29.07,98.39Z"/><line x1="29" y1="69.64" x2="29" y2="98.39" fill="none"  stroke-linecap="round" stroke-linejoin="round" stroke-width="2"/><line x1="18.83" y1="73.85" x2="39.16" y2="94.17" fill="none"  stroke-linecap="round" stroke-linejoin="round" stroke-width="2"/><line x1="14.62" y1="84.01" x2="43.37" y2="84.01" fill="none"  stroke-linecap="round" stroke-linejoin="round" stroke-width="2"/><line x1="18.83" y1="94.17" x2="39.16" y2="73.85" fill="none"  stroke-linecap="round" stroke-linejoin="round" stroke-width="2"/><circle cx="29" cy="84.01" r="6.82"/></g></g></g></svg>