<svg xmlns="http://www.w3.org/2000/svg" width="564.1" height="446.1" viewBox="0 0 564.1 446.1" stroke="currentColor" fill="currentColor"><line x1="160.5" y1="416.9" x2="254.1" y2="416.9" fill="none"  stroke-linecap="round" stroke-linejoin="round" stroke-width="8"/><path d="M4,343.8V93A44.45,44.45,0,0,1,48.4,48.5H253L370,291.1H263.3a15.92,15.92,0,0,0-15.9,15.8V321H189.6V290.1A30.6,30.6,0,0,0,159,259.5H39.8v68.9" fill="none"  stroke-linecap="round" stroke-linejoin="round" stroke-width="8"/><polyline points="249.5 229.5 271.2 243.2 271.2 291.2" fill="none"  stroke-linecap="round" stroke-linejoin="round" stroke-width="8"/><line x1="260" y1="205.3" x2="234.8" y2="250.4" fill="none"  stroke-linecap="round" stroke-linejoin="round" stroke-width="8"/><path d="M70.1,257.3V168.1a19.2,19.2,0,0,0-19.2-19.2" fill="none"  stroke-linecap="round" stroke-linejoin="round" stroke-width="8"/><path d="M370,291.2V48.5H348.2V4H411a16.41,16.41,0,0,1,16.4,16.4V393.6H526s34.1.4,34.1-34.1" fill="none"  stroke-linecap="round" stroke-linejoin="round" stroke-width="8"/><path d="M333,326a60,60,0,1,0,60,60A60,60,0,0,0,333,326Zm.1,92.5A32.5,32.5,0,1,1,365.6,386,32.5,32.5,0,0,1,333.1,418.5Z"/><line x1="333" y1="418.5" x2="333" y2="353.5" fill="none"  stroke-linecap="round" stroke-linejoin="round" stroke-width="8"/><line x1="355.9" y1="409" x2="309.9" y2="363.1" fill="none"  stroke-linecap="round" stroke-linejoin="round" stroke-width="8"/><line x1="365.4" y1="386.1" x2="300.4" y2="386.1" fill="none"  stroke-linecap="round" stroke-linejoin="round" stroke-width="8"/><line x1="355.9" y1="363.2" x2="309.9" y2="409.1" fill="none"  stroke-linecap="round" stroke-linejoin="round" stroke-width="8"/><circle cx="333" cy="386" r="15.3"/><path d="M56.9,346.1a50,50,0,1,0,50,50A50,50,0,0,0,56.9,346.1Zm.1,78a28,28,0,1,1,28-28A28,28,0,0,1,57,424.1Z"/><line x1="56.9" y1="424.1" x2="56.9" y2="368.1" fill="none"  stroke-linecap="round" stroke-linejoin="round" stroke-width="8"/><line x1="76.7" y1="415.9" x2="37.1" y2="376.3" fill="none"  stroke-linecap="round" stroke-linejoin="round" stroke-width="8"/><line x1="84.9" y1="396" x2="29" y2="396" fill="none"  stroke-linecap="round" stroke-linejoin="round" stroke-width="8"/><line x1="76.7" y1="376.2" x2="37.1" y2="415.7" fill="none"  stroke-linecap="round" stroke-linejoin="round" stroke-width="8"/><circle cx="56.9" cy="396.1" r="13"/></svg>