<svg xmlns="http://www.w3.org/2000/svg" width="582.9" height="430.1" stroke="currentColor" fill="currentColor" viewBox="0 0 582.9 430.1"><path d="M75,191.9V43.7H324.1L351.5,201c60.6,0,134.8,9.9,182.2,20.4,26.5,5.8,35.8,21.4,35.8,30.2v32.8s-34.5-11.6-72.2-11.6c0,0-75,4.9-75,85.2" transform="translate(0)" fill="none"  stroke-linecap="round" stroke-linejoin="round" stroke-width="8"/><line x1="240.8" y1="365.8" x2="334.5" y2="365.8" fill="none"  stroke-linecap="round" stroke-linejoin="round" stroke-width="8"/><line x1="278" y1="221.4" x2="304.7" y2="221.4" fill="none"  stroke-linecap="round" stroke-linejoin="round" stroke-width="8"/><line x1="167.5" y1="198.1" x2="167.5" y2="43.8" fill="none"  stroke-linecap="round" stroke-linejoin="round" stroke-width="8"/><path d="M386.9,198.1V34.3S387.2,12,411.4,4l16.5,22.5s-15.6,1.9-15.6,24.2v96" transform="translate(0)" fill="none"  stroke-linecap="round" stroke-linejoin="round" stroke-width="8"/><path d="M242.4,336A126.53,126.53,0,0,0,4,276.9" transform="translate(0)" fill="none"  stroke-linecap="round" stroke-linejoin="round" stroke-width="8"/><path d="M75,43.7H58.2V35.3a14,14,0,0,1,14-14H306.7a25.29,25.29,0,0,1,21.7,12.2l6.1,10.2Z" transform="translate(0)" fill="none"  stroke-linecap="round" stroke-linejoin="round" stroke-width="8"/><path d="M520.4,305.1a62.5,62.5,0,1,0,62.5,62.5A62.52,62.52,0,0,0,520.4,305.1Zm.1,100A37.5,37.5,0,1,1,558,367.6,37.51,37.51,0,0,1,520.5,405.1Z" transform="translate(0)"/><line x1="520.4" y1="406.1" x2="520.4" y2="329.1" fill="none"  stroke-linecap="round" stroke-linejoin="round" stroke-width="8"/><line x1="547.5" y1="394.9" x2="493" y2="340.4" fill="none"  stroke-linecap="round" stroke-linejoin="round" stroke-width="8"/><line x1="558.7" y1="367.8" x2="481.6" y2="367.8" fill="none"  stroke-linecap="round" stroke-linejoin="round" stroke-width="8"/><line x1="547.5" y1="340.7" x2="493" y2="395.2" fill="none"  stroke-linecap="round" stroke-linejoin="round" stroke-width="8"/><circle cx="520.4" cy="367.6" r="18.3"/><path d="M114.9,240.1a95,95,0,1,0,95,95A95,95,0,0,0,114.9,240.1Zm.3,152.5a57.5,57.5,0,1,1,57.5-57.5A57.44,57.44,0,0,1,115.2,392.6Z" transform="translate(0)"/><line x1="114.9" y1="277.6" x2="114.9" y2="392.6" fill="none"  stroke-linecap="round" stroke-linejoin="round" stroke-width="8"/><line x1="74.2" y1="294.4" x2="155.5" y2="375.8" fill="none"  stroke-linecap="round" stroke-linejoin="round" stroke-width="8"/><line x1="57.4" y1="335.1" x2="172.4" y2="335.1" fill="none"  stroke-linecap="round" stroke-linejoin="round" stroke-width="8"/><line x1="74.2" y1="375.8" x2="155.5" y2="294.4" fill="none"  stroke-linecap="round" stroke-linejoin="round" stroke-width="8"/><circle cx="114.9" cy="335.1" r="27.3"/></svg>