<svg xmlns="http://www.w3.org/2000/svg" width="735.61" height="226.9" viewBox="0 0 735.61 226.9" stroke="currentColor" fill="currentColor"><polyline points="254.81 187 254.81 187 496.31 187" fill="none"  stroke-linecap="round" stroke-linejoin="round" stroke-width="8"/><path d="M101.5,181.9c-27.6,0-68.3-11.7-83.5-13A15.26,15.26,0,0,1,4,153.3c.2-6.5.3-14.4.3-21.7,0-29.7,17.4-32.5,17.4-58.7,0-17.7,14.1-17.8,14.1-17.8h76.9c17.4,0,50.1-51,123.1-51h112s64,0,100,20,68,35,68,35S637.2,70.2,688,76.9a31.57,31.57,0,0,1,25.2,19.7c24.5,62,29.5,90.4-16.1,90.4" transform="translate(0 -0.1)" fill="none"  stroke-linecap="round" stroke-linejoin="round" stroke-width="8"/><line x1="355.8" y1="87" x2="331.8" y2="87" fill="none"  stroke-linecap="round" stroke-linejoin="round" stroke-width="8"/><line x1="199.8" y1="87" x2="223.8" y2="87" fill="none"  stroke-linecap="round" stroke-linejoin="round" stroke-width="8"/><path d="M396.5,59.2H209.2a13.4,13.4,0,0,1-13.4-13.4,21.05,21.05,0,0,1,.2-2.5c1.6-8.1,6.3-18,18.3-25.7" transform="translate(0 -0.1)" fill="none"  stroke-linecap="round" stroke-linejoin="round" stroke-width="8"/><path d="M20.7,83.1H48.5a5.83,5.83,0,0,1,5.2,8.4L43.5,111.9a5.77,5.77,0,0,1-5.2,3.2H6.6" transform="translate(0 -0.1)" fill="none"  stroke-linecap="round" stroke-linejoin="round" stroke-width="8"/><path d="M703.5,85.1h-22a12.07,12.07,0,0,0-9.3,19.8l4.5,5.5a23.64,23.64,0,0,0,18.3,8.7l27.2,1.3" transform="translate(0 -0.1)" fill="none"  stroke-linecap="round" stroke-linejoin="round" stroke-width="8"/><line x1="139.9" y1="176.9" x2="199.9" y2="176.9" fill="none"  stroke-linecap="round" stroke-linejoin="round" stroke-width="8"/><line x1="148.7" y1="198.2" x2="191.2" y2="155.7" fill="none"  stroke-linecap="round" stroke-linejoin="round" stroke-width="8"/><line x1="169.9" y1="206.9" x2="169.9" y2="146.9" fill="none"  stroke-linecap="round" stroke-linejoin="round" stroke-width="8"/><line x1="191.2" y1="198.2" x2="148.7" y2="155.7" fill="none"  stroke-linecap="round" stroke-linejoin="round" stroke-width="8"/><circle cx="169.9" cy="176.9" r="15"/><path d="M169.9,127a50,50,0,1,0,50,50,50,50,0,0,0-50-50Zm0,80.1a30,30,0,1,1,30-30,30,30,0,0,1-30,30c.1.1,0,.1,0,0Z" transform="translate(0 -0.1)"/><line x1="593.2" y1="176.9" x2="653.2" y2="176.9" fill="none"  stroke-linecap="round" stroke-linejoin="round" stroke-width="8"/><line x1="601.9" y1="198.2" x2="644.4" y2="155.7" fill="none"  stroke-linecap="round" stroke-linejoin="round" stroke-width="8"/><line x1="623.2" y1="206.9" x2="623.2" y2="146.9" fill="none"  stroke-linecap="round" stroke-linejoin="round" stroke-width="8"/><line x1="644.4" y1="198.2" x2="601.9" y2="155.7" fill="none"  stroke-linecap="round" stroke-linejoin="round" stroke-width="8"/><circle cx="623.2" cy="176.9" r="15"/><path d="M623.1,127a50,50,0,1,0,50,50A50,50,0,0,0,623.1,127Zm0,80.1a30,30,0,1,1,30-30,30,30,0,0,1-30,30Z" transform="translate(0 -0.1)"/></svg>