<svg xmlns="http://www.w3.org/2000/svg" fill="none" viewBox="0 0 54 34"><defs/><mask id="a" width="54" height="34" x="-.207" y=".063" fill="#000" maskUnits="userSpaceOnUse"><path fill="currentColor" d="M-.207.063h54v34h-54z"/><path d="M53.294 18.746C52.98 13.503 41.956 1.707 41.48 1.205l-.142-.143H8.955c-4.503 0-8.162 3.66-8.162 8.164v9.548A8.148 8.148 0 008.15 26.9c0 .038.009.086.009.124 0 .047.01.095.01.142.009.057.009.114.018.17.01.048.01.095.02.143l.028.17.028.143c.01.057.029.113.038.17l.029.133c.019.057.028.114.047.17.01.048.028.086.038.133l.057.171c.01.038.028.085.038.123.019.067.047.124.076.19.01.028.028.066.038.095.037.095.085.18.123.275.019.038.038.066.057.104.028.057.057.114.085.161.019.038.047.076.066.114l.086.142c.028.038.047.076.075.124.029.047.057.094.086.132l.085.114a.608.608 0 00.095.123l.085.114c.029.038.067.085.095.123.028.038.066.076.095.114.038.038.066.076.104.114a.54.54 0 00.104.104c.038.038.067.076.105.114l.104.104c.038.038.076.067.114.105.038.038.076.066.114.095.037.038.075.066.113.104.038.028.076.066.114.095.038.028.076.066.123.095l.114.085c.038.028.085.057.123.085.038.029.086.057.123.085.048.029.086.057.133.086.038.028.085.047.123.076.048.028.086.057.133.075.038.029.085.048.133.067.047.028.095.047.142.076.047.019.085.047.133.066.047.02.095.047.142.067.047.019.085.037.133.056.047.02.104.038.151.057.048.02.086.038.133.048.047.019.104.038.152.057.047.018.095.028.133.047.056.019.104.028.16.047.048.01.095.029.133.038.057.01.114.029.171.038l.133.029.17.028c.048.01.086.02.133.02l.19.027c.038.01.085.01.123.02.066.009.142.009.209.019.038 0 .075.009.104.009.104.01.218.01.322.01.104 0 .218 0 .322-.01.038 0 .067-.01.105-.01.066 0 .142-.009.208-.018.038 0 .086-.01.124-.02l.19-.028c.047-.01.085-.019.132-.019.057-.01.114-.019.18-.028.047-.01.085-.02.133-.029.057-.01.114-.028.17-.038.048-.01.086-.028.133-.038.057-.019.104-.028.161-.047.048-.01.086-.029.133-.047.057-.02.104-.038.161-.057.048-.02.085-.029.133-.048.047-.019.104-.038.151-.057.048-.019.086-.038.133-.056.048-.02.095-.048.152-.067a.507.507 0 00.123-.066c.048-.029.095-.048.142-.076l.124-.067.142-.085c.038-.028.076-.047.123-.076.047-.028.095-.057.133-.085.038-.028.076-.047.114-.076.047-.028.085-.066.132-.095l.114-.085a.656.656 0 00.123-.104c.038-.029.076-.057.105-.086.037-.038.085-.066.123-.104a.932.932 0 00.104-.095l.114-.114.095-.094c.038-.038.075-.076.113-.124l.095-.095c.038-.037.076-.085.114-.132.028-.038.057-.067.085-.104.038-.048.076-.095.105-.143.028-.028.047-.066.075-.095.038-.047.076-.104.114-.151.02-.029.048-.057.066-.095.038-.066.086-.123.124-.19.01-.019.028-.038.038-.057.047-.085.104-.17.151-.265.02-.029.029-.057.038-.076.029-.066.067-.123.095-.19.02-.037.029-.075.048-.104.028-.057.047-.114.075-.17.02-.039.029-.076.048-.124.019-.057.047-.104.066-.161.02-.038.029-.085.047-.133l.057-.16c.01-.048.029-.086.038-.134.02-.057.029-.104.048-.16.01-.048.019-.096.038-.143.01-.057.028-.104.038-.161l.028-.142.028-.162a.73.73 0 00.02-.142c.009-.057.018-.114.018-.17.01-.048.01-.095.02-.152 0-.029.009-.067.009-.095h11.907c0 .038.01.066.01.095 0 .047.009.095.009.142.01.057.01.114.019.17.01.048.01.095.019.143l.028.17.029.143c.009.057.028.114.037.17.01.048.02.095.038.133.02.057.029.114.048.161.01.048.028.086.038.133.019.057.038.114.057.161.019.038.028.086.047.123.019.057.047.114.066.171.02.038.029.076.048.114.028.057.047.114.076.17.019.039.028.067.047.105.028.066.066.133.104.2.01.027.029.046.038.075.048.085.095.18.152.265.01.02.019.038.038.057.038.067.085.133.133.2a.515.515 0 00.066.085c.038.057.076.104.114.16.028.03.047.067.075.096l.114.142a.863.863 0 00.086.095c.038.047.075.085.113.133.029.028.057.066.095.094.038.038.076.086.114.124l.095.094c.038.038.075.076.123.114a.952.952 0 01.104.095c.038.038.085.076.123.104.038.029.067.057.105.086.038.038.085.066.132.104l.114.085c.048.029.086.067.133.095.038.029.076.048.114.076.047.028.095.057.132.085.038.029.076.048.124.076l.142.085c.038.02.085.048.123.067.047.028.095.047.142.076.038.019.086.038.123.057.048.019.095.047.152.066.048.019.085.038.133.057.047.019.104.038.152.057.047.019.085.038.132.047l.162.057c.047.019.085.028.132.047.057.02.105.029.161.048.048.01.086.028.133.038.057.01.114.028.17.038l.133.028c.057.01.114.02.18.029.048.01.086.019.133.019l.19.028c.038.01.085.01.123.019.066.01.142.01.209.019.038 0 .066.01.104.01.104.009.218.009.322.009.105 0 .218 0 .323-.01.038 0 .066-.009.104-.009.066 0 .142-.01.209-.019.037 0 .085-.01.123-.019l.19-.028c.047-.01.085-.02.132-.02.057-.009.123-.018.18-.028.047-.01.085-.019.133-.028.057-.01.114-.029.17-.038.048-.01.086-.029.133-.038.057-.02.114-.029.161-.047.048-.01.086-.029.133-.038.057-.02.104-.038.161-.057.048-.02.086-.029.133-.048.057-.019.104-.038.161-.066.038-.02.085-.038.123-.057.048-.019.105-.047.152-.066.038-.02.085-.038.123-.057.048-.029.105-.048.152-.076.038-.02.076-.047.123-.067l.142-.085c.038-.019.076-.047.114-.066.048-.029.095-.057.142-.095.038-.028.076-.047.114-.076.048-.028.095-.066.142-.095l.105-.075.132-.105c.038-.028.067-.057.105-.085.047-.038.085-.076.132-.114.029-.028.067-.057.095-.085a.752.752 0 00.123-.124 34.3 34.3 0 00.086-.085c.038-.038.085-.085.123-.133l.085-.085c.038-.047.076-.095.123-.142.029-.029.048-.057.076-.085.038-.048.076-.105.124-.152.019-.029.047-.057.066-.086.038-.056.076-.113.123-.17.02-.029.038-.048.057-.076.047-.067.085-.133.133-.2.01-.018.019-.037.028-.047.105-.17.2-.35.294-.53.01-.02.02-.048.029-.067.028-.066.066-.142.094-.209.01-.028.029-.066.038-.094.029-.057.048-.124.076-.19.01-.038.029-.076.038-.114.019-.057.038-.114.057-.18.01-.038.028-.085.038-.123.019-.057.038-.114.047-.17.01-.048.02-.086.029-.134.01-.056.028-.113.038-.17l.028-.143.029-.17c.009-.048.009-.095.018-.142.01-.057.02-.114.02-.171.009-.047.009-.095.009-.152 0-.038.01-.066.01-.104 4.303-.228 7.735-3.793 7.735-8.154l-.01-.01zm-3.005-4.874H38.95V2.011h1.982c.938 1.014 6.332 6.921 9.356 11.861zm-5.66 12.611V26.768c0 .047-.01.104-.01.151 0 .038-.01.086-.01.124-.009.056-.009.104-.018.16-.01.039-.01.077-.019.115l-.029.16c-.009.039-.009.067-.018.105-.01.057-.029.114-.038.161a.336.336 0 00-.02.095c-.018.057-.028.114-.047.17-.01.03-.019.058-.028.096-.02.056-.038.113-.057.17l-.029.086c-.018.056-.047.113-.066.17-.01.029-.019.048-.028.076-.029.057-.048.114-.076.17-.01.02-.02.048-.029.067l-.085.17c-.01.02-.019.048-.038.067-.028.057-.066.114-.095.17-.01.02-.019.039-.038.058-.037.057-.066.113-.104.17-.01.02-.019.038-.038.057-.038.057-.076.105-.114.162a.206.206 0 01-.037.047c-.038.057-.086.104-.124.161-.01.02-.028.029-.038.047-.047.048-.085.105-.132.152-.01.02-.029.029-.038.048a2.242 2.242 0 00-.142.151l-.038.038a2.218 2.218 0 01-.152.143l-.038.037a1.096 1.096 0 01-.161.133l-.038.038a1.84 1.84 0 01-.161.123c-.02.01-.029.029-.048.038-.056.038-.104.076-.16.114-.02.01-.03.029-.048.038-.057.038-.114.076-.17.104-.02.01-.039.02-.048.038-.057.038-.114.067-.17.105l-.058.028-.17.085c-.02.01-.038.02-.067.029-.057.028-.113.057-.17.076-.02.01-.048.019-.067.028a1.262 1.262 0 01-.17.066c-.029.01-.048.02-.076.029l-.17.057c-.03.01-.048.019-.077.028a1.14 1.14 0 01-.17.048l-.086.028a1.015 1.015 0 01-.18.038c-.028.01-.057.01-.085.019-.066.01-.123.019-.19.038-.028 0-.047.01-.075.01l-.19.028c-.029 0-.057.01-.085.01-.067.009-.133.009-.2.018-.028 0-.047 0-.075.01-.095 0-.19.01-.275.01-.086 0-.19 0-.275-.01-.029 0-.048 0-.076-.01-.066 0-.133-.01-.2-.019-.037 0-.066-.01-.103-.01-.057-.009-.114-.009-.171-.018-.038-.01-.066-.01-.095-.02l-.17-.028a1.512 1.512 0 01-.105-.028c-.047-.01-.104-.019-.151-.038-.038-.01-.067-.019-.105-.028-.047-.02-.104-.029-.151-.048-.029-.01-.067-.019-.095-.028l-.161-.057c-.029-.01-.067-.029-.095-.038l-.152-.057c-.028-.01-.057-.028-.085-.038-.048-.019-.104-.047-.152-.066-.028-.01-.057-.029-.085-.048-.048-.028-.104-.047-.152-.076-.028-.009-.047-.028-.076-.047-.047-.028-.104-.057-.151-.085-.029-.02-.048-.029-.076-.048a1.233 1.233 0 01-.142-.095c-.029-.018-.048-.037-.076-.047-.048-.038-.095-.066-.142-.104-.02-.02-.048-.038-.067-.057-.047-.038-.095-.076-.142-.104l-.057-.057a1.627 1.627 0 01-.133-.114l-.056-.057c-.048-.038-.086-.085-.133-.123l-.057-.057c-.038-.047-.085-.085-.123-.133-.02-.019-.038-.038-.048-.057-.038-.047-.085-.095-.123-.142a.29.29 0 01-.047-.066l-.114-.143a.284.284 0 01-.047-.066c-.038-.047-.067-.095-.105-.142-.019-.029-.028-.048-.047-.076-.029-.047-.067-.095-.095-.142l-.047-.076a2.127 2.127 0 01-.086-.152c-.01-.028-.028-.057-.038-.076a1.141 1.141 0 01-.075-.151c-.01-.029-.029-.057-.038-.086-.029-.057-.048-.104-.076-.16a.332.332 0 00-.038-.086c-.02-.057-.048-.104-.067-.161l-.028-.095c-.019-.057-.038-.104-.057-.161-.01-.029-.019-.067-.028-.105-.02-.057-.029-.104-.048-.16-.01-.039-.019-.067-.028-.105-.01-.057-.029-.104-.038-.161-.01-.038-.01-.076-.019-.114-.01-.048-.019-.105-.029-.152-.009-.038-.009-.076-.018-.114a.828.828 0 01-.02-.151c0-.038-.009-.086-.009-.124 0-.047-.01-.104-.01-.151v-.133-.152a5.448 5.448 0 015.442-5.442c2.996 0 5.442 2.436 5.442 5.433l-.038.01zM32.807 26h-11.83V14.82h17.025v5.367A6.421 6.421 0 0032.807 26zm-12.845.625v.133c0 .048-.01.095-.01.142 0 .048-.01.086-.01.133-.009.047-.009.095-.018.142-.01.048-.01.086-.02.133l-.028.133c-.01.047-.019.085-.028.133l-.028.132c-.01.048-.02.086-.029.133-.01.048-.028.085-.038.133-.01.038-.019.085-.038.123-.01.047-.028.085-.047.133-.01.038-.029.085-.038.123-.02.038-.029.085-.047.123-.02.038-.029.086-.048.124-.019.038-.038.085-.057.123a1.525 1.525 0 00-.057.123c-.019.038-.038.076-.057.123l-.056.114c-.02.038-.048.076-.067.123-.019.038-.038.076-.066.105-.029.038-.048.076-.076.123-.019.038-.047.066-.066.104a.797.797 0 00-.076.114l-.076.104c-.029.038-.057.076-.085.105-.029.028-.048.066-.076.094-.029.038-.057.067-.095.105a.668.668 0 00-.076.095c-.028.038-.066.066-.095.104l-.085.085c-.038.038-.066.067-.104.095l-.086.085c-.037.029-.075.067-.113.095-.029.029-.057.048-.086.076-.038.028-.076.066-.123.095-.028.019-.057.047-.085.066-.038.029-.076.057-.123.086-.029.019-.057.047-.095.066-.038.028-.076.047-.123.076-.038.019-.067.047-.105.066-.038.029-.085.048-.133.076-.028.019-.066.038-.094.057a.954.954 0 01-.143.066.442.442 0 01-.094.048c-.048.019-.095.047-.142.066a.447.447 0 00-.095.048l-.142.056c-.038.01-.067.029-.105.038-.047.02-.095.038-.151.048-.038.01-.067.028-.105.038-.047.019-.104.028-.151.047-.038.01-.067.02-.105.029-.057.009-.104.028-.16.037-.039.01-.067.02-.105.029l-.161.028c-.038.01-.067.01-.105.02-.047.009-.094.009-.142.018-.038.01-.085.01-.123.02-.057.009-.104.009-.161.009-.038 0-.076.01-.114.01-.095 0-.19.009-.284.009-.095 0-.19 0-.285-.01-.028 0-.047 0-.076-.01-.066 0-.132-.009-.199-.018-.047 0-.085-.01-.132-.02-.048-.009-.095-.009-.143-.018-.047-.01-.094-.02-.151-.029-.038-.01-.076-.01-.123-.019-.067-.009-.133-.028-.2-.047-.019-.01-.037-.01-.056-.01l-.2-.056c-.018-.01-.037-.01-.056-.02-.076-.028-.162-.047-.238-.075-.009 0-.009 0-.018-.01l-.228-.085c-.01 0-.019-.01-.019-.01-.076-.037-.161-.066-.237-.104l-.227-.113h-.01a5.524 5.524 0 01-2.057-1.963c-.047-.067-.085-.142-.123-.218l-.01-.01a2.15 2.15 0 01-.104-.208c0-.01-.01-.02-.01-.029-.028-.066-.066-.133-.094-.209-.01-.009-.01-.018-.02-.037a1.716 1.716 0 01-.075-.2c-.01-.019-.01-.028-.02-.047-.018-.066-.047-.133-.065-.19-.01-.018-.01-.038-.02-.056-.018-.067-.037-.124-.056-.19-.01-.02-.01-.047-.02-.067a1.008 1.008 0 01-.037-.18c-.01-.028-.01-.056-.02-.085l-.028-.17c-.01-.039-.01-.067-.019-.105-.009-.047-.009-.104-.019-.152-.009-.038-.009-.076-.018-.113-.01-.048-.01-.095-.01-.152 0-.038-.01-.085-.01-.123v-.143-.142a5.448 5.448 0 015.442-5.442 5.448 5.448 0 015.442 5.442v.01c.01.019 0 .066 0 .113zm1.014-12.753V2.011h17.026v11.861H20.976zM8.956 2.011h11.063v11.861H1.74V9.226c0-3.973 3.242-7.215 7.214-7.215zM1.74 18.775V14.82h18.287v8.4a6.404 6.404 0 00-5.498-3.138c-3.347 0-6.096 2.589-6.371 5.87a7.204 7.204 0 01-6.418-7.178zm43.807 7.206c-.256-3.3-3.014-5.898-6.37-5.898-.076 0-.152 0-.237.01V14.83h11.907c.853 1.517 1.431 2.911 1.498 3.964a7.224 7.224 0 01-6.798 7.187z"/></mask><path fill="currentColor" d="M53.294 18.746C52.98 13.503 41.956 1.707 41.48 1.205l-.142-.143H8.955c-4.503 0-8.162 3.66-8.162 8.164v9.548A8.148 8.148 0 008.15 26.9c0 .038.009.086.009.124 0 .047.01.095.01.142.009.057.009.114.018.17.01.048.01.095.02.143l.028.17.028.143c.01.057.029.113.038.17l.029.133c.019.057.028.114.047.17.01.048.028.086.038.133l.057.171c.01.038.028.085.038.123.019.067.047.124.076.19.01.028.028.066.038.095.037.095.085.18.123.275.019.038.038.066.057.104.028.057.057.114.085.161.019.038.047.076.066.114l.086.142c.028.038.047.076.075.124.029.047.057.094.086.132l.085.114a.608.608 0 00.095.123l.085.114c.029.038.067.085.095.123.028.038.066.076.095.114.038.038.066.076.104.114a.54.54 0 00.104.104c.038.038.067.076.105.114l.104.104c.038.038.076.067.114.105.038.038.076.066.114.095.037.038.075.066.113.104.038.028.076.066.114.095.038.028.076.066.123.095l.114.085c.038.028.085.057.123.085.038.029.086.057.123.085.048.029.086.057.133.086.038.028.085.047.123.076.048.028.086.057.133.075.038.029.085.048.133.067.047.028.095.047.142.076.047.019.085.047.133.066.047.02.095.047.142.067.047.019.085.037.133.056.047.02.104.038.151.057.048.02.086.038.133.048.047.019.104.038.152.057.047.018.095.028.133.047.056.019.104.028.16.047.048.01.095.029.133.038.057.01.114.029.171.038l.133.029.17.028c.048.01.086.02.133.02l.19.027c.038.01.085.01.123.02.066.009.142.009.209.019.038 0 .075.009.104.009.104.01.218.01.322.01.104 0 .218 0 .322-.01.038 0 .067-.01.105-.01.066 0 .142-.009.208-.018.038 0 .086-.01.124-.02l.19-.028c.047-.01.085-.019.132-.019.057-.01.114-.019.18-.028.047-.01.085-.02.133-.029.057-.01.114-.028.17-.038.048-.01.086-.028.133-.038.057-.019.104-.028.161-.047.048-.01.086-.029.133-.047.057-.02.104-.038.161-.057.048-.02.085-.029.133-.048.047-.019.104-.038.151-.057.048-.019.086-.038.133-.056.048-.02.095-.048.152-.067a.507.507 0 00.123-.066c.048-.029.095-.048.142-.076l.124-.067.142-.085c.038-.028.076-.047.123-.076.047-.028.095-.057.133-.085.038-.028.076-.047.114-.076.047-.028.085-.066.132-.095l.114-.085a.656.656 0 00.123-.104c.038-.029.076-.057.105-.086.037-.038.085-.066.123-.104a.932.932 0 00.104-.095l.114-.114.095-.094c.038-.038.075-.076.113-.124l.095-.095c.038-.037.076-.085.114-.132.028-.038.057-.067.085-.104.038-.048.076-.095.105-.143.028-.028.047-.066.075-.095.038-.047.076-.104.114-.151.02-.029.048-.057.066-.095.038-.066.086-.123.124-.19.01-.019.028-.038.038-.057.047-.085.104-.17.151-.265.02-.029.029-.057.038-.076.029-.066.067-.123.095-.19.02-.037.029-.075.048-.104.028-.057.047-.114.075-.17.02-.039.029-.076.048-.124.019-.057.047-.104.066-.161.02-.038.029-.085.047-.133l.057-.16c.01-.048.029-.086.038-.134.02-.057.029-.104.048-.16.01-.048.019-.096.038-.143.01-.057.028-.104.038-.161l.028-.142.028-.162a.73.73 0 00.02-.142c.009-.057.018-.114.018-.17.01-.048.01-.095.02-.152 0-.029.009-.067.009-.095h11.907c0 .038.01.066.01.095 0 .047.009.095.009.142.01.057.01.114.019.17.01.048.01.095.019.143l.028.17.029.143c.009.057.028.114.037.17.01.048.02.095.038.133.02.057.029.114.048.161.01.048.028.086.038.133.019.057.038.114.057.161.019.038.028.086.047.123.019.057.047.114.066.171.02.038.029.076.048.114.028.057.047.114.076.17.019.039.028.067.047.105.028.066.066.133.104.2.01.027.029.046.038.075.048.085.095.18.152.265.01.02.019.038.038.057.038.067.085.133.133.2a.515.515 0 00.066.085c.038.057.076.104.114.16.028.03.047.067.075.096l.114.142a.863.863 0 00.086.095c.038.047.075.085.113.133.029.028.057.066.095.094.038.038.076.086.114.124l.095.094c.038.038.075.076.123.114a.952.952 0 01.104.095c.038.038.085.076.123.104.038.029.067.057.105.086.038.038.085.066.132.104l.114.085c.048.029.086.067.133.095.038.029.076.048.114.076.047.028.095.057.132.085.038.029.076.048.124.076l.142.085c.038.02.085.048.123.067.047.028.095.047.142.076.038.019.086.038.123.057.048.019.095.047.152.066.048.019.085.038.133.057.047.019.104.038.152.057.047.019.085.038.132.047l.162.057c.047.019.085.028.132.047.057.02.105.029.161.048.048.01.086.028.133.038.057.01.114.028.17.038l.133.028c.057.01.114.02.18.029.048.01.086.019.133.019l.19.028c.038.01.085.01.123.019.066.01.142.01.209.019.038 0 .066.01.104.01.104.009.218.009.322.009.105 0 .218 0 .323-.01.038 0 .066-.009.104-.009.066 0 .142-.01.209-.019.037 0 .085-.01.123-.019l.19-.028c.047-.01.085-.02.132-.02.057-.009.123-.018.18-.028.047-.01.085-.019.133-.028.057-.01.114-.029.17-.038.048-.01.086-.029.133-.038.057-.02.114-.029.161-.047.048-.01.086-.029.133-.038.057-.02.104-.038.161-.057.048-.02.086-.029.133-.048.057-.019.104-.038.161-.066.038-.02.085-.038.123-.057.048-.019.105-.047.152-.066.038-.02.085-.038.123-.057.048-.029.105-.048.152-.076.038-.02.076-.047.123-.067l.142-.085c.038-.019.076-.047.114-.066.048-.029.095-.057.142-.095.038-.028.076-.047.114-.076.048-.028.095-.066.142-.095l.105-.075.132-.105c.038-.028.067-.057.105-.085.047-.038.085-.076.132-.114.029-.028.067-.057.095-.085a.752.752 0 00.123-.124 34.3 34.3 0 00.086-.085c.038-.038.085-.085.123-.133l.085-.085c.038-.047.076-.095.123-.142.029-.029.048-.057.076-.085.038-.048.076-.105.124-.152.019-.029.047-.057.066-.086.038-.056.076-.113.123-.17.02-.029.038-.048.057-.076.047-.067.085-.133.133-.2.01-.018.019-.037.028-.047.105-.17.2-.35.294-.53.01-.02.02-.048.029-.067.028-.066.066-.142.094-.209.01-.028.029-.066.038-.094.029-.057.048-.124.076-.19.01-.038.029-.076.038-.114.019-.057.038-.114.057-.18.01-.038.028-.085.038-.123.019-.057.038-.114.047-.17.01-.048.02-.086.029-.134.01-.056.028-.113.038-.17l.028-.143.029-.17c.009-.048.009-.095.018-.142.01-.057.02-.114.02-.171.009-.047.009-.095.009-.152 0-.038.01-.066.01-.104 4.303-.228 7.735-3.793 7.735-8.154l-.01-.01zm-3.005-4.874H38.95V2.011h1.982c.938 1.014 6.332 6.921 9.356 11.861zm-5.66 12.611V26.768c0 .047-.01.104-.01.151 0 .038-.01.086-.01.124-.009.056-.009.104-.018.16-.01.039-.01.077-.019.115l-.029.16c-.009.039-.009.067-.018.105-.01.057-.029.114-.038.161a.336.336 0 00-.02.095c-.018.057-.028.114-.047.17-.01.03-.019.058-.028.096-.02.056-.038.113-.057.17l-.029.086c-.018.056-.047.113-.066.17-.01.029-.019.048-.028.076-.029.057-.048.114-.076.17-.01.02-.02.048-.029.067l-.085.17c-.01.02-.019.048-.038.067-.028.057-.066.114-.095.17-.01.02-.019.039-.038.058-.037.057-.066.113-.104.17-.01.02-.019.038-.038.057-.038.057-.076.105-.114.162a.206.206 0 01-.037.047c-.038.057-.086.104-.124.161-.01.02-.028.029-.038.047-.047.048-.085.105-.132.152-.01.02-.029.029-.038.048a2.242 2.242 0 00-.142.151l-.038.038a2.218 2.218 0 01-.152.143l-.038.037a1.096 1.096 0 01-.161.133l-.038.038a1.84 1.84 0 01-.161.123c-.02.01-.029.029-.048.038-.056.038-.104.076-.16.114-.02.01-.03.029-.048.038-.057.038-.114.076-.17.104-.02.01-.039.02-.048.038-.057.038-.114.067-.17.105l-.058.028-.17.085c-.02.01-.038.02-.067.029-.057.028-.113.057-.17.076-.02.01-.048.019-.067.028a1.262 1.262 0 01-.17.066c-.029.01-.048.02-.076.029l-.17.057c-.03.01-.048.019-.077.028a1.14 1.14 0 01-.17.048l-.086.028a1.015 1.015 0 01-.18.038c-.028.01-.057.01-.085.019-.066.01-.123.019-.19.038-.028 0-.047.01-.075.01l-.19.028c-.029 0-.057.01-.085.01-.067.009-.133.009-.2.018-.028 0-.047 0-.075.01-.095 0-.19.01-.275.01-.086 0-.19 0-.275-.01-.029 0-.048 0-.076-.01-.066 0-.133-.01-.2-.019-.037 0-.066-.01-.103-.01-.057-.009-.114-.009-.171-.018-.038-.01-.066-.01-.095-.02l-.17-.028a1.512 1.512 0 01-.105-.028c-.047-.01-.104-.019-.151-.038-.038-.01-.067-.019-.105-.028-.047-.02-.104-.029-.151-.048-.029-.01-.067-.019-.095-.028l-.161-.057c-.029-.01-.067-.029-.095-.038l-.152-.057c-.028-.01-.057-.028-.085-.038-.048-.019-.104-.047-.152-.066-.028-.01-.057-.029-.085-.048-.048-.028-.104-.047-.152-.076-.028-.009-.047-.028-.076-.047-.047-.028-.104-.057-.151-.085-.029-.02-.048-.029-.076-.048a1.233 1.233 0 01-.142-.095c-.029-.018-.048-.037-.076-.047-.048-.038-.095-.066-.142-.104-.02-.02-.048-.038-.067-.057-.047-.038-.095-.076-.142-.104l-.057-.057a1.627 1.627 0 01-.133-.114l-.056-.057c-.048-.038-.086-.085-.133-.123l-.057-.057c-.038-.047-.085-.085-.123-.133-.02-.019-.038-.038-.048-.057-.038-.047-.085-.095-.123-.142a.29.29 0 01-.047-.066l-.114-.143a.284.284 0 01-.047-.066c-.038-.047-.067-.095-.105-.142-.019-.029-.028-.048-.047-.076-.029-.047-.067-.095-.095-.142l-.047-.076a2.127 2.127 0 01-.086-.152c-.01-.028-.028-.057-.038-.076a1.141 1.141 0 01-.075-.151c-.01-.029-.029-.057-.038-.086-.029-.057-.048-.104-.076-.16a.332.332 0 00-.038-.086c-.02-.057-.048-.104-.067-.161l-.028-.095c-.019-.057-.038-.104-.057-.161-.01-.029-.019-.067-.028-.105-.02-.057-.029-.104-.048-.16-.01-.039-.019-.067-.028-.105-.01-.057-.029-.104-.038-.161-.01-.038-.01-.076-.019-.114-.01-.048-.019-.105-.029-.152-.009-.038-.009-.076-.018-.114a.828.828 0 01-.02-.151c0-.038-.009-.086-.009-.124 0-.047-.01-.104-.01-.151v-.133-.152a5.448 5.448 0 015.442-5.442c2.996 0 5.442 2.436 5.442 5.433l-.038.01zM32.807 26h-11.83V14.82h17.025v5.367A6.421 6.421 0 0032.807 26zm-12.845.625v.133c0 .048-.01.095-.01.142 0 .048-.01.086-.01.133-.009.047-.009.095-.018.142-.01.048-.01.086-.02.133l-.028.133c-.01.047-.019.085-.028.133l-.028.132c-.01.048-.02.086-.029.133-.01.048-.028.085-.038.133-.01.038-.019.085-.038.123-.01.047-.028.085-.047.133-.01.038-.029.085-.038.123-.02.038-.029.085-.047.123-.02.038-.029.086-.048.124-.019.038-.038.085-.057.123a1.525 1.525 0 00-.057.123c-.019.038-.038.076-.057.123l-.056.114c-.02.038-.048.076-.067.123-.019.038-.038.076-.066.105-.029.038-.048.076-.076.123-.019.038-.047.066-.066.104a.797.797 0 00-.076.114l-.076.104c-.029.038-.057.076-.085.105-.029.028-.048.066-.076.094-.029.038-.057.067-.095.105a.668.668 0 00-.076.095c-.028.038-.066.066-.095.104l-.085.085c-.038.038-.066.067-.104.095l-.086.085c-.037.029-.075.067-.113.095-.029.029-.057.048-.086.076-.038.028-.076.066-.123.095-.028.019-.057.047-.085.066-.038.029-.076.057-.123.086-.029.019-.057.047-.095.066-.038.028-.076.047-.123.076-.038.019-.067.047-.105.066-.038.029-.085.048-.133.076-.028.019-.066.038-.094.057a.954.954 0 01-.143.066.442.442 0 01-.094.048c-.048.019-.095.047-.142.066a.447.447 0 00-.095.048l-.142.056c-.038.01-.067.029-.105.038-.047.02-.095.038-.151.048-.038.01-.067.028-.105.038-.047.019-.104.028-.151.047-.038.01-.067.02-.105.029-.057.009-.104.028-.16.037-.039.01-.067.02-.105.029l-.161.028c-.038.01-.067.01-.105.02-.047.009-.094.009-.142.018-.038.01-.085.01-.123.02-.057.009-.104.009-.161.009-.038 0-.076.01-.114.01-.095 0-.19.009-.284.009-.095 0-.19 0-.285-.01-.028 0-.047 0-.076-.01-.066 0-.132-.009-.199-.018-.047 0-.085-.01-.132-.02-.048-.009-.095-.009-.143-.018-.047-.01-.094-.02-.151-.029-.038-.01-.076-.01-.123-.019-.067-.009-.133-.028-.2-.047-.019-.01-.037-.01-.056-.01l-.2-.056c-.018-.01-.037-.01-.056-.02-.076-.028-.162-.047-.238-.075-.009 0-.009 0-.018-.01l-.228-.085c-.01 0-.019-.01-.019-.01-.076-.037-.161-.066-.237-.104l-.227-.113h-.01a5.524 5.524 0 01-2.057-1.963c-.047-.067-.085-.142-.123-.218l-.01-.01a2.15 2.15 0 01-.104-.208c0-.01-.01-.02-.01-.029-.028-.066-.066-.133-.094-.209-.01-.009-.01-.018-.02-.037a1.716 1.716 0 01-.075-.2c-.01-.019-.01-.028-.02-.047-.018-.066-.047-.133-.065-.19-.01-.018-.01-.038-.02-.056-.018-.067-.037-.124-.056-.19-.01-.02-.01-.047-.02-.067a1.008 1.008 0 01-.037-.18c-.01-.028-.01-.056-.02-.085l-.028-.17c-.01-.039-.01-.067-.019-.105-.009-.047-.009-.104-.019-.152-.009-.038-.009-.076-.018-.113-.01-.048-.01-.095-.01-.152 0-.038-.01-.085-.01-.123v-.143-.142a5.448 5.448 0 015.442-5.442 5.448 5.448 0 015.442 5.442v.01c.01.019 0 .066 0 .113zm1.014-12.753V2.011h17.026v11.861H20.976zM8.956 2.011h11.063v11.861H1.74V9.226c0-3.973 3.242-7.215 7.214-7.215zM1.74 18.775V14.82h18.287v8.4a6.404 6.404 0 00-5.498-3.138c-3.347 0-6.096 2.589-6.371 5.87a7.204 7.204 0 01-6.418-7.178zm43.807 7.206c-.256-3.3-3.014-5.898-6.37-5.898-.076 0-.152 0-.237.01V14.83h11.907c.853 1.517 1.431 2.911 1.498 3.964a7.224 7.224 0 01-6.798 7.187z"/><path stroke="currentColor" stroke-width=".5" d="M53.294 18.746C52.98 13.503 41.956 1.707 41.48 1.205l-.142-.143H8.955c-4.503 0-8.162 3.66-8.162 8.164v9.548A8.148 8.148 0 008.15 26.9c0 .038.009.086.009.124 0 .047.01.095.01.142.009.057.009.114.018.17.01.048.01.095.02.143l.028.17.028.143c.01.057.029.113.038.17l.029.133c.019.057.028.114.047.17.01.048.028.086.038.133l.057.171c.01.038.028.085.038.123.019.067.047.124.076.19.01.028.028.066.038.095.037.095.085.18.123.275.019.038.038.066.057.104.028.057.057.114.085.161.019.038.047.076.066.114l.086.142c.028.038.047.076.075.124.029.047.057.094.086.132l.085.114a.608.608 0 00.095.123l.085.114c.029.038.067.085.095.123.028.038.066.076.095.114.038.038.066.076.104.114a.54.54 0 00.104.104c.038.038.067.076.105.114l.104.104c.038.038.076.067.114.105.038.038.076.066.114.095.037.038.075.066.113.104.038.028.076.066.114.095.038.028.076.066.123.095l.114.085c.038.028.085.057.123.085.038.029.086.057.123.085.048.029.086.057.133.086.038.028.085.047.123.076.048.028.086.057.133.075.038.029.085.048.133.067.047.028.095.047.142.076.047.019.085.047.133.066.047.02.095.047.142.067.047.019.085.037.133.056.047.02.104.038.151.057.048.02.086.038.133.048.047.019.104.038.152.057.047.018.095.028.133.047.056.019.104.028.16.047.048.01.095.029.133.038.057.01.114.029.171.038l.133.029.17.028c.048.01.086.02.133.02l.19.027c.038.01.085.01.123.02.066.009.142.009.209.019.038 0 .075.009.104.009.104.01.218.01.322.01.104 0 .218 0 .322-.01.038 0 .067-.01.105-.01.066 0 .142-.009.208-.018.038 0 .086-.01.124-.02l.19-.028c.047-.01.085-.019.132-.019.057-.01.114-.019.18-.028.047-.01.085-.02.133-.029.057-.01.114-.028.17-.038.048-.01.086-.028.133-.038.057-.019.104-.028.161-.047.048-.01.086-.029.133-.047.057-.02.104-.038.161-.057.048-.02.085-.029.133-.048.047-.019.104-.038.151-.057.048-.019.086-.038.133-.056.048-.02.095-.048.152-.067a.507.507 0 00.123-.066c.048-.029.095-.048.142-.076l.124-.067.142-.085c.038-.028.076-.047.123-.076.047-.028.095-.057.133-.085.038-.028.076-.047.114-.076.047-.028.085-.066.132-.095l.114-.085a.656.656 0 00.123-.104c.038-.029.076-.057.105-.086.037-.038.085-.066.123-.104a.932.932 0 00.104-.095l.114-.114.095-.094c.038-.038.075-.076.113-.124l.095-.095c.038-.037.076-.085.114-.132.028-.038.057-.067.085-.104.038-.048.076-.095.105-.143.028-.028.047-.066.075-.095.038-.047.076-.104.114-.151.02-.029.048-.057.066-.095.038-.066.086-.123.124-.19.01-.019.028-.038.038-.057.047-.085.104-.17.151-.265.02-.029.029-.057.038-.076.029-.066.067-.123.095-.19.02-.037.029-.075.048-.104.028-.057.047-.114.075-.17.02-.039.029-.076.048-.124.019-.057.047-.104.066-.161.02-.038.029-.085.047-.133l.057-.16c.01-.048.029-.086.038-.134.02-.057.029-.104.048-.16.01-.048.019-.096.038-.143.01-.057.028-.104.038-.161l.028-.142.028-.162a.73.73 0 00.02-.142c.009-.057.018-.114.018-.17.01-.048.01-.095.02-.152 0-.029.009-.067.009-.095h11.907c0 .038.01.066.01.095 0 .047.009.095.009.142.01.057.01.114.019.17.01.048.01.095.019.143l.028.17.029.143c.009.057.028.114.037.17.01.048.02.095.038.133.02.057.029.114.048.161.01.048.028.086.038.133.019.057.038.114.057.161.019.038.028.086.047.123.019.057.047.114.066.171.02.038.029.076.048.114.028.057.047.114.076.17.019.039.028.067.047.105.028.066.066.133.104.2.01.027.029.046.038.075.048.085.095.18.152.265.01.02.019.038.038.057.038.067.085.133.133.2a.515.515 0 00.066.085c.038.057.076.104.114.16.028.03.047.067.075.096l.114.142a.863.863 0 00.086.095c.038.047.075.085.113.133.029.028.057.066.095.094.038.038.076.086.114.124l.095.094c.038.038.075.076.123.114a.952.952 0 01.104.095c.038.038.085.076.123.104.038.029.067.057.105.086.038.038.085.066.132.104l.114.085c.048.029.086.067.133.095.038.029.076.048.114.076.047.028.095.057.132.085.038.029.076.048.124.076l.142.085c.038.02.085.048.123.067.047.028.095.047.142.076.038.019.086.038.123.057.048.019.095.047.152.066.048.019.085.038.133.057.047.019.104.038.152.057.047.019.085.038.132.047l.162.057c.047.019.085.028.132.047.057.02.105.029.161.048.048.01.086.028.133.038.057.01.114.028.17.038l.133.028c.057.01.114.02.18.029.048.01.086.019.133.019l.19.028c.038.01.085.01.123.019.066.01.142.01.209.019.038 0 .066.01.104.01.104.009.218.009.322.009.105 0 .218 0 .323-.01.038 0 .066-.009.104-.009.066 0 .142-.01.209-.019.037 0 .085-.01.123-.019l.19-.028c.047-.01.085-.02.132-.02.057-.009.123-.018.18-.028.047-.01.085-.019.133-.028.057-.01.114-.029.17-.038.048-.01.086-.029.133-.038.057-.02.114-.029.161-.047.048-.01.086-.029.133-.038.057-.02.104-.038.161-.057.048-.02.086-.029.133-.048.057-.019.104-.038.161-.066.038-.02.085-.038.123-.057.048-.019.105-.047.152-.066.038-.02.085-.038.123-.057.048-.029.105-.048.152-.076.038-.02.076-.047.123-.067l.142-.085c.038-.019.076-.047.114-.066.048-.029.095-.057.142-.095.038-.028.076-.047.114-.076.048-.028.095-.066.142-.095l.105-.075.132-.105c.038-.028.067-.057.105-.085.047-.038.085-.076.132-.114.029-.028.067-.057.095-.085a.752.752 0 00.123-.124 34.3 34.3 0 00.086-.085c.038-.038.085-.085.123-.133l.085-.085c.038-.047.076-.095.123-.142.029-.029.048-.057.076-.085.038-.048.076-.105.124-.152.019-.029.047-.057.066-.086.038-.056.076-.113.123-.17.02-.029.038-.048.057-.076.047-.067.085-.133.133-.2.01-.018.019-.037.028-.047.105-.17.2-.35.294-.53.01-.02.02-.048.029-.067.028-.066.066-.142.094-.209.01-.028.029-.066.038-.094.029-.057.048-.124.076-.19.01-.038.029-.076.038-.114.019-.057.038-.114.057-.18.01-.038.028-.085.038-.123.019-.057.038-.114.047-.17.01-.048.02-.086.029-.134.01-.056.028-.113.038-.17l.028-.143.029-.17c.009-.048.009-.095.018-.142.01-.057.02-.114.02-.171.009-.047.009-.095.009-.152 0-.038.01-.066.01-.104 4.303-.228 7.735-3.793 7.735-8.154l-.01-.01zm-3.005-4.874H38.95V2.011h1.982c.938 1.014 6.332 6.921 9.356 11.861zm-5.66 12.611V26.768c0 .047-.01.104-.01.151 0 .038-.01.086-.01.124-.009.056-.009.104-.018.16-.01.039-.01.077-.019.115l-.029.16c-.009.039-.009.067-.018.105-.01.057-.029.114-.038.161a.336.336 0 00-.02.095c-.018.057-.028.114-.047.17-.01.03-.019.058-.028.096-.02.056-.038.113-.057.17l-.029.086c-.018.056-.047.113-.066.17-.01.029-.019.048-.028.076-.029.057-.048.114-.076.17-.01.02-.02.048-.029.067l-.085.17c-.01.02-.019.048-.038.067-.028.057-.066.114-.095.17-.01.02-.019.039-.038.058-.037.057-.066.113-.104.17-.01.02-.019.038-.038.057-.038.057-.076.105-.114.162a.206.206 0 01-.037.047c-.038.057-.086.104-.124.161-.01.02-.028.029-.038.047-.047.048-.085.105-.132.152-.01.02-.029.029-.038.048a2.242 2.242 0 00-.142.151l-.038.038a2.218 2.218 0 01-.152.143l-.038.037a1.096 1.096 0 01-.161.133l-.038.038a1.84 1.84 0 01-.161.123c-.02.01-.029.029-.048.038-.056.038-.104.076-.16.114-.02.01-.03.029-.048.038-.057.038-.114.076-.17.104-.02.01-.039.02-.048.038-.057.038-.114.067-.17.105l-.058.028-.17.085c-.02.01-.038.02-.067.029-.057.028-.113.057-.17.076-.02.01-.048.019-.067.028a1.262 1.262 0 01-.17.066c-.029.01-.048.02-.076.029l-.17.057c-.03.01-.048.019-.077.028a1.14 1.14 0 01-.17.048l-.086.028a1.015 1.015 0 01-.18.038c-.028.01-.057.01-.085.019-.066.01-.123.019-.19.038-.028 0-.047.01-.075.01l-.19.028c-.029 0-.057.01-.085.01-.067.009-.133.009-.2.018-.028 0-.047 0-.075.01-.095 0-.19.01-.275.01-.086 0-.19 0-.275-.01-.029 0-.048 0-.076-.01-.066 0-.133-.01-.2-.019-.037 0-.066-.01-.103-.01-.057-.009-.114-.009-.171-.018-.038-.01-.066-.01-.095-.02l-.17-.028a1.512 1.512 0 01-.105-.028c-.047-.01-.104-.019-.151-.038-.038-.01-.067-.019-.105-.028-.047-.02-.104-.029-.151-.048-.029-.01-.067-.019-.095-.028l-.161-.057c-.029-.01-.067-.029-.095-.038l-.152-.057c-.028-.01-.057-.028-.085-.038-.048-.019-.104-.047-.152-.066-.028-.01-.057-.029-.085-.048-.048-.028-.104-.047-.152-.076-.028-.009-.047-.028-.076-.047-.047-.028-.104-.057-.151-.085-.029-.02-.048-.029-.076-.048a1.233 1.233 0 01-.142-.095c-.029-.018-.048-.037-.076-.047-.048-.038-.095-.066-.142-.104-.02-.02-.048-.038-.067-.057-.047-.038-.095-.076-.142-.104l-.057-.057a1.627 1.627 0 01-.133-.114l-.056-.057c-.048-.038-.086-.085-.133-.123l-.057-.057c-.038-.047-.085-.085-.123-.133-.02-.019-.038-.038-.048-.057-.038-.047-.085-.095-.123-.142a.29.29 0 01-.047-.066l-.114-.143a.284.284 0 01-.047-.066c-.038-.047-.067-.095-.105-.142-.019-.029-.028-.048-.047-.076-.029-.047-.067-.095-.095-.142l-.047-.076a2.127 2.127 0 01-.086-.152c-.01-.028-.028-.057-.038-.076a1.141 1.141 0 01-.075-.151c-.01-.029-.029-.057-.038-.086-.029-.057-.048-.104-.076-.16a.332.332 0 00-.038-.086c-.02-.057-.048-.104-.067-.161l-.028-.095c-.019-.057-.038-.104-.057-.161-.01-.029-.019-.067-.028-.105-.02-.057-.029-.104-.048-.16-.01-.039-.019-.067-.028-.105-.01-.057-.029-.104-.038-.161-.01-.038-.01-.076-.019-.114-.01-.048-.019-.105-.029-.152-.009-.038-.009-.076-.018-.114a.828.828 0 01-.02-.151c0-.038-.009-.086-.009-.124 0-.047-.01-.104-.01-.151v-.133-.152a5.448 5.448 0 015.442-5.442c2.996 0 5.442 2.436 5.442 5.433l-.038.01zM32.807 26h-11.83V14.82h17.025v5.367A6.421 6.421 0 0032.807 26zm-12.845.625v.133c0 .048-.01.095-.01.142 0 .048-.01.086-.01.133-.009.047-.009.095-.018.142-.01.048-.01.086-.02.133l-.028.133c-.01.047-.019.085-.028.133l-.028.132c-.01.048-.02.086-.029.133-.01.048-.028.085-.038.133-.01.038-.019.085-.038.123-.01.047-.028.085-.047.133-.01.038-.029.085-.038.123-.02.038-.029.085-.047.123-.02.038-.029.086-.048.124-.019.038-.038.085-.057.123a1.525 1.525 0 00-.057.123c-.019.038-.038.076-.057.123l-.056.114c-.02.038-.048.076-.067.123-.019.038-.038.076-.066.105-.029.038-.048.076-.076.123-.019.038-.047.066-.066.104a.797.797 0 00-.076.114l-.076.104c-.029.038-.057.076-.085.105-.029.028-.048.066-.076.094-.029.038-.057.067-.095.105a.668.668 0 00-.076.095c-.028.038-.066.066-.095.104l-.085.085c-.038.038-.066.067-.104.095l-.086.085c-.037.029-.075.067-.113.095-.029.029-.057.048-.086.076-.038.028-.076.066-.123.095-.028.019-.057.047-.085.066-.038.029-.076.057-.123.086-.029.019-.057.047-.095.066-.038.028-.076.047-.123.076-.038.019-.067.047-.105.066-.038.029-.085.048-.133.076-.028.019-.066.038-.094.057a.954.954 0 01-.143.066.442.442 0 01-.094.048c-.048.019-.095.047-.142.066a.447.447 0 00-.095.048l-.142.056c-.038.01-.067.029-.105.038-.047.02-.095.038-.151.048-.038.01-.067.028-.105.038-.047.019-.104.028-.151.047-.038.01-.067.02-.105.029-.057.009-.104.028-.16.037-.039.01-.067.02-.105.029l-.161.028c-.038.01-.067.01-.105.02-.047.009-.094.009-.142.018-.038.01-.085.01-.123.02-.057.009-.104.009-.161.009-.038 0-.076.01-.114.01-.095 0-.19.009-.284.009-.095 0-.19 0-.285-.01-.028 0-.047 0-.076-.01-.066 0-.132-.009-.199-.018-.047 0-.085-.01-.132-.02-.048-.009-.095-.009-.143-.018-.047-.01-.094-.02-.151-.029-.038-.01-.076-.01-.123-.019-.067-.009-.133-.028-.2-.047-.019-.01-.037-.01-.056-.01l-.2-.056c-.018-.01-.037-.01-.056-.02-.076-.028-.162-.047-.238-.075-.009 0-.009 0-.018-.01l-.228-.085c-.01 0-.019-.01-.019-.01-.076-.037-.161-.066-.237-.104l-.227-.113h-.01a5.524 5.524 0 01-2.057-1.963c-.047-.067-.085-.142-.123-.218l-.01-.01a2.15 2.15 0 01-.104-.208c0-.01-.01-.02-.01-.029-.028-.066-.066-.133-.094-.209-.01-.009-.01-.018-.02-.037a1.716 1.716 0 01-.075-.2c-.01-.019-.01-.028-.02-.047-.018-.066-.047-.133-.065-.19-.01-.018-.01-.038-.02-.056-.018-.067-.037-.124-.056-.19-.01-.02-.01-.047-.02-.067a1.008 1.008 0 01-.037-.18c-.01-.028-.01-.056-.02-.085l-.028-.17c-.01-.039-.01-.067-.019-.105-.009-.047-.009-.104-.019-.152-.009-.038-.009-.076-.018-.113-.01-.048-.01-.095-.01-.152 0-.038-.01-.085-.01-.123v-.143-.142a5.448 5.448 0 015.442-5.442 5.448 5.448 0 015.442 5.442v.01c.01.019 0 .066 0 .113zm1.014-12.753V2.011h17.026v11.861H20.976zM8.956 2.011h11.063v11.861H1.74V9.226c0-3.973 3.242-7.215 7.214-7.215zM1.74 18.775V14.82h18.287v8.4a6.404 6.404 0 00-5.498-3.138c-3.347 0-6.096 2.589-6.371 5.87a7.204 7.204 0 01-6.418-7.178zm43.807 7.206c-.256-3.3-3.014-5.898-6.37-5.898-.076 0-.152 0-.237.01V14.83h11.907c.853 1.517 1.431 2.911 1.498 3.964a7.224 7.224 0 01-6.798 7.187z" mask="url(#a)"/></svg>