<svg width="54" height="36" viewBox="0 0 54 36" fill="none" xmlns="http://www.w3.org/2000/svg">
<path fill-rule="evenodd" clip-rule="evenodd" d="M2 1.5H30C30.2761 1.5 30.5 1.72386 30.5 2V25C30.5 25.2761 30.2761 25.5 30 25.5H2C1.72386 25.5 1.5 25.2761 1.5 25V2C1.5 1.72386 1.72386 1.5 2 1.5ZM32 25C32 25.1726 31.9781 25.3402 31.937 25.5H33.063C33.0219 25.3402 33 25.1726 33 25V9C33 7.89543 33.8954 7 35 7H48.581C49.4309 7 50.1882 7.53772 50.469 8.3399L52.8389 15.1111C53.0454 15.7013 53.5 17 53.5 18V25C53.5 25.343 53.4137 25.6658 53.2615 25.948C53.7121 26.3147 54 26.8737 54 27.5C54 28.6046 53.1046 29.5 52 29.5H2C0.895429 29.5 0 28.6046 0 27.5C0 27.027 0.16418 26.5924 0.438658 26.25C0.16418 25.9076 0 25.473 0 25V2C0 0.895431 0.895431 0 2 0H30C31.1046 0 32 0.895431 32 2V25ZM51.5 25.5H35C34.7239 25.5 34.5 25.2761 34.5 25V9C34.5 8.72386 34.7239 8.5 35 8.5H48.581C48.793 8.5 48.9828 8.63436 49.0532 8.83542L51.4231 15.6066C51.5265 15.9019 51.6743 16.3258 51.7975 16.788C51.9253 17.2678 52 17.6945 52 18V25C52 25.2761 51.7761 25.5 51.5 25.5ZM30 27H35H51.5H52C52.2761 27 52.5 27.2239 52.5 27.5C52.5 27.7761 52.2761 28 52 28H2C1.72386 28 1.5 27.7761 1.5 27.5C1.5 27.2239 1.72386 27 2 27H30ZM38.5 12H46.1459C46.3504 12 46.5342 12.1245 46.6102 12.3143L48.0102 15.8143C48.1415 16.1427 47.8997 16.5 47.5459 16.5H38.5C38.2239 16.5 38 16.2761 38 16V12.5C38 12.2239 38.2239 12 38.5 12ZM36.5 12.5C36.5 11.3954 37.3954 10.5 38.5 10.5H46.1459C46.9637 10.5 47.6992 10.9979 48.0029 11.7572L49.4029 15.2572C49.9284 16.5709 48.9609 18 47.5459 18H38.5C37.3954 18 36.5 17.1046 36.5 16V12.5Z" fill="currentColor"/>
<circle cx="11" cy="29" r="6.5" fill="white" stroke="white"/>
<circle cx="43" cy="29" r="6.5" fill="white" stroke="white"/>
<circle cx="11" cy="29" r="4.5" fill="white" stroke="currentColor" stroke-width="3"/>
<circle cx="43" cy="29" r="4.5" fill="white" stroke="currentColor" stroke-width="3"/>
</svg>
