<svg xmlns="http://www.w3.org/2000/svg" stroke="currentColor" fill="currentColor" width="201.58" height="93.74" viewBox="0 0 201.58 93.74"><g  class="Layer_2" data-name="Layer 2"><g  class="rv"><g  class="solid-body-background."><path d="M200.19,65.34s-2-5.11-3-5.94-2.42-4.52-4.57-6.74-5.65-5.82-10.29-6.49c-7.45-8.84-14-18.12-20.12-22.64l.43-.26-5.34-10.56H157c-2.63-12.2-18.53-12-18.53-12h-127A10.48,10.48,0,0,0,1,11.2V81.75H30.34c0-6.5,2.33-17.55,17.19-17.55,0,0,15-.15,15.32,17.82h125.4s-.17,2.29,1,2.3A53.58,53.58,0,0,0,195.52,83s3.46-1.47,4.09-3.49S200.19,65.34,200.19,65.34Z" fill="#ecebe1" opacity="0"/></g><g  class="body-car"><path d="M110.43,86.62H97.55a3,3,0,0,1-3-3V82H62.85" fill="none"  stroke-linecap="round" stroke-linejoin="round" stroke-width="2"/><path d="M191.55,84.32a51.88,51.88,0,0,0,5-1.74c5.55-2.28,3.86-10.9,3.72-16.55a9.47,9.47,0,0,0-5-8c-2.34-9.38-13-11.86-13-11.86s-17-20.47-20.25-23.45-23.8-2.82-23.8-2.82" fill="none"  stroke-linecap="round" stroke-linejoin="round" stroke-width="2"/><path d="M193.16,53.39s-5.43-3-8.14-1.82,3.31,9.2,12.16,7.83" fill="none"  stroke-linecap="round" stroke-linejoin="round" stroke-width="2"/><line x1="132.8" y1="82.02" x2="156.11" y2="82.02" fill="none"  stroke-linecap="round" stroke-linejoin="round" stroke-width="2"/><line x1="141.77" y1="49.9" x2="141.77" y2="55.42" fill="none"  stroke-linecap="round" stroke-linejoin="round" stroke-width="2"/><path d="M140.11,31.42s.69,15.17,10.07,17,13,1.52,13,1.52" fill="none"  stroke-linecap="round" stroke-linejoin="round" stroke-width="2"/><path d="M19.26,20.73V31.54a6.14,6.14,0,0,0,6.14,6.13h8.3" fill="none"  stroke-linecap="round" stroke-linejoin="round" stroke-width="2"/><path d="M99.34,74V17.87a3.53,3.53,0,0,1,3.53-3.53H116.3a3.53,3.53,0,0,1,3.53,3.53v55" fill="none"  stroke-linecap="round" stroke-linejoin="round" stroke-width="2"/><line x1="104.52" y1="45.45" x2="104.52" y2="51.27" fill="none"  stroke-linecap="round" stroke-linejoin="round" stroke-width="2"/><path d="M129.36,37.71V21a6,6,0,0,1,6-6h21.95C156.09.75,138.45,1,138.45,1h-127A10.48,10.48,0,0,0,1,11.48V82H30.34c0-6.5,2.33-17.55,17.19-17.55" fill="none"  stroke-linecap="round" stroke-linejoin="round" stroke-width="2"/></g><g  class="front-wheel"><line x1="170.77" y1="81.24" x2="185.77" y2="81.24" fill="none"  stroke-linecap="round" stroke-linejoin="round" stroke-width="2"/><line x1="172.97" y1="86.54" x2="183.57" y2="75.93" fill="none"  stroke-linecap="round" stroke-linejoin="round" stroke-width="2"/><line x1="178.27" y1="88.74" x2="178.27" y2="73.74" fill="none"  stroke-linecap="round" stroke-linejoin="round" stroke-width="2"/><line x1="183.57" y1="86.54" x2="172.97" y2="75.93" fill="none"  stroke-linecap="round" stroke-linejoin="round" stroke-width="2"/><circle cx="178.27" cy="81.24" r="3.75"/><path d="M178.27,68.74a12.5,12.5,0,1,0,12.5,12.5A12.5,12.5,0,0,0,178.27,68.74Zm0,20a7.5,7.5,0,1,1,7.5-7.5A7.5,7.5,0,0,1,178.27,88.77Z"/></g><g  class="back-wheel"><line x1="39.17" y1="81.24" x2="54.17" y2="81.24" fill="none"  stroke-linecap="round" stroke-linejoin="round" stroke-width="2"/><line x1="41.37" y1="86.54" x2="51.98" y2="75.93" fill="none"  stroke-linecap="round" stroke-linejoin="round" stroke-width="2"/><line x1="46.67" y1="88.74" x2="46.67" y2="73.74" fill="none"  stroke-linecap="round" stroke-linejoin="round" stroke-width="2"/><line x1="51.98" y1="86.54" x2="41.37" y2="75.93" fill="none"  stroke-linecap="round" stroke-linejoin="round" stroke-width="2"/><circle cx="46.67" cy="81.24" r="3.75"/><path d="M46.67,68.74a12.5,12.5,0,1,0,12.5,12.5A12.5,12.5,0,0,0,46.67,68.74Zm0,20a7.5,7.5,0,1,1,7.5-7.5A7.5,7.5,0,0,1,46.67,88.77Z"/></g></g></g></svg>