<svg xmlns="http://www.w3.org/2000/svg" stroke="currentColor" fill="currentColor" width="177.36" height="67.77" viewBox="0 0 177.36 67.77"><g  class="Layer_2" data-name="Layer 2"><g  class="truck"><g  class="solid-body-background"><path  class="Vector" d="M24.13,57.76,9.7,55.33A10.45,10.45,0,0,1,1,45V24.81a.1.1,0,0,1,.1-.1h73V4.38A3.37,3.37,0,0,1,77.49,1h30.82a11.72,11.72,0,0,1,8.86,4.05L135,25.64,160,28.26a15.36,15.36,0,0,1,13.39,10.9L176,47.73a8.23,8.23,0,0,1-1.62,7.88,5.91,5.91,0,0,1-4.48,2" fill="#ecebe1" opacity="0"/></g><g  class="body-car"><line x1="97.06" y1="32.83" x2="91.06" y2="32.83" fill="none"  stroke-linecap="round" stroke-linejoin="round" stroke-width="2"/><path d="M24.13,57.76,9.7,55.33A10.45,10.45,0,0,1,1,45V24.81a.1.1,0,0,1,.1-.1h73V4.38A3.37,3.37,0,0,1,77.49,1h30.82a11.72,11.72,0,0,1,8.86,4.05L135,25.64,160,28.26a15.36,15.36,0,0,1,13.39,10.9L176,47.73a8.23,8.23,0,0,1-1.62,7.88,5.91,5.91,0,0,1-4.48,2" fill="none"  stroke-linecap="round" stroke-linejoin="round" stroke-width="2"/><line x1="122.18" y1="57.76" x2="62.42" y2="57.76" fill="none"  stroke-linecap="round" stroke-linejoin="round" stroke-width="2"/><line x1="129.28" y1="25.67" x2="83.7" y2="25.67" fill="none"  stroke-linecap="round" stroke-linejoin="round" stroke-width="2"/><path d="M173.42,39.16h-10a1,1,0,0,0-.52,1.75,8.35,8.35,0,0,1,4,6.15.94.94,0,0,0,.94.84H176" fill="none"  stroke-linecap="round" stroke-linejoin="round" stroke-width="2"/><polyline points="1 32.83 14 32.83 14 43.18 1 43.18" fill="none"  stroke-linecap="round" stroke-linejoin="round" stroke-width="2"/><line x1="9.28" y1="32.83" x2="9.28" y2="43.18" fill="none"  stroke-linecap="round" stroke-linejoin="round" stroke-width="2"/><path d="M59.42,55.32A16.93,16.93,0,0,0,42.49,38.39" fill="none"  stroke-linecap="round" stroke-linejoin="round" stroke-width="2"/></g><g  class="front-whell"><line x1="141.73" y1="55.27" x2="156.73" y2="55.27" fill="none"  stroke-linecap="round" stroke-linejoin="round" stroke-width="2"/><line x1="143.92" y1="60.58" x2="154.53" y2="49.97" fill="none"  stroke-linecap="round" stroke-linejoin="round" stroke-width="2"/><line x1="149.23" y1="62.77" x2="149.23" y2="47.77" fill="none"  stroke-linecap="round" stroke-linejoin="round" stroke-width="2"/><line x1="154.53" y1="60.58" x2="143.92" y2="49.97" fill="none"  stroke-linecap="round" stroke-linejoin="round" stroke-width="2"/><circle cx="149.23" cy="55.27" r="3.75"/><path d="M149.22,42.77a12.5,12.5,0,1,0,12.51,12.5A12.5,12.5,0,0,0,149.22,42.77Zm0,20a7.5,7.5,0,1,1,7.5-7.5A7.5,7.5,0,0,1,149.23,62.81Z"/></g><g  class="back-wheel"><line x1="34.99" y1="55.27" x2="49.99" y2="55.27" fill="none"  stroke-linecap="round" stroke-linejoin="round" stroke-width="2"/><line x1="37.19" y1="60.58" x2="47.79" y2="49.97" fill="none"  stroke-linecap="round" stroke-linejoin="round" stroke-width="2"/><line x1="42.49" y1="62.77" x2="42.49" y2="47.77" fill="none"  stroke-linecap="round" stroke-linejoin="round" stroke-width="2"/><line x1="47.79" y1="60.58" x2="37.19" y2="49.97" fill="none"  stroke-linecap="round" stroke-linejoin="round" stroke-width="2"/><circle cx="42.49" cy="55.27" r="3.75"/><path d="M42.48,42.77A12.5,12.5,0,1,0,55,55.27,12.5,12.5,0,0,0,42.48,42.77Zm0,20a7.5,7.5,0,1,1,7.5-7.5A7.5,7.5,0,0,1,42.49,62.81Z"/></g></g></g></svg>