<svg width="12" height="12" viewBox="0 0 12 12" fill="none" xmlns="http://www.w3.org/2000/svg">
<path d="M5.44676 0.0239949C3.92583 0.165198 2.51605 0.880706 1.50419 2.02543C0.492886 3.17013 -0.0440353 4.65753 0.00282866 6.18389C0.0502684 7.71097 0.677599 9.16204 1.75751 10.2425C2.83803 11.3224 4.28917 11.9497 5.8161 11.9972C7.34261 12.0441 8.82997 11.5071 9.97457 10.4958C11.1193 9.48395 11.8348 8.07417 11.976 6.55323C12.1345 4.77783 11.4977 3.02315 10.2375 1.76239C8.97668 0.502165 7.22202 -0.1346 5.44662 0.023852L5.44676 0.0239949ZM9.22303 4.65196L5.66665 8.1709C5.44508 8.38689 5.09124 8.38689 4.86967 8.1709L2.77336 6.16889C2.54564 5.95012 2.53784 5.58789 2.75718 5.35962C2.97595 5.1319 3.33818 5.1241 3.56645 5.34343L5.25813 6.96638L8.4243 3.83864C8.65033 3.62655 9.00419 3.6327 9.2224 3.85371C9.44006 4.07417 9.44231 4.42856 9.22743 4.65181L9.22303 4.65196Z" fill="currentColor"/>
</svg>
