<svg width="11" height="11" viewBox="0 0 11 11" fill="none" xmlns="http://www.w3.org/2000/svg">
<path d="M4.99999 0.989097L4.87506 1.02052L0.346534 2.27651L0.00298899 2.37071L0.00373624 2.71339C0.0102577 5.70404 0.858557 7.78942 1.89266 9.09558C2.92676 10.4017 4.11555 10.991 5.02179 10.9891C5.89679 10.9872 7.083 10.3927 8.14264 9.08195C9.17104 7.7713 10.0103 5.71339 10.0038 2.72274L10.003 2.34891L9.65901 2.2562L5.12506 1.01998L4.99999 0.989097ZM5.00209 1.95483L5.01969 10.0233C4.61344 10.0242 3.55006 9.62156 2.64137 8.50205C1.76406 7.44477 1.04144 5.67064 0.973299 3.08511L5.00209 1.95483Z" fill="currentColor"/>
</svg>
