<svg width="30" height="30" viewBox="0 0 30 30" fill="none" xmlns="http://www.w3.org/2000/svg">
<path fill-rule="evenodd" clip-rule="evenodd" d="M15 28.5C22.4558 28.5 28.5 22.4558 28.5 15C28.5 7.54416 22.4558 1.5 15 1.5C7.54416 1.5 1.5 7.54416 1.5 15C1.5 22.4558 7.54416 28.5 15 28.5ZM15 30C23.2843 30 30 23.2843 30 15C30 6.71573 23.2843 0 15 0C6.71573 0 0 6.71573 0 15C0 23.2843 6.71573 30 15 30ZM7.53703 15.75C7.69451 17.3361 8.3461 18.7768 9.3357 19.916L11.8221 17.4296C11.4511 16.945 11.1884 16.3731 11.0702 15.75H7.53703ZM14.25 22.463C12.8194 22.3209 11.5071 21.7769 10.4276 20.9455L12.9422 18.4308C13.3387 18.6691 13.7798 18.8406 14.25 18.9298V22.463ZM7.53703 14.25H11.0702C11.1711 13.7183 11.3772 13.2238 11.666 12.7891L9.16481 10.2879C8.27124 11.393 7.68525 12.7571 7.53703 14.25ZM12.7148 11.7166C13.1672 11.4012 13.6878 11.1768 14.25 11.0702V7.53703C12.7261 7.68834 11.3363 8.2958 10.2192 9.22096L12.7148 11.7166ZM15.75 7.53703V11.0702C16.2817 11.1711 16.7762 11.3772 17.2109 11.666L19.7121 9.16481C18.607 8.27124 17.2429 7.68525 15.75 7.53703ZM18.9298 14.25C18.8232 13.6878 18.5988 13.1672 18.2834 12.7148L20.779 10.2192C21.7042 11.3363 22.3117 12.7261 22.463 14.25H18.9298ZM18.334 17.2109C18.6228 16.7762 18.8289 16.2817 18.9298 15.75H22.463C22.3147 17.2429 21.7288 18.607 20.8352 19.7121L18.334 17.2109ZM17.2852 18.2834C16.8328 18.5988 16.3122 18.8232 15.75 18.9298V22.463C17.2739 22.3117 18.6637 21.7042 19.7808 20.779L17.2852 18.2834ZM15 24C19.9706 24 24 19.9706 24 15C24 10.0294 19.9706 6 15 6C10.0294 6 6 10.0294 6 15C6 19.9706 10.0294 24 15 24ZM17.5 15C17.5 16.3807 16.3807 17.5 15 17.5C13.6193 17.5 12.5 16.3807 12.5 15C12.5 13.6193 13.6193 12.5 15 12.5C16.3807 12.5 17.5 13.6193 17.5 15Z" fill="currentColor" fill-opacity="0.3"/>
<path d="M15 23.25C19.5563 23.25 23.25 19.5563 23.25 15C23.25 10.4437 19.5563 6.75 15 6.75C10.4437 6.75 6.75 10.4437 6.75 15C6.75 19.5563 10.4437 23.25 15 23.25Z" stroke="currentColor" stroke-width="1.5"/>
</svg>
