<svg width="11" height="11" viewBox="0 0 11 11" fill="none" xmlns="http://www.w3.org/2000/svg">
<path d="M4.53701 1.38594C3.8792 2.04663 3.51962 2.9406 3.52166 3.87632C3.52212 4.08898 3.54385 4.30159 3.58685 4.51416L0.700951 7.41268C0.552412 7.56186 0.553015 7.83832 0.70225 8.00813L2.94002 10.2149C3.11053 10.3847 3.36572 10.3841 3.53548 10.2136L6.42138 7.31514C7.54895 7.52534 8.73907 7.16122 9.54538 6.33007C10.2032 5.66938 10.584 4.77537 10.582 3.83965C10.5813 3.4994 10.538 3.15923 10.4309 2.8192C10.388 2.67043 10.2815 2.56433 10.1326 2.54339C9.98362 2.50118 9.83485 2.54404 9.72875 2.6506L8.1797 4.20642L6.88205 4.01785L6.68782 2.72103L8.23687 1.16521C8.34297 1.05865 8.38517 0.909694 8.34232 0.760924C8.29946 0.612152 8.1929 0.506053 8.06521 0.463799C6.78849 0.126321 5.44942 0.448237 4.53701 1.38594Z" fill="currentColor"/>
</svg>
