<svg width="11" height="10" viewBox="0 0 11 10" fill="none" xmlns="http://www.w3.org/2000/svg">
<path d="M4.80513 1.34793C4.17004 1.9858 3.82289 2.84888 3.82486 3.75226C3.82531 3.95757 3.84628 4.16284 3.8878 4.36807L1.10161 7.16643C0.958205 7.31046 0.958787 7.57737 1.10287 7.74131L3.26332 9.87188C3.42793 10.0358 3.67431 10.0352 3.8382 9.87062L6.62438 7.07226C7.713 7.2752 8.862 6.92366 9.64044 6.12123C10.2755 5.48337 10.6432 4.62025 10.6412 3.71686C10.6405 3.38836 10.5987 3.05995 10.4954 2.73167C10.454 2.58804 10.3511 2.48561 10.2074 2.46539C10.0635 2.42464 9.91991 2.46601 9.81748 2.5689L8.32195 4.07096L7.06914 3.88891L6.88162 2.63689L8.37715 1.13483C8.47958 1.03195 8.52033 0.88814 8.47895 0.74451C8.43758 0.600879 8.3347 0.498446 8.21142 0.457651C6.97882 0.131835 5.68601 0.442627 4.80513 1.34793Z" fill="currentColor"/>
</svg>
