<svg xmlns="http://www.w3.org/2000/svg" width="710.89" height="283.11" viewBox="0 0 710.89 283.11"><g class="body-car"><path d="M705.84,189.69H691.29A14.87,14.87,0,0,1,678,181.54l-8.39-27a8.77,8.77,0,0,1,7.83-12.74h16" transform="translate(0 0)" fill="none" stroke="#000" stroke-linecap="round" stroke-linejoin="round" stroke-width="8"/><line x1="243.49" y1="243.76" x2="502.84" y2="243.76" fill="none" stroke="#000" stroke-linecap="round" stroke-linejoin="round" stroke-width="8"/><path d="M672.55,238.25c22.3,0,36.76-20.31,34-42.44-3.74-30.19-7.38-84-40.48-93.73-51.44-15.07-97.3-26-97.3-26S519.17,4,447.19,4H24.45A20.44,20.44,0,0,0,4,24.43V196.57a33.36,33.36,0,0,0,17.53,29.37c12.14,6.53,31.75,15.11,31.75,15.11" transform="translate(0 0)" fill="none" stroke="#000" stroke-linecap="round" stroke-linejoin="round" stroke-width="8"/><line x1="489.25" y1="121.6" x2="470.13" y2="121.6" fill="none" stroke="#000" stroke-linecap="round" stroke-linejoin="round" stroke-width="8"/><line x1="393.22" y1="122.67" x2="409.95" y2="122.67" fill="none" stroke="#000" stroke-linecap="round" stroke-linejoin="round" stroke-width="8"/><path d="M409.41,92.52H296.72a24.19,24.19,0,0,1-24.2-24.18h0V43.82" transform="translate(0 0)" fill="none" stroke="#000" stroke-linecap="round" stroke-linejoin="round" stroke-width="8"/><path d="M4,108.64H27.16a10,10,0,0,1,10,10V167.3a14.6,14.6,0,0,1-14.6,14.59H4" transform="translate(0 0)" fill="none" stroke="#000" stroke-linecap="round" stroke-linejoin="round" stroke-width="8"/><line x1="434.02" y1="112.64" x2="434.02" y2="199.85" fill="none" stroke="#000" stroke-linecap="round" stroke-linejoin="round" stroke-width="8"/><path d="M554.84,92.52H485.77a25.2,25.2,0,0,1-25.2-25.2h0V43.82" transform="translate(0 0)" fill="none" stroke="#000" stroke-linecap="round" stroke-linejoin="round" stroke-width="8"/></g><g class="front-wheel"><line x1="582.69" y1="233.11" x2="642.69" y2="233.11" fill="none" stroke="#000" stroke-linecap="round" stroke-linejoin="round" stroke-width="8"/><line x1="591.47" y1="254.32" x2="633.9" y2="211.9" fill="none" stroke="#000" stroke-linecap="round" stroke-linejoin="round" stroke-width="8"/><line x1="612.69" y1="263.11" x2="612.69" y2="203.11" fill="none" stroke="#000" stroke-linecap="round" stroke-linejoin="round" stroke-width="8"/><line x1="633.9" y1="254.32" x2="591.47" y2="211.9" fill="none" stroke="#000" stroke-linecap="round" stroke-linejoin="round" stroke-width="8"/><circle cx="612.69" cy="233.11" r="15"/><path d="M612.67,183.11a50,50,0,1,0,50,50A50,50,0,0,0,612.67,183.11Zm0,80.14a30,30,0,1,1,30-30h0a30,30,0,0,1-30,30Z" transform="translate(0 0)"/></g><g class="back-wheel"><line x1="129.48" y1="233.11" x2="189.48" y2="233.11" fill="none" stroke="#000" stroke-linecap="round" stroke-linejoin="round" stroke-width="8"/><line x1="138.26" y1="254.32" x2="180.69" y2="211.9" fill="none" stroke="#000" stroke-linecap="round" stroke-linejoin="round" stroke-width="8"/><line x1="159.48" y1="263.11" x2="159.48" y2="203.11" fill="none" stroke="#000" stroke-linecap="round" stroke-linejoin="round" stroke-width="8"/><line x1="180.69" y1="254.32" x2="138.26" y2="211.9" fill="none" stroke="#000" stroke-linecap="round" stroke-linejoin="round" stroke-width="8"/><circle cx="159.48" cy="233.11" r="15"/><path d="M159.46,183.11a50,50,0,1,0,50,50A50,50,0,0,0,159.46,183.11Zm0,80.14a30,30,0,1,1,30-30h0a30,30,0,0,1-30,30Z" transform="translate(0 0)"/></g></svg>