<svg width="160" height="32" viewBox="0 0 160 32" fill="none" xmlns="http://www.w3.org/2000/svg">
<path fill-rule="evenodd" clip-rule="evenodd" d="M17.3935 15.4882V28.6739C23.6042 27.8221 28.2647 22.4083 28.2647 16.0038C28.2647 15.8319 28.2622 15.6601 28.2548 15.4882H17.3935ZM30.9398 12.0584L30.9695 12.1772C31.2736 13.4182 31.4269 14.7047 31.4269 16.0038C31.4219 24.8246 24.3681 32 15.7048 32C8.05019 32 1.6318 26.5154 0.262076 18.9078H3.49353C4.67287 24.084 8.83147 27.9662 14.0211 28.6739V15.4882H0V15.3315C0.363445 6.72048 7.26149 0 15.7048 0C21.6238 0 26.9221 3.30337 29.6393 8.63881H25.9629C23.6066 5.23434 19.8189 3.21491 15.7048 3.21491C10.2136 3.21491 5.43932 6.75839 3.7556 12.0534L30.9398 12.0584ZM44.1771 10.4184C42.4143 10.4184 41.5341 11.0124 41.5341 12.1977C41.5341 12.7285 41.7517 13.1278 42.1868 13.4059C42.622 13.6839 43.648 14.0908 45.2526 14.614C46.8647 15.1447 47.9921 15.7362 48.6374 16.4034C49.2852 17.0707 49.6066 18.0968 49.6066 19.4818C49.6066 21.2435 49.0824 22.578 48.0292 23.4828C46.9759 24.3902 45.6037 24.84 43.9076 24.84C42.6467 24.84 41.1014 24.6404 39.2743 24.2461L38.3991 24.0742L38.7403 21.4305C40.9086 21.7262 42.5651 21.8753 43.7148 21.8753C45.4282 21.8753 46.2861 21.15 46.2861 19.6967C46.2861 19.171 46.0858 18.7565 45.6903 18.4582C45.2947 18.1625 44.5084 17.8415 43.3266 17.4953C41.4525 16.9544 40.1248 16.3048 39.3609 15.5567C38.5919 14.8086 38.2062 13.7673 38.2062 12.4328C38.2062 10.752 38.7081 9.50349 39.7119 8.67448C40.7157 7.84801 42.0879 7.43856 43.8384 7.43856C45.0375 7.43856 46.5556 7.60285 48.4 7.93394L49.2753 8.10581L49.0082 10.8026C46.7262 10.5499 45.1142 10.4184 44.1771 10.4184ZM122.812 10.767V24.5568H119.467V10.767H115.051V7.75178H127.181V10.767H122.812ZM51.5227 7.75178H54.8753V24.5568H51.5227V7.75178ZM70.9484 24.5568V11.5531H70.58L67.356 23.8162H64.0034L60.7819 11.5531H60.4184V24.5568H57.0683V7.75178H62.7722L65.6822 20.0074L68.5947 7.75178H74.2936V24.5568H70.9484ZM79.8368 16.747H82.5317C84.1932 16.747 85.0289 15.693 85.0314 13.575C85.0314 12.5388 84.8237 11.7957 84.4231 11.3408C84.0201 10.8909 83.3897 10.6634 82.5317 10.6634H79.8368V16.747ZM76.4867 7.75178H82.554C86.4678 7.75178 88.426 9.69539 88.4136 13.5902C88.4136 15.5515 87.9191 17.0553 86.9252 18.0991C85.9313 19.1405 84.4701 19.6662 82.5466 19.6662H79.8319V24.5568H76.4867V7.75178ZM90.6067 24.5568V7.75178H93.9518V21.5415H99.992V24.5568H90.6067ZM112.858 24.5568V21.5921H105.53V17.5633H111.402V14.6441H105.53V10.7165H112.858V7.75178H102.185V24.5568H112.858ZM132.717 7.75178H129.372V24.5568H132.717V7.75178ZM141.368 15.9988C142.159 15.9988 142.75 15.7537 143.141 15.2583C143.531 14.7629 143.722 14.1134 143.722 13.3071C143.722 12.5034 143.516 11.8589 143.104 11.3812C142.691 10.9035 142.095 10.6634 141.318 10.6634H138.263V15.9988H141.368ZM141.311 7.75178C145.193 7.75178 147.134 9.59935 147.134 13.2869C147.141 15.4757 146.333 17.0958 144.713 18.1345L147.067 24.5593H143.403L141.484 18.9256H138.255V24.5568H134.91V7.75178H141.311ZM160 21.5921V24.5568H149.327V7.75178H160V10.7165H152.672V14.6441H158.546V17.5633H152.672V21.5921H160Z" fill="#181818"/>
</svg>
