<svg width="129" height="18" viewBox="0 0 129 18" fill="none" xmlns="http://www.w3.org/2000/svg">
<path fill-rule="evenodd" clip-rule="evenodd" d="M6.3111 3.06824C4.44691 3.06824 3.51482 3.68181 3.51482 4.90895C3.51482 5.45467 3.74563 5.87235 4.20787 6.16217C4.6693 6.452 5.75072 6.86907 7.45313 7.4148C9.15495 7.96053 10.3476 8.57831 11.0316 9.26855C11.7156 9.95899 12.0582 11.0199 12.0582 12.4518C12.0582 14.2758 11.502 15.6563 10.3903 16.5936C9.27879 17.5309 7.82485 18 6.0291 18C4.69499 18 3.06162 17.7953 1.12899 17.3858L0.205325 17.2072L0.564595 14.4715C2.85629 14.778 4.60929 14.9316 5.82398 14.9316C7.63638 14.9316 8.54339 14.1817 8.54339 12.6816C8.54339 12.1365 8.33344 11.7104 7.91477 11.4033C7.49548 11.0962 6.66154 10.764 5.41353 10.406C3.42912 9.84358 2.03078 9.17522 1.21891 8.39908C0.406235 7.62374 0 6.54533 0 5.16485C0 3.42651 0.530073 2.13093 1.59062 1.27872C2.65117 0.426507 4.1049 0 5.95243 0C7.2177 0 8.82538 0.170603 10.7753 0.511608L11.6989 0.690239L11.4165 3.47709C9.00502 3.20512 7.30321 3.06824 6.3111 3.06824ZM95.5899 17.693H99.1302V0.30719H95.5899V17.693ZM112.779 11.0457L115.267 17.693H111.393L109.367 11.8634H105.955V17.693H102.415V0.30719H109.187C113.292 0.30719 115.344 2.21634 115.344 6.03443C115.344 8.30124 114.489 9.97174 112.779 11.0457ZM111.073 4.06584C110.637 3.57129 110.008 3.32422 109.187 3.32422H105.955V8.84693H109.239C110.077 8.84693 110.701 8.59103 111.112 8.07982C111.522 7.56862 111.727 6.89483 111.727 6.06009C111.727 5.22493 111.509 4.56019 111.073 4.06584ZM128.998 17.693V14.6248H121.25V10.4573H127.458V7.4406H121.25V3.37543H128.998V0.30719H117.71V17.693H128.998ZM89.2532 17.6935V3.4271H93.8707V0.307678H81.0434V3.4271H85.7127V17.6935H89.2532ZM17.9314 17.6931H14.3911V0.307233H17.9314V17.6931ZM35.8912 17.693V4.24429H35.5064L32.0944 16.9259H28.554L25.1422 4.24429H24.7572V17.693H21.2169V0.307178H27.2454L30.3243 12.9888L33.403 0.307178H39.4315V17.693H35.8912ZM46.254 9.61385H49.1021C50.8635 9.61385 51.7442 8.52299 51.7442 6.34088C51.7442 5.26729 51.5303 4.49597 51.1031 4.02711C50.6754 3.55865 50.0081 3.32422 49.1021 3.32422H46.254V9.61385ZM42.7126 0.307233H49.1265C53.2653 0.307233 55.3348 2.31874 55.3348 6.34115C55.3348 8.36972 54.809 9.92542 53.7573 11.0072C52.7056 12.0897 51.1615 12.6308 49.1265 12.6308H46.253V17.6933H42.7126V0.307233ZM57.3101 17.6931V0.307233H60.8504V14.5736H67.2384V17.6931H57.3101ZM80.1954 17.693V14.6248H72.4478V10.4572H78.6566V7.44058H72.4478V3.37542H80.1954V0.307178H68.9075V17.693H80.1954Z" fill="#181818"/>
</svg>
