<svg width="472" height="32" viewBox="0 0 472 32" fill="none" xmlns="http://www.w3.org/2000/svg">
<path fill-rule="evenodd" clip-rule="evenodd" d="M17.3935 15.4882V28.6739C23.6042 27.8221 28.2647 22.4083 28.2647 16.0038C28.2647 15.8319 28.2622 15.6601 28.2548 15.4882H17.3935ZM30.9398 12.0584L30.9695 12.1772C31.2736 13.4182 31.4269 14.7047 31.4269 16.0038C31.4219 24.8246 24.3681 32 15.7048 32C8.05019 32 1.6318 26.5154 0.262076 18.9078H3.49353C4.67287 24.084 8.83147 27.9662 14.0211 28.6739V15.4882H0V15.3315C0.363445 6.72048 7.26149 0 15.7048 0C21.6238 0 26.9221 3.30337 29.6393 8.63881H25.9629C23.6066 5.23434 19.8189 3.21491 15.7048 3.21491C10.2136 3.21491 5.43932 6.75839 3.7556 12.0534L30.9398 12.0584ZM44.1771 10.4181C42.4143 10.4181 41.5341 11.0121 41.5341 12.1975C41.5341 12.7282 41.7517 13.1276 42.1869 13.4056C42.622 13.6836 43.6481 14.0905 45.2526 14.6137C46.8647 15.1445 47.9921 15.7359 48.6374 16.4031C49.2852 17.0704 49.6066 18.0965 49.6066 19.4816C49.6066 21.2432 49.0824 22.5777 48.0292 23.4825C46.9759 24.3899 45.6037 24.8398 43.9077 24.8398C42.6467 24.8398 41.1015 24.6401 39.2743 24.2458L38.3991 24.0739L38.7403 21.4302C40.9086 21.7259 42.5651 21.8751 43.7148 21.8751C45.4282 21.8751 46.2861 21.1497 46.2861 19.6964C46.2861 19.1707 46.0859 18.7562 45.6903 18.458C45.2947 18.1622 44.5085 17.8413 43.3266 17.495C41.4525 16.9541 40.1249 16.3046 39.3609 15.5564C38.592 14.8083 38.2063 13.767 38.2063 12.4325C38.2063 10.7518 38.7082 9.50321 39.712 8.67421C40.7158 7.84774 42.088 7.43829 43.8384 7.43829C45.0375 7.43829 46.5556 7.60257 48.4 7.93367L49.2753 8.10554L49.0083 10.8023C46.7262 10.5496 45.1142 10.4181 44.1771 10.4181ZM122.812 10.7669V24.5567H119.467V10.7669H115.051V7.75169H127.181V10.7669H122.812ZM51.5227 7.75169H54.8753V24.5567H51.5227V7.75169ZM70.9485 24.5567V11.553H70.5801L67.3561 23.8161H64.0035L60.7819 11.553H60.4185V24.5567H57.0683V7.75169H62.7722L65.6822 20.0073L68.5947 7.75169H74.2937V24.5567H70.9485ZM79.8368 16.7469H82.5317C84.1932 16.7469 85.0289 15.6929 85.0314 13.5749C85.0314 12.5387 84.8237 11.7956 84.4231 11.3407C84.0201 10.8908 83.3897 10.6633 82.5317 10.6633H79.8368V16.7469ZM76.4867 7.75169H82.554C86.4678 7.75169 88.426 9.6953 88.4136 13.5901C88.4136 15.5514 87.9191 17.0552 86.9252 18.0991C85.9313 19.1404 84.4701 19.6661 82.5466 19.6661H79.8319V24.5567H76.4867V7.75169ZM90.6067 24.5567V7.75169H93.9518V21.5414H99.992V24.5567H90.6067ZM112.858 24.5567V21.592H105.53V17.5632H111.402V14.644H105.53V10.7164H112.858V7.75169H102.185V24.5567H112.858ZM132.717 7.75169H129.372V24.5567H132.717V7.75169ZM141.368 15.9987C142.159 15.9987 142.75 15.7536 143.141 15.2582C143.531 14.7628 143.722 14.1133 143.722 13.307C143.722 12.5033 143.516 11.8588 143.104 11.3811C142.691 10.9034 142.095 10.6633 141.318 10.6633H138.262V15.9987H141.368ZM141.311 7.75169C145.193 7.75169 147.134 9.59925 147.134 13.2868C147.141 15.4756 146.332 17.0957 144.713 18.1344L147.067 24.5592H143.403L141.484 18.9255H138.255V24.5567H134.91V7.75169H141.311ZM160 21.592V24.5567H149.327V7.75169H160V10.7164H152.672V14.644H158.546V17.5632H152.672V21.592H160Z" fill="#181818"/>
<line x1="179.5" y1="7" x2="179.5" y2="26" stroke="#181818" stroke-opacity="0.15"/>
<path d="M212.904 19.744L215.976 7.984H219.36L214.656 25H211.248L207.36 12.88L203.472 25H200.016L195.288 7.984H198.792L201.912 19.696L205.68 7.984H209.112L212.904 19.744ZM219.674 21.784C219.674 20.776 220.002 19.968 220.658 19.36C221.314 18.752 222.162 18.368 223.202 18.208L226.106 17.776C226.698 17.696 226.994 17.416 226.994 16.936C226.994 16.488 226.818 16.12 226.466 15.832C226.13 15.544 225.642 15.4 225.002 15.4C224.33 15.4 223.794 15.584 223.394 15.952C223.01 16.32 222.794 16.776 222.746 17.32L219.914 16.72C220.026 15.696 220.53 14.792 221.426 14.008C222.322 13.224 223.506 12.832 224.978 12.832C226.738 12.832 228.034 13.256 228.866 14.104C229.698 14.936 230.114 16.008 230.114 17.32V23.128C230.114 23.832 230.162 24.456 230.258 25H227.33C227.25 24.648 227.21 24.176 227.21 23.584C226.458 24.752 225.298 25.336 223.73 25.336C222.514 25.336 221.53 24.984 220.778 24.28C220.042 23.576 219.674 22.744 219.674 21.784ZM224.402 22.96C225.154 22.96 225.77 22.752 226.25 22.336C226.746 21.904 226.994 21.2 226.994 20.224V19.696L224.33 20.104C223.354 20.248 222.866 20.744 222.866 21.592C222.866 21.976 223.002 22.304 223.274 22.576C223.546 22.832 223.922 22.96 224.402 22.96ZM236.867 29.656H233.483L236.267 23.512L231.251 13.192H234.827L237.971 20.104L240.875 13.192H244.283L236.867 29.656ZM250.658 21.712L253.394 21.112C253.426 21.624 253.626 22.056 253.994 22.408C254.378 22.744 254.898 22.912 255.554 22.912C256.05 22.912 256.434 22.8 256.706 22.576C256.978 22.352 257.114 22.072 257.114 21.736C257.114 21.144 256.69 20.76 255.842 20.584L254.282 20.224C253.178 19.984 252.346 19.552 251.786 18.928C251.242 18.304 250.97 17.56 250.97 16.696C250.97 15.624 251.386 14.712 252.218 13.96C253.066 13.208 254.122 12.832 255.386 12.832C256.186 12.832 256.89 12.952 257.498 13.192C258.106 13.416 258.578 13.712 258.914 14.08C259.25 14.432 259.506 14.792 259.682 15.16C259.858 15.528 259.97 15.888 260.018 16.24L257.354 16.84C257.29 16.424 257.098 16.056 256.778 15.736C256.474 15.416 256.018 15.256 255.41 15.256C254.994 15.256 254.634 15.368 254.33 15.592C254.042 15.816 253.898 16.096 253.898 16.432C253.898 17.008 254.258 17.36 254.978 17.488L256.658 17.848C257.794 18.088 258.658 18.528 259.25 19.168C259.858 19.808 260.162 20.576 260.162 21.472C260.162 22.528 259.762 23.44 258.962 24.208C258.162 24.976 257.034 25.36 255.578 25.36C254.746 25.36 254.002 25.24 253.346 25C252.69 24.744 252.178 24.424 251.81 24.04C251.458 23.64 251.186 23.248 250.994 22.864C250.818 22.464 250.706 22.08 250.658 21.712ZM265.68 25H262.488V13.192H265.68V25ZM262.104 9.328C262.104 8.784 262.296 8.32 262.68 7.936C263.064 7.536 263.528 7.336 264.072 7.336C264.616 7.336 265.08 7.528 265.464 7.912C265.848 8.296 266.04 8.768 266.04 9.328C266.04 9.856 265.848 10.312 265.464 10.696C265.08 11.08 264.616 11.272 264.072 11.272C263.528 11.272 263.064 11.08 262.68 10.696C262.296 10.312 262.104 9.856 262.104 9.328ZM272.05 25H268.858V13.192H271.906V14.632C272.21 14.088 272.69 13.656 273.346 13.336C274.002 13.016 274.674 12.856 275.362 12.856C277.074 12.856 278.242 13.512 278.866 14.824C279.714 13.512 280.962 12.856 282.61 12.856C283.81 12.856 284.818 13.232 285.634 13.984C286.466 14.736 286.882 15.856 286.882 17.344V25H283.786V17.992C283.786 17.32 283.61 16.784 283.258 16.384C282.922 15.968 282.402 15.76 281.698 15.76C281.042 15.76 280.514 15.984 280.114 16.432C279.714 16.88 279.514 17.432 279.514 18.088V25H276.346V17.992C276.346 17.32 276.17 16.784 275.818 16.384C275.466 15.968 274.946 15.76 274.258 15.76C273.586 15.76 273.05 15.984 272.65 16.432C272.25 16.864 272.05 17.416 272.05 18.088V25ZM293.068 29.56H289.876V13.192H292.972V14.632C293.26 14.152 293.724 13.752 294.364 13.432C295.004 13.096 295.748 12.928 296.596 12.928C298.276 12.928 299.604 13.504 300.58 14.656C301.556 15.792 302.044 17.264 302.044 19.072C302.044 20.88 301.524 22.368 300.484 23.536C299.46 24.704 298.124 25.288 296.476 25.288C294.908 25.288 293.772 24.808 293.068 23.848V29.56ZM298.06 21.544C298.62 20.936 298.9 20.12 298.9 19.096C298.9 18.072 298.62 17.264 298.06 16.672C297.516 16.08 296.82 15.784 295.972 15.784C295.124 15.784 294.42 16.088 293.86 16.696C293.3 17.288 293.02 18.088 293.02 19.096C293.02 20.104 293.3 20.912 293.86 21.52C294.42 22.128 295.124 22.432 295.972 22.432C296.82 22.432 297.516 22.136 298.06 21.544ZM307.523 25H304.331V7.624H307.523V25ZM313.028 17.752H318.308C318.276 17.096 318.036 16.544 317.588 16.096C317.156 15.648 316.516 15.424 315.668 15.424C314.9 15.424 314.276 15.664 313.796 16.144C313.316 16.624 313.06 17.16 313.028 17.752ZM318.62 20.824L321.284 21.616C320.964 22.704 320.332 23.6 319.388 24.304C318.46 25.008 317.3 25.36 315.908 25.36C314.212 25.36 312.772 24.792 311.588 23.656C310.404 22.504 309.812 20.968 309.812 19.048C309.812 17.224 310.388 15.736 311.54 14.584C312.692 13.416 314.052 12.832 315.62 12.832C317.444 12.832 318.868 13.376 319.892 14.464C320.932 15.552 321.452 17.048 321.452 18.952C321.452 19.08 321.444 19.224 321.428 19.384C321.428 19.544 321.428 19.672 321.428 19.768L321.404 19.936H312.956C312.988 20.704 313.292 21.344 313.868 21.856C314.444 22.368 315.132 22.624 315.932 22.624C317.292 22.624 318.188 22.024 318.62 20.824ZM323.925 24.544C323.493 24.112 323.277 23.592 323.277 22.984C323.277 22.376 323.493 21.864 323.925 21.448C324.357 21.016 324.869 20.8 325.461 20.8C326.069 20.8 326.589 21.016 327.021 21.448C327.453 21.864 327.669 22.376 327.669 22.984C327.669 23.592 327.453 24.112 327.021 24.544C326.589 24.96 326.069 25.168 325.461 25.168C324.869 25.168 324.357 24.96 323.925 24.544ZM352.547 19.744L355.619 7.984H359.003L354.299 25H350.891L347.003 12.88L343.115 25H339.659L334.931 7.984H338.435L341.555 19.696L345.323 7.984H348.755L352.547 19.744ZM359.317 21.784C359.317 20.776 359.645 19.968 360.301 19.36C360.957 18.752 361.805 18.368 362.845 18.208L365.749 17.776C366.341 17.696 366.637 17.416 366.637 16.936C366.637 16.488 366.461 16.12 366.109 15.832C365.773 15.544 365.285 15.4 364.645 15.4C363.973 15.4 363.437 15.584 363.037 15.952C362.653 16.32 362.437 16.776 362.389 17.32L359.557 16.72C359.669 15.696 360.173 14.792 361.069 14.008C361.965 13.224 363.149 12.832 364.621 12.832C366.381 12.832 367.677 13.256 368.509 14.104C369.341 14.936 369.757 16.008 369.757 17.32V23.128C369.757 23.832 369.805 24.456 369.901 25H366.973C366.893 24.648 366.853 24.176 366.853 23.584C366.101 24.752 364.941 25.336 363.373 25.336C362.157 25.336 361.173 24.984 360.421 24.28C359.685 23.576 359.317 22.744 359.317 21.784ZM364.045 22.96C364.797 22.96 365.413 22.752 365.893 22.336C366.389 21.904 366.637 21.2 366.637 20.224V19.696L363.973 20.104C362.997 20.248 362.509 20.744 362.509 21.592C362.509 21.976 362.645 22.304 362.917 22.576C363.189 22.832 363.565 22.96 364.045 22.96ZM376.51 29.656H373.126L375.91 23.512L370.894 13.192H374.47L377.614 20.104L380.518 13.192H383.926L376.51 29.656ZM394.405 25H391.309V7.624H394.453V14.488C394.741 14.04 395.197 13.664 395.821 13.36C396.461 13.04 397.197 12.88 398.029 12.88C399.709 12.88 401.037 13.456 402.013 14.608C402.989 15.76 403.477 17.24 403.477 19.048C403.477 20.856 402.965 22.352 401.941 23.536C400.917 24.704 399.573 25.288 397.909 25.288C396.293 25.288 395.125 24.712 394.405 23.56V25ZM399.445 21.544C400.005 20.936 400.285 20.112 400.285 19.072C400.285 18.032 400.005 17.216 399.445 16.624C398.901 16.032 398.205 15.736 397.357 15.736C396.509 15.736 395.805 16.032 395.245 16.624C394.685 17.216 394.405 18.032 394.405 19.072C394.405 20.112 394.685 20.936 395.245 21.544C395.821 22.136 396.525 22.432 397.357 22.432C398.205 22.432 398.901 22.136 399.445 21.544ZM408.093 17.752H413.373C413.341 17.096 413.101 16.544 412.653 16.096C412.221 15.648 411.581 15.424 410.733 15.424C409.965 15.424 409.341 15.664 408.861 16.144C408.381 16.624 408.125 17.16 408.093 17.752ZM413.685 20.824L416.349 21.616C416.029 22.704 415.397 23.6 414.453 24.304C413.525 25.008 412.365 25.36 410.973 25.36C409.277 25.36 407.837 24.792 406.653 23.656C405.469 22.504 404.877 20.968 404.877 19.048C404.877 17.224 405.453 15.736 406.605 14.584C407.757 13.416 409.117 12.832 410.685 12.832C412.509 12.832 413.933 13.376 414.957 14.464C415.997 15.552 416.517 17.048 416.517 18.952C416.517 19.08 416.509 19.224 416.493 19.384C416.493 19.544 416.493 19.672 416.493 19.768L416.469 19.936H408.021C408.053 20.704 408.357 21.344 408.933 21.856C409.509 22.368 410.197 22.624 410.997 22.624C412.357 22.624 413.253 22.024 413.685 20.824ZM422.726 9.664V13.192H425.102V16.024H422.726V20.968C422.726 21.464 422.838 21.816 423.062 22.024C423.286 22.232 423.638 22.336 424.118 22.336C424.55 22.336 424.878 22.304 425.102 22.24V24.88C424.638 25.072 424.038 25.168 423.302 25.168C422.15 25.168 421.238 24.848 420.566 24.208C419.894 23.552 419.558 22.656 419.558 21.52V16.024H417.422V13.192H418.022C418.614 13.192 419.062 13.024 419.366 12.688C419.686 12.336 419.846 11.88 419.846 11.32V9.664H422.726ZM431.439 9.664V13.192H433.815V16.024H431.439V20.968C431.439 21.464 431.551 21.816 431.775 22.024C431.999 22.232 432.351 22.336 432.831 22.336C433.263 22.336 433.591 22.304 433.815 22.24V24.88C433.351 25.072 432.751 25.168 432.015 25.168C430.863 25.168 429.951 24.848 429.279 24.208C428.607 23.552 428.271 22.656 428.271 21.52V16.024H426.135V13.192H426.735C427.327 13.192 427.775 13.024 428.079 12.688C428.399 12.336 428.559 11.88 428.559 11.32V9.664H431.439ZM438.498 17.752H443.778C443.746 17.096 443.506 16.544 443.058 16.096C442.626 15.648 441.986 15.424 441.138 15.424C440.37 15.424 439.746 15.664 439.266 16.144C438.786 16.624 438.53 17.16 438.498 17.752ZM444.09 20.824L446.754 21.616C446.434 22.704 445.802 23.6 444.858 24.304C443.93 25.008 442.77 25.36 441.378 25.36C439.682 25.36 438.242 24.792 437.058 23.656C435.874 22.504 435.282 20.968 435.282 19.048C435.282 17.224 435.858 15.736 437.01 14.584C438.162 13.416 439.522 12.832 441.09 12.832C442.914 12.832 444.338 13.376 445.362 14.464C446.402 15.552 446.922 17.048 446.922 18.952C446.922 19.08 446.914 19.224 446.898 19.384C446.898 19.544 446.898 19.672 446.898 19.768L446.874 19.936H438.426C438.458 20.704 438.762 21.344 439.338 21.856C439.914 22.368 440.602 22.624 441.402 22.624C442.762 22.624 443.658 22.024 444.09 20.824ZM456.395 13.144V16.36C456.075 16.296 455.755 16.264 455.435 16.264C454.523 16.264 453.787 16.528 453.227 17.056C452.667 17.568 452.387 18.416 452.387 19.6V25H449.195V13.192H452.291V14.944C452.867 13.712 453.987 13.096 455.651 13.096C455.827 13.096 456.075 13.112 456.395 13.144ZM456.935 24.544C456.503 24.112 456.287 23.592 456.287 22.984C456.287 22.376 456.503 21.864 456.935 21.448C457.367 21.016 457.879 20.8 458.471 20.8C459.079 20.8 459.599 21.016 460.031 21.448C460.463 21.864 460.679 22.376 460.679 22.984C460.679 23.592 460.463 24.112 460.031 24.544C459.599 24.96 459.079 25.168 458.471 25.168C457.879 25.168 457.367 24.96 456.935 24.544Z" fill="#181818" fill-opacity="0.2"/>
</svg>
