<svg width="209" height="23" viewBox="0 0 209 23" fill="none" xmlns="http://www.w3.org/2000/svg">
<path d="M13.428 15.058L15.732 6.238H18.27L14.742 19H12.186L9.27 9.91L6.354 19H3.762L0.216 6.238H2.844L5.184 15.022L8.01 6.238H10.584L13.428 15.058ZM18.5053 16.588C18.5053 15.832 18.7513 15.226 19.2433 14.77C19.7353 14.314 20.3713 14.026 21.1513 13.906L23.3293 13.582C23.7733 13.522 23.9953 13.312 23.9953 12.952C23.9953 12.616 23.8633 12.34 23.5993 12.124C23.3473 11.908 22.9813 11.8 22.5013 11.8C21.9973 11.8 21.5953 11.938 21.2953 12.214C21.0073 12.49 20.8453 12.832 20.8093 13.24L18.6853 12.79C18.7693 12.022 19.1473 11.344 19.8193 10.756C20.4913 10.168 21.3793 9.874 22.4833 9.874C23.8033 9.874 24.7753 10.192 25.3993 10.828C26.0233 11.452 26.3353 12.256 26.3353 13.24V17.596C26.3353 18.124 26.3713 18.592 26.4433 19H24.2473C24.1873 18.736 24.1573 18.382 24.1573 17.938C23.5933 18.814 22.7233 19.252 21.5473 19.252C20.6353 19.252 19.8973 18.988 19.3333 18.46C18.7813 17.932 18.5053 17.308 18.5053 16.588ZM22.0513 17.47C22.6153 17.47 23.0773 17.314 23.4373 17.002C23.8093 16.678 23.9953 16.15 23.9953 15.418V15.022L21.9973 15.328C21.2653 15.436 20.8993 15.808 20.8993 16.444C20.8993 16.732 21.0013 16.978 21.2053 17.182C21.4093 17.374 21.6913 17.47 22.0513 17.47ZM31.3999 22.492H28.8619L30.9499 17.884L27.1879 10.144H29.8699L32.2279 15.328L34.4059 10.144H36.9619L31.3999 22.492ZM41.7434 16.534L43.7954 16.084C43.8194 16.468 43.9694 16.792 44.2454 17.056C44.5334 17.308 44.9234 17.434 45.4154 17.434C45.7874 17.434 46.0754 17.35 46.2794 17.182C46.4834 17.014 46.5854 16.804 46.5854 16.552C46.5854 16.108 46.2674 15.82 45.6314 15.688L44.4614 15.418C43.6334 15.238 43.0094 14.914 42.5894 14.446C42.1814 13.978 41.9774 13.42 41.9774 12.772C41.9774 11.968 42.2894 11.284 42.9134 10.72C43.5494 10.156 44.3414 9.874 45.2894 9.874C45.8894 9.874 46.4174 9.964 46.8734 10.144C47.3294 10.312 47.6834 10.534 47.9354 10.81C48.1874 11.074 48.3794 11.344 48.5114 11.62C48.6434 11.896 48.7274 12.166 48.7634 12.43L46.7654 12.88C46.7174 12.568 46.5734 12.292 46.3334 12.052C46.1054 11.812 45.7634 11.692 45.3074 11.692C44.9954 11.692 44.7254 11.776 44.4974 11.944C44.2814 12.112 44.1734 12.322 44.1734 12.574C44.1734 13.006 44.4434 13.27 44.9834 13.366L46.2434 13.636C47.0954 13.816 47.7434 14.146 48.1874 14.626C48.6434 15.106 48.8714 15.682 48.8714 16.354C48.8714 17.146 48.5714 17.83 47.9714 18.406C47.3714 18.982 46.5254 19.27 45.4334 19.27C44.8094 19.27 44.2514 19.18 43.7594 19C43.2674 18.808 42.8834 18.568 42.6074 18.28C42.3434 17.98 42.1394 17.686 41.9954 17.398C41.8634 17.098 41.7794 16.81 41.7434 16.534ZM53.0103 19H50.6163V10.144H53.0103V19ZM50.3283 7.246C50.3283 6.838 50.4723 6.49 50.7603 6.202C51.0483 5.902 51.3963 5.752 51.8043 5.752C52.2123 5.752 52.5603 5.896 52.8483 6.184C53.1363 6.472 53.2803 6.826 53.2803 7.246C53.2803 7.642 53.1363 7.984 52.8483 8.272C52.5603 8.56 52.2123 8.704 51.8043 8.704C51.3963 8.704 51.0483 8.56 50.7603 8.272C50.4723 7.984 50.3283 7.642 50.3283 7.246ZM57.7873 19H55.3933V10.144H57.6793V11.224C57.9073 10.816 58.2673 10.492 58.7593 10.252C59.2513 10.012 59.7553 9.892 60.2713 9.892C61.5553 9.892 62.4313 10.384 62.8993 11.368C63.5353 10.384 64.4713 9.892 65.7073 9.892C66.6073 9.892 67.3633 10.174 67.9753 10.738C68.5993 11.302 68.9113 12.142 68.9113 13.258V19H66.5893V13.744C66.5893 13.24 66.4573 12.838 66.1933 12.538C65.9413 12.226 65.5513 12.07 65.0233 12.07C64.5313 12.07 64.1353 12.238 63.8353 12.574C63.5353 12.91 63.3853 13.324 63.3853 13.816V19H61.0093V13.744C61.0093 13.24 60.8773 12.838 60.6133 12.538C60.3493 12.226 59.9593 12.07 59.4433 12.07C58.9393 12.07 58.5373 12.238 58.2373 12.574C57.9373 12.898 57.7873 13.312 57.7873 13.816V19ZM73.5507 22.42H71.1567V10.144H73.4787V11.224C73.6947 10.864 74.0427 10.564 74.5227 10.324C75.0027 10.072 75.5607 9.946 76.1967 9.946C77.4567 9.946 78.4527 10.378 79.1847 11.242C79.9167 12.094 80.2827 13.198 80.2827 14.554C80.2827 15.91 79.8927 17.026 79.1127 17.902C78.3447 18.778 77.3427 19.216 76.1067 19.216C74.9307 19.216 74.0787 18.856 73.5507 18.136V22.42ZM77.2947 16.408C77.7147 15.952 77.9247 15.34 77.9247 14.572C77.9247 13.804 77.7147 13.198 77.2947 12.754C76.8867 12.31 76.3647 12.088 75.7287 12.088C75.0927 12.088 74.5647 12.316 74.1447 12.772C73.7247 13.216 73.5147 13.816 73.5147 14.572C73.5147 15.328 73.7247 15.934 74.1447 16.39C74.5647 16.846 75.0927 17.074 75.7287 17.074C76.3647 17.074 76.8867 16.852 77.2947 16.408ZM84.3922 19H81.9982V5.968H84.3922V19ZM88.5212 13.564H92.4812C92.4572 13.072 92.2772 12.658 91.9412 12.322C91.6172 11.986 91.1372 11.818 90.5012 11.818C89.9252 11.818 89.4572 11.998 89.0972 12.358C88.7372 12.718 88.5452 13.12 88.5212 13.564ZM92.7152 15.868L94.7132 16.462C94.4732 17.278 93.9992 17.95 93.2912 18.478C92.5952 19.006 91.7252 19.27 90.6812 19.27C89.4092 19.27 88.3292 18.844 87.4412 17.992C86.5532 17.128 86.1092 15.976 86.1092 14.536C86.1092 13.168 86.5412 12.052 87.4052 11.188C88.2692 10.312 89.2892 9.874 90.4652 9.874C91.8332 9.874 92.9012 10.282 93.6692 11.098C94.4492 11.914 94.8392 13.036 94.8392 14.464C94.8392 14.56 94.8332 14.668 94.8212 14.788C94.8212 14.908 94.8212 15.004 94.8212 15.076L94.8032 15.202H88.4672C88.4912 15.778 88.7192 16.258 89.1512 16.642C89.5832 17.026 90.0992 17.218 90.6992 17.218C91.7192 17.218 92.3912 16.768 92.7152 15.868ZM96.6935 18.658C96.3695 18.334 96.2075 17.944 96.2075 17.488C96.2075 17.032 96.3695 16.648 96.6935 16.336C97.0175 16.012 97.4015 15.85 97.8455 15.85C98.3015 15.85 98.6915 16.012 99.0155 16.336C99.3395 16.648 99.5015 17.032 99.5015 17.488C99.5015 17.944 99.3395 18.334 99.0155 18.658C98.6915 18.97 98.3015 19.126 97.8455 19.126C97.4015 19.126 97.0175 18.97 96.6935 18.658ZM118.161 15.058L120.465 6.238H123.003L119.475 19H116.919L114.003 9.91L111.087 19H108.495L104.949 6.238H107.577L109.917 15.022L112.743 6.238H115.317L118.161 15.058ZM123.238 16.588C123.238 15.832 123.484 15.226 123.976 14.77C124.468 14.314 125.104 14.026 125.884 13.906L128.062 13.582C128.506 13.522 128.728 13.312 128.728 12.952C128.728 12.616 128.596 12.34 128.332 12.124C128.08 11.908 127.714 11.8 127.234 11.8C126.73 11.8 126.328 11.938 126.028 12.214C125.74 12.49 125.578 12.832 125.542 13.24L123.418 12.79C123.502 12.022 123.88 11.344 124.552 10.756C125.224 10.168 126.112 9.874 127.216 9.874C128.536 9.874 129.508 10.192 130.132 10.828C130.756 11.452 131.068 12.256 131.068 13.24V17.596C131.068 18.124 131.104 18.592 131.176 19H128.98C128.92 18.736 128.89 18.382 128.89 17.938C128.326 18.814 127.456 19.252 126.28 19.252C125.368 19.252 124.63 18.988 124.066 18.46C123.514 17.932 123.238 17.308 123.238 16.588ZM126.784 17.47C127.348 17.47 127.81 17.314 128.17 17.002C128.542 16.678 128.728 16.15 128.728 15.418V15.022L126.73 15.328C125.998 15.436 125.632 15.808 125.632 16.444C125.632 16.732 125.734 16.978 125.938 17.182C126.142 17.374 126.424 17.47 126.784 17.47ZM136.132 22.492H133.594L135.682 17.884L131.92 10.144H134.602L136.96 15.328L139.138 10.144H141.694L136.132 22.492ZM149.554 19H147.232V5.968H149.59V11.116C149.806 10.78 150.148 10.498 150.616 10.27C151.096 10.03 151.648 9.91 152.272 9.91C153.532 9.91 154.528 10.342 155.26 11.206C155.992 12.07 156.358 13.18 156.358 14.536C156.358 15.892 155.974 17.014 155.206 17.902C154.438 18.778 153.43 19.216 152.182 19.216C150.97 19.216 150.094 18.784 149.554 17.92V19ZM153.334 16.408C153.754 15.952 153.964 15.334 153.964 14.554C153.964 13.774 153.754 13.162 153.334 12.718C152.926 12.274 152.404 12.052 151.768 12.052C151.132 12.052 150.604 12.274 150.184 12.718C149.764 13.162 149.554 13.774 149.554 14.554C149.554 15.334 149.764 15.952 150.184 16.408C150.616 16.852 151.144 17.074 151.768 17.074C152.404 17.074 152.926 16.852 153.334 16.408ZM159.819 13.564H163.779C163.755 13.072 163.575 12.658 163.239 12.322C162.915 11.986 162.435 11.818 161.799 11.818C161.223 11.818 160.755 11.998 160.395 12.358C160.035 12.718 159.843 13.12 159.819 13.564ZM164.013 15.868L166.011 16.462C165.771 17.278 165.297 17.95 164.589 18.478C163.893 19.006 163.023 19.27 161.979 19.27C160.707 19.27 159.627 18.844 158.739 17.992C157.851 17.128 157.407 15.976 157.407 14.536C157.407 13.168 157.839 12.052 158.703 11.188C159.567 10.312 160.587 9.874 161.763 9.874C163.131 9.874 164.199 10.282 164.967 11.098C165.747 11.914 166.137 13.036 166.137 14.464C166.137 14.56 166.131 14.668 166.119 14.788C166.119 14.908 166.119 15.004 166.119 15.076L166.101 15.202H159.765C159.789 15.778 160.017 16.258 160.449 16.642C160.881 17.026 161.397 17.218 161.997 17.218C163.017 17.218 163.689 16.768 164.013 15.868ZM170.795 7.498V10.144H172.577V12.268H170.795V15.976C170.795 16.348 170.879 16.612 171.047 16.768C171.215 16.924 171.479 17.002 171.839 17.002C172.163 17.002 172.409 16.978 172.577 16.93V18.91C172.229 19.054 171.779 19.126 171.227 19.126C170.363 19.126 169.679 18.886 169.175 18.406C168.671 17.914 168.419 17.242 168.419 16.39V12.268H166.817V10.144H167.267C167.711 10.144 168.047 10.018 168.275 9.766C168.515 9.502 168.635 9.16 168.635 8.74V7.498H170.795ZM177.33 7.498V10.144H179.112V12.268H177.33V15.976C177.33 16.348 177.414 16.612 177.582 16.768C177.75 16.924 178.014 17.002 178.374 17.002C178.698 17.002 178.944 16.978 179.112 16.93V18.91C178.764 19.054 178.314 19.126 177.762 19.126C176.898 19.126 176.214 18.886 175.71 18.406C175.206 17.914 174.954 17.242 174.954 16.39V12.268H173.352V10.144H173.802C174.246 10.144 174.582 10.018 174.81 9.766C175.05 9.502 175.17 9.16 175.17 8.74V7.498H177.33ZM182.623 13.564H186.583C186.559 13.072 186.379 12.658 186.043 12.322C185.719 11.986 185.239 11.818 184.603 11.818C184.027 11.818 183.559 11.998 183.199 12.358C182.839 12.718 182.647 13.12 182.623 13.564ZM186.817 15.868L188.815 16.462C188.575 17.278 188.101 17.95 187.393 18.478C186.697 19.006 185.827 19.27 184.783 19.27C183.511 19.27 182.431 18.844 181.543 17.992C180.655 17.128 180.211 15.976 180.211 14.536C180.211 13.168 180.643 12.052 181.507 11.188C182.371 10.312 183.391 9.874 184.567 9.874C185.935 9.874 187.003 10.282 187.771 11.098C188.551 11.914 188.941 13.036 188.941 14.464C188.941 14.56 188.935 14.668 188.923 14.788C188.923 14.908 188.923 15.004 188.923 15.076L188.905 15.202H182.569C182.593 15.778 182.821 16.258 183.253 16.642C183.685 17.026 184.201 17.218 184.801 17.218C185.821 17.218 186.493 16.768 186.817 15.868ZM196.046 10.108V12.52C195.806 12.472 195.566 12.448 195.326 12.448C194.642 12.448 194.09 12.646 193.67 13.042C193.25 13.426 193.04 14.062 193.04 14.95V19H190.646V10.144H192.968V11.458C193.4 10.534 194.24 10.072 195.488 10.072C195.62 10.072 195.806 10.084 196.046 10.108ZM196.451 18.658C196.127 18.334 195.965 17.944 195.965 17.488C195.965 17.032 196.127 16.648 196.451 16.336C196.775 16.012 197.159 15.85 197.603 15.85C198.059 15.85 198.449 16.012 198.773 16.336C199.097 16.648 199.259 17.032 199.259 17.488C199.259 17.944 199.097 18.334 198.773 18.658C198.449 18.97 198.059 19.126 197.603 19.126C197.159 19.126 196.775 18.97 196.451 18.658Z" fill="#181818" fill-opacity="0.3"/>
</svg>
