<svg width="123" height="18" viewBox="0 0 123 18" fill="none" xmlns="http://www.w3.org/2000/svg">
<path d="M7.11871 7.40575C5.49677 6.85758 4.46033 6.44462 4.02164 6.15775C3.81486 6.03245 3.64441 5.85093 3.5284 5.63248C3.41238 5.41403 3.35513 5.1668 3.36273 4.91706C3.36273 3.69891 4.25235 3.08618 6.03159 3.07887C6.97655 3.07887 8.60199 3.21287 10.9079 3.48086L11.1788 0.694346L10.2944 0.511623C8.77511 0.206591 7.23398 0.0354487 5.68728 0C3.91852 0 2.54127 0.422089 1.52057 1.27906C0.499864 2.13603 0 3.42057 0 5.15826C0 6.53477 0.388589 7.61161 1.16577 8.38879C1.93654 9.15988 3.27709 9.83047 5.16993 10.3987C6.36425 10.7569 7.16007 11.0882 7.5574 11.3928C7.75152 11.5369 7.90829 11.7293 8.01355 11.9526C8.11882 12.1759 8.16928 12.423 8.16038 12.6718C8.16038 14.1738 7.29465 14.9236 5.56318 14.9211C4.40499 14.9211 2.73061 14.7682 0.540063 14.4625L0.190507 17.2033L1.07488 17.3861C2.9217 17.7941 4.48131 17.9988 5.75369 18C7.46651 18 8.85367 17.5328 9.91515 16.5985C10.9766 15.6642 11.5085 14.2865 11.5109 12.4653C11.5109 11.0352 11.184 9.97543 10.5304 9.28596C9.8767 8.59649 8.73948 7.96975 7.11871 7.40575Z" fill="white"/>
<path d="M16.8347 0.316162H13.4492V17.673H16.8347V0.316162Z" fill="white"/>
<path d="M27.7491 12.977L24.8093 0.316162H19.0469V17.6748H22.4323V4.24287H22.7976L26.0537 16.9074H29.4374L32.6935 4.24287H33.0658V17.6748H36.4443V0.316162H30.6888L27.7491 12.977Z" fill="white"/>
<path d="M44.7851 0.316163H38.6592V17.6748H42.0376V12.6225H44.7799C46.7234 12.6225 48.1974 12.0829 49.2018 11.0036C50.2062 9.92432 50.7072 8.37179 50.7049 6.34601C50.7165 2.32489 48.7433 0.314945 44.7851 0.316163ZM44.7642 9.6076H42.0429V3.3256H44.7642C45.6381 3.3256 46.2673 3.56132 46.6727 4.02543C47.0782 4.48955 47.2862 5.26246 47.2862 6.33504C47.2862 8.51858 46.442 9.6076 44.7642 9.6076Z" fill="white"/>
<path d="M56.2974 0.316162H52.9189V17.6748H62.3971V14.5594H56.2974V0.316162Z" fill="white"/>
<path d="M64.6123 17.6748H75.3908V14.6124H67.9908V10.45H73.921V7.43503H67.9908V3.37859H75.3908V0.316162H64.6123V17.6748Z" fill="white"/>
<path d="M77.6045 3.43158H82.0648V17.6748H85.4433V3.43158H89.853V0.316162H77.6045V3.43158Z" fill="white"/>
<path d="M95.4476 0.316162H92.0674V17.673H95.4476V0.316162Z" fill="white"/>
<path d="M110.005 6.03355C110.005 2.22318 108.046 0.31738 104.126 0.316162H97.6592V17.6748H101.038V11.8606H104.299L106.237 17.6785H109.937L107.56 11.042C109.194 9.96757 110.009 8.29809 110.005 6.03355ZM105.973 8.07091C105.58 8.58436 104.982 8.83651 104.184 8.83651H101.046V3.3256H104.131C104.914 3.3256 105.517 3.57228 105.935 4.06746C106.353 4.56263 106.557 5.22774 106.557 6.0573C106.557 6.88686 106.368 7.55746 105.973 8.07091Z" fill="white"/>
<path d="M123 3.37859V0.316162H112.22V17.6748H123V14.6124H115.598V10.45H121.53V7.43503H115.598V3.37859H123Z" fill="white"/>
</svg>
