<svg width="1397" height="130" viewBox="0 0 1397 130" fill="none" xmlns="http://www.w3.org/2000/svg">
<g clip-path="url(#clip0)">
<path d="M36.9375 113.166V84.2644H42.3V69.6748H64.2V96.832" stroke="#C9C9C9" stroke-width="1.5" stroke-linecap="round" stroke-linejoin="round"/>
<path d="M291.976 99.0525V50.4471H294.526V41.0115H295.651V34.6286H297.301C297.301 34.6286 299.363 25.9462 299.363 21.4663V13.1011" stroke="#C9C9C9" stroke-width="1.5" stroke-linecap="round" stroke-linejoin="round"/>
<path d="M306.75 74.3138V50.4472H304.2V41.0115H303.075V34.6286H301.425C301.425 34.6286 299.363 25.9462 299.363 21.4663V13.1011" stroke="#C9C9C9" stroke-width="1.5" stroke-linecap="round" stroke-linejoin="round"/>
<path d="M128.851 69.4768V40.7734H161.626V110.55" stroke="#C9C9C9" stroke-width="1.5" stroke-linecap="round" stroke-linejoin="round"/>
<path d="M640.95 105.396V2.79297H667.05V60.0015H672.337V89.5374" stroke="#C9C9C9" stroke-width="1.5" stroke-linecap="round" stroke-linejoin="round"/>
<path d="M1084.31 125.338V71.1025H1110.41V102.105" stroke="#C9C9C9" stroke-width="1.5" stroke-linecap="round" stroke-linejoin="round"/>
<path d="M1207.12 128.707V58.1772H1238.66V86.6824" stroke="#C9C9C9" stroke-width="1.5" stroke-linecap="round" stroke-linejoin="round"/>
<path d="M1047.86 108.052V80.5771H1031.29" stroke="#C9C9C9" stroke-width="1.5" stroke-linecap="round" stroke-linejoin="round"/>
<path d="M1343.96 108.646V33.5576H1371.11V52.4289H1378.95V58.1775" stroke="#C9C9C9" stroke-width="1.5" stroke-linecap="round" stroke-linejoin="round"/>
<path d="M705.524 110.589V62.0234H738.037V76.4148" stroke="#C9C9C9" stroke-width="1.5" stroke-linecap="round" stroke-linejoin="round"/>
<path d="M613.125 95.7613V58.1377H632.137V113.721" stroke="#C9C9C9" stroke-width="1.5" stroke-linecap="round" stroke-linejoin="round"/>
<path d="M1366.24 122.919V61.9438H1395.9V119.311" stroke="#C9C9C9" stroke-width="1.5" stroke-linecap="round" stroke-linejoin="round"/>
<path d="M204.375 104.286V82.4014H241.125V92.9074" stroke="#C9C9C9" stroke-width="1.5" stroke-linecap="round" stroke-linejoin="round"/>
<path d="M235.05 113.166V96.8315H272.738V118.954" stroke="#C9C9C9" stroke-width="1.5" stroke-linecap="round" stroke-linejoin="round"/>
<path d="M299.363 115.783V78.1196L343.613 78.1593V124.227" stroke="#C9C9C9" stroke-width="1.5" stroke-linecap="round" stroke-linejoin="round"/>
<path d="M110.062 124.227V78.1193L120.862 69.4766L131.663 78.1193V103.453H153.525V122.364" stroke="#C9C9C9" stroke-width="1.5" stroke-linecap="round" stroke-linejoin="round"/>
<path d="M47.1753 125.892V100.479H88.6503V122.364" stroke="#C9C9C9" stroke-width="1.5" stroke-linecap="round" stroke-linejoin="round"/>
<path d="M18.75 121.65V96.0791H0.75V124.227" stroke="#C9C9C9" stroke-width="1.5" stroke-linecap="round" stroke-linejoin="round"/>
<path d="M485.137 119.113V55.8784L507.975 62.8164V78.1196" stroke="#C9C9C9" stroke-width="1.5" stroke-linecap="round" stroke-linejoin="round"/>
<path d="M499.425 125.892V82.4014H558.638V125.892" stroke="#C9C9C9" stroke-width="1.5" stroke-linecap="round" stroke-linejoin="round"/>
<path d="M398.663 78.1196V51.7554H435.713V118.558" stroke="#C9C9C9" stroke-width="1.5" stroke-linecap="round" stroke-linejoin="round"/>
<path d="M385.351 125.892V82.4014H407.813V125.892" stroke="#C9C9C9" stroke-width="1.5" stroke-linecap="round" stroke-linejoin="round"/>
<path d="M581.25 125.892V101.589H622.65V118.558" stroke="#C9C9C9" stroke-width="1.5" stroke-linecap="round" stroke-linejoin="round"/>
<path d="M729.113 126.606V101.193H733.125V82.4014H747.713V101.193H770.625V128.707" stroke="#C9C9C9" stroke-width="1.5" stroke-linecap="round" stroke-linejoin="round"/>
<path d="M862.726 98.2592V55.6006H876.751V70.9434H890.401V91.3608" stroke="#C9C9C9" stroke-width="1.5" stroke-linecap="round" stroke-linejoin="round"/>
<path d="M879.601 119.271V94.2549H913.688V122.482" stroke="#C9C9C9" stroke-width="1.5" stroke-linecap="round" stroke-linejoin="round"/>
<path d="M1102.88 125.892V105.118H1160.1V120.58" stroke="#C9C9C9" stroke-width="1.5" stroke-linecap="round" stroke-linejoin="round"/>
<path d="M1328.77 122.324L1328.62 71.062L1294.09 71.1809L1294.24 125.337" stroke="#C9C9C9" stroke-width="1.5" stroke-linecap="round" stroke-linejoin="round"/>
<path d="M1236.15 126.883V95.0481L1249.76 83.7095L1263.82 95.0481V122.364" stroke="#C9C9C9" stroke-width="1.5" stroke-linecap="round" stroke-linejoin="round"/>
<path d="M999.788 117.289V39.6235H1028.48V124.148" stroke="#C9C9C9" stroke-width="1.5" stroke-linecap="round" stroke-linejoin="round"/>
<path d="M971.474 127.835V81.8857H944.399V125.337" stroke="#C9C9C9" stroke-width="1.5" stroke-linecap="round" stroke-linejoin="round"/>
<path d="M832.462 122.364V102.501H867.674V128.549" stroke="#C9C9C9" stroke-width="1.5" stroke-linecap="round" stroke-linejoin="round"/>
<path d="M193.351 125.892V107.259H209.738V125.892" stroke="#C9C9C9" stroke-width="1.5" stroke-linecap="round" stroke-linejoin="round"/>
</g>
<defs>
<clipPath id="clip0">
<rect y="2" width="1396.65" height="127.5" fill="white"/>
</clipPath>
</defs>
</svg>
