<svg width="1512" height="131" viewBox="0 0 1512 131" fill="none" xmlns="http://www.w3.org/2000/svg">
<g clip-path="url(#clip0)">
<path d="M1220.98 108.614V64.9855L1246.13 51.75L1271.28 64.9855V93.7699" stroke="#C9C9C9" stroke-width="1.5" stroke-linecap="round" stroke-linejoin="round"/>
<path d="M79.0762 112.532V87.403L76.6313 77.9956L24.9187 78.0556L20.04 74.8911L0.75 87.403V112.532" stroke="#C9C9C9" stroke-width="1.5" stroke-linecap="round" stroke-linejoin="round"/>
<path d="M72.8963 103.268V107.265H61.665V99.27" stroke="#C9C9C9" stroke-width="1.5" stroke-linecap="round" stroke-linejoin="round"/>
<path d="M72.8963 99.2706C72.8134 97.8373 72.1857 96.49 71.1417 95.5046C70.0976 94.5191 68.7163 93.9702 67.2807 93.9702C65.845 93.9702 64.4637 94.5191 63.4197 95.5046C62.3756 96.49 61.7479 97.8373 61.665 99.2706" stroke="#C9C9C9" stroke-width="1.5" stroke-linecap="round" stroke-linejoin="round"/>
<path d="M30.5965 89.7617H10.3428V104.456H30.5965V89.7617Z" stroke="#C9C9C9" stroke-width="1.5" stroke-linecap="round" stroke-linejoin="round"/>
<path d="M255.647 123.178V70.6483L240.662 60.0149L225.673 70.6483V77.9972H182.218L178.352 87.4045V116.496" stroke="#C9C9C9" stroke-width="1.5" stroke-linecap="round" stroke-linejoin="round"/>
<path d="M234.295 85.9111V104.456H248.38V85.9111C248.38 84.0436 247.638 82.2525 246.317 80.932C244.996 79.6115 243.205 78.8696 241.337 78.8696C239.47 78.8696 237.678 79.6115 236.358 80.932C235.037 82.2525 234.295 84.0436 234.295 85.9111V85.9111Z" stroke="#C9C9C9" stroke-width="1.5" stroke-linecap="round" stroke-linejoin="round"/>
<path d="M184.067 108.153V93.2603H220.686V116.495" stroke="#C9C9C9" stroke-width="1.5" stroke-linecap="round" stroke-linejoin="round"/>
<path d="M121.196 112.352C121.196 109.652 120.124 107.063 118.214 105.154C116.305 103.245 113.715 102.172 111.015 102.172C108.315 102.172 105.725 103.245 103.816 105.154C101.907 107.063 100.834 109.652 100.834 112.352" stroke="#C9C9C9" stroke-width="1.5" stroke-linecap="round" stroke-linejoin="round"/>
<path d="M123.101 109.491C123.732 108.938 124.483 108.539 125.295 108.327C126.106 108.115 126.956 108.095 127.777 108.268C131.58 108.97 132.109 112.952 132.109 112.952C132.109 112.952 136.965 112.543 136.609 117.827" stroke="#C9C9C9" stroke-width="1.5" stroke-linecap="round" stroke-linejoin="round"/>
<path d="M300.817 116.492C301.291 114.284 300.87 111.978 299.646 110.08C298.422 108.182 296.495 106.847 294.288 106.368C293.267 106.154 292.22 106.098 291.183 106.203C291.985 102.503 289.357 98.8208 285.655 98.0184C281.954 97.216 278.279 99.2257 277.477 102.926C276.404 101.802 274.975 100.647 273.352 100.302C272.859 100.193 272.356 100.133 271.852 100.122" stroke="#C9C9C9" stroke-width="1.5" stroke-linecap="round" stroke-linejoin="round"/>
<path d="M347.024 112.975V69.3466L372.176 56.1111L397.327 69.3466V85.7766" stroke="#C9C9C9" stroke-width="1.5" stroke-linecap="round" stroke-linejoin="round"/>
<path d="M376.504 68.7574C375.056 67.733 373.292 67.2545 371.526 67.4069C369.759 67.5594 368.103 68.3329 366.853 69.5901C365.602 70.8474 364.837 72.507 364.695 74.2744C364.552 76.0418 365.04 77.8026 366.073 79.2442C367.105 80.6858 368.616 81.7149 370.335 82.1489C372.054 82.5828 373.872 82.3935 375.465 81.6145C377.058 80.8355 378.324 79.5173 379.037 77.8939C379.75 76.2705 379.865 74.4468 379.361 72.7468" stroke="#C9C9C9" stroke-width="1.5" stroke-linecap="round" stroke-linejoin="round"/>
<path d="M416.077 113.605V95.2625L411.502 88.4873H369.251L364.672 95.2625V113.605" stroke="#C9C9C9" stroke-width="1.5" stroke-linecap="round" stroke-linejoin="round"/>
<path d="M396.36 116.496V102.173H407.813V116.496" stroke="#C9C9C9" stroke-width="1.5" stroke-linecap="round" stroke-linejoin="round"/>
<path d="M501.151 127.436V85.0372L512.701 67.3887H573.02L584.57 85.0372V102.172" stroke="#C9C9C9" stroke-width="1.5" stroke-linecap="round" stroke-linejoin="round"/>
<path d="M556.922 116.495V97.8232H570.711V116.495" stroke="#C9C9C9" stroke-width="1.5" stroke-linecap="round" stroke-linejoin="round"/>
<path d="M790.59 121.039V86.9532L783.888 80.253H728.895L716.358 67.7224L698.171 85.9109V121.039" stroke="#C9C9C9" stroke-width="1.5" stroke-linecap="round" stroke-linejoin="round"/>
<path d="M708.341 95.2923V113.841H722.43V95.2923C722.387 93.4525 721.626 91.7022 720.31 90.416C718.993 89.1298 717.226 88.4097 715.385 88.4097C713.545 88.4097 711.777 89.1298 710.461 90.416C709.144 91.7022 708.383 93.4525 708.341 95.2923Z" stroke="#C9C9C9" stroke-width="1.5" stroke-linecap="round" stroke-linejoin="round"/>
<path d="M744.379 122.491V110.496H755.471V122.491" stroke="#C9C9C9" stroke-width="1.5" stroke-linecap="round" stroke-linejoin="round"/>
<path d="M766.327 122.491V110.496H777.416V122.491" stroke="#C9C9C9" stroke-width="1.5" stroke-linecap="round" stroke-linejoin="round"/>
<path d="M977.87 116.496V85.2109L971.698 69.7782H929.705V57.8738H886.502L876.624 74.7875V114.464" stroke="#C9C9C9" stroke-width="1.5" stroke-linecap="round" stroke-linejoin="round"/>
<path d="M827.491 108.104C831.124 101.843 839.367 100.035 846.458 104.801C848.033 98.4269 854.641 96.4472 858.976 97.7932C862.002 98.7306 864.488 100.673 865.759 103.324C867.259 103.324 868.947 103.361 870.458 103.83C871.313 104.094 872.144 104.431 872.941 104.838" stroke="#C9C9C9" stroke-width="1.5" stroke-linecap="round" stroke-linejoin="round"/>
<path d="M945.553 122.491V102.491H962.717V122.491" stroke="#C9C9C9" stroke-width="1.5" stroke-linecap="round" stroke-linejoin="round"/>
<path d="M910.847 96.492V84.4976H920.889V96.492" stroke="#C9C9C9" stroke-width="1.5" stroke-linecap="round" stroke-linejoin="round"/>
<path d="M886.539 96.492V84.4976H896.582V96.492" stroke="#C9C9C9" stroke-width="1.5" stroke-linecap="round" stroke-linejoin="round"/>
<path d="M1165.29 121.302V65.2072L1150.27 55.8186L1135.24 65.2072V76.9391L1091.43 93.9578V121.302" stroke="#C9C9C9" stroke-width="1.5" stroke-linecap="round" stroke-linejoin="round"/>
<path d="M1145.3 96.6492V76.9385H1155.33V96.6492" stroke="#C9C9C9" stroke-width="1.5" stroke-linecap="round" stroke-linejoin="round"/>
<path d="M1368.38 127.447V98.3815L1331.83 78.1421L1295.28 98.3815V127.447" stroke="#C9C9C9" stroke-width="1.5" stroke-linecap="round" stroke-linejoin="round"/>
<path d="M1331.83 98.6759C1334.2 98.6759 1336.12 96.7535 1336.12 94.3821C1336.12 92.0108 1334.2 90.0884 1331.83 90.0884C1329.46 90.0884 1327.54 92.0108 1327.54 94.3821C1327.54 96.7535 1329.46 98.6759 1331.83 98.6759Z" stroke="#C9C9C9" stroke-width="1.5" stroke-linecap="round" stroke-linejoin="round"/>
<path d="M1320.85 114.463V102.491H1304V116.495" stroke="#C9C9C9" stroke-width="1.5" stroke-linecap="round" stroke-linejoin="round"/>
<path d="M1443.78 129.329V79.0756L1477.35 64.6628L1510.92 79.0756V129.329" stroke="#C9C9C9" stroke-width="1.5" stroke-linecap="round" stroke-linejoin="round"/>
<path d="M1469.58 114.463V102.491H1452.73V116.495" stroke="#C9C9C9" stroke-width="1.5" stroke-linecap="round" stroke-linejoin="round"/>
<path d="M1349.11 115.191V102.491H1358.99V113.739" stroke="#C9C9C9" stroke-width="1.5" stroke-linecap="round" stroke-linejoin="round"/>
<path d="M1491.52 115.191V102.491H1501.41V113.739" stroke="#C9C9C9" stroke-width="1.5" stroke-linecap="round" stroke-linejoin="round"/>
<path d="M454.069 107.159C454.069 107.159 455.322 101.16 462.012 102.173C468.702 103.185 468.282 108.397 468.282 108.397C468.282 108.397 475.336 96.6572 485.952 103.676C494.513 109.334 489.128 118.895 489.128 118.895" stroke="#C9C9C9" stroke-width="1.5" stroke-linecap="round" stroke-linejoin="round"/>
<path d="M646.798 123.657C646.798 118.45 644.73 113.457 641.047 109.775C637.365 106.093 632.371 104.025 627.163 104.025C620.387 104.025 615.036 107.519 611.507 112.742C610.982 111.771 608.065 109.994 606.137 110.2C604.676 110.32 603.296 110.919 602.211 111.904C601.126 112.89 600.397 114.206 600.137 115.648C598.768 113.901 595.495 111.951 591.163 111.951C588.058 111.951 585.08 113.184 582.884 115.379C580.687 117.575 579.453 120.552 579.452 123.657" stroke="#C9C9C9" stroke-width="1.5" stroke-linecap="round" stroke-linejoin="round"/>
<path d="M1086.78 108.562C1086.78 104.639 1085.22 100.876 1082.45 98.1023C1079.67 95.3284 1075.91 93.77 1071.99 93.77C1058.32 93.77 1057.19 108.839 1057.19 108.839C1055.09 106.736 1052.35 105.385 1049.41 104.994C1046.46 104.603 1043.46 105.194 1040.88 106.676C1036.58 99.8441 1028.8 97.302 1020.37 98.828C1017.74 99.3038 1015.23 100.293 1012.98 101.74C1010.73 103.187 1008.79 105.062 1007.26 107.26C1005.74 109.457 1004.66 111.933 1004.09 114.546C1003.53 117.16 1003.48 119.859 1003.96 122.491" stroke="#C9C9C9" stroke-width="1.5" stroke-linecap="round" stroke-linejoin="round"/>
<path d="M1366.03 91.8013C1366.91 90.4065 1368.24 88.3031 1370.76 87.8682C1374.23 87.2682 1376.86 88.618 1379.06 90.7402C1381.1 88.693 1384.58 87.8682 1387.71 87.8682C1393.95 87.8682 1399.12 92.7424 1399.12 98.9927C1404.61 97.088 1410.72 99.8138 1412.62 105.307C1413.07 106.613 1413.26 107.995 1413.18 109.375C1413.1 110.754 1412.75 112.105 1412.15 113.348C1411.54 114.592 1410.7 115.705 1409.67 116.623C1408.63 117.541 1407.43 118.247 1406.12 118.7" stroke="#C9C9C9" stroke-width="1.5" stroke-linecap="round" stroke-linejoin="round"/>
<path d="M1209.45 119.99C1209.45 112.491 1216.98 112.926 1216.98 112.926C1217.49 112.939 1217.99 113 1218.48 113.106C1220.11 113.458 1221.53 114.606 1222.61 115.73C1223.41 112.026 1227.08 110.016 1230.78 110.819C1234.49 111.621 1237.11 115.318 1236.31 119.004C1237.35 118.902 1238.4 118.958 1239.42 119.169C1240.51 119.406 1241.55 119.857 1242.47 120.495C1243.39 121.134 1244.18 121.947 1244.78 122.889C1245.39 123.832 1245.8 124.884 1246 125.986C1246.2 127.089 1246.18 128.22 1245.95 129.315" stroke="#C9C9C9" stroke-width="1.5" stroke-linecap="round" stroke-linejoin="round"/>
<path d="M1229.98 88.5622V76.939H1239.56V88.5622" stroke="#C9C9C9" stroke-width="1.5" stroke-linecap="round" stroke-linejoin="round"/>
</g>
<defs>
<clipPath id="clip0">
<rect y="51" width="1511.67" height="79.08" fill="white"/>
</clipPath>
</defs>
</svg>
