<svg width="1641" height="130" viewBox="0 0 1641 130" fill="none" xmlns="http://www.w3.org/2000/svg">
<g clip-path="url(#clip0)">
<path d="M146.101 74.2879C146.101 74.2879 215.738 39.9004 243.863 39.9004C271.988 39.9004 360.001 73.0504 360.001 73.0504" stroke="#C9C9C9" stroke-width="1.5" stroke-linecap="round" stroke-linejoin="round"/>
<path d="M151.238 83.5876C151.238 83.5876 111.638 60.7876 97.5 60.7876C82.275 60.7876 58.725 83.1751 52.275 87.2251H0.75" stroke="#C9C9C9" stroke-width="1.5" stroke-linecap="round" stroke-linejoin="round"/>
<path d="M317.663 98.3253V88.6503C317.663 87.3378 317.063 86.0628 316.013 85.2378L301.913 73.9878L287.813 85.2378C286.763 86.0628 286.163 87.3003 286.163 88.6503V98.3253H260.175" stroke="#C9C9C9" stroke-width="1.5" stroke-linecap="round" stroke-linejoin="round"/>
<path d="M292.688 98.3246V87.7871H311.175V98.3246" stroke="#C9C9C9" stroke-width="1.5" stroke-linecap="round" stroke-linejoin="round"/>
<path d="M210.75 107.963H231.938" stroke="#C9C9C9" stroke-width="1.5" stroke-linecap="round" stroke-linejoin="round"/>
<path d="M273.601 115.312H278.926" stroke="#C9C9C9" stroke-width="1.5" stroke-linecap="round" stroke-linejoin="round"/>
<path d="M486.226 66.9747C486.226 66.9747 557.251 25.7622 602.363 25.7622C647.476 25.7622 738.526 71.6247 738.526 71.6247" stroke="#C9C9C9" stroke-width="1.5" stroke-linecap="round" stroke-linejoin="round"/>
<path d="M721.5 51.1878C733.275 46.6503 747.525 42.1128 757.2 42.1128C782.1 42.1128 815.325 66.9753 815.325 66.9753H856.2" stroke="#C9C9C9" stroke-width="1.5" stroke-linecap="round" stroke-linejoin="round"/>
<path d="M1220.4 68.2876C1220.4 68.2876 1121.62 33.4501 1091.62 33.7876C1061.62 34.1251 950.962 74.6626 950.962 74.6626" stroke="#C9C9C9" stroke-width="1.5" stroke-linecap="round" stroke-linejoin="round"/>
<path d="M1640.03 80.625C1640.03 80.625 1555.43 24.75 1531.46 24.75C1507.5 24.75 1439.81 80.625 1439.81 80.625H1393.73" stroke="#C9C9C9" stroke-width="1.5" stroke-linecap="round" stroke-linejoin="round"/>
<path d="M1215.11 61.1996C1215.11 61.1996 1253.25 40.9121 1268.21 40.9121C1283.18 40.9121 1349.48 68.1746 1349.48 68.1746" stroke="#C9C9C9" stroke-width="1.5" stroke-linecap="round" stroke-linejoin="round"/>
<path d="M1349.48 100.312H1393.73" stroke="#C9C9C9" stroke-width="1.5" stroke-linecap="round" stroke-linejoin="round"/>
<path d="M576.524 109.238H656.587" stroke="#C9C9C9" stroke-width="1.5" stroke-linecap="round" stroke-linejoin="round"/>
<path d="M716.851 109.238H740.101" stroke="#C9C9C9" stroke-width="1.5" stroke-linecap="round" stroke-linejoin="round"/>
<path d="M819.038 128.963H892.801" stroke="#C9C9C9" stroke-width="1.5" stroke-linecap="round" stroke-linejoin="round"/>
<path d="M1010.18 115.275H1056.53" stroke="#C9C9C9" stroke-width="1.5" stroke-linecap="round" stroke-linejoin="round"/>
<path d="M1131.3 109.238H1150.31" stroke="#C9C9C9" stroke-width="1.5" stroke-linecap="round" stroke-linejoin="round"/>
<path d="M1418.89 100.312H1430.62" stroke="#C9C9C9" stroke-width="1.5" stroke-linecap="round" stroke-linejoin="round"/>
<path d="M1406.4 115.275H1461.79" stroke="#C9C9C9" stroke-width="1.5" stroke-linecap="round" stroke-linejoin="round"/>
<path d="M1482.6 100.313H1502.7V82.3126C1502.7 77.2501 1506.79 73.1626 1511.85 73.1626H1513.35C1518.41 73.1626 1522.5 77.2501 1522.5 82.3126V100.313H1534.76" stroke="#C9C9C9" stroke-width="1.5" stroke-linecap="round" stroke-linejoin="round"/>
<path d="M1260.94 124.762H1296.79" stroke="#C9C9C9" stroke-width="1.5" stroke-linecap="round" stroke-linejoin="round"/>
<path d="M1120.39 92.9629H1137.9" stroke="#C9C9C9" stroke-width="1.5" stroke-linecap="round" stroke-linejoin="round"/>
<path d="M1211.4 92.9625L1186.58 93.7125V83.8875H1169.93C1169.93 81.7875 1169.32 80.5125 1168.27 79.6875L1153.91 68.25L1139.59 79.6875C1138.54 80.5125 1137.94 81.7875 1137.94 83.1375V92.9625" stroke="#C9C9C9" stroke-width="1.5" stroke-linecap="round" stroke-linejoin="round"/>
<path d="M1144.73 92.9625V82.875H1161.68V92.9625" stroke="#C9C9C9" stroke-width="1.5" stroke-linecap="round" stroke-linejoin="round"/>
<path d="M1506.41 100.313V92.9629H1510.8V100.313" stroke="#C9C9C9" stroke-width="1.5" stroke-linecap="round" stroke-linejoin="round"/>
</g>
<defs>
<clipPath id="clip0">
<rect y="24" width="1640.78" height="105.713" fill="white"/>
</clipPath>
</defs>
</svg>
