<svg width="74" height="11" fill="none" xmlns="http://www.w3.org/2000/svg"><g clip-path="url(#clip0)" fill="#FFF"><path d="M32.743 5.856l-.689 2.638c-.144.014-.326.036-.609.036-1.352 0-1.201-.424-.631-2.722.593-2.39.938-2.825 1.782-2.825.812 0 .819.57.612 1.291h2.06c.335-1.346.112-2.54-2.298-2.54-2.684 0-3.413.59-4.277 4.074-.806 3.245-.541 4.105 2.36 4.105 1.375 0 1.952-.105 2.79-.264l.97-3.793h-2.07zm4.916 2.602c-.268 0-.362-.085-.311-.311l.467-1.908h2.758l.31-1.252h-2.758l.313-1.273c.083-.332.31-.615.754-.615H41.4l.311-1.253h-3.209c-1.33 0-1.73.248-2.248 2.334l-.953 3.815c-.292 1.281.073 1.838 1.077 1.838h2.769c.544 0 .896-.302 1.065-.765l.227-.61h-2.78zm31.541 0c-.268 0-.362-.085-.311-.311l.467-1.908h2.758l.31-1.252h-2.757l.313-1.273c.083-.332.31-.615.753-.615h2.208l.31-1.253h-3.207c-1.332 0-1.731.248-2.25 2.334l-.951 3.815c-.293 1.281.072 1.838 1.076 1.838h2.77c.544 0 .895-.302 1.064-.765l.227-.61H69.2zm-45.414.01h-.566l1.332-5.367c.172-.001.236-.008.66-.008 1.197 0 1.195.412.624 2.712-.577 2.328-.912 2.664-2.05 2.664zm1.769-6.622h-2.76l-1.923 7.747c-.033.133.041.24.166.24h2.458c3.088 0 3.608-.615 4.455-4.028.736-2.964.283-3.959-2.396-3.959zm38.613-.015c-1.59 0-2.33.035-2.764.015l-1.923 7.747c-.034.133.04.24.165.24h1.845l1.67-6.732c.171-.001.43-.016.692-.016.896 0 1.014.332.777 1.284l-1.297 5.224c-.033.133.041.24.166.24h1.844L66.7 4.369c.47-1.893-.328-2.538-2.531-2.538zm-15.975.015l-.318 1.298h2.049c.02 0 .02.027.002.042-.327.255-.527.622-.622 1.004L47.96 9.594c-.033.132.042.24.166.24h1.98l1.664-6.69h1.014c.57 0 .916-.249 1.109-.767l.194-.53h-5.894zM19.48 9.833l1.923-7.747c.033-.132-.041-.24-.166-.24h-1.95l-1.923 7.747c-.033.133.042.24.166.24h1.95zm36.072-1.23c-.885 0-1.016-.337-.399-2.827.515-2.071 1.005-2.793 1.794-2.793.885 0 .983.495.412 2.793-.564 2.277-1.123 2.826-1.807 2.826zm1.704-6.867c-2.321 0-3.328.43-4.24 4.104-.79 3.183-.157 4.104 2.203 4.104 2.402 0 3.35-.515 4.24-4.104.646-2.598.514-4.104-2.203-4.104zM2.01 5.9l1.201-4.387C3.327 1.062 3.806.65 4.29.65h3.672c.062 0 .081.084.034.118-1.91 1.361-4.213 3.381-5.882 5.19A.06.06 0 012.01 5.9M4.912 8.534L6.1 4.204c.018-.066-.05-.114-.1-.068C4.25 5.702 2.141 7.99.822 9.722c-.034.044-.017.111.04.111h5.145c2.169 0 3.356-.7 3.786-2.373.35-1.362-.335-2.291-1.429-2.531-.02-.005-.037-.043 0-.05.926-.164 1.86-.553 2.192-1.959C10.916 1.398 9.8.564 8.515.65L6.549 7.82c-.106.388-.505.714-.883.714h-.754zM16.09 6.631c-.069-.238-.143-.412-.252-.554-.014-.018-.017-.043.008-.051.881-.283 1.458-.863 1.702-1.846.323-1.299-.464-2.333-2.45-2.333h-2.95l-1.924 7.746c-.033.133.041.24.166.24h1.844l1.671-6.732c.179-.001.35-.008.774-.008.71 0 .973.457.82 1.074-.201.812-.806 1.269-1.524 1.269h-.272L14.47 9.3c.09.377.273.532.688.532h1.647l-.716-3.202zm25.1.497c-.781 1.945.237 2.826 2.31 2.826 1.893 0 2.944-.469 3.394-2.282.154-.62.055-1.29-.31-1.703-.709-.801-2.07-.951-2.548-1.416-.243-.237-.241-.567-.17-.852.129-.523.466-.807 1.012-.807.856 0 .877.548.667 1.199h1.836c.432-1.36-.134-2.425-2.297-2.425-1.819 0-2.8.745-3.154 2.17-.097.39-.06 1.028.164 1.428.499.891 1.823 1.002 2.555 1.533.318.23.329.542.244.884-.165.665-.486.982-1.124.982-.614 0-.982-.372-.631-1.537h-1.949z"/></g><defs><clipPath id="clip0"><path fill="#FFF" d="M.563.388h72.933v9.818H.563z"/></clipPath></defs></svg>
