<svg width="71" height="14" fill="none" xmlns="http://www.w3.org/2000/svg"><g clip-path="url(#clip0)" fill="#FFF"><path d="M70.226 10.205H60.8v-.327h9.425v.327zm-4.697-1.829l.895-.882.351.36-.958.816c-.064.098-.128.261-.192.36h-.703c.113-.29.33-.524.607-.654zm-3.003-5.551c-.032 0-.735.196-.735.196a4.455 4.455 0 00-.479.228c-.16.098-.32.262-.32.36l.64.163a2.46 2.46 0 01.287-.294l.16-.065.51-.555c.033-.033.033-.066-.079-.033h.016zm4.313 1.763a14.516 14.516 0 01-1.086-1.371c.24-.61.328-1.273.255-1.927-.13-.24-.28-.47-.447-.686-.064-.098-.351-.424-.48-.424-.031 0-.063 0-.063.033l.032.359c-.415.261-.895.588-1.31.914-.008.132.003.264.032.392.067.056.143.1.224.13a8.01 8.01 0 01.862-.163l-.543.817-.639.457-.767-.261c-.063 0-.095 0-.127.032l-.575.62a.17.17 0 00-.064.131l-.032.686v.229c-.01.269.068.533.223.75l.352-.555a1.431 1.431 0 01-.16-.391v-.588l.351-.261.959.685c.145.278.317.54.511.784.426.38.886.72 1.374 1.012.04.256.105.508.192.751l1.15 1.209-.671.881a.848.848 0 00-.317.299.872.872 0 00-.13.42h.798l.096-.458.959-1.077c.064-.065.064-.098.031-.163l-.255-.915c.243-.282.388-.637.415-1.012 0-.882-.862-1.11-1.15-1.355v.016zm1.438 1.437a4.327 4.327 0 00-.224-.62s.032-.033.128 0c.096.032.575.391.575.391.256.36.415 1.927.415 2.482a2.785 2.785 0 01-.766-.49l-.128-1.763zM43.803 5.667c0-.588-.192-1.045-.671-1.045-.48 0-.703.457-.703 1.045v3.886h.575v.62h-3.227v-.62h.607V4.197h-.607v-.604h2.524v1.013h.032c.142-.34.378-.628.68-.831a1.815 1.815 0 011.014-.312c.398-.025.79.102 1.103.355.312.253.522.615.59 1.016.062.356.094.716.096 1.078v3.657h.767v.62H43.77l.032-4.539v.017zM30.736 5.65c0-.587-.192-1.044-.671-1.044-.48 0-.703.457-.703 1.044v3.886h.575v.62H26.71v-.62h.607V4.197h-.607v-.604h2.524v1.013h.032c.142-.34.378-.628.68-.831a1.815 1.815 0 011.014-.312c.398-.025.79.102 1.103.355.312.253.522.615.59 1.016.062.356.094.716.096 1.078v3.657h.767v.62h-2.812l.032-4.539zm18.626-1.469v4.865a.399.399 0 00.11.312.382.382 0 00.305.113c.13-.003.26-.025.384-.065v.587c-.385.2-.816.291-1.246.262-.99 0-1.598-.49-1.598-1.568v-4.49h-.67v-.424c.766-.62 1.66-1.339 2.364-1.927h.383v1.747h.974v.588h-1.006zm-40.287-4s1.565 1.6 2.268 2.416v.62A4.938 4.938 0 008.02 1.88c-2.907 0-4.728 2.253-4.728 5.029 0 2.775 1.725 4.996 4.728 4.996a4.495 4.495 0 001.825-.371 4.579 4.579 0 001.53-1.082v.587c-.895 1.274-2.556 2.09-4.633 2.09C3.036 13.161.48 10.418.48 6.924a6.435 6.435 0 01.492-2.422 6.323 6.323 0 011.363-2.044 6.168 6.168 0 012.028-1.352 6.061 6.061 0 012.38-.452 7.28 7.28 0 012.332.392V.181zm29.744 8.261a1.721 1.721 0 01-.632.48 1.686 1.686 0 01-.774.14c-.575 0-1.501-.326-1.533-1.86h3.45c0-.131.032-.36.032-.49 0-1.862-.735-3.233-2.684-3.233-1.948 0-2.939 1.535-2.939 3.429s.99 3.396 2.94 3.396a2.593 2.593 0 001.49-.376c.449-.273.809-.677 1.033-1.16l-.383-.326zm-2.971-1.894c0-1.73.127-2.383.703-2.383.575 0 .703.62.734 2.383h-1.437zM7.38 6.875c0-2.025.192-2.906.863-2.906.67 0 .863.881.863 2.906 0 2.025-.192 2.906-.863 2.906-.67 0-.863-.881-.863-2.906zm-2.396.033c0 1.992 1.182 3.624 3.259 3.624s3.259-1.632 3.259-3.624c0-1.992-1.182-3.641-3.259-3.641S4.985 4.899 4.985 6.89v.017zM16.04 5.65c0-.587-.191-1.044-.67-1.044-.48 0-.703.457-.703 1.044v3.886h.559v.62h-3.211v-.62h.607V4.197h-.607v-.604h2.524v1.013h.032c.142-.34.378-.628.679-.831a1.815 1.815 0 011.014-.312c.398-.025.79.102 1.103.355.313.253.523.615.59 1.016.063.356.095.716.096 1.078v3.657h.767v.62h-2.811V5.667l.032-.017zm7.317-3.82c0 .588.51.98 1.246.98.735 0 1.246-.392 1.246-.98s-.511-.98-1.246-.98-1.246.425-1.246.98zm-1.757 2.351v4.865a.4.4 0 00.11.312.383.383 0 00.305.113c.13-.003.26-.025.383-.065v.587c-.384.2-.815.291-1.246.262-.99 0-1.597-.49-1.597-1.568v-4.49h-.671v-.424c.767-.62 1.661-1.339 2.364-1.927h.368v1.747h.798v.588H21.6zm37.7 5.388h.798v.62h-2.844V1.781h-.703v-.62h2.764v8.424l-.016-.016zm-5.464-2.645a.601.601 0 00-.447-.13c-.607 0-.735.62-.735 1.24s.191 1.11.703 1.11a.551.551 0 00.479-.196V6.924zm.064 2.482a1.99 1.99 0 01-.731.68 1.94 1.94 0 01-.962.234c-1.055 0-1.694-.914-1.694-2.025 0-1.306.927-2.155 2.396-2.155.314-.011.628.033.927.13v-.424a1.141 1.141 0 00-.316-.885 1.09 1.09 0 00-.866-.323c-.289 0-.573.072-.829.209a1.811 1.811 0 00-.64.575l-.352-.457c.268-.45.643-.823 1.09-1.085a3.02 3.02 0 011.466-.417c1.565 0 2.492.947 2.492 2.383V9.57h.67v.62h-2.62l-.031-.783zm-30.895.783v-.62h.575V4.197h-.575v-.604h2.62V9.57h.607v.62h-3.227z"/></g><defs><clipPath id="clip0"><path fill="#FFF" d="M.207 0h70.287v13.388H.207z"/></clipPath></defs></svg>
