<svg width="80" height="16" fill="none" xmlns="http://www.w3.org/2000/svg"><g clip-path="url(#clip0)"><path d="M67.29 14.258H3.378l-.514 1.405h63.91l.518-1.405zM40.983 5.885c-1.654.338-3.895 1.549-3.872 3.76.014 1.274 1.56 1.982 3.331 1.932.691-.026 1.38-.103 2.06-.229l.657-1.702c-.87.137-1.706.345-2.362.084-1.182-.471-.454-1.696.382-2.076.46-.216.963-.323 1.471-.315.25 0 .86.015 1.097.552l.827-1.974c-1.42-.353-2.848-.186-3.59-.032zm8.966-.052l-.753 2.024h-1.372l.749-2.024h-2.604l-2.07 5.62h2.596l.709-1.903h1.377l-.708 1.903h2.6l2.074-5.624-2.598.004zm-15.497 0l-2.078 5.62h2.732l2.075-5.62h-2.73zm-5.433 0l-1.993 3.018s.126-1.579.159-1.959c.023-.29-.012-1.059-.72-1.059h-3.163l-2.075 5.62h2.475l1.503-4.066-.311 4.065h2.198L29.79 7.46l-1.473 3.993h2.492l2.076-5.619h-3.866zm48.191 0l-1.416 3.851c.019-.388.101-1.922.145-2.806.019-.364-.06-.641-.234-.826a.753.753 0 00-.497-.225h-3.179l-2.077 5.622h2.307l1.472-3.983-.175 3.98h3.864l2.076-5.62-2.285.007zm-9.541 0l-2.07 5.615h2.732l2.074-5.619-2.736.004zM56.122 7.297h3.116l.548-1.473H54.09l-2.077 5.62h5.76l.559-1.513h-3.181l.232-.625h2.967l.506-1.383h-2.96l.226-.626zm7.832-1.473h-2.657l-2.079 5.62h5.336l.69-1.867h-2.68l1.39-3.753z" fill="#FFF"/><path d="M.452 3.836l.006.014.043.101c.166.409.355.808.566 1.196.118.217.258.422.416.612a2.166 2.166 0 00-.328.721c-.074.395-.04.802.101 1.179.058.169.133.331.224.485a.26.26 0 00-.009.04 2.287 2.287 0 00.937 2.136c.109.082.224.154.345.217.115.331.327.622.607.834.207.16.437.287.683.375v.007c.285.39.697.667 1.166.786.125.035.252.06.38.076a.196.196 0 00.02.022c.26.243.574.419.918.513-.056.372-.022.752.1 1.109h13.527a2.414 2.414 0 00-.357-1.282.194.194 0 00-.021-.028 2.557 2.557 0 00-.457-1.833 2.573 2.573 0 00-1.802-1.056h-.028a5.617 5.617 0 00-1.672-1.12c.008-.036.015-.071.023-.1l.028-.01c.731-.325 1.163-.86 1.265-1.562a2.304 2.304 0 00-.405-1.6v-.017c.075-.75-.039-1.406-.337-1.946a2.33 2.33 0 00-1.04-.99h-.005c-.12-.404-.636-.706-1.187-.696-.436.012-.911.215-1.088.548-.662.237-1.69.852-2 2.406a2.066 2.066 0 00-.442 2.885c.05.068.105.133.164.195a9.85 9.85 0 00-1.907.202l-.024.006a2.612 2.612 0 00-2.125-.416.218.218 0 00-.077.038 3.867 3.867 0 00-.652-.132h-.043a2.135 2.135 0 00-.525-.879c-.012-.012-.04-.034-.04-.036a5.127 5.127 0 00-.135-.605 1.796 1.796 0 00-.495-.817 1.953 1.953 0 00-.563-.388 1.379 1.379 0 00.065-.235c0-.007.079-.758.169-1.204v-.016c.245-1.532.245-1.55.25-1.571v-.01a.492.492 0 00-.134-.372.668.668 0 00-.492-.202.785.785 0 00-.672.383 2.064 2.064 0 00-.203.459c-.252-.495-.59-1.145-.83-1.616L2.347.617a.637.637 0 00-.776-.259.633.633 0 00-.415-.152.744.744 0 00-.23.04A.624.624 0 00.5.861a.607.607 0 00-.395.46.795.795 0 00.028.38l-.019.028c-.152.236-.23.67.338 2.106z" fill="#FFF"/><path d="M19.715 14.255h-.535c.174-.206.314-.438.417-.687.08.22.12.453.117.687M10.908 8.486c.107.008.213.028.315.06.203.076.595.454.81.487.037 0 .136-.02.03-.095-.03-.02-.278-.24-.186-.355A.11.11 0 0112 8.537c.31.077.57.12.658.134.055.008.094.01.117-.01.022-.02.006-.032-.055-.05-.48-.128-1.012-.333-1.378-.61a1.715 1.715 0 01-.684-1.576 1.65 1.65 0 01.644-1.102c.136-.086.283-.153.437-.201.174-.063-.112-.108-.132-.112-.073-.013-.077-.087-.017-.315a2.549 2.549 0 011.675-1.736c.126-.04.253-.072.382-.096.168-.025.101-.101-.087-.123 0 0-.065 0-.033-.046a.472.472 0 01.096-.083c.167-.1.357-.155.551-.16.392-.01.73.208.77.409 0 0 .013.04-.034.042-.075 0-.136.034-.033.086.025.012.129.043.276.11l.021.012c.296.137 1.214.694 1.147 2.269 0 .047-.006.094-.009.14-.003.047-.009.088-.014.13-.086-.01-.124.027-.063.09.083.086.156.18.22.281.216.364.306.79.255 1.21a1.484 1.484 0 01-.772 1.11c-.304.167-.63.29-.97.367-.091.022-.048.14.379.134.037 0 .114.009.137.05.05.093-.036.272-.222.381-.16.094-.032.114.19.047.09.008.177.031.258.068a5.077 5.077 0 011.956 1.547c.474.678.646 1.21.497 1.546-.148.335-.572.385-.575.385h-.007c-1.653.256-4.522-.196-6.5-.777a11.88 11.88 0 01-1.328-.488 2.754 2.754 0 00-.45-2.939l-.029-.031a9.392 9.392 0 011.63-.133" fill="#FE5F10"/><path d="M19 11.421a2.122 2.122 0 01-.381 2.801c.01-.39-.059-.845-.347-1.21a.98.98 0 00.292-.37c.219-.489.038-1.153-.538-1.977l-.038-.049c.416.157.771.439 1.017.807M8.978 8.939c.66.742.772 1.871.264 2.686-.569.914-1.589 1.366-2.538 1.124a1.984 1.984 0 01-.388-.14c.09-.014.18-.033.268-.056.934-.252 1.63-1.11 1.735-2.137a2.465 2.465 0 00-.506-1.78 2.122 2.122 0 00-.47-.436 2.233 2.233 0 011.634.739" fill="#FE5F10"/><path d="M7.478 8.91c.324.417.473.942.417 1.466-.086.848-.655 1.556-1.416 1.762a2.088 2.088 0 01-1.678-.255 2.32 2.32 0 002.115-1.585 2.18 2.18 0 00-.033-1.42 2.082 2.082 0 00-.323-.573c.358.104.676.316.91.605" fill="#FE5F10"/><path d="M6.02 8.932c.035-.173.05-.349.048-.525a1.713 1.713 0 01.436 1.759c-.284.878-1.223 1.436-2.093 1.242a1.911 1.911 0 01-1.056-.646c.46.1.939.053 1.37-.135a2.292 2.292 0 001.301-1.695" fill="#FE5F10"/><path d="M5.373 7.487c.239.412.317.898.22 1.364a1.798 1.798 0 01-1.138 1.417 1.813 1.813 0 01-1.797-.289 1.9 1.9 0 01-.775-1.325c.044.04.09.076.138.11.355.25.78.382 1.215.375a2.22 2.22 0 00.576-.072c.795-.224 1.185-.7 1.372-1.06.085-.163.147-.337.186-.517" fill="#FE5F10"/><path d="M.48 1.953l.017-.012a.138.138 0 01.052-.03h.077a.183.183 0 01.04.01c.126.045.218.201.248.424.049.381.183.747.394 1.069a.095.095 0 00.138.03.095.095 0 00.016-.14 2.388 2.388 0 01-.36-.98c-.04-.296-.174-.504-.37-.577a.382.382 0 00-.142-.028 1.073 1.073 0 01-.058-.156c-.02-.081-.056-.242.125-.303l.034-.01h.016c.13-.016.304.043.473.651.126.399.305.778.533 1.129a.094.094 0 00.158-.101 4.594 4.594 0 01-.506-1.074c-.074-.262-.178-.548-.355-.694-.026-.064-.054-.136-.06-.16C.918.913.886.712 1.06.656a.305.305 0 01.094-.017.274.274 0 01.24.201c0 .013.011.026.018.04l.776 1.848a.074.074 0 00.024.033.087.087 0 00.143-.042.086.086 0 00-.005-.058L1.594.868A.165.165 0 011.68.779a.266.266 0 01.123-.036.21.21 0 01.171.094s1.003 1.965 1.19 2.304a1.89 1.89 0 00-.148.284c-.013.05.02.096.045.048a3.13 3.13 0 01.21-.27c.047-.084.194-.474.252-.597.044-.202.118-.397.22-.578a.363.363 0 01.304-.182c.113 0 .202.057.202.116 0 .026-.246 1.542-.246 1.542-.058.316-.116.77-.148 1.038-.002.064-.009.128-.02.19v.012a1.969 1.969 0 01-.15.44l.077.367c.032.152.066.315.08.365.057.201-.017.324.02.366.053.057.18-.216.214-.357.011-.17-.007-.34-.054-.504.16.073.305.173.43.296.185.171.318.39.386.633.074.236.124.48.149.725 0 .195-.062 1.229-1.289 1.572a1.778 1.778 0 01-.455.057 1.623 1.623 0 01-.961-.303c-.593-.42-.825-1.339-.709-1.825.048-.19.127-.37.234-.533.055.033.113.06.174.08l.036.168c0 .02.1.487.281.63.1.06.216.092.333.089.054 0 .182-.006.202-.062a.05.05 0 00-.014-.056.253.253 0 00-.057-.035c-.087-.048-.25-.135-.284-.294-.02-.09-.094-.403-.138-.59.183-.144.203-.302-.036-.253a.467.467 0 01-.382-.113C1.442 5.191.945 3.91.845 3.682.44 2.654.353 2.102.48 1.948M6.95 13.232c.09.01.18.016.27.016.893 0 1.764-.47 2.317-1.278a12 12 0 001.417.521c1.148.332 2.32.574 3.506.726.665.09 1.336.136 2.007.141.393.003.786-.023 1.175-.078.077-.012.153-.03.227-.056.268.282.321.69.304 1.034H7.095a1.774 1.774 0 01-.143-1.027" fill="#FE5F10"/><path d="M12.863 6.41c-.01-.038-.058-.038-.074-.038a.424.424 0 00-.138.029.312.312 0 00-.194.259c0 .012.005.023.013.031a.05.05 0 00.04.016.037.037 0 00.036-.036.153.153 0 01.044-.088.384.384 0 01.22-.1c.024-.007.06-.026.05-.063" fill="#FFF"/><path d="M14.59 7.303a.994.994 0 01-.377.034 1.077 1.077 0 01-.363-.091 1.179 1.179 0 01-.328-.244c.454.118.925.159 1.393.12a1.03 1.03 0 01-.324.181zm.987-.605c-.046 0-.058.034-.04.05a.11.11 0 01.018.019l-.046.026a1.582 1.582 0 01-.33.109c-.28.057-.566.072-.85.045a4.493 4.493 0 01-1.36-.322l-.115-.05c-.019-.008-.037-.02-.056-.027a.096.096 0 00-.12.056.1.1 0 00.063.127c.116.058.237.107.361.149a.915.915 0 01.265.224c.097.102.207.19.328.262.24.13.517.18.787.138.136-.02.267-.067.384-.138.084-.055.164-.115.24-.18.046-.037.094-.07.145-.1.03-.018.243-.102.356-.167 0 .04 0 .074.024.079.024.005.056-.05.066-.095a.201.201 0 00-.011-.118.15.15 0 00-.102-.077M13.01 5.12c.016-.176.119-.726.56-.682.336.034.426.28.451.496v.03a1.05 1.05 0 01-.15.652.393.393 0 01-.268.212h-.025a.646.646 0 00.287-.52c.03-.324-.125-.605-.347-.623a.346.346 0 00-.285.134.202.202 0 01.105.302.203.203 0 01-.094.077.155.155 0 01-.146-.126.86.86 0 00-.032.167.704.704 0 00.125.494.311.311 0 01-.036-.036.74.74 0 01-.14-.366 1.073 1.073 0 01-.007-.213l.002.002zm.05.652c.048.059.11.103.182.128a.71.71 0 00.193.04c.058.005.116.008.174.008.271-.011.527-.427.536-.833.008-.37-.042-.655-.31-.82a.61.61 0 00-.451-.058.543.543 0 00-.32.259 1.354 1.354 0 00-.151.41 1.263 1.263 0 00-.02.44.865.865 0 00.168.427M15.742 5.482a1.093 1.093 0 01-.061.202.743.743 0 01-.223.315.289.289 0 01-.123.05.667.667 0 00.271-.512c.03-.324-.121-.605-.337-.622a.339.339 0 00-.28.131.172.172 0 01.146.18.174.174 0 01-.136.203.152.152 0 01-.143-.126.858.858 0 00-.031.168.681.681 0 00.15.53.444.444 0 01-.161-.255.936.936 0 01-.034-.167 1.012 1.012 0 01.06-.496l.008-.029c.078-.201.225-.414.548-.363.424.069.38.622.35.794l-.004-.003zm.105-.608a.536.536 0 00-.233-.33.58.58 0 00-.345-.075.482.482 0 00-.092.019c-.293.092-.41.352-.498.706-.095.39.039.853.289.931.054.015.109.027.165.036a.67.67 0 00.19.01.412.412 0 00.202-.076.86.86 0 00.264-.368c.056-.136.087-.28.093-.427a1.343 1.343 0 00-.036-.43" fill="#FFF"/></g><defs><clipPath id="clip0"><path fill="#FFF" d="M0 .206h79.496v15.458H0z"/></clipPath></defs></svg>
