<svg width="49" height="12" fill="none" xmlns="http://www.w3.org/2000/svg"><g clip-path="url(#clip0)" fill-rule="evenodd" clip-rule="evenodd" fill="#FFF"><path d="M7.629 11.183h2.913V5.84H7.63v5.343zM44.824 11.183h2.914V5.84h-2.914v5.343z"/><path d="M46.439.966H.91V11.16h5.042V4.756l40.487.001c1.032 0 1.868-.848 1.868-1.895 0-1.048-.836-1.896-1.868-1.896zm-5.593 2.498H5.952V2.256l34.894.004c.328 0 .594.27.594.603a.598.598 0 01-.594.603z"/><path d="M19.671 9.266c.595-.273.972-.881.972-1.587 0-.962-.746-1.838-2.016-1.838h-5.994v5.343h2.913V9.46h.952l.878 1.724h3.268l-.973-1.918zm-2.463-1.1h-1.662V7.035l1.662.005c.307 0 .555.252.555.563a.56.56 0 01-.555.563zM22.473 11.183h6.424V9.99h-3.511v-.787h3.51V7.915h-3.51v-.787h3.51V5.84h-6.423v5.343zM33.792 5.84H30.88v5.343h5.863V9.99h-2.95V5.84zM40.66 5.84h-2.914v5.343h5.864V9.99h-2.95V5.84z"/></g><defs><clipPath id="clip0"><path fill="#FFF" d="M.613.664h47.882v10.71H.613z"/></clipPath></defs></svg>
