<?xml version="1.0" encoding="utf-8"?><svg xmlns="http://www.w3.org/2000/svg" xmlns:xlink="http://www.w3.org/1999/xlink"><symbol fill="currentColor" viewBox="0 0 14 17" id="steer--account" xmlns="http://www.w3.org/2000/svg"><path fill-rule="evenodd" clip-rule="evenodd" d="M5 4a2 2 0 114 0 2 2 0 01-4 0zm2-4a4 4 0 100 8 4 4 0 000-8zM2 16a5 5 0 0110 0 1 1 0 102 0 7 7 0 10-14 0 1 1 0 102 0z"/></symbol><symbol fill="none" viewBox="0 0 30 29" id="steer--all-season" xmlns="http://www.w3.org/2000/svg"><path d="M16 28.076V24.93l.032-20.984V.802c0-.449.353-.802.802-.802.45 0 .802.353.802.802v3.145l2.728-1.573a.792.792 0 011.09.29.792.792 0 01-.288 1.09l-3.53 2.054v7.251l6.257-3.593V5.39c0-.45.353-.803.802-.803.45 0 .803.353.803.803v3.144l2.727-1.572a.792.792 0 011.09.289.792.792 0 01-.288 1.09L26.3 9.915l2.727 1.572a.792.792 0 01.289 1.09.805.805 0 01-.706.386.854.854 0 01-.385-.096l-3.53-2.054-6.256 3.626 6.224 3.658 3.53-2.054a.791.791 0 011.09.289.792.792 0 01-.288 1.091l-2.727 1.572 2.727 1.572a.792.792 0 01.289 1.091.805.805 0 01-.706.385.855.855 0 01-.385-.096l-2.728-1.572v3.144c0 .45-.352.803-.802.803a.794.794 0 01-.802-.803v-4.075l-6.257-3.625v7.251l3.53 2.054a.792.792 0 01.289 1.09.805.805 0 01-.706.386.855.855 0 01-.385-.097l-2.728-1.572v3.145c0 .449-.353.802-.802.802a.794.794 0 01-.802-.802zM14.142 14.142v7.615a7.615 7.615 0 110-15.23v7.615z" fill="currentColor"/><path stroke="currentColor" stroke-width="2" stroke-linecap="round" d="M13.505 4.078V1.002M8.395 5.491L6.876 2.815M4.603 9.299L1.875 7.877M4.958 19.357l-2.729 1.42M8.57 23.238l-1.672 2.583M13.7 24.84l-.002 3.077M4.076 14.41H1"/></symbol><symbol fill="currentColor" viewBox="0 0 12 14" id="steer--arrow-down" xmlns="http://www.w3.org/2000/svg"><path fill-rule="evenodd" clip-rule="evenodd" d="M6 0a1 1 0 011 1v9.586l3.293-3.293a1 1 0 111.414 1.414l-5 5a1 1 0 01-1.414 0l-5-5a1 1 0 011.414-1.414L5 10.586V1a1 1 0 011-1z"/></symbol><symbol fill="currentColor" viewBox="0 0 14 12" id="steer--arrow-left" xmlns="http://www.w3.org/2000/svg"><path fill-rule="evenodd" clip-rule="evenodd" d="M6.707.293a1 1 0 010 1.414L3.414 5H13a1 1 0 110 2H3.414l3.293 3.293a1 1 0 11-1.414 1.414l-5-5a1 1 0 010-1.414l5-5a1 1 0 011.414 0z"/></symbol><symbol fill="currentColor" viewBox="0 0 14 12" id="steer--arrow-right" xmlns="http://www.w3.org/2000/svg"><path fill-rule="evenodd" clip-rule="evenodd" d="M7.293.293a1 1 0 011.414 0l5 5a1 1 0 010 1.414l-5 5a1 1 0 01-1.414-1.414L10.586 7H1a1 1 0 010-2h9.586L7.293 1.707a1 1 0 010-1.414z"/></symbol><symbol fill="currentColor" viewBox="0 0 12 14" id="steer--arrow-up" xmlns="http://www.w3.org/2000/svg"><path fill-rule="evenodd" clip-rule="evenodd" d="M5.293.293a1 1 0 011.414 0l5 5a1 1 0 01-1.414 1.414L7 3.414V13a1 1 0 11-2 0V3.414L1.707 6.707A1 1 0 01.293 5.293l5-5z"/></symbol><symbol fill="none" viewBox="0 0 15 12" id="steer--checkmark" xmlns="http://www.w3.org/2000/svg"><path fill="currentColor" d="M13.137 0c-.364.014-.71.167-.963.43-2.681 2.687-4.73 4.93-7.218 7.472l-2.652-2.24A1.402 1.402 0 10.502 7.806l3.64 3.08a1.399 1.399 0 001.89-.08c3.016-3.021 5.163-5.435 8.12-8.4A1.4 1.4 0 0013.137 0z"/></symbol><symbol fill="currentColor" viewBox="0 0 12 7" id="steer--chevron-down" xmlns="http://www.w3.org/2000/svg"><path fill-rule="evenodd" clip-rule="evenodd" d="M.293.293a1 1 0 011.414 0L6 4.586 10.293.293a1 1 0 111.414 1.414l-5 5a1 1 0 01-1.414 0l-5-5a1 1 0 010-1.414z"/></symbol><symbol fill="currentColor" viewBox="0 0 7 12" id="steer--chevron-left" xmlns="http://www.w3.org/2000/svg"><path fill-rule="evenodd" clip-rule="evenodd" d="M6.707.293a1 1 0 010 1.414L2.414 6l4.293 4.293a1 1 0 11-1.414 1.414l-5-5a1 1 0 010-1.414l5-5a1 1 0 011.414 0z"/></symbol><symbol fill="currentColor" viewBox="0 0 7 12" id="steer--chevron-right" xmlns="http://www.w3.org/2000/svg"><path fill-rule="evenodd" clip-rule="evenodd" d="M.293.293a1 1 0 011.414 0l5 5a1 1 0 010 1.414l-5 5a1 1 0 01-1.414-1.414L4.586 6 .293 1.707a1 1 0 010-1.414z"/></symbol><symbol fill="currentColor" viewBox="0 0 12 7" id="steer--chevron-up" xmlns="http://www.w3.org/2000/svg"><path fill-rule="evenodd" clip-rule="evenodd" d="M5.293.293a1 1 0 011.414 0l5 5a1 1 0 01-1.414 1.414L6 2.414 1.707 6.707A1 1 0 01.293 5.293l5-5z"/></symbol><symbol fill="currentColor" viewBox="0 0 16 16" id="steer--clear-input" xmlns="http://www.w3.org/2000/svg"><path fill-rule="evenodd" clip-rule="evenodd" d="M8 16A8 8 0 108 0a8 8 0 000 16zM6.03 4.97a.75.75 0 00-1.06 1.06L6.94 8 4.97 9.97a.75.75 0 101.06 1.06L8 9.06l1.97 1.97a.75.75 0 101.06-1.06L9.06 8l1.97-1.97a.75.75 0 10-1.06-1.06L8 6.94 6.03 4.97z"/></symbol><symbol fill="currentColor" viewBox="0 0 12 12" id="steer--close" xmlns="http://www.w3.org/2000/svg"><path fill-rule="evenodd" clip-rule="evenodd" d="M.293.293a1 1 0 011.414 0L6 4.586 10.293.293a1 1 0 111.414 1.414L7.414 6l4.293 4.293a1 1 0 01-1.414 1.414L6 7.414l-4.293 4.293a1 1 0 01-1.414-1.414L4.586 6 .293 1.707a1 1 0 010-1.414z"/></symbol><symbol fill="currentColor" viewBox="0 0 9 18" id="steer--facebook" xmlns="http://www.w3.org/2000/svg"><path d="M8.41 10.125l.467-3.258H5.959V4.753c0-.89.408-1.76 1.714-1.76H9V.22S7.796 0 6.645 0C4.242 0 2.671 1.56 2.671 4.385v2.482H0v3.258h2.671V18H5.96v-7.875H8.41z"/></symbol><symbol fill="none" viewBox="0 0 23 30" id="steer--fire" xmlns="http://www.w3.org/2000/svg"><path d="M18.92 8.328a.585.585 0 00-.732-.21.598.598 0 00-.333.69c.297 1.237.231 2.653.047 3.89-.523-1.37-1.433-2.598-2.422-3.931l-.441-.588c-1.672-2.28-.31-7.368-.297-7.417a.594.594 0 00-.202-.63.582.582 0 00-.649-.06c-.32.174-7.42 4.097-8.046 11.526-.37-.559-.69-1.411-.6-2.623a.608.608 0 00-.376-.606.596.596 0 00-.678.174c-.207.252-5.027 6.192-4.064 12.678.512 3.433 2.547 6.353 6.064 8.682.232.15.541.12.743-.072a.61.61 0 00.09-.75c-2.214-3.58-.541-6.869.572-8.436.214.643.619 1.387 1.38 1.993a.58.58 0 00.654.054.595.595 0 00.304-.583c0-.047-.375-4.428 2.964-6.54.077 1.5.417 4.32 1.869 5.982 2.588 2.976 1.643 5.724.399 7.5a.604.604 0 00.047.756.59.59 0 00.75.103c.249-.156 6.205-3.9 6.974-9.726.643-4.92-3.826-11.574-4.017-11.857z" fill="currentColor"/></symbol><symbol viewBox="0 0 122 20" id="steer--five-stars" xmlns="http://www.w3.org/2000/svg"><path d="M.55 9.025l4.074 2.958c.465.338.66.938.482 1.484L3.55 18.256c-.397 1.223 1.003 2.24 2.044 1.485l4.074-2.96a1.326 1.326 0 011.561 0l4.074 2.96c1.041.755 2.442-.262 2.045-1.485l-1.556-4.789a1.325 1.325 0 01.482-1.484l4.074-2.958c1.04-.757.506-2.403-.78-2.403H14.53c-.575 0-1.086-.37-1.263-.917L11.712.918c-.398-1.224-2.128-1.224-2.527 0L7.628 5.705a1.326 1.326 0 01-1.262.917H1.33c-1.287 0-1.82 1.646-.78 2.403zm25.105 0l4.074 2.958c.466.338.66.938.483 1.484l-1.557 4.789c-.397 1.223 1.003 2.24 2.045 1.485l4.074-2.96a1.326 1.326 0 011.56 0l4.075 2.96c1.04.755 2.441-.262 2.044-1.485l-1.556-4.789a1.325 1.325 0 01.483-1.484l4.073-2.958c1.04-.757.507-2.403-.78-2.403h-5.037c-.574 0-1.086-.37-1.263-.917L36.817.918c-.398-1.224-2.128-1.224-2.527 0l-1.556 4.787a1.326 1.326 0 01-1.263.917h-5.035c-1.287 0-1.821 1.646-.78 2.403zm25.109 0l4.075 2.958c.465.338.66.938.482 1.484l-1.556 4.789c-.398 1.223 1.003 2.24 2.044 1.485l4.074-2.96a1.326 1.326 0 011.56 0l4.075 2.96c1.041.755 2.442-.262 2.044-1.485l-1.555-4.789a1.324 1.324 0 01.482-1.484l4.073-2.958c1.04-.757.507-2.403-.78-2.403h-5.036c-.575 0-1.086-.37-1.263-.917L61.927.918c-.398-1.224-2.128-1.224-2.527 0l-1.557 4.787a1.326 1.326 0 01-1.262.917h-5.036c-1.287 0-1.82 1.646-.78 2.403zm25.106 0l4.074 2.958c.465.338.66.938.483 1.484l-1.557 4.789c-.397 1.223 1.003 2.24 2.044 1.485l4.075-2.96a1.326 1.326 0 011.56 0l4.075 2.96c1.04.755 2.441-.262 2.044-1.485l-1.556-4.789a1.324 1.324 0 01.483-1.484l4.073-2.958c1.04-.757.506-2.403-.78-2.403H89.85c-.575 0-1.086-.37-1.263-.917L87.032.918c-.398-1.224-2.128-1.224-2.527 0l-1.557 4.787a1.326 1.326 0 01-1.262.917h-5.035c-1.287 0-1.821 1.646-.781 2.403zm25.109 0l4.074 2.958c.466.338.661.938.483 1.484l-1.557 4.789c-.397 1.223 1.004 2.24 2.045 1.485l4.074-2.96a1.326 1.326 0 011.561 0l4.074 2.96c1.041.755 2.442-.262 2.044-1.485l-1.556-4.789a1.326 1.326 0 01.483-1.484l4.073-2.958c1.041-.757.507-2.403-.78-2.403h-5.036c-.575 0-1.087-.37-1.263-.917L112.142.918c-.398-1.224-2.129-1.224-2.528 0l-1.556 4.787a1.327 1.327 0 01-1.263.917h-5.035c-1.287 0-1.821 1.646-.781 2.403z"/></symbol><symbol fill="none" viewBox="0 0 25 25" id="steer--geolocation" xmlns="http://www.w3.org/2000/svg"><path d="M23 2l-9.51 21-1.44-9.78L2 11.688 23 2z" stroke="currentColor" stroke-width="3" stroke-linejoin="round"/></symbol><symbol fill="currentColor" viewBox="0 0 18 18" id="steer--instagram" xmlns="http://www.w3.org/2000/svg"><g clip-path="url(#arclip0)"><path d="M9 1.622c2.403 0 2.688.009 3.637.052.877.04 1.354.187 1.671.31.42.163.72.358 1.035.673.315.315.51.615.673 1.035.123.317.27.794.31 1.671.043.949.052 1.234.052 3.637s-.009 2.688-.052 3.637c-.04.877-.187 1.354-.31 1.671-.163.42-.358.72-.673 1.035-.315.315-.615.51-1.035.673-.317.123-.794.27-1.671.31-.949.043-1.234.052-3.637.052s-2.688-.009-3.637-.052c-.877-.04-1.354-.187-1.671-.31a2.791 2.791 0 01-1.035-.673 2.784 2.784 0 01-.673-1.035c-.123-.317-.27-.794-.31-1.671-.043-.949-.052-1.234-.052-3.637s.009-2.688.052-3.637c.04-.877.187-1.354.31-1.671.163-.42.358-.72.673-1.035.315-.315.615-.51 1.035-.673.317-.123.794-.27 1.671-.31.95-.043 1.234-.052 3.637-.052zM9 0C6.556 0 6.25.01 5.29.054 4.33.098 3.676.25 3.104.473A4.408 4.408 0 001.51 1.51c-.5.5-.808 1.002-1.037 1.594C.25 3.677.098 4.33.054 5.289.01 6.25 0 6.556 0 9s.01 2.75.054 3.71c.044.959.196 1.613.419 2.185.23.592.537 1.094 1.038 1.595.5.5 1.002.808 1.594 1.038.572.222 1.227.374 2.185.418C6.25 17.99 6.556 18 9 18c2.445 0 2.751-.01 3.711-.054.958-.044 1.612-.196 2.185-.418a4.409 4.409 0 001.594-1.038c.5-.501.808-1.003 1.038-1.595.223-.572.375-1.226.418-2.184.044-.96.055-1.267.055-3.711s-.01-2.75-.055-3.71c-.043-.959-.195-1.613-.418-2.185A4.408 4.408 0 0016.49 1.51 4.41 4.41 0 0014.896.472C14.323.25 13.669.098 12.71.054 11.75.01 11.444 0 9 0z"/><path d="M9 4.379a4.621 4.621 0 100 9.242A4.621 4.621 0 009 4.38zm0 7.62A3 3 0 119 6a3 3 0 010 6zM13.804 5.276a1.08 1.08 0 100-2.16 1.08 1.08 0 000 2.16z"/></g><defs><clipPath id="arclip0"><path d="M0 0h18v18H0V0z"/></clipPath></defs></symbol><symbol fill="currentColor" viewBox="0 0 18 18" id="steer--linkedin" xmlns="http://www.w3.org/2000/svg"><path d="M.378 6.283V17.5h3.744V6.283H.378zM10.125 17.5H6.372V8.818s-.061-2.154-.061-2.535h3.691l.123 1.551c.747-1.085 1.872-1.908 3.375-1.908 2.628 0 4.5 1.806 4.5 5.062V17.5h-3.753v-6.147c0-1.815-.914-2.535-2.039-2.535s-2.083.72-2.083 2.17V17.5zM2.232 4.477c1.39 0 2.268-.882 2.268-1.993C4.482 1.364 3.621.5 2.268.5.896.5 0 1.365 0 2.484c0 1.11.879 1.993 2.206 1.993h.026z"/></symbol><symbol fill="currentColor" viewBox="0 0 16 20" id="steer--location" xmlns="http://www.w3.org/2000/svg"><path fill-rule="evenodd" clip-rule="evenodd" d="M2.5 7.353C2.5 4.418 4.94 2 8 2s5.5 2.418 5.5 5.353c0 1.485-.726 3.436-1.927 5.473A27.573 27.573 0 018 17.572a27.294 27.294 0 01-3.605-4.777C3.207 10.773 2.5 8.84 2.5 7.353zM8 0C3.88 0 .5 3.27.5 7.353c0 2.02.918 4.324 2.169 6.454A29.277 29.277 0 007.3 19.715a1 1 0 001.398 0 29.384 29.384 0 004.598-5.873c1.259-2.137 2.203-4.465 2.203-6.49C15.5 3.272 12.12 0 8 0zm0 9.75a2.25 2.25 0 100-4.5 2.25 2.25 0 000 4.5z"/></symbol><symbol fill="none" viewBox="0 0 18 17" id="steer--mail" xmlns="http://www.w3.org/2000/svg"><path fill="currentColor" stroke="currentColor" d="M4.38 7.922l4.6 2.52c.153.1.358.1.511 0l4.601-2.52c.614-.303.102-1.21-.511-.857L9.236 9.434 4.89 7.014c-.613-.302-1.073.555-.51.908z"/><path fill="currentColor" stroke="currentColor" stroke-width=".5" d="M2.891 15.9H15.5c1.072 0 1.891-.808 1.891-1.864V6.08a1.83 1.83 0 00-1.071-1.678L9.447 1.047a.887.887 0 00-.567 0L2.072 4.465C1.378 4.775 1 5.397 1 6.08v7.955c0 1.056.82 1.864 1.891 1.864zm-.63-9.82c0-.248.126-.434.378-.559L9.195 2.29l6.556 3.231c.253.125.379.373.379.56v7.955c0 .372-.252.621-.63.621H2.89c-.378 0-.63-.249-.63-.621V6.08z"/></symbol><symbol fill="currentColor" viewBox="0 0 20 20" id="steer--main-search" xmlns="http://www.w3.org/2000/svg"><path fill-rule="evenodd" clip-rule="evenodd" d="M2.857 9.048a6.19 6.19 0 1112.38 0 6.19 6.19 0 01-12.38 0zM9.047 0a9.048 9.048 0 105.308 16.375l3.206 3.207a1.429 1.429 0 102.02-2.02l-3.206-3.207a9.007 9.007 0 001.72-5.307A9.047 9.047 0 009.047 0z"/></symbol><symbol fill="currentColor" viewBox="0 0 16 8" id="steer--menu" xmlns="http://www.w3.org/2000/svg"><path fill-rule="evenodd" clip-rule="evenodd" d="M1.5 0a1 1 0 100 2h13a1 1 0 100-2h-13zm0 6a1 1 0 000 2h13a1 1 0 100-2h-13z"/></symbol><symbol fill="none" viewBox="0 0 32 31" id="steer--performance" xmlns="http://www.w3.org/2000/svg"><path d="M30.734 12.55v.002c.331 1.653.331 3.307 0 5.13v.001c-1.324 8.109-9.103 13.409-17.218 12.084-6.294-1.16-11.258-5.962-12.251-12.25h0C-.06 9.402 5.405 1.621 13.515.296c8.112-1.324 15.729 4.14 17.22 12.254zm-3.488 9.876h0l.005-.008c1.342-2.18 2.182-4.698 2.182-7.385 0-6.55-4.869-12.258-11.251-13.266C10.959.591 4.076 5.63 2.9 13.017h0c-.504 3.19.168 6.549 2.014 9.403h0l.004.006c1.026 1.367 2.745 1.888 4.295 1.028a14.444 14.444 0 0113.737 0c1.55.86 3.27.339 4.295-1.028zm-9.65-7.797l-.03.029V15.032c0 .478-.159.868-.43 1.138-.27.27-.66.43-1.137.43s-.867-.16-1.137-.43-.43-.66-.43-1.138c0-.477.16-.867.43-1.137s.66-.43 1.137-.43H16.374l.03-.028 6.487-6.489c.147-.068.371-.106.6-.087.236.02.46.098.604.242a.706.706 0 010 1.025l-6.5 6.5z" fill="currentColor" stroke="#fff" stroke-width=".2"/></symbol><symbol fill="none" viewBox="0 0 16 14" id="steer--phone" xmlns="http://www.w3.org/2000/svg"><path stroke="currentColor" stroke-linecap="round" stroke-linejoin="round" stroke-width="2" d="M11.142 7.562l.98-.43L14.79 8.3v4.668c-8.883 0-13.315-4.494-13.337-11.672h5.335L8.12 3.63l-.49.86c-.503.881-.306 1.946.49 2.641.797.698 2.013.871 3.021.431z" clip-rule="evenodd"/></symbol><symbol fill="none" viewBox="0 0 13 13" id="steer--reviews-verified" xmlns="http://www.w3.org/2000/svg"><path d="M12.71 5.913l-.602-.45a.745.745 0 01-.232-.861l.287-.697a.742.742 0 00-.588-1.01l-.751-.096a.726.726 0 01-.63-.628L10.1 1.42A.743.743 0 009.09.833l-.698.287A.747.747 0 017.53.888L7.065.287a.731.731 0 00-1.161 0L5.466.9a.747.747 0 01-.861.232l-.697-.3a.743.743 0 00-1.01.587l-.096.752a.726.726 0 01-.63.628l-.751.095a.742.742 0 00-.588 1.01l.287.697c.123.3.028.656-.232.86l-.6.465a.73.73 0 000 1.16l.614.451c.259.205.355.56.232.86l-.3.697a.741.741 0 00.587 1.01l.752.096c.327.04.587.3.629.628l.095.751a.743.743 0 001.011.588l.697-.287a.747.747 0 01.862.232l.464.6a.732.732 0 001.162 0l.464-.6a.747.747 0 01.861-.232l.697.287a.743.743 0 001.012-.588l.095-.75a.726.726 0 01.629-.63l.752-.095a.742.742 0 00.588-1.01l-.288-.697a.746.746 0 01.232-.86l.602-.464c.355-.287.355-.86-.028-1.161zm-3.84-.15L6.394 8.235a.702.702 0 01-.505.204.702.702 0 01-.506-.204L4.14 6.992a.709.709 0 010-.997.71.71 0 01.998 0l.738.737 1.996-1.966a.71.71 0 01.997 0 .709.709 0 010 .997z" fill="currentColor" fill-opacity=".6"/></symbol><symbol fill="currentColor" viewBox="0 0 17 17" id="steer--search" xmlns="http://www.w3.org/2000/svg"><path fill-rule="evenodd" clip-rule="evenodd" d="M2 7.5a5.5 5.5 0 1111 0 5.5 5.5 0 01-11 0zM7.5 0a7.5 7.5 0 104.55 13.463l2.868 2.87a1 1 0 001.414-1.415l-2.869-2.869A7.5 7.5 0 007.5 0z"/></symbol><symbol fill="none" viewBox="0 0 8 5" id="steer--small-chevron-down" xmlns="http://www.w3.org/2000/svg"><path fill-rule="evenodd" clip-rule="evenodd" d="M.293.293a1 1 0 011.414 0L4 2.586 6.293.293a1 1 0 011.414 1.414l-3 3a1 1 0 01-1.414 0l-3-3a1 1 0 010-1.414z" fill="currentColor"/></symbol><symbol fill="none" viewBox="0 0 8 5" id="steer--small-chevron-up" xmlns="http://www.w3.org/2000/svg"><path fill-rule="evenodd" clip-rule="evenodd" d="M3.293.293a1 1 0 011.414 0l3 3a1 1 0 01-1.414 1.414L4 2.414 1.707 4.707A1 1 0 01.293 3.293l3-3z" fill="currentColor"/></symbol><symbol fill="none" viewBox="0 0 33 29" id="steer--smiley" xmlns="http://www.w3.org/2000/svg"><path d="M11.003 3.938a3.938 3.938 0 11-7.876-.001 3.938 3.938 0 017.876 0zM29.376 3.938a3.938 3.938 0 11-7.874-.001 3.938 3.938 0 017.874 0zM16.251 28.88c-6.523 0-12.614-3.52-15.897-9.184a2.622 2.622 0 01.955-3.586 2.627 2.627 0 013.588.955c2.345 4.05 6.696 6.566 11.353 6.566 4.658 0 9.012-2.515 11.352-6.566a2.612 2.612 0 013.586-.955 2.618 2.618 0 01.954 3.585c-3.275 5.665-9.368 9.185-15.894 9.185h.003z" fill="currentColor"/></symbol><symbol fill="none" viewBox="0 0 30 30" id="steer--tire" xmlns="http://www.w3.org/2000/svg"><path fill-rule="evenodd" clip-rule="evenodd" d="M15 28.5c7.456 0 13.5-6.044 13.5-13.5S22.456 1.5 15 1.5 1.5 7.544 1.5 15 7.544 28.5 15 28.5zm0 1.5c8.284 0 15-6.716 15-15 0-8.284-6.716-15-15-15C6.716 0 0 6.716 0 15c0 8.284 6.716 15 15 15zM7.537 15.75a7.468 7.468 0 001.799 4.166l2.486-2.486a3.982 3.982 0 01-.752-1.68H7.537zm6.713 6.713a7.463 7.463 0 01-3.822-1.518l2.514-2.514c.397.238.838.41 1.308.499v3.533zM7.537 14.25h3.533c.101-.532.307-1.026.596-1.46l-2.501-2.502a7.464 7.464 0 00-1.628 3.962zm5.178-2.533c.452-.316.973-.54 1.535-.647V7.537a7.466 7.466 0 00-4.03 1.684l2.495 2.496zm3.035-4.18v3.533c.532.101 1.026.307 1.46.596l2.502-2.501a7.464 7.464 0 00-3.962-1.628zm3.18 6.713a3.979 3.979 0 00-.647-1.535l2.496-2.496a7.466 7.466 0 011.684 4.031H18.93zm-.596 2.96c.289-.434.495-.928.596-1.46h3.533a7.465 7.465 0 01-1.628 3.962l-2.501-2.501zm-1.049 1.073c-.452.316-.973.54-1.535.647v3.533a7.466 7.466 0 004.03-1.684l-2.495-2.496zM15 24a9 9 0 100-18 9 9 0 000 18zm2.5-9a2.5 2.5 0 11-5 0 2.5 2.5 0 015 0z" fill="currentColor"/></symbol><symbol fill="none" viewBox="0 0 24 13" id="steer--trending" xmlns="http://www.w3.org/2000/svg"><path fill-rule="evenodd" clip-rule="evenodd" d="M19.079 3.455L15.663 6.87a2 2 0 01-2.829 0l-2.796-2.797a2 2 0 00-2.829 0L.75 10.534a1.125 1.125 0 001.59 1.59l4.87-4.87a2 2 0 012.829 0l2.796 2.797a2 2 0 002.829 0l5.006-5.006 1.009 1.01c.61.609 1.653.213 1.705-.648L23.7.2l-5.082.477a1 1 0 00-.614 1.702l1.076 1.076z" fill="currentColor"/></symbol><symbol fill="currentColor" viewBox="0 0 21 18" id="steer--twitter" xmlns="http://www.w3.org/2000/svg"><g clip-path="url(#bgclip0)"><path d="M6.604 17.5c7.925 0 12.259-6.54 12.259-12.212 0-.186 0-.371-.013-.555A8.748 8.748 0 0021 2.51a8.613 8.613 0 01-2.475.675A4.31 4.31 0 0020.42.812c-.846.5-1.771.853-2.736 1.042a4.324 4.324 0 00-6.096-.187A4.288 4.288 0 0010.34 5.77a12.249 12.249 0 01-8.88-4.485 4.286 4.286 0 001.335 5.73A4.283 4.283 0 01.84 6.477v.054a4.298 4.298 0 003.457 4.208c-.635.172-1.3.197-1.946.073a4.312 4.312 0 004.025 2.981A8.67 8.67 0 010 15.573a12.231 12.231 0 006.604 1.924"/></g><defs><clipPath id="bgclip0"><path d="M0 .5h21v17H0V.5z"/></clipPath></defs></symbol><symbol stroke="currentColor" fill="currentColor" viewBox="0 0 582.9 430.1" id="steer--vehicle-farm" xmlns="http://www.w3.org/2000/svg"><path d="M75 191.9V43.7h249.1L351.5 201c60.6 0 134.8 9.9 182.2 20.4 26.5 5.8 35.8 21.4 35.8 30.2v32.8s-34.5-11.6-72.2-11.6c0 0-75 4.9-75 85.2M240.8 365.8h93.7M278 221.4h26.7M167.5 198.1V43.8" fill="none" stroke-linecap="round" stroke-linejoin="round" stroke-width="8"/><path d="M386.9 198.1V34.3S387.2 12 411.4 4l16.5 22.5s-15.6 1.9-15.6 24.2v96M242.4 336A126.53 126.53 0 004 276.9M75 43.7H58.2v-8.4a14 14 0 0114-14h234.5a25.29 25.29 0 0121.7 12.2l6.1 10.2z" fill="none" stroke-linecap="round" stroke-linejoin="round" stroke-width="8"/><path d="M520.4 305.1a62.5 62.5 0 1062.5 62.5 62.52 62.52 0 00-62.5-62.5zm.1 100a37.5 37.5 0 1137.5-37.5 37.51 37.51 0 01-37.5 37.5z"/><path fill="none" stroke-linecap="round" stroke-linejoin="round" stroke-width="8" d="M520.4 406.1v-77M547.5 394.9L493 340.4M558.7 367.8h-77.1M547.5 340.7L493 395.2"/><circle cx="520.4" cy="367.6" r="18.3"/><path d="M114.9 240.1a95 95 0 1095 95 95 95 0 00-95-95zm.3 152.5a57.5 57.5 0 1157.5-57.5 57.44 57.44 0 01-57.5 57.5z"/><path fill="none" stroke-linecap="round" stroke-linejoin="round" stroke-width="8" d="M114.9 277.6v115M74.2 294.4l81.3 81.4M57.4 335.1h115M74.2 375.8l81.3-81.4"/><circle cx="114.9" cy="335.1" r="27.3"/></symbol><symbol stroke="currentColor" fill="currentColor" viewBox="0 0 564.1 446.1" id="steer--vehicle-industrial" xmlns="http://www.w3.org/2000/svg"><path fill="none" stroke-linecap="round" stroke-linejoin="round" stroke-width="8" d="M160.5 416.9h93.6M4 343.8V93a44.45 44.45 0 0144.4-44.5H253l117 242.6H263.3a15.92 15.92 0 00-15.9 15.8V321h-57.8v-30.9a30.6 30.6 0 00-30.6-30.6H39.8v68.9"/><path fill="none" stroke-linecap="round" stroke-linejoin="round" stroke-width="8" d="M249.5 229.5l21.7 13.7v48M260 205.3l-25.2 45.1M70.1 257.3v-89.2a19.2 19.2 0 00-19.2-19.2M370 291.2V48.5h-21.8V4H411a16.41 16.41 0 0116.4 16.4v373.2H526s34.1.4 34.1-34.1"/><path d="M333 326a60 60 0 1060 60 60 60 0 00-60-60zm.1 92.5a32.5 32.5 0 1132.5-32.5 32.5 32.5 0 01-32.5 32.5z"/><path fill="none" stroke-linecap="round" stroke-linejoin="round" stroke-width="8" d="M333 418.5v-65M355.9 409l-46-45.9M365.4 386.1h-65M355.9 363.2l-46 45.9"/><circle cx="333" cy="386" r="15.3"/><path d="M56.9 346.1a50 50 0 1050 50 50 50 0 00-50-50zm.1 78a28 28 0 1128-28 28 28 0 01-28 28z"/><path fill="none" stroke-linecap="round" stroke-linejoin="round" stroke-width="8" d="M56.9 424.1v-56M76.7 415.9l-39.6-39.6M84.9 396H29M76.7 376.2l-39.6 39.5"/><circle cx="56.9" cy="396.1" r="13"/></symbol><symbol stroke="currentColor" fill="currentColor" viewBox="0 0 709.49 271.09" id="steer--vehicle-light-truck" xmlns="http://www.w3.org/2000/svg"><path fill="none" stroke-linecap="round" stroke-linejoin="round" stroke-width="8" d="M388.24 131.31h-24M96.54 231.06l-57.73-9.75A41.76 41.76 0 014 180.13V99.26a.4.4 0 01.4-.4h292.06V17.52A13.52 13.52 0 01310 4h123.24a46.82 46.82 0 0135.44 16.21l71.22 82.34L640.1 113a61.45 61.45 0 0153.58 43.59L704 190.94c3.26 10.92 1.19 23.07-6.49 31.49a23.44 23.44 0 01-17.9 8M488.7 231.06H249.67M517.11 102.69h-182.3"/><path d="M693.68 156.62h-40.17a3.8 3.8 0 00-2.06 7c7.32 4.88 14.77 12.7 16 24.62a3.76 3.76 0 003.77 3.35H704M4 131.31h52.01v41.41H4M37.13 131.31v41.41M237.67 221.28a67.71 67.71 0 00-67.67-67.7M566.91 221.09h60M575.7 242.3l42.42-42.42M596.91 251.09v-60M618.12 242.3l-42.42-42.42" fill="none" stroke-linecap="round" stroke-linejoin="round" stroke-width="8"/><circle cx="596.91" cy="221.09" r="15"/><path d="M596.89 171.09a50 50 0 1050 50 50 50 0 00-50-50zm0 80.14a30 30 0 1130-30 30 30 0 01-30 30z"/><path fill="none" stroke-linecap="round" stroke-linejoin="round" stroke-width="8" d="M139.96 221.09h60M148.75 242.3l42.42-42.42M169.96 251.09v-60M191.17 242.3l-42.42-42.42"/><circle cx="169.96" cy="221.09" r="15"/><path d="M169.94 171.09a50 50 0 1050 50 50 50 0 00-50-50zm0 80.14a30 30 0 11.06 0z"/></symbol><symbol stroke="currentColor" fill="currentColor" viewBox="0 0 735.61 226.9" id="steer--vehicle-passenger" xmlns="http://www.w3.org/2000/svg"><path fill="none" stroke-linecap="round" stroke-linejoin="round" stroke-width="8" d="M254.81 187h241.5M101.5 181.8c-27.6 0-68.3-11.7-83.5-13a15.26 15.26 0 01-14-15.6c.2-6.5.3-14.4.3-21.7 0-29.7 17.4-32.5 17.4-58.7C21.7 55.1 35.8 55 35.8 55h76.9c17.4 0 50.1-51 123.1-51h112s64 0 100 20 68 35 68 35S637.2 70.1 688 76.8a31.57 31.57 0 0125.2 19.7c24.5 62 29.5 90.4-16.1 90.4M355.8 87h-24M199.8 87h24"/><path d="M396.5 59.1H209.2a13.4 13.4 0 01-13.4-13.4 21.05 21.05 0 01.2-2.5c1.6-8.1 6.3-18 18.3-25.7M20.7 83h27.8a5.83 5.83 0 015.2 8.4l-10.2 20.4a5.77 5.77 0 01-5.2 3.2H6.6M703.5 85h-22a12.07 12.07 0 00-9.3 19.8l4.5 5.5A23.64 23.64 0 00695 119l27.2 1.3M139.9 176.9h60M148.7 198.2l42.5-42.5M169.9 206.9v-60M191.2 198.2l-42.5-42.5" fill="none" stroke-linecap="round" stroke-linejoin="round" stroke-width="8"/><circle cx="169.9" cy="176.9" r="15"/><path d="M169.9 126.9a50 50 0 1050 50 50 50 0 00-50-50zm0 80.1a30 30 0 1130-30 30 30 0 01-30 30c.1.1 0 .1 0 0z"/><path fill="none" stroke-linecap="round" stroke-linejoin="round" stroke-width="8" d="M593.2 176.9h60M601.9 198.2l42.5-42.5M623.2 206.9v-60M644.4 198.2l-42.5-42.5"/><circle cx="623.2" cy="176.9" r="15"/><path d="M623.1 126.9a50 50 0 1050 50 50 50 0 00-50-50zm0 80.1a30 30 0 1130-30 30 30 0 01-30 30z"/></symbol><symbol stroke="currentColor" fill="currentColor" viewBox="0 0 806.32 376.05" id="steer--vehicle-rv" xmlns="http://www.w3.org/2000/svg"><path d="M441.73 346.47h-51.51a12 12 0 01-12-12V328H251.41M766.19 337.28a206.8 206.8 0 0019.85-7c22.18-9.11 15.45-43.58 14.9-66.19s-19.86-32-19.86-32c-9.38-37.5-51.78-47.43-51.78-47.43s-68.23-81.9-81-93.83-95.21-11.23-95.21-11.23" fill="none" stroke-linecap="round" stroke-linejoin="round" stroke-width="8"/><path d="M772.63 213.55s-21.72-12.19-32.56-7.29 13.26 36.81 48.64 31.34M531.21 328.08h93.22M567.07 199.58v22.08M560.45 125.67s2.76 60.67 40.26 67.84 51.85 6.07 51.85 6.07M77 82.93v43.21a24.55 24.55 0 0024.55 24.55h33.22M397.37 295.89V71.47a14.09 14.09 0 0114.09-14.09h53.76a14.09 14.09 0 0114.09 14.09v219.84M418.07 181.79v23.31" fill="none" stroke-linecap="round" stroke-linejoin="round" stroke-width="8"/><path d="M517.44 150.85V84a23.9 23.9 0 0123.9-23.9h87.84C624.37 3 553.8 4 553.8 4H45.9A41.9 41.9 0 004 45.9h0v282.18h117.36c0-26 9.34-70.18 68.77-70.18M683.08 326.05h60M691.87 347.26l42.43-42.43M713.08 356.05v-60M734.3 347.26l-42.43-42.43" fill="none" stroke-linecap="round" stroke-linejoin="round" stroke-width="8"/><circle cx="713.08" cy="326.05" r="15"/><path d="M713.06 276.05a50 50 0 1050 50h0a50 50 0 00-50-50zm0 80.14a30 30 0 1130-30 30 30 0 01-30 30z"/><path fill="none" stroke-linecap="round" stroke-linejoin="round" stroke-width="8" d="M156.69 326.05h60M165.48 347.26l42.43-42.43M186.69 356.05v-60M207.91 347.26l-42.43-42.43"/><circle cx="186.69" cy="326.05" r="15"/><path d="M186.67 276.05a50 50 0 1050 50h0a50 50 0 00-50-50zm0 80.14a30 30 0 1130-30 30 30 0 01-30 30z"/></symbol><symbol fill="none" viewBox="0 0 30 30" id="steer--wheel" xmlns="http://www.w3.org/2000/svg"><path fill-rule="evenodd" clip-rule="evenodd" d="M15 28.5c7.456 0 13.5-6.044 13.5-13.5S22.456 1.5 15 1.5 1.5 7.544 1.5 15 7.544 28.5 15 28.5zm0 1.5c8.284 0 15-6.716 15-15 0-8.284-6.716-15-15-15C6.716 0 0 6.716 0 15c0 8.284 6.716 15 15 15zM7.537 15.75a7.468 7.468 0 001.799 4.166l2.486-2.486a3.982 3.982 0 01-.752-1.68H7.537zm6.713 6.713a7.463 7.463 0 01-3.822-1.518l2.514-2.514c.397.238.838.41 1.308.499v3.533zM7.537 14.25h3.533c.101-.532.307-1.026.596-1.46l-2.501-2.502a7.464 7.464 0 00-1.628 3.962zm5.178-2.533c.452-.316.973-.54 1.535-.647V7.537a7.466 7.466 0 00-4.03 1.684l2.495 2.496zm3.035-4.18v3.533c.532.101 1.026.307 1.46.596l2.502-2.501a7.464 7.464 0 00-3.962-1.628zm3.18 6.713a3.979 3.979 0 00-.647-1.535l2.496-2.496a7.466 7.466 0 011.684 4.031H18.93zm-.596 2.96c.289-.434.495-.928.596-1.46h3.533a7.465 7.465 0 01-1.628 3.962l-2.501-2.501zm-1.049 1.073c-.452.316-.973.54-1.535.647v3.533a7.466 7.466 0 004.03-1.684l-2.495-2.496zM15 24a9 9 0 100-18 9 9 0 000 18zm2.5-9a2.5 2.5 0 11-5 0 2.5 2.5 0 015 0z" fill="#BABABA"/><circle cx="15" cy="15" r="8.25" stroke="#181818" stroke-width="1.5"/></symbol><symbol fill="none" viewBox="0 0 64 72" id="steer--winter" xmlns="http://www.w3.org/2000/svg"><path d="M.753 53.5c.396.622 1.03.933 1.743.933.317 0 .713-.077.95-.233l6.732-3.811v7.622c0 1.089.871 1.945 1.98 1.945s1.98-.856 1.98-1.945v-9.878l15.444-8.789v17.578L20.87 61.9c-.95.544-1.267 1.711-.713 2.644.396.623 1.03.934 1.742.934.317 0 .713-.078.95-.234l6.733-3.81v7.622c0 1.088.871 1.944 1.98 1.944s1.98-.856 1.98-1.944v-7.623l6.732 3.811c.316.156.633.234.95.234.713 0 1.347-.311 1.743-.934.554-.933.237-2.1-.713-2.644l-8.712-4.978V39.344l15.444 8.79v9.877c0 1.089.87 1.945 1.98 1.945 1.108 0 1.98-.856 1.98-1.945V50.39l6.732 3.811c.316.156.633.233.95.233.713 0 1.346-.31 1.742-.933.555-.933.238-2.1-.713-2.644l-6.731-3.812 6.731-3.81c.95-.545 1.268-1.712.713-2.645a1.973 1.973 0 00-2.692-.7l-8.712 4.978L35.6 36l15.444-8.789 8.712 4.978c.317.155.633.233.95.233.713 0 1.346-.31 1.742-.933.555-.933.238-2.1-.712-2.645l-6.732-3.81 6.732-3.812c.95-.544 1.267-1.71.712-2.644a1.973 1.973 0 00-2.692-.7l-6.732 3.81v-7.621c0-1.09-.871-1.945-1.98-1.945s-1.98.856-1.98 1.945v9.877L33.62 32.656V15.078l8.712-4.978c.95-.544 1.267-1.711.713-2.644a1.973 1.973 0 00-2.693-.7l-6.732 3.81V2.945c0-1.088-.871-1.944-1.98-1.944s-1.98.856-1.98 1.944v7.623l-6.732-3.811a1.973 1.973 0 00-2.693.7c-.554.933-.237 2.1.713 2.644l8.712 4.978v17.578l-15.444-8.79V13.99c0-1.089-.871-1.945-1.98-1.945-1.108 0-1.98.856-1.98 1.945v7.622L3.525 17.8a1.974 1.974 0 00-2.692.7c-.555.933-.238 2.1.712 2.644l6.732 3.812-6.732 3.81c-.95.545-1.267 1.712-.712 2.645.396.622 1.03.933 1.742.933.317 0 .713-.077.95-.233l8.712-4.978L27.681 36l-15.444 8.789-8.712-4.978a1.974 1.974 0 00-2.692.7c-.555.933-.238 2.1.712 2.645l6.732 3.81-6.732 3.812C.595 51.4.2 52.567.753 53.5z" fill="currentColor" stroke="currentColor" stroke-width=".8"/></symbol><symbol fill="currentColor" viewBox="0 0 22 16" id="steer--youtube" xmlns="http://www.w3.org/2000/svg"><path d="M21.542 2.499c-.254-.984-.998-1.758-1.945-2.021C17.88 0 11 0 11 0S4.12 0 2.405.478C1.458.74.714 1.515.46 2.498 0 4.28 0 8 0 8s0 3.72.46 5.501c.254.984.998 1.758 1.945 2.021C4.12 16 11 16 11 16s6.88 0 8.595-.478c.947-.263 1.692-1.037 1.945-2.02C22 11.72 22 8 22 8s0-3.72-.458-5.501zM8.8 11.428V4.572L14.515 8 8.8 11.428z"/></symbol></svg>