<?xml version="1.0" encoding="utf-8"?><svg xmlns="http://www.w3.org/2000/svg" xmlns:xlink="http://www.w3.org/1999/xlink"><symbol fill="currentColor" viewBox="0 0 14 17" id="steer--account" xmlns="http://www.w3.org/2000/svg"><path fill-rule="evenodd" clip-rule="evenodd" d="M5 4a2 2 0 114 0 2 2 0 01-4 0zm2-4a4 4 0 100 8 4 4 0 000-8zM2 16a5 5 0 0110 0 1 1 0 102 0 7 7 0 10-14 0 1 1 0 102 0z"/></symbol><symbol fill="currentColor" viewBox="0 0 12 14" id="steer--arrow-bottom" xmlns="http://www.w3.org/2000/svg"><path fill-rule="evenodd" clip-rule="evenodd" d="M5.293.293a1 1 0 011.414 0l5 5a1 1 0 01-1.414 1.414L7 3.414V13a1 1 0 11-2 0V3.414L1.707 6.707A1 1 0 01.293 5.293l5-5z"/></symbol><symbol fill="currentColor" viewBox="0 0 12 14" id="steer--arrow-down" xmlns="http://www.w3.org/2000/svg"><path fill-rule="evenodd" clip-rule="evenodd" d="M6 0a1 1 0 011 1v9.586l3.293-3.293a1 1 0 111.414 1.414l-5 5a1 1 0 01-1.414 0l-5-5a1 1 0 011.414-1.414L5 10.586V1a1 1 0 011-1z"/></symbol><symbol fill="currentColor" viewBox="0 0 14 12" id="steer--arrow-left" xmlns="http://www.w3.org/2000/svg"><path fill-rule="evenodd" clip-rule="evenodd" d="M6.707.293a1 1 0 010 1.414L3.414 5H13a1 1 0 110 2H3.414l3.293 3.293a1 1 0 11-1.414 1.414l-5-5a1 1 0 010-1.414l5-5a1 1 0 011.414 0z"/></symbol><symbol fill="currentColor" viewBox="0 0 14 12" id="steer--arrow-right" xmlns="http://www.w3.org/2000/svg"><path fill-rule="evenodd" clip-rule="evenodd" d="M7.293.293a1 1 0 011.414 0l5 5a1 1 0 010 1.414l-5 5a1 1 0 01-1.414-1.414L10.586 7H1a1 1 0 010-2h9.586L7.293 1.707a1 1 0 010-1.414z"/></symbol><symbol fill="currentColor" viewBox="0 0 12 7" id="steer--chevron-down" xmlns="http://www.w3.org/2000/svg"><path fill-rule="evenodd" clip-rule="evenodd" d="M.293.293a1 1 0 011.414 0L6 4.586 10.293.293a1 1 0 111.414 1.414l-5 5a1 1 0 01-1.414 0l-5-5a1 1 0 010-1.414z"/></symbol><symbol fill="currentColor" viewBox="0 0 7 12" id="steer--chevron-left" xmlns="http://www.w3.org/2000/svg"><path fill-rule="evenodd" clip-rule="evenodd" d="M6.707.293a1 1 0 010 1.414L2.414 6l4.293 4.293a1 1 0 11-1.414 1.414l-5-5a1 1 0 010-1.414l5-5a1 1 0 011.414 0z"/></symbol><symbol fill="currentColor" viewBox="0 0 7 12" id="steer--chevron-right" xmlns="http://www.w3.org/2000/svg"><path fill-rule="evenodd" clip-rule="evenodd" d="M.293.293a1 1 0 011.414 0l5 5a1 1 0 010 1.414l-5 5a1 1 0 01-1.414-1.414L4.586 6 .293 1.707a1 1 0 010-1.414z"/></symbol><symbol fill="currentColor" viewBox="0 0 12 7" id="steer--chevron-up" xmlns="http://www.w3.org/2000/svg"><path fill-rule="evenodd" clip-rule="evenodd" d="M5.293.293a1 1 0 011.414 0l5 5a1 1 0 01-1.414 1.414L6 2.414 1.707 6.707A1 1 0 01.293 5.293l5-5z"/></symbol><symbol fill="currentColor" viewBox="0 0 16 16" id="steer--clear-search" xmlns="http://www.w3.org/2000/svg"><path fill-rule="evenodd" clip-rule="evenodd" d="M8 16A8 8 0 108 0a8 8 0 000 16zM6.03 4.97a.75.75 0 00-1.06 1.06L6.94 8 4.97 9.97a.75.75 0 101.06 1.06L8 9.06l1.97 1.97a.75.75 0 101.06-1.06L9.06 8l1.97-1.97a.75.75 0 10-1.06-1.06L8 6.94 6.03 4.97z"/></symbol><symbol fill="currentColor" viewBox="0 0 12 12" id="steer--close" xmlns="http://www.w3.org/2000/svg"><path fill-rule="evenodd" clip-rule="evenodd" d="M.293.293a1 1 0 011.414 0L6 4.586 10.293.293a1 1 0 111.414 1.414L7.414 6l4.293 4.293a1 1 0 01-1.414 1.414L6 7.414l-4.293 4.293a1 1 0 01-1.414-1.414L4.586 6 .293 1.707a1 1 0 010-1.414z"/></symbol><symbol fill="currentColor" viewBox="0 0 9 18" id="steer--facebook" xmlns="http://www.w3.org/2000/svg"><path d="M8.41 10.125l.467-3.258H5.959V4.753c0-.89.408-1.76 1.714-1.76H9V.22S7.796 0 6.645 0C4.242 0 2.671 1.56 2.671 4.385v2.482H0v3.258h2.671V18H5.96v-7.875H8.41z"/></symbol><symbol fill="none" viewBox="0 0 23 30" id="steer--fire" xmlns="http://www.w3.org/2000/svg"><path d="M18.92 8.328a.585.585 0 00-.732-.21.598.598 0 00-.333.69c.297 1.237.231 2.653.047 3.89-.523-1.37-1.433-2.598-2.422-3.931l-.441-.588c-1.672-2.28-.31-7.368-.297-7.417a.594.594 0 00-.202-.63.582.582 0 00-.649-.06c-.32.174-7.42 4.097-8.046 11.526-.37-.559-.69-1.411-.6-2.623a.608.608 0 00-.376-.606.596.596 0 00-.678.174c-.207.252-5.027 6.192-4.064 12.678.512 3.433 2.547 6.353 6.064 8.682.232.15.541.12.743-.072a.61.61 0 00.09-.75c-2.214-3.58-.541-6.869.572-8.436.214.643.619 1.387 1.38 1.993a.58.58 0 00.654.054.595.595 0 00.304-.583c0-.047-.375-4.428 2.964-6.54.077 1.5.417 4.32 1.869 5.982 2.588 2.976 1.643 5.724.399 7.5a.604.604 0 00.047.756.59.59 0 00.75.103c.249-.156 6.205-3.9 6.974-9.726.643-4.92-3.826-11.574-4.017-11.857z" fill="currentColor"/></symbol><symbol fill="none" viewBox="0 0 122 20" id="steer--five-stars" xmlns="http://www.w3.org/2000/svg"><path d="M.55 9.025l4.074 2.958c.465.338.66.938.482 1.484L3.55 18.256c-.397 1.223 1.003 2.24 2.044 1.485l4.074-2.96a1.326 1.326 0 011.561 0l4.074 2.96c1.041.755 2.442-.262 2.045-1.485l-1.556-4.789a1.325 1.325 0 01.482-1.484l4.074-2.958c1.04-.757.506-2.403-.78-2.403H14.53c-.575 0-1.086-.37-1.263-.917L11.712.918c-.398-1.224-2.128-1.224-2.527 0L7.628 5.705a1.326 1.326 0 01-1.262.917H1.33c-1.287 0-1.82 1.646-.78 2.403zm25.105 0l4.074 2.958c.466.338.66.938.483 1.484l-1.557 4.789c-.397 1.223 1.003 2.24 2.045 1.485l4.074-2.96a1.326 1.326 0 011.56 0l4.075 2.96c1.04.755 2.441-.262 2.044-1.485l-1.556-4.789a1.325 1.325 0 01.483-1.484l4.073-2.958c1.04-.757.507-2.403-.78-2.403h-5.037c-.574 0-1.086-.37-1.263-.917L36.817.918c-.398-1.224-2.128-1.224-2.527 0l-1.556 4.787a1.326 1.326 0 01-1.263.917h-5.035c-1.287 0-1.821 1.646-.78 2.403zm25.109 0l4.075 2.958c.465.338.66.938.482 1.484l-1.556 4.789c-.398 1.223 1.003 2.24 2.044 1.485l4.074-2.96a1.326 1.326 0 011.56 0l4.075 2.96c1.041.755 2.442-.262 2.044-1.485l-1.555-4.789a1.324 1.324 0 01.482-1.484l4.073-2.958c1.04-.757.507-2.403-.78-2.403h-5.036c-.575 0-1.086-.37-1.263-.917L61.927.918c-.398-1.224-2.128-1.224-2.527 0l-1.557 4.787a1.326 1.326 0 01-1.262.917h-5.036c-1.287 0-1.82 1.646-.78 2.403zm25.106 0l4.074 2.958c.465.338.66.938.483 1.484l-1.557 4.789c-.397 1.223 1.003 2.24 2.044 1.485l4.075-2.96a1.326 1.326 0 011.56 0l4.075 2.96c1.04.755 2.441-.262 2.044-1.485l-1.556-4.789a1.324 1.324 0 01.483-1.484l4.073-2.958c1.04-.757.506-2.403-.78-2.403H89.85c-.575 0-1.086-.37-1.263-.917L87.032.918c-.398-1.224-2.128-1.224-2.527 0l-1.557 4.787a1.326 1.326 0 01-1.262.917h-5.035c-1.287 0-1.821 1.646-.781 2.403zm25.109 0l4.074 2.958c.466.338.661.938.483 1.484l-1.557 4.789c-.397 1.223 1.004 2.24 2.045 1.485l4.074-2.96a1.326 1.326 0 011.561 0l4.074 2.96c1.041.755 2.442-.262 2.044-1.485l-1.556-4.789a1.326 1.326 0 01.483-1.484l4.073-2.958c1.041-.757.507-2.403-.78-2.403h-5.036c-.575 0-1.087-.37-1.263-.917L112.142.918c-.398-1.224-2.129-1.224-2.528 0l-1.556 4.787a1.327 1.327 0 01-1.263.917h-5.035c-1.287 0-1.821 1.646-.781 2.403z" fill="currentColor"/></symbol><symbol fill="none" viewBox="0 0 25 25" id="steer--geolocation" xmlns="http://www.w3.org/2000/svg"><path d="M23 2l-9.51 21-1.44-9.78L2 11.688 23 2z" stroke="currentColor" stroke-width="3" stroke-linejoin="round"/></symbol><symbol viewBox="0 0 70 70" id="steer--icon-wheel" xmlns="http://www.w3.org/2000/svg"><circle cx="35" cy="35" r="33.5" stroke="#171717" stroke-width="3"/><circle cx="35" cy="35" r="32.75" stroke="#fff" stroke-width="4.5" stroke-linecap="round" stroke-linejoin="round"/><circle cx="35.001" cy="35.001" r="11.899" stroke="#FE5F10" stroke-width="4.5" stroke-linecap="round" stroke-linejoin="round"/><path d="M50.34 54.855a25.762 25.762 0 01-15.942 5.495M11.455 40.303a25.712 25.712 0 01.616-15.105" stroke="#fff" stroke-width="4.5" stroke-miterlimit="10" stroke-linecap="round" stroke-linejoin="round"/></symbol><symbol fill="none" viewBox="0 0 24 13" id="steer--insights-trending" xmlns="http://www.w3.org/2000/svg"><path fill-rule="evenodd" clip-rule="evenodd" d="M19.079 3.455L15.663 6.87a2 2 0 01-2.829 0l-2.796-2.797a2 2 0 00-2.829 0L.75 10.534a1.125 1.125 0 001.59 1.59l4.87-4.87a2 2 0 012.829 0l2.796 2.797a2 2 0 002.829 0l5.006-5.006 1.009 1.01c.61.609 1.653.213 1.705-.648L23.7.2l-5.082.477a1 1 0 00-.614 1.702l1.076 1.076z" fill="currentColor"/></symbol><symbol fill="none" viewBox="0 0 64 72" id="steer--insights-winter" xmlns="http://www.w3.org/2000/svg"><path d="M.753 53.5c.396.622 1.03.933 1.743.933.317 0 .713-.077.95-.233l6.732-3.811v7.622c0 1.089.871 1.945 1.98 1.945s1.98-.856 1.98-1.945v-9.878l15.444-8.789v17.578L20.87 61.9c-.95.544-1.267 1.711-.713 2.644.396.623 1.03.934 1.742.934.317 0 .713-.078.95-.234l6.733-3.81v7.622c0 1.088.871 1.944 1.98 1.944s1.98-.856 1.98-1.944v-7.623l6.732 3.811c.316.156.633.234.95.234.713 0 1.347-.311 1.743-.934.554-.933.237-2.1-.713-2.644l-8.712-4.978V39.344l15.444 8.79v9.877c0 1.089.87 1.945 1.98 1.945 1.108 0 1.98-.856 1.98-1.945V50.39l6.732 3.811c.316.156.633.233.95.233.713 0 1.346-.31 1.742-.933.555-.933.238-2.1-.713-2.644l-6.731-3.812 6.731-3.81c.95-.545 1.268-1.712.713-2.645a1.973 1.973 0 00-2.692-.7l-8.712 4.978L35.6 36l15.444-8.789 8.712 4.978c.317.155.633.233.95.233.713 0 1.346-.31 1.742-.933.555-.933.238-2.1-.712-2.645l-6.732-3.81 6.732-3.812c.95-.544 1.267-1.71.712-2.644a1.973 1.973 0 00-2.692-.7l-6.732 3.81v-7.621c0-1.09-.871-1.945-1.98-1.945s-1.98.856-1.98 1.945v9.877L33.62 32.656V15.078l8.712-4.978c.95-.544 1.267-1.711.713-2.644a1.973 1.973 0 00-2.693-.7l-6.732 3.81V2.945c0-1.088-.871-1.944-1.98-1.944s-1.98.856-1.98 1.944v7.623l-6.732-3.811a1.973 1.973 0 00-2.693.7c-.554.933-.237 2.1.713 2.644l8.712 4.978v17.578l-15.444-8.79V13.99c0-1.089-.871-1.945-1.98-1.945-1.108 0-1.98.856-1.98 1.945v7.622L3.525 17.8a1.974 1.974 0 00-2.692.7c-.555.933-.238 2.1.712 2.644l6.732 3.812-6.732 3.81c-.95.545-1.267 1.712-.712 2.645.396.622 1.03.933 1.742.933.317 0 .713-.077.95-.233l8.712-4.978L27.681 36l-15.444 8.789-8.712-4.978a1.974 1.974 0 00-2.692.7c-.555.933-.238 2.1.712 2.645l6.732 3.81-6.732 3.812C.595 51.4.2 52.567.753 53.5z" fill="currentColor" stroke="currentColor" stroke-width=".8"/></symbol><symbol fill="currentColor" viewBox="0 0 18 18" id="steer--instagram" xmlns="http://www.w3.org/2000/svg"><g clip-path="url(#asclip0)"><path d="M9 1.622c2.403 0 2.688.009 3.637.052.877.04 1.354.187 1.671.31.42.163.72.358 1.035.673.315.315.51.615.673 1.035.123.317.27.794.31 1.671.043.949.052 1.234.052 3.637s-.009 2.688-.052 3.637c-.04.877-.187 1.354-.31 1.671-.163.42-.358.72-.673 1.035-.315.315-.615.51-1.035.673-.317.123-.794.27-1.671.31-.949.043-1.234.052-3.637.052s-2.688-.009-3.637-.052c-.877-.04-1.354-.187-1.671-.31a2.791 2.791 0 01-1.035-.673 2.784 2.784 0 01-.673-1.035c-.123-.317-.27-.794-.31-1.671-.043-.949-.052-1.234-.052-3.637s.009-2.688.052-3.637c.04-.877.187-1.354.31-1.671.163-.42.358-.72.673-1.035.315-.315.615-.51 1.035-.673.317-.123.794-.27 1.671-.31.95-.043 1.234-.052 3.637-.052zM9 0C6.556 0 6.25.01 5.29.054 4.33.098 3.676.25 3.104.473A4.408 4.408 0 001.51 1.51c-.5.5-.808 1.002-1.037 1.594C.25 3.677.098 4.33.054 5.289.01 6.25 0 6.556 0 9s.01 2.75.054 3.71c.044.959.196 1.613.419 2.185.23.592.537 1.094 1.038 1.595.5.5 1.002.808 1.594 1.038.572.222 1.227.374 2.185.418C6.25 17.99 6.556 18 9 18c2.445 0 2.751-.01 3.711-.054.958-.044 1.612-.196 2.185-.418a4.409 4.409 0 001.594-1.038c.5-.501.808-1.003 1.038-1.595.223-.572.375-1.226.418-2.184.044-.96.055-1.267.055-3.711s-.01-2.75-.055-3.71c-.043-.959-.195-1.613-.418-2.185A4.408 4.408 0 0016.49 1.51 4.41 4.41 0 0014.896.472C14.323.25 13.669.098 12.71.054 11.75.01 11.444 0 9 0z"/><path d="M9 4.379a4.621 4.621 0 100 9.242A4.621 4.621 0 009 4.38zm0 7.62A3 3 0 119 6a3 3 0 010 6zM13.804 5.276a1.08 1.08 0 100-2.16 1.08 1.08 0 000 2.16z"/></g><defs><clipPath id="asclip0"><path d="M0 0h18v18H0V0z"/></clipPath></defs></symbol><symbol fill="currentColor" viewBox="0 0 18 18" id="steer--linkedin" xmlns="http://www.w3.org/2000/svg"><path d="M.378 6.283V17.5h3.744V6.283H.378zM10.125 17.5H6.372V8.818s-.061-2.154-.061-2.535h3.691l.123 1.551c.747-1.085 1.872-1.908 3.375-1.908 2.628 0 4.5 1.806 4.5 5.062V17.5h-3.753v-6.147c0-1.815-.914-2.535-2.039-2.535s-2.083.72-2.083 2.17V17.5zM2.232 4.477c1.39 0 2.268-.882 2.268-1.993C4.482 1.364 3.621.5 2.268.5.896.5 0 1.365 0 2.484c0 1.11.879 1.993 2.206 1.993h.026z"/></symbol><symbol fill="currentColor" viewBox="0 0 16 20" id="steer--location" xmlns="http://www.w3.org/2000/svg"><path fill-rule="evenodd" clip-rule="evenodd" d="M2.5 7.353C2.5 4.418 4.94 2 8 2s5.5 2.418 5.5 5.353c0 1.485-.726 3.436-1.927 5.473A27.573 27.573 0 018 17.572a27.294 27.294 0 01-3.605-4.777C3.207 10.773 2.5 8.84 2.5 7.353zM8 0C3.88 0 .5 3.27.5 7.353c0 2.02.918 4.324 2.169 6.454A29.277 29.277 0 007.3 19.715a1 1 0 001.398 0 29.384 29.384 0 004.598-5.873c1.259-2.137 2.203-4.465 2.203-6.49C15.5 3.272 12.12 0 8 0zm0 9.75a2.25 2.25 0 100-4.5 2.25 2.25 0 000 4.5z"/></symbol><symbol fill="none" viewBox="0 0 18 17" id="steer--mail" xmlns="http://www.w3.org/2000/svg"><path fill="currentColor" stroke="currentColor" d="M4.38 7.922l4.6 2.52c.153.1.358.1.511 0l4.601-2.52c.614-.303.102-1.21-.511-.857L9.236 9.434 4.89 7.014c-.613-.302-1.073.555-.51.908z"/><path fill="currentColor" stroke="currentColor" stroke-width=".5" d="M2.891 15.9H15.5c1.072 0 1.891-.808 1.891-1.864V6.08a1.83 1.83 0 00-1.071-1.678L9.447 1.047a.887.887 0 00-.567 0L2.072 4.465C1.378 4.775 1 5.397 1 6.08v7.955c0 1.056.82 1.864 1.891 1.864zm-.63-9.82c0-.248.126-.434.378-.559L9.195 2.29l6.556 3.231c.253.125.379.373.379.56v7.955c0 .372-.252.621-.63.621H2.89c-.378 0-.63-.249-.63-.621V6.08z"/></symbol><symbol fill="currentColor" viewBox="0 0 20 20" id="steer--main-search" xmlns="http://www.w3.org/2000/svg"><path fill-rule="evenodd" clip-rule="evenodd" d="M2.857 9.048a6.19 6.19 0 1112.38 0 6.19 6.19 0 01-12.38 0zM9.047 0a9.048 9.048 0 105.308 16.375l3.206 3.207a1.429 1.429 0 102.02-2.02l-3.206-3.207a9.007 9.007 0 001.72-5.307A9.047 9.047 0 009.047 0z"/></symbol><symbol fill="currentColor" viewBox="0 0 16 8" id="steer--menu" xmlns="http://www.w3.org/2000/svg"><path fill-rule="evenodd" clip-rule="evenodd" d="M1.5 0a1 1 0 100 2h13a1 1 0 100-2h-13zm0 6a1 1 0 000 2h13a1 1 0 100-2h-13z"/></symbol><symbol fill="none" viewBox="0 0 16 14" id="steer--phone" xmlns="http://www.w3.org/2000/svg"><path stroke="currentColor" stroke-linecap="round" stroke-linejoin="round" stroke-width="2" d="M11.142 7.562l.98-.43L14.79 8.3v4.668c-8.883 0-13.315-4.494-13.337-11.672h5.335L8.12 3.63l-.49.86c-.503.881-.306 1.946.49 2.641.797.698 2.013.871 3.021.431z" clip-rule="evenodd"/></symbol><symbol fill="none" viewBox="0 0 13 13" id="steer--reviews-verified" xmlns="http://www.w3.org/2000/svg"><path d="M12.71 5.913l-.602-.45a.745.745 0 01-.232-.861l.287-.697a.742.742 0 00-.588-1.01l-.751-.096a.726.726 0 01-.63-.628L10.1 1.42A.743.743 0 009.09.833l-.698.287A.747.747 0 017.53.888L7.065.287a.731.731 0 00-1.161 0L5.466.9a.747.747 0 01-.861.232l-.697-.3a.743.743 0 00-1.01.587l-.096.752a.726.726 0 01-.63.628l-.751.095a.742.742 0 00-.588 1.01l.287.697c.123.3.028.656-.232.86l-.6.465a.73.73 0 000 1.16l.614.451c.259.205.355.56.232.86l-.3.697a.741.741 0 00.587 1.01l.752.096c.327.04.587.3.629.628l.095.751a.743.743 0 001.011.588l.697-.287a.747.747 0 01.862.232l.464.6a.732.732 0 001.162 0l.464-.6a.747.747 0 01.861-.232l.697.287a.743.743 0 001.012-.588l.095-.75a.726.726 0 01.629-.63l.752-.095a.742.742 0 00.588-1.01l-.288-.697a.746.746 0 01.232-.86l.602-.464c.355-.287.355-.86-.028-1.161zm-3.84-.15L6.394 8.235a.702.702 0 01-.505.204.702.702 0 01-.506-.204L4.14 6.992a.709.709 0 010-.997.71.71 0 01.998 0l.738.737 1.996-1.966a.71.71 0 01.997 0 .709.709 0 010 .997z" fill="currentColor" fill-opacity=".6"/></symbol><symbol fill="none" viewBox="0 0 54 34" id="steer--rv" xmlns="http://www.w3.org/2000/svg"><mask id="baa" width="54" height="34" x="-.207" y=".063" fill="#000" maskUnits="userSpaceOnUse"><path fill="currentColor" d="M-.207.063h54v34h-54z"/><path d="M53.294 18.746C52.98 13.503 41.956 1.707 41.48 1.205l-.142-.143H8.955c-4.503 0-8.162 3.66-8.162 8.164v9.548A8.148 8.148 0 008.15 26.9c0 .038.009.086.009.124 0 .047.01.095.01.142.009.057.009.114.018.17.01.048.01.095.02.143l.028.17.028.143c.01.057.029.113.038.17l.029.133c.019.057.028.114.047.17.01.048.028.086.038.133l.057.171c.01.038.028.085.038.123.019.067.047.124.076.19.01.028.028.066.038.095.037.095.085.18.123.275.019.038.038.066.057.104.028.057.057.114.085.161.019.038.047.076.066.114l.086.142c.028.038.047.076.075.124.029.047.057.094.086.132l.085.114a.608.608 0 00.095.123l.085.114c.029.038.067.085.095.123.028.038.066.076.095.114.038.038.066.076.104.114a.54.54 0 00.104.104c.038.038.067.076.105.114l.104.104c.038.038.076.067.114.105.038.038.076.066.114.095.037.038.075.066.113.104.038.028.076.066.114.095.038.028.076.066.123.095l.114.085c.038.028.085.057.123.085.038.029.086.057.123.085.048.029.086.057.133.086.038.028.085.047.123.076.048.028.086.057.133.075a.553.553 0 00.133.067c.047.028.095.047.142.076.047.019.085.047.133.066.047.02.095.047.142.067.047.019.085.037.133.056.047.02.104.038.151.057.048.02.086.038.133.048.047.019.104.038.152.057.047.018.095.028.133.047.056.019.104.028.16.047.048.01.095.029.133.038.057.01.114.029.171.038l.133.029.17.028c.048.01.086.02.133.02l.19.027c.038.01.085.01.123.02.066.009.142.009.209.019.038 0 .075.009.104.009.104.01.218.01.322.01.104 0 .218 0 .322-.01.038 0 .067-.01.105-.01.066 0 .142-.009.208-.018.038 0 .086-.01.124-.02l.19-.028c.047-.01.085-.019.132-.019.057-.01.114-.019.18-.028.047-.01.085-.02.133-.029.057-.01.114-.028.17-.038.048-.01.086-.028.133-.038.057-.019.104-.028.161-.047.048-.01.086-.029.133-.047.057-.02.104-.038.161-.057.048-.02.085-.029.133-.048.047-.019.104-.038.151-.057.048-.019.086-.038.133-.056.048-.02.095-.048.152-.067a.507.507 0 00.123-.066c.048-.029.095-.048.142-.076l.124-.067.142-.085c.038-.028.076-.047.123-.076.047-.028.095-.057.133-.085.038-.028.076-.047.114-.076.047-.028.085-.066.132-.095l.114-.085a.656.656 0 00.123-.104c.038-.029.076-.057.105-.086.037-.038.085-.066.123-.104a.932.932 0 00.104-.095l.114-.114.095-.094c.038-.038.075-.076.113-.124l.095-.095c.038-.037.076-.085.114-.132.028-.038.057-.067.085-.104.038-.048.076-.095.105-.143.028-.028.047-.066.075-.095.038-.047.076-.104.114-.151.02-.029.048-.057.066-.095.038-.066.086-.123.124-.19.01-.019.028-.038.038-.057.047-.085.104-.17.151-.265.02-.029.029-.057.038-.076.029-.066.067-.123.095-.19.02-.037.029-.075.048-.104.028-.057.047-.114.075-.17.02-.039.029-.076.048-.124.019-.057.047-.104.066-.161.02-.038.029-.085.047-.133l.057-.16c.01-.048.029-.086.038-.134.02-.057.029-.104.048-.16.01-.048.019-.096.038-.143.01-.057.028-.104.038-.161l.028-.142.028-.162a.73.73 0 00.02-.142c.009-.057.018-.114.018-.17.01-.048.01-.095.02-.152 0-.029.009-.067.009-.095h11.907c0 .038.01.066.01.095 0 .047.009.095.009.142.01.057.01.114.019.17.01.048.01.095.019.143l.028.17.029.143c.009.057.028.114.037.17.01.048.02.095.038.133.02.057.029.114.048.161.01.048.028.086.038.133.019.057.038.114.057.161.019.038.028.086.047.123.019.057.047.114.066.171.02.038.029.076.048.114.028.057.047.114.076.17.019.039.028.067.047.105.028.066.066.133.104.2.01.027.029.046.038.075.048.085.095.18.152.265.01.02.019.038.038.057.038.067.085.133.133.2a.515.515 0 00.066.085c.038.057.076.104.114.16.028.03.047.067.075.096l.114.142a.863.863 0 00.086.095c.038.047.075.085.113.133.029.028.057.066.095.094.038.038.076.086.114.124l.095.094c.038.038.075.076.123.114a.952.952 0 01.104.095c.038.038.085.076.123.104.038.029.067.057.105.086.038.038.085.066.132.104l.114.085c.048.029.086.067.133.095.038.029.076.048.114.076.047.028.095.057.132.085.038.029.076.048.124.076l.142.085c.038.02.085.048.123.067.047.028.095.047.142.076.038.019.086.038.123.057.048.019.095.047.152.066.048.019.085.038.133.057.047.019.104.038.152.057.047.019.085.038.132.047l.162.057c.047.019.085.028.132.047.057.02.105.029.161.048.048.01.086.028.133.038.057.01.114.028.17.038l.133.028c.057.01.114.02.18.029.048.01.086.019.133.019l.19.028c.038.01.085.01.123.019.066.01.142.01.209.019.038 0 .066.01.104.01.104.009.218.009.322.009.105 0 .218 0 .323-.01.038 0 .066-.009.104-.009.066 0 .142-.01.209-.019.037 0 .085-.01.123-.019l.19-.028c.047-.01.085-.02.132-.02.057-.009.123-.018.18-.028.047-.01.085-.019.133-.028.057-.01.114-.029.17-.038.048-.01.086-.029.133-.038.057-.02.114-.029.161-.047.048-.01.086-.029.133-.038.057-.02.104-.038.161-.057.048-.02.086-.029.133-.048.057-.019.104-.038.161-.066.038-.02.085-.038.123-.057.048-.019.105-.047.152-.066.038-.02.085-.038.123-.057.048-.029.105-.048.152-.076.038-.02.076-.047.123-.067l.142-.085c.038-.019.076-.047.114-.066.048-.029.095-.057.142-.095.038-.028.076-.047.114-.076.048-.028.095-.066.142-.095l.105-.075.132-.105c.038-.028.067-.057.105-.085.047-.038.085-.076.132-.114.029-.028.067-.057.095-.085a.752.752 0 00.123-.124 34.3 34.3 0 00.086-.085c.038-.038.085-.085.123-.133l.085-.085c.038-.047.076-.095.123-.142.029-.029.048-.057.076-.085.038-.048.076-.105.124-.152.019-.029.047-.057.066-.086.038-.056.076-.113.123-.17.02-.029.038-.048.057-.076.047-.067.085-.133.133-.2.01-.018.019-.037.028-.047.105-.17.2-.35.294-.53.01-.02.02-.048.029-.067.028-.066.066-.142.094-.209.01-.028.029-.066.038-.094.029-.057.048-.124.076-.19.01-.038.029-.076.038-.114.019-.057.038-.114.057-.18.01-.038.028-.085.038-.123.019-.057.038-.114.047-.17.01-.048.02-.086.029-.134.01-.056.028-.113.038-.17l.028-.143.029-.17c.009-.048.009-.095.018-.142.01-.057.02-.114.02-.171.009-.047.009-.095.009-.152 0-.038.01-.066.01-.104 4.303-.228 7.735-3.793 7.735-8.154l-.01-.01zm-3.005-4.874H38.95V2.011h1.982c.938 1.014 6.332 6.921 9.356 11.861zm-5.66 12.611v.285c0 .047-.01.104-.01.151 0 .038-.01.086-.01.124-.009.056-.009.104-.018.16-.01.039-.01.077-.019.115l-.029.16c-.009.039-.009.067-.018.105-.01.057-.029.114-.038.161a.336.336 0 00-.02.095c-.018.057-.028.114-.047.17a1.04 1.04 0 00-.028.096c-.02.056-.038.113-.057.17l-.029.086c-.018.056-.047.113-.066.17-.01.029-.019.048-.028.076-.029.057-.048.114-.076.17-.01.02-.02.048-.029.067l-.085.17c-.01.02-.019.048-.038.067-.028.057-.066.114-.095.17-.01.02-.019.039-.038.058-.037.057-.066.113-.104.17a.196.196 0 01-.038.057c-.038.057-.076.105-.114.162a.206.206 0 01-.037.047c-.038.057-.086.104-.124.161-.01.02-.028.029-.038.047-.047.048-.085.105-.132.152-.01.02-.029.029-.038.048a2.242 2.242 0 00-.142.151l-.038.038a2.218 2.218 0 01-.152.143l-.038.037a1.096 1.096 0 01-.161.133l-.038.038a1.84 1.84 0 01-.161.123c-.02.01-.029.029-.048.038-.056.038-.104.076-.16.114-.02.01-.03.029-.048.038-.057.038-.114.076-.17.104-.02.01-.039.02-.048.038-.057.038-.114.067-.17.105l-.058.028-.17.085c-.02.01-.038.02-.067.029-.057.028-.113.057-.17.076-.02.01-.048.019-.067.028a1.262 1.262 0 01-.17.066c-.029.01-.048.02-.076.029l-.17.057c-.03.01-.048.019-.077.028a1.14 1.14 0 01-.17.048l-.086.028a1.015 1.015 0 01-.18.038c-.028.01-.057.01-.085.019-.066.01-.123.019-.19.038-.028 0-.047.01-.075.01l-.19.028c-.029 0-.057.01-.085.01-.067.009-.133.009-.2.018-.028 0-.047 0-.075.01-.095 0-.19.01-.275.01-.086 0-.19 0-.275-.01-.029 0-.048 0-.076-.01-.066 0-.133-.01-.2-.019-.037 0-.066-.01-.103-.01-.057-.009-.114-.009-.171-.018-.038-.01-.066-.01-.095-.02l-.17-.028a1.512 1.512 0 01-.105-.028c-.047-.01-.104-.019-.151-.038-.038-.01-.067-.019-.105-.028-.047-.02-.104-.029-.151-.048-.029-.01-.067-.019-.095-.028l-.161-.057c-.029-.01-.067-.029-.095-.038l-.152-.057c-.028-.01-.057-.028-.085-.038-.048-.019-.104-.047-.152-.066a.406.406 0 01-.085-.048c-.048-.028-.104-.047-.152-.076-.028-.009-.047-.028-.076-.047-.047-.028-.104-.057-.151-.085-.029-.02-.048-.029-.076-.048a1.233 1.233 0 01-.142-.095c-.029-.018-.048-.037-.076-.047-.048-.038-.095-.066-.142-.104-.02-.02-.048-.038-.067-.057a1.28 1.28 0 00-.142-.104l-.057-.057a1.627 1.627 0 01-.133-.114l-.056-.057c-.048-.038-.086-.085-.133-.123l-.057-.057c-.038-.047-.085-.085-.123-.133a.242.242 0 01-.048-.057c-.038-.047-.085-.095-.123-.142a.29.29 0 01-.047-.066l-.114-.143a.284.284 0 01-.047-.066c-.038-.047-.067-.095-.105-.142-.019-.029-.028-.048-.047-.076-.029-.047-.067-.095-.095-.142l-.047-.076a2.127 2.127 0 01-.086-.152c-.01-.028-.028-.057-.038-.076a1.141 1.141 0 01-.075-.151c-.01-.029-.029-.057-.038-.086-.029-.057-.048-.104-.076-.16a.332.332 0 00-.038-.086c-.02-.057-.048-.104-.067-.161l-.028-.095c-.019-.057-.038-.104-.057-.161-.01-.029-.019-.067-.028-.105-.02-.057-.029-.104-.048-.16-.01-.039-.019-.067-.028-.105-.01-.057-.029-.104-.038-.161-.01-.038-.01-.076-.019-.114-.01-.048-.019-.105-.029-.152-.009-.038-.009-.076-.018-.114a.828.828 0 01-.02-.151c0-.038-.009-.086-.009-.124 0-.047-.01-.104-.01-.151V26.483a5.448 5.448 0 015.442-5.442c2.996 0 5.442 2.436 5.442 5.433l-.038.01zM32.807 26h-11.83V14.82h17.025v5.367A6.421 6.421 0 0032.807 26zm-12.845.625v.133c0 .048-.01.095-.01.142 0 .048-.01.086-.01.133-.009.047-.009.095-.018.142-.01.048-.01.086-.02.133l-.028.133c-.01.047-.019.085-.028.133l-.028.132c-.01.048-.02.086-.029.133-.01.048-.028.085-.038.133-.01.038-.019.085-.038.123-.01.047-.028.085-.047.133-.01.038-.029.085-.038.123-.02.038-.029.085-.047.123-.02.038-.029.086-.048.124-.019.038-.038.085-.057.123a1.525 1.525 0 00-.057.123 1.616 1.616 0 00-.057.123l-.056.114c-.02.038-.048.076-.067.123a.415.415 0 01-.066.105c-.029.038-.048.076-.076.123-.019.038-.047.066-.066.104a.797.797 0 00-.076.114l-.076.104c-.029.038-.057.076-.085.105-.029.028-.048.066-.076.094a1.002 1.002 0 01-.095.105.668.668 0 00-.076.095c-.028.038-.066.066-.095.104l-.085.085c-.038.038-.066.067-.104.095l-.086.085c-.037.029-.075.067-.113.095-.029.029-.057.048-.086.076-.038.028-.076.066-.123.095-.028.019-.057.047-.085.066a1.455 1.455 0 01-.123.086c-.029.019-.057.047-.095.066-.038.028-.076.047-.123.076-.038.019-.067.047-.105.066-.038.029-.085.048-.133.076-.028.019-.066.038-.094.057a.954.954 0 01-.143.066.442.442 0 01-.094.048c-.048.019-.095.047-.142.066a.447.447 0 00-.095.048l-.142.056c-.038.01-.067.029-.105.038a.685.685 0 01-.151.048c-.038.01-.067.028-.105.038-.047.019-.104.028-.151.047-.038.01-.067.02-.105.029-.057.009-.104.028-.16.037-.039.01-.067.02-.105.029l-.161.028c-.038.01-.067.01-.105.02-.047.009-.094.009-.142.018-.038.01-.085.01-.123.02-.057.009-.104.009-.161.009-.038 0-.076.01-.114.01-.095 0-.19.009-.284.009-.095 0-.19 0-.285-.01-.028 0-.047 0-.076-.01-.066 0-.132-.009-.199-.018-.047 0-.085-.01-.132-.02-.048-.009-.095-.009-.143-.018a2.742 2.742 0 00-.151-.029c-.038-.01-.076-.01-.123-.019-.067-.009-.133-.028-.2-.047-.019-.01-.037-.01-.056-.01l-.2-.056c-.018-.01-.037-.01-.056-.02-.076-.028-.162-.047-.238-.075-.009 0-.009 0-.018-.01l-.228-.085c-.01 0-.019-.01-.019-.01-.076-.037-.161-.066-.237-.104l-.227-.113h-.01a5.524 5.524 0 01-2.057-1.963 1.705 1.705 0 01-.123-.218l-.01-.01a2.15 2.15 0 01-.104-.208c0-.01-.01-.02-.01-.029-.028-.066-.066-.133-.094-.209-.01-.009-.01-.018-.02-.037a1.716 1.716 0 01-.075-.2c-.01-.019-.01-.028-.02-.047-.018-.066-.047-.133-.065-.19-.01-.018-.01-.038-.02-.056-.018-.067-.037-.124-.056-.19-.01-.02-.01-.047-.02-.067a1.008 1.008 0 01-.037-.18c-.01-.028-.01-.056-.02-.085l-.028-.17c-.01-.039-.01-.067-.019-.105-.009-.047-.009-.104-.019-.152-.009-.038-.009-.076-.018-.113-.01-.048-.01-.095-.01-.152 0-.038-.01-.085-.01-.123v-.285a5.448 5.448 0 015.442-5.442 5.448 5.448 0 015.442 5.442v.01c.01.019 0 .066 0 .113zm1.014-12.753V2.011h17.026v11.861H20.976zM8.956 2.011h11.063v11.861H1.74V9.226c0-3.973 3.242-7.215 7.214-7.215zM1.74 18.775V14.82h18.287v8.4a6.404 6.404 0 00-5.498-3.138c-3.347 0-6.096 2.589-6.371 5.87a7.204 7.204 0 01-6.418-7.178zm43.807 7.206c-.256-3.3-3.014-5.898-6.37-5.898-.076 0-.152 0-.237.01V14.83h11.907c.853 1.517 1.431 2.911 1.498 3.964a7.224 7.224 0 01-6.798 7.187z"/></mask><path fill="currentColor" d="M53.294 18.746C52.98 13.503 41.956 1.707 41.48 1.205l-.142-.143H8.955c-4.503 0-8.162 3.66-8.162 8.164v9.548A8.148 8.148 0 008.15 26.9c0 .038.009.086.009.124 0 .047.01.095.01.142.009.057.009.114.018.17.01.048.01.095.02.143l.028.17.028.143c.01.057.029.113.038.17l.029.133c.019.057.028.114.047.17.01.048.028.086.038.133l.057.171c.01.038.028.085.038.123.019.067.047.124.076.19.01.028.028.066.038.095.037.095.085.18.123.275.019.038.038.066.057.104.028.057.057.114.085.161.019.038.047.076.066.114l.086.142c.028.038.047.076.075.124.029.047.057.094.086.132l.085.114a.608.608 0 00.095.123l.085.114c.029.038.067.085.095.123.028.038.066.076.095.114.038.038.066.076.104.114a.54.54 0 00.104.104c.038.038.067.076.105.114l.104.104c.038.038.076.067.114.105.038.038.076.066.114.095.037.038.075.066.113.104.038.028.076.066.114.095.038.028.076.066.123.095l.114.085c.038.028.085.057.123.085.038.029.086.057.123.085.048.029.086.057.133.086.038.028.085.047.123.076.048.028.086.057.133.075a.553.553 0 00.133.067c.047.028.095.047.142.076.047.019.085.047.133.066.047.02.095.047.142.067.047.019.085.037.133.056.047.02.104.038.151.057.048.02.086.038.133.048.047.019.104.038.152.057.047.018.095.028.133.047.056.019.104.028.16.047.048.01.095.029.133.038.057.01.114.029.171.038l.133.029.17.028c.048.01.086.02.133.02l.19.027c.038.01.085.01.123.02.066.009.142.009.209.019.038 0 .075.009.104.009.104.01.218.01.322.01.104 0 .218 0 .322-.01.038 0 .067-.01.105-.01.066 0 .142-.009.208-.018.038 0 .086-.01.124-.02l.19-.028c.047-.01.085-.019.132-.019.057-.01.114-.019.18-.028.047-.01.085-.02.133-.029.057-.01.114-.028.17-.038.048-.01.086-.028.133-.038.057-.019.104-.028.161-.047.048-.01.086-.029.133-.047.057-.02.104-.038.161-.057.048-.02.085-.029.133-.048.047-.019.104-.038.151-.057.048-.019.086-.038.133-.056.048-.02.095-.048.152-.067a.507.507 0 00.123-.066c.048-.029.095-.048.142-.076l.124-.067.142-.085c.038-.028.076-.047.123-.076.047-.028.095-.057.133-.085.038-.028.076-.047.114-.076.047-.028.085-.066.132-.095l.114-.085a.656.656 0 00.123-.104c.038-.029.076-.057.105-.086.037-.038.085-.066.123-.104a.932.932 0 00.104-.095l.114-.114.095-.094c.038-.038.075-.076.113-.124l.095-.095c.038-.037.076-.085.114-.132.028-.038.057-.067.085-.104.038-.048.076-.095.105-.143.028-.028.047-.066.075-.095.038-.047.076-.104.114-.151.02-.029.048-.057.066-.095.038-.066.086-.123.124-.19.01-.019.028-.038.038-.057.047-.085.104-.17.151-.265.02-.029.029-.057.038-.076.029-.066.067-.123.095-.19.02-.037.029-.075.048-.104.028-.057.047-.114.075-.17.02-.039.029-.076.048-.124.019-.057.047-.104.066-.161.02-.038.029-.085.047-.133l.057-.16c.01-.048.029-.086.038-.134.02-.057.029-.104.048-.16.01-.048.019-.096.038-.143.01-.057.028-.104.038-.161l.028-.142.028-.162a.73.73 0 00.02-.142c.009-.057.018-.114.018-.17.01-.048.01-.095.02-.152 0-.029.009-.067.009-.095h11.907c0 .038.01.066.01.095 0 .047.009.095.009.142.01.057.01.114.019.17.01.048.01.095.019.143l.028.17.029.143c.009.057.028.114.037.17.01.048.02.095.038.133.02.057.029.114.048.161.01.048.028.086.038.133.019.057.038.114.057.161.019.038.028.086.047.123.019.057.047.114.066.171.02.038.029.076.048.114.028.057.047.114.076.17.019.039.028.067.047.105.028.066.066.133.104.2.01.027.029.046.038.075.048.085.095.18.152.265.01.02.019.038.038.057.038.067.085.133.133.2a.515.515 0 00.066.085c.038.057.076.104.114.16.028.03.047.067.075.096l.114.142a.863.863 0 00.086.095c.038.047.075.085.113.133.029.028.057.066.095.094.038.038.076.086.114.124l.095.094c.038.038.075.076.123.114a.952.952 0 01.104.095c.038.038.085.076.123.104.038.029.067.057.105.086.038.038.085.066.132.104l.114.085c.048.029.086.067.133.095.038.029.076.048.114.076.047.028.095.057.132.085.038.029.076.048.124.076l.142.085c.038.02.085.048.123.067.047.028.095.047.142.076.038.019.086.038.123.057.048.019.095.047.152.066.048.019.085.038.133.057.047.019.104.038.152.057.047.019.085.038.132.047l.162.057c.047.019.085.028.132.047.057.02.105.029.161.048.048.01.086.028.133.038.057.01.114.028.17.038l.133.028c.057.01.114.02.18.029.048.01.086.019.133.019l.19.028c.038.01.085.01.123.019.066.01.142.01.209.019.038 0 .066.01.104.01.104.009.218.009.322.009.105 0 .218 0 .323-.01.038 0 .066-.009.104-.009.066 0 .142-.01.209-.019.037 0 .085-.01.123-.019l.19-.028c.047-.01.085-.02.132-.02.057-.009.123-.018.18-.028.047-.01.085-.019.133-.028.057-.01.114-.029.17-.038.048-.01.086-.029.133-.038.057-.02.114-.029.161-.047.048-.01.086-.029.133-.038.057-.02.104-.038.161-.057.048-.02.086-.029.133-.048.057-.019.104-.038.161-.066.038-.02.085-.038.123-.057.048-.019.105-.047.152-.066.038-.02.085-.038.123-.057.048-.029.105-.048.152-.076.038-.02.076-.047.123-.067l.142-.085c.038-.019.076-.047.114-.066.048-.029.095-.057.142-.095.038-.028.076-.047.114-.076.048-.028.095-.066.142-.095l.105-.075.132-.105c.038-.028.067-.057.105-.085.047-.038.085-.076.132-.114.029-.028.067-.057.095-.085a.752.752 0 00.123-.124 34.3 34.3 0 00.086-.085c.038-.038.085-.085.123-.133l.085-.085c.038-.047.076-.095.123-.142.029-.029.048-.057.076-.085.038-.048.076-.105.124-.152.019-.029.047-.057.066-.086.038-.056.076-.113.123-.17.02-.029.038-.048.057-.076.047-.067.085-.133.133-.2.01-.018.019-.037.028-.047.105-.17.2-.35.294-.53.01-.02.02-.048.029-.067.028-.066.066-.142.094-.209.01-.028.029-.066.038-.094.029-.057.048-.124.076-.19.01-.038.029-.076.038-.114.019-.057.038-.114.057-.18.01-.038.028-.085.038-.123.019-.057.038-.114.047-.17.01-.048.02-.086.029-.134.01-.056.028-.113.038-.17l.028-.143.029-.17c.009-.048.009-.095.018-.142.01-.057.02-.114.02-.171.009-.047.009-.095.009-.152 0-.038.01-.066.01-.104 4.303-.228 7.735-3.793 7.735-8.154l-.01-.01zm-3.005-4.874H38.95V2.011h1.982c.938 1.014 6.332 6.921 9.356 11.861zm-5.66 12.611v.285c0 .047-.01.104-.01.151 0 .038-.01.086-.01.124-.009.056-.009.104-.018.16-.01.039-.01.077-.019.115l-.029.16c-.009.039-.009.067-.018.105-.01.057-.029.114-.038.161a.336.336 0 00-.02.095c-.018.057-.028.114-.047.17a1.04 1.04 0 00-.028.096c-.02.056-.038.113-.057.17l-.029.086c-.018.056-.047.113-.066.17-.01.029-.019.048-.028.076-.029.057-.048.114-.076.17-.01.02-.02.048-.029.067l-.085.17c-.01.02-.019.048-.038.067-.028.057-.066.114-.095.17-.01.02-.019.039-.038.058-.037.057-.066.113-.104.17a.196.196 0 01-.038.057c-.038.057-.076.105-.114.162a.206.206 0 01-.037.047c-.038.057-.086.104-.124.161-.01.02-.028.029-.038.047-.047.048-.085.105-.132.152-.01.02-.029.029-.038.048a2.242 2.242 0 00-.142.151l-.038.038a2.218 2.218 0 01-.152.143l-.038.037a1.096 1.096 0 01-.161.133l-.038.038a1.84 1.84 0 01-.161.123c-.02.01-.029.029-.048.038-.056.038-.104.076-.16.114-.02.01-.03.029-.048.038-.057.038-.114.076-.17.104-.02.01-.039.02-.048.038-.057.038-.114.067-.17.105l-.058.028-.17.085c-.02.01-.038.02-.067.029-.057.028-.113.057-.17.076-.02.01-.048.019-.067.028a1.262 1.262 0 01-.17.066c-.029.01-.048.02-.076.029l-.17.057c-.03.01-.048.019-.077.028a1.14 1.14 0 01-.17.048l-.086.028a1.015 1.015 0 01-.18.038c-.028.01-.057.01-.085.019-.066.01-.123.019-.19.038-.028 0-.047.01-.075.01l-.19.028c-.029 0-.057.01-.085.01-.067.009-.133.009-.2.018-.028 0-.047 0-.075.01-.095 0-.19.01-.275.01-.086 0-.19 0-.275-.01-.029 0-.048 0-.076-.01-.066 0-.133-.01-.2-.019-.037 0-.066-.01-.103-.01-.057-.009-.114-.009-.171-.018-.038-.01-.066-.01-.095-.02l-.17-.028a1.512 1.512 0 01-.105-.028c-.047-.01-.104-.019-.151-.038-.038-.01-.067-.019-.105-.028-.047-.02-.104-.029-.151-.048-.029-.01-.067-.019-.095-.028l-.161-.057c-.029-.01-.067-.029-.095-.038l-.152-.057c-.028-.01-.057-.028-.085-.038-.048-.019-.104-.047-.152-.066a.406.406 0 01-.085-.048c-.048-.028-.104-.047-.152-.076-.028-.009-.047-.028-.076-.047-.047-.028-.104-.057-.151-.085-.029-.02-.048-.029-.076-.048a1.233 1.233 0 01-.142-.095c-.029-.018-.048-.037-.076-.047-.048-.038-.095-.066-.142-.104-.02-.02-.048-.038-.067-.057a1.28 1.28 0 00-.142-.104l-.057-.057a1.627 1.627 0 01-.133-.114l-.056-.057c-.048-.038-.086-.085-.133-.123l-.057-.057c-.038-.047-.085-.085-.123-.133a.242.242 0 01-.048-.057c-.038-.047-.085-.095-.123-.142a.29.29 0 01-.047-.066l-.114-.143a.284.284 0 01-.047-.066c-.038-.047-.067-.095-.105-.142-.019-.029-.028-.048-.047-.076-.029-.047-.067-.095-.095-.142l-.047-.076a2.127 2.127 0 01-.086-.152c-.01-.028-.028-.057-.038-.076a1.141 1.141 0 01-.075-.151c-.01-.029-.029-.057-.038-.086-.029-.057-.048-.104-.076-.16a.332.332 0 00-.038-.086c-.02-.057-.048-.104-.067-.161l-.028-.095c-.019-.057-.038-.104-.057-.161-.01-.029-.019-.067-.028-.105-.02-.057-.029-.104-.048-.16-.01-.039-.019-.067-.028-.105-.01-.057-.029-.104-.038-.161-.01-.038-.01-.076-.019-.114-.01-.048-.019-.105-.029-.152-.009-.038-.009-.076-.018-.114a.828.828 0 01-.02-.151c0-.038-.009-.086-.009-.124 0-.047-.01-.104-.01-.151V26.483a5.448 5.448 0 015.442-5.442c2.996 0 5.442 2.436 5.442 5.433l-.038.01zM32.807 26h-11.83V14.82h17.025v5.367A6.421 6.421 0 0032.807 26zm-12.845.625v.133c0 .048-.01.095-.01.142 0 .048-.01.086-.01.133-.009.047-.009.095-.018.142-.01.048-.01.086-.02.133l-.028.133c-.01.047-.019.085-.028.133l-.028.132c-.01.048-.02.086-.029.133-.01.048-.028.085-.038.133-.01.038-.019.085-.038.123-.01.047-.028.085-.047.133-.01.038-.029.085-.038.123-.02.038-.029.085-.047.123-.02.038-.029.086-.048.124-.019.038-.038.085-.057.123a1.525 1.525 0 00-.057.123 1.616 1.616 0 00-.057.123l-.056.114c-.02.038-.048.076-.067.123a.415.415 0 01-.066.105c-.029.038-.048.076-.076.123-.019.038-.047.066-.066.104a.797.797 0 00-.076.114l-.076.104c-.029.038-.057.076-.085.105-.029.028-.048.066-.076.094a1.002 1.002 0 01-.095.105.668.668 0 00-.076.095c-.028.038-.066.066-.095.104l-.085.085c-.038.038-.066.067-.104.095l-.086.085c-.037.029-.075.067-.113.095-.029.029-.057.048-.086.076-.038.028-.076.066-.123.095-.028.019-.057.047-.085.066a1.455 1.455 0 01-.123.086c-.029.019-.057.047-.095.066-.038.028-.076.047-.123.076-.038.019-.067.047-.105.066-.038.029-.085.048-.133.076-.028.019-.066.038-.094.057a.954.954 0 01-.143.066.442.442 0 01-.094.048c-.048.019-.095.047-.142.066a.447.447 0 00-.095.048l-.142.056c-.038.01-.067.029-.105.038a.685.685 0 01-.151.048c-.038.01-.067.028-.105.038-.047.019-.104.028-.151.047-.038.01-.067.02-.105.029-.057.009-.104.028-.16.037-.039.01-.067.02-.105.029l-.161.028c-.038.01-.067.01-.105.02-.047.009-.094.009-.142.018-.038.01-.085.01-.123.02-.057.009-.104.009-.161.009-.038 0-.076.01-.114.01-.095 0-.19.009-.284.009-.095 0-.19 0-.285-.01-.028 0-.047 0-.076-.01-.066 0-.132-.009-.199-.018-.047 0-.085-.01-.132-.02-.048-.009-.095-.009-.143-.018a2.742 2.742 0 00-.151-.029c-.038-.01-.076-.01-.123-.019-.067-.009-.133-.028-.2-.047-.019-.01-.037-.01-.056-.01l-.2-.056c-.018-.01-.037-.01-.056-.02-.076-.028-.162-.047-.238-.075-.009 0-.009 0-.018-.01l-.228-.085c-.01 0-.019-.01-.019-.01-.076-.037-.161-.066-.237-.104l-.227-.113h-.01a5.524 5.524 0 01-2.057-1.963 1.705 1.705 0 01-.123-.218l-.01-.01a2.15 2.15 0 01-.104-.208c0-.01-.01-.02-.01-.029-.028-.066-.066-.133-.094-.209-.01-.009-.01-.018-.02-.037a1.716 1.716 0 01-.075-.2c-.01-.019-.01-.028-.02-.047-.018-.066-.047-.133-.065-.19-.01-.018-.01-.038-.02-.056-.018-.067-.037-.124-.056-.19-.01-.02-.01-.047-.02-.067a1.008 1.008 0 01-.037-.18c-.01-.028-.01-.056-.02-.085l-.028-.17c-.01-.039-.01-.067-.019-.105-.009-.047-.009-.104-.019-.152-.009-.038-.009-.076-.018-.113-.01-.048-.01-.095-.01-.152 0-.038-.01-.085-.01-.123v-.285a5.448 5.448 0 015.442-5.442 5.448 5.448 0 015.442 5.442v.01c.01.019 0 .066 0 .113zm1.014-12.753V2.011h17.026v11.861H20.976zM8.956 2.011h11.063v11.861H1.74V9.226c0-3.973 3.242-7.215 7.214-7.215zM1.74 18.775V14.82h18.287v8.4a6.404 6.404 0 00-5.498-3.138c-3.347 0-6.096 2.589-6.371 5.87a7.204 7.204 0 01-6.418-7.178zm43.807 7.206c-.256-3.3-3.014-5.898-6.37-5.898-.076 0-.152 0-.237.01V14.83h11.907c.853 1.517 1.431 2.911 1.498 3.964a7.224 7.224 0 01-6.798 7.187z"/><path stroke="currentColor" stroke-width=".5" d="M53.294 18.746C52.98 13.503 41.956 1.707 41.48 1.205l-.142-.143H8.955c-4.503 0-8.162 3.66-8.162 8.164v9.548A8.148 8.148 0 008.15 26.9c0 .038.009.086.009.124 0 .047.01.095.01.142.009.057.009.114.018.17.01.048.01.095.02.143l.028.17.028.143c.01.057.029.113.038.17l.029.133c.019.057.028.114.047.17.01.048.028.086.038.133l.057.171c.01.038.028.085.038.123.019.067.047.124.076.19.01.028.028.066.038.095.037.095.085.18.123.275.019.038.038.066.057.104.028.057.057.114.085.161.019.038.047.076.066.114l.086.142c.028.038.047.076.075.124.029.047.057.094.086.132l.085.114a.608.608 0 00.095.123l.085.114c.029.038.067.085.095.123.028.038.066.076.095.114.038.038.066.076.104.114a.54.54 0 00.104.104c.038.038.067.076.105.114l.104.104c.038.038.076.067.114.105.038.038.076.066.114.095.037.038.075.066.113.104.038.028.076.066.114.095.038.028.076.066.123.095l.114.085c.038.028.085.057.123.085.038.029.086.057.123.085.048.029.086.057.133.086.038.028.085.047.123.076.048.028.086.057.133.075a.553.553 0 00.133.067c.047.028.095.047.142.076.047.019.085.047.133.066.047.02.095.047.142.067.047.019.085.037.133.056.047.02.104.038.151.057.048.02.086.038.133.048.047.019.104.038.152.057.047.018.095.028.133.047.056.019.104.028.16.047.048.01.095.029.133.038.057.01.114.029.171.038l.133.029.17.028c.048.01.086.02.133.02l.19.027c.038.01.085.01.123.02.066.009.142.009.209.019.038 0 .075.009.104.009.104.01.218.01.322.01.104 0 .218 0 .322-.01.038 0 .067-.01.105-.01.066 0 .142-.009.208-.018.038 0 .086-.01.124-.02l.19-.028c.047-.01.085-.019.132-.019.057-.01.114-.019.18-.028.047-.01.085-.02.133-.029.057-.01.114-.028.17-.038.048-.01.086-.028.133-.038.057-.019.104-.028.161-.047.048-.01.086-.029.133-.047.057-.02.104-.038.161-.057.048-.02.085-.029.133-.048.047-.019.104-.038.151-.057.048-.019.086-.038.133-.056.048-.02.095-.048.152-.067a.507.507 0 00.123-.066c.048-.029.095-.048.142-.076l.124-.067.142-.085c.038-.028.076-.047.123-.076.047-.028.095-.057.133-.085.038-.028.076-.047.114-.076.047-.028.085-.066.132-.095l.114-.085a.656.656 0 00.123-.104c.038-.029.076-.057.105-.086.037-.038.085-.066.123-.104a.932.932 0 00.104-.095l.114-.114.095-.094c.038-.038.075-.076.113-.124l.095-.095c.038-.037.076-.085.114-.132.028-.038.057-.067.085-.104.038-.048.076-.095.105-.143.028-.028.047-.066.075-.095.038-.047.076-.104.114-.151.02-.029.048-.057.066-.095.038-.066.086-.123.124-.19.01-.019.028-.038.038-.057.047-.085.104-.17.151-.265.02-.029.029-.057.038-.076.029-.066.067-.123.095-.19.02-.037.029-.075.048-.104.028-.057.047-.114.075-.17.02-.039.029-.076.048-.124.019-.057.047-.104.066-.161.02-.038.029-.085.047-.133l.057-.16c.01-.048.029-.086.038-.134.02-.057.029-.104.048-.16.01-.048.019-.096.038-.143.01-.057.028-.104.038-.161l.028-.142.028-.162a.73.73 0 00.02-.142c.009-.057.018-.114.018-.17.01-.048.01-.095.02-.152 0-.029.009-.067.009-.095h11.907c0 .038.01.066.01.095 0 .047.009.095.009.142.01.057.01.114.019.17.01.048.01.095.019.143l.028.17.029.143c.009.057.028.114.037.17.01.048.02.095.038.133.02.057.029.114.048.161.01.048.028.086.038.133.019.057.038.114.057.161.019.038.028.086.047.123.019.057.047.114.066.171.02.038.029.076.048.114.028.057.047.114.076.17.019.039.028.067.047.105.028.066.066.133.104.2.01.027.029.046.038.075.048.085.095.18.152.265.01.02.019.038.038.057.038.067.085.133.133.2a.515.515 0 00.066.085c.038.057.076.104.114.16.028.03.047.067.075.096l.114.142a.863.863 0 00.086.095c.038.047.075.085.113.133.029.028.057.066.095.094.038.038.076.086.114.124l.095.094c.038.038.075.076.123.114a.952.952 0 01.104.095c.038.038.085.076.123.104.038.029.067.057.105.086.038.038.085.066.132.104l.114.085c.048.029.086.067.133.095.038.029.076.048.114.076.047.028.095.057.132.085.038.029.076.048.124.076l.142.085c.038.02.085.048.123.067.047.028.095.047.142.076.038.019.086.038.123.057.048.019.095.047.152.066.048.019.085.038.133.057.047.019.104.038.152.057.047.019.085.038.132.047l.162.057c.047.019.085.028.132.047.057.02.105.029.161.048.048.01.086.028.133.038.057.01.114.028.17.038l.133.028c.057.01.114.02.18.029.048.01.086.019.133.019l.19.028c.038.01.085.01.123.019.066.01.142.01.209.019.038 0 .066.01.104.01.104.009.218.009.322.009.105 0 .218 0 .323-.01.038 0 .066-.009.104-.009.066 0 .142-.01.209-.019.037 0 .085-.01.123-.019l.19-.028c.047-.01.085-.02.132-.02.057-.009.123-.018.18-.028.047-.01.085-.019.133-.028.057-.01.114-.029.17-.038.048-.01.086-.029.133-.038.057-.02.114-.029.161-.047.048-.01.086-.029.133-.038.057-.02.104-.038.161-.057.048-.02.086-.029.133-.048.057-.019.104-.038.161-.066.038-.02.085-.038.123-.057.048-.019.105-.047.152-.066.038-.02.085-.038.123-.057.048-.029.105-.048.152-.076.038-.02.076-.047.123-.067l.142-.085c.038-.019.076-.047.114-.066.048-.029.095-.057.142-.095.038-.028.076-.047.114-.076.048-.028.095-.066.142-.095l.105-.075.132-.105c.038-.028.067-.057.105-.085.047-.038.085-.076.132-.114.029-.028.067-.057.095-.085a.752.752 0 00.123-.124 34.3 34.3 0 00.086-.085c.038-.038.085-.085.123-.133l.085-.085c.038-.047.076-.095.123-.142.029-.029.048-.057.076-.085.038-.048.076-.105.124-.152.019-.029.047-.057.066-.086.038-.056.076-.113.123-.17.02-.029.038-.048.057-.076.047-.067.085-.133.133-.2.01-.018.019-.037.028-.047.105-.17.2-.35.294-.53.01-.02.02-.048.029-.067.028-.066.066-.142.094-.209.01-.028.029-.066.038-.094.029-.057.048-.124.076-.19.01-.038.029-.076.038-.114.019-.057.038-.114.057-.18.01-.038.028-.085.038-.123.019-.057.038-.114.047-.17.01-.048.02-.086.029-.134.01-.056.028-.113.038-.17l.028-.143.029-.17c.009-.048.009-.095.018-.142.01-.057.02-.114.02-.171.009-.047.009-.095.009-.152 0-.038.01-.066.01-.104 4.303-.228 7.735-3.793 7.735-8.154l-.01-.01zm-3.005-4.874H38.95V2.011h1.982c.938 1.014 6.332 6.921 9.356 11.861zm-5.66 12.611v.285c0 .047-.01.104-.01.151 0 .038-.01.086-.01.124-.009.056-.009.104-.018.16-.01.039-.01.077-.019.115l-.029.16c-.009.039-.009.067-.018.105-.01.057-.029.114-.038.161a.336.336 0 00-.02.095c-.018.057-.028.114-.047.17a1.04 1.04 0 00-.028.096c-.02.056-.038.113-.057.17l-.029.086c-.018.056-.047.113-.066.17-.01.029-.019.048-.028.076-.029.057-.048.114-.076.17-.01.02-.02.048-.029.067l-.085.17c-.01.02-.019.048-.038.067-.028.057-.066.114-.095.17-.01.02-.019.039-.038.058-.037.057-.066.113-.104.17a.196.196 0 01-.038.057c-.038.057-.076.105-.114.162a.206.206 0 01-.037.047c-.038.057-.086.104-.124.161-.01.02-.028.029-.038.047-.047.048-.085.105-.132.152-.01.02-.029.029-.038.048a2.242 2.242 0 00-.142.151l-.038.038a2.218 2.218 0 01-.152.143l-.038.037a1.096 1.096 0 01-.161.133l-.038.038a1.84 1.84 0 01-.161.123c-.02.01-.029.029-.048.038-.056.038-.104.076-.16.114-.02.01-.03.029-.048.038-.057.038-.114.076-.17.104-.02.01-.039.02-.048.038-.057.038-.114.067-.17.105l-.058.028-.17.085c-.02.01-.038.02-.067.029-.057.028-.113.057-.17.076-.02.01-.048.019-.067.028a1.262 1.262 0 01-.17.066c-.029.01-.048.02-.076.029l-.17.057c-.03.01-.048.019-.077.028a1.14 1.14 0 01-.17.048l-.086.028a1.015 1.015 0 01-.18.038c-.028.01-.057.01-.085.019-.066.01-.123.019-.19.038-.028 0-.047.01-.075.01l-.19.028c-.029 0-.057.01-.085.01-.067.009-.133.009-.2.018-.028 0-.047 0-.075.01-.095 0-.19.01-.275.01-.086 0-.19 0-.275-.01-.029 0-.048 0-.076-.01-.066 0-.133-.01-.2-.019-.037 0-.066-.01-.103-.01-.057-.009-.114-.009-.171-.018-.038-.01-.066-.01-.095-.02l-.17-.028a1.512 1.512 0 01-.105-.028c-.047-.01-.104-.019-.151-.038-.038-.01-.067-.019-.105-.028-.047-.02-.104-.029-.151-.048-.029-.01-.067-.019-.095-.028l-.161-.057c-.029-.01-.067-.029-.095-.038l-.152-.057c-.028-.01-.057-.028-.085-.038-.048-.019-.104-.047-.152-.066a.406.406 0 01-.085-.048c-.048-.028-.104-.047-.152-.076-.028-.009-.047-.028-.076-.047-.047-.028-.104-.057-.151-.085-.029-.02-.048-.029-.076-.048a1.233 1.233 0 01-.142-.095c-.029-.018-.048-.037-.076-.047-.048-.038-.095-.066-.142-.104-.02-.02-.048-.038-.067-.057a1.28 1.28 0 00-.142-.104l-.057-.057a1.627 1.627 0 01-.133-.114l-.056-.057c-.048-.038-.086-.085-.133-.123l-.057-.057c-.038-.047-.085-.085-.123-.133a.242.242 0 01-.048-.057c-.038-.047-.085-.095-.123-.142a.29.29 0 01-.047-.066l-.114-.143a.284.284 0 01-.047-.066c-.038-.047-.067-.095-.105-.142-.019-.029-.028-.048-.047-.076-.029-.047-.067-.095-.095-.142l-.047-.076a2.127 2.127 0 01-.086-.152c-.01-.028-.028-.057-.038-.076a1.141 1.141 0 01-.075-.151c-.01-.029-.029-.057-.038-.086-.029-.057-.048-.104-.076-.16a.332.332 0 00-.038-.086c-.02-.057-.048-.104-.067-.161l-.028-.095c-.019-.057-.038-.104-.057-.161-.01-.029-.019-.067-.028-.105-.02-.057-.029-.104-.048-.16-.01-.039-.019-.067-.028-.105-.01-.057-.029-.104-.038-.161-.01-.038-.01-.076-.019-.114-.01-.048-.019-.105-.029-.152-.009-.038-.009-.076-.018-.114a.828.828 0 01-.02-.151c0-.038-.009-.086-.009-.124 0-.047-.01-.104-.01-.151V26.483a5.448 5.448 0 015.442-5.442c2.996 0 5.442 2.436 5.442 5.433l-.038.01zM32.807 26h-11.83V14.82h17.025v5.367A6.421 6.421 0 0032.807 26zm-12.845.625v.133c0 .048-.01.095-.01.142 0 .048-.01.086-.01.133-.009.047-.009.095-.018.142-.01.048-.01.086-.02.133l-.028.133c-.01.047-.019.085-.028.133l-.028.132c-.01.048-.02.086-.029.133-.01.048-.028.085-.038.133-.01.038-.019.085-.038.123-.01.047-.028.085-.047.133-.01.038-.029.085-.038.123-.02.038-.029.085-.047.123-.02.038-.029.086-.048.124-.019.038-.038.085-.057.123a1.525 1.525 0 00-.057.123 1.616 1.616 0 00-.057.123l-.056.114c-.02.038-.048.076-.067.123a.415.415 0 01-.066.105c-.029.038-.048.076-.076.123-.019.038-.047.066-.066.104a.797.797 0 00-.076.114l-.076.104c-.029.038-.057.076-.085.105-.029.028-.048.066-.076.094a1.002 1.002 0 01-.095.105.668.668 0 00-.076.095c-.028.038-.066.066-.095.104l-.085.085c-.038.038-.066.067-.104.095l-.086.085c-.037.029-.075.067-.113.095-.029.029-.057.048-.086.076-.038.028-.076.066-.123.095-.028.019-.057.047-.085.066a1.455 1.455 0 01-.123.086c-.029.019-.057.047-.095.066-.038.028-.076.047-.123.076-.038.019-.067.047-.105.066-.038.029-.085.048-.133.076-.028.019-.066.038-.094.057a.954.954 0 01-.143.066.442.442 0 01-.094.048c-.048.019-.095.047-.142.066a.447.447 0 00-.095.048l-.142.056c-.038.01-.067.029-.105.038a.685.685 0 01-.151.048c-.038.01-.067.028-.105.038-.047.019-.104.028-.151.047-.038.01-.067.02-.105.029-.057.009-.104.028-.16.037-.039.01-.067.02-.105.029l-.161.028c-.038.01-.067.01-.105.02-.047.009-.094.009-.142.018-.038.01-.085.01-.123.02-.057.009-.104.009-.161.009-.038 0-.076.01-.114.01-.095 0-.19.009-.284.009-.095 0-.19 0-.285-.01-.028 0-.047 0-.076-.01-.066 0-.132-.009-.199-.018-.047 0-.085-.01-.132-.02-.048-.009-.095-.009-.143-.018a2.742 2.742 0 00-.151-.029c-.038-.01-.076-.01-.123-.019-.067-.009-.133-.028-.2-.047-.019-.01-.037-.01-.056-.01l-.2-.056c-.018-.01-.037-.01-.056-.02-.076-.028-.162-.047-.238-.075-.009 0-.009 0-.018-.01l-.228-.085c-.01 0-.019-.01-.019-.01-.076-.037-.161-.066-.237-.104l-.227-.113h-.01a5.524 5.524 0 01-2.057-1.963 1.705 1.705 0 01-.123-.218l-.01-.01a2.15 2.15 0 01-.104-.208c0-.01-.01-.02-.01-.029-.028-.066-.066-.133-.094-.209-.01-.009-.01-.018-.02-.037a1.716 1.716 0 01-.075-.2c-.01-.019-.01-.028-.02-.047-.018-.066-.047-.133-.065-.19-.01-.018-.01-.038-.02-.056-.018-.067-.037-.124-.056-.19-.01-.02-.01-.047-.02-.067a1.008 1.008 0 01-.037-.18c-.01-.028-.01-.056-.02-.085l-.028-.17c-.01-.039-.01-.067-.019-.105-.009-.047-.009-.104-.019-.152-.009-.038-.009-.076-.018-.113-.01-.048-.01-.095-.01-.152 0-.038-.01-.085-.01-.123v-.285a5.448 5.448 0 015.442-5.442 5.448 5.448 0 015.442 5.442v.01c.01.019 0 .066 0 .113zm1.014-12.753V2.011h17.026v11.861H20.976zM8.956 2.011h11.063v11.861H1.74V9.226c0-3.973 3.242-7.215 7.214-7.215zM1.74 18.775V14.82h18.287v8.4a6.404 6.404 0 00-5.498-3.138c-3.347 0-6.096 2.589-6.371 5.87a7.204 7.204 0 01-6.418-7.178zm43.807 7.206c-.256-3.3-3.014-5.898-6.37-5.898-.076 0-.152 0-.237.01V14.83h11.907c.853 1.517 1.431 2.911 1.498 3.964a7.224 7.224 0 01-6.798 7.187z" mask="url(#baa)"/></symbol><symbol fill="currentColor" viewBox="0 0 17 17" id="steer--search" xmlns="http://www.w3.org/2000/svg"><path fill-rule="evenodd" clip-rule="evenodd" d="M2 7.5a5.5 5.5 0 1111 0 5.5 5.5 0 01-11 0zM7.5 0a7.5 7.5 0 104.55 13.463l2.868 2.87a1 1 0 001.414-1.415l-2.869-2.869A7.5 7.5 0 007.5 0z"/></symbol><symbol fill="currentColor" viewBox="0 0 21 18" id="steer--twitter" xmlns="http://www.w3.org/2000/svg"><g clip-path="url(#bcclip0)"><path d="M6.604 17.5c7.925 0 12.259-6.54 12.259-12.212 0-.186 0-.371-.013-.555A8.748 8.748 0 0021 2.51a8.613 8.613 0 01-2.475.675A4.31 4.31 0 0020.42.812c-.846.5-1.771.853-2.736 1.042a4.324 4.324 0 00-6.096-.187A4.288 4.288 0 0010.34 5.77a12.249 12.249 0 01-8.88-4.485 4.286 4.286 0 001.335 5.73A4.283 4.283 0 01.84 6.477v.054a4.298 4.298 0 003.457 4.208c-.635.172-1.3.197-1.946.073a4.312 4.312 0 004.025 2.981A8.67 8.67 0 010 15.573a12.231 12.231 0 006.604 1.924"/></g><defs><clipPath id="bcclip0"><path d="M0 .5h21v17H0V.5z"/></clipPath></defs></symbol><symbol fill="currentColor" viewBox="0 0 22 16" id="steer--youtube" xmlns="http://www.w3.org/2000/svg"><path d="M21.542 2.499c-.254-.984-.998-1.758-1.945-2.021C17.88 0 11 0 11 0S4.12 0 2.405.478C1.458.74.714 1.515.46 2.498 0 4.28 0 8 0 8s0 3.72.46 5.501c.254.984.998 1.758 1.945 2.021C4.12 16 11 16 11 16s6.88 0 8.595-.478c.947-.263 1.692-1.037 1.945-2.02C22 11.72 22 8 22 8s0-3.72-.458-5.501zM8.8 11.428V4.572L14.515 8 8.8 11.428z"/></symbol></svg>