<?xml version="1.0" encoding="utf-8"?><svg xmlns="http://www.w3.org/2000/svg" xmlns:xlink="http://www.w3.org/1999/xlink"><symbol fill="none" viewBox="0 0 14 17" id="steer--account" xmlns="http://www.w3.org/2000/svg"><path fill-rule="evenodd" clip-rule="evenodd" d="M5 4a2 2 0 114 0 2 2 0 01-4 0zm2-4a4 4 0 100 8 4 4 0 000-8zM2 16a5 5 0 0110 0 1 1 0 102 0 7 7 0 10-14 0 1 1 0 102 0z" fill="#222"/></symbol><symbol fill="none" viewBox="0 0 12 14" id="steer--arrow-bottom" xmlns="http://www.w3.org/2000/svg"><path fill-rule="evenodd" clip-rule="evenodd" d="M5.293.293a1 1 0 011.414 0l5 5a1 1 0 01-1.414 1.414L7 3.414V13a1 1 0 11-2 0V3.414L1.707 6.707A1 1 0 01.293 5.293l5-5z" fill="#222"/></symbol><symbol fill="none" viewBox="0 0 12 14" id="steer--arrow-down" xmlns="http://www.w3.org/2000/svg"><path fill-rule="evenodd" clip-rule="evenodd" d="M6 0a1 1 0 011 1v9.586l3.293-3.293a1 1 0 111.414 1.414l-5 5a1 1 0 01-1.414 0l-5-5a1 1 0 011.414-1.414L5 10.586V1a1 1 0 011-1z" fill="#222"/></symbol><symbol fill="none" viewBox="0 0 14 12" id="steer--arrow-left" xmlns="http://www.w3.org/2000/svg"><path fill-rule="evenodd" clip-rule="evenodd" d="M6.707.293a1 1 0 010 1.414L3.414 5H13a1 1 0 110 2H3.414l3.293 3.293a1 1 0 11-1.414 1.414l-5-5a1 1 0 010-1.414l5-5a1 1 0 011.414 0z" fill="#222"/></symbol><symbol fill="none" viewBox="0 0 14 12" id="steer--arrow-right" xmlns="http://www.w3.org/2000/svg"><path fill-rule="evenodd" clip-rule="evenodd" d="M7.293.293a1 1 0 011.414 0l5 5a1 1 0 010 1.414l-5 5a1 1 0 01-1.414-1.414L10.586 7H1a1 1 0 010-2h9.586L7.293 1.707a1 1 0 010-1.414z" fill="#222"/></symbol><symbol fill="none" viewBox="0 0 12 7" id="steer--chevron-down" xmlns="http://www.w3.org/2000/svg"><path fill-rule="evenodd" clip-rule="evenodd" d="M.293.293a1 1 0 011.414 0L6 4.586 10.293.293a1 1 0 111.414 1.414l-5 5a1 1 0 01-1.414 0l-5-5a1 1 0 010-1.414z" fill="#222"/></symbol><symbol fill="none" viewBox="0 0 7 12" id="steer--chevron-left" xmlns="http://www.w3.org/2000/svg"><path fill-rule="evenodd" clip-rule="evenodd" d="M6.707.293a1 1 0 010 1.414L2.414 6l4.293 4.293a1 1 0 11-1.414 1.414l-5-5a1 1 0 010-1.414l5-5a1 1 0 011.414 0z" fill="#222"/></symbol><symbol fill="none" viewBox="0 0 7 12" id="steer--chevron-right" xmlns="http://www.w3.org/2000/svg"><path fill-rule="evenodd" clip-rule="evenodd" d="M.293.293a1 1 0 011.414 0l5 5a1 1 0 010 1.414l-5 5a1 1 0 01-1.414-1.414L4.586 6 .293 1.707a1 1 0 010-1.414z" fill="#222"/></symbol><symbol fill="none" viewBox="0 0 12 7" id="steer--chevron-up" xmlns="http://www.w3.org/2000/svg"><path fill-rule="evenodd" clip-rule="evenodd" d="M5.293.293a1 1 0 011.414 0l5 5a1 1 0 01-1.414 1.414L6 2.414 1.707 6.707A1 1 0 01.293 5.293l5-5z" fill="#222"/></symbol><symbol fill="none" viewBox="0 0 16 16" id="steer--clear-search" xmlns="http://www.w3.org/2000/svg"><path fill-rule="evenodd" clip-rule="evenodd" d="M8 16A8 8 0 108 0a8 8 0 000 16zM6.03 4.97a.75.75 0 00-1.06 1.06L6.94 8 4.97 9.97a.75.75 0 101.06 1.06L8 9.06l1.97 1.97a.75.75 0 101.06-1.06L9.06 8l1.97-1.97a.75.75 0 10-1.06-1.06L8 6.94 6.03 4.97z" fill="#222"/></symbol><symbol fill="none" viewBox="0 0 12 12" id="steer--close" xmlns="http://www.w3.org/2000/svg"><path fill-rule="evenodd" clip-rule="evenodd" d="M.293.293a1 1 0 011.414 0L6 4.586 10.293.293a1 1 0 111.414 1.414L7.414 6l4.293 4.293a1 1 0 01-1.414 1.414L6 7.414l-4.293 4.293a1 1 0 01-1.414-1.414L4.586 6 .293 1.707a1 1 0 010-1.414z" fill="#222"/></symbol><symbol fill="none" viewBox="0 0 9 18" id="steer--facebook" xmlns="http://www.w3.org/2000/svg"><path d="M8.41 10.125l.467-3.258H5.959V4.753c0-.89.408-1.76 1.714-1.76H9V.22S7.796 0 6.645 0C4.242 0 2.671 1.56 2.671 4.385v2.482H0v3.258h2.671V18H5.96v-7.875H8.41z" fill="#222"/></symbol><symbol fill="none" viewBox="0 0 18 18" id="steer--instagram" xmlns="http://www.w3.org/2000/svg"><g clip-path="url(#mclip0)" fill="#222"><path d="M9 1.622c2.403 0 2.688.009 3.637.052.877.04 1.354.187 1.671.31.42.163.72.358 1.035.673.315.315.51.615.673 1.035.123.317.27.794.31 1.671.043.949.052 1.234.052 3.637s-.009 2.688-.052 3.637c-.04.877-.187 1.354-.31 1.671-.163.42-.358.72-.673 1.035-.315.315-.615.51-1.035.673-.317.123-.794.27-1.671.31-.949.043-1.234.052-3.637.052s-2.688-.009-3.637-.052c-.877-.04-1.354-.187-1.671-.31a2.791 2.791 0 01-1.035-.673 2.784 2.784 0 01-.673-1.035c-.123-.317-.27-.794-.31-1.671-.043-.949-.052-1.234-.052-3.637s.009-2.688.052-3.637c.04-.877.187-1.354.31-1.671.163-.42.358-.72.673-1.035.315-.315.615-.51 1.035-.673.317-.123.794-.27 1.671-.31.95-.043 1.234-.052 3.637-.052zM9 0C6.556 0 6.25.01 5.29.054 4.33.098 3.676.25 3.104.473A4.408 4.408 0 001.51 1.51c-.5.5-.808 1.002-1.037 1.594C.25 3.677.098 4.33.054 5.289.01 6.25 0 6.556 0 9s.01 2.75.054 3.71c.044.959.196 1.613.419 2.185.23.592.537 1.094 1.038 1.595.5.5 1.002.808 1.594 1.038.572.222 1.227.374 2.185.418C6.25 17.99 6.556 18 9 18c2.445 0 2.751-.01 3.711-.054.958-.044 1.612-.196 2.185-.418a4.409 4.409 0 001.594-1.038c.5-.501.808-1.003 1.038-1.595.223-.572.375-1.226.418-2.184.044-.96.055-1.267.055-3.711s-.01-2.75-.055-3.71c-.043-.959-.195-1.613-.418-2.185A4.408 4.408 0 0016.49 1.51 4.41 4.41 0 0014.896.472C14.323.25 13.669.098 12.71.054 11.75.01 11.444 0 9 0z"/><path d="M9 4.379a4.621 4.621 0 100 9.242A4.621 4.621 0 009 4.38zm0 7.62A3 3 0 119 6a3 3 0 010 6zM13.804 5.276a1.08 1.08 0 100-2.16 1.08 1.08 0 000 2.16z"/></g><defs><clipPath id="mclip0"><path d="M0 0h18v18H0V0z" fill="#fff"/></clipPath></defs></symbol><symbol fill="none" viewBox="0 0 18 18" id="steer--linkedin" xmlns="http://www.w3.org/2000/svg"><path d="M.378 6.283V17.5h3.744V6.283H.378zM10.125 17.5H6.372V8.818s-.061-2.154-.061-2.535h3.691l.123 1.551c.747-1.085 1.872-1.908 3.375-1.908 2.628 0 4.5 1.806 4.5 5.062V17.5h-3.753v-6.147c0-1.815-.914-2.535-2.039-2.535s-2.083.72-2.083 2.17V17.5zM2.232 4.477c1.39 0 2.268-.882 2.268-1.993C4.482 1.364 3.621.5 2.268.5.896.5 0 1.365 0 2.484c0 1.11.879 1.993 2.206 1.993h.026z" fill="#222"/></symbol><symbol fill="none" viewBox="0 0 16 20" id="steer--location" xmlns="http://www.w3.org/2000/svg"><path fill-rule="evenodd" clip-rule="evenodd" d="M2.5 7.353C2.5 4.418 4.94 2 8 2s5.5 2.418 5.5 5.353c0 1.485-.726 3.436-1.927 5.473A27.573 27.573 0 018 17.572a27.294 27.294 0 01-3.605-4.777C3.207 10.773 2.5 8.84 2.5 7.353zM8 0C3.88 0 .5 3.27.5 7.353c0 2.02.918 4.324 2.169 6.454A29.277 29.277 0 007.3 19.715a1 1 0 001.398 0 29.384 29.384 0 004.598-5.873c1.259-2.137 2.203-4.465 2.203-6.49C15.5 3.272 12.12 0 8 0zm0 9.75a2.25 2.25 0 100-4.5 2.25 2.25 0 000 4.5z" fill="#222"/></symbol><symbol fill="none" viewBox="0 0 34 34" id="steer--main-search-l" xmlns="http://www.w3.org/2000/svg"><path fill-rule="evenodd" clip-rule="evenodd" d="M5 15.389C5 9.65 9.651 5 15.389 5c5.737 0 10.389 4.651 10.389 10.389 0 5.737-4.652 10.389-10.39 10.389C9.652 25.778 5 21.126 5 15.388zM15.389 0C6.889 0 0 6.89 0 15.389c0 8.499 6.89 15.389 15.389 15.389a15.32 15.32 0 008.97-2.883l5.373 5.373a2.5 2.5 0 103.536-3.536l-5.374-5.373a15.319 15.319 0 002.884-8.97c0-8.5-6.89-15.389-15.39-15.389z" fill="#222"/></symbol><symbol fill="none" viewBox="0 0 34 34" id="steer--main-search-m" xmlns="http://www.w3.org/2000/svg"><path fill-rule="evenodd" clip-rule="evenodd" d="M5 15.389C5 9.65 9.651 5 15.389 5c5.737 0 10.389 4.651 10.389 10.389 0 5.737-4.652 10.389-10.39 10.389C9.652 25.778 5 21.126 5 15.388zM15.389 0C6.889 0 0 6.89 0 15.389c0 8.499 6.89 15.389 15.389 15.389a15.32 15.32 0 008.97-2.883l5.373 5.373a2.5 2.5 0 103.536-3.536l-5.374-5.373a15.319 15.319 0 002.884-8.97c0-8.5-6.89-15.389-15.39-15.389z" fill="#222"/></symbol><symbol fill="none" viewBox="0 0 20 20" id="steer--main-search-s" xmlns="http://www.w3.org/2000/svg"><path fill-rule="evenodd" clip-rule="evenodd" d="M2.857 9.048a6.19 6.19 0 1112.38 0 6.19 6.19 0 01-12.38 0zM9.047 0a9.048 9.048 0 105.308 16.375l3.206 3.207a1.429 1.429 0 102.02-2.02l-3.206-3.207a9.007 9.007 0 001.72-5.307A9.047 9.047 0 009.047 0z" fill="#222"/></symbol><symbol fill="none" viewBox="0 0 16 8" id="steer--menu" xmlns="http://www.w3.org/2000/svg"><path fill-rule="evenodd" clip-rule="evenodd" d="M1.5 0a1 1 0 100 2h13a1 1 0 100-2h-13zm0 6a1 1 0 000 2h13a1 1 0 100-2h-13z" fill="#222"/></symbol><symbol fill="none" viewBox="0 0 17 17" id="steer--search" xmlns="http://www.w3.org/2000/svg"><path fill-rule="evenodd" clip-rule="evenodd" d="M2 7.5a5.5 5.5 0 1111 0 5.5 5.5 0 01-11 0zM7.5 0a7.5 7.5 0 104.55 13.463l2.868 2.87a1 1 0 001.414-1.415l-2.869-2.869A7.5 7.5 0 007.5 0z" fill="#222"/></symbol><symbol fill="none" viewBox="0 0 21 18" id="steer--twitter" xmlns="http://www.w3.org/2000/svg"><g clip-path="url(#uclip0)"><path d="M6.604 17.5c7.925 0 12.259-6.54 12.259-12.212 0-.186 0-.371-.013-.555A8.748 8.748 0 0021 2.51a8.613 8.613 0 01-2.475.675A4.31 4.31 0 0020.42.812c-.846.5-1.771.853-2.736 1.042a4.324 4.324 0 00-6.096-.187A4.288 4.288 0 0010.34 5.77a12.249 12.249 0 01-8.88-4.485 4.286 4.286 0 001.335 5.73A4.283 4.283 0 01.84 6.477v.054a4.298 4.298 0 003.457 4.208c-.635.172-1.3.197-1.946.073a4.312 4.312 0 004.025 2.981A8.67 8.67 0 010 15.573a12.231 12.231 0 006.604 1.924" fill="#222"/></g><defs><clipPath id="uclip0"><path d="M0 .5h21v17H0V.5z" fill="#fff"/></clipPath></defs></symbol><symbol fill="none" viewBox="0 0 22 16" id="steer--youtube" xmlns="http://www.w3.org/2000/svg"><path d="M21.542 2.499c-.254-.984-.998-1.758-1.945-2.021C17.88 0 11 0 11 0S4.12 0 2.405.478C1.458.74.714 1.515.46 2.498 0 4.28 0 8 0 8s0 3.72.46 5.501c.254.984.998 1.758 1.945 2.021C4.12 16 11 16 11 16s6.88 0 8.595-.478c.947-.263 1.692-1.037 1.945-2.02C22 11.72 22 8 22 8s0-3.72-.458-5.501zM8.8 11.428V4.572L14.515 8 8.8 11.428z" fill="#222"/></symbol></svg>