<svg width="41" height="42" viewBox="0 0 41 42" fill="none" xmlns="http://www.w3.org/2000/svg">
<path d="M12.2002 34.6001C12.8097 42.3271 23.0954 43.4934 25.0002 35.6935" stroke="white" stroke-width="2" stroke-miterlimit="10" stroke-linecap="round" stroke-linejoin="round"/>
<path d="M21.712 4.62542C23.0117 4.7655 23.5172 5.74609 23.445 6.72667C23.445 6.9368 23.5172 7.07688 23.7338 7.14692C23.7338 7.14692 25.6834 7.91738 27.4164 9.52834C29.7271 11.6296 30.738 14.1511 30.4492 16.9528C29.5827 24.027 29.5105 26.4785 33.9152 30.1206C33.9874 30.2607 34.3484 30.8911 34.0596 31.9417C33.9152 32.362 33.4819 32.6421 33.0487 32.5721L5.60958 30.1907C5.17633 30.1206 4.74308 29.8405 4.67088 29.3502C4.52646 28.2295 4.95971 27.7392 5.10413 27.5991C10.0865 24.7974 10.4475 22.346 10.8808 15.2718C11.0252 12.4701 12.4694 10.1587 15.1411 8.47772C17.1629 7.21697 19.1847 6.79672 19.1847 6.79672C19.4013 6.72667 19.5457 6.58659 19.5457 6.44651C19.7624 5.04567 20.7733 4.55538 21.712 4.62542ZM21.712 4.20517C20.5567 4.13513 19.3291 4.7655 19.1847 6.37647C19.1847 6.37647 10.8808 8.05747 10.4475 15.2718C10.0143 22.4861 9.58103 24.6574 4.81529 27.319C4.81529 27.319 4.021 28.0194 4.23763 29.4902C4.30984 30.1206 4.8875 30.6109 5.53737 30.681L32.9042 32.9923C33.5541 33.0624 34.204 32.6421 34.4206 32.0118C34.9261 30.6109 34.204 29.7704 34.204 29.7704C30.0159 26.3384 29.9437 24.1671 30.8102 16.9528C31.6767 9.80851 23.806 6.72667 23.806 6.72667C23.9504 5.18575 22.8673 4.27521 21.712 4.20517Z" stroke="white" stroke-width="1.5"/>
<path d="M5.79983 15.4C5.79983 15.4 5.73452 8.69422 12.1998 4.19995" stroke="white" stroke-width="2" stroke-miterlimit="10" stroke-linecap="round" stroke-linejoin="round"/>
<path d="M1 15.4C1 15.4 1.15484 6.27525 10.6 1" stroke="white" stroke-width="2" stroke-miterlimit="10" stroke-linecap="round" stroke-linejoin="round"/>
<path d="M34.5095 18.6001C34.5095 18.6001 35.6533 11.7535 29.7998 5.80005" stroke="white" stroke-width="2" stroke-miterlimit="10" stroke-linecap="round" stroke-linejoin="round"/>
<path d="M39.2929 18.6001C39.2929 18.6001 40.7395 9.40553 33 2.6001" stroke="white" stroke-width="2" stroke-miterlimit="10" stroke-linecap="round" stroke-linejoin="round"/>
</svg>
