<svg width="24" height="22" viewBox="0 0 24 22" fill="none" xmlns="http://www.w3.org/2000/svg">
<g clip-path="url(#clip0)">
<path d="M7.01894 13.5816C4.9812 15.3776 3.05667 17.0612 2.26422 17.7347C1.9246 17.9592 1.69818 18.2959 1.47177 18.7449C1.13214 19.4184 1.01894 19.9796 1.47177 20.5408C2.26422 21.6633 3.73592 21.6633 4.64158 20.7653L9.62271 16.051" stroke="#181818" stroke-miterlimit="10" stroke-linecap="round" stroke-linejoin="round"/>
<path d="M15.2829 10.4388C16.7546 8.86735 17.8867 7.7449 18.1131 7.52041C18.1131 7.52041 18.1131 7.52041 18.2263 7.52041C18.7924 7.52041 24.7924 7.85714 23.2075 2.91837C23.2075 2.80612 23.0943 2.80612 23.0943 2.91837L22.9811 3.2551C22.415 4.26531 21.6226 4.93877 20.4905 5.27551C20.3773 5.27551 20.2641 5.27551 20.1509 5.27551C19.9245 5.27551 19.698 5.16326 19.4716 5.05102L19.2452 4.82653C18.6792 4.37755 18.566 3.59184 18.9056 2.91837C19.0188 2.2449 19.5848 1.57143 20.2641 1.12245L20.8301 0.785714V0.673469C15.2829 -0.44898 16.1886 5.05102 16.1886 5.05102L13.0188 8.53061" stroke="#181818" stroke-miterlimit="10" stroke-linecap="round" stroke-linejoin="round"/>
<path d="M20.9434 19.1939L18.3397 21.4388L9.05664 12.5714L11.8868 9.87755L20.9434 19.1939Z" stroke="#181818" stroke-miterlimit="10" stroke-linecap="round" stroke-linejoin="round"/>
<path d="M9.96214 11.7857L2.60365 4.71429L1.47158 4.4898L0.565918 2.69388L2.03762 1.2347L3.73573 2.13265L4.07535 3.59184L11.0942 10.551L9.96214 11.7857Z" stroke="#181818" stroke-miterlimit="10" stroke-linecap="round" stroke-linejoin="round"/>
<path d="M12.1133 12.9082L16.868 17.7347" stroke="#181818" stroke-miterlimit="10" stroke-linecap="round" stroke-linejoin="round"/>
</g>
<defs>
<clipPath id="clip0">
<rect width="24" height="22" fill="white"/>
</clipPath>
</defs>
</svg>
