<?xml version="1.0" encoding="utf-8"?><svg xmlns="http://www.w3.org/2000/svg" xmlns:xlink="http://www.w3.org/1999/xlink"><symbol fill="currentColor" viewBox="0 0 14 17" id="steer--account" xmlns="http://www.w3.org/2000/svg"><path fill-rule="evenodd" clip-rule="evenodd" d="M5 4a2 2 0 114 0 2 2 0 01-4 0zm2-4a4 4 0 100 8 4 4 0 000-8zM2 16a5 5 0 0110 0 1 1 0 102 0 7 7 0 10-14 0 1 1 0 102 0z"/></symbol><symbol fill="none" viewBox="0 0 30 29" id="steer--all-season" xmlns="http://www.w3.org/2000/svg"><path d="M16 28.076V24.93l.032-20.984V.802c0-.449.353-.802.802-.802.45 0 .802.353.802.802v3.145l2.728-1.573a.792.792 0 011.09.29.792.792 0 01-.288 1.09l-3.53 2.054v7.251l6.257-3.593V5.39c0-.45.353-.803.802-.803.45 0 .803.353.803.803v3.144l2.727-1.572a.792.792 0 011.09.289.792.792 0 01-.288 1.09L26.3 9.915l2.727 1.572a.792.792 0 01.289 1.09.805.805 0 01-.706.386.854.854 0 01-.385-.096l-3.53-2.054-6.256 3.626 6.224 3.658 3.53-2.054a.791.791 0 011.09.289.792.792 0 01-.288 1.091l-2.727 1.572 2.727 1.572a.792.792 0 01.289 1.091.805.805 0 01-.706.385.855.855 0 01-.385-.096l-2.728-1.572v3.144c0 .45-.352.803-.802.803a.794.794 0 01-.802-.803v-4.075l-6.257-3.625v7.251l3.53 2.054a.792.792 0 01.289 1.09.805.805 0 01-.706.386.855.855 0 01-.385-.097l-2.728-1.572v3.145c0 .449-.353.802-.802.802a.794.794 0 01-.802-.802zM14.142 14.142v7.615a7.615 7.615 0 110-15.23v7.615z" fill="currentColor"/><path stroke="currentColor" stroke-width="2" stroke-linecap="round" d="M13.505 4.078V1.002M8.395 5.491L6.876 2.815M4.603 9.299L1.875 7.877M4.958 19.357l-2.729 1.42M8.57 23.238l-1.672 2.583M13.7 24.84l-.002 3.077M4.076 14.41H1"/></symbol><symbol fill="currentColor" viewBox="0 0 12 14" id="steer--arrow-down" xmlns="http://www.w3.org/2000/svg"><path fill-rule="evenodd" clip-rule="evenodd" d="M6 0a1 1 0 011 1v9.586l3.293-3.293a1 1 0 111.414 1.414l-5 5a1 1 0 01-1.414 0l-5-5a1 1 0 011.414-1.414L5 10.586V1a1 1 0 011-1z"/></symbol><symbol fill="currentColor" viewBox="0 0 14 12" id="steer--arrow-left" xmlns="http://www.w3.org/2000/svg"><path fill-rule="evenodd" clip-rule="evenodd" d="M6.707.293a1 1 0 010 1.414L3.414 5H13a1 1 0 110 2H3.414l3.293 3.293a1 1 0 11-1.414 1.414l-5-5a1 1 0 010-1.414l5-5a1 1 0 011.414 0z"/></symbol><symbol fill="currentColor" viewBox="0 0 14 12" id="steer--arrow-right" xmlns="http://www.w3.org/2000/svg"><path fill-rule="evenodd" clip-rule="evenodd" d="M7.293.293a1 1 0 011.414 0l5 5a1 1 0 010 1.414l-5 5a1 1 0 01-1.414-1.414L10.586 7H1a1 1 0 010-2h9.586L7.293 1.707a1 1 0 010-1.414z"/></symbol><symbol fill="currentColor" viewBox="0 0 12 14" id="steer--arrow-up" xmlns="http://www.w3.org/2000/svg"><path fill-rule="evenodd" clip-rule="evenodd" d="M5.293.293a1 1 0 011.414 0l5 5a1 1 0 01-1.414 1.414L7 3.414V13a1 1 0 11-2 0V3.414L1.707 6.707A1 1 0 01.293 5.293l5-5z"/></symbol><symbol fill="none" viewBox="0 0 65 35" id="steer--best-price" xmlns="http://www.w3.org/2000/svg"><path stroke="currentColor" stroke-linecap="round" stroke-linejoin="round" stroke-width="1.7" d="M0 18l3-3.5L6 18"/><path stroke="currentColor" stroke-linecap="round" stroke-linejoin="round" stroke-width="1.7" d="M7.555 6.5c1.333-1.833 5.7-5.5 12.5-5.5 6 0 16.5 4.5 16.5 17 0 5.5-5 16-16.5 16-14.8-.4-17.5-13.167-17-19.5"/><path fill="currentColor" d="M20.42 26.34h-1.56v-2.08c-1.293-.133-2.313-.58-3.06-1.34-.747-.773-1.18-1.647-1.3-2.62l1.9-.6c.067.693.307 1.3.72 1.82s.993.847 1.74.98v-4.18l-.5-.1c-1.04-.213-1.853-.633-2.44-1.26s-.88-1.42-.88-2.38.353-1.8 1.06-2.52c.72-.72 1.64-1.147 2.76-1.28v-2.1h1.56v2.12c1.107.147 1.953.533 2.54 1.16.6.613 1 1.313 1.2 2.1l-1.8.66c-.067-.44-.267-.867-.6-1.28-.333-.413-.78-.7-1.34-.86v4.1l.3.06c1.093.213 1.96.66 2.6 1.34.64.68.96 1.473.96 2.38 0 .947-.34 1.78-1.02 2.5-.68.72-1.627 1.153-2.84 1.3v2.08zm1.9-5.78c0-.44-.16-.833-.48-1.18-.32-.347-.793-.593-1.42-.74v3.86c.627-.12 1.1-.353 1.42-.7.32-.347.48-.76.48-1.24zm-5.3-6.06c0 .973.613 1.58 1.84 1.82v-3.8c-.573.107-1.027.34-1.36.7-.32.36-.48.787-.48 1.28z"/></symbol><symbol fill="none" viewBox="0 0 15 12" id="steer--checkmark" xmlns="http://www.w3.org/2000/svg"><path fill="currentColor" d="M13.137 0c-.364.014-.71.167-.963.43-2.681 2.687-4.73 4.93-7.218 7.472l-2.652-2.24A1.402 1.402 0 10.502 7.806l3.64 3.08a1.399 1.399 0 001.89-.08c3.016-3.021 5.163-5.435 8.12-8.4A1.4 1.4 0 0013.137 0z"/></symbol><symbol fill="currentColor" viewBox="0 0 12 7" id="steer--chevron-down" xmlns="http://www.w3.org/2000/svg"><path fill-rule="evenodd" clip-rule="evenodd" d="M.293.293a1 1 0 011.414 0L6 4.586 10.293.293a1 1 0 111.414 1.414l-5 5a1 1 0 01-1.414 0l-5-5a1 1 0 010-1.414z"/></symbol><symbol fill="currentColor" viewBox="0 0 7 12" id="steer--chevron-left" xmlns="http://www.w3.org/2000/svg"><path fill-rule="evenodd" clip-rule="evenodd" d="M6.707.293a1 1 0 010 1.414L2.414 6l4.293 4.293a1 1 0 11-1.414 1.414l-5-5a1 1 0 010-1.414l5-5a1 1 0 011.414 0z"/></symbol><symbol fill="currentColor" viewBox="0 0 7 12" id="steer--chevron-right" xmlns="http://www.w3.org/2000/svg"><path fill-rule="evenodd" clip-rule="evenodd" d="M.293.293a1 1 0 011.414 0l5 5a1 1 0 010 1.414l-5 5a1 1 0 01-1.414-1.414L4.586 6 .293 1.707a1 1 0 010-1.414z"/></symbol><symbol fill="currentColor" viewBox="0 0 12 7" id="steer--chevron-up" xmlns="http://www.w3.org/2000/svg"><path fill-rule="evenodd" clip-rule="evenodd" d="M5.293.293a1 1 0 011.414 0l5 5a1 1 0 01-1.414 1.414L6 2.414 1.707 6.707A1 1 0 01.293 5.293l5-5z"/></symbol><symbol fill="currentColor" viewBox="0 0 16 16" id="steer--clear-input" xmlns="http://www.w3.org/2000/svg"><path fill-rule="evenodd" clip-rule="evenodd" d="M8 16A8 8 0 108 0a8 8 0 000 16zM6.03 4.97a.75.75 0 00-1.06 1.06L6.94 8 4.97 9.97a.75.75 0 101.06 1.06L8 9.06l1.97 1.97a.75.75 0 101.06-1.06L9.06 8l1.97-1.97a.75.75 0 10-1.06-1.06L8 6.94 6.03 4.97z"/></symbol><symbol fill="currentColor" viewBox="0 0 12 12" id="steer--close" xmlns="http://www.w3.org/2000/svg"><path fill-rule="evenodd" clip-rule="evenodd" d="M.293.293a1 1 0 011.414 0L6 4.586 10.293.293a1 1 0 111.414 1.414L7.414 6l4.293 4.293a1 1 0 01-1.414 1.414L6 7.414l-4.293 4.293a1 1 0 01-1.414-1.414L4.586 6 .293 1.707a1 1 0 010-1.414z"/></symbol><symbol fill="none" viewBox="0 0 31 32" id="steer--customer-support" xmlns="http://www.w3.org/2000/svg"><path fill="currentColor" fill-rule="evenodd" d="M14.258 6.6c2.342 1.277 4.9 2.13 7.507 2.682-.312 3.407-2.463 7.47-6.265 7.47-1.756 0-3.159-.862-4.19-2.126l2.02.017v.406h3.432v-2.21H13.33v.385l-2.1-.027a2.853 2.853 0 01-.933-.155 10.707 10.707 0 01-1.064-3.81c1.765-.693 3.472-1.537 5.024-2.631zm9.348 2.078C23.717 3.698 20.781 0 15.5 0c-5.28 0-8.217 3.698-8.106 8.678.1 4.56 3.015 9.88 8.106 9.88 5.082 0 8.003-5.325 8.106-9.88zM22.11 19.975c1.79.277 3.673.748 5.059 1.911 1.564 1.314 2.027 3.154 2.027 5.135v3.066H1.805V27.02c0-1.98.464-3.822 2.028-5.135 1.384-1.163 3.27-1.633 5.058-1.911L15.5 25.79l6.609-5.815zm6.22.529c-1.904-1.6-4.391-2.117-6.789-2.434l-6.04 5.316-6.04-5.315c-2.398.317-4.885.834-6.789 2.433C.997 21.91 0 23.976 0 27.022v4.87h31v-4.87c0-3.046-.997-5.112-2.671-6.518zm-6.573-13.07c-2.301-.517-4.561-1.288-6.636-2.417l-.985-.538-.917.646c-1.23.866-2.572 1.562-3.957 2.146.391-3.295 2.546-5.466 6.239-5.466 3.753 0 5.917 2.241 6.256 5.628z" clip-rule="evenodd"/></symbol><symbol fill="none" viewBox="0 0 63 63" id="steer--economy" xmlns="http://www.w3.org/2000/svg"><mask id="apa" maskUnits="userSpaceOnUse" x="0" y="0" width="63" height="63"><path fill="#C4C4C4" d="M0 0h62.861v62.861H0z"/></mask><g mask="url(#apa)"><path fill-rule="evenodd" clip-rule="evenodd" d="M59.326 4.337c.008 1.01.086 24.858-9.1 38.98C45.881 49.99 37.94 53.412 27.26 53.21c-5.82-.11-10.89-1.241-13.309-1.876L5.785 59.5a1.768 1.768 0 01-2.501-2.5l8.168-8.168c-.635-2.418-1.767-7.49-1.877-13.309-.203-10.68 3.219-18.62 9.895-22.963C33.592 3.375 57.44 3.45 58.45 3.46a.884.884 0 01.876.877zM42.74 20.082a1.781 1.781 0 00-2.518 0L12.356 47.947a1.781 1.781 0 002.52 2.52L42.74 22.6a1.781 1.781 0 000-2.519z" fill="currentColor"/></g></symbol><symbol fill="currentColor" viewBox="0 0 9 18" id="steer--facebook" xmlns="http://www.w3.org/2000/svg"><path d="M8.41 10.125l.467-3.258H5.959V4.753c0-.89.408-1.76 1.714-1.76H9V.22S7.796 0 6.645 0C4.242 0 2.671 1.56 2.671 4.385v2.482H0v3.258h2.671V18H5.96v-7.875H8.41z"/></symbol><symbol fill="none" viewBox="0 0 23 30" id="steer--fire" xmlns="http://www.w3.org/2000/svg"><path d="M18.92 8.328a.585.585 0 00-.732-.21.598.598 0 00-.333.69c.297 1.237.231 2.653.047 3.89-.523-1.37-1.433-2.598-2.422-3.931l-.441-.588c-1.672-2.28-.31-7.368-.297-7.417a.594.594 0 00-.202-.63.582.582 0 00-.649-.06c-.32.174-7.42 4.097-8.046 11.526-.37-.559-.69-1.411-.6-2.623a.608.608 0 00-.376-.606.596.596 0 00-.678.174c-.207.252-5.027 6.192-4.064 12.678.512 3.433 2.547 6.353 6.064 8.682.232.15.541.12.743-.072a.61.61 0 00.09-.75c-2.214-3.58-.541-6.869.572-8.436.214.643.619 1.387 1.38 1.993a.58.58 0 00.654.054.595.595 0 00.304-.583c0-.047-.375-4.428 2.964-6.54.077 1.5.417 4.32 1.869 5.982 2.588 2.976 1.643 5.724.399 7.5a.604.604 0 00.047.756.59.59 0 00.75.103c.249-.156 6.205-3.9 6.974-9.726.643-4.92-3.826-11.574-4.017-11.857z" fill="currentColor"/></symbol><symbol viewBox="0 0 122 20" id="steer--five-stars" xmlns="http://www.w3.org/2000/svg"><path d="M.55 9.025l4.074 2.958c.465.338.66.938.482 1.484L3.55 18.256c-.397 1.223 1.003 2.24 2.044 1.485l4.074-2.96a1.326 1.326 0 011.561 0l4.074 2.96c1.041.755 2.442-.262 2.045-1.485l-1.556-4.789a1.325 1.325 0 01.482-1.484l4.074-2.958c1.04-.757.506-2.403-.78-2.403H14.53c-.575 0-1.086-.37-1.263-.917L11.712.918c-.398-1.224-2.128-1.224-2.527 0L7.628 5.705a1.326 1.326 0 01-1.262.917H1.33c-1.287 0-1.82 1.646-.78 2.403zm25.105 0l4.074 2.958c.466.338.66.938.483 1.484l-1.557 4.789c-.397 1.223 1.003 2.24 2.045 1.485l4.074-2.96a1.326 1.326 0 011.56 0l4.075 2.96c1.04.755 2.441-.262 2.044-1.485l-1.556-4.789a1.325 1.325 0 01.483-1.484l4.073-2.958c1.04-.757.507-2.403-.78-2.403h-5.037c-.574 0-1.086-.37-1.263-.917L36.817.918c-.398-1.224-2.128-1.224-2.527 0l-1.556 4.787a1.326 1.326 0 01-1.263.917h-5.035c-1.287 0-1.821 1.646-.78 2.403zm25.109 0l4.075 2.958c.465.338.66.938.482 1.484l-1.556 4.789c-.398 1.223 1.003 2.24 2.044 1.485l4.074-2.96a1.326 1.326 0 011.56 0l4.075 2.96c1.041.755 2.442-.262 2.044-1.485l-1.555-4.789a1.324 1.324 0 01.482-1.484l4.073-2.958c1.04-.757.507-2.403-.78-2.403h-5.036c-.575 0-1.086-.37-1.263-.917L61.927.918c-.398-1.224-2.128-1.224-2.527 0l-1.557 4.787a1.326 1.326 0 01-1.262.917h-5.036c-1.287 0-1.82 1.646-.78 2.403zm25.106 0l4.074 2.958c.465.338.66.938.483 1.484l-1.557 4.789c-.397 1.223 1.003 2.24 2.044 1.485l4.075-2.96a1.326 1.326 0 011.56 0l4.075 2.96c1.04.755 2.441-.262 2.044-1.485l-1.556-4.789a1.324 1.324 0 01.483-1.484l4.073-2.958c1.04-.757.506-2.403-.78-2.403H89.85c-.575 0-1.086-.37-1.263-.917L87.032.918c-.398-1.224-2.128-1.224-2.527 0l-1.557 4.787a1.326 1.326 0 01-1.262.917h-5.035c-1.287 0-1.821 1.646-.781 2.403zm25.109 0l4.074 2.958c.466.338.661.938.483 1.484l-1.557 4.789c-.397 1.223 1.004 2.24 2.045 1.485l4.074-2.96a1.326 1.326 0 011.561 0l4.074 2.96c1.041.755 2.442-.262 2.044-1.485l-1.556-4.789a1.326 1.326 0 01.483-1.484l4.073-2.958c1.041-.757.507-2.403-.78-2.403h-5.036c-.575 0-1.087-.37-1.263-.917L112.142.918c-.398-1.224-2.129-1.224-2.528 0l-1.556 4.787a1.327 1.327 0 01-1.263.917h-5.035c-1.287 0-1.821 1.646-.781 2.403z"/></symbol><symbol viewBox="0 0 28 23" id="steer--free-returns" xmlns="http://www.w3.org/2000/svg"><path d="M7.881 0L0 4.813l7.881 4.812V5.939h10.015a7.214 7.214 0 017.217 7.212 7.214 7.214 0 01-7.217 7.212H7.076v2.249l10.818.001a9.495 9.495 0 006.462-2.548l.235-.227a9.473 9.473 0 002.778-6.685 9.474 9.474 0 00-2.776-6.688 9.495 9.495 0 00-6.697-2.777H7.881V0z" fill="currentColor" fill-rule="nonzero"/></symbol><symbol fill="none" viewBox="0 0 80 25" id="steer--free-shipping" xmlns="http://www.w3.org/2000/svg"><path fill="currentColor" fill-rule="evenodd" d="M0 5.72h3.168v1.873H0V5.72zm0 11.424h1.743v1.872H0v-1.872zM47.437 2.857H38.93V.007L1.3 0v1.872h8.59v3.837H4.172v1.864h5.719v3.836H4.172v1.866h5.719v3.837H2.732v1.864H15.61a4.517 4.517 0 004.51 4.287 4.51 4.51 0 004.507-4.287H39.94a4.516 4.516 0 004.508 4.287 4.512 4.512 0 004.509-4.287h2.738v-7.082l-4.258-9.037zm-4.213 1.858h2.926l3.09 6.694h-6.016V4.715zM20.12 21.391c-1.508 0-2.637-1.133-2.637-2.63 0-1.502 1.137-2.628 2.637-2.628s2.637 1.153 2.637 2.675c0 1.497-1.11 2.583-2.637 2.583zm4.192-4.279a4.515 4.515 0 00-4.2-2.845 4.533 4.533 0 00-4.198 2.845H11.74V1.864h25.306l.014 15.248H24.31zm20.117 4.279c-1.507 0-2.637-1.133-2.637-2.63 0-1.502 1.136-2.628 2.637-2.628 1.5 0 2.64 1.153 2.64 2.675.005 1.497-1.105 2.583-2.64 2.583zm5.383-4.285h-1.183a4.512 4.512 0 00-4.2-2.845 4.53 4.53 0 00-4.198 2.845h-1.313V4.716h2.423v8.551h8.471v3.839z" clip-rule="evenodd"/><path fill="currentColor" d="M.945 23.664H79.54v1.335H.945z"/></symbol><symbol fill="none" viewBox="0 0 25 25" id="steer--geolocation" xmlns="http://www.w3.org/2000/svg"><path d="M23 2l-9.51 21-1.44-9.78L2 11.688 23 2z" stroke="currentColor" stroke-width="3" stroke-linejoin="round"/></symbol><symbol fill="none" viewBox="0 0 6 8" id="steer--grip" xmlns="http://www.w3.org/2000/svg"><rect x="4" width="2" height="8" rx="1" fill="currentColor"/><rect width="2" height="8" rx="1" fill="currentColor"/></symbol><symbol fill="currentColor" viewBox="0 0 18 18" id="steer--instagram" xmlns="http://www.w3.org/2000/svg"><g clip-path="url(#axclip0)"><path d="M9 1.622c2.403 0 2.688.009 3.637.052.877.04 1.354.187 1.671.31.42.163.72.358 1.035.673.315.315.51.615.673 1.035.123.317.27.794.31 1.671.043.949.052 1.234.052 3.637s-.009 2.688-.052 3.637c-.04.877-.187 1.354-.31 1.671-.163.42-.358.72-.673 1.035-.315.315-.615.51-1.035.673-.317.123-.794.27-1.671.31-.949.043-1.234.052-3.637.052s-2.688-.009-3.637-.052c-.877-.04-1.354-.187-1.671-.31a2.791 2.791 0 01-1.035-.673 2.784 2.784 0 01-.673-1.035c-.123-.317-.27-.794-.31-1.671-.043-.949-.052-1.234-.052-3.637s.009-2.688.052-3.637c.04-.877.187-1.354.31-1.671.163-.42.358-.72.673-1.035.315-.315.615-.51 1.035-.673.317-.123.794-.27 1.671-.31.95-.043 1.234-.052 3.637-.052zM9 0C6.556 0 6.25.01 5.29.054 4.33.098 3.676.25 3.104.473A4.408 4.408 0 001.51 1.51c-.5.5-.808 1.002-1.037 1.594C.25 3.677.098 4.33.054 5.289.01 6.25 0 6.556 0 9s.01 2.75.054 3.71c.044.959.196 1.613.419 2.185.23.592.537 1.094 1.038 1.595.5.5 1.002.808 1.594 1.038.572.222 1.227.374 2.185.418C6.25 17.99 6.556 18 9 18c2.445 0 2.751-.01 3.711-.054.958-.044 1.612-.196 2.185-.418a4.409 4.409 0 001.594-1.038c.5-.501.808-1.003 1.038-1.595.223-.572.375-1.226.418-2.184.044-.96.055-1.267.055-3.711s-.01-2.75-.055-3.71c-.043-.959-.195-1.613-.418-2.185A4.408 4.408 0 0016.49 1.51 4.41 4.41 0 0014.896.472C14.323.25 13.669.098 12.71.054 11.75.01 11.444 0 9 0z"/><path d="M9 4.379a4.621 4.621 0 100 9.242A4.621 4.621 0 009 4.38zm0 7.62A3 3 0 119 6a3 3 0 010 6zM13.804 5.276a1.08 1.08 0 100-2.16 1.08 1.08 0 000 2.16z"/></g><defs><clipPath id="axclip0"><path d="M0 0h18v18H0V0z"/></clipPath></defs></symbol><symbol fill="currentColor" viewBox="0 0 18 18" id="steer--linkedin" xmlns="http://www.w3.org/2000/svg"><path d="M.378 6.283V17.5h3.744V6.283H.378zM10.125 17.5H6.372V8.818s-.061-2.154-.061-2.535h3.691l.123 1.551c.747-1.085 1.872-1.908 3.375-1.908 2.628 0 4.5 1.806 4.5 5.062V17.5h-3.753v-6.147c0-1.815-.914-2.535-2.039-2.535s-2.083.72-2.083 2.17V17.5zM2.232 4.477c1.39 0 2.268-.882 2.268-1.993C4.482 1.364 3.621.5 2.268.5.896.5 0 1.365 0 2.484c0 1.11.879 1.993 2.206 1.993h.026z"/></symbol><symbol fill="none" viewBox="0 0 69 33" id="steer--local-business" xmlns="http://www.w3.org/2000/svg"><path stroke="currentColor" stroke-linecap="round" stroke-linejoin="round" stroke-width="1.5" d="M4.105 30.52V10.58h41.788v19.94"/><path stroke="currentColor" stroke-linecap="round" stroke-linejoin="round" stroke-width="1.5" d="M10.043 30.52V18.028h18.739v12.494M3.523 8.713h42.954c.139 0 .272.054.37.151A.514.514 0 0147 9.23v1.346H3V9.23c0-.137.055-.268.153-.365a.526.526 0 01.37-.151v0zM41.79 30.52V20.197h-5.532V30.52m-26.215-9.97h18.739m-18.739 2.491h18.739m-18.739 2.492h18.739m-18.739 2.492h18.739M25.52 1H14.153a.836.836 0 00-.84.831v3.451c0 .46.376.831.84.831H25.52a.835.835 0 00.841-.83V1.83a.836.836 0 00-.84-.831zm-9.836 6.113v1.6m8.574-1.6v1.6"/><path fill="currentColor" d="M0 31.664h68.6v1.335H0z"/></symbol><symbol fill="currentColor" viewBox="0 0 16 20" id="steer--location" xmlns="http://www.w3.org/2000/svg"><path fill-rule="evenodd" clip-rule="evenodd" d="M2.5 7.353C2.5 4.418 4.94 2 8 2s5.5 2.418 5.5 5.353c0 1.485-.726 3.436-1.927 5.473A27.573 27.573 0 018 17.572a27.294 27.294 0 01-3.605-4.777C3.207 10.773 2.5 8.84 2.5 7.353zM8 0C3.88 0 .5 3.27.5 7.353c0 2.02.918 4.324 2.169 6.454A29.277 29.277 0 007.3 19.715a1 1 0 001.398 0 29.384 29.384 0 004.598-5.873c1.259-2.137 2.203-4.465 2.203-6.49C15.5 3.272 12.12 0 8 0zm0 9.75a2.25 2.25 0 100-4.5 2.25 2.25 0 000 4.5z"/></symbol><symbol fill="none" viewBox="0 0 18 17" id="steer--mail" xmlns="http://www.w3.org/2000/svg"><path fill="currentColor" stroke="currentColor" d="M4.38 7.922l4.6 2.52c.153.1.358.1.511 0l4.601-2.52c.614-.303.102-1.21-.511-.857L9.236 9.434 4.89 7.014c-.613-.302-1.073.555-.51.908z"/><path fill="currentColor" stroke="currentColor" stroke-width=".5" d="M2.891 15.9H15.5c1.072 0 1.891-.808 1.891-1.864V6.08a1.83 1.83 0 00-1.071-1.678L9.447 1.047a.887.887 0 00-.567 0L2.072 4.465C1.378 4.775 1 5.397 1 6.08v7.955c0 1.056.82 1.864 1.891 1.864zm-.63-9.82c0-.248.126-.434.378-.559L9.195 2.29l6.556 3.231c.253.125.379.373.379.56v7.955c0 .372-.252.621-.63.621H2.89c-.378 0-.63-.249-.63-.621V6.08z"/></symbol><symbol fill="currentColor" viewBox="0 0 20 20" id="steer--main-search" xmlns="http://www.w3.org/2000/svg"><path fill-rule="evenodd" clip-rule="evenodd" d="M2.857 9.048a6.19 6.19 0 1112.38 0 6.19 6.19 0 01-12.38 0zM9.047 0a9.048 9.048 0 105.308 16.375l3.206 3.207a1.429 1.429 0 102.02-2.02l-3.206-3.207a9.007 9.007 0 001.72-5.307A9.047 9.047 0 009.047 0z"/></symbol><symbol fill="currentColor" viewBox="0 0 16 8" id="steer--menu" xmlns="http://www.w3.org/2000/svg"><path fill-rule="evenodd" clip-rule="evenodd" d="M1.5 0a1 1 0 100 2h13a1 1 0 100-2h-13zm0 6a1 1 0 000 2h13a1 1 0 100-2h-13z"/></symbol><symbol fill="none" viewBox="0 0 29 32" id="steer--money-back" xmlns="http://www.w3.org/2000/svg"><circle cx="14.022" cy="12.216" r="4.758" fill="#F4F4F4" stroke="currentColor" stroke-width="1.7"/><path stroke="currentColor" stroke-width="1.7" d="M11.218 1.935C11.966 1.187 12.62 1 13.555 1c1.694 0 1.87.935 3.74 1.87 1.868.934 3.037-.234 4.673 1.402.934.934.467 2.336.934 3.738.468 1.403 2.337 1.636 2.337 4.207 0 1.87-1.402 2.336-1.87 2.804-.466.467-.856 1.676-.934 2.337 0 .934-.307 2.176-.935 2.804-.628.628-1.87.935-2.337.935-.467 0-2.056.187-2.804.934-.934.935-1.402 1.402-2.804 1.402-1.121 0-1.51-.367-2.804-1.402-1.293-1.034-2.203-.848-2.804-.934-2.617-.374-3.74-1.402-3.74-3.272 0-.935 0-1.87-.466-2.337-.935-.934-1.87-1.87-1.87-3.271 0-1.402 1.227-2.162 1.87-2.804.373-.374.467-1.403.467-1.87 0-1.87.599-2.468 1.402-3.271.803-.804 2.337-.935 3.272-.935.934 0 1.402-.468 2.336-1.402z"/><path stroke="currentColor" stroke-linecap="round" stroke-linejoin="round" stroke-width="1.7" d="M4.206 18.76L0 27.172h4.674l2.804 3.74 4.206-7.479m10.721-5.221L27.37 26.2l-4.654.43-2.448 3.982-4.877-7.059"/></symbol><symbol fill="none" viewBox="0 0 32 31" id="steer--performance" xmlns="http://www.w3.org/2000/svg"><path d="M30.734 12.55v.002c.331 1.653.331 3.307 0 5.13v.001c-1.324 8.109-9.103 13.409-17.218 12.084-6.294-1.16-11.258-5.962-12.251-12.25h0C-.06 9.402 5.405 1.621 13.515.296c8.112-1.324 15.729 4.14 17.22 12.254zm-3.488 9.876h0l.005-.008c1.342-2.18 2.182-4.698 2.182-7.385 0-6.55-4.869-12.258-11.251-13.266C10.959.591 4.076 5.63 2.9 13.017h0c-.504 3.19.168 6.549 2.014 9.403h0l.004.006c1.026 1.367 2.745 1.888 4.295 1.028a14.444 14.444 0 0113.737 0c1.55.86 3.27.339 4.295-1.028zm-9.65-7.797l-.03.029V15.032c0 .478-.159.868-.43 1.138-.27.27-.66.43-1.137.43s-.867-.16-1.137-.43-.43-.66-.43-1.138c0-.477.16-.867.43-1.137s.66-.43 1.137-.43H16.374l.03-.028 6.487-6.489c.147-.068.371-.106.6-.087.236.02.46.098.604.242a.706.706 0 010 1.025l-6.5 6.5z" fill="currentColor" stroke="#fff" stroke-width=".2"/></symbol><symbol fill="none" viewBox="0 0 16 14" id="steer--phone" xmlns="http://www.w3.org/2000/svg"><path stroke="currentColor" stroke-linecap="round" stroke-linejoin="round" stroke-width="2" d="M11.142 7.562l.98-.43L14.79 8.3v4.668c-8.883 0-13.315-4.494-13.337-11.672h5.335L8.12 3.63l-.49.86c-.503.881-.306 1.946.49 2.641.797.698 2.013.871 3.021.431z" clip-rule="evenodd"/></symbol><symbol viewBox="0 0 34 31" id="steer--quantity-selector-car" xmlns="http://www.w3.org/2000/svg"><g fill="none" fill-rule="evenodd"><path d="M26.26 0a4 4 0 013.725 2.542l.07.193L34 14.571V21.5a4 4 0 01-3.8 3.995l-.2.005H4a4 4 0 01-3.995-3.8L0 21.5v-6.929L3.945 2.735a4 4 0 013.59-2.73L7.74 0h18.52zM32 15.571V21.5a2 2 0 01-1.85 1.995L30 23.5H4a2 2 0 01-1.995-1.85L2 21.5v-5.929h30zM26.26 2a2 2 0 011.897 1.368l3.401 10.203H2.442l3.4-10.203A2 2 0 017.74 2h18.52z" fill="currentColor"/><rect stroke="currentColor" stroke-width="2" x="4.43" y="24.555" width="5.5" height="5.286" rx="1"/><rect stroke="currentColor" stroke-width="2" x="24.07" y="24.555" width="5.5" height="5.286" rx="1"/><path fill="currentColor" fill-rule="nonzero" d="M6.07 18.215h2.429v2.429H6.07zM25.5 18.215h2.429v2.429H25.5z"/></g></symbol><symbol viewBox="0 0 39 39" id="steer--quantity-selector-car-tilted" xmlns="http://www.w3.org/2000/svg"><g transform="rotate(-8 39.451 2.2)" fill="none" fill-rule="evenodd"><path d="M26.26 0a4 4 0 013.725 2.542l.07.193L34 14.571V21.5a4 4 0 01-3.8 3.995l-.2.005H4a4 4 0 01-3.995-3.8L0 21.5v-6.929L3.945 2.735a4 4 0 013.59-2.73L7.74 0h18.52zM32 15.571H2V21.5l.005.15A2 2 0 004 23.5h26l.15-.005A2 2 0 0032 21.5v-5.929zM26.26 2H7.74a2 2 0 00-1.897 1.368L2.442 13.57h29.116l-3.4-10.203A2 2 0 0026.26 2z" fill="currentColor" fill-rule="nonzero"/><rect stroke="currentColor" stroke-width="2" x="4.43" y="24.555" width="5.5" height="5.286" rx="1"/><rect stroke="currentColor" stroke-width="2" x="24.07" y="24.555" width="5.5" height="7" rx="1"/><path fill="currentColor" fill-rule="nonzero" d="M6.07 18.215h2.429v2.429H6.07zM25.5 18.215h2.429v2.429H25.5z"/></g></symbol><symbol fill="none" viewBox="0 0 13 13" id="steer--reviews-verified" xmlns="http://www.w3.org/2000/svg"><path d="M12.71 5.913l-.602-.45a.745.745 0 01-.232-.861l.287-.697a.742.742 0 00-.588-1.01l-.751-.096a.726.726 0 01-.63-.628L10.1 1.42A.743.743 0 009.09.833l-.698.287A.747.747 0 017.53.888L7.065.287a.731.731 0 00-1.161 0L5.466.9a.747.747 0 01-.861.232l-.697-.3a.743.743 0 00-1.01.587l-.096.752a.726.726 0 01-.63.628l-.751.095a.742.742 0 00-.588 1.01l.287.697c.123.3.028.656-.232.86l-.6.465a.73.73 0 000 1.16l.614.451c.259.205.355.56.232.86l-.3.697a.741.741 0 00.587 1.01l.752.096c.327.04.587.3.629.628l.095.751a.743.743 0 001.011.588l.697-.287a.747.747 0 01.862.232l.464.6a.732.732 0 001.162 0l.464-.6a.747.747 0 01.861-.232l.697.287a.743.743 0 001.012-.588l.095-.75a.726.726 0 01.629-.63l.752-.095a.742.742 0 00.588-1.01l-.288-.697a.746.746 0 01.232-.86l.602-.464c.355-.287.355-.86-.028-1.161zm-3.84-.15L6.394 8.235a.702.702 0 01-.505.204.702.702 0 01-.506-.204L4.14 6.992a.709.709 0 010-.997.71.71 0 01.998 0l.738.737 1.996-1.966a.71.71 0 01.997 0 .709.709 0 010 .997z" fill="currentColor" fill-opacity=".6"/></symbol><symbol fill="currentColor" viewBox="0 0 17 17" id="steer--search" xmlns="http://www.w3.org/2000/svg"><path fill-rule="evenodd" clip-rule="evenodd" d="M2 7.5a5.5 5.5 0 1111 0 5.5 5.5 0 01-11 0zM7.5 0a7.5 7.5 0 104.55 13.463l2.868 2.87a1 1 0 001.414-1.415l-2.869-2.869A7.5 7.5 0 007.5 0z"/></symbol><symbol fill="none" viewBox="0 0 50 49" id="steer--shield" xmlns="http://www.w3.org/2000/svg"><path d="M25.11 0l-.611.152L2.345 6.245l-1.68.457v1.675c0 14.622 4.124 24.827 9.166 31.224 5.042 6.397 10.848 9.29 15.279 9.29 4.278 0 10.084-2.893 15.278-9.29 5.042-6.397 9.168-16.45 9.168-31.072V6.702l-1.681-.457L25.72.152 25.11 0zm0 4.722V44.17c-1.986 0-7.181-1.98-11.612-7.463C9.22 31.528 5.706 22.847 5.4 10.205l19.71-5.483z" fill="currentColor"/></symbol><symbol fill="none" viewBox="0 0 8 5" id="steer--small-chevron-down" xmlns="http://www.w3.org/2000/svg"><path fill-rule="evenodd" clip-rule="evenodd" d="M.293.293a1 1 0 011.414 0L4 2.586 6.293.293a1 1 0 011.414 1.414l-3 3a1 1 0 01-1.414 0l-3-3a1 1 0 010-1.414z" fill="currentColor"/></symbol><symbol fill="none" viewBox="0 0 8 5" id="steer--small-chevron-up" xmlns="http://www.w3.org/2000/svg"><path fill-rule="evenodd" clip-rule="evenodd" d="M3.293.293a1 1 0 011.414 0l3 3a1 1 0 01-1.414 1.414L4 2.414 1.707 4.707A1 1 0 01.293 3.293l3-3z" fill="currentColor"/></symbol><symbol fill="none" viewBox="0 0 33 29" id="steer--smiley" xmlns="http://www.w3.org/2000/svg"><path d="M11.003 3.938a3.938 3.938 0 11-7.876-.001 3.938 3.938 0 017.876 0zM29.376 3.938a3.938 3.938 0 11-7.874-.001 3.938 3.938 0 017.874 0zM16.251 28.88c-6.523 0-12.614-3.52-15.897-9.184a2.622 2.622 0 01.955-3.586 2.627 2.627 0 013.588.955c2.345 4.05 6.696 6.566 11.353 6.566 4.658 0 9.012-2.515 11.352-6.566a2.612 2.612 0 013.586-.955 2.618 2.618 0 01.954 3.585c-3.275 5.665-9.368 9.185-15.894 9.185h.003z" fill="currentColor"/></symbol><symbol fill="none" viewBox="0 0 35 37" id="steer--smiley-concerned" xmlns="http://www.w3.org/2000/svg"><path stroke="currentColor" stroke-linecap="round" stroke-linejoin="bevel" stroke-width="2" d="M25.875 1.049l7.5 3.495m-32 .001l3.75-1.498 3.75-1.498"/><path fill="currentColor" d="M12.25 13.032c0 2.759-1.764 4.994-3.938 4.994-2.175 0-3.937-2.235-3.937-4.994 0-2.755 1.762-4.993 3.938-4.993 2.172 0 3.937 2.238 3.937 4.993zm18.5 0c0 2.759-1.762 4.994-3.938 4.994-2.172 0-3.937-2.235-3.937-4.994 0-2.755 1.765-4.993 3.938-4.993 2.175 0 3.937 2.238 3.937 4.993zm-13.373 22.97c-6.424 0-11.27-1.616-14.502-5.494-.715-.86-1.5-2.994 0-3.995 1.17-.783 2.5-.5 4 1 2.5 1.997 5.915 3.897 10.5 3.897 4.587 0 7.5-1.399 10.5-3.398 1-1 3-1.997 4.5-1 1 .666.72 2.137 0 2.997-3 3.581-8.576 5.993-15.002 5.993h.004z"/></symbol><symbol fill="none" viewBox="0 0 33 30" id="steer--smiley-wink" xmlns="http://www.w3.org/2000/svg"><path fill="currentColor" stroke="currentColor" stroke-width=".5" d="M11.004 4.19a3.685 3.685 0 01-3.688 3.683A3.684 3.684 0 013.63 4.191 3.685 3.685 0 017.316.509a3.687 3.687 0 013.688 3.682z"/><rect width="8" height="2.996" x="22" y="2.609" fill="currentColor" rx="1.498"/><path fill="currentColor" stroke="currentColor" stroke-width=".5" d="M1.684 16.562h0a2.38 2.38 0 013.247.862c2.39 4.122 6.823 6.682 11.569 6.682 4.747 0 9.183-2.56 11.569-6.682h0a2.364 2.364 0 013.243-.863h0a2.362 2.362 0 01.864 3.239h0c-3.23 5.58-9.24 9.047-15.677 9.048C10.067 28.847 4.06 25.38.82 19.8a2.367 2.367 0 01.864-3.24z"/></symbol><symbol fill="none" viewBox="0 0 61 56" id="steer--star" xmlns="http://www.w3.org/2000/svg"><path d="M13.702 35.877l-2.817 16.148c-.47 2.646 2.441 4.744 4.883 3.467l14.93-7.573 14.93 7.573c2.44 1.277 5.352-.821 4.882-3.467l-2.817-16.148 12.02-11.404a3.228 3.228 0 00-1.879-5.565l-16.62-2.372-7.512-14.689c-1.22-2.463-4.789-2.463-6.103 0L20.18 16.536 3.56 18.908c-2.817.365-3.85 3.74-1.878 5.565l12.019 11.404z" fill="currentColor"/></symbol><symbol fill="none" viewBox="0 0 30 30" id="steer--tire" xmlns="http://www.w3.org/2000/svg"><path fill-rule="evenodd" clip-rule="evenodd" d="M15 28.5c7.456 0 13.5-6.044 13.5-13.5S22.456 1.5 15 1.5 1.5 7.544 1.5 15 7.544 28.5 15 28.5zm0 1.5c8.284 0 15-6.716 15-15 0-8.284-6.716-15-15-15C6.716 0 0 6.716 0 15c0 8.284 6.716 15 15 15zM7.537 15.75a7.468 7.468 0 001.799 4.166l2.486-2.486a3.982 3.982 0 01-.752-1.68H7.537zm6.713 6.713a7.463 7.463 0 01-3.822-1.518l2.514-2.514c.397.238.838.41 1.308.499v3.533zM7.537 14.25h3.533c.101-.532.307-1.026.596-1.46l-2.501-2.502a7.464 7.464 0 00-1.628 3.962zm5.178-2.533c.452-.316.973-.54 1.535-.647V7.537a7.466 7.466 0 00-4.03 1.684l2.495 2.496zm3.035-4.18v3.533c.532.101 1.026.307 1.46.596l2.502-2.501a7.464 7.464 0 00-3.962-1.628zm3.18 6.713a3.979 3.979 0 00-.647-1.535l2.496-2.496a7.466 7.466 0 011.684 4.031H18.93zm-.596 2.96c.289-.434.495-.928.596-1.46h3.533a7.465 7.465 0 01-1.628 3.962l-2.501-2.501zm-1.049 1.073c-.452.316-.973.54-1.535.647v3.533a7.466 7.466 0 004.03-1.684l-2.495-2.496zM15 24a9 9 0 100-18 9 9 0 000 18zm2.5-9a2.5 2.5 0 11-5 0 2.5 2.5 0 015 0z" fill="currentColor"/></symbol><symbol fill="none" viewBox="0 0 24 13" id="steer--trending" xmlns="http://www.w3.org/2000/svg"><path fill-rule="evenodd" clip-rule="evenodd" d="M19.079 3.455L15.663 6.87a2 2 0 01-2.829 0l-2.796-2.797a2 2 0 00-2.829 0L.75 10.534a1.125 1.125 0 001.59 1.59l4.87-4.87a2 2 0 012.829 0l2.796 2.797a2 2 0 002.829 0l5.006-5.006 1.009 1.01c.61.609 1.653.213 1.705-.648L23.7.2l-5.082.477a1 1 0 00-.614 1.702l1.076 1.076z" fill="currentColor"/></symbol><symbol fill="currentColor" viewBox="0 0 21 18" id="steer--twitter" xmlns="http://www.w3.org/2000/svg"><g clip-path="url(#buclip0)"><path d="M6.604 17.5c7.925 0 12.259-6.54 12.259-12.212 0-.186 0-.371-.013-.555A8.748 8.748 0 0021 2.51a8.613 8.613 0 01-2.475.675A4.31 4.31 0 0020.42.812c-.846.5-1.771.853-2.736 1.042a4.324 4.324 0 00-6.096-.187A4.288 4.288 0 0010.34 5.77a12.249 12.249 0 01-8.88-4.485 4.286 4.286 0 001.335 5.73A4.283 4.283 0 01.84 6.477v.054a4.298 4.298 0 003.457 4.208c-.635.172-1.3.197-1.946.073a4.312 4.312 0 004.025 2.981A8.67 8.67 0 010 15.573a12.231 12.231 0 006.604 1.924"/></g><defs><clipPath id="buclip0"><path d="M0 .5h21v17H0V.5z"/></clipPath></defs></symbol><symbol stroke="currentColor" fill="none" viewBox="0 0 60 25" id="steer--vehicle-commercial" xmlns="http://www.w3.org/2000/svg"><path d="M58.414 16.3h-1.192a1.213 1.213 0 01-1.086-.659l-.684-2.228a.728.728 0 01.3-.962.712.712 0 01.355-.086h1.309M20.59 20.757h21.217" stroke-width="1.2" stroke-linecap="round" stroke-linejoin="round"/><path d="M55.691 20.302c1.823 0 3.007-1.675 2.781-3.497-.304-2.486-.602-6.922-3.311-7.723-4.208-1.243-7.958-2.15-7.958-2.15S43.143 1 37.256 1H2.672c-.443 0-.869.177-1.182.493A1.69 1.69 0 001 2.684v14.173c0 .497.132.984.385 1.41a2.73 2.73 0 001.048 1.01c.982.54 2.598 1.246 2.598 1.246M40.695 11.02H39.13M32.842 11.11h1.367" stroke-width="1.2" stroke-linecap="round" stroke-linejoin="round"/><path d="M34.164 8.294h-9.218c-.525 0-1.029-.21-1.4-.584a2.002 2.002 0 01-.58-1.41V4.296M1 9.622h1.895c.217 0 .425.087.578.242.153.154.24.364.24.582v4.012c0 .318-.126.624-.349.85a1.19 1.19 0 01-.842.353H1M46.06 8.294h-5.65a2.054 2.054 0 01-1.458-.608 2.084 2.084 0 01-.604-1.468V4.296" stroke-width="1.2" stroke-linecap="round" stroke-linejoin="round"/><path d="M50.793 15.76c-.81 0-1.6.241-2.273.694a4.114 4.114 0 00-1.506 1.85 4.149 4.149 0 00.886 4.49c.572.575 1.301.968 2.095 1.127a4.062 4.062 0 002.363-.235 4.096 4.096 0 001.836-1.517 4.142 4.142 0 00-.51-5.203 4.075 4.075 0 00-2.891-1.206zM13.716 15.76c-.81 0-1.6.243-2.272.696a4.114 4.114 0 00-1.505 1.85 4.148 4.148 0 00.889 4.488 4.062 4.062 0 004.457.892 4.096 4.096 0 001.835-1.517 4.141 4.141 0 00-.51-5.205 4.085 4.085 0 00-2.894-1.204z" stroke-width="1.2"/></symbol><symbol stroke="currentColor" fill="none" viewBox="0 0 48 36" id="steer--vehicle-farm" xmlns="http://www.w3.org/2000/svg"><path d="M6.65 15.967V4.159h19.826l2.18 12.524c4.877.07 9.735.613 14.506 1.624 2.111.465 2.85 1.707 2.85 2.405v2.61c-1.857-.58-2.977-1.146-5.732-.923 0 0-5.974.389-5.974 6.783M19.852 29.806h7.458M22.813 18.307h2.124M14.018 16.448V4.168" stroke-width="1.2" stroke-linecap="round" stroke-linejoin="round"/><path d="M31.484 16.448V3.41A2.703 2.703 0 0133.43 1M19.98 27.43A10.072 10.072 0 001 22.728M4.675 4.159h23.393" stroke-width="1.2" stroke-linecap="round" stroke-linejoin="round"/><path d="M39.29 25.883a4.977 4.977 0 115.526 8.279 4.977 4.977 0 01-5.525-8.28zM9.916 19.87a7.563 7.563 0 100 15.126 7.563 7.563 0 000-15.125z" stroke-width="1.2"/></symbol><symbol stroke="currentColor" fill="none" viewBox="0 0 45 36" id="steer--vehicle-industrial" xmlns="http://www.w3.org/2000/svg"><path d="M13.286 32.763h7.207M1.25 27.154V7.843a3.422 3.422 0 013.418-3.418h15.738l9 18.664h-8.212a1.23 1.23 0 00-1.23 1.23v1.084h-4.44v-2.39a2.355 2.355 0 00-2.354-2.358H4.018v5.302" stroke-width="1.2" stroke-linecap="round" stroke-linejoin="round"/><path d="M20.133 18.348l1.67 1.052v3.69M20.942 16.486l-1.936 3.468M6.333 20.486v-6.87a1.477 1.477 0 00-1.477-1.474M29.406 23.09V4.424H27.73V1h4.833a1.265 1.265 0 011.265 1.265v28.707h7.585s2.621.028 2.621-2.624" stroke-width="1.2" stroke-linecap="round" stroke-linejoin="round"/><path d="M26.56 25.77a4.616 4.616 0 100 9.23 4.616 4.616 0 000-9.23zM3.186 27.876a3.846 3.846 0 114.274 6.396 3.846 3.846 0 01-4.274-6.396z" stroke-width="1.2"/></symbol><symbol stroke="currentColor" fill="none" viewBox="0 0 63 25" id="steer--vehicle-light-truck" xmlns="http://www.w3.org/2000/svg"><path d="M34.09 13.342h-2.067M8.968 20.552l-4.971-.837A3.6 3.6 0 011 16.157V9.202a.034.034 0 01.034-.035h25.147V2.164A1.16 1.16 0 0127.348 1h10.617a4.037 4.037 0 013.052 1.395l6.142 7.093 8.611.902a5.29 5.29 0 014.613 3.755l.899 2.952a2.835 2.835 0 01-.558 2.714 2.037 2.037 0 01-1.543.69M42.742 20.552H22.157M47.255 9.498H29.487" stroke-width="1.2" stroke-linecap="round" stroke-linejoin="round"/><path d="M60.158 14.434h-2.07c-.084.022-.25.133-.25.402-.001 1.244.452 2.088.98 2.354h2.464M1 11.965h2.756v3.444H1" stroke-width="1.2" stroke-linecap="round" stroke-linejoin="round"/><path d="M49.666 16.116a4.306 4.306 0 114.79 7.156 4.306 4.306 0 01-4.79-7.156zM15.289 15.388a4.307 4.307 0 10.014 8.614 4.307 4.307 0 00-.014-8.614z" stroke-width="1.2"/></symbol><symbol stroke="currentColor" fill="none" viewBox="0 0 62 20" id="steer--vehicle-passenger" xmlns="http://www.w3.org/2000/svg"><path d="M21.684 16.093h19.911M9.038 15.667c-2.272 0-5.63-.96-6.88-1.068A1.263 1.263 0 011 13.306c0-.535.027-1.188.027-1.788 0-2.45 1.431-2.681 1.431-4.838 0-1.462 1.181-1.471 1.181-1.471h6.326C11.403 5.209 14.101 1 20.13 1h9.235s5.277 0 8.246 1.65c2.968 1.648 5.607 2.888 5.607 2.888S53.225 6.462 57.4 7.01a2.605 2.605 0 012.082 1.626c2.021 5.116 2.43 7.458-1.32 7.458M30.011 8.177h-1.979M17.15 8.177h1.978M43.258 5.548H17.16" stroke-width="1.2" stroke-linecap="round" stroke-linejoin="round"/><path d="M2.636 7.596h1.59c.068 0 .136.02.196.06.06.04.11.097.146.166a.541.541 0 01.018.464L3.88 9.972a.46.46 0 01-.148.192.358.358 0 01-.211.071H1.33M59.269 8.916h-1.933a.82.82 0 00-.498.147.974.974 0 00-.343.431c-.075.178-.1.377-.075.572.026.195.102.377.218.523l.337.462c.166.226.375.409.612.534.236.125.494.19.755.189l2.026.11" stroke-width="1.2" stroke-linecap="round" stroke-linejoin="round"/><path d="M12.393 11.844a4.123 4.123 0 114.59 6.85 4.123 4.123 0 01-4.59-6.85zM49.761 11.842a4.123 4.123 0 114.586 6.853 4.123 4.123 0 01-4.586-6.853z" stroke-width="1.2"/></symbol><symbol stroke="currentColor" fill="none" viewBox="0 0 62 30" id="steer--vehicle-rv" xmlns="http://www.w3.org/2000/svg"><path d="M46.749 25.467h-24.68M58.352 26.165a15.65 15.65 0 001.505-.524c1.67-.686 1.161-3.28 1.12-4.981a2.85 2.85 0 00-1.506-2.408c-.704-2.823-3.912-3.57-3.912-3.57S47.194 4.458 46.147 3.257" stroke-width="1.2" stroke-linecap="round" stroke-linejoin="round"/><path d="M58.837 16.856s-1.635-.903-2.45-.548c-.816.355.996 2.769 3.66 2.357M43.137 17.253v1.505M42.868 10.243s.208 4.566 3.031 5.117c2.823.55 3.913.457 3.913.457M30.598 22.068V8.271a1.063 1.063 0 011.063-1.062h4.042a1.062 1.062 0 011.062 1.062v13.797M32.904 14.544v1.505" stroke-width="1.2" stroke-linecap="round" stroke-linejoin="round"/><path d="M7.32 25.467H1V4.242a3.154 3.154 0 013.145-3.155h37.02s2.256-.031 3.928 1.134c.394.274 1.047 1.036 1.047 1.036" stroke-width="1.2" stroke-linecap="round" stroke-linejoin="round"/><path d="M52.264 22.11a3.762 3.762 0 114.18 6.256 3.762 3.762 0 01-4.18-6.256zM12.655 22.11a3.762 3.762 0 114.18 6.256 3.762 3.762 0 01-4.18-6.256z" stroke-width="1.2"/></symbol><symbol fill="none" viewBox="0 0 30 30" id="steer--wheel" xmlns="http://www.w3.org/2000/svg"><path fill-rule="evenodd" clip-rule="evenodd" d="M15 28.5c7.456 0 13.5-6.044 13.5-13.5S22.456 1.5 15 1.5 1.5 7.544 1.5 15 7.544 28.5 15 28.5zm0 1.5c8.284 0 15-6.716 15-15 0-8.284-6.716-15-15-15C6.716 0 0 6.716 0 15c0 8.284 6.716 15 15 15zM7.537 15.75a7.468 7.468 0 001.799 4.166l2.486-2.486a3.982 3.982 0 01-.752-1.68H7.537zm6.713 6.713a7.463 7.463 0 01-3.822-1.518l2.514-2.514c.397.238.838.41 1.308.499v3.533zM7.537 14.25h3.533c.101-.532.307-1.026.596-1.46l-2.501-2.502a7.464 7.464 0 00-1.628 3.962zm5.178-2.533c.452-.316.973-.54 1.535-.647V7.537a7.466 7.466 0 00-4.03 1.684l2.495 2.496zm3.035-4.18v3.533c.532.101 1.026.307 1.46.596l2.502-2.501a7.464 7.464 0 00-3.962-1.628zm3.18 6.713a3.979 3.979 0 00-.647-1.535l2.496-2.496a7.466 7.466 0 011.684 4.031H18.93zm-.596 2.96c.289-.434.495-.928.596-1.46h3.533a7.465 7.465 0 01-1.628 3.962l-2.501-2.501zm-1.049 1.073c-.452.316-.973.54-1.535.647v3.533a7.466 7.466 0 004.03-1.684l-2.495-2.496zM15 24a9 9 0 100-18 9 9 0 000 18zm2.5-9a2.5 2.5 0 11-5 0 2.5 2.5 0 015 0z" fill="#BABABA"/><circle cx="15" cy="15" r="8.25" stroke="#181818" stroke-width="1.5"/></symbol><symbol fill="none" viewBox="0 0 64 72" id="steer--winter" xmlns="http://www.w3.org/2000/svg"><path d="M.753 53.5c.396.622 1.03.933 1.743.933.317 0 .713-.077.95-.233l6.732-3.811v7.622c0 1.089.871 1.945 1.98 1.945s1.98-.856 1.98-1.945v-9.878l15.444-8.789v17.578L20.87 61.9c-.95.544-1.267 1.711-.713 2.644.396.623 1.03.934 1.742.934.317 0 .713-.078.95-.234l6.733-3.81v7.622c0 1.088.871 1.944 1.98 1.944s1.98-.856 1.98-1.944v-7.623l6.732 3.811c.316.156.633.234.95.234.713 0 1.347-.311 1.743-.934.554-.933.237-2.1-.713-2.644l-8.712-4.978V39.344l15.444 8.79v9.877c0 1.089.87 1.945 1.98 1.945 1.108 0 1.98-.856 1.98-1.945V50.39l6.732 3.811c.316.156.633.233.95.233.713 0 1.346-.31 1.742-.933.555-.933.238-2.1-.713-2.644l-6.731-3.812 6.731-3.81c.95-.545 1.268-1.712.713-2.645a1.973 1.973 0 00-2.692-.7l-8.712 4.978L35.6 36l15.444-8.789 8.712 4.978c.317.155.633.233.95.233.713 0 1.346-.31 1.742-.933.555-.933.238-2.1-.712-2.645l-6.732-3.81 6.732-3.812c.95-.544 1.267-1.71.712-2.644a1.973 1.973 0 00-2.692-.7l-6.732 3.81v-7.621c0-1.09-.871-1.945-1.98-1.945s-1.98.856-1.98 1.945v9.877L33.62 32.656V15.078l8.712-4.978c.95-.544 1.267-1.711.713-2.644a1.973 1.973 0 00-2.693-.7l-6.732 3.81V2.945c0-1.088-.871-1.944-1.98-1.944s-1.98.856-1.98 1.944v7.623l-6.732-3.811a1.973 1.973 0 00-2.693.7c-.554.933-.237 2.1.713 2.644l8.712 4.978v17.578l-15.444-8.79V13.99c0-1.089-.871-1.945-1.98-1.945-1.108 0-1.98.856-1.98 1.945v7.622L3.525 17.8a1.974 1.974 0 00-2.692.7c-.555.933-.238 2.1.712 2.644l6.732 3.812-6.732 3.81c-.95.545-1.267 1.712-.712 2.645.396.622 1.03.933 1.742.933.317 0 .713-.077.95-.233l8.712-4.978L27.681 36l-15.444 8.789-8.712-4.978a1.974 1.974 0 00-2.692.7c-.555.933-.238 2.1.712 2.645l6.732 3.81-6.732 3.812C.595 51.4.2 52.567.753 53.5z" fill="currentColor" stroke="currentColor" stroke-width=".8"/></symbol><symbol fill="currentColor" viewBox="0 0 22 16" id="steer--youtube" xmlns="http://www.w3.org/2000/svg"><path d="M21.542 2.499c-.254-.984-.998-1.758-1.945-2.021C17.88 0 11 0 11 0S4.12 0 2.405.478C1.458.74.714 1.515.46 2.498 0 4.28 0 8 0 8s0 3.72.46 5.501c.254.984.998 1.758 1.945 2.021C4.12 16 11 16 11 16s6.88 0 8.595-.478c.947-.263 1.692-1.037 1.945-2.02C22 11.72 22 8 22 8s0-3.72-.458-5.501zM8.8 11.428V4.572L14.515 8 8.8 11.428z"/></symbol></svg>