<?xml version="1.0" encoding="utf-8"?><svg xmlns="http://www.w3.org/2000/svg" xmlns:xlink="http://www.w3.org/1999/xlink"><symbol fill="currentColor" viewBox="0 0 14 17" id="steer--account" xmlns="http://www.w3.org/2000/svg"><path fill-rule="evenodd" clip-rule="evenodd" d="M5 4a2 2 0 114 0 2 2 0 01-4 0zm2-4a4 4 0 100 8 4 4 0 000-8zM2 16a5 5 0 0110 0 1 1 0 102 0 7 7 0 10-14 0 1 1 0 102 0z"/></symbol><symbol fill="currentColor" viewBox="0 0 12 14" id="steer--arrow-down" xmlns="http://www.w3.org/2000/svg"><path fill-rule="evenodd" clip-rule="evenodd" d="M6 0a1 1 0 011 1v9.586l3.293-3.293a1 1 0 111.414 1.414l-5 5a1 1 0 01-1.414 0l-5-5a1 1 0 011.414-1.414L5 10.586V1a1 1 0 011-1z"/></symbol><symbol fill="currentColor" viewBox="0 0 14 12" id="steer--arrow-left" xmlns="http://www.w3.org/2000/svg"><path fill-rule="evenodd" clip-rule="evenodd" d="M6.707.293a1 1 0 010 1.414L3.414 5H13a1 1 0 110 2H3.414l3.293 3.293a1 1 0 11-1.414 1.414l-5-5a1 1 0 010-1.414l5-5a1 1 0 011.414 0z"/></symbol><symbol fill="currentColor" viewBox="0 0 14 12" id="steer--arrow-right" xmlns="http://www.w3.org/2000/svg"><path fill-rule="evenodd" clip-rule="evenodd" d="M7.293.293a1 1 0 011.414 0l5 5a1 1 0 010 1.414l-5 5a1 1 0 01-1.414-1.414L10.586 7H1a1 1 0 010-2h9.586L7.293 1.707a1 1 0 010-1.414z"/></symbol><symbol fill="currentColor" viewBox="0 0 12 14" id="steer--arrow-up" xmlns="http://www.w3.org/2000/svg"><path fill-rule="evenodd" clip-rule="evenodd" d="M5.293.293a1 1 0 011.414 0l5 5a1 1 0 01-1.414 1.414L7 3.414V13a1 1 0 11-2 0V3.414L1.707 6.707A1 1 0 01.293 5.293l5-5z"/></symbol><symbol fill="none" viewBox="0 0 15 12" id="steer--checkmark" xmlns="http://www.w3.org/2000/svg"><path fill="currentColor" d="M13.137 0c-.364.014-.71.167-.963.43-2.681 2.687-4.73 4.93-7.218 7.472l-2.652-2.24A1.402 1.402 0 10.502 7.806l3.64 3.08a1.399 1.399 0 001.89-.08c3.016-3.021 5.163-5.435 8.12-8.4A1.4 1.4 0 0013.137 0z"/></symbol><symbol fill="currentColor" viewBox="0 0 12 7" id="steer--chevron-down" xmlns="http://www.w3.org/2000/svg"><path fill-rule="evenodd" clip-rule="evenodd" d="M.293.293a1 1 0 011.414 0L6 4.586 10.293.293a1 1 0 111.414 1.414l-5 5a1 1 0 01-1.414 0l-5-5a1 1 0 010-1.414z"/></symbol><symbol fill="currentColor" viewBox="0 0 7 12" id="steer--chevron-left" xmlns="http://www.w3.org/2000/svg"><path fill-rule="evenodd" clip-rule="evenodd" d="M6.707.293a1 1 0 010 1.414L2.414 6l4.293 4.293a1 1 0 11-1.414 1.414l-5-5a1 1 0 010-1.414l5-5a1 1 0 011.414 0z"/></symbol><symbol fill="currentColor" viewBox="0 0 7 12" id="steer--chevron-right" xmlns="http://www.w3.org/2000/svg"><path fill-rule="evenodd" clip-rule="evenodd" d="M.293.293a1 1 0 011.414 0l5 5a1 1 0 010 1.414l-5 5a1 1 0 01-1.414-1.414L4.586 6 .293 1.707a1 1 0 010-1.414z"/></symbol><symbol fill="none" viewBox="0 0 8 5" id="steer--chevron-small-down" xmlns="http://www.w3.org/2000/svg"><path fill-rule="evenodd" clip-rule="evenodd" d="M.293.293a1 1 0 011.414 0L4 2.586 6.293.293a1 1 0 011.414 1.414l-3 3a1 1 0 01-1.414 0l-3-3a1 1 0 010-1.414z" fill="currentColor"/></symbol><symbol fill="none" viewBox="0 0 8 5" id="steer--chevron-small-up" xmlns="http://www.w3.org/2000/svg"><path fill-rule="evenodd" clip-rule="evenodd" d="M3.293.293a1 1 0 011.414 0l3 3a1 1 0 01-1.414 1.414L4 2.414 1.707 4.707A1 1 0 01.293 3.293l3-3z" fill="currentColor"/></symbol><symbol fill="currentColor" viewBox="0 0 12 7" id="steer--chevron-up" xmlns="http://www.w3.org/2000/svg"><path fill-rule="evenodd" clip-rule="evenodd" d="M5.293.293a1 1 0 011.414 0l5 5a1 1 0 01-1.414 1.414L6 2.414 1.707 6.707A1 1 0 01.293 5.293l5-5z"/></symbol><symbol fill="currentColor" viewBox="0 0 16 16" id="steer--clear-input" xmlns="http://www.w3.org/2000/svg"><path fill-rule="evenodd" clip-rule="evenodd" d="M8 16A8 8 0 108 0a8 8 0 000 16zM6.03 4.97a.75.75 0 00-1.06 1.06L6.94 8 4.97 9.97a.75.75 0 101.06 1.06L8 9.06l1.97 1.97a.75.75 0 101.06-1.06L9.06 8l1.97-1.97a.75.75 0 10-1.06-1.06L8 6.94 6.03 4.97z"/></symbol><symbol fill="currentColor" viewBox="0 0 12 12" id="steer--close" xmlns="http://www.w3.org/2000/svg"><path fill-rule="evenodd" clip-rule="evenodd" d="M.293.293a1 1 0 011.414 0L6 4.586 10.293.293a1 1 0 111.414 1.414L7.414 6l4.293 4.293a1 1 0 01-1.414 1.414L6 7.414l-4.293 4.293a1 1 0 01-1.414-1.414L4.586 6 .293 1.707a1 1 0 010-1.414z"/></symbol><symbol fill="none" viewBox="0 0 16 16" id="steer--external-link" xmlns="http://www.w3.org/2000/svg"><rect x=".75" y=".75" width="14.5" height="14.5" rx="3.25" stroke="currentColor" stroke-width="1.5"/><path d="M11.564 4.073C11.49 4 11.345 4 11.273 4H7.636c-.436 0-.727.29-.727.727s.291.728.727.728h1.891l-5.309 5.309a.703.703 0 000 1.018c.291.29.727.29 1.018 0l5.31-5.31v1.892c0 .436.29.727.727.727.436 0 .727-.291.727-.727V4.727c0-.29-.146-.582-.436-.654z" fill="currentColor"/></symbol><symbol viewBox="0 0 122 20" id="steer--five-stars" xmlns="http://www.w3.org/2000/svg"><path d="M.55 9.025l4.074 2.958c.465.338.66.938.482 1.484L3.55 18.256c-.397 1.223 1.003 2.24 2.044 1.485l4.074-2.96a1.326 1.326 0 011.561 0l4.074 2.96c1.041.755 2.442-.262 2.045-1.485l-1.556-4.789a1.325 1.325 0 01.482-1.484l4.074-2.958c1.04-.757.506-2.403-.78-2.403H14.53c-.575 0-1.086-.37-1.263-.917L11.712.918c-.398-1.224-2.128-1.224-2.527 0L7.628 5.705a1.326 1.326 0 01-1.262.917H1.33c-1.287 0-1.82 1.646-.78 2.403zm25.105 0l4.074 2.958c.466.338.66.938.483 1.484l-1.557 4.789c-.397 1.223 1.003 2.24 2.045 1.485l4.074-2.96a1.326 1.326 0 011.56 0l4.075 2.96c1.04.755 2.441-.262 2.044-1.485l-1.556-4.789a1.325 1.325 0 01.483-1.484l4.073-2.958c1.04-.757.507-2.403-.78-2.403h-5.037c-.574 0-1.086-.37-1.263-.917L36.817.918c-.398-1.224-2.128-1.224-2.527 0l-1.556 4.787a1.326 1.326 0 01-1.263.917h-5.035c-1.287 0-1.821 1.646-.78 2.403zm25.109 0l4.075 2.958c.465.338.66.938.482 1.484l-1.556 4.789c-.398 1.223 1.003 2.24 2.044 1.485l4.074-2.96a1.326 1.326 0 011.56 0l4.075 2.96c1.041.755 2.442-.262 2.044-1.485l-1.555-4.789a1.324 1.324 0 01.482-1.484l4.073-2.958c1.04-.757.507-2.403-.78-2.403h-5.036c-.575 0-1.086-.37-1.263-.917L61.927.918c-.398-1.224-2.128-1.224-2.527 0l-1.557 4.787a1.326 1.326 0 01-1.262.917h-5.036c-1.287 0-1.82 1.646-.78 2.403zm25.106 0l4.074 2.958c.465.338.66.938.483 1.484l-1.557 4.789c-.397 1.223 1.003 2.24 2.044 1.485l4.075-2.96a1.326 1.326 0 011.56 0l4.075 2.96c1.04.755 2.441-.262 2.044-1.485l-1.556-4.789a1.324 1.324 0 01.483-1.484l4.073-2.958c1.04-.757.506-2.403-.78-2.403H89.85c-.575 0-1.086-.37-1.263-.917L87.032.918c-.398-1.224-2.128-1.224-2.527 0l-1.557 4.787a1.326 1.326 0 01-1.262.917h-5.035c-1.287 0-1.821 1.646-.781 2.403zm25.109 0l4.074 2.958c.466.338.661.938.483 1.484l-1.557 4.789c-.397 1.223 1.004 2.24 2.045 1.485l4.074-2.96a1.326 1.326 0 011.561 0l4.074 2.96c1.041.755 2.442-.262 2.044-1.485l-1.556-4.789a1.326 1.326 0 01.483-1.484l4.073-2.958c1.041-.757.507-2.403-.78-2.403h-5.036c-.575 0-1.087-.37-1.263-.917L112.142.918c-.398-1.224-2.129-1.224-2.528 0l-1.556 4.787a1.327 1.327 0 01-1.263.917h-5.035c-1.287 0-1.821 1.646-.781 2.403z"/></symbol><symbol fill="currentColor" viewBox="0 0 16 20" id="steer--location" xmlns="http://www.w3.org/2000/svg"><path fill-rule="evenodd" clip-rule="evenodd" d="M2.5 7.353C2.5 4.418 4.94 2 8 2s5.5 2.418 5.5 5.353c0 1.485-.726 3.436-1.927 5.473A27.573 27.573 0 018 17.572a27.294 27.294 0 01-3.605-4.777C3.207 10.773 2.5 8.84 2.5 7.353zM8 0C3.88 0 .5 3.27.5 7.353c0 2.02.918 4.324 2.169 6.454A29.277 29.277 0 007.3 19.715a1 1 0 001.398 0 29.384 29.384 0 004.598-5.873c1.259-2.137 2.203-4.465 2.203-6.49C15.5 3.272 12.12 0 8 0zm0 9.75a2.25 2.25 0 100-4.5 2.25 2.25 0 000 4.5z"/></symbol><symbol fill="currentColor" viewBox="0 0 20 20" id="steer--main-search" xmlns="http://www.w3.org/2000/svg"><path fill-rule="evenodd" clip-rule="evenodd" d="M2.857 9.048a6.19 6.19 0 1112.38 0 6.19 6.19 0 01-12.38 0zM9.047 0a9.048 9.048 0 105.308 16.375l3.206 3.207a1.429 1.429 0 102.02-2.02l-3.206-3.207a9.007 9.007 0 001.72-5.307A9.047 9.047 0 009.047 0z"/></symbol><symbol fill="currentColor" viewBox="0 0 16 8" id="steer--menu" xmlns="http://www.w3.org/2000/svg"><path fill-rule="evenodd" clip-rule="evenodd" d="M1.5 0a1 1 0 100 2h13a1 1 0 100-2h-13zm0 6a1 1 0 000 2h13a1 1 0 100-2h-13z"/></symbol><symbol fill="none" viewBox="0 0 12 12" id="steer--verified-small" xmlns="http://www.w3.org/2000/svg"><path d="M5.447.024a6.002 6.002 0 00-3.69 10.219 6.005 6.005 0 008.218.253 6.002 6.002 0 002.001-3.943 6.02 6.02 0 00-6.53-6.53v.001zm3.776 4.628L5.667 8.171a.571.571 0 01-.797 0L2.773 6.169a.572.572 0 11.793-.826l1.692 1.623L8.424 3.84a.572.572 0 01.803.813h-.004z" fill="currentColor"/></symbol></svg>