<?xml version="1.0" encoding="utf-8"?><svg xmlns="http://www.w3.org/2000/svg" xmlns:xlink="http://www.w3.org/1999/xlink"><symbol fill="currentColor" viewBox="0 0 14 17" id="steer--account" xmlns="http://www.w3.org/2000/svg"><path fill-rule="evenodd" clip-rule="evenodd" d="M5 4a2 2 0 114 0 2 2 0 01-4 0zm2-4a4 4 0 100 8 4 4 0 000-8zM2 16a5 5 0 0110 0 1 1 0 102 0 7 7 0 10-14 0 1 1 0 102 0z"/></symbol><symbol fill="none" viewBox="0 0 30 29" id="steer--all-season" xmlns="http://www.w3.org/2000/svg"><path d="M16 28.076V24.93l.032-20.984V.802c0-.449.353-.802.802-.802.45 0 .802.353.802.802v3.145l2.728-1.573a.792.792 0 011.09.29.792.792 0 01-.288 1.09l-3.53 2.054v7.251l6.257-3.593V5.39c0-.45.353-.803.802-.803.45 0 .803.353.803.803v3.144l2.727-1.572a.792.792 0 011.09.289.792.792 0 01-.288 1.09L26.3 9.915l2.727 1.572a.792.792 0 01.289 1.09.805.805 0 01-.706.386.854.854 0 01-.385-.096l-3.53-2.054-6.256 3.626 6.224 3.658 3.53-2.054a.791.791 0 011.09.289.792.792 0 01-.288 1.091l-2.727 1.572 2.727 1.572a.792.792 0 01.289 1.091.805.805 0 01-.706.385.855.855 0 01-.385-.096l-2.728-1.572v3.144c0 .45-.352.803-.802.803a.794.794 0 01-.802-.803v-4.075l-6.257-3.625v7.251l3.53 2.054a.792.792 0 01.289 1.09.805.805 0 01-.706.386.855.855 0 01-.385-.097l-2.728-1.572v3.145c0 .449-.353.802-.802.802a.794.794 0 01-.802-.802zM14.142 14.142v7.615a7.615 7.615 0 110-15.23v7.615z" fill="currentColor"/><path stroke="currentColor" stroke-width="2" stroke-linecap="round" d="M13.505 4.078V1.002M8.395 5.491L6.876 2.815M4.603 9.299L1.875 7.877M4.958 19.357l-2.729 1.42M8.57 23.238l-1.672 2.583M13.7 24.84l-.002 3.077M4.076 14.41H1"/></symbol><symbol fill="currentColor" viewBox="0 0 12 14" id="steer--arrow-down" xmlns="http://www.w3.org/2000/svg"><path fill-rule="evenodd" clip-rule="evenodd" d="M6 0a1 1 0 011 1v9.586l3.293-3.293a1 1 0 111.414 1.414l-5 5a1 1 0 01-1.414 0l-5-5a1 1 0 011.414-1.414L5 10.586V1a1 1 0 011-1z"/></symbol><symbol fill="currentColor" viewBox="0 0 14 12" id="steer--arrow-left" xmlns="http://www.w3.org/2000/svg"><path fill-rule="evenodd" clip-rule="evenodd" d="M6.707.293a1 1 0 010 1.414L3.414 5H13a1 1 0 110 2H3.414l3.293 3.293a1 1 0 11-1.414 1.414l-5-5a1 1 0 010-1.414l5-5a1 1 0 011.414 0z"/></symbol><symbol fill="currentColor" viewBox="0 0 14 12" id="steer--arrow-right" xmlns="http://www.w3.org/2000/svg"><path fill-rule="evenodd" clip-rule="evenodd" d="M7.293.293a1 1 0 011.414 0l5 5a1 1 0 010 1.414l-5 5a1 1 0 01-1.414-1.414L10.586 7H1a1 1 0 010-2h9.586L7.293 1.707a1 1 0 010-1.414z"/></symbol><symbol fill="currentColor" viewBox="0 0 12 14" id="steer--arrow-up" xmlns="http://www.w3.org/2000/svg"><path fill-rule="evenodd" clip-rule="evenodd" d="M5.293.293a1 1 0 011.414 0l5 5a1 1 0 01-1.414 1.414L7 3.414V13a1 1 0 11-2 0V3.414L1.707 6.707A1 1 0 01.293 5.293l5-5z"/></symbol><symbol fill="none" viewBox="0 0 38 35" id="steer--best-price" xmlns="http://www.w3.org/2000/svg"><path stroke="currentColor" stroke-linecap="round" stroke-linejoin="round" stroke-width="1.7" d="M0 18l3-3.5L6 18"/><path stroke="currentColor" stroke-linecap="round" stroke-linejoin="round" stroke-width="1.7" d="M7.555 6.5c1.333-1.833 5.7-5.5 12.5-5.5 6 0 16.5 4.5 16.5 17 0 5.5-5 16-16.5 16-14.8-.4-17.5-13.167-17-19.5"/><path fill="currentColor" d="M20.42 26.34h-1.56v-2.08c-1.293-.133-2.313-.58-3.06-1.34-.747-.773-1.18-1.647-1.3-2.62l1.9-.6c.067.693.307 1.3.72 1.82s.993.847 1.74.98v-4.18l-.5-.1c-1.04-.213-1.853-.633-2.44-1.26s-.88-1.42-.88-2.38.353-1.8 1.06-2.52c.72-.72 1.64-1.147 2.76-1.28v-2.1h1.56v2.12c1.107.147 1.953.533 2.54 1.16.6.613 1 1.313 1.2 2.1l-1.8.66c-.067-.44-.267-.867-.6-1.28-.333-.413-.78-.7-1.34-.86v4.1l.3.06c1.093.213 1.96.66 2.6 1.34.64.68.96 1.473.96 2.38 0 .947-.34 1.78-1.02 2.5-.68.72-1.627 1.153-2.84 1.3v2.08zm1.9-5.78c0-.44-.16-.833-.48-1.18-.32-.347-.793-.593-1.42-.74v3.86c.627-.12 1.1-.353 1.42-.7.32-.347.48-.76.48-1.24zm-5.3-6.06c0 .973.613 1.58 1.84 1.82v-3.8c-.573.107-1.027.34-1.36.7-.32.36-.48.787-.48 1.28z"/></symbol><symbol viewBox="0 0 262 79" id="steer--brands-circular" xmlns="http://www.w3.org/2000/svg"><g fill="none"><circle fill="#ffffff38" cx="39.5" cy="39.5" r="39.5"/><path d="M46.815 38.715c2.209.767 5.2 2.599 3.785 7.426C49.078 51.338 45.794 53 40.402 53H21l18.111-17.134-3.282 12.047h1.758c1.29 0 2.11-.826 2.462-1.89L45.91 25c4.221 0 8.898.487 7.973 6.614-.777 5.144-4.181 6.345-7.027 6.886-.181.023-.181.199-.04.215zM45.75 25L25.812 43.439 31.02 25h14.73z" fill="#FFF"/><g transform="translate(93)"><circle fill="#ffffff38" cx="39.5" cy="39.5" r="39.5"/><g fill="#FFF"><path d="M23 46h3.05v-6H23v6zm38.95 0H65v-6h-3.05v6z"/><path d="M63.998 35H16v11h5.316v-6.91l42.681.001c.262.004.521-.045.764-.146.243-.1.464-.25.65-.44a2.05 2.05 0 00.436-.669 2.113 2.113 0 00-.435-2.249 1.966 1.966 0 00-.65-.44c-.243-.102-.503-.151-.764-.147zm-5.896 2.696H21.316v-1.304l36.786.003a.606.606 0 01.451.186.652.652 0 01.188.465.672.672 0 01-.188.465.625.625 0 01-.451.185z"/><path d="M35.498 43.846c.634-.307 1.035-.99 1.035-1.782 0-1.08-.795-2.064-2.147-2.064H28v6h3.103v-1.936h1.015L33.053 46h3.481l-1.036-2.154zm-2.624-1.235h-1.77v-1.27l1.77.006c.157 0 .307.067.418.185.11.119.173.28.173.447a.655.655 0 01-.173.447.572.572 0 01-.418.185zM38.48 46h6.844v-1.34h-3.74v-.883h3.74V42.33h-3.74v-.883h3.74V40H38.48v6zm12.063-6h-3.104v6h6.247v-1.34h-3.143V40zm7.314 0h-3.103v6H61v-1.34h-3.143V40z"/></g></g><g transform="translate(183)"><circle fill="#ffffff38" cx="39.5" cy="39.5" r="39.5"/><path d="M19.361 38.778c0-1.077-.413-1.174-.691-1.344l2.356-.864c.306.23.67.362.67 1.292v2.296c0 .495 0 .988.684 1.264l-2.124.841c-.811-.289-.895-1.082-.895-1.575v-1.91zm32.914-2.21c2.684.32 3.355 1.714 3.355 2.965 0 1.568-2.126 2.498-2.935 2.76-1.985-.146-3.58-1.453-3.608-3.08-.028-1.628 2.376-2.325 3.188-2.645zm-.449 1.28a2.316 2.316 0 00-.133 1.74c.163.471.528.923 1.223 1.224.174-.163.453-.983.184-1.757-.166-.477-.54-.932-1.274-1.207zm-14.806 2.89l.742-.582 1.594.989c.448.261.713-.262.252-.553l-2.293-1.482c-.45-.312-.435-.822.028-1.118l2.566-1.642 2.726 1.685-.741.589-1.37-.85c-.51-.305-.818.247-.383.508l2.28 1.408c.441.295.486.823.056 1.107l-2.643 1.684-2.814-1.743zM11 38.05c.27-3.354 2.793-3.058 3.154-3.033 1.157.078 1.583.34 2.326.465.728.123 1.6.162 2.31-.424.028.494.258 2.906-3.51 2.442-.251.545-.316.658-.058 1.771.335-.232 1.51-1.075 2.21-.261l-.685 1.525c-.295-.348-.742-.393-1.216-.073.028.669.614 3.538-2.825 3.538.812-.843.57-1.586.432-2.268-.232-1.15-.762-2.547.498-4.307-.365-.145-1.448-.247-2.636.625zm35.961.087v2.035c0 .493.042.987.728 1.264l-2.124.827c-.812-.289-.895-1.082-.895-1.575v-2.551h-1.231l3.524-2.703v1.396h1.37v1.307H46.96zm12.625.436v1.585c0 .495.084 1.046.63 1.293l-2.043.814c-.81-.29-.895-1.082-.895-1.576v-1.911c0-.857-.24-1.112-.691-1.344l2.37-.864c.254.192.518.315.6.878l2.25-.908c.868.205 1.398 1.003 1.398 1.933v1.657c0 .493.029.887.644 1.307l-2.043.828c-.81-.29-.895-1.082-.895-1.576v-1.563c0-.669-.28-.842-.672-.842l-.653.29zm-33.515-1.025l1.791-.95 1.3 2.193-1.888 1.003-.685-1.134-.503.284v1.214c0 .495.042.988.728 1.264l-2.112.841c-.812-.289-.895-1.082-.895-1.575v-1.91c0-.857-.242-1.131-.693-1.344l2.342-.864c.27.2.55.327.615.978zm6.525 2.74c.912.722 2.278.393 3-.039l-.895 1.642c-1.328.334-3.08.592-4.338-.715-1.034-1.079-.696-2.431-.318-3.079.282-.481.92-1.015 1.805-1.293.503-.16 1.18-.283 2.11-.324l1.804 2.325-3.168 1.483zm-.61-.776l1.342-.634-.768-.989c-.567.257-1.058.705-.574 1.623zm35.852.776c.911.722 2.277.393 2.999-.039l-.895 1.642c-1.328.334-3.08.592-4.339-.715-1.036-1.077-.696-2.431-.32-3.077.284-.482.92-1.015 1.805-1.294.505-.159 1.18-.282 2.109-.323L71 38.807l-3.163 1.48zm-.61-.776l1.341-.634-.768-.989c-.569.257-1.059.705-.574 1.623z" fill="#FFF"/></g></g></symbol><symbol fill="none" viewBox="0 0 16 17" id="steer--calendar" xmlns="http://www.w3.org/2000/svg"><path d="M13.6 2.6H2.4A1.6 1.6 0 00.8 4.2v10.2A1.6 1.6 0 002.4 16h11.2a1.6 1.6 0 001.6-1.6V4.2a1.6 1.6 0 00-1.6-1.6zM11.2 1v3.2M4.8 1v3.2M.8 7.4h14.4" stroke="currentColor" stroke-width="1.5" stroke-linecap="round" stroke-linejoin="round"/></symbol><symbol viewBox="0 0 16 17" fill="none" id="steer--calendar-big" xmlns="http://www.w3.org/2000/svg"><path d="M13.6 2.6H2.4A1.6 1.6 0 00.8 4.2v10.2A1.6 1.6 0 002.4 16h11.2a1.6 1.6 0 001.6-1.6V4.2a1.6 1.6 0 00-1.6-1.6zM11.2 1v3.2M4.8 1v3.2M.8 7.4h14.4" stroke="currentColor" stroke-width="1.5" stroke-linecap="round" stroke-linejoin="round"/></symbol><symbol viewBox="0 0 100 82.7" fill="none" id="steer--camera" xmlns="http://www.w3.org/2000/svg"><path class="cls-1" fill="currentColor" d="M49.96 82.67H12.69C3.88 82.67.03 78.81.01 70.03V26.61c.03-8.42 3.87-12.24 12.15-12.28a21 21 0 013.07 0c6.26.9 10.2-1.52 12.34-7.62C29.17 2.17 33.03.09 37.88.05c8.07-.07 16.14 0 24.21 0 4.94 0 8.87 2.1 10.57 6.82 2.11 5.86 5.88 8.33 12 7.5a29.08 29.08 0 015.75 0c5.19.3 9.39 4.1 9.47 9.3.18 16.52.21 33 0 49.56-.12 5.83-4.77 9.44-11.49 9.44-12.81.06-25.62 0-38.43 0zm.18-4.12h37.29c6.65 0 8.66-2 8.67-8.74v-39.6c0-11.21-.75-12.26-12-11.84-7.44.28-12.31-2.33-14.82-9.4-1.27-3.58-4-5-7.8-4.92-7.43.14-14.87.21-22.3 0-4.5-.14-7.31 1.63-8.82 5.79-2.27 6.27-6.77 9-13.39 8.46-1.66-.14-3.33 0-5 0-5.77.06-7.88 2.11-7.89 7.9q-.06 22.29 0 44.59c0 5.75 2.12 7.78 8 7.79 12.68 0 25.37-.02 38.06-.02z"/><path class="cls-1" fill="currentColor" d="M50.31 23.44a24.92 24.92 0 0124.81 25.44 25.06 25.06 0 11-50.11-.9 24.88 24.88 0 0125.3-24.54zm-21.3 24.61a21.07 21.07 0 0021 21.47 21.07 21.07 0 00.38-42.13 21 21 0 00-21.38 20.66zM49.88 14.12a69.47 69.47 0 01-7.64-.09c-1-.11-1.78-1.27-2.67-2 .8-.63 1.58-1.78 2.4-1.81q8-.25 16 0c.85 0 1.66 1.15 2.49 1.76-.87.71-1.68 1.93-2.62 2a79.18 79.18 0 01-7.96.14zM82.33 26.11a12.17 12.17 0 013.42.07 12.34 12.34 0 012.88 1.85c-.91.64-1.75 1.77-2.75 1.9a27.55 27.55 0 01-6.85 0c-1-.13-1.76-1.28-2.63-2a9.25 9.25 0 012.48-1.74 12.89 12.89 0 013.45-.08z"/><path class="cls-1" fill="currentColor" d="M50.18 59.06a10.63 10.63 0 1110.44-10.55 10.47 10.47 0 01-10.44 10.55zm-.17-3.91a6.86 6.86 0 006.68-6.48 6.61 6.61 0 00-6.74-6.76 6.43 6.43 0 00-6.42 6.64 6.56 6.56 0 006.48 6.6z"/></symbol><symbol fill="none" viewBox="0 0 15 12" id="steer--checkmark" xmlns="http://www.w3.org/2000/svg"><path fill="currentColor" d="M13.137 0c-.364.014-.71.167-.963.43-2.681 2.687-4.73 4.93-7.218 7.472l-2.652-2.24A1.402 1.402 0 10.502 7.806l3.64 3.08a1.399 1.399 0 001.89-.08c3.016-3.021 5.163-5.435 8.12-8.4A1.4 1.4 0 0013.137 0z"/></symbol><symbol fill="none" viewBox="0 0 35 35" id="steer--checkmark-big" xmlns="http://www.w3.org/2000/svg"><circle cx="17.5" cy="17.5" r="16.5" stroke="currentColor" stroke-width="2" stroke-linecap="round" stroke-linejoin="round"/><circle cx="17.5" cy="17.5" r="9.5" stroke="currentColor" stroke-width="2" stroke-linecap="round" stroke-linejoin="round"/><path d="M20.065 14.38l-4.08 4.742-2.021-2.134c-1.027-1.085-2.664.553-1.64 1.635l2.88 3.041c.406.43 1.239.466 1.639 0l4.861-5.648c.968-1.123-.665-2.767-1.64-1.635z" fill="currentColor"/></symbol><symbol fill="currentColor" viewBox="0 0 12 7" id="steer--chevron-down" xmlns="http://www.w3.org/2000/svg"><path fill-rule="evenodd" clip-rule="evenodd" d="M.293.293a1 1 0 011.414 0L6 4.586 10.293.293a1 1 0 111.414 1.414l-5 5a1 1 0 01-1.414 0l-5-5a1 1 0 010-1.414z"/></symbol><symbol fill="currentColor" viewBox="0 0 7 12" id="steer--chevron-left" xmlns="http://www.w3.org/2000/svg"><path fill-rule="evenodd" clip-rule="evenodd" d="M6.707.293a1 1 0 010 1.414L2.414 6l4.293 4.293a1 1 0 11-1.414 1.414l-5-5a1 1 0 010-1.414l5-5a1 1 0 011.414 0z"/></symbol><symbol fill="currentColor" viewBox="0 0 7 12" id="steer--chevron-right" xmlns="http://www.w3.org/2000/svg"><path fill-rule="evenodd" clip-rule="evenodd" d="M.293.293a1 1 0 011.414 0l5 5a1 1 0 010 1.414l-5 5a1 1 0 01-1.414-1.414L4.586 6 .293 1.707a1 1 0 010-1.414z"/></symbol><symbol fill="none" viewBox="0 0 8 5" id="steer--chevron-small-down" xmlns="http://www.w3.org/2000/svg"><path fill-rule="evenodd" clip-rule="evenodd" d="M.293.293a1 1 0 011.414 0L4 2.586 6.293.293a1 1 0 011.414 1.414l-3 3a1 1 0 01-1.414 0l-3-3a1 1 0 010-1.414z" fill="currentColor"/></symbol><symbol fill="none" viewBox="0 0 8 5" id="steer--chevron-small-up" xmlns="http://www.w3.org/2000/svg"><path fill-rule="evenodd" clip-rule="evenodd" d="M3.293.293a1 1 0 011.414 0l3 3a1 1 0 01-1.414 1.414L4 2.414 1.707 4.707A1 1 0 01.293 3.293l3-3z" fill="currentColor"/></symbol><symbol fill="currentColor" viewBox="0 0 12 7" id="steer--chevron-up" xmlns="http://www.w3.org/2000/svg"><path fill-rule="evenodd" clip-rule="evenodd" d="M5.293.293a1 1 0 011.414 0l5 5a1 1 0 01-1.414 1.414L6 2.414 1.707 6.707A1 1 0 01.293 5.293l5-5z"/></symbol><symbol fill="currentColor" viewBox="0 0 16 16" id="steer--clear-input" xmlns="http://www.w3.org/2000/svg"><path fill-rule="evenodd" clip-rule="evenodd" d="M8 16A8 8 0 108 0a8 8 0 000 16zM6.03 4.97a.75.75 0 00-1.06 1.06L6.94 8 4.97 9.97a.75.75 0 101.06 1.06L8 9.06l1.97 1.97a.75.75 0 101.06-1.06L9.06 8l1.97-1.97a.75.75 0 10-1.06-1.06L8 6.94 6.03 4.97z"/></symbol><symbol fill="currentColor" viewBox="0 0 12 12" id="steer--close" xmlns="http://www.w3.org/2000/svg"><path fill-rule="evenodd" clip-rule="evenodd" d="M.293.293a1 1 0 011.414 0L6 4.586 10.293.293a1 1 0 111.414 1.414L7.414 6l4.293 4.293a1 1 0 01-1.414 1.414L6 7.414l-4.293 4.293a1 1 0 01-1.414-1.414L4.586 6 .293 1.707a1 1 0 010-1.414z"/></symbol><symbol fill="none" viewBox="0 0 31 32" id="steer--customer-support" xmlns="http://www.w3.org/2000/svg"><path fill="currentColor" fill-rule="evenodd" d="M14.258 6.6c2.342 1.277 4.9 2.13 7.507 2.682-.312 3.407-2.463 7.47-6.265 7.47-1.756 0-3.159-.862-4.19-2.126l2.02.017v.406h3.432v-2.21H13.33v.385l-2.1-.027a2.853 2.853 0 01-.933-.155 10.707 10.707 0 01-1.064-3.81c1.765-.693 3.472-1.537 5.024-2.631zm9.348 2.078C23.717 3.698 20.781 0 15.5 0c-5.28 0-8.217 3.698-8.106 8.678.1 4.56 3.015 9.88 8.106 9.88 5.082 0 8.003-5.325 8.106-9.88zM22.11 19.975c1.79.277 3.673.748 5.059 1.911 1.564 1.314 2.027 3.154 2.027 5.135v3.066H1.805V27.02c0-1.98.464-3.822 2.028-5.135 1.384-1.163 3.27-1.633 5.058-1.911L15.5 25.79l6.609-5.815zm6.22.529c-1.904-1.6-4.391-2.117-6.789-2.434l-6.04 5.316-6.04-5.315c-2.398.317-4.885.834-6.789 2.433C.997 21.91 0 23.976 0 27.022v4.87h31v-4.87c0-3.046-.997-5.112-2.671-6.518zm-6.573-13.07c-2.301-.517-4.561-1.288-6.636-2.417l-.985-.538-.917.646c-1.23.866-2.572 1.562-3.957 2.146.391-3.295 2.546-5.466 6.239-5.466 3.753 0 5.917 2.241 6.256 5.628z" clip-rule="evenodd"/></symbol><symbol fill="none" viewBox="0 0 40 29" id="steer--drop-off-big" xmlns="http://www.w3.org/2000/svg"><path fill-rule="evenodd" clip-rule="evenodd" d="M16.488 0c-2.104 0-3.81 1.731-3.81 3.867v.644c0 2.135 1.706 3.867 3.81 3.867h.635c2.104 0 3.81-1.732 3.81-3.867h5.714v1.933a.96.96 0 00.952.967.96.96 0 00.953-.967v-2.9c0-.534-.685-.966-1.21-.966h-6.628C20.19 1.078 18.78 0 17.123 0h-.635zm0 1.933h.635c1.052 0 1.905.866 1.905 1.934v.644c0 1.068-.853 1.933-1.905 1.933h-.635c-1.052 0-1.905-.865-1.905-1.933v-.644c0-1.068.853-1.934 1.905-1.934zm-10.317.262C2.748 2.195 0 5.053 0 8.418v15.064C0 26.935 3.233 29 6.627 29h27.778C37.742 29 40 26.937 40 23.482V8.418c0-3.54-2.57-6.223-5.833-6.223-.526 0-1.052.433-1.052.967s.506.966 1.032.966c1.347 0 2.503.672 3.214 1.753L22.6 15.406c-1.273.739-2.866.76-4.107.06L2.937 5.62a4.322 4.322 0 013.273-1.49c.526 0 .853-.433.853-.967s-.367-.967-.892-.967zM2.044 7.351l15.496 9.767c.915.517 1.93.786 2.956.786a6.19 6.19 0 003.095-.846l14.465-9.305c.027.213.04.44.04.665v15.064c0 2.412-1.386 3.585-3.691 3.585H6.627c-2.458 0-4.722-1.342-4.722-3.585V8.418c0-.362.05-.729.139-1.067z" fill="currentColor"/></symbol><symbol fill="none" viewBox="0 0 16 16" id="steer--external-link" xmlns="http://www.w3.org/2000/svg"><rect x=".75" y=".75" width="14.5" height="14.5" rx="3.25" stroke="currentColor" stroke-width="1.5"/><path d="M11.564 4.073C11.49 4 11.345 4 11.273 4H7.636c-.436 0-.727.29-.727.727s.291.728.727.728h1.891l-5.309 5.309a.703.703 0 000 1.018c.291.29.727.29 1.018 0l5.31-5.31v1.892c0 .436.29.727.727.727.436 0 .727-.291.727-.727V4.727c0-.29-.146-.582-.436-.654z" fill="currentColor"/></symbol><symbol fill="currentColor" viewBox="0 0 9 18" id="steer--facebook" xmlns="http://www.w3.org/2000/svg"><path d="M8.41 10.125l.467-3.258H5.959V4.753c0-.89.408-1.76 1.714-1.76H9V.22S7.796 0 6.645 0C4.242 0 2.671 1.56 2.671 4.385v2.482H0v3.258h2.671V18H5.96v-7.875H8.41z"/></symbol><symbol fill="none" viewBox="0 0 21 37" id="steer--find-tires-big" xmlns="http://www.w3.org/2000/svg"><path d="M17.393 0H3.607a3.606 3.606 0 00-2.55 1.06A3.626 3.626 0 000 3.618v29.766a3.627 3.627 0 001.058 2.556A3.606 3.606 0 003.608 37h13.785a3.606 3.606 0 002.55-1.06A3.626 3.626 0 0021 33.382V3.617a3.626 3.626 0 00-1.058-2.556A3.606 3.606 0 0017.392 0zM1.57 5.955h17.86v23.566H1.57V5.955zm2.037-4.38h13.786c.54 0 1.058.215 1.44.598.382.383.597.903.597 1.444v.764H1.57v-.764c0-.541.215-1.061.597-1.444s.9-.599 1.44-.599zm13.786 33.85H3.607c-.54 0-1.058-.215-1.44-.598a2.046 2.046 0 01-.597-1.444v-2.287h17.86v2.287c0 .541-.215 1.061-.597 1.444s-.9.599-1.44.599z" fill="currentColor"/><path d="M10.5 34.69c.732 0 1.326-.596 1.326-1.331s-.594-1.33-1.326-1.33c-.733 0-1.327.595-1.327 1.33 0 .735.594 1.33 1.327 1.33z" fill="currentColor"/><path d="M5.886 18.205h8.831M7.18 21.335l6.243-6.261M10.301 22.633v-8.856M13.423 21.335L7.18 15.074" stroke="currentColor" stroke-width="1.2" stroke-linecap="round" stroke-linejoin="round"/><path d="M10.301 20.419c1.22 0 2.208-.991 2.208-2.214a2.211 2.211 0 00-2.208-2.214c-1.22 0-2.208.991-2.208 2.214 0 1.223.989 2.214 2.208 2.214z" fill="currentColor"/><path d="M10.304 10.825c-4.064 0-7.36 3.304-7.36 7.38 0 4.075 3.296 7.38 7.36 7.38s7.36-3.305 7.36-7.38c0-4.076-3.296-7.38-7.36-7.38zm0 11.829a4.422 4.422 0 01-4.416-4.429 4.422 4.422 0 014.416-4.428 4.422 4.422 0 014.416 4.428 4.422 4.422 0 01-4.416 4.429z" fill="currentColor"/></symbol><symbol fill="none" viewBox="0 0 23 30" id="steer--fire" xmlns="http://www.w3.org/2000/svg"><path d="M18.92 8.328a.585.585 0 00-.732-.21.598.598 0 00-.333.69c.297 1.237.231 2.653.047 3.89-.523-1.37-1.433-2.598-2.422-3.931l-.441-.588c-1.672-2.28-.31-7.368-.297-7.417a.594.594 0 00-.202-.63.582.582 0 00-.649-.06c-.32.174-7.42 4.097-8.046 11.526-.37-.559-.69-1.411-.6-2.623a.608.608 0 00-.376-.606.596.596 0 00-.678.174c-.207.252-5.027 6.192-4.064 12.678.512 3.433 2.547 6.353 6.064 8.682.232.15.541.12.743-.072a.61.61 0 00.09-.75c-2.214-3.58-.541-6.869.572-8.436.214.643.619 1.387 1.38 1.993a.58.58 0 00.654.054.595.595 0 00.304-.583c0-.047-.375-4.428 2.964-6.54.077 1.5.417 4.32 1.869 5.982 2.588 2.976 1.643 5.724.399 7.5a.604.604 0 00.047.756.59.59 0 00.75.103c.249-.156 6.205-3.9 6.974-9.726.643-4.92-3.826-11.574-4.017-11.857z" fill="currentColor"/></symbol><symbol viewBox="0 0 122 20" id="steer--five-stars" xmlns="http://www.w3.org/2000/svg"><path d="M.55 9.025l4.074 2.958c.465.338.66.938.482 1.484L3.55 18.256c-.397 1.223 1.003 2.24 2.044 1.485l4.074-2.96a1.326 1.326 0 011.561 0l4.074 2.96c1.041.755 2.442-.262 2.045-1.485l-1.556-4.789a1.325 1.325 0 01.482-1.484l4.074-2.958c1.04-.757.506-2.403-.78-2.403H14.53c-.575 0-1.086-.37-1.263-.917L11.712.918c-.398-1.224-2.128-1.224-2.527 0L7.628 5.705a1.326 1.326 0 01-1.262.917H1.33c-1.287 0-1.82 1.646-.78 2.403zm25.105 0l4.074 2.958c.466.338.66.938.483 1.484l-1.557 4.789c-.397 1.223 1.003 2.24 2.045 1.485l4.074-2.96a1.326 1.326 0 011.56 0l4.075 2.96c1.04.755 2.441-.262 2.044-1.485l-1.556-4.789a1.325 1.325 0 01.483-1.484l4.073-2.958c1.04-.757.507-2.403-.78-2.403h-5.037c-.574 0-1.086-.37-1.263-.917L36.817.918c-.398-1.224-2.128-1.224-2.527 0l-1.556 4.787a1.326 1.326 0 01-1.263.917h-5.035c-1.287 0-1.821 1.646-.78 2.403zm25.109 0l4.075 2.958c.465.338.66.938.482 1.484l-1.556 4.789c-.398 1.223 1.003 2.24 2.044 1.485l4.074-2.96a1.326 1.326 0 011.56 0l4.075 2.96c1.041.755 2.442-.262 2.044-1.485l-1.555-4.789a1.324 1.324 0 01.482-1.484l4.073-2.958c1.04-.757.507-2.403-.78-2.403h-5.036c-.575 0-1.086-.37-1.263-.917L61.927.918c-.398-1.224-2.128-1.224-2.527 0l-1.557 4.787a1.326 1.326 0 01-1.262.917h-5.036c-1.287 0-1.82 1.646-.78 2.403zm25.106 0l4.074 2.958c.465.338.66.938.483 1.484l-1.557 4.789c-.397 1.223 1.003 2.24 2.044 1.485l4.075-2.96a1.326 1.326 0 011.56 0l4.075 2.96c1.04.755 2.441-.262 2.044-1.485l-1.556-4.789a1.324 1.324 0 01.483-1.484l4.073-2.958c1.04-.757.506-2.403-.78-2.403H89.85c-.575 0-1.086-.37-1.263-.917L87.032.918c-.398-1.224-2.128-1.224-2.527 0l-1.557 4.787a1.326 1.326 0 01-1.262.917h-5.035c-1.287 0-1.821 1.646-.781 2.403zm25.109 0l4.074 2.958c.466.338.661.938.483 1.484l-1.557 4.789c-.397 1.223 1.004 2.24 2.045 1.485l4.074-2.96a1.326 1.326 0 011.561 0l4.074 2.96c1.041.755 2.442-.262 2.044-1.485l-1.556-4.789a1.326 1.326 0 01.483-1.484l4.073-2.958c1.041-.757.507-2.403-.78-2.403h-5.036c-.575 0-1.087-.37-1.263-.917L112.142.918c-.398-1.224-2.129-1.224-2.528 0l-1.556 4.787a1.327 1.327 0 01-1.263.917h-5.035c-1.287 0-1.821 1.646-.781 2.403z"/></symbol><symbol fill="none" viewBox="0 0 24 25" id="steer--forbidden" xmlns="http://www.w3.org/2000/svg"><path d="M19.355 5.148a10.753 10.753 0 100 15.21 10.76 10.76 0 000-15.21zm-1.027 1.027a9.31 9.31 0 01.484 12.618L5.71 5.686a9.307 9.307 0 0112.618.49h0zM5.172 19.331a9.311 9.311 0 01-.484-12.594L17.791 19.82a9.307 9.307 0 01-12.618-.489h0z" fill="currentColor" stroke="currentColor"/></symbol><symbol viewBox="0 0 28 23" id="steer--free-returns" xmlns="http://www.w3.org/2000/svg"><path d="M7.881 0L0 4.813l7.881 4.812V5.939h10.015a7.214 7.214 0 017.217 7.212 7.214 7.214 0 01-7.217 7.212H7.076v2.249l10.818.001a9.495 9.495 0 006.462-2.548l.235-.227a9.473 9.473 0 002.778-6.685 9.474 9.474 0 00-2.776-6.688 9.495 9.495 0 00-6.697-2.777H7.881V0z" fill="currentColor" fill-rule="nonzero"/></symbol><symbol fill="none" viewBox="0 0 66 25" id="steer--free-shipping" xmlns="http://www.w3.org/2000/svg"><path fill-rule="evenodd" clip-rule="evenodd" d="M0 5.72h3.168v1.873H0V5.72zm0 11.424h1.743v1.872H0v-1.872zM47.437 2.857H38.93V.007L1.3 0v1.872H9.89v3.837H4.172v1.864h5.719v3.836H4.172v1.866h5.719v3.837H2.732v1.864H15.61a4.517 4.517 0 004.51 4.287 4.51 4.51 0 004.507-4.287H39.94a4.516 4.516 0 004.508 4.287 4.512 4.512 0 004.509-4.287h2.738v-7.082l-4.258-9.037zm-4.213 1.858h2.926l3.09 6.694h-6.016V4.715zM20.12 21.391c-1.508 0-2.637-1.133-2.637-2.63 0-1.502 1.137-2.628 2.637-2.628s2.637 1.153 2.637 2.675c0 1.497-1.11 2.583-2.637 2.583zm4.192-4.279a4.515 4.515 0 00-4.2-2.845 4.533 4.533 0 00-4.198 2.845H11.74V1.864h25.306l.014 15.248h-12.75zm20.117 4.279c-1.507 0-2.637-1.133-2.637-2.63 0-1.502 1.136-2.628 2.637-2.628 1.5 0 2.64 1.153 2.64 2.675.005 1.497-1.105 2.583-2.64 2.583zm5.383-4.285h-1.183a4.512 4.512 0 00-4.2-2.845 4.53 4.53 0 00-4.198 2.845h-1.313V4.716h2.423v8.551h8.471v3.839z" fill="currentColor"/><path fill="currentColor" d="M.943 23.664h65v1.335h-65z"/></symbol><symbol fill="none" viewBox="0 0 19 19" id="steer--fuel-economy" xmlns="http://www.w3.org/2000/svg"><mask id="bfa" maskUnits="userSpaceOnUse" x="0" y="0" width="19" height="19"><path fill="#fff" d="M0 0h19v19H0z"/></mask><g mask="url(#bfa)"><path fill-rule="evenodd" clip-rule="evenodd" d="M17.931 1.31c.003.306.026 7.514-2.75 11.782-1.313 2.018-3.714 3.052-6.942 2.991a17.743 17.743 0 01-4.022-.567l-2.47 2.469a.535.535 0 01-.755-.756l2.469-2.469a17.736 17.736 0 01-.567-4.023c-.062-3.228.972-5.628 2.99-6.94 4.269-2.777 11.477-2.754 11.782-2.751.146 0 .264.119.265.265zm-5.013 4.76a.538.538 0 00-.761 0l-8.423 8.422a.538.538 0 10.761.762l8.423-8.423a.538.538 0 000-.761z" fill="currentColor"/></g></symbol><symbol fill="none" viewBox="0 0 36 36" id="steer--fuel-economy-big" xmlns="http://www.w3.org/2000/svg"><path d="M8.049 30.519l-.262-.206-.235.235-4.634 4.626c-.306.306-.68.451-1.046.451-.365 0-.74-.145-1.045-.451a1.485 1.485 0 010-2.133l4.633-4.626.236-.234-.205-.262C.927 22.087 1.336 13.608 6.678 8.182c.236-.235.409-.407.624-.579l.01-.008.01-.01C12.294 2.99 18.802 1.23 24.187.64 29.5.055 33.675.614 34.104.67l.008.001c.685.116 1.201.644 1.275 1.306v.008c.045.332.557 4.586-.076 9.976-.634 5.397-2.408 11.882-6.894 16.728l-.01.01-.008.01a7.414 7.414 0 01-.58.623c-5.388 5.379-13.927 5.789-19.77 1.186zm.766-20.203l-.001.001c-4.155 4.196-4.591 10.755-1.255 15.389l.257.357.312-.311 9.736-9.72a1.492 1.492 0 012.138 0 1.485 1.485 0 010 2.134L10.22 27.93l-.313.312.358.258c4.688 3.377 11.258 2.943 15.462-1.254l.019-.019.016-.02c.052-.07.114-.133.2-.218l.006-.006c.074-.075.167-.167.25-.275 3.289-3.576 4.92-8.274 5.704-12.562.785-4.298.726-8.22.608-10.27l-.02-.33-.329-.022c-2.03-.141-5.901-.248-10.178.519-4.27.765-8.974 2.406-12.648 5.781-.203.155-.4.35-.533.484l-.007.007z" fill="currentColor"/><path d="M1.62 34.366l17.591-17.59" stroke="currentColor" stroke-width="2.5" stroke-linecap="round"/></symbol><symbol fill="none" viewBox="0 0 16 16" id="steer--geolocation" xmlns="http://www.w3.org/2000/svg"><path d="M15 1L8.66 15 7.7 8.48 1 7.46 15 1z" stroke="currentColor" stroke-width="2" stroke-linejoin="round"/></symbol><symbol fill="none" viewBox="0 0 35 34" id="steer--gift" xmlns="http://www.w3.org/2000/svg"><path fill-rule="evenodd" clip-rule="evenodd" d="M25.794 0c2.871.06 5.161 2.407 5.121 5.249a5.655 5.655 0 01-.786 2.798l-.454.68h2.22c1.621 0 2.897 1.296 2.897 2.916v3.172c.006.765-.179 1.39-.74 2.003-.365.4-.85.685-1.45.856v12.137c0 2.269-1.864 4.106-4.162 4.106H6.35c-2.298 0-4.162-1.837-4.162-4.107l.095-12.131c-.61-.148-1.103-.409-1.477-.785-.616-.62-.813-1.27-.807-2.07v-3.18c0-1.622 1.275-2.916 2.9-2.916l2.189.047-.432-.735a5.648 5.648 0 01-.781-2.79C3.835 2.403 6.13.06 9.018 0c3.297 0 6 2.008 7.973 5.906l.377.848.435-.855C19.773 2.005 22.479 0 25.794 0zm6.1 15.868c.584 0 1.059-.47 1.059-1.051v-3.195c.019-.25-.097-.537-.3-.737a1.036 1.036 0 00-.816-.291l-13.513-.002v5.276h13.57zm-6.104-7.14c1.738 0 3.221-1.59 3.227-3.47.047-1.806-1.382-3.32-3.199-3.393-2.954 0-5.31 2.118-6.924 6.248l-.281.615h7.177zM5.774 5.265c.005 1.875 1.49 3.463 3.23 3.463l7.153.046-.263-.67c-1.597-4.078-3.987-6.237-6.885-6.24-1.85.077-3.283 1.583-3.235 3.4zm-2.9 5.326c-.246-.02-.534.093-.738.294-.193.191-.296.467-.298.781-.002.223-.002 1.274 0 3.151 0 .58.474 1.052 1.058 1.052l13.588.001-.003-5.276-13.606-.003zm1.213 7.119v12.102a2.252 2.252 0 002.265 2.241l10.132.035-.003-14.378H4.087zM18.31 32.053h10.13a2.252 2.252 0 002.263-2.242l.035-12.101h-12.4l-.028 14.343z" fill="currentColor"/></symbol><symbol fill="none" viewBox="0 0 6 8" id="steer--grip" xmlns="http://www.w3.org/2000/svg"><rect x="4" width="2" height="8" rx="1" fill="currentColor"/><rect width="2" height="8" rx="1" fill="currentColor"/></symbol><symbol fill="none" viewBox="0 0 15 15" id="steer--info" xmlns="http://www.w3.org/2000/svg"><path d="M7.5 0a7.5 7.5 0 100 15 7.5 7.5 0 000-15zm-.867 10.737V7.304a.867.867 0 011.734 0v3.433a.866.866 0 11-1.734 0zM7.5 5.491a1.041 1.041 0 110-2.082 1.041 1.041 0 010 2.082z" fill="currentColor"/></symbol><symbol fill="currentColor" viewBox="0 0 18 18" id="steer--instagram" xmlns="http://www.w3.org/2000/svg"><g clip-path="url(#blclip0)"><path d="M9 1.622c2.403 0 2.688.009 3.637.052.877.04 1.354.187 1.671.31.42.163.72.358 1.035.673.315.315.51.615.673 1.035.123.317.27.794.31 1.671.043.949.052 1.234.052 3.637s-.009 2.688-.052 3.637c-.04.877-.187 1.354-.31 1.671-.163.42-.358.72-.673 1.035-.315.315-.615.51-1.035.673-.317.123-.794.27-1.671.31-.949.043-1.234.052-3.637.052s-2.688-.009-3.637-.052c-.877-.04-1.354-.187-1.671-.31a2.791 2.791 0 01-1.035-.673 2.784 2.784 0 01-.673-1.035c-.123-.317-.27-.794-.31-1.671-.043-.949-.052-1.234-.052-3.637s.009-2.688.052-3.637c.04-.877.187-1.354.31-1.671.163-.42.358-.72.673-1.035.315-.315.615-.51 1.035-.673.317-.123.794-.27 1.671-.31.95-.043 1.234-.052 3.637-.052zM9 0C6.556 0 6.25.01 5.29.054 4.33.098 3.676.25 3.104.473A4.408 4.408 0 001.51 1.51c-.5.5-.808 1.002-1.037 1.594C.25 3.677.098 4.33.054 5.289.01 6.25 0 6.556 0 9s.01 2.75.054 3.71c.044.959.196 1.613.419 2.185.23.592.537 1.094 1.038 1.595.5.5 1.002.808 1.594 1.038.572.222 1.227.374 2.185.418C6.25 17.99 6.556 18 9 18c2.445 0 2.751-.01 3.711-.054.958-.044 1.612-.196 2.185-.418a4.409 4.409 0 001.594-1.038c.5-.501.808-1.003 1.038-1.595.223-.572.375-1.226.418-2.184.044-.96.055-1.267.055-3.711s-.01-2.75-.055-3.71c-.043-.959-.195-1.613-.418-2.185A4.408 4.408 0 0016.49 1.51 4.41 4.41 0 0014.896.472C14.323.25 13.669.098 12.71.054 11.75.01 11.444 0 9 0z"/><path d="M9 4.379a4.621 4.621 0 100 9.242A4.621 4.621 0 009 4.38zm0 7.62A3 3 0 119 6a3 3 0 010 6zM13.804 5.276a1.08 1.08 0 100-2.16 1.08 1.08 0 000 2.16z"/></g><defs><clipPath id="blclip0"><path d="M0 0h18v18H0V0z"/></clipPath></defs></symbol><symbol fill="none" viewBox="0 0 24 24" id="steer--keys" xmlns="http://www.w3.org/2000/svg"><path d="M7 11.697V9.684c.092.17.208.324.345.46l2.557 2.558c.35.352.818.563 1.313.595v4.165a.209.209 0 01-.06.149l-1.07 1.07a.14.14 0 01-.202 0l-1.065-1.065h.001a.212.212 0 01-.062-.154v-.529c0-.064.026-.125.071-.17l.568-.569h.001a.095.095 0 000-.133l-.505-.506a.323.323 0 010-.456l.505-.505a.095.095 0 000-.133l-.568-.569a.249.249 0 01-.073-.173v-.737h-.474A1.282 1.282 0 017 11.697zm.892-2.1a1.28 1.28 0 010-1.82l2.404-2.399a1.284 1.284 0 011.82 0l2.546 2.554a1.283 1.283 0 010 1.82l-.335.335 3.176 3.17a.21.21 0 01.061.146v1.507a.14.14 0 01-.14.14h-1.502a.212.212 0 01-.148-.062l-.378-.378a.249.249 0 01-.071-.174v-.803a.094.094 0 00-.032-.067.095.095 0 00-.07-.023h-.715a.323.323 0 01-.323-.323v-.719a.094.094 0 00-.094-.093h-.803a.248.248 0 01-.175-.073l-.52-.52-.335.335a1.282 1.282 0 01-1.82 0L7.892 9.596zm1.93-1.338a.673.673 0 10-.2-.475c0 .179.072.35.2.477v-.002z" fill="currentColor"/></symbol><symbol fill="none" viewBox="0 0 29 35" id="steer--lightning-outline" xmlns="http://www.w3.org/2000/svg"><path d="M17.39 11.682l-.783 1.322h11.019c.172 0 .348.107.445.32.093.206.065.408-.068.557l-.006.007-.006.007-17.251 20.03-.007.008-.006.008c-.16.195-.392.234-.62.126a.51.51 0 01-.232-.207.336.336 0 01-.024-.259h0l.003-.013 2.514-10.46.259-1.08H1.35c-.147 0-.304-.086-.404-.268-.098-.179-.09-.36-.003-.498l.011-.017.01-.017 11.62-20.085c.187-.222.384-.288.533-.288h9.71c.274 0 .442.126.52.258.077.126.107.314-.02.542L17.39 11.682z" stroke="currentColor" stroke-width="1.75"/></symbol><symbol fill="none" viewBox="0 0 8 12" id="steer--lightning-small" xmlns="http://www.w3.org/2000/svg"><path fill-rule="evenodd" clip-rule="evenodd" d="M4.254 4.938L5.458 0 0 7.3h3.077L2.14 12l5.245-7.062h-3.13z" fill="currentColor"/></symbol><symbol fill="currentColor" viewBox="0 0 18 18" id="steer--linkedin" xmlns="http://www.w3.org/2000/svg"><path d="M.378 6.283V17.5h3.744V6.283H.378zM10.125 17.5H6.372V8.818s-.061-2.154-.061-2.535h3.691l.123 1.551c.747-1.085 1.872-1.908 3.375-1.908 2.628 0 4.5 1.806 4.5 5.062V17.5h-3.753v-6.147c0-1.815-.914-2.535-2.039-2.535s-2.083.72-2.083 2.17V17.5zM2.232 4.477c1.39 0 2.268-.882 2.268-1.993C4.482 1.364 3.621.5 2.268.5.896.5 0 1.365 0 2.484c0 1.11.879 1.993 2.206 1.993h.026z"/></symbol><symbol fill="none" viewBox="0 0 69 33" id="steer--local-business" xmlns="http://www.w3.org/2000/svg"><path stroke="currentColor" stroke-linecap="round" stroke-linejoin="round" stroke-width="1.5" d="M4.105 30.52V10.58h41.788v19.94"/><path stroke="currentColor" stroke-linecap="round" stroke-linejoin="round" stroke-width="1.5" d="M10.043 30.52V18.028h18.739v12.494M3.523 8.713h42.954c.139 0 .272.054.37.151A.514.514 0 0147 9.23v1.346H3V9.23c0-.137.055-.268.153-.365a.526.526 0 01.37-.151v0zM41.79 30.52V20.197h-5.532V30.52m-26.215-9.97h18.739m-18.739 2.491h18.739m-18.739 2.492h18.739m-18.739 2.492h18.739M25.52 1H14.153a.836.836 0 00-.84.831v3.451c0 .46.376.831.84.831H25.52a.835.835 0 00.841-.83V1.83a.836.836 0 00-.84-.831zm-9.836 6.113v1.6m8.574-1.6v1.6"/><path fill="currentColor" d="M0 31.664h68.6v1.335H0z"/></symbol><symbol fill="currentColor" viewBox="0 0 16 20" id="steer--location" xmlns="http://www.w3.org/2000/svg"><path fill-rule="evenodd" clip-rule="evenodd" d="M2.5 7.353C2.5 4.418 4.94 2 8 2s5.5 2.418 5.5 5.353c0 1.485-.726 3.436-1.927 5.473A27.573 27.573 0 018 17.572a27.294 27.294 0 01-3.605-4.777C3.207 10.773 2.5 8.84 2.5 7.353zM8 0C3.88 0 .5 3.27.5 7.353c0 2.02.918 4.324 2.169 6.454A29.277 29.277 0 007.3 19.715a1 1 0 001.398 0 29.384 29.384 0 004.598-5.873c1.259-2.137 2.203-4.465 2.203-6.49C15.5 3.272 12.12 0 8 0zm0 9.75a2.25 2.25 0 100-4.5 2.25 2.25 0 000 4.5z"/></symbol><symbol fill="none" viewBox="0 0 18 14" id="steer--mail" xmlns="http://www.w3.org/2000/svg"><path fill-rule="evenodd" clip-rule="evenodd" d="M3 0A2.5 2.5 0 00.5 2.5v9A2.5 2.5 0 003 14h12a2.5 2.5 0 002.5-2.5v-9A2.5 2.5 0 0015 0H3zm-.5 2.914V11.5a.5.5 0 00.5.5h12a.5.5 0 00.5-.5V2.914L9.707 8.707a1 1 0 01-1.414 0L2.5 2.914zM13.586 2H4.414L9 6.586 13.586 2z" fill="currentColor"/></symbol><symbol fill="currentColor" viewBox="0 0 20 20" id="steer--main-search" xmlns="http://www.w3.org/2000/svg"><path fill-rule="evenodd" clip-rule="evenodd" d="M2.857 9.048a6.19 6.19 0 1112.38 0 6.19 6.19 0 01-12.38 0zM9.047 0a9.048 9.048 0 105.308 16.375l3.206 3.207a1.429 1.429 0 102.02-2.02l-3.206-3.207a9.007 9.007 0 001.72-5.307A9.047 9.047 0 009.047 0z"/></symbol><symbol fill="currentColor" viewBox="0 0 16 8" id="steer--menu" xmlns="http://www.w3.org/2000/svg"><path fill-rule="evenodd" clip-rule="evenodd" d="M1.5 0a1 1 0 100 2h13a1 1 0 100-2h-13zm0 6a1 1 0 000 2h13a1 1 0 100-2h-13z"/></symbol><symbol fill="none" viewBox="0 0 30 32" id="steer--money-back" xmlns="http://www.w3.org/2000/svg"><circle cx="15" cy="12.108" r="4.65" stroke="currentColor" stroke-width="1.7"/><path d="M12.334 1.935C13.089 1.187 13.75 1 14.694 1c1.713 0 1.89.935 3.779 1.87 1.889.934 3.07-.234 4.722 1.402.945.934.472 2.336.945 3.738.472 1.403 2.36 1.636 2.36 4.207 0 1.87-1.416 2.336-1.888 2.804-.472.467-.866 1.676-.945 2.337 0 .934-.31 2.176-.944 2.804-.635.628-1.89.935-2.361.935-.473 0-2.078.187-2.834.934-.944.935-1.416 1.402-2.833 1.402-1.134 0-1.527-.367-2.834-1.402-1.306-1.034-2.226-.848-2.833-.934-2.645-.374-3.778-1.402-3.778-3.272 0-.935 0-1.87-.472-2.337-.945-.934-1.89-1.87-1.89-3.271 0-1.402 1.24-2.162 1.89-2.804.378-.374.472-1.403.472-1.87 0-1.87.605-2.468 1.417-3.271.811-.804 2.361-.935 3.305-.935.945 0 1.417-.468 2.362-1.402z" stroke="currentColor" stroke-width="1.7"/><path d="M5.25 18.76L1 27.171h4.722l2.834 3.739 4.25-7.478M23.637 18.211l5.015 7.99-4.702.43-2.474 3.981-4.928-7.058" stroke="currentColor" stroke-width="1.7" stroke-linecap="round" stroke-linejoin="round"/></symbol><symbol viewBox="0 0 50.65 57.38" id="steer--notification" xmlns="http://www.w3.org/2000/svg"><g data-name="Layer 2"><g data-name="Layer 1" fill="none" stroke="currentColor"><path d="M14.5 47.6c.8 10.6 14.3 12.2 16.8 1.5" stroke-linecap="round" stroke-linejoin="round" stroke-width="2"/><path d="M26.8 6.3a2.62 2.62 0 012.4 3 .55.55 0 00.4.6 18.2 18.2 0 015.1 3.4 12.35 12.35 0 014.2 10.6c-1.2 10.1-1.3 13.6 4.8 18.8a3.44 3.44 0 01.2 2.6 1.3 1.3 0 01-1.4.9l-38-3.4a1.48 1.48 0 01-1.3-1.2 2.83 2.83 0 01.6-2.5c6.9-4 7.4-7.5 8-17.6a12 12 0 015.9-9.7 18.92 18.92 0 015.6-2.4c.3-.1.5-.3.5-.5a2.74 2.74 0 013-2.6zm0-.6a3.17 3.17 0 00-3.5 3.1s-11.5 2.4-12.1 12.7S10 34.9 3.4 38.7a3.54 3.54 0 00-.8 3.1 2 2 0 001.8 1.7l37.9 3.3a2 2 0 002.1-1.4 3.35 3.35 0 00-.3-3.2c-5.8-4.9-5.9-8-4.7-18.3S29.7 9.3 29.7 9.3a3.12 3.12 0 00-2.9-3.6z" stroke-width="1.5"/><path d="M6.6 21.7S6.5 12.3 16.4 6M1 21.2A25.74 25.74 0 0113.4 1M43.9 25s1.7-9.2-7-17.2M49.5 25.5a25.91 25.91 0 00-8.7-22.1" stroke-linecap="round" stroke-linejoin="round" stroke-width="2"/></g></g></symbol><symbol fill="none" viewBox="0 0 32 31" id="steer--performance" xmlns="http://www.w3.org/2000/svg"><path d="M30.734 12.55v.002c.331 1.653.331 3.307 0 5.13v.001c-1.324 8.109-9.103 13.409-17.218 12.084-6.294-1.16-11.258-5.962-12.251-12.25C-.06 9.402 5.405 1.621 13.515.296c8.112-1.324 15.729 4.14 17.22 12.254zm-3.488 9.876l.005-.008c1.342-2.18 2.182-4.698 2.182-7.385 0-6.55-4.869-12.258-11.251-13.266C10.959.591 4.076 5.63 2.9 13.017c-.504 3.19.168 6.549 2.014 9.403l.004.006c1.026 1.367 2.745 1.888 4.295 1.028a14.444 14.444 0 0113.737 0c1.55.86 3.27.339 4.295-1.028zm-9.65-7.797l-.03.029V15.032c0 .478-.159.868-.43 1.138-.27.27-.66.43-1.137.43s-.867-.16-1.137-.43-.43-.66-.43-1.138c0-.477.16-.867.43-1.137s.66-.43 1.137-.43H16.374l.03-.028 6.487-6.489c.147-.068.371-.106.6-.087.236.02.46.098.604.242a.706.706 0 010 1.025l-6.5 6.5z" fill="currentColor"/></symbol><symbol fill="none" viewBox="0 0 16 14" id="steer--phone" xmlns="http://www.w3.org/2000/svg"><path stroke="currentColor" stroke-linecap="round" stroke-linejoin="round" stroke-width="2" d="M11.142 7.562l.98-.43L14.79 8.3v4.668c-8.883 0-13.315-4.494-13.337-11.672h5.335L8.12 3.63l-.49.86c-.503.881-.306 1.946.49 2.641.797.698 2.013.871 3.021.431z" clip-rule="evenodd"/></symbol><symbol fill="none" viewBox="0 0 31 43" id="steer--play" xmlns="http://www.w3.org/2000/svg"><path d="M29.334 19.493a2.112 2.112 0 010 3.425L3.378 41.65c-1.396 1.008-3.347.01-3.347-1.713V2.473C.03.751 1.98-.247 3.378.761l25.956 18.732z" fill="currentColor"/></symbol><symbol fill="none" viewBox="0 0 32 28" id="steer--pro-tip-small" xmlns="http://www.w3.org/2000/svg"><path d="M10.584 3.818c0 1.967-1.622 3.568-3.627 3.568-2.007 0-3.627-1.6-3.627-3.568C3.33 1.852 4.95.25 6.957.25c2.005 0 3.627 1.603 3.627 3.568z" fill="currentColor" stroke="currentColor" stroke-width=".5"/><path d="M27.502 2h-5.004a1.498 1.498 0 000 2.996h5.004a1.498 1.498 0 000-2.996z" fill="currentColor"/><path d="M31.434 18.969c-3.18 5.415-9.096 8.78-15.434 8.781-6.335 0-12.249-3.366-15.436-8.782a2.271 2.271 0 01.848-3.132h0c1.122-.637 2.55-.26 3.194.835 2.355 4.005 6.721 6.49 11.394 6.49 4.675 0 9.044-2.485 11.394-6.49h0a2.344 2.344 0 013.19-.835h.002a2.267 2.267 0 01.848 3.132h0z" fill="currentColor" stroke="currentColor" stroke-width=".5"/></symbol><symbol viewBox="0 0 34 31" id="steer--quantity-selector-car" xmlns="http://www.w3.org/2000/svg"><g fill="none" fill-rule="evenodd"><path d="M26.26 0a4 4 0 013.725 2.542l.07.193L34 14.571V21.5a4 4 0 01-3.8 3.995l-.2.005H4a4 4 0 01-3.995-3.8L0 21.5v-6.929L3.945 2.735a4 4 0 013.59-2.73L7.74 0h18.52zM32 15.571V21.5a2 2 0 01-1.85 1.995L30 23.5H4a2 2 0 01-1.995-1.85L2 21.5v-5.929h30zM26.26 2a2 2 0 011.897 1.368l3.401 10.203H2.442l3.4-10.203A2 2 0 017.74 2h18.52z" fill="currentColor"/><rect stroke="currentColor" stroke-width="2" x="4.43" y="24.555" width="5.5" height="5.286" rx="1"/><rect stroke="currentColor" stroke-width="2" x="24.07" y="24.555" width="5.5" height="5.286" rx="1"/><path fill="currentColor" fill-rule="nonzero" d="M6.07 18.215h2.429v2.429H6.07zM25.5 18.215h2.429v2.429H25.5z"/></g></symbol><symbol viewBox="0 0 39 39" id="steer--quantity-selector-car-tilted" xmlns="http://www.w3.org/2000/svg"><g transform="rotate(-8 39.451 2.2)" fill="none" fill-rule="evenodd"><path d="M26.26 0a4 4 0 013.725 2.542l.07.193L34 14.571V21.5a4 4 0 01-3.8 3.995l-.2.005H4a4 4 0 01-3.995-3.8L0 21.5v-6.929L3.945 2.735a4 4 0 013.59-2.73L7.74 0h18.52zM32 15.571H2V21.5l.005.15A2 2 0 004 23.5h26l.15-.005A2 2 0 0032 21.5v-5.929zM26.26 2H7.74a2 2 0 00-1.897 1.368L2.442 13.57h29.116l-3.4-10.203A2 2 0 0026.26 2z" fill="currentColor" fill-rule="nonzero"/><rect stroke="currentColor" stroke-width="2" x="4.43" y="24.555" width="5.5" height="5.286" rx="1"/><rect stroke="currentColor" stroke-width="2" x="24.07" y="24.555" width="5.5" height="7" rx="1"/><path fill="currentColor" fill-rule="nonzero" d="M6.07 18.215h2.429v2.429H6.07zM25.5 18.215h2.429v2.429H25.5z"/></g></symbol><symbol fill="none" viewBox="0 0 24 24" id="steer--rebate" xmlns="http://www.w3.org/2000/svg"><path d="M9.425 6.38v.174h4.115c3.743 0 6.785 3.042 6.785 6.806a6.79 6.79 0 01-6.785 6.785H7.58a1.48 1.48 0 01-1.486-1.485 1.48 1.48 0 011.486-1.485h5.96a3.82 3.82 0 003.835-3.815 3.837 3.837 0 00-3.835-3.835H9.425v2.035c0 .528-.628.835-1.057.502L3.93 8.543a.653.653 0 010-1.027l4.439-3.5.002-.001c.422-.344 1.054-.033 1.054.504v1.86z" fill="currentColor"/></symbol><symbol fill="none" viewBox="0 0 11 10" id="steer--rebate-small" xmlns="http://www.w3.org/2000/svg"><path d="M4.25 5.531a.094.094 0 01-.143.08L.17 3.205a.093.093 0 01-.045-.08c0-.033.017-.063.044-.08L4.108.64a.094.094 0 01.143.08v1.437h2.391a3.49 3.49 0 013.484 3.485 3.49 3.49 0 01-3.484 3.484H2.844a.094.094 0 01-.094-.094v-1.75c0-.051.042-.093.094-.093H6.64a1.547 1.547 0 100-3.094H4.25v1.437z" fill="currentColor"/></symbol><symbol fill="none" viewBox="0 0 42 39" id="steer--returns-big" xmlns="http://www.w3.org/2000/svg"><path d="M21 38C12.75 38 5.5 32.42 3.438 24.392c-.063-.314.125-.69.437-.753.313-.063.688.126.75.439A16.932 16.932 0 0021 36.746c9.313 0 16.875-7.588 16.875-16.932 0-.377.25-.628.625-.628s.625.251.625.628C39.125 29.848 31 38 21 38zM3.5 19.814c-.375 0-.625-.251-.625-.628C2.875 9.153 11 1 21 1c8.25 0 15.5 5.581 17.563 13.608.062.314-.126.69-.438.753-.313.063-.688-.125-.75-.439A16.932 16.932 0 0021 2.254c-9.313 0-16.875 7.588-16.875 16.932 0 .377-.25.628-.625.628z" fill="currentColor" stroke="currentColor" stroke-width=".25"/><path d="M3.5 19.814a.566.566 0 01-.438-.189l-1.874-1.88a.608.608 0 010-.879c.25-.25.625-.25.875 0l1.874 1.881c.25.251.25.628 0 .878a.566.566 0 01-.437.189z" fill="currentColor" stroke="currentColor" stroke-width=".25"/><path d="M3.5 19.814a.566.566 0 01-.438-.189.608.608 0 010-.878l1.876-1.88c.25-.252.625-.252.875 0 .25.25.25.626 0 .877l-1.875 1.881a.566.566 0 01-.438.189zM40.375 21.695a.567.567 0 01-.438-.188l-1.874-1.882a.608.608 0 010-.878c.25-.25.624-.25.874 0l1.876 1.882c.25.25.25.627 0 .878a.567.567 0 01-.438.188z" fill="currentColor" stroke="currentColor" stroke-width=".25"/><path d="M36.625 21.695a.567.567 0 01-.438-.188.608.608 0 010-.878l1.876-1.882c.25-.25.624-.25.874 0 .25.251.25.628 0 .878l-1.874 1.882a.567.567 0 01-.438.188zM9.75 33.861c-.375 0-.625-.25-.625-.627V17.305c0-.376.25-.627.625-.627s.625.25.625.627v15.992c0 .313-.25.564-.625.564zM32.25 33.861c-.375 0-.625-.25-.625-.627V17.305c0-.376.25-.627.625-.627s.625.25.625.627v15.992c0 .313-.25.564-.625.564z" fill="currentColor" stroke="currentColor" stroke-width=".25"/><path d="M32.25 17.932H9.75c-.375 0-.625-.25-.625-.627 0-.376.25-.627.625-.627h22.5c.375 0 .625.25.625.627 0 .376-.25.627-.625.627z" fill="currentColor" stroke="currentColor" stroke-width=".25"/><path d="M9.75 17.932c-.125 0-.25 0-.313-.063-.312-.188-.374-.564-.187-.878l1.875-3.135c.188-.314.563-.377.875-.188.313.188.375.564.188.878l-1.876 3.135c-.124.126-.374.251-.562.251zM32.25 17.932a.745.745 0 01-.562-.313l-1.875-3.136c-.188-.314-.063-.69.187-.878.25-.188.688-.063.875.188l1.875 3.136c.188.313.063.69-.187.878a.477.477 0 01-.313.125z" fill="currentColor" stroke="currentColor" stroke-width=".25"/><path d="M30.375 14.796h-18.75c-.375 0-.625-.25-.625-.627 0-.376.25-.627.625-.627h18.75c.375 0 .625.251.625.627 0 .377-.25.627-.625.627z" fill="currentColor" stroke="currentColor" stroke-width=".25"/><path d="M18.502 17.933h-.125a.65.65 0 01-.5-.752l.625-3.136a.648.648 0 01.75-.501.65.65 0 01.5.752l-.625 3.136c-.063.313-.313.501-.625.501zM23.5 17.932c-.313 0-.563-.188-.625-.502l-.625-3.135c-.063-.314.125-.69.5-.753.312-.063.687.126.75.502l.625 3.135c.062.314-.125.69-.5.753H23.5z" fill="currentColor" stroke="currentColor" stroke-width=".25"/><path d="M18.5 21.695c-.375 0-.625-.25-.625-.627v-3.763c0-.376.25-.627.625-.627s.625.25.625.627v3.763c0 .313-.25.627-.625.627zM23.5 21.695c-.375 0-.625-.25-.625-.627v-3.763c0-.376.25-.627.625-.627s.625.25.625.627v3.763c0 .313-.25.627-.625.627z" fill="currentColor" stroke="currentColor" stroke-width=".25"/><path d="M23.502 21.695h-.125l-2.5-.627c-.313-.063-.563-.439-.438-.753.063-.313.438-.564.75-.439l2.5.628c.313.062.563.439.438.752-.063.251-.375.44-.625.44z" fill="currentColor" stroke="currentColor" stroke-width=".25"/><path d="M18.5 21.695c-.25 0-.562-.189-.625-.502-.062-.314.125-.69.438-.753l2.5-.627c.312-.062.687.126.75.44.062.313-.125.69-.438.752l-2.5.627c0 .063-.062.063-.125.063zM26.625 29.22h-11.25c-.375 0-.625-.25-.625-.627 0-.376.25-.627.625-.627h11.25c.375 0 .625.25.625.627s-.25.627-.625.627zM26.625 26.712h-11.25c-.375 0-.625-.251-.625-.627 0-.377.25-.628.625-.628h11.25c.375 0 .625.251.625.628 0 .376-.25.627-.625.627zM23.5 31.729h-5c-.375 0-.625-.251-.625-.627 0-.377.25-.628.625-.628h5c.375 0 .625.251.625.628 0 .376-.25.627-.625.627z" fill="currentColor" stroke="currentColor" stroke-width=".25"/></symbol><symbol fill="none" viewBox="0 0 13 13" id="steer--review-verified" xmlns="http://www.w3.org/2000/svg"><path d="M12.71 5.913l-.602-.45a.745.745 0 01-.232-.861l.287-.697a.742.742 0 00-.588-1.01l-.751-.096a.726.726 0 01-.63-.628L10.1 1.42A.743.743 0 009.09.833l-.698.287A.747.747 0 017.53.888L7.065.287a.731.731 0 00-1.161 0L5.466.9a.747.747 0 01-.861.232l-.697-.3a.743.743 0 00-1.01.587l-.096.752a.726.726 0 01-.63.628l-.751.095a.742.742 0 00-.588 1.01l.287.697c.123.3.028.656-.232.86l-.6.465a.73.73 0 000 1.16l.614.451c.259.205.355.56.232.86l-.3.697a.741.741 0 00.587 1.01l.752.096c.327.04.587.3.629.628l.095.751a.743.743 0 001.011.588l.697-.287a.747.747 0 01.862.232l.464.6a.732.732 0 001.162 0l.464-.6a.747.747 0 01.861-.232l.697.287a.743.743 0 001.012-.588l.095-.75a.726.726 0 01.629-.63l.752-.095a.742.742 0 00.588-1.01l-.288-.697a.746.746 0 01.232-.86l.602-.464c.355-.287.355-.86-.028-1.161zm-3.84-.15L6.394 8.235a.702.702 0 01-.505.204.702.702 0 01-.506-.204L4.14 6.992a.709.709 0 010-.997.71.71 0 01.998 0l.738.737 1.996-1.966a.71.71 0 01.997 0 .709.709 0 010 .997z" fill="currentColor"/></symbol><symbol viewBox="0 0 24 24" id="steer--run-flat" xmlns="http://www.w3.org/2000/svg"><path d="M12 .4C18.398.4 23.6 5.602 23.6 12S18.398 23.6 12 23.6.4 18.398.4 12 5.602.4 12 .4zm0 1.867C6.631 2.267 2.267 6.63 2.267 12c0 5.369 4.364 9.734 9.733 9.734 5.369 0 9.734-4.365 9.734-9.734S17.369 2.267 12 2.267zm0 3.317A6.42 6.42 0 0118.417 12 6.42 6.42 0 0112 18.417 6.42 6.42 0 015.584 12 6.42 6.42 0 0112 5.584zm0 2.166A4.251 4.251 0 007.75 12 4.251 4.251 0 0012 16.25 4.252 4.252 0 0016.25 12 4.251 4.251 0 0012 7.75z" fill="currentColor"/></symbol><symbol fill="none" viewBox="0 0 35 35" id="steer--run-flat-big" xmlns="http://www.w3.org/2000/svg"><circle cx="17.5" cy="17.5" r="16.5" stroke="currentColor" stroke-width="2" stroke-linecap="round" stroke-linejoin="round"/><circle cx="17.487" cy="17.501" r="6.074" stroke="currentColor" stroke-width="2" stroke-linecap="round" stroke-linejoin="round"/><path d="M25.165 27.428a12.88 12.88 0 01-7.971 2.748M5.723 20.151c-.677-2.59-.52-5.201.308-7.552" stroke="currentColor" stroke-width="2" stroke-miterlimit="10" stroke-linecap="round" stroke-linejoin="round"/></symbol><symbol fill="currentColor" viewBox="0 0 17 17" id="steer--search" xmlns="http://www.w3.org/2000/svg"><path fill-rule="evenodd" clip-rule="evenodd" d="M2 7.5a5.5 5.5 0 1111 0 5.5 5.5 0 01-11 0zM7.5 0a7.5 7.5 0 104.55 13.463l2.868 2.87a1 1 0 001.414-1.415l-2.869-2.869A7.5 7.5 0 007.5 0z"/></symbol><symbol fill="none" viewBox="0 0 15 11" id="steer--shipping-truck" xmlns="http://www.w3.org/2000/svg"><path d="M11.727 10.154c-.466 0-.885-.266-1.063-.673a1.048 1.048 0 01.25-1.187 1.197 1.197 0 011.252-.236c.43.169.71.566.71 1.007 0 .288-.12.566-.337.77a1.184 1.184 0 01-.812.32zm2.877-4.058V8.48c0 .118-.049.23-.138.315a.484.484 0 01-.333.13H13.5c-.075-.874-.847-1.548-1.773-1.548-.927 0-1.699.674-1.775 1.548H5.614c-.076-.874-.847-1.548-1.774-1.548s-1.699.674-1.775 1.548h-.228a.46.46 0 01-.472-.445V6.137h1.801c.19 0 .371-.076.5-.209a.618.618 0 00.17-.491c-.043-.333-.345-.581-.699-.576H.924a.542.542 0 01-.375-.146.487.487 0 010-.709.545.545 0 01.375-.146h4.172a.69.69 0 00.5-.21.616.616 0 00.17-.491c-.043-.333-.345-.581-.699-.576H1.365V1.464c0-.164.07-.322.192-.438A.673.673 0 012.02.844h7.958c.174 0 .34.066.463.182a.604.604 0 01.192.438v1.889h2.5c.112 0 .214.06.264.153l1.065 2.018c.094.177.143.374.143.572zm-.588-.17L12.95 3.91h-2.319v2.179h3.384v-.163zM4.99 9.065c0-.441-.28-.838-.71-1.007a1.198 1.198 0 00-1.254.236c-.329.312-.427.78-.25 1.188.179.406.598.672 1.063.672.306 0 .598-.115.814-.319.215-.204.337-.482.337-.77z" fill="currentColor" fill-opacity=".85"/></symbol><symbol viewBox="0 0 28 17" id="steer--shipping-truck-outline" xmlns="http://www.w3.org/2000/svg"><path d="M18.333.75c.692 0 1.262.53 1.326 1.205l.006.129v1.915l2.162.003c.462 0 .91.143 1.283.404l.156.119.146.133 3.173 3.159c.379.377.61.874.655 1.401l.008.2-.007 2.914a1.924 1.924 0 01-1.475 1.865l-.151.03-.098.011-.047.16a2.96 2.96 0 01-2.433 1.996l-.19.018-.183.005a2.96 2.96 0 01-2.74-1.844l-.065-.175-.045-.149h-6.757l-.044.149a2.96 2.96 0 01-2.432 1.996l-.19.018-.183.005a2.96 2.96 0 01-2.74-1.844l-.065-.175-.045-.149h-.94a1.333 1.333 0 01-1.28-.958l-.03-.124h-.316a.793.793 0 01-.764-.581l-.02-.104L4 12.375c0-.404.302-.737.694-.786l.1-.006h.289V9.918H3.709a.793.793 0 01-.764-.582l-.021-.103-.008-.107c0-.401.298-.732.685-.784l.108-.007 1.374-.001V6.667H2.625a.791.791 0 01-.763-.581l-.021-.103-.007-.108a.79.79 0 01.683-.784l.108-.007 2.458-.001.001-1.667H1.542a.792.792 0 01-.764-.58l-.02-.103-.008-.108c0-.4.298-.732.685-.784l.107-.007 3.566-.001A1.336 1.336 0 016.155.776l.134-.02.128-.006h11.916zm-8.125 11.333a1.376 1.376 0 101.375 1.375c0-.758-.617-1.375-1.375-1.375zm12.458 0c-.757 0-1.375.617-1.375 1.374a1.376 1.376 0 101.375-1.375zm-6.333-9.748H8.42A1.75 1.75 0 006.675 3.94l-.006.143v7.696c0 .415.284.763.668.86l.029.005.038-.126a2.958 2.958 0 012.622-2.013l.183-.006c1.29 0 2.41.833 2.805 2.02l.045.147h3.273a1.75 1.75 0 001.744-1.606l.006-.143.001-6.833a1.75 1.75 0 00-1.75-1.75zm3.333 3.249v7.004c0 .044.035.08.078.08.04 0 .081-.033.097-.085a2.957 2.957 0 015.653.004c.015.05.054.08.091.08.03 0 .057-.018.068-.045l.006-.029.006-2.727a1.75 1.75 0 00-.399-1.114l-.117-.13-2.537-2.526a1.75 1.75 0 00-1.06-.501l-.173-.009-1.713-.002z" fill="currentColor"/></symbol><symbol fill="none" viewBox="0 0 50 32" id="steer--shops-big" xmlns="http://www.w3.org/2000/svg"><path d="M4.106 29.52V9.58h41.788v19.94" stroke="currentColor" stroke-width="1.5" stroke-linecap="round" stroke-linejoin="round"/><path d="M10.041 29.52V17.027h18.74V29.52M2.5 9.5h45M41.79 29.52V19.198h-5.532V29.52M10.041 19.55h18.74M10.041 22.041h18.74M10.041 24.534h18.74M10.041 27.025h18.74M25.52 1H14.153a.836.836 0 00-.84.831v3.451c0 .46.376.831.84.831H25.52c.465 0 .841-.372.841-.83V1.83a.836.836 0 00-.84-.831zM15.685 7.114v1.6M24.26 7.114v1.6" stroke="currentColor" stroke-width="1.5" stroke-linecap="round" stroke-linejoin="round"/><path fill="currentColor" d="M0 30.664h50v1.335H0z"/></symbol><symbol fill="none" viewBox="0 0 33 29" id="steer--smiley" xmlns="http://www.w3.org/2000/svg"><path d="M11.003 3.938a3.938 3.938 0 11-7.876-.001 3.938 3.938 0 017.876 0zM29.376 3.938a3.938 3.938 0 11-7.874-.001 3.938 3.938 0 017.874 0zM16.251 28.88c-6.523 0-12.614-3.52-15.897-9.184a2.622 2.622 0 01.955-3.586 2.627 2.627 0 013.588.955c2.345 4.05 6.696 6.566 11.353 6.566 4.658 0 9.012-2.515 11.352-6.566a2.612 2.612 0 013.586-.955 2.618 2.618 0 01.954 3.585c-3.275 5.665-9.368 9.185-15.894 9.185h.003z" fill="currentColor"/></symbol><symbol fill="none" viewBox="0 0 35 37" id="steer--smiley-concerned" xmlns="http://www.w3.org/2000/svg"><path stroke="currentColor" stroke-linecap="round" stroke-linejoin="bevel" stroke-width="2" d="M25.875 1.049l7.5 3.495m-32 .001l3.75-1.498 3.75-1.498"/><path fill="currentColor" d="M12.25 13.032c0 2.759-1.764 4.994-3.938 4.994-2.175 0-3.937-2.235-3.937-4.994 0-2.755 1.762-4.993 3.938-4.993 2.172 0 3.937 2.238 3.937 4.993zm18.5 0c0 2.759-1.762 4.994-3.938 4.994-2.172 0-3.937-2.235-3.937-4.994 0-2.755 1.765-4.993 3.938-4.993 2.175 0 3.937 2.238 3.937 4.993zm-13.373 22.97c-6.424 0-11.27-1.616-14.502-5.494-.715-.86-1.5-2.994 0-3.995 1.17-.783 2.5-.5 4 1 2.5 1.997 5.915 3.897 10.5 3.897 4.587 0 7.5-1.399 10.5-3.398 1-1 3-1.997 4.5-1 1 .666.72 2.137 0 2.997-3 3.581-8.576 5.993-15.002 5.993h.004z"/></symbol><symbol fill="none" viewBox="0 0 33 30" id="steer--smiley-wink" xmlns="http://www.w3.org/2000/svg"><path fill="currentColor" stroke="currentColor" stroke-width=".5" d="M11.004 4.19a3.685 3.685 0 01-3.688 3.683A3.684 3.684 0 013.63 4.191 3.685 3.685 0 017.316.509a3.687 3.687 0 013.688 3.682z"/><rect width="8" height="2.996" x="22" y="2.609" fill="currentColor" rx="1.498"/><path fill="currentColor" stroke="currentColor" stroke-width=".5" d="M1.684 16.562h0a2.38 2.38 0 013.247.862c2.39 4.122 6.823 6.682 11.569 6.682 4.747 0 9.183-2.56 11.569-6.682h0a2.364 2.364 0 013.243-.863h0a2.362 2.362 0 01.864 3.239h0c-3.23 5.58-9.24 9.047-15.677 9.048C10.067 28.847 4.06 25.38.82 19.8a2.367 2.367 0 01.864-3.24z"/></symbol><symbol fill="none" viewBox="0 0 61 56" id="steer--star" xmlns="http://www.w3.org/2000/svg"><path d="M13.702 35.877l-2.817 16.148c-.47 2.646 2.441 4.744 4.883 3.467l14.93-7.573 14.93 7.573c2.44 1.277 5.352-.821 4.882-3.467l-2.817-16.148 12.02-11.404a3.228 3.228 0 00-1.879-5.565l-16.62-2.372-7.512-14.689c-1.22-2.463-4.789-2.463-6.103 0L20.18 16.536 3.56 18.908c-2.817.365-3.85 3.74-1.878 5.565l12.019 11.404z" fill="currentColor"/></symbol><symbol fill="none" viewBox="0 0 24 24" id="steer--star-outline" xmlns="http://www.w3.org/2000/svg"><path d="M20.178 8.167c.806.114 1.463.66 1.716 1.425a2.068 2.068 0 01-.535 2.15l-2.893 2.792a.632.632 0 00-.184.564l.688 3.936a2.073 2.073 0 01-.842 2.052 2.132 2.132 0 01-2.236.162l-3.581-1.855a.654.654 0 00-.6.001l-3.577 1.863a2.51 2.51 0 01-.992.243c-.437 0-.872-.135-1.244-.401a2.074 2.074 0 01-.847-2.05l.679-3.938a.63.63 0 00-.186-.562l-2.9-2.785a2.067 2.067 0 01-.54-2.149 2.104 2.104 0 011.712-1.429l4.002-.579c.21-.03.391-.16.485-.349l1.786-3.584a2.113 2.113 0 011.902-1.17h.003a1.75 1.75 0 011.738 1.17c.372 1.014 1.46 2.806 1.958 3.575a.642.642 0 00.486.348l4.002.57zm0 0l-.01.068" stroke="currentColor" stroke-width="1.7"/></symbol><symbol fill="none" viewBox="0 0 24 24" id="steer--tag" xmlns="http://www.w3.org/2000/svg"><path d="M13.47 3.272a2.078 2.078 0 00-1.225-.591l-5.812-.667a2.052 2.052 0 00-1.696.591L2.605 4.737a2.054 2.054 0 00-.59 1.695l.666 5.812c.054.463.262.895.59 1.226l7.928 7.926a2.067 2.067 0 002.921 0l7.276-7.276a2.067 2.067 0 000-2.921L13.47 3.272zm6.97 9.892l-7.276 7.276a.714.714 0 01-1.01 0l-7.926-7.926a.718.718 0 01-.204-.424L3.356 6.28a.71.71 0 01.205-.586l2.132-2.132a.707.707 0 01.586-.204l5.811.667c.16.019.31.09.424.204l7.926 7.927c.278.278.28.73 0 1.01z" fill="currentColor" stroke="currentColor" stroke-width=".5"/><circle cx="8.756" cy="8.759" r="2.065" fill="currentColor" stroke="currentColor" stroke-width=".5"/></symbol><symbol fill="none" viewBox="0 0 10 10" id="steer--tag-small" xmlns="http://www.w3.org/2000/svg"><path d="M5.661 1.072a.935.935 0 00-.55-.266l-2.616-.3a.924.924 0 00-.763.266l-.96.96c-.2.2-.299.481-.266.763l.3 2.615a.935.935 0 00.266.551L4.64 9.228a.93.93 0 001.314 0l3.274-3.274a.93.93 0 000-1.315L5.661 1.072zm3.137 4.452L5.524 8.798a.321.321 0 01-.454 0L1.502 5.231a.323.323 0 01-.091-.19l-.3-2.615a.32.32 0 01.091-.264l.96-.96a.318.318 0 01.263-.091l2.616.3c.071.008.139.04.19.091L8.798 5.07a.321.321 0 010 .454z" fill="currentColor" stroke="currentColor" stroke-width=".75"/><circle cx="3.542" cy="3.54" r="1.042" fill="currentColor"/></symbol><symbol fill="none" viewBox="0 0 24 24" id="steer--thumbs-up" xmlns="http://www.w3.org/2000/svg"><g clip-path="url(#cuclip0)" stroke="currentColor"><path d="M10.3 17.42v-5c0-2 1.47-4.45 2-5.43.53-.98 1.7-3.85 3.41-2.99 1.47.74 1 2 .49 4.47-.17.87.16 1 .49 1h3.93c2 0 1.81 2 1.48 3a23.116 23.116 0 01-3 6.4c-.49.74-1.07 1-2.46 1h-3.88c-1.97-.03-2.46-.52-2.46-2.45z" stroke-width="1.7"/><path d="M6.76 9.36H2.82a1.02 1.02 0 00-1.02 1.02v8.54c0 .563.457 1.02 1.02 1.02h3.94a1.02 1.02 0 001.02-1.02v-8.54a1.02 1.02 0 00-1.02-1.02z" stroke-width="1.6"/></g><defs><clipPath id="cuclip0"><path fill="#fff" transform="translate(1 3)" d="M0 0h22.15v17.73H0z"/></clipPath></defs></symbol><symbol fill="none" viewBox="0 0 39 38" id="steer--tip-mechanic" xmlns="http://www.w3.org/2000/svg"><path fill-rule="evenodd" clip-rule="evenodd" d="M32.323 21.755c-1.935-.049-3.838.823-5.015 2.482a5.936 5.936 0 00.203 7.134l-3.073 6.12h1.678l2.96-5.895a.75.75 0 00-.126-.854 4.44 4.44 0 01-.42-5.636 4.39 4.39 0 012.57-1.727l-1.086 2.47a.75.75 0 00.381.987l3.688 1.642a.75.75 0 00.992-.383l1.08-2.455c.492.914.666 1.99.429 3.052a4.44 4.44 0 01-4.468 3.46.75.75 0 00-.705.444c-.238.533-.74 1.618-1.252 2.723l-.03.062c-.351.76-.705 1.524-.973 2.11h1.65l.685-1.48.035-.075c.394-.852.788-1.701 1.057-2.292a5.937 5.937 0 005.465-4.625c.442-1.986-.183-3.986-1.512-5.388a.75.75 0 00-1.23.214l-1.3 2.957-2.319-1.032 1.303-2.963a.75.75 0 00-.667-1.052z" fill="currentColor"/><path d="M9.867 15.666a2.01 2.01 0 00-.144 1l.105.933c.07.63.81 2.392 1.198 2.892m-.195-.304l2.195 3.804c.783 1.672 2.946 2.564 4.808 2.564h.381c1.863 0 3.811-1.064 4.811-2.064l2-4 .187-.304c.312-.687.938-1.959 1.009-2.588l.104-.933a2.011 2.011 0 00-.143-1" stroke="currentColor" stroke-width="2" stroke-linejoin="round"/><path d="M23.173 29.666l-.236.162c-2.895 2-6.083 2.155-9.131.397l-.97-.56M26.2 15.482a3.49 3.49 0 01-1.232-.223h.002l-.92-.345a16.256 16.256 0 00-11.98.215l-.675.282a3.146 3.146 0 01-1.179.387 1.251 1.251 0 01-1.251-1.314l.484-9.46a2.745 2.745 0 011.41-2.26c4.222-2.352 10.093-2.352 14.315 0a2.755 2.755 0 011.413 2.26v.002l.5 9.525a.883.883 0 01-.242.655.893.893 0 01-.646.276zm0 0h0" stroke="currentColor" stroke-width="2"/><path d="M8.963 10.802h.812c.496 0 .986-.097 1.444-.286l.86-.354a16.462 16.462 0 0111.976-.212l.831.308.002-.002a3.79 3.79 0 001.317.236h.883" stroke="currentColor" stroke-width="2"/><path fill-rule="evenodd" clip-rule="evenodd" d="M32.029 33.05c.2.255.368.55.494.876l1.38 3.565h2.144l-1.658-4.286a5.491 5.491 0 00-.296-.64 5.232 5.232 0 01-1.997.337l-.067.148zm-4.751-3.609c.24.66.617 1.281 1.128 1.818l-.195.388-4.42-.816a1.003 1.003 0 01-.316-.117 2.184 2.184 0 00-.096-.042l-.079-.032h-.001c-.06-.025-.136-.056-.19-.08a3.733 3.733 0 01-.348-.166 1.69 1.69 0 01-.443-.342 3.559 3.559 0 01-.87-1.951l-.003-.02-.092-.941a1 1 0 111.99-.195l.092.93c.038.304.156.574.325.785.03.016.073.035.132.06.052.023.09.038.132.055a14.054 14.054 0 01.27.114l2.984.552zm-13.529-3.395a1 1 0 00-1.093.897l-.09.931c-.02.166-.065.322-.128.46a1.478 1.478 0 01-.228.362 2.432 2.432 0 01-.188.12c-.07.04-.145.08-.222.122l-.063.034-4.86.857-1.358.237c-1.842.243-3.242 1.547-3.875 3.183L0 37.49h2.145l1.364-3.52c.414-1.07 1.274-1.796 2.285-1.924l.047-.007 1.38-.24 5.026-.887c.114-.02.223-.06.323-.117.034-.02.079-.043.143-.078l.038-.02a10.6 10.6 0 00.273-.152c.152-.088.451-.264.657-.494.24-.268.435-.57.58-.896.15-.33.249-.688.292-1.06l.002-.017.092-.94a1 1 0 00-.898-1.093zm-.068 4.006l-.002.001-.743-.669.746.666-.001.002z" fill="currentColor"/></symbol><symbol fill="none" viewBox="0 0 30 30" id="steer--tire" xmlns="http://www.w3.org/2000/svg"><path fill-rule="evenodd" clip-rule="evenodd" d="M15 28.5c7.456 0 13.5-6.044 13.5-13.5S22.456 1.5 15 1.5 1.5 7.544 1.5 15 7.544 28.5 15 28.5zm0 1.5c8.284 0 15-6.716 15-15 0-8.284-6.716-15-15-15C6.716 0 0 6.716 0 15c0 8.284 6.716 15 15 15zM7.537 15.75a7.468 7.468 0 001.799 4.166l2.486-2.486a3.982 3.982 0 01-.752-1.68H7.537zm6.713 6.713a7.463 7.463 0 01-3.822-1.518l2.514-2.514c.397.238.838.41 1.308.499v3.533zM7.537 14.25h3.533c.101-.532.307-1.026.596-1.46l-2.501-2.502a7.464 7.464 0 00-1.628 3.962zm5.178-2.533c.452-.316.973-.54 1.535-.647V7.537a7.466 7.466 0 00-4.03 1.684l2.495 2.496zm3.035-4.18v3.533c.532.101 1.026.307 1.46.596l2.502-2.501a7.464 7.464 0 00-3.962-1.628zm3.18 6.713a3.979 3.979 0 00-.647-1.535l2.496-2.496a7.466 7.466 0 011.684 4.031H18.93zm-.596 2.96c.289-.434.495-.928.596-1.46h3.533a7.465 7.465 0 01-1.628 3.962l-2.501-2.501zm-1.049 1.073c-.452.316-.973.54-1.535.647v3.533a7.466 7.466 0 004.03-1.684l-2.495-2.496zM15 24a9 9 0 100-18 9 9 0 000 18zm2.5-9a2.5 2.5 0 11-5 0 2.5 2.5 0 015 0z" fill="currentColor"/></symbol><symbol viewBox="0 0 131 40" id="steer--tire-types-search" xmlns="http://www.w3.org/2000/svg"><g fill="none" fill-rule="evenodd"><g transform="translate(90.802)" fill="#FFF" fill-rule="nonzero"><circle fill-opacity=".22" cx="19.599" cy="19.599" r="19.599"/><path d="M7.293 25.954a.742.742 0 00.65.354c.119 0 .266-.03.355-.088l2.513-1.449v2.897c0 .414.325.74.739.74a.732.732 0 00.739-.74v-3.754l5.764-3.34v6.68l-3.252 1.892a.73.73 0 00-.266 1.005.742.742 0 00.65.355c.12 0 .267-.03.356-.089l2.512-1.448v2.897c0 .414.325.739.74.739a.732.732 0 00.738-.74V28.97l2.513 1.448c.118.06.236.089.355.089a.742.742 0 00.65-.355.73.73 0 00-.266-1.005l-3.252-1.892v-6.68l5.765 3.34v3.754c0 .414.325.74.739.74a.732.732 0 00.739-.74v-2.897l2.512 1.449c.119.059.237.088.355.088a.742.742 0 00.65-.354.73.73 0 00-.266-1.006L27.513 23.5l2.512-1.448a.73.73 0 00.266-1.006.73.73 0 00-1.005-.266l-3.251 1.892-5.735-3.37 5.764-3.34 3.252 1.892c.118.059.236.089.355.089a.742.742 0 00.65-.355.73.73 0 00-.266-1.005l-2.513-1.449 2.513-1.448a.73.73 0 00.266-1.005.73.73 0 00-1.005-.266l-2.513 1.448v-2.897a.732.732 0 00-.739-.739.732.732 0 00-.739.74v3.753l-5.764 3.311v-6.68l3.252-1.892a.73.73 0 00.266-1.005.73.73 0 00-1.006-.266l-2.512 1.448V6.739A.732.732 0 0018.82 6a.732.732 0 00-.738.739v2.897L15.57 8.188a.73.73 0 00-1.005.266.73.73 0 00.266 1.005l3.252 1.892v6.68l-5.765-3.34v-3.754a.732.732 0 00-.739-.74.732.732 0 00-.739.74v2.897l-2.512-1.449a.73.73 0 00-1.005.266.73.73 0 00.266 1.005l2.512 1.449-2.512 1.448a.73.73 0 00-.266 1.005.742.742 0 00.65.355c.118 0 .266-.03.355-.089l3.251-1.892 5.765 3.37-5.765 3.34-3.251-1.891a.73.73 0 00-1.005.266.73.73 0 00.266 1.005L10.1 23.47 7.59 24.92c-.355.236-.503.68-.296 1.035z"/></g><g transform="translate(46.145)"><circle fill-opacity=".22" fill="#FFF" fill-rule="nonzero" cx="19.599" cy="19.599" r="19.599"/><path stroke="#FFF" stroke-width=".68" stroke-linecap="round" d="M17.91 11.137V8.654"/><path d="M12.407 19.172a6.207 6.207 0 006.207 6.207V12.966a6.207 6.207 0 00-6.207 6.206z" fill="#FFF" fill-rule="nonzero"/><path stroke="#FFF" stroke-width=".68" stroke-linecap="round" d="M14.041 12.421l-1.343-2.389M11.028 15.384L8.63 14.112M11.188 23.357l-2.406 1.272M13.953 26.475l-1.471 2.311M17.91 27.862v2.615M10.564 19.417H7.855"/><path d="M31.76 13.777a.65.65 0 00-.406-.3.683.683 0 00-.506.067l-2.277 1.272V12.28a.645.645 0 00-.22-.414.683.683 0 00-.896 0 .645.645 0 00-.22.414v3.28l-5.218 2.902V12.59l2.941-1.628a.66.66 0 00.352-.391.626.626 0 00-.059-.516.65.65 0 00-.432-.306.683.683 0 00-.524.103l-2.278 1.265V8.58a.645.645 0 00-.219-.415.683.683 0 00-.896 0 .645.645 0 00-.22.415V30.592c.019.16.097.307.22.414a.683.683 0 00.896 0 .646.646 0 00.22-.414v-2.567l2.269 1.264a.72.72 0 00.32.077.68.68 0 00.339-.077.655.655 0 00.252-.233.615.615 0 00-.24-.876l-2.965-1.629V20.68l5.219 2.924v3.28a.619.619 0 00.189.463.656.656 0 00.474.19.682.682 0 00.477-.19.643.643 0 00.195-.462v-2.529l2.27 1.264a.721.721 0 00.327.078.669.669 0 00.405-.124.636.636 0 00.242-.34.618.618 0 00-.024-.412.641.641 0 00-.28-.31l-2.27-1.273 2.27-1.264a.642.642 0 00.313-.389.611.611 0 00-.073-.487.641.641 0 00-.404-.304.676.676 0 00-.507.07l-2.94 1.653-5.187-2.947 5.218-2.924 2.941 1.66a.712.712 0 00.657-.004.687.687 0 00.254-.23.63.63 0 00-.24-.883l-2.277-1.265 2.278-1.264a.658.658 0 00.31-.393.626.626 0 00-.07-.491z" fill="#FFF" fill-rule="nonzero"/></g><g fill="#FFF" fill-rule="nonzero"><circle fill-opacity=".22" cx="19.599" cy="19.599" r="19.599"/><path d="M31.09 17.694v.001c.256 1.277.256 2.555 0 3.962v.001c-1.022 6.263-7.03 10.357-13.298 9.334-4.862-.896-8.696-4.605-9.463-9.462-1.023-6.267 3.197-12.277 9.462-13.3 6.265-1.023 12.148 3.197 13.3 9.464zm-2.693 7.628l.004-.006c1.036-1.684 1.684-3.629 1.684-5.705 0-5.058-3.76-9.468-8.69-10.246-5.579-.908-10.895 2.984-11.803 8.69-.39 2.464.13 5.058 1.556 7.262l.003.005c.792 1.056 2.12 1.458 3.318.794a11.156 11.156 0 0110.61 0c1.197.664 2.526.262 3.318-.794zm-7.455-6.023l-.023.022V19.611c0 .369-.122.67-.33.879-.21.208-.51.331-.88.331-.368 0-.67-.123-.878-.331-.209-.21-.331-.51-.331-.879s.122-.67.331-.879c.209-.208.51-.33.879-.33H20l.023-.024 5.011-5.01a.964.964 0 01.463-.068c.183.015.356.075.467.187a.545.545 0 010 .791l-5.02 5.02z"/></g></g></symbol><symbol fill="none" viewBox="0 0 32 30" id="steer--tiretype-all-terrain" xmlns="http://www.w3.org/2000/svg"><path d="M22.596 12.127c-.507-.697-1.487-.896-2.197-.398a1.162 1.162 0 00-.303.266l-1.115 1.294-4.663-7.501c-.439-.73-1.418-.963-2.162-.531-.236.133-.439.332-.574.564L1.21 24.01c-.439.763-.169 1.693.608 2.124.237.133.507.2.777.2H29.42c.878 0 1.588-.698 1.588-1.56 0-.3-.102-.598-.27-.864l-8.142-11.783zm-1.724.532c.102-.133.27-.2.44-.166.169 0 .304.1.405.232l2.196 3.153-2.06 2.025-2.298-3.684 1.317-1.56zm-8.378-6.307a.529.529 0 01.44-.265c.168 0 .337.1.439.232l4.594 7.369-1.52.929c-.203.1-.44.1-.608-.033l-1.42-1.096c-.574-.464-1.384-.464-1.992 0l-1.386 1.096a.513.513 0 01-.608.033l-1.96-1.261 4.021-7.004zM2.595 25.304a.53.53 0 01-.54-.53c0-.1.034-.167.068-.266l5.844-10.223 1.926 1.195a1.596 1.596 0 001.824-.1l1.385-1.095a.52.52 0 01.676 0l1.419 1.095c.507.398 1.25.465 1.79.133l1.554-.93 6.15 9.892c.134.232.067.564-.17.697-.067.066-.169.066-.27.066H2.595v.066zm27.298-.265a.541.541 0 01-.473.265h-3.716c.168-.431.135-.929-.136-1.327l-3.209-5.178 2.128-2.058 5.338 7.767c.135.133.135.332.068.53zM25.062 3c-1.757 0-3.176 1.394-3.176 3.12 0 1.726 1.42 3.12 3.176 3.12 1.757 0 3.176-1.394 3.176-3.12 0-1.726-1.42-3.12-3.176-3.12zm0 5.178c-1.183 0-2.095-.93-2.095-2.058 0-1.129.946-2.058 2.095-2.058 1.182 0 2.095.93 2.095 2.058 0 1.128-.913 2.058-2.095 2.058z" fill="currentColor" stroke="currentColor" stroke-width=".3"/></symbol><symbol viewBox="0 0 29.3 27.8" id="steer--tiretype-all-weather" xmlns="http://www.w3.org/2000/svg"><g data-name="Layer 2"><g data-name="All Weather"><path d="M28.65 27.15h-28l5.69-11.61 2.38 2.32L15.65.65l3 12.11L22.48 10z" fill="none" stroke="currentColor" stroke-linejoin="round" stroke-width="1.3"/><circle cx="16.11" cy="19.7" r="1.64"/><path d="M10.87 22.69a.37.37 0 00.3.16.42.42 0 00.16 0l1.13-.66v1.31a.34.34 0 00.34.34.33.33 0 00.33-.34v-1.7l2.61-1.51v3l-1.47.86a.34.34 0 00-.12.46.35.35 0 00.29.16.38.38 0 00.16 0l1.14-.66v1.31a.34.34 0 10.67 0v-1.37l1.14.66a.42.42 0 00.16 0 .35.35 0 00.29-.16.34.34 0 00-.12-.46l-1.47-.86v-3L19 21.76v1.7a.33.33 0 00.33.34.34.34 0 00.34-.34v-1.31l1.13.66a.53.53 0 00.16 0 .37.37 0 00.3-.16.34.34 0 00-.12-.46L20 21.58l1.14-.66a.33.33 0 00.12-.45.33.33 0 00-.46-.12l-1.47.85-2.59-1.52 2.61-1.51 1.47.85a.29.29 0 00.16 0 .33.33 0 00.17-.61L20 17.79l1.14-.65a.34.34 0 00.12-.46.33.33 0 00-.45-.12l-1.14.66v-1.31a.34.34 0 10-.67 0v1.69l-2.61 1.5v-3l1.47-.86a.33.33 0 10-.33-.57l-1.14.65V14a.33.33 0 00-.33-.33.34.34 0 00-.34.33v1.3l-1.13-.65a.33.33 0 00-.46.12.33.33 0 00.12.45l1.47.86v3l-2.6-1.51v-1.7a.33.33 0 00-.34-.33.32.32 0 00-.33.33v1.33l-1.14-.65a.33.33 0 10-.33.57l1.13.66-1.11.65a.33.33 0 00.17.62.29.29 0 00.16 0l1.47-.86 2.61 1.53-2.61 1.51-1.47-.86a.33.33 0 00-.45.12.33.33 0 00.12.46l1.13.65-1.13.62a.36.36 0 00-.13.47z" fill="currentColor"/></g></g></symbol><symbol fill="none" viewBox="0 0 30 30" id="steer--tiretype-antique" xmlns="http://www.w3.org/2000/svg"><circle cx="15" cy="15" r="14.35" stroke="currentColor" stroke-width="1.3"/><circle cx="15" cy="15" r="11.35" stroke="currentColor" stroke-width="1.3"/><path d="M15 4v22.5M4 15h22M7.045 7.295l15.91 15.91M7.045 22.851L22.6 7.295" stroke="currentColor" stroke-width="1.3"/></symbol><symbol fill="none" viewBox="0 0 30 30" id="steer--tiretype-autocross" xmlns="http://www.w3.org/2000/svg"><path d="M28 25H2a1 1 0 00-1 1v1a1 1 0 001 1h26a1 1 0 001-1v-1a1 1 0 00-1-1z" stroke="currentColor" stroke-width="1.3" stroke-linejoin="round"/><path d="M15 25H5l8.636-22.391C14.091 1.462 14.273 1 15 1M15 25h10L16.364 2.609C15.909 1.462 15.727 1 15 1M9 14h12M7 20h16" stroke="currentColor" stroke-width="1.3"/></symbol><symbol fill="none" viewBox="0 0 30 30" id="steer--tiretype-commercial" xmlns="http://www.w3.org/2000/svg"><mask id="dca" maskUnits="userSpaceOnUse" x="3" y="25" width="7" height="5"><path fill="#fff" d="M3 25h7v5H3z"/></mask><g mask="url(#dca)"><rect x="4" y="23" width="5" height="7" rx="2" fill="currentColor"/></g><mask id="dcb" maskUnits="userSpaceOnUse" x="19" y="25" width="8" height="5"><path fill="#fff" d="M19 25h8v5h-8z"/></mask><g mask="url(#dcb)"><rect x="21" y="22" width="5" height="8" rx="2" fill="currentColor"/></g><mask id="dcc" fill="#fff"><path fill-rule="evenodd" clip-rule="evenodd" d="M2 4a4 4 0 014-4h18a4 4 0 014 4v22H2V4z"/></mask><path d="M28 26v1.3h1.3V26H28zM2 26H.7v1.3H2V26zM6-1.3A5.3 5.3 0 00.7 4h2.6A2.7 2.7 0 016 1.3v-2.6zm18 0H6v2.6h18v-2.6zM29.3 4A5.3 5.3 0 0024-1.3v2.6A2.7 2.7 0 0126.7 4h2.6zm0 14V4h-2.6v14h2.6zm0 1v-1h-2.6v1h2.6zm-2.6 0v1h2.6v-1h-2.6zm0 1v6h2.6v-6h-2.6zm1.3 4.7H2v2.6h26v-2.6zM3.3 26v-6H.7v6h2.6zm0-6v-1H.7v1h2.6zM.7 18v1h2.6v-1H.7zm0-14v14h2.6V4H.7z" fill="currentColor" mask="url(#dcc)"/><circle cx="7.5" cy="19.5" r="1" fill="currentColor" stroke="currentColor"/><circle cx="22.5" cy="19.5" r="1" fill="currentColor" stroke="currentColor"/><path d="M6.65 10c0-.746.604-1.35 1.35-1.35h14c.746 0 1.35.604 1.35 1.35v4.35H6.65V10z" stroke="currentColor" stroke-width="1.3"/><rect x="11" y="21" width="8" height="1" rx=".5" fill="currentColor"/><rect x="11" y="19" width="8" height="1" rx=".5" fill="currentColor"/><rect x="11" y="17" width="8" height="1" rx=".5" fill="currentColor"/></symbol><symbol fill="none" viewBox="0 0 30 30" id="steer--tiretype-drag-racing" xmlns="http://www.w3.org/2000/svg"><path d="M14 15.5c-2-2-5.833-.833-6.5 0C9 13 13 5.5 13 5.5c2.4-1.2 5.667.5 6.5 1.5 1 1.167 3.3 3.8 4.5 5 1.61 1.61 3.833 1.167 5 1-.167.333-1.4 2.6-5 9-6 1-7.5-4-10-6.5z" stroke="currentColor" stroke-width="1.3" stroke-linejoin="round"/><path d="M14.333 2.833L1 27S9.543 11.438 14.75 2" stroke="currentColor" stroke-width="1.3" stroke-linecap="round" stroke-linejoin="round"/></symbol><symbol fill="none" viewBox="0 0 30 30" id="steer--tiretype-highway" xmlns="http://www.w3.org/2000/svg"><path d="M7 2h16l6 27H1L7 2z" stroke="currentColor" stroke-width="1.3" stroke-linejoin="round"/><path fill="currentColor" stroke="currentColor" d="M14.5 2.5h1v4h-1zM14.5 10.5h1v4h-1zM14.5 18.5h1v7h-1z"/></symbol><symbol fill="none" viewBox="0 0 30 30" id="steer--tiretype-mud" xmlns="http://www.w3.org/2000/svg"><path fill-rule="evenodd" clip-rule="evenodd" d="M14.85 1h-1.623l1.854 3.71a.65.65 0 010 .58L13.227 9l1.854 3.71a.65.65 0 010 .58L13.227 17l1.854 3.71a.65.65 0 010 .58L13.227 25l1.854 3.71a.647.647 0 01.07.29h1.622l-1.854-3.71a.65.65 0 010-.58L16.773 21l-1.854-3.71a.65.65 0 010-.58L16.773 13 14.92 9.29a.65.65 0 010-.58L16.773 5 14.92 1.29a.647.647 0 01-.07-.29zm3.3 27.994A2 2 0 0020 27V3a2 2 0 00-2-2h-1.773l1.854 3.71a.65.65 0 010 .58L16.227 9l1.854 3.71a.65.65 0 010 .58L16.227 17l1.854 3.71a.65.65 0 010 .58L16.227 25l1.854 3.71c.046.091.068.188.07.284zM10 3a2 2 0 011.85-1.994c0 .096.023.193.069.285L13.773 5 11.92 8.71a.65.65 0 000 .58L13.773 13l-1.854 3.71a.65.65 0 000 .58L13.773 21l-1.854 3.71a.65.65 0 000 .58L13.773 29H12a2 2 0 01-2-2V3z" fill="currentColor"/><circle cx="8" cy="27" r="1" transform="rotate(-180 8 27)" fill="currentColor"/><circle cx="22" cy="27" r="1" transform="rotate(-180 22 27)" fill="currentColor"/><circle cx="7" cy="24" r="1" transform="rotate(-180 7 24)" fill="currentColor"/><circle cx="23" cy="24" r="1" transform="rotate(-180 23 24)" fill="currentColor"/><circle cx="3" cy="22" r="1" transform="rotate(-180 3 22)" fill="currentColor"/><circle cx="27" cy="22" r="1" transform="rotate(-180 27 22)" fill="currentColor"/></symbol><symbol fill="none" viewBox="0 0 30 30" id="steer--tiretype-mud-terrain" xmlns="http://www.w3.org/2000/svg"><path fill-rule="evenodd" clip-rule="evenodd" d="M16.35 1h-1.623l1.854 3.71a.65.65 0 010 .58L14.727 9l1.854 3.71a.65.65 0 010 .58L14.727 17l1.854 3.71a.65.65 0 010 .58L14.727 25l1.854 3.71a.647.647 0 01.07.29h1.622l-1.854-3.71a.65.65 0 010-.58L18.273 21l-1.854-3.71a.65.65 0 010-.58L18.273 13 16.42 9.29a.65.65 0 010-.58L18.273 5 16.42 1.29a.647.647 0 01-.07-.29zm3.292 27.895A2 2 0 0021 27V3a2 2 0 00-2-2h-1.273l1.854 3.71a.65.65 0 010 .58L17.727 9l1.854 3.71a.65.65 0 010 .58L17.727 17l1.854 3.71a.65.65 0 010 .58L17.727 25l1.854 3.71c.03.06.05.122.06.185zM11.727 1h1.623c0 .098.022.197.069.29L15.273 5 13.42 8.71a.65.65 0 000 .58L15.273 13l-1.854 3.71a.65.65 0 000 .58L15.273 21l-1.854 3.71a.65.65 0 000 .58L15.273 29H13.65a.647.647 0 00-.069-.29L11.727 25l1.854-3.71a.65.65 0 000-.58L11.727 17l1.854-3.71a.65.65 0 000-.58L11.727 9l1.854-3.71a.65.65 0 000-.58L11.727 1zm-1.369.105A2 2 0 009 3v24a2 2 0 002 2h1.273l-1.854-3.71a.65.65 0 010-.58L12.273 21l-1.854-3.71a.65.65 0 010-.58L12.273 13 10.42 9.29a.65.65 0 010-.58L12.273 5 10.42 1.29a.65.65 0 01-.06-.185z" fill="currentColor"/><circle cx="7" cy="27" r="1" transform="rotate(-180 7 27)" fill="currentColor"/><circle cx="23" cy="27" r="1" transform="rotate(-180 23 27)" fill="currentColor"/><circle cx="6" cy="24" r="1" transform="rotate(-180 6 24)" fill="currentColor"/><circle cx="24" cy="24" r="1" transform="rotate(-180 24 24)" fill="currentColor"/><circle cx="2" cy="22" r="1" transform="rotate(-180 2 22)" fill="currentColor"/><circle cx="28" cy="22" r="1" transform="rotate(-180 28 22)" fill="currentColor"/></symbol><symbol fill="none" viewBox="0 0 31 30" id="steer--tiretype-performance" xmlns="http://www.w3.org/2000/svg"><path d="M29.825 12.521v.002c.33 1.65.33 3.3 0 5.117v.002c-1.32 8.09-9.081 13.377-17.177 12.056C6.368 28.54 1.415 23.75.425 17.476-.897 9.38 4.555 1.619 12.647.297c8.093-1.32 15.691 4.13 17.178 12.224zm-3.48 9.853l.006-.008c1.338-2.175 2.176-4.687 2.176-7.368 0-6.534-4.857-12.23-11.225-13.235C10.096.59 3.23 5.617 2.056 12.986a13.424 13.424 0 002.01 9.382l.004.006c1.023 1.364 2.739 1.884 4.285 1.025a14.41 14.41 0 0113.706 0c1.546.859 3.262.339 4.285-1.025zm-9.628-7.78l-.03.03V14.997c0 .477-.158.866-.427 1.135-.27.27-.66.428-1.135.428-.476 0-.865-.158-1.135-.428s-.428-.658-.428-1.134c0-.476.158-.865.428-1.135s.659-.428 1.135-.428H15.5l.03-.03L22 6.933c.147-.07.37-.106.598-.087.236.02.46.097.603.24a.704.704 0 010 1.023l-6.485 6.485z" fill="currentColor"/></symbol><symbol fill="none" viewBox="0 0 30 30" id="steer--tiretype-racing" xmlns="http://www.w3.org/2000/svg"><path d="M24.469 5.947c6 4.4 3.833 13.166 2 17-12.176 3.248-15.484 4.118-18.693 4.927-.795.2-1.583.398-2.5.626-2.999.747-3.144-.787-3.5-2.5l-.01-.046C.796 21.285.2 18.417 3.47 10.947c3.5-8 13.5-10.5 21-5z" stroke="currentColor" stroke-width="1.3" stroke-linejoin="round"/><circle cx="13.777" cy="12.5" r="1.85" stroke="currentColor" stroke-width="1.3"/><path d="M4.277 9.1l10 1.6" stroke="currentColor" stroke-width="1.3"/><path d="M1.277 21.5l11.5-3c.5-1 1-2 2-4.5" stroke="currentColor" stroke-width="1.3" stroke-linejoin="round"/></symbol><symbol fill="none" viewBox="0 0 30 30" id="steer--tiretype-sand-trail" xmlns="http://www.w3.org/2000/svg"><path d="M8.88 29c-.666-.5-2.2-1.8-2.999-3-2.4-3.6.667-7.833 2.5-9.5l7-7c2-2 3.5-5.5-1-8M20.38 1c3.202 2 4 4.167 4 5 .4 2.4-2 5-3.5 7-2 2.5-6.1 7.5-4.5 11.5 1.113 2.226 3.326 3.626 5.62 4.2" stroke="currentColor" stroke-width="1.3" stroke-linecap="round"/></symbol><symbol fill="none" viewBox="0 0 30 30" id="steer--tiretype-sport" xmlns="http://www.w3.org/2000/svg"><circle cx="15" cy="15" r="14.35" stroke="currentColor" stroke-width="1.3"/><circle cx="15" cy="15" r="10.35" stroke="currentColor" stroke-width="1.3"/><circle cx="15" cy="15" r="1.35" stroke="currentColor" stroke-width="1.3"/><path d="M5.5 11H25" stroke="#000" stroke-width="1.3"/><path d="M5 15.046c2.826-.35 8.379 1.152 7.98 9.954M25 15.046c-2.826-.35-8.379 1.152-7.98 9.954" stroke="currentColor" stroke-width="1.3"/></symbol><symbol fill="none" viewBox="0 0 30 30" id="steer--tiretype-summer" xmlns="http://www.w3.org/2000/svg"><path d="M15.224 15.287v6.885a6.885 6.885 0 010-13.77v6.885z" fill="currentColor"/><path stroke="currentColor" stroke-width="1.5" stroke-linecap="round" d="M14.802 6.34V3.25M10.238 7.521L8.713 4.834M6.808 10.842l-2.74-1.429M6.985 19.794l-2.74 1.427M10.141 23.297l-1.68 2.594M14.67 24.806l-.002 3.09M6.277 15.375h-3.09"/><path d="M14.765 15.287v6.885a6.885 6.885 0 000-13.77v6.885z" fill="currentColor"/><path stroke="currentColor" stroke-width="1.5" stroke-linecap="round" d="M19.752 7.521l1.525-2.687M23.182 10.842l2.74-1.429M23.004 19.794l2.74 1.427M19.849 23.297l1.68 2.594M23.712 15.375h3.09"/></symbol><symbol fill="none" viewBox="0 0 30 30" id="steer--tiretype-touring" xmlns="http://www.w3.org/2000/svg"><path d="M2 29c9.5-6.5 18.94-22 6-27.5M22.5 29c6-7.5 6.44-22-6.5-27.5M12.5 29c2-2 4-4.5 4.5-6m2.5-5c1-1.5 1-4 .5-5m-1-4.5c-.5-1-1.5-2.5-2-3" stroke="currentColor" stroke-width="1.3" stroke-linecap="round"/></symbol><symbol fill="none" viewBox="0 0 30 30" id="steer--tiretype-track-competition" xmlns="http://www.w3.org/2000/svg"><path d="M15 18c3.173 0 7-4.235 7-8.941V2h-7M15 18c-3.173 0-7-4.235-7-8.941V2h7" stroke="currentColor" stroke-width="1.3" stroke-linecap="round" stroke-linejoin="round"/><path d="M13 17.5V24M17 17.5V24M10 15c-5.187-1.211-8-4.88-8-7.886C2 6.669 2.245 4 4.856 4c1.616 0 2.481.795 2.907 1.647l.333.67M20 15c5.186-1.211 8-4.88 8-7.886C28 6.669 27.755 4 25.144 4c-1.616 0-2.481.795-2.907 1.647l-.333.67" stroke="currentColor" stroke-width="1.3"/><path d="M10.5 24h9l1.5 5H9l1.5-5z" stroke="currentColor" stroke-width="1.3" stroke-linejoin="round"/></symbol><symbol viewBox="0 0 30 30" id="steer--tiretype-uhp" xmlns="http://www.w3.org/2000/svg"><g data-name="Layer 2"><g data-name="Layer 1"><circle cx="15" cy="15" r="1.73" fill="currentColor"/><path fill="none" stroke="currentColor" stroke-linecap="round" stroke-miterlimit="10" stroke-width="1.55" d="M15 15l7.76-6.72"/><path d="M12.41 6.21A9.78 9.78 0 0119 8.79L22.4 6a11.69 11.69 0 00-18.34 4.88 9.8 9.8 0 018.35-4.67z" fill="currentColor"/><path d="M15 0a15 15 0 1015 15A15 15 0 0015 0zm1.51 1.88a13.2 13.2 0 019.74 20 5.12 5.12 0 01-3.66 2.33l-.55.07a7.81 7.81 0 01-2.62-.46 12.8 12.8 0 00-8.84 0 7.81 7.81 0 01-2.58.49l-.66-.1a5.12 5.12 0 01-3.6-2.37 13.22 13.22 0 0112.81-20z" fill="currentColor"/></g></g></symbol><symbol fill="none" viewBox="0 0 30 30" id="steer--tiretype-winter" xmlns="http://www.w3.org/2000/svg"><path d="M2.106 22.448c.167.266.433.399.732.399a.79.79 0 00.4-.1l2.826-1.63v3.26c0 .465.366.831.831.831a.823.823 0 00.832-.831v-4.224l6.485-3.758v7.516l-3.659 2.128a.82.82 0 00-.299 1.131.835.835 0 00.732.4.79.79 0 00.399-.1l2.827-1.63v3.259c0 .465.365.831.83.831a.823.823 0 00.832-.831v-3.26l2.827 1.63c.133.067.266.1.4.1.299 0 .565-.133.73-.399a.82.82 0 00-.299-1.13l-3.658-2.129v-7.516l6.485 3.758v4.224c0 .465.366.831.832.831a.823.823 0 00.831-.831v-3.26l2.827 1.63c.133.067.266.1.399.1.3 0 .565-.133.732-.4a.82.82 0 00-.3-1.13l-2.827-1.63 2.827-1.629a.82.82 0 00.3-1.13.82.82 0 00-1.131-.3l-3.658 2.128-6.452-3.79 6.485-3.759 3.658 2.129c.133.066.266.1.4.1.298 0 .564-.134.73-.4a.82.82 0 00-.299-1.13l-2.826-1.63 2.826-1.63a.82.82 0 00.3-1.13.82.82 0 00-1.13-.3l-2.828 1.63V5.587a.823.823 0 00-.831-.831.823.823 0 00-.832.831V9.81l-6.484 3.725V6.02l3.658-2.128a.82.82 0 00.3-1.13.82.82 0 00-1.132-.3l-2.826 1.63V.83A.823.823 0 0015.076 0a.823.823 0 00-.831.831v3.26l-2.827-1.63a.82.82 0 00-1.13.3.82.82 0 00.299 1.13l3.658 2.128v7.516L7.76 9.777V5.554a.823.823 0 00-.831-.832.823.823 0 00-.832.832v3.259L3.27 7.183a.82.82 0 00-1.13.3.82.82 0 00.299 1.13l2.827 1.63-2.827 1.63a.82.82 0 00-.3 1.13.835.835 0 00.732.4.79.79 0 00.4-.1l3.658-2.129 6.484 3.791-6.484 3.758-3.659-2.128a.82.82 0 00-1.13.299.82.82 0 00.299 1.13l2.827 1.63-2.827 1.63c-.4.266-.565.765-.333 1.164z" fill="currentColor"/></symbol><symbol fill="none" viewBox="0 0 24 13" id="steer--trending" xmlns="http://www.w3.org/2000/svg"><path fill-rule="evenodd" clip-rule="evenodd" d="M19.079 3.455L15.663 6.87a2 2 0 01-2.829 0l-2.796-2.797a2 2 0 00-2.829 0L.75 10.534a1.125 1.125 0 001.59 1.59l4.87-4.87a2 2 0 012.829 0l2.796 2.797a2 2 0 002.829 0l5.006-5.006 1.009 1.01c.61.609 1.653.213 1.705-.648L23.7.2l-5.082.477a1 1 0 00-.614 1.702l1.076 1.076z" fill="currentColor"/></symbol><symbol fill="currentColor" viewBox="0 0 21 18" id="steer--twitter" xmlns="http://www.w3.org/2000/svg"><g clip-path="url(#drclip0)"><path d="M6.604 17.5c7.925 0 12.259-6.54 12.259-12.212 0-.186 0-.371-.013-.555A8.748 8.748 0 0021 2.51a8.613 8.613 0 01-2.475.675A4.31 4.31 0 0020.42.812c-.846.5-1.771.853-2.736 1.042a4.324 4.324 0 00-6.096-.187A4.288 4.288 0 0010.34 5.77a12.249 12.249 0 01-8.88-4.485 4.286 4.286 0 001.335 5.73A4.283 4.283 0 01.84 6.477v.054a4.298 4.298 0 003.457 4.208c-.635.172-1.3.197-1.946.073a4.312 4.312 0 004.025 2.981A8.67 8.67 0 010 15.573a12.231 12.231 0 006.604 1.924"/></g><defs><clipPath id="drclip0"><path d="M0 .5h21v17H0V.5z"/></clipPath></defs></symbol><symbol fill="none" viewBox="0 0 24 24" id="steer--unknown" xmlns="http://www.w3.org/2000/svg"><path d="M13.065 14.62v-.09c0-.615.285-1.08.81-1.455l.615-.435c.885-.63 1.485-1.47 1.485-2.655C15.975 8.47 14.76 7 12.435 7 10.215 7 9 8.56 9 10.18c0 .225.015.465.075.675l1.89.075c-.045-.135-.06-.3-.06-.48 0-.84.465-1.695 1.53-1.695 1.005 0 1.5.66 1.5 1.35 0 .45-.195.855-.645 1.185l-.72.54c-.855.645-1.185 1.38-1.185 2.175 0 .225.03.42.06.615h1.62zM11.1 16.795c0 .66.525 1.185 1.185 1.185s1.2-.525 1.2-1.185-.54-1.2-1.2-1.2c-.66 0-1.185.54-1.185 1.2z" fill="currentColor"/><rect x="1" y="1" width="22" height="22" rx="8" stroke="currentColor" stroke-width="2"/></symbol><symbol fill="none" viewBox="0 0 42 18" id="steer--vehicle-cart" xmlns="http://www.w3.org/2000/svg"><path stroke="currentColor" stroke-linecap="round" stroke-linejoin="round" stroke-width="2" d="M2.632 13.066S1 13.066 1 9.704c0-3.363 2.524-4.127 1.632-5.96-.89-1.835 12.172-3.21 16.476-2.595 4.305.614 8.46 3.938 10.242 4.03 1.78.092 9.647.97 10.24 3.436.593 2.465 2.058 4.493-2.266 5.358"/><path stroke="currentColor" stroke-linecap="round" stroke-linejoin="round" stroke-width="2" d="M6.782 5.049s4.799 1.283 8.1 1.57c3.303.286 10.062 1.025 10.062 1.025m-10.107 6.329h10.322"/><path fill="currentColor" stroke="currentColor" stroke-width=".15" d="M31.814 10.006a3.535 3.535 0 100 7.07 3.535 3.535 0 000-7.07zm0 5.544a2 2 0 110-4 2 2 0 010 4zM8.351 10.006a3.535 3.535 0 100 7.07 3.535 3.535 0 000-7.07zm0 5.544a2 2 0 11-.003-4 2 2 0 01.004 4H8.35z"/></symbol><symbol stroke="currentColor" fill="none" viewBox="0 0 60 25" id="steer--vehicle-commercial" xmlns="http://www.w3.org/2000/svg"><path d="M58.414 16.3h-1.192a1.213 1.213 0 01-1.086-.659l-.684-2.228a.728.728 0 01.3-.962.712.712 0 01.355-.086h1.309M20.59 20.757h21.217" stroke-width="1.2" stroke-linecap="round" stroke-linejoin="round"/><path d="M55.691 20.302c1.823 0 3.007-1.675 2.781-3.497-.304-2.486-.602-6.922-3.311-7.723-4.208-1.243-7.958-2.15-7.958-2.15S43.143 1 37.256 1H2.672c-.443 0-.869.177-1.182.493A1.69 1.69 0 001 2.684v14.173c0 .497.132.984.385 1.41a2.73 2.73 0 001.048 1.01c.982.54 2.598 1.246 2.598 1.246M40.695 11.02H39.13M32.842 11.11h1.367" stroke-width="1.2" stroke-linecap="round" stroke-linejoin="round"/><path d="M34.164 8.294h-9.218c-.525 0-1.029-.21-1.4-.584a2.002 2.002 0 01-.58-1.41V4.296M1 9.622h1.895c.217 0 .425.087.578.242.153.154.24.364.24.582v4.012c0 .318-.126.624-.349.85a1.19 1.19 0 01-.842.353H1M46.06 8.294h-5.65a2.054 2.054 0 01-1.458-.608 2.084 2.084 0 01-.604-1.468V4.296" stroke-width="1.2" stroke-linecap="round" stroke-linejoin="round"/><path d="M50.793 15.76c-.81 0-1.6.241-2.273.694a4.114 4.114 0 00-1.506 1.85 4.149 4.149 0 00.886 4.49c.572.575 1.301.968 2.095 1.127a4.062 4.062 0 002.363-.235 4.096 4.096 0 001.836-1.517 4.142 4.142 0 00-.51-5.203 4.075 4.075 0 00-2.891-1.206zM13.716 15.76c-.81 0-1.6.243-2.272.696a4.114 4.114 0 00-1.505 1.85 4.148 4.148 0 00.889 4.488 4.062 4.062 0 004.457.892 4.096 4.096 0 001.835-1.517 4.141 4.141 0 00-.51-5.205 4.085 4.085 0 00-2.894-1.204z" stroke-width="1.2"/></symbol><symbol stroke="currentColor" fill="none" viewBox="0 0 48 36" id="steer--vehicle-farm" xmlns="http://www.w3.org/2000/svg"><path d="M6.65 15.967V4.159h19.826l2.18 12.524c4.877.07 9.735.613 14.506 1.624 2.111.465 2.85 1.707 2.85 2.405v2.61c-1.857-.58-2.977-1.146-5.732-.923 0 0-5.974.389-5.974 6.783M19.852 29.806h7.458M22.813 18.307h2.124M14.018 16.448V4.168" stroke-width="1.2" stroke-linecap="round" stroke-linejoin="round"/><path d="M31.484 16.448V3.41A2.703 2.703 0 0133.43 1M19.98 27.43A10.072 10.072 0 001 22.728M4.675 4.159h23.393" stroke-width="1.2" stroke-linecap="round" stroke-linejoin="round"/><path d="M39.29 25.883a4.977 4.977 0 115.526 8.279 4.977 4.977 0 01-5.525-8.28zM9.916 19.87a7.563 7.563 0 100 15.126 7.563 7.563 0 000-15.125z" stroke-width="1.2"/></symbol><symbol stroke="currentColor" viewBox="0 0 58.58 30.12" id="steer--vehicle-heavy-truck" xmlns="http://www.w3.org/2000/svg"><path fill="none" stroke-linecap="round" stroke-linejoin="round" stroke-width="1.2" d="M46.81 17.9h-2M26.18 26.09H40.6M.6 23.72A4.48 4.48 0 004.72 26h2.9M41.52 7.3h9c1.45 0 2.46.38 3 1.35.59 1.16 4.48 7.66 4.48 10.06v6.79h-3M53.56 15.52H41.52M39 20.62V2.44A1.84 1.84 0 0037.2.6H2.44A1.84 1.84 0 00.6 2.44v18.18h6.22"/><path fill="none" stroke-linecap="round" stroke-linejoin="round" stroke-width="1.2" d="M57.97 18.51h-3.04v2.92h3.04"/><path d="M48.9 21.09a4.22 4.22 0 104.21 4.21 4.21 4.21 0 00-4.21-4.21zM13.79 21.09A4.22 4.22 0 1018 25.3a4.21 4.21 0 00-4.22-4.21z" fill="none" stroke-miterlimit="10" stroke-width="1.2"/></symbol><symbol stroke="currentColor" fill="none" viewBox="0 0 45 36" id="steer--vehicle-industrial" xmlns="http://www.w3.org/2000/svg"><path d="M13.286 32.763h7.207M1.25 27.154V7.843a3.422 3.422 0 013.418-3.418h15.738l9 18.664h-8.212a1.23 1.23 0 00-1.23 1.23v1.084h-4.44v-2.39a2.355 2.355 0 00-2.354-2.358H4.018v5.302" stroke-width="1.2" stroke-linecap="round" stroke-linejoin="round"/><path d="M20.133 18.348l1.67 1.052v3.69M20.942 16.486l-1.936 3.468M6.333 20.486v-6.87a1.477 1.477 0 00-1.477-1.474M29.406 23.09V4.424H27.73V1h4.833a1.265 1.265 0 011.265 1.265v28.707h7.585s2.621.028 2.621-2.624" stroke-width="1.2" stroke-linecap="round" stroke-linejoin="round"/><path d="M26.56 25.77a4.616 4.616 0 100 9.23 4.616 4.616 0 000-9.23zM3.186 27.876a3.846 3.846 0 114.274 6.396 3.846 3.846 0 01-4.274-6.396z" stroke-width="1.2"/></symbol><symbol stroke="currentColor" fill="none" viewBox="0 0 63 25" id="steer--vehicle-light-truck" xmlns="http://www.w3.org/2000/svg"><path d="M34.09 13.342h-2.067M8.968 20.552l-4.971-.837A3.6 3.6 0 011 16.157V9.202a.034.034 0 01.034-.035h25.147V2.164A1.16 1.16 0 0127.348 1h10.617a4.037 4.037 0 013.052 1.395l6.142 7.093 8.611.902a5.29 5.29 0 014.613 3.755l.899 2.952a2.835 2.835 0 01-.558 2.714 2.037 2.037 0 01-1.543.69M42.742 20.552H22.157M47.255 9.498H29.487" stroke-width="1.2" stroke-linecap="round" stroke-linejoin="round"/><path d="M60.158 14.434h-2.07c-.084.022-.25.133-.25.402-.001 1.244.452 2.088.98 2.354h2.464M1 11.965h2.756v3.444H1" stroke-width="1.2" stroke-linecap="round" stroke-linejoin="round"/><path d="M49.666 16.116a4.306 4.306 0 114.79 7.156 4.306 4.306 0 01-4.79-7.156zM15.289 15.388a4.307 4.307 0 10.014 8.614 4.307 4.307 0 00-.014-8.614z" stroke-width="1.2"/></symbol><symbol stroke="currentColor" fill="none" viewBox="0 0 62 20" id="steer--vehicle-passenger" xmlns="http://www.w3.org/2000/svg"><path d="M21.684 16.093h19.911M9.038 15.667c-2.272 0-5.63-.96-6.88-1.068A1.263 1.263 0 011 13.306c0-.535.027-1.188.027-1.788 0-2.45 1.431-2.681 1.431-4.838 0-1.462 1.181-1.471 1.181-1.471h6.326C11.403 5.209 14.101 1 20.13 1h9.235s5.277 0 8.246 1.65c2.968 1.648 5.607 2.888 5.607 2.888S53.225 6.462 57.4 7.01a2.605 2.605 0 012.082 1.626c2.021 5.116 2.43 7.458-1.32 7.458M30.011 8.177h-1.979M17.15 8.177h1.978M43.258 5.548H17.16" stroke-width="1.2" stroke-linecap="round" stroke-linejoin="round"/><path d="M2.636 7.596h1.59c.068 0 .136.02.196.06.06.04.11.097.146.166a.541.541 0 01.018.464L3.88 9.972a.46.46 0 01-.148.192.358.358 0 01-.211.071H1.33M59.269 8.916h-1.933a.82.82 0 00-.498.147.974.974 0 00-.343.431c-.075.178-.1.377-.075.572.026.195.102.377.218.523l.337.462c.166.226.375.409.612.534.236.125.494.19.755.189l2.026.11" stroke-width="1.2" stroke-linecap="round" stroke-linejoin="round"/><path d="M12.393 11.844a4.123 4.123 0 114.59 6.85 4.123 4.123 0 01-4.59-6.85zM49.761 11.842a4.123 4.123 0 114.586 6.853 4.123 4.123 0 01-4.586-6.853z" stroke-width="1.2"/></symbol><symbol stroke="currentColor" fill="none" viewBox="0 0 62 30" id="steer--vehicle-rv" xmlns="http://www.w3.org/2000/svg"><path d="M46.749 25.467h-24.68M58.352 26.165a15.65 15.65 0 001.505-.524c1.67-.686 1.161-3.28 1.12-4.981a2.85 2.85 0 00-1.506-2.408c-.704-2.823-3.912-3.57-3.912-3.57S47.194 4.458 46.147 3.257" stroke-width="1.2" stroke-linecap="round" stroke-linejoin="round"/><path d="M58.837 16.856s-1.635-.903-2.45-.548c-.816.355.996 2.769 3.66 2.357M43.137 17.253v1.505M42.868 10.243s.208 4.566 3.031 5.117c2.823.55 3.913.457 3.913.457M30.598 22.068V8.271a1.063 1.063 0 011.063-1.062h4.042a1.062 1.062 0 011.062 1.062v13.797M32.904 14.544v1.505" stroke-width="1.2" stroke-linecap="round" stroke-linejoin="round"/><path d="M7.32 25.467H1V4.242a3.154 3.154 0 013.145-3.155h37.02s2.256-.031 3.928 1.134c.394.274 1.047 1.036 1.047 1.036" stroke-width="1.2" stroke-linecap="round" stroke-linejoin="round"/><path d="M52.264 22.11a3.762 3.762 0 114.18 6.256 3.762 3.762 0 01-4.18-6.256zM12.655 22.11a3.762 3.762 0 114.18 6.256 3.762 3.762 0 01-4.18-6.256z" stroke-width="1.2"/></symbol><symbol fill="none" viewBox="0 0 12 12" id="steer--verified-small" xmlns="http://www.w3.org/2000/svg"><path d="M5.447.024a6.002 6.002 0 00-3.69 10.219 6.005 6.005 0 008.218.253 6.002 6.002 0 002.001-3.943 6.02 6.02 0 00-6.53-6.53v.001zm3.776 4.628L5.667 8.171a.571.571 0 01-.797 0L2.773 6.169a.572.572 0 11.793-.826l1.692 1.623L8.424 3.84a.572.572 0 01.803.813h-.004z" fill="currentColor"/></symbol><symbol fill="none" viewBox="0 0 18 18" id="steer--warranty" xmlns="http://www.w3.org/2000/svg"><path d="M9 0l-.225.056L.619 2.3 0 2.467v.617c0 5.383 1.519 9.14 3.375 11.495C5.231 16.935 7.369 18 9 18c1.575 0 3.713-1.065 5.625-3.42C16.481 12.223 18 8.522 18 3.14v-.673l-.619-.168L9.225.056 9 0zm0 1.738v14.524c-.731 0-2.644-.73-4.275-2.748-1.575-1.906-2.869-5.103-2.981-9.757L9 1.738z" fill="currentColor"/></symbol><symbol fill="none" viewBox="0 0 11 11" id="steer--warranty-small" xmlns="http://www.w3.org/2000/svg"><path d="M5 .99l-.125.03L.347 2.278l-.344.094v.342C.01 5.704.86 7.79 1.894 9.096c1.034 1.306 2.223 1.895 3.129 1.893.875-.002 2.061-.596 3.12-1.907 1.029-1.31 1.868-3.369 1.862-6.36l-.001-.373-.344-.093L5.125 1.02 5 .99zm.002.965l.018 8.068c-.407.001-1.47-.401-2.379-1.52-.877-1.058-1.6-2.832-1.668-5.418l4.03-1.13z" fill="currentColor"/></symbol><symbol fill="none" viewBox="0 0 30 30" id="steer--wheel" xmlns="http://www.w3.org/2000/svg"><path fill-rule="evenodd" clip-rule="evenodd" d="M15 28.5c7.456 0 13.5-6.044 13.5-13.5S22.456 1.5 15 1.5 1.5 7.544 1.5 15 7.544 28.5 15 28.5zm0 1.5c8.284 0 15-6.716 15-15 0-8.284-6.716-15-15-15C6.716 0 0 6.716 0 15c0 8.284 6.716 15 15 15zM7.537 15.75a7.468 7.468 0 001.799 4.166l2.486-2.486a3.982 3.982 0 01-.752-1.68H7.537zm6.713 6.713a7.463 7.463 0 01-3.822-1.518l2.514-2.514c.397.238.838.41 1.308.499v3.533zM7.537 14.25h3.533c.101-.532.307-1.026.596-1.46l-2.501-2.502a7.464 7.464 0 00-1.628 3.962zm5.178-2.533c.452-.316.973-.54 1.535-.647V7.537a7.466 7.466 0 00-4.03 1.684l2.495 2.496zm3.035-4.18v3.533c.532.101 1.026.307 1.46.596l2.502-2.501a7.464 7.464 0 00-3.962-1.628zm3.18 6.713a3.979 3.979 0 00-.647-1.535l2.496-2.496a7.466 7.466 0 011.684 4.031H18.93zm-.596 2.96c.289-.434.495-.928.596-1.46h3.533a7.465 7.465 0 01-1.628 3.962l-2.501-2.501zm-1.049 1.073c-.452.316-.973.54-1.535.647v3.533a7.466 7.466 0 004.03-1.684l-2.495-2.496zM15 24a9 9 0 100-18 9 9 0 000 18zm2.5-9a2.5 2.5 0 11-5 0 2.5 2.5 0 015 0z" fill="currentColor" fill-opacity=".3"/><path d="M15 23.25a8.25 8.25 0 100-16.5 8.25 8.25 0 000 16.5z" stroke="currentColor" stroke-width="1.5"/></symbol><symbol fill="none" viewBox="0 0 11 10" id="steer--wrench" xmlns="http://www.w3.org/2000/svg"><path d="M4.805 1.348a3.386 3.386 0 00-.917 3.02L1.102 7.166c-.144.144-.143.411 0 .575l2.161 2.13a.397.397 0 00.575 0l2.786-2.799a3.366 3.366 0 003.016-.95 3.405 3.405 0 00.855-3.39c-.041-.144-.144-.246-.288-.267a.391.391 0 00-.39.104L8.322 4.07l-1.253-.182-.187-1.252 1.495-1.502a.391.391 0 00.102-.39.418.418 0 00-.268-.287C6.98.132 5.686.443 4.805 1.348z" fill="currentColor"/></symbol><symbol fill="currentColor" viewBox="0 0 22 16" id="steer--youtube" xmlns="http://www.w3.org/2000/svg"><path d="M21.542 2.499c-.254-.984-.998-1.758-1.945-2.021C17.88 0 11 0 11 0S4.12 0 2.405.478C1.458.74.714 1.515.46 2.498 0 4.28 0 8 0 8s0 3.72.46 5.501c.254.984.998 1.758 1.945 2.021C4.12 16 11 16 11 16s6.88 0 8.595-.478c.947-.263 1.692-1.037 1.945-2.02C22 11.72 22 8 22 8s0-3.72-.458-5.501zM8.8 11.428V4.572L14.515 8 8.8 11.428z"/></symbol></svg>