<svg xmlns="http://www.w3.org/2000/svg" width="142.45" height="55.76" viewBox="0 0 142.45 55.76"><g  class="Layer_2" data-name="Layer 2"><g  class="offroad"><g  class="solid-body-background" opacity="0"><path  class="Vector" d="M135.15,40l6.3-1.35-3.25-8h-4.66a17,17,0,0,0-2.14-6.13V20.67a2.25,2.25,0,0,0-2.25-2.25h-2.28a11.69,11.69,0,0,0-1.61-.7c-2.08-.72-34.37-2.26-34.37-2.26S88.28,10.21,85.65,6a12,12,0,0,0-7.52-5H39L37.34,17.73H10.5v2.8H5.55v6.82H9.14v6.72H5.55V40h7.17A120.5,120.5,0,0,0,19.8,29.78c2.49-4.28,7.45-3.44,8.82-3.42,4.45.14,16.63,1.92,17.88,16.9" fill="#ecebe1"/></g><g  class="body-car"><line x1="46.5" y1="43.26" x2="78.66" y2="43.26" fill="none" stroke="#000" stroke-linecap="round" stroke-linejoin="round" stroke-width="2"/><path d="M19.53,14.76l9.23-9.24a10,10,0,0,1,7.4-3" fill="none" stroke="#000" stroke-linecap="round" stroke-linejoin="round" stroke-width="2"/><line x1="42.26" y1="21.88" x2="48.24" y2="21.88" fill="none" stroke="#000" stroke-linecap="round" stroke-linejoin="round" stroke-width="2"/><line x1="64" y1="21.88" x2="70.44" y2="21.88" fill="none" stroke="#000" stroke-linecap="round" stroke-linejoin="round" stroke-width="2"/><path d="M65.29,8.63v5.06s-.1,3.39,1.93,3.39h17" fill="none" stroke="#000" stroke-linecap="round" stroke-linejoin="round" stroke-width="2"/><line x1="42.53" y1="16.84" x2="56.9" y2="16.84" fill="none" stroke="#000" stroke-linecap="round" stroke-linejoin="round" stroke-width="2"/><path d="M13,15.26v-1.5a1.94,1.94,0,0,0-1.93-1.93H2.93A1.93,1.93,0,0,0,1,13.76V30.82a1.92,1.92,0,0,0,1.93,1.93h0" fill="none" stroke="#000" stroke-linecap="round" stroke-linejoin="round" stroke-width="2"/><polyline points="10.5 20.53 14.27 20.53 14.27 27.35 9.13 27.35" fill="none" stroke="#000" stroke-linecap="round" stroke-linejoin="round" stroke-width="2"/><path d="M117.16,26.36c-.1,0-6.33-.86-8.81,3.42s-5.94,9.08-5.94,9.08" fill="none" stroke="#000" stroke-linecap="round" stroke-linejoin="round" stroke-width="2"/><path d="M28.62,26.36c-.1,0-6.33-.86-8.82,3.42A120.5,120.5,0,0,1,12.72,40H5.55V34.07H9.14V27.35H5.55V20.53h5v-2.8H37.34L39,1H78.13a12,12,0,0,1,7.52,5c2.63,4.2,5.24,9.45,5.24,9.45s32.29,1.54,34.37,2.26a11.69,11.69,0,0,1,1.61.7h2.28a2.25,2.25,0,0,1,2.25,2.25v3.82a17,17,0,0,1,2.14,6.13h4.66l3.25,8L135.15,40" fill="none" stroke="#000" stroke-linecap="round" stroke-linejoin="round" stroke-width="2"/><path d="M126.87,18.42v2.26a2.47,2.47,0,0,0,2.46,2.47h2.07" fill="none" stroke="#000" stroke-linecap="round" stroke-linejoin="round" stroke-width="2"/></g><g  class="front-wheel"><line x1="111.56" y1="43.26" x2="126.56" y2="43.26" fill="none" stroke="#000" stroke-linecap="round" stroke-linejoin="round" stroke-width="2"/><line x1="113.76" y1="48.57" x2="124.37" y2="37.96" fill="none" stroke="#000" stroke-linecap="round" stroke-linejoin="round" stroke-width="2"/><line x1="119.06" y1="50.76" x2="119.06" y2="35.76" fill="none" stroke="#000" stroke-linecap="round" stroke-linejoin="round" stroke-width="2"/><line x1="124.37" y1="48.57" x2="113.76" y2="37.96" fill="none" stroke="#000" stroke-linecap="round" stroke-linejoin="round" stroke-width="2"/><circle cx="119.06" cy="43.26" r="3.75"/><path d="M119.06,30.76a12.5,12.5,0,1,0,12.5,12.5A12.5,12.5,0,0,0,119.06,30.76Zm0,20a7.5,7.5,0,1,1,7.5-7.5A7.5,7.5,0,0,1,119.06,50.8Z"/></g><g  class="back-wheel"><line x1="21.26" y1="43.26" x2="36.26" y2="43.26" fill="none" stroke="#000" stroke-linecap="round" stroke-linejoin="round" stroke-width="2"/><line x1="23.46" y1="48.57" x2="34.06" y2="37.96" fill="none" stroke="#000" stroke-linecap="round" stroke-linejoin="round" stroke-width="2"/><line x1="28.76" y1="50.76" x2="28.76" y2="35.76" fill="none" stroke="#000" stroke-linecap="round" stroke-linejoin="round" stroke-width="2"/><line x1="34.06" y1="48.57" x2="23.46" y2="37.96" fill="none" stroke="#000" stroke-linecap="round" stroke-linejoin="round" stroke-width="2"/><circle cx="28.76" cy="43.26" r="3.75"/><path d="M28.76,30.76a12.5,12.5,0,1,0,12.5,12.5A12.5,12.5,0,0,0,28.76,30.76Zm0,20a7.5,7.5,0,1,1,7.5-7.5A7.5,7.5,0,0,1,28.76,50.8Z"/></g></g></g></svg>