<svg xmlns="http://www.w3.org/2000/svg" width="150.57" height="57.45" viewBox="0 0 150.57 57.45"><g  class="Layer_2" data-name="Layer 2"><g  class="chevrolet-tahoe"><g  class="solid-body-background"><path d="M18.52,44.16,3.71,41.8,1,37.6V30.34l1.57-2.28.71-9.68L11.54,1H79.92S86.47,1.28,91,4.42l17.23,11.82,31.2,3s4.84-.42,6.55,3.35,1.57,10,1.57,10l2,2.48v4.42l-1.28,4.7-3.7,1.71-.86,3.66-5.27.76" fill="#ecebe1" opacity="0"/></g><g  class="body-car"><path d="M18.52,44.16,3.71,41.8,1,37.6V30.34l1.57-2.28.71-9.68L11.54,1H79.92S86.47,1.28,91,4.42l17.23,11.82,31.2,3s4.84-.42,6.55,3.35,1.57,10,1.57,10l2,2.48v4.42l-1.28,4.7-3.7,1.71-.86,3.66-5.27.76" fill="none" stroke="#000" stroke-linecap="round" stroke-linejoin="round" stroke-width="2"/><line x1="48.72" y1="46.87" x2="103.13" y2="46.87" fill="none" stroke="#000" stroke-linecap="round" stroke-linejoin="round" stroke-width="2"/><polyline points="18.39 15.81 28.55 15.81 33.03 9.4" fill="none" stroke="#000" stroke-linecap="round" stroke-linejoin="round" stroke-width="2"/><polyline points="42.88 8.12 39.47 16.24 94.59 17.24" fill="none" stroke="#000" stroke-linecap="round" stroke-linejoin="round" stroke-width="2"/><line x1="42.12" y1="20.94" x2="49.72" y2="20.94" fill="none" stroke="#000" stroke-linecap="round" stroke-linejoin="round" stroke-width="2"/><line x1="73.51" y1="22.08" x2="80.63" y2="22.08" fill="none" stroke="#000" stroke-linecap="round" stroke-linejoin="round" stroke-width="2"/><polyline points="4.5 15.81 8.58 15.81 8.58 28.91 1.87 28.91" fill="none" stroke="#000" stroke-linecap="round" stroke-linejoin="round" stroke-width="2"/><polyline points="146.01 22.58 134.03 22.58 135.89 26.1 140.7 27.13 142.11 31.18 139.01 31.18 140.02 34.65 149.26 34.65" fill="none" stroke="#000" stroke-linecap="round" stroke-linejoin="round" stroke-width="2"/></g><g  class="front-wheel"><line x1="115.89" y1="44.95" x2="130.89" y2="44.95" fill="none" stroke="#000" stroke-linecap="round" stroke-linejoin="round" stroke-width="2"/><line x1="118.08" y1="50.25" x2="128.69" y2="39.64" fill="none" stroke="#000" stroke-linecap="round" stroke-linejoin="round" stroke-width="2"/><line x1="123.39" y1="52.45" x2="123.39" y2="37.45" fill="none" stroke="#000" stroke-linecap="round" stroke-linejoin="round" stroke-width="2"/><line x1="128.69" y1="50.25" x2="118.08" y2="39.64" fill="none" stroke="#000" stroke-linecap="round" stroke-linejoin="round" stroke-width="2"/><circle cx="123.39" cy="44.95" r="3.75"/><path d="M123.38,32.45A12.5,12.5,0,1,0,135.89,45,12.49,12.49,0,0,0,123.38,32.45Zm0,20a7.5,7.5,0,1,1,7.5-7.5A7.5,7.5,0,0,1,123.39,52.48Z"/></g><g  class="back-wheel"><line x1="25.57" y1="44.95" x2="40.57" y2="44.95" fill="none" stroke="#000" stroke-linecap="round" stroke-linejoin="round" stroke-width="2"/><line x1="27.77" y1="50.25" x2="38.38" y2="39.64" fill="none" stroke="#000" stroke-linecap="round" stroke-linejoin="round" stroke-width="2"/><line x1="33.07" y1="52.45" x2="33.07" y2="37.45" fill="none" stroke="#000" stroke-linecap="round" stroke-linejoin="round" stroke-width="2"/><line x1="38.38" y1="50.25" x2="27.77" y2="39.64" fill="none" stroke="#000" stroke-linecap="round" stroke-linejoin="round" stroke-width="2"/><circle cx="33.07" cy="44.95" r="3.75"/><path d="M33.07,32.45A12.5,12.5,0,1,0,45.57,45,12.5,12.5,0,0,0,33.07,32.45Zm0,20a7.5,7.5,0,1,1,7.5-7.5A7.5,7.5,0,0,1,33.07,52.48Z"/></g></g></g></svg>