<svg xmlns="http://www.w3.org/2000/svg" width="184" height="61.11" viewBox="0 0 184 61.11"><g  class="Layer_2" data-name="Layer 2"><g  class="Layer_1-2" data-name="Layer 1"><g  class="Layer_2-2" data-name="Layer 2"><g  class="chevrolet-malibu"><g  class="solid-body-background"><path d="M24.77,47.14,7,45s-4.85-1.09-5.92-3.8c0,0-.54-7,1.07-9.75l2.69-3.79.54-3.25s-2.15-1.63,0-3.8c0,0,0-3.25-.54-4.33-.34-.68.54-1.08,1.08-1.08s4.84,0,5.92-.55c0,0,32.29-8.67,40.37-11.38a3.72,3.72,0,0,0,.67-1.88.45.45,0,0,1,0-.11.42.42,0,0,1,0-.1L53,1.09l.11,0c1.07-.07,4-.19,5.74.55a5.34,5.34,0,0,0,2.4.47c6.58-.38,32.56-1.65,41,1.17,6.46,2.17,18.86,8.17,26.44,12a36.15,36.15,0,0,0,13.22,3.67c11.53.94,34,3.6,38.38,10.39a13.5,13.5,0,0,1,.54,2.17l1.61.54a2.57,2.57,0,0,1,0,2.17s-1.08,2.17-.54,3.79c0,0,1.08,5.42,1.08,6s-.54,4.34-1.62,4.88l-2.31.47a.42.42,0,0,0-.27.16.49.49,0,0,0-.11.29v.7s-8.07,2.17-12.91,1.63" fill="#fff"/></g><g  class="body-car"><path d="M24.77,47.14,7,45s-4.85-1.09-5.92-3.8c0,0-.54-7,1.07-9.75l2.69-3.79.54-3.25s-2.15-1.63,0-3.8c0,0,0-3.25-.54-4.33-.34-.68.54-1.08,1.08-1.08s4.84,0,5.92-.55c0,0,32.29-8.67,40.37-11.38a3.72,3.72,0,0,0,.67-1.88.45.45,0,0,1,0-.11.42.42,0,0,1,0-.1L53,1.09l.11,0c1.07-.07,4-.19,5.74.55a5.34,5.34,0,0,0,2.4.47c6.58-.38,32.56-1.65,41,1.17,6.46,2.17,18.86,8.17,26.44,12a36.15,36.15,0,0,0,13.22,3.67c11.53.94,34,3.6,38.38,10.39a13.5,13.5,0,0,1,.54,2.17l1.61.54a2.57,2.57,0,0,1,0,2.17s-1.08,2.17-.54,3.79c0,0,1.08,5.42,1.08,6s-.54,4.34-1.62,4.88l-2.31.47a.42.42,0,0,0-.27.16.49.49,0,0,0-.11.29v.7s-8.07,2.17-12.91,1.63" fill="none" stroke="#000" stroke-linecap="round" stroke-linejoin="round" stroke-width="2"/><path d="M5.39,20.59s15.07-2.16,10.77,1.09L10.24,26a15.87,15.87,0,0,1-4.85-1.62" fill="none" stroke="#000" stroke-linecap="round" stroke-linejoin="round" stroke-width="2"/><path d="M180.85,31.43s-1.08,2.17-2.16,2.17-10.76,0-14.53-4.88c0,0,12.38,0,16.15.54" fill="none" stroke="#000" stroke-linecap="round" stroke-linejoin="round" stroke-width="2"/><path d="M180.31,41.73c-.54-2.17-5.92-3.26-5.92-3.26-2.69-.54-1.62,2.17-1.08,4.34.92,3.68,2.15,3.79,2.15,3.79h1.62" fill="none" stroke="#000" stroke-linecap="round" stroke-linejoin="round" stroke-width="2"/><path d="M52.22,22.22l5.92.54" fill="none" stroke="#000" stroke-linecap="round" stroke-linejoin="round" stroke-width="2"/><path d="M92,24.39l5.92.54" fill="none" stroke="#000" stroke-linecap="round" stroke-linejoin="round" stroke-width="2"/><path d="M51.14,7.59s-7,1.08-10.23,3.25c0,0-8.07,4.33-.53,4.33l87.72,6.51" fill="none" stroke="#000" stroke-linecap="round" stroke-linejoin="round" stroke-width="2"/><path d="M64.06,49.85l64.58,1.63" fill="none" stroke="#000" stroke-linecap="round" stroke-linejoin="round" stroke-width="2"/></g><g  class="front-wheel"><path d="M139.12,48.55h15" fill="none" stroke="#181818" stroke-linecap="round" stroke-linejoin="round" stroke-width="2"/><path d="M141.3,53.88l10.64-10.65" fill="none" stroke="#181818" stroke-linecap="round" stroke-linejoin="round" stroke-width="2"/><path d="M146.63,56.08V41" fill="none" stroke="#181818" stroke-linecap="round" stroke-linejoin="round" stroke-width="2"/><path d="M151.94,53.88,141.3,43.23" fill="none" stroke="#181818" stroke-linecap="round" stroke-linejoin="round" stroke-width="2"/><path d="M146.63,52.32a3.77,3.77,0,1,0-3.75-3.77A3.76,3.76,0,0,0,146.63,52.32Z" fill="#181818"/><path d="M146.63,36a12.56,12.56,0,1,0,12.52,12.55A12.54,12.54,0,0,0,146.63,36Zm0,20.11a7.53,7.53,0,1,1,7.51-7.53A7.5,7.5,0,0,1,146.63,56.11Z" fill="#181818"/></g><g  class="back-wheel"><path d="M34,48.55H49" fill="none" stroke="#181818" stroke-linecap="round" stroke-linejoin="round" stroke-width="2"/><path d="M36.21,53.88,46.85,43.23" fill="none" stroke="#181818" stroke-linecap="round" stroke-linejoin="round" stroke-width="2"/><path d="M41.52,56.08V41" fill="none" stroke="#181818" stroke-linecap="round" stroke-linejoin="round" stroke-width="2"/><path d="M46.85,53.88,36.21,43.23" fill="none" stroke="#181818" stroke-linecap="round" stroke-linejoin="round" stroke-width="2"/><path d="M41.52,52.32a3.77,3.77,0,1,0-3.76-3.77A3.76,3.76,0,0,0,41.52,52.32Z" fill="#181818"/><path d="M41.52,36A12.56,12.56,0,1,0,54,48.55,12.54,12.54,0,0,0,41.52,36Zm0,20.11A7.53,7.53,0,1,1,49,48.58,7.5,7.5,0,0,1,41.52,56.11Z" fill="#181818"/></g></g></g></g></g></svg>
