<svg xmlns="http://www.w3.org/2000/svg" width="186" height="60.57" viewBox="0 0 186 60.57"><g  class="Layer_2" data-name="Layer 2"><g  class="Layer_1-2" data-name="Layer 1"><g  class="Layer_2-2" data-name="Layer 2"><g  class="nissan-sentra"><g  class="solid-body-background"><path d="M25.19,50.15s-3.82,0-4.45-.63-4.46-.64-4.46-.64H8a3.68,3.68,0,0,1-2.54-.64L1,41.88l.64-3.82a9.44,9.44,0,0,1,0-4.46l2.54-6.37c0-2,.64-9.55.64-9.55l-.64-2.54a36,36,0,0,0,8.92,0C17.55,14.5,44.29,4.31,50.66,3.68l.64-1.91a20.28,20.28,0,0,1,5.09.63S73.58.49,84.4,1.13c0,0,15.29,0,22.29,2.55,0,0,19.1,8.24,27.53,13.14a13.27,13.27,0,0,0,5.44,1.77c8.84.9,34.42,4.21,42.79,13.1L185,34.87a29.92,29.92,0,0,0,0,14s-5.73,3.18-17.83,3.18l-1.91-.63" fill="#fff"/></g><g  class="body-car"><path d="M25.19,50.15s-3.82,0-4.45-.63-4.46-.64-4.46-.64H8a3.68,3.68,0,0,1-2.54-.64L1,41.88l.64-3.82a9.44,9.44,0,0,1,0-4.46l2.54-6.37c0-2,.64-9.55.64-9.55l-.64-2.54a36,36,0,0,0,8.92,0C17.55,14.5,44.29,4.31,50.66,3.68l.64-1.91a20.28,20.28,0,0,1,5.09.63S73.58.49,84.4,1.13c0,0,15.29,0,22.29,2.55,0,0,19.1,8.24,27.53,13.14a13.27,13.27,0,0,0,5.44,1.77c8.84.9,34.42,4.21,42.79,13.1L185,34.87a29.92,29.92,0,0,0,0,14s-5.73,3.18-17.83,3.18l-1.91-.63" fill="none" stroke="#000" stroke-linecap="round" stroke-linejoin="round" stroke-width="2"/><path d="M45.57,10l-.44,2.21a1.28,1.28,0,0,0,.1.84,1.35,1.35,0,0,0,.57.61l6.13,3.35a28,28,0,0,0,7.64,1.27c3.82,0,54.12,2.55,54.12,2.55l15.92.63" fill="none" stroke="#000" stroke-linecap="round" stroke-linejoin="round" stroke-width="2"/><path d="M4.67,23.06S7.37,26.6,8,26.6s5.1,0,6.37-.64,6.37-3.82,6.37-3.82,1.27-1.91-1.28-1.91H8.64l-3.82-.57" fill="none" stroke="#000" stroke-linecap="round" stroke-linejoin="round" stroke-width="2"/><path d="M180.18,38.06s-2.55-.64-3.18,0c-.46.45-7,8.27-5.1,9.55,1.52,1,5.43.82,7,.69a1.74,1.74,0,0,0,.62-.17,1.76,1.76,0,0,0,.5-.4,3,3,0,0,0,.79-1.4" fill="none" stroke="#000" stroke-linecap="round" stroke-linejoin="round" stroke-width="2"/><path d="M184.36,37.42s-5.73-4.46-10.82-3.18-13.37-7-13.37-7l22.28,4.46" fill="none" stroke="#000" stroke-linecap="round" stroke-linejoin="round" stroke-width="2"/><path d="M87.91,24.69h8.27" fill="none" stroke="#000" stroke-linecap="round" stroke-linejoin="round" stroke-width="2"/><path d="M46.52,22.64l8.28.28" fill="none" stroke="#000" stroke-linecap="round" stroke-linejoin="round" stroke-width="2"/><path d="M62.76,50.15,129,51.43" fill="none" stroke="#000" stroke-linecap="round" stroke-linejoin="round" stroke-width="2"/></g><g  class="front-wheel"><path d="M141.23,49.29h13.62" fill="none" stroke="#181818" stroke-linecap="round" stroke-linejoin="round" stroke-width="2"/><path d="M143.2,54.07l9.65-9.57" fill="none" stroke="#181818" stroke-linecap="round" stroke-linejoin="round" stroke-width="2"/><path d="M148,56.06V42.51" fill="none" stroke="#181818" stroke-linecap="round" stroke-linejoin="round" stroke-width="2"/><path d="M152.85,54.07,143.2,44.5" fill="none" stroke="#181818" stroke-linecap="round" stroke-linejoin="round" stroke-width="2"/><path d="M148,52.67a3.39,3.39,0,1,0-3.41-3.39A3.4,3.4,0,0,0,148,52.67Z" fill="#181818"/><path d="M148,38a11.29,11.29,0,1,0,11.35,11.28A11.33,11.33,0,0,0,148,38Zm0,18.08a6.77,6.77,0,1,1,6.81-6.77A6.78,6.78,0,0,1,148,56.08Z" fill="#181818"/></g><g  class="back-wheel"><path d="M33.54,49.29H47.16" fill="none" stroke="#181818" stroke-linecap="round" stroke-linejoin="round" stroke-width="2"/><path d="M35.54,54.07l9.65-9.57" fill="none" stroke="#181818" stroke-linecap="round" stroke-linejoin="round" stroke-width="2"/><path d="M40.35,56.06V42.51" fill="none" stroke="#181818" stroke-linecap="round" stroke-linejoin="round" stroke-width="2"/><path d="M45.19,54.07,35.54,44.5" fill="none" stroke="#181818" stroke-linecap="round" stroke-linejoin="round" stroke-width="2"/><path d="M40.35,52.67A3.39,3.39,0,1,0,37,49.28,3.4,3.4,0,0,0,40.35,52.67Z" fill="#181818"/><path d="M40.35,38A11.29,11.29,0,1,0,51.7,49.28,11.33,11.33,0,0,0,40.35,38Zm0,18.08a6.77,6.77,0,1,1,6.81-6.77A6.78,6.78,0,0,1,40.35,56.08Z" fill="#181818"/></g></g></g></g></g></svg>
