<svg xmlns="http://www.w3.org/2000/svg" width="735.61" height="226.9" viewBox="0 0 735.61 226.9">
  <g class="solid-body-background">
    <path d="M101.5,181.8c-27.6,0-68.3-11.7-83.5-13A15.26,15.26,0,0,1,4,153.2c.2-6.5.3-14.4.3-21.7,0-29.7,17.4-32.5,17.4-58.7C21.7,55.1,35.8,55,35.8,55h76.9c17.4,0,50.1-51,123.1-51h112s64,0,100,20,68,35,68,35S637.2,70.1,688,76.8a31.58,31.58,0,0,1,25.2,19.7c24.5,62,29.5,90.4-16.1,90.4" transform="translate(0.01 0)" fill="#ecebe1" fill-opacity="0"/>
  </g>
  <g class="body-car">
    <polyline points="254.81 187 254.81 187 496.31 187" fill="none" stroke="#000" stroke-linecap="round" stroke-linejoin="round" stroke-width="8"/>
    <path d="M101.5,181.8c-27.6,0-68.3-11.7-83.5-13A15.26,15.26,0,0,1,4,153.2c.2-6.5.3-14.4.3-21.7,0-29.7,17.4-32.5,17.4-58.7C21.7,55.1,35.8,55,35.8,55h76.9c17.4,0,50.1-51,123.1-51h112s64,0,100,20,68,35,68,35S637.2,70.1,688,76.8a31.58,31.58,0,0,1,25.2,19.7c24.5,62,29.5,90.4-16.1,90.4" transform="translate(0.01 0)" fill="none" stroke="#000" stroke-linecap="round" stroke-linejoin="round" stroke-width="8"/>
    <line x1="355.81" y1="87" x2="331.81" y2="87" fill="none" stroke="#000" stroke-linecap="round" stroke-linejoin="round" stroke-width="8"/>
    <line x1="199.81" y1="87" x2="223.81" y2="87" fill="none" stroke="#000" stroke-linecap="round" stroke-linejoin="round" stroke-width="8"/>
    <path d="M396.5,59.1H209.2a13.4,13.4,0,0,1-13.4-13.4,20.89,20.89,0,0,1,.2-2.5c1.6-8.1,6.3-18,18.3-25.7" transform="translate(0.01 0)" fill="none" stroke="#000" stroke-linecap="round" stroke-linejoin="round" stroke-width="8"/>
    <path d="M20.7,83H48.5a5.82,5.82,0,0,1,5.2,8.4L43.5,111.8a5.78,5.78,0,0,1-5.2,3.2H6.6" transform="translate(0.01 0)" fill="none" stroke="#000" stroke-linecap="round" stroke-linejoin="round" stroke-width="8"/>
    <path d="M703.5,85h-22a12.07,12.07,0,0,0-9.3,19.8l4.5,5.5A23.64,23.64,0,0,0,695,119l27.2,1.3" transform="translate(0.01 0)" fill="none" stroke="#000" stroke-linecap="round" stroke-linejoin="round" stroke-width="8"/>
  </g>
  <g class="back-wheel">
    <line x1="139.91" y1="176.9" x2="199.91" y2="176.9" fill="none" stroke="#000" stroke-linecap="round" stroke-linejoin="round" stroke-width="8"/>
    <line x1="148.71" y1="198.2" x2="191.21" y2="155.7" fill="none" stroke="#000" stroke-linecap="round" stroke-linejoin="round" stroke-width="8"/>
    <line x1="169.91" y1="206.9" x2="169.91" y2="146.9" fill="none" stroke="#000" stroke-linecap="round" stroke-linejoin="round" stroke-width="8"/>
    <line x1="191.21" y1="198.2" x2="148.71" y2="155.7" fill="none" stroke="#000" stroke-linecap="round" stroke-linejoin="round" stroke-width="8"/>
    <circle cx="169.91" cy="176.9" r="15"/>
    <path d="M169.9,126.9a50,50,0,1,0,50,50,50,50,0,0,0-50-50Zm0,80.1a30,30,0,1,1,30-30h0a30,30,0,0,1-30,30C170,207.1,169.9,207.1,169.9,207Z" transform="translate(0.01 0)"/>
  </g>
  <g class="front-wheel">
    <line x1="593.21" y1="176.9" x2="653.21" y2="176.9" fill="none" stroke="#000" stroke-linecap="round" stroke-linejoin="round" stroke-width="8"/>
    <line x1="601.91" y1="198.2" x2="644.41" y2="155.7" fill="none" stroke="#000" stroke-linecap="round" stroke-linejoin="round" stroke-width="8"/>
    <line x1="623.21" y1="206.9" x2="623.21" y2="146.9" fill="none" stroke="#000" stroke-linecap="round" stroke-linejoin="round" stroke-width="8"/>
    <line x1="644.41" y1="198.2" x2="601.91" y2="155.7" fill="none" stroke="#000" stroke-linecap="round" stroke-linejoin="round" stroke-width="8"/>
    <circle cx="623.21" cy="176.9" r="15"/>
    <path d="M623.1,126.9a50,50,0,1,0,50,50A50,50,0,0,0,623.1,126.9Zm0,80.1a30,30,0,1,1,30-30h0A30,30,0,0,1,623.1,207Z" transform="translate(0.01 0)"/>
  </g>
</svg>
