<svg xmlns="http://www.w3.org/2000/svg" width="181.55" height="57.16" viewBox="0 0 181.55 57.16"><g  class="Layer_2" data-name="Layer 2"><g  class="nissan-altima"><g  class="solid-body-background" opacity="0"><path d="M22.34,46.36,6.06,44.7a3.18,3.18,0,0,1-2.23-1.26,12.84,12.84,0,0,1-2.82-8,18.4,18.4,0,0,1,3.26-9.12S1.76,17.5,5.53,14.74s14.8-2,14.8-2S44.93,3.7,57,2.45s28.86-2.51,41.66,0S129,15.5,129,15.5s29.11,3.26,33.87,4.77,13.3,6.76,15.06,9.15,1.26,13.93,1.26,13.93l1.37,1.84s-12.73,4-18.13,4" fill="#ecebe1"/></g><g  class="body-car"><path d="M22.34,46.36,6.06,44.7a3.18,3.18,0,0,1-2.23-1.26,12.84,12.84,0,0,1-2.82-8,18.4,18.4,0,0,1,3.26-9.12S1.76,17.5,5.53,14.74s14.8-2,14.8-2S44.93,3.7,57,2.45s28.86-2.51,41.66,0S129,15.5,129,15.5s29.11,3.26,33.87,4.77,13.3,6.76,15.06,9.15,1.26,13.93,1.26,13.93l1.37,1.84s-12.73,4-18.13,4" fill="none" stroke="#000" stroke-linecap="round" stroke-linejoin="round" stroke-width="2"/><path d="M44,12.18l8,4.64s59.48,3,61.22,2.9" fill="none" stroke="#000" stroke-linecap="round" stroke-linejoin="round" stroke-width="2"/><line x1="45.89" y1="21.85" x2="53.39" y2="21.85" fill="none" stroke="#000" stroke-linecap="round" stroke-linejoin="round" stroke-width="2"/><path d="M3.65,19.58S17.48,15.92,22.22,18s-9.67,6-9.67,6-.29,2.68,2,3.16c0,0-6.06,2.18-10.93.17" fill="none" stroke="#000" stroke-linecap="round" stroke-linejoin="round" stroke-width="2"/><line x1="85.95" y1="25.07" x2="93.77" y2="25.07" fill="none" stroke="#000" stroke-linecap="round" stroke-linejoin="round" stroke-width="2"/><path d="M177.92,29.42s-13.46-5.3-22.68-6.14c0,0,7.68,4.18,7.68,6.14s-1.11,3.22-1.81,3.22,18,2.77,18,2.77" fill="none" stroke="#000" stroke-linecap="round" stroke-linejoin="round" stroke-width="2"/><path d="M169.7,43.26s-.49-4,1.61-4.47a7.08,7.08,0,0,1,3.35,0v3.63Z" fill="none" stroke="#000" stroke-linecap="round" stroke-linejoin="round" stroke-width="2"/><path d="M56.13,46.93S84.79,48.3,92,48.3" fill="none" stroke="#000" stroke-linecap="round" stroke-linejoin="round" stroke-width="2"/></g><g  class="front-wheel"><line x1="139.45" y1="44.66" x2="154.45" y2="44.66" fill="none" stroke="#000" stroke-linecap="round" stroke-linejoin="round" stroke-width="2"/><line x1="141.65" y1="49.96" x2="152.25" y2="39.36" fill="none" stroke="#000" stroke-linecap="round" stroke-linejoin="round" stroke-width="2"/><line x1="146.95" y1="52.16" x2="146.95" y2="37.16" fill="none" stroke="#000" stroke-linecap="round" stroke-linejoin="round" stroke-width="2"/><line x1="152.25" y1="49.96" x2="141.65" y2="39.36" fill="none" stroke="#000" stroke-linecap="round" stroke-linejoin="round" stroke-width="2"/><circle cx="146.95" cy="44.66" r="3.75"/><path d="M147,32.16a12.5,12.5,0,1,0,12.5,12.5A12.5,12.5,0,0,0,147,32.16Zm0,20a7.5,7.5,0,1,1,7.5-7.5A7.5,7.5,0,0,1,147,52.19Z"/></g><g  class="back-wheel"><line x1="31.78" y1="44.66" x2="46.78" y2="44.66" fill="none" stroke="#000" stroke-linecap="round" stroke-linejoin="round" stroke-width="2"/><line x1="33.98" y1="49.96" x2="44.58" y2="39.36" fill="none" stroke="#000" stroke-linecap="round" stroke-linejoin="round" stroke-width="2"/><line x1="39.28" y1="52.16" x2="39.28" y2="37.16" fill="none" stroke="#000" stroke-linecap="round" stroke-linejoin="round" stroke-width="2"/><line x1="44.58" y1="49.96" x2="33.98" y2="39.36" fill="none" stroke="#000" stroke-linecap="round" stroke-linejoin="round" stroke-width="2"/><circle cx="39.28" cy="44.66" r="3.75"/><path d="M39.28,32.16a12.5,12.5,0,1,0,12.5,12.5A12.5,12.5,0,0,0,39.28,32.16Zm0,20a7.5,7.5,0,1,1,7.5-7.5A7.5,7.5,0,0,1,39.28,52.19Z"/></g></g></g></svg>