<svg xmlns="http://www.w3.org/2000/svg" width="181" height="59.57" viewBox="0 0 181 59.57"><g  class="Layer_2" data-name="Layer 2"><g  class="Layer_1-2" data-name="Layer 1"><g  class="Layer_2-2" data-name="Layer 2"><g  class="volkswagen_jetta"><g  class="solid-body-background"><path d="M23.59,50.67,6.2,49.08a2.31,2.31,0,0,1-1.44-.69l-3-3a1.11,1.11,0,0,1-.32-.71L1,36.39a1.71,1.71,0,0,1,1.15-1.71l1.06-.35A1.75,1.75,0,0,0,4,33.78a1.71,1.71,0,0,0,.36-.89L4.8,29a16.11,16.11,0,0,1-1.11-4.44,45.72,45.72,0,0,1,1-6.08A.7.7,0,0,1,4.93,18a.78.78,0,0,1,.46-.18c2,0,8.58-.34,13.24-2.21,0,0,26.53-11.12,37.58-12.81S97.66,0,104.29,3.37s26.53,12.81,26.53,12.81,40.34,3.9,43.1,8.9l4.24,7.69,1.29,2.34s.55,3.33,0,3.89-.55,5,0,5.56l.55.56-2.91,2.93a1.69,1.69,0,0,1-1,.48l-3.85.48h-7.2" fill="#fff"/></g><g  class="body-car"><path d="M23.59,50.46,6.2,48.87a2.26,2.26,0,0,1-1.44-.69l-3-3a1.16,1.16,0,0,1-.32-.72L1,36.18a1.71,1.71,0,0,1,1.15-1.71l1.06-.35a1.69,1.69,0,0,0,1.15-1.44l.44-3.91a16.22,16.22,0,0,1-1.11-4.45,46,46,0,0,1,1-6.08.7.7,0,0,1,.26-.43.71.71,0,0,1,.46-.17c2-.05,8.58-.35,13.24-2.22,0,0,26.53-11.12,37.58-12.81s41.45-2.78,48.08.56S130.82,16,130.82,16s40.34,3.89,43.1,8.9l4.24,7.68,1.29,2.34s.55,3.34,0,3.89-.55,5,0,5.56l.55.56-2.91,2.93a1.63,1.63,0,0,1-1,.48l-3.85.48h-7.2" fill="none" stroke="#000" stroke-linecap="round" stroke-linejoin="round" stroke-width="2"/><path d="M173.91,24.88H163.63a1.09,1.09,0,0,0-.43.08l-2.55,1,5.52,3.88A7.57,7.57,0,0,0,170,31s4.42,0,5.53.55l3.21,2.21" fill="none" stroke="#000" stroke-linecap="round" stroke-linejoin="round" stroke-width="2"/><path d="M178.77,37.67h-4.15a.43.43,0,0,0-.22.06.49.49,0,0,0-.14.18l-2.54,6.66a.62.62,0,0,0,0,.33.56.56,0,0,0,.16.28l.37.38a1.64,1.64,0,0,0,.52.35,1.5,1.5,0,0,0,.63.11c1.28,0,4-.12,4.84-.54" fill="none" stroke="#000" stroke-linecap="round" stroke-linejoin="round" stroke-width="2"/><path d="M48.46,7.63S35.2,14.3,35.73,15.42s11.61,1.67,11.61,1.67l79,1.67" fill="none" stroke="#000" stroke-linecap="round" stroke-linejoin="round" stroke-width="2"/><path d="M47.9,22.09h7.19" fill="none" stroke="#000" stroke-linecap="round" stroke-linejoin="round" stroke-width="2"/><path d="M88.25,22.65h7.18" fill="none" stroke="#000" stroke-linecap="round" stroke-linejoin="round" stroke-width="2"/><path d="M4.19,21.66l11.11.43v1.68L12,28.21H4.8" fill="none" stroke="#000" stroke-linecap="round" stroke-linejoin="round" stroke-width="2"/><path d="M59.51,49.9h67.42" fill="none" stroke="#000" stroke-linecap="round" stroke-linejoin="round" stroke-width="2"/></g><g  class="front-wheel"><path d="M142.23,48.29h13.62" fill="none" stroke="#181818" stroke-linecap="round" stroke-linejoin="round" stroke-width="2"/><path d="M144.2,53.07l9.65-9.57" fill="none" stroke="#181818" stroke-linecap="round" stroke-linejoin="round" stroke-width="2"/><path d="M149,55.06V41.51" fill="none" stroke="#181818" stroke-linecap="round" stroke-linejoin="round" stroke-width="2"/><path d="M153.85,53.07,144.2,43.5" fill="none" stroke="#181818" stroke-linecap="round" stroke-linejoin="round" stroke-width="2"/><path d="M149,51.67a3.39,3.39,0,1,0-3.41-3.39A3.4,3.4,0,0,0,149,51.67Z" fill="#181818"/><path d="M149,37a11.29,11.29,0,1,0,11.35,11.28A11.33,11.33,0,0,0,149,37Zm0,18.08a6.77,6.77,0,1,1,6.81-6.77A6.78,6.78,0,0,1,149,55.08Z" fill="#181818"/></g><g  class="back-wheel"><path d="M31.54,48.29H45.16" fill="none" stroke="#181818" stroke-linecap="round" stroke-linejoin="round" stroke-width="2"/><path d="M33.54,53.07l9.65-9.57" fill="none" stroke="#181818" stroke-linecap="round" stroke-linejoin="round" stroke-width="2"/><path d="M38.35,55.06V41.51" fill="none" stroke="#181818" stroke-linecap="round" stroke-linejoin="round" stroke-width="2"/><path d="M43.19,53.07,33.54,43.5" fill="none" stroke="#181818" stroke-linecap="round" stroke-linejoin="round" stroke-width="2"/><path d="M38.35,51.67A3.39,3.39,0,1,0,35,48.28,3.4,3.4,0,0,0,38.35,51.67Z" fill="#181818"/><path d="M38.35,37A11.29,11.29,0,1,0,49.7,48.28,11.33,11.33,0,0,0,38.35,37Zm0,18.08a6.77,6.77,0,1,1,6.81-6.77A6.78,6.78,0,0,1,38.35,55.08Z" fill="#181818"/></g></g></g></g></g></svg>
