<svg xmlns="http://www.w3.org/2000/svg" width="189" height="63.85" viewBox="0 0 189 63.85"><g  class="Layer_2" data-name="Layer 2"><g  class="coupe"><g  class="solid-body-background"><path  class="Vector" d="M176.59,51.07h5.81a5.59,5.59,0,0,0,5.58-6l-.23-3.44a12.27,12.27,0,0,0-7.35-10.46C162.38,23.5,126,19.06,126,19.06S110.63,9.2,97.49,3.51C89.48.05,65,.16,49.73,3.9,39.39,6.43,19.49,17.5,14.35,19.4,9.74,21.1-.26,26.48,1.13,32.8L3,41.31a12.42,12.42,0,0,0,12.13,9.76" fill="#ecebe1" opacity="0"/></g><g  class="body-car"><line x1="77.55" y1="28.75" x2="70.7" y2="28.75" fill="none" stroke="#000" stroke-linecap="round" stroke-linejoin="round" stroke-width="2"/><line x1="60.64" y1="51.07" x2="133.65" y2="51.07" fill="none" stroke="#000" stroke-linecap="round" stroke-linejoin="round" stroke-width="2"/><path d="M176.59,51.07h5.81a5.59,5.59,0,0,0,5.58-6l-.23-3.44a12.27,12.27,0,0,0-7.35-10.46C162.38,23.5,126,19.06,126,19.06S110.63,9.2,97.49,3.51C89.48.05,65,.16,49.73,3.9,39.39,6.43,19.49,17.5,14.35,19.4,9.74,21.1-.26,26.48,1.13,32.8L3,41.31a12.42,12.42,0,0,0,12.13,9.76" fill="none" stroke="#000" stroke-linecap="round" stroke-linejoin="round" stroke-width="2"/><path d="M183.91,33.81h-12.1A3.36,3.36,0,0,1,169,28.49l.66-.93" fill="none" stroke="#000" stroke-linecap="round" stroke-linejoin="round" stroke-width="2"/><path d="M1.77,32.92l7.2,0c1.13,0,4.64.74,4.92,1.83,0,0-3.59,5.56-10.27,5.56" fill="none" stroke="#000" stroke-linecap="round" stroke-linejoin="round" stroke-width="2"/><path d="M115.48,20.48H56s-10.32-1.76-15.5-5.25" fill="none" stroke="#000" stroke-linecap="round" stroke-linejoin="round" stroke-width="2"/></g><g  class="front-wheel"><line x1="150.65" y1="51.35" x2="165.65" y2="51.35" fill="none" stroke="#000" stroke-linecap="round" stroke-linejoin="round" stroke-width="2"/><line x1="152.85" y1="56.65" x2="163.45" y2="46.05" fill="none" stroke="#000" stroke-linecap="round" stroke-linejoin="round" stroke-width="2"/><line x1="158.15" y1="58.85" x2="158.15" y2="43.85" fill="none" stroke="#000" stroke-linecap="round" stroke-linejoin="round" stroke-width="2"/><line x1="163.45" y1="56.65" x2="152.85" y2="46.05" fill="none" stroke="#000" stroke-linecap="round" stroke-linejoin="round" stroke-width="2"/><circle cx="158.15" cy="51.35" r="3.75"/><path d="M158.15,38.85a12.5,12.5,0,1,0,12.5,12.5A12.5,12.5,0,0,0,158.15,38.85Zm0,20a7.5,7.5,0,1,1,7.5-7.5A7.5,7.5,0,0,1,158.15,58.88Z"/></g><g  class="back-wheel"><line x1="30.08" y1="51.35" x2="45.08" y2="51.35" fill="none" stroke="#000" stroke-linecap="round" stroke-linejoin="round" stroke-width="2"/><line x1="32.28" y1="56.65" x2="42.88" y2="46.05" fill="none" stroke="#000" stroke-linecap="round" stroke-linejoin="round" stroke-width="2"/><line x1="37.58" y1="58.85" x2="37.58" y2="43.85" fill="none" stroke="#000" stroke-linecap="round" stroke-linejoin="round" stroke-width="2"/><line x1="42.88" y1="56.65" x2="32.28" y2="46.05" fill="none" stroke="#000" stroke-linecap="round" stroke-linejoin="round" stroke-width="2"/><circle cx="37.58" cy="51.35" r="3.75"/><path d="M37.58,38.85a12.5,12.5,0,1,0,12.5,12.5A12.5,12.5,0,0,0,37.58,38.85Zm0,20a7.5,7.5,0,1,1,7.5-7.5A7.5,7.5,0,0,1,37.58,58.88Z"/></g></g></g></svg>