<svg xmlns="http://www.w3.org/2000/svg" width="176" height="58.23" viewBox="0 0 176 58.23"><g  class="Layer_2" data-name="Layer 2"><g  class="Layer_1-2" data-name="Layer 1"><g  class="Layer_2-2" data-name="Layer 2"><g  class="nissan-titan"><g  class="solid-body-background"><path d="M23.76,44.62S7,43.5,2,40.71c0,0-2.23-3.9,0-6.14H5.34s-2.23-11.72-.56-19l54.45,1.12a.87.87,0,0,0,.89-.79L61.71,1.09S98.54.53,104.12,2.21a70.68,70.68,0,0,1,31.81,15.06s19.54,1.12,25.68,2.24a24.53,24.53,0,0,1,10.6,5l1.67,11.72A11.19,11.19,0,0,1,175,39.6s0,6.14-.56,6.69a5.87,5.87,0,0,1-4.46,2.8,1.62,1.62,0,0,0-.65.11,1.84,1.84,0,0,0-.55.37,1.65,1.65,0,0,0-.36.54,1.82,1.82,0,0,0-.12.65l-5.58.56S165,29,146.54,30.67c0,0-14-.3-16.93,19l-71.7-1.91Z" fill="#fff"/></g><g  class="body-car"><path d="M23.76,44.62S7,43.5,2,40.71c0,0-2.23-3.9,0-6.14H5.34s-2.23-11.72-.56-19l54.45,1.12a.87.87,0,0,0,.89-.79L61.71,1.09S98.54.53,104.12,2.21a70.68,70.68,0,0,1,31.81,15.06s19.54,1.12,25.68,2.24a24.53,24.53,0,0,1,10.6,5l1.67,11.72A11.19,11.19,0,0,1,175,39.6s0,6.14-.56,6.69a5.87,5.87,0,0,1-4.46,2.8,1.62,1.62,0,0,0-.65.11,1.84,1.84,0,0,0-.55.37,1.65,1.65,0,0,0-.36.54,1.82,1.82,0,0,0-.12.65l-5.58.56S165,29,146.54,30.67" fill="none" stroke="#000" stroke-linecap="round" stroke-linejoin="round" stroke-width="2"/><path d="M63.94,48.53l55.81,1.11" fill="none" stroke="#000" stroke-linecap="round" stroke-linejoin="round" stroke-width="2"/><path d="M67.85,6.67s-.35,6.18.58,9.11a2.21,2.21,0,0,0,.77,1.08,2.26,2.26,0,0,0,1.25.45L111.94,19l11.16,2.79a13.66,13.66,0,0,0,5,0" fill="none" stroke="#000" stroke-linecap="round" stroke-linejoin="round" stroke-width="2"/><path d="M70.64,22.86h6.14" fill="none" stroke="#000" stroke-linecap="round" stroke-linejoin="round" stroke-width="2"/><path d="M96.87,23.41H103" fill="none" stroke="#000" stroke-linecap="round" stroke-linejoin="round" stroke-width="2"/><path d="M4.69,19.61l8.46.45s2.24.56.56,2.79L13,24a1.24,1.24,0,0,1-.44.41,1.19,1.19,0,0,1-.58.15h-.56a.61.61,0,0,0-.37.12.57.57,0,0,0-.24.31L8.69,30.67H5.54" fill="none" stroke="#000" stroke-linecap="round" stroke-linejoin="round" stroke-width="2"/><path d="M173.88,36.81s-2.79-1.12-3.9-1.68-2.24,0-4.47-2.79-5.58-6.14-5.58-6.14-1.67-2.23,1.68-1.67c0,0,10.22.71,10.69,1.47" fill="none" stroke="#000" stroke-linecap="round" stroke-linejoin="round" stroke-width="2"/></g><g  class="front-wheel"><path d="M140.23,47h13.62" fill="none" stroke="#181818" stroke-linecap="round" stroke-linejoin="round" stroke-width="2"/><path d="M142.2,51.73l9.65-9.57" fill="none" stroke="#181818" stroke-linecap="round" stroke-linejoin="round" stroke-width="2"/><path d="M147,53.72V40.18" fill="none" stroke="#181818" stroke-linecap="round" stroke-linejoin="round" stroke-width="2"/><path d="M151.85,51.73l-9.65-9.57" fill="none" stroke="#181818" stroke-linecap="round" stroke-linejoin="round" stroke-width="2"/><path d="M147,50.33A3.39,3.39,0,1,0,143.63,47,3.39,3.39,0,0,0,147,50.33Z" fill="#181818"/><path d="M147,35.66A11.29,11.29,0,1,0,158.39,47,11.33,11.33,0,0,0,147,35.66Zm0,18.08A6.77,6.77,0,1,1,153.85,47,6.78,6.78,0,0,1,147,53.74Z" fill="#181818"/></g><g  class="back-wheel"><path d="M34.54,47H48.16" fill="none" stroke="#181818" stroke-linecap="round" stroke-linejoin="round" stroke-width="2"/><path d="M36.54,51.73l9.65-9.57" fill="none" stroke="#181818" stroke-linecap="round" stroke-linejoin="round" stroke-width="2"/><path d="M41.35,53.72V40.18" fill="none" stroke="#181818" stroke-linecap="round" stroke-linejoin="round" stroke-width="2"/><path d="M46.19,51.73l-9.65-9.57" fill="none" stroke="#181818" stroke-linecap="round" stroke-linejoin="round" stroke-width="2"/><path d="M41.35,50.33A3.39,3.39,0,1,0,38,47,3.4,3.4,0,0,0,41.35,50.33Z" fill="#181818"/><path d="M41.35,35.66A11.29,11.29,0,1,0,52.7,47,11.33,11.33,0,0,0,41.35,35.66Zm0,18.08A6.77,6.77,0,1,1,48.16,47,6.78,6.78,0,0,1,41.35,53.74Z" fill="#181818"/></g></g></g></g></g></svg>
