<svg xmlns="http://www.w3.org/2000/svg" width="177.67" height="61.24" viewBox="0 0 177.67 61.24"><g  class="Layer_2" data-name="Layer 2"><g  class="ford-f-150"><g  class="solid-body-background" opacity="0"><path d="M170.67,48.48c7,.34,6-11.41,6-11.41l-2.15-2V24c-.83-1.32-4.79-2.81-9.92-3.8s-15-1.66-21.82-1.82S121.74,8,116.79,4.73,100.91,1,100.91,1H66.2a3.38,3.38,0,0,0-3.36,3L61.52,19.33H4.64V38.11H1l1.38,7.36H22.6s2.18-15,17.1-15c0,0,17.94-.72,18.46,18Z" fill="#ecebe1"/></g><g  class="body-car"><path d="M170.67,48.48c7,.34,6-11.41,6-11.41l-2.15-2V24c-.83-1.32-4.79-2.81-9.92-3.8s-15-1.66-21.82-1.82S121.74,8,116.79,4.73,100.91,1,100.91,1H66.2a3.38,3.38,0,0,0-3.36,3L61.52,19.33H4.64V38.11H1l1.38,7.36H22.6s2.18-15,17.1-15" fill="none" stroke="#000" stroke-linecap="round" stroke-linejoin="round" stroke-width="2"/><line x1="66.32" y1="26.61" x2="72.59" y2="26.61" fill="none" stroke="#000" stroke-linecap="round" stroke-linejoin="round" stroke-width="2"/><line x1="96.08" y1="26.75" x2="102.35" y2="26.75" fill="none" stroke="#000" stroke-linecap="round" stroke-linejoin="round" stroke-width="2"/><path d="M69.51,11.92v7.57h26c4.46,0,8.88,0,13,2.58,4.64,2.91,7.2,2.91,13.1,2.91" fill="none" stroke="#000" stroke-linecap="round" stroke-linejoin="round" stroke-width="2"/><path d="M4.65,24h9.48v1.77a1.57,1.57,0,0,1-.78,1.35L10.26,29v6.26H4.65" fill="none" stroke="#000" stroke-linecap="round" stroke-linejoin="round" stroke-width="2"/><polyline points="174.47 26.37 159.13 26.37 159.13 29.83 165.79 31.57 165.79 35.23 174.47 35.23" fill="none" stroke="#000" stroke-linecap="round" stroke-linejoin="round" stroke-width="2"/><path d="M149.32,32.72s-15-.64-15,15.76H58.16" fill="none" stroke="#000" stroke-linecap="round" stroke-linejoin="round" stroke-width="2"/></g><g  class="front-wheel"><line x1="144.73" y1="48.74" x2="159.73" y2="48.74" fill="none" stroke="#000" stroke-linecap="round" stroke-linejoin="round" stroke-width="2"/><line x1="146.92" y1="54.04" x2="157.53" y2="43.44" fill="none" stroke="#000" stroke-linecap="round" stroke-linejoin="round" stroke-width="2"/><line x1="152.23" y1="56.24" x2="152.23" y2="41.24" fill="none" stroke="#000" stroke-linecap="round" stroke-linejoin="round" stroke-width="2"/><line x1="157.53" y1="54.04" x2="146.92" y2="43.44" fill="none" stroke="#000" stroke-linecap="round" stroke-linejoin="round" stroke-width="2"/><circle cx="152.23" cy="48.74" r="3.75"/><path d="M152.22,36.24a12.5,12.5,0,1,0,12.51,12.5A12.5,12.5,0,0,0,152.22,36.24Zm0,20a7.5,7.5,0,1,1,7.5-7.5A7.5,7.5,0,0,1,152.23,56.28Z"/></g><g  class="back-wheel"><line x1="32.2" y1="48.74" x2="47.2" y2="48.74" fill="none" stroke="#000" stroke-linecap="round" stroke-linejoin="round" stroke-width="2"/><line x1="34.4" y1="54.04" x2="45" y2="43.44" fill="none" stroke="#000" stroke-linecap="round" stroke-linejoin="round" stroke-width="2"/><line x1="39.7" y1="56.24" x2="39.7" y2="41.24" fill="none" stroke="#000" stroke-linecap="round" stroke-linejoin="round" stroke-width="2"/><line x1="45" y1="54.04" x2="34.4" y2="43.44" fill="none" stroke="#000" stroke-linecap="round" stroke-linejoin="round" stroke-width="2"/><circle cx="39.7" cy="48.74" r="3.75"/><path d="M39.69,36.24A12.5,12.5,0,1,0,52.2,48.74,12.5,12.5,0,0,0,39.69,36.24Zm0,20a7.5,7.5,0,1,1,7.5-7.5A7.5,7.5,0,0,1,39.7,56.28Z"/></g></g></g></svg>