<svg xmlns="http://www.w3.org/2000/svg" width="175.36" height="64" viewBox="0 0 175.36 64"><g  class="Layer_2" data-name="Layer 2"><g  class="Layer_1-2" data-name="Layer 1"><g  class="Layer_2-2" data-name="Layer 2"><g  class="ford-expedition"><g  class="solid-body-background"><path d="M23,51.63s-15.54-.5-21.06-3c0,0-2-6.52,0-8.52s2-6,2-6-1.51-10,2.5-15l7-13L11.6,5.1A.33.33,0,0,1,11.47,5a.27.27,0,0,1-.05-.18V4l9-1s55.65-3,82.73-.5a2.51,2.51,0,0,0,.22-1,2.5,2.5,0,0,0-.22-1A4.92,4.92,0,0,1,105.68,3s16.7,9,22.79,13.53a5.76,5.76,0,0,0,3.08,1.13c7.53.48,36,2.56,37.3,6.91l3,10,1.51,1s1,4.51,1,5.52-.5,9.52-5,10.53a36.89,36.89,0,0,1-7,1" fill="#fff"/></g><g  class="front-wheel"><path d="M139.07,51.5h15" fill="none" stroke="#181818" stroke-linecap="round" stroke-linejoin="round" stroke-width="2"/><path d="M141.25,56.8l10.62-10.6" fill="none" stroke="#181818" stroke-linecap="round" stroke-linejoin="round" stroke-width="2"/><path d="M146.57,59V44" fill="none" stroke="#181818" stroke-linecap="round" stroke-linejoin="round" stroke-width="2"/><path d="M151.87,56.8,141.25,46.2" fill="none" stroke="#181818" stroke-linecap="round" stroke-linejoin="round" stroke-width="2"/><path d="M146.57,55.25a3.75,3.75,0,1,0-3.75-3.75A3.74,3.74,0,0,0,146.57,55.25Z" fill="#181818"/><path d="M146.57,39a12.5,12.5,0,1,0,12.5,12.5A12.51,12.51,0,0,0,146.57,39Zm0,20a7.5,7.5,0,1,1,7.5-7.5A7.5,7.5,0,0,1,146.57,59Z" fill="#181818"/></g><g  class="back-wheel"><path d="M31,51.5H46" fill="none" stroke="#181818" stroke-linecap="round" stroke-linejoin="round" stroke-width="2"/><path d="M33.2,56.8,43.83,46.2" fill="none" stroke="#181818" stroke-linecap="round" stroke-linejoin="round" stroke-width="2"/><path d="M38.5,59V44" fill="none" stroke="#181818" stroke-linecap="round" stroke-linejoin="round" stroke-width="2"/><path d="M43.83,56.8,33.2,46.2" fill="none" stroke="#181818" stroke-linecap="round" stroke-linejoin="round" stroke-width="2"/><path d="M38.5,55.25a3.75,3.75,0,1,0-3.75-3.75A3.75,3.75,0,0,0,38.5,55.25Z" fill="#181818"/><path d="M38.5,39A12.5,12.5,0,1,0,51,51.5,12.5,12.5,0,0,0,38.5,39Zm0,20a7.5,7.5,0,1,1,7.5-7.5A7.49,7.49,0,0,1,38.5,59Z" fill="#181818"/></g><g  class="body-car"><path d="M23,52.14s-15.54-.5-21.06-3c0,0-2-6.52,0-8.52s2-6,2-6-1.51-10,2.5-15l7-13L11.6,5.61a.4.4,0,0,1-.13-.13.29.29,0,0,1-.05-.18V4.51l9-1S76.09.5,103.17,3a2.51,2.51,0,0,0,.22-1,2.47,2.47,0,0,0-.22-1,4.92,4.92,0,0,1,2.51,2.51s16.7,9,22.79,13.53a5.76,5.76,0,0,0,3.08,1.13c7.53.48,36,2.56,37.3,6.91l3,10,1.51,1s1,4.51,1,5.52-.5,9.52-5,10.52a36.12,36.12,0,0,1-7,1" fill="none" stroke="#000" stroke-linecap="round" stroke-linejoin="round" stroke-width="2"/><path d="M4.72,22.71l8.15-.14a1.44,1.44,0,0,1,.51.09,1.42,1.42,0,0,1,.43.29l2.33,2.33a.27.27,0,0,1,.09.12.4.4,0,0,1,0,.15.37.37,0,0,1,0,.15.38.38,0,0,1-.09.13C14.76,27,9.28,31.9,9.78,35.05a.46.46,0,0,1,0,.2.48.48,0,0,1-.08.18.61.61,0,0,1-.16.12.67.67,0,0,1-.19.05H3.9" fill="none" stroke="#000" stroke-linecap="round" stroke-linejoin="round" stroke-width="2"/><path d="M56.54,5,50.27,18.94a.41.41,0,0,0,0,.22.36.36,0,0,0,.06.2.46.46,0,0,0,.16.15.66.66,0,0,0,.2.06l70,1.5" fill="none" stroke="#000" stroke-linecap="round" stroke-linejoin="round" stroke-width="2"/><path d="M51,26.07h6" fill="none" stroke="#000" stroke-linecap="round" stroke-linejoin="round" stroke-width="2"/><path d="M88.13,26.57h6" fill="none" stroke="#000" stroke-linecap="round" stroke-linejoin="round" stroke-width="2"/><path d="M172.86,39.61s-6.39-1.33-5.67,1.12c.1.35.21.7.29,1.06.32,1.47,1.2,4.83,2.37,4.83,0,0,1.5,0,2-.5" fill="none" stroke="#000" stroke-linecap="round" stroke-linejoin="round" stroke-width="2"/><path d="M169,25.62l-8.86-.05a3,3,0,0,0-1.6.45c-.85.5-2,1.4-1.71,2.05.51,1,4,3,4,3a6.72,6.72,0,0,1,2.37,2.36,1.12,1.12,0,0,0,.37.49,1.07,1.07,0,0,0,.57.21c2,.14,7.21.47,7.44.24" fill="none" stroke="#000" stroke-linecap="round" stroke-linejoin="round" stroke-width="2"/><path d="M44.51,6.52,36,19.55H14.43" fill="none" stroke="#000" stroke-linecap="round" stroke-linejoin="round" stroke-width="2"/><path d="M57,55.15h68.19" fill="none" stroke="#000" stroke-linecap="round" stroke-linejoin="round" stroke-width="2"/></g></g></g></g></g></svg>
