<svg xmlns="http://www.w3.org/2000/svg" width="184" height="58.7" viewBox="0 0 184 58.7"><g  class="Layer_2" data-name="Layer 2"><g  class="Layer_1-2" data-name="Layer 1"><g  class="Layer_2-2" data-name="Layer 2"><g  class="ford-f350-super-duty"><g  class="solid-body-background"><path d="M21.15,46.75h-17V44.13A7.54,7.54,0,0,1,1,41.51V36.26H4.71s-1.06-8.91-.53-14.15l.53-3.67H69.39L71,5.85s.53-3.15,2.12-3.67V1.13s3.19-.52,4.78.53c0,0,36.58-.53,42.94,1.57s22.27,13.63,22.27,13.63,32.87,2.62,35,4.72l2.12,2.1s2.12,7.86.53,12.06l-1.06,1v1.05h2.12s1.06.52,1.06,1v1.57h-.53V43.6s1.06,1,.53,1.58a31.17,31.17,0,0,1-3.71,2.1s-.53,2.09,1.06,2.62V51h-5.83" fill="#fff"/></g><g  class="body-car"><path d="M21.15,46.75h-17V44.13A7.54,7.54,0,0,1,1,41.51V36.26H4.71s-1.06-8.91-.53-14.15l.53-3.67H69.39L71,5.85s.53-3.15,2.12-3.67V1.13s3.19-.52,4.78.53c0,0,36.58-.53,42.94,1.57s22.27,13.63,22.27,13.63,32.87,2.62,35,4.72l2.12,2.1s2.12,7.86.53,12.06l-1.06,1v1.05h2.12s1.06.52,1.06,1v1.57h-.53V43.6s1.06,1,.53,1.58a31.17,31.17,0,0,1-3.71,2.1s-.53,2.09,1.06,2.62V51h-5.83" fill="none" stroke="#000" stroke-linecap="round" stroke-linejoin="round" stroke-width="2"/><path d="M4.18,22.11h5.3s1.06,0,1.06,3.14v2.41a1.14,1.14,0,0,1-.07.41L9.48,31v3.67s-4.19.52-4.74,0" fill="none" stroke="#000" stroke-linecap="round" stroke-linejoin="round" stroke-width="2"/><path d="M56.67,47.28h81.12" fill="none" stroke="#000" stroke-linecap="round" stroke-linejoin="round" stroke-width="2"/><path d="M77.35,5.85l-.51,9.44a1.21,1.21,0,0,0,.09.53,1.27,1.27,0,0,0,.3.45,6.43,6.43,0,0,0,4.36,1.66l32.77.52a3,3,0,0,1,1.18.27c1.39.67,5.06,2.36,6.36,2.36s12.09.4,14.77.53a.67.67,0,0,0,.24,0,.74.74,0,0,0,.21-.13.6.6,0,0,0,.14-.21.47.47,0,0,0,.05-.24c0-1.11-.19-3.44-2.16-4.6-2.65-1.58-17-10.49-17-10.49" fill="none" stroke="#000" stroke-linecap="round" stroke-linejoin="round" stroke-width="2"/><path d="M77.88,23.68h5.3" fill="none" stroke="#000" stroke-linecap="round" stroke-linejoin="round" stroke-width="2"/><path d="M106,23.68h5.3" fill="none" stroke="#000" stroke-linecap="round" stroke-linejoin="round" stroke-width="2"/><path d="M180.2,23.68l-.53.52a1.62,1.62,0,0,1-.59.38,1.66,1.66,0,0,1-.7.11c-1.48-.1-4.68-.22-5.09.58v3.67l2.65,3.67V36.8h3.71" fill="none" stroke="#000" stroke-linecap="round" stroke-linejoin="round" stroke-width="2"/></g><g  class="front-wheel"><path d="M148.7,47.45h13.62" fill="none" stroke="#181818" stroke-linecap="round" stroke-linejoin="round" stroke-width="2"/><path d="M150.68,52.22l9.64-9.54" fill="none" stroke="#181818" stroke-linecap="round" stroke-linejoin="round" stroke-width="2"/><path d="M155.51,54.2V40.7" fill="none" stroke="#181818" stroke-linecap="round" stroke-linejoin="round" stroke-width="2"/><path d="M160.32,52.22l-9.64-9.54" fill="none" stroke="#181818" stroke-linecap="round" stroke-linejoin="round" stroke-width="2"/><path d="M155.51,50.83a3.38,3.38,0,1,0-3.4-3.38A3.39,3.39,0,0,0,155.51,50.83Z" fill="#181818"/><path d="M155.51,36.2a11.25,11.25,0,1,0,11.35,11.25A11.3,11.3,0,0,0,155.51,36.2Zm0,18a6.75,6.75,0,1,1,6.81-6.75A6.77,6.77,0,0,1,155.51,54.22Z" fill="#181818"/></g><g  class="back-wheel"><path d="M29.54,47.45H43.15" fill="none" stroke="#181818" stroke-linecap="round" stroke-linejoin="round" stroke-width="2"/><path d="M31.53,52.22l9.65-9.54" fill="none" stroke="#181818" stroke-linecap="round" stroke-linejoin="round" stroke-width="2"/><path d="M36.35,54.2V40.7" fill="none" stroke="#181818" stroke-linecap="round" stroke-linejoin="round" stroke-width="2"/><path d="M41.18,52.22l-9.65-9.54" fill="none" stroke="#181818" stroke-linecap="round" stroke-linejoin="round" stroke-width="2"/><path d="M36.35,50.83a3.38,3.38,0,1,0-3.41-3.38A3.4,3.4,0,0,0,36.35,50.83Z" fill="#181818"/><path d="M36.35,36.2A11.25,11.25,0,1,0,47.69,47.45,11.3,11.3,0,0,0,36.35,36.2Zm0,18a6.75,6.75,0,1,1,6.8-6.75A6.77,6.77,0,0,1,36.35,54.22Z" fill="#181818"/></g></g></g></g></g></svg>
