<svg xmlns="http://www.w3.org/2000/svg" width="147.2" height="57.97" viewBox="0 0 147.2 57.97"><g  class="Layer_2" data-name="Layer 2"><g  class="toyota-4runner"><g  class="solid-body-background" opacity="0"><path d="M15.19,45.38,4.29,41.86A4.75,4.75,0,0,1,1,37.34V28.5a4.66,4.66,0,0,1,1.36-3.29l.8-.8V16.83l2.39-1.42V11.62L11.7,5.48,8,4.25a1.13,1.13,0,0,1-.44-1.86l1-1A1.18,1.18,0,0,1,9.49,1l62.9,1.21C78.9,2.33,86.7,1.48,92.79,6a158.87,158.87,0,0,1,13,11.21S133,19.51,138,20.85s6.22,3.65,6.22,3.65,3.41,7.3,1.34,13.4-4.63,6.21-7.8,6.21" fill="#ecebe1"/></g><g  class="body-car"><path d="M15.19,45.38,4.29,41.86A4.75,4.75,0,0,1,1,37.34V28.5a4.66,4.66,0,0,1,1.36-3.29l.8-.8V16.83l2.39-1.42V11.62L11.7,5.48,8,4.25a1.13,1.13,0,0,1-.44-1.86l1-1A1.18,1.18,0,0,1,9.49,1l62.9,1.21C78.9,2.33,86.7,1.48,92.79,6a158.87,158.87,0,0,1,13,11.21S133,19.51,138,20.85s6.22,3.65,6.22,3.65,3.41,7.3,1.34,13.4-4.63,6.21-7.8,6.21" fill="none" stroke="#000" stroke-linecap="round" stroke-linejoin="round" stroke-width="2"/><polyline points="5.55 15.41 12.56 15.41 12.56 20.98 2.36 25.21" fill="none" stroke="#000" stroke-linecap="round" stroke-linejoin="round" stroke-width="2"/><path d="M17.37,15.41s7,.5,8.71-.62l1.69-1.13,4.78-5.21" fill="none" stroke="#000" stroke-linecap="round" stroke-linejoin="round" stroke-width="2"/><path d="M41,8.87S37.62,14,37.34,15.52l58.85,3.07" fill="none" stroke="#000" stroke-linecap="round" stroke-linejoin="round" stroke-width="2"/><line x1="39.3" y1="21.26" x2="45.65" y2="21.26" fill="none" stroke="#000" stroke-linecap="round" stroke-linejoin="round" stroke-width="2"/><line x1="68.38" y1="22.25" x2="75.5" y2="22.25" fill="none" stroke="#000" stroke-linecap="round" stroke-linejoin="round" stroke-width="2"/><path d="M144.2,24.5c-.34-.26-9.57-.67-12.95-.53v4L137.12,32a8.81,8.81,0,0,0,3.42,0c1.13-.42,5.15-2.89,5.15-2.89" fill="none" stroke="#000" stroke-linecap="round" stroke-linejoin="round" stroke-width="2"/><line x1="47.28" y1="48.62" x2="88.71" y2="47.71" fill="none" stroke="#000" stroke-linecap="round" stroke-linejoin="round" stroke-width="2"/></g><g  class="front-wheel"><line x1="112.37" y1="45.47" x2="127.37" y2="45.47" fill="none" stroke="#000" stroke-linecap="round" stroke-linejoin="round" stroke-width="2"/><line x1="114.57" y1="50.77" x2="125.18" y2="40.17" fill="none" stroke="#000" stroke-linecap="round" stroke-linejoin="round" stroke-width="2"/><line x1="119.87" y1="52.97" x2="119.87" y2="37.97" fill="none" stroke="#000" stroke-linecap="round" stroke-linejoin="round" stroke-width="2"/><line x1="125.18" y1="50.77" x2="114.57" y2="40.17" fill="none" stroke="#000" stroke-linecap="round" stroke-linejoin="round" stroke-width="2"/><circle cx="119.87" cy="45.47" r="3.75"/><path d="M119.87,33a12.5,12.5,0,1,0,12.5,12.5A12.5,12.5,0,0,0,119.87,33Zm0,20a7.5,7.5,0,1,1,7.5-7.5A7.5,7.5,0,0,1,119.87,53Z"/></g><g  class="back-wheel"><line x1="24.19" y1="45.47" x2="39.19" y2="45.47" fill="none" stroke="#000" stroke-linecap="round" stroke-linejoin="round" stroke-width="2"/><line x1="26.39" y1="50.77" x2="36.99" y2="40.17" fill="none" stroke="#000" stroke-linecap="round" stroke-linejoin="round" stroke-width="2"/><line x1="31.69" y1="52.97" x2="31.69" y2="37.97" fill="none" stroke="#000" stroke-linecap="round" stroke-linejoin="round" stroke-width="2"/><line x1="36.99" y1="50.77" x2="26.39" y2="40.17" fill="none" stroke="#000" stroke-linecap="round" stroke-linejoin="round" stroke-width="2"/><circle cx="31.69" cy="45.47" r="3.75"/><path d="M31.69,33a12.5,12.5,0,1,0,12.5,12.5A12.5,12.5,0,0,0,31.69,33Zm0,20a7.5,7.5,0,1,1,7.5-7.5A7.5,7.5,0,0,1,31.69,53Z"/></g></g></g></svg>