<svg xmlns="http://www.w3.org/2000/svg" width="187.01" height="57.49" viewBox="0 0 187.01 57.49"><g  class="Layer_2" data-name="Layer 2"><g  class="ford-fusion"><g  class="solid-body-background"><path d="M24.55,49.48l-17-1.34a9.22,9.22,0,0,1-6.27-6.48C-.35,36.22,5.92,28.55,5.32,25c0,0-2.84-6.19-.21-8s14.78-1.82,14.78-1.82S42.56,6.47,52.28,4.85L50.66,1h4.05l4.65,2.43S74.54-.21,97.82,3s40.72,15.79,40.72,15.79,21.86-2.92,46.35,11.05l-1.43,16.51,2.55.3s-1.89,3.27-5.1,3.57-12.17,1.13-12.17,1.13" fill="#ecebe1" opacity="0"/></g><g  class="body-car"><path d="M24.55,49.48l-17-1.34a9.22,9.22,0,0,1-6.27-6.48C-.35,36.22,5.92,28.55,5.32,25c0,0-2.84-6.19-.21-8s14.78-1.82,14.78-1.82S42.56,6.47,52.28,4.85L50.66,1h4.05l4.65,2.43S74.54-.21,97.82,3s40.72,15.79,40.72,15.79,21.86-2.92,46.35,11.05l-1.43,16.51,2.55.3s-1.89,3.27-5.1,3.57-12.17,1.13-12.17,1.13" fill="none" stroke="#000" stroke-linecap="round" stroke-linejoin="round" stroke-width="2"/><path d="M160.33,29.13l3.39-2.2a40.3,40.3,0,0,1,9.64,1.61,21.63,21.63,0,0,1,7.35,4.23l-1.18,3S167.84,35,160.33,29.13Z" fill="none" stroke="#000" stroke-linecap="round" stroke-linejoin="round" stroke-width="2"/><path d="M171,39.61l4.1.71,1,3,4.56-.26-1.92,3.34-8,.11A6.21,6.21,0,0,0,171,39.61Z" fill="none" stroke="#000" stroke-linecap="round" stroke-linejoin="round" stroke-width="2"/><path d="M4.23,21.69s3.63-3.06,6.18-2.52,15.68,3.69,15.68,3.69-2.15,3.69-4,4.09-17,.24-17,.24" fill="none" stroke="#000" stroke-linecap="round" stroke-linejoin="round" stroke-width="2"/><path d="M38.07,13.53a11.08,11.08,0,0,0,5.17,3c2.8.52,43.41,2.07,43.41,2.07l40.53,1.77" fill="none" stroke="#000" stroke-linecap="round" stroke-linejoin="round" stroke-width="2"/><line x1="57.95" y1="51.37" x2="101.72" y2="51.37" fill="none" stroke="#000" stroke-linecap="round" stroke-linejoin="round" stroke-width="2"/><path d="M49.81,22.31s6-.52,8.14,0" fill="none" stroke="#000" stroke-linecap="round" stroke-linejoin="round" stroke-width="2"/><path d="M91.78,23.17a31.35,31.35,0,0,1,7.67,0" fill="none" stroke="#000" stroke-linecap="round" stroke-linejoin="round" stroke-width="2"/></g><g  class="front-wheel"><line x1="143.72" y1="44.99" x2="158.72" y2="44.99" fill="none" stroke="#000" stroke-linecap="round" stroke-linejoin="round" stroke-width="2"/><line x1="145.92" y1="50.29" x2="156.53" y2="39.69" fill="none" stroke="#000" stroke-linecap="round" stroke-linejoin="round" stroke-width="2"/><line x1="151.22" y1="52.49" x2="151.22" y2="37.49" fill="none" stroke="#000" stroke-linecap="round" stroke-linejoin="round" stroke-width="2"/><line x1="156.53" y1="50.29" x2="145.92" y2="39.69" fill="none" stroke="#000" stroke-linecap="round" stroke-linejoin="round" stroke-width="2"/><circle cx="151.22" cy="44.99" r="3.75"/><path d="M151.22,32.49A12.5,12.5,0,1,0,163.72,45,12.5,12.5,0,0,0,151.22,32.49Zm0,20a7.5,7.5,0,1,1,7.5-7.5A7.5,7.5,0,0,1,151.22,52.52Z"/></g><g  class="back-wheel"><line x1="33.15" y1="44.99" x2="48.15" y2="44.99" fill="none" stroke="#000" stroke-linecap="round" stroke-linejoin="round" stroke-width="2"/><line x1="35.35" y1="50.29" x2="45.95" y2="39.69" fill="none" stroke="#000" stroke-linecap="round" stroke-linejoin="round" stroke-width="2"/><line x1="40.65" y1="52.49" x2="40.65" y2="37.49" fill="none" stroke="#000" stroke-linecap="round" stroke-linejoin="round" stroke-width="2"/><line x1="45.95" y1="50.29" x2="35.35" y2="39.69" fill="none" stroke="#000" stroke-linecap="round" stroke-linejoin="round" stroke-width="2"/><circle cx="40.65" cy="44.99" r="3.75"/><path d="M40.64,32.49A12.5,12.5,0,1,0,53.15,45,12.5,12.5,0,0,0,40.64,32.49Zm0,20a7.5,7.5,0,1,1,7.5-7.5A7.5,7.5,0,0,1,40.65,52.52Z"/></g></g></g></svg>