<svg xmlns="http://www.w3.org/2000/svg" width="180.61" height="65" viewBox="0 0 180.61 65"><g  class="Layer_2" data-name="Layer 2"><g  class="Layer_1-2" data-name="Layer 1"><g  class="Layer_2-2" data-name="Layer 2"><g  class="ford-focus"><g  class="solid-body-background"><path d="M15.15,51.51S6.5,50.28,4,47.81s-4.32-2.47-1.9-11.54a.84.84,0,0,1,.17-.34c.5-.62,2.43-3,3-3.56s.62-10.84.62-13.13A1,1,0,0,1,6,18.83a.82.82,0,0,1,.26-.32L19.4,8.21A.95.95,0,0,0,19.61,7h0a.9.9,0,0,1-.16-.42,1,1,0,0,1,.07-.45.83.83,0,0,1,.26-.36.89.89,0,0,1,.4-.2c2.05-.45,6.41-1.3,12.88-2.17,0,0,34-3.7,55.58-1.85h0c.8.12,22,3.34,45.51,17.19a.8.8,0,0,0,.34.11c2.62.3,33.51,4,41.19,11.74a7.63,7.63,0,0,1,1.89,2.58,7.52,7.52,0,0,1,.66,3.13,11.83,11.83,0,0,0,.32,2.58,13.66,13.66,0,0,1,.22,5.29,11.81,11.81,0,0,0-.1,4.55.91.91,0,0,0,.37.55c.32.22.78.62.35,1.08-.62.61-7.41,2.47-15.44,2.47" fill="#fff"/></g><g  class="body-car"><path d="M15.15,51.51S6.5,50.28,4,47.81s-4.32-2.47-1.9-11.54a.84.84,0,0,1,.17-.34c.5-.62,2.43-3,3-3.56s.62-10.84.62-13.13A1,1,0,0,1,6,18.83a.82.82,0,0,1,.26-.32L19.4,8.21A.95.95,0,0,0,19.61,7h0a.9.9,0,0,1-.16-.42,1,1,0,0,1,.07-.45.83.83,0,0,1,.26-.36.89.89,0,0,1,.4-.2c2.05-.45,6.41-1.3,12.88-2.17,0,0,34-3.7,55.58-1.85h0c.8.12,22,3.34,45.51,17.19a.8.8,0,0,0,.34.11c2.62.3,33.51,4,41.19,11.74a7.63,7.63,0,0,1,1.89,2.58,7.52,7.52,0,0,1,.66,3.13,11.83,11.83,0,0,0,.32,2.58,13.66,13.66,0,0,1,.22,5.29,11.81,11.81,0,0,0-.1,4.55.91.91,0,0,0,.37.55c.32.22.78.62.35,1.08-.62.61-7.41,2.47-15.44,2.47" fill="none" stroke="#000" stroke-linecap="round" stroke-linejoin="round" stroke-width="2"/><path d="M176.33,44.72s-.62,2.47-1.86,2.47h-4.94l-1.23-3.7" fill="none" stroke="#000" stroke-linecap="round" stroke-linejoin="round" stroke-width="2"/><path d="M175.71,30.52s.62,2.47-.62,3.7c0,0-12.05-2.4-18.3-7.23l0,0v-.05a.1.1,0,0,1,0-.05.07.07,0,0,1,.06,0c2,.07,13.51.55,16.38,1.85" fill="none" stroke="#000" stroke-linecap="round" stroke-linejoin="round" stroke-width="2"/><path d="M5.81,23.71s5,1.85,7.49,1.23,3.05-4.32,8.64-4.32,6.8,0,6.18-1.85c-.71-2.12-6.18-.62-8-1.86l-2.2-1.65a.83.83,0,0,0-.3-.14.86.86,0,0,0-.32,0c-1.78.34-10.3,2.05-11.41,4.26" fill="none" stroke="#000" stroke-linecap="round" stroke-linejoin="round" stroke-width="2"/><path d="M39.85,6.43S27.5,9.52,26.27,10.76a16,16,0,0,0,5.55,4.32s80.9,7.41,100,6.79" fill="none" stroke="#000" stroke-linecap="round" stroke-linejoin="round" stroke-width="2"/><path d="M43.56,23.11H51" fill="none" stroke="#000" stroke-linecap="round" stroke-linejoin="round" stroke-width="2"/><path d="M84.93,25h7.41" fill="none" stroke="#000" stroke-linecap="round" stroke-linejoin="round" stroke-width="2"/><path d="M55.29,52.75,125.07,54" fill="none" stroke="#000" stroke-linecap="round" stroke-linejoin="round" stroke-width="2"/></g><g  class="front-wheel"><path d="M140.07,52.5h15" fill="none" stroke="#181818" stroke-linecap="round" stroke-linejoin="round" stroke-width="2"/><path d="M142.25,57.8l10.63-10.6" fill="none" stroke="#181818" stroke-linecap="round" stroke-linejoin="round" stroke-width="2"/><path d="M147.57,60V45" fill="none" stroke="#181818" stroke-linecap="round" stroke-linejoin="round" stroke-width="2"/><path d="M152.88,57.8,142.25,47.2" fill="none" stroke="#181818" stroke-linecap="round" stroke-linejoin="round" stroke-width="2"/><path d="M147.57,56.25a3.75,3.75,0,1,0-3.75-3.75A3.74,3.74,0,0,0,147.57,56.25Z" fill="#181818"/><path d="M147.57,40a12.5,12.5,0,1,0,12.5,12.5A12.51,12.51,0,0,0,147.57,40Zm0,20a7.5,7.5,0,1,1,7.5-7.5A7.5,7.5,0,0,1,147.57,60Z" fill="#181818"/></g><g  class="back-wheel"><path d="M26,52.5H41" fill="none" stroke="#181818" stroke-linecap="round" stroke-linejoin="round" stroke-width="2"/><path d="M28.2,57.8,38.83,47.2" fill="none" stroke="#181818" stroke-linecap="round" stroke-linejoin="round" stroke-width="2"/><path d="M33.5,60V45" fill="none" stroke="#181818" stroke-linecap="round" stroke-linejoin="round" stroke-width="2"/><path d="M38.83,57.8,28.2,47.2" fill="none" stroke="#181818" stroke-linecap="round" stroke-linejoin="round" stroke-width="2"/><path d="M33.5,56.25a3.75,3.75,0,1,0-3.75-3.75A3.75,3.75,0,0,0,33.5,56.25Z" fill="#181818"/><path d="M33.5,40A12.5,12.5,0,1,0,46,52.5,12.5,12.5,0,0,0,33.5,40Zm0,20a7.5,7.5,0,1,1,7.5-7.5A7.49,7.49,0,0,1,33.5,60Z" fill="#181818"/></g></g></g></g></g></svg>
