<svg xmlns="http://www.w3.org/2000/svg" width="177.72" height="70.78" viewBox="0 0 177.72 70.78"><g class="Layer_2" data-name="Layer 2"><g class="commercial-van"><g class="solid-body-background"><path class="Vector" d="M168.14,59.56c5.57,0,9.19-5.08,8.5-10.61-.93-7.54-1.84-21-10.12-23.43C153.66,21.75,142.2,19,142.2,19S129.79,1,111.8,1H6.11A5.11,5.11,0,0,0,1,6.11v43a8.32,8.32,0,0,0,4.38,7.34c3,1.64,7.94,3.78,7.94,3.78" fill="#ecebe1" opacity="0"/></g><g class="body-car"><path d="M176.46,47.42h-3.64a3.73,3.73,0,0,1-3.32-2l-2.09-6.76a2.19,2.19,0,0,1,2-3.18h4" fill="none" stroke="#000" stroke-linecap="round" stroke-linejoin="round" stroke-width="2"/><line x1="60.87" y1="60.94" x2="125.71" y2="60.94" fill="none" stroke="#000" stroke-linecap="round" stroke-linejoin="round" stroke-width="2"/><path d="M168.14,59.56c5.57,0,9.19-5.08,8.5-10.61-.93-7.54-1.84-21-10.12-23.43C153.66,21.75,142.2,19,142.2,19S129.79,1,111.8,1H6.11A5.11,5.11,0,0,0,1,6.11v43a8.32,8.32,0,0,0,4.38,7.34c3,1.64,7.94,3.78,7.94,3.78" fill="none" stroke="#000" stroke-linecap="round" stroke-linejoin="round" stroke-width="2"/><line x1="122.31" y1="30.4" x2="117.53" y2="30.4" fill="none" stroke="#000" stroke-linecap="round" stroke-linejoin="round" stroke-width="2"/><line x1="98.31" y1="30.67" x2="102.49" y2="30.67" fill="none" stroke="#000" stroke-linecap="round" stroke-linejoin="round" stroke-width="2"/><path d="M102.35,23.13H74.18a6.05,6.05,0,0,1-6.05-6.05V11" fill="none" stroke="#000" stroke-linecap="round" stroke-linejoin="round" stroke-width="2"/><path d="M1,27.16H6.79a2.5,2.5,0,0,1,2.5,2.5V41.83a3.65,3.65,0,0,1-3.64,3.65H1" fill="none" stroke="#000" stroke-linecap="round" stroke-linejoin="round" stroke-width="2"/><line x1="108.51" y1="28.16" x2="108.51" y2="49.96" fill="none" stroke="#000" stroke-linecap="round" stroke-linejoin="round" stroke-width="2"/><path d="M138.71,23.13H121.44a6.3,6.3,0,0,1-6.3-6.3V11" fill="none" stroke="#000" stroke-linecap="round" stroke-linejoin="round" stroke-width="2"/></g><g class="front-wheel"><line x1="145.67" y1="58.28" x2="160.67" y2="58.28" fill="none" stroke="#000" stroke-linecap="round" stroke-linejoin="round" stroke-width="2"/><line x1="147.87" y1="63.58" x2="158.47" y2="52.97" fill="none" stroke="#000" stroke-linecap="round" stroke-linejoin="round" stroke-width="2"/><line x1="153.17" y1="65.78" x2="153.17" y2="50.78" fill="none" stroke="#000" stroke-linecap="round" stroke-linejoin="round" stroke-width="2"/><line x1="158.47" y1="63.58" x2="147.87" y2="52.97" fill="none" stroke="#000" stroke-linecap="round" stroke-linejoin="round" stroke-width="2"/><circle cx="153.17" cy="58.28" r="3.75"/><path d="M153.17,45.78a12.5,12.5,0,1,0,12.5,12.5A12.5,12.5,0,0,0,153.17,45.78Zm0,20a7.5,7.5,0,1,1,7.5-7.5A7.5,7.5,0,0,1,153.17,65.81Z"/></g><g  class="back-wheel"><line x1="32.37" y1="58.28" x2="47.37" y2="58.28" fill="none" stroke="#000" stroke-linecap="round" stroke-linejoin="round" stroke-width="2"/><line x1="34.57" y1="63.58" x2="45.17" y2="52.97" fill="none" stroke="#000" stroke-linecap="round" stroke-linejoin="round" stroke-width="2"/><line x1="39.87" y1="65.78" x2="39.87" y2="50.78" fill="none" stroke="#000" stroke-linecap="round" stroke-linejoin="round" stroke-width="2"/><line x1="45.17" y1="63.58" x2="34.57" y2="52.97" fill="none" stroke="#000" stroke-linecap="round" stroke-linejoin="round" stroke-width="2"/><circle cx="39.87" cy="58.28" r="3.75"/><path d="M39.86,45.78a12.5,12.5,0,1,0,12.51,12.5A12.49,12.49,0,0,0,39.86,45.78Zm0,20a7.5,7.5,0,1,1,7.5-7.5A7.5,7.5,0,0,1,39.87,65.81Z"/></g></g></g></svg>