<svg xmlns="http://www.w3.org/2000/svg" width="174" height="63.57" viewBox="0 0 174 63.57"><g  class="Layer_2" data-name="Layer 2"><g  class="Layer_1-2" data-name="Layer 1"><g  class="Layer_2-2" data-name="Layer 2"><g  class="honda-odyssey"><g  class="solid-body-bodyground"><path d="M24,51.71l-2.73-1.65s-17.46-1.65-19.1-3.3-1.09-6.59-1.09-6.59L2.72,38l.55-6a19.43,19.43,0,0,0,.55-3.3c0-1.1-1.1-4.95-.55-7.15l2.18-2.75-.54-1.1,2.18-1.1,6-8.24s1.35-2.26.39-3.91a.33.33,0,0,1,0-.17.39.39,0,0,1,0-.18.37.37,0,0,1,.12-.13.36.36,0,0,1,.17-.07l13-1.56s59.48-2.75,72,0c0,0,23.92,6.28,37.75,16.81a5,5,0,0,0,2.31,1c5.92.9,30.61,3.51,32.52,14.12a48.58,48.58,0,0,1,1.09,7.69c0,2.75-.54,6,0,6.6a2.75,2.75,0,0,1,.55,1.65l-6,2.75h-7.64" fill="#fff"/></g><g  class="body-car"><path d="M24,51.68,21.28,50s-17.46-1.65-19.1-3.3-1.09-6.6-1.09-6.6l1.63-2.2.55-6a19.6,19.6,0,0,0,.55-3.3c0-1.1-1.1-4.95-.55-7.15l2.18-2.75-.54-1.1,2.18-1.1,6-8.25s1.35-2.25.39-3.9a.39.39,0,0,1,0-.18.33.33,0,0,1,0-.17.37.37,0,0,1,.12-.13.36.36,0,0,1,.17-.07l13-1.57s59.48-2.75,72,0c0,0,23.92,6.29,37.75,16.82a5,5,0,0,0,2.31,1c5.92.89,30.61,3.51,32.52,14.11a48.78,48.78,0,0,1,1.09,7.7c0,2.75-.54,6,0,6.6a2.71,2.71,0,0,1,.55,1.65l-6,2.75h-7.64" fill="none" stroke="#000" stroke-linecap="round" stroke-linejoin="round" stroke-width="2"/><path d="M169.1,29.72l-8.65-1.13,2.73,3.3s7,3,8.42,4.79" fill="none" stroke="#000" stroke-linecap="round" stroke-linejoin="round" stroke-width="2"/><path d="M171.81,41.36s-2.73-1.1-3.27.55c-.44,1.32-1.23,4.74-1.52,6.05a.7.7,0,0,0,0,.47.66.66,0,0,0,.34.32,5.27,5.27,0,0,0,4.4.29" fill="none" stroke="#000" stroke-linecap="round" stroke-linejoin="round" stroke-width="2"/><path d="M3.27,21.44l15.83,1.1s.54,1.1,0,1.65S12,27.49,9.82,28H8.18S4.77,28.86,4,29" fill="none" stroke="#000" stroke-linecap="round" stroke-linejoin="round" stroke-width="2"/><path d="M25,20.18l25.87.51a29.14,29.14,0,0,0,4.57-.28c3.62-.5,10.63-1.39,12.67-1a34.61,34.61,0,0,0,3.92.46L128,24a1.73,1.73,0,0,0,1.28-.42l1.58-1.37a.41.41,0,0,0,.12-.14.45.45,0,0,0,0-.2.43.43,0,0,0,0-.19.44.44,0,0,0-.12-.15c-1.85-1.27-8.91-6.13-12.9-8.52" fill="none" stroke="#000" stroke-linecap="round" stroke-linejoin="round" stroke-width="2"/><path d="M78.58,25.84l7.64.55" fill="none" stroke="#000" stroke-linecap="round" stroke-linejoin="round" stroke-width="2"/><path d="M92.77,26.85l7.65.17" fill="none" stroke="#000" stroke-linecap="round" stroke-linejoin="round" stroke-width="2"/><path d="M63.3,51.68h55.13" fill="none" stroke="#000" stroke-linecap="round" stroke-linejoin="round" stroke-width="2"/></g><g  class="front-wheel"><path d="M136.23,52.29h13.62" fill="none" stroke="#181818" stroke-linecap="round" stroke-linejoin="round" stroke-width="2"/><path d="M138.2,57.07l9.65-9.57" fill="none" stroke="#181818" stroke-linecap="round" stroke-linejoin="round" stroke-width="2"/><path d="M143,59.06V45.51" fill="none" stroke="#181818" stroke-linecap="round" stroke-linejoin="round" stroke-width="2"/><path d="M147.85,57.07,138.2,47.5" fill="none" stroke="#181818" stroke-linecap="round" stroke-linejoin="round" stroke-width="2"/><path d="M143,55.67a3.39,3.39,0,1,0-3.41-3.39A3.4,3.4,0,0,0,143,55.67Z" fill="#181818"/><path d="M143,41a11.29,11.29,0,1,0,11.35,11.28A11.33,11.33,0,0,0,143,41Zm0,18.08a6.77,6.77,0,1,1,6.81-6.77A6.78,6.78,0,0,1,143,59.08Z" fill="#181818"/></g><g  class="back-wheel"><path d="M32.54,52.29H46.16" fill="none" stroke="#181818" stroke-linecap="round" stroke-linejoin="round" stroke-width="2"/><path d="M34.54,57.07l9.65-9.57" fill="none" stroke="#181818" stroke-linecap="round" stroke-linejoin="round" stroke-width="2"/><path d="M39.35,59.06V45.51" fill="none" stroke="#181818" stroke-linecap="round" stroke-linejoin="round" stroke-width="2"/><path d="M44.19,57.07,34.54,47.5" fill="none" stroke="#181818" stroke-linecap="round" stroke-linejoin="round" stroke-width="2"/><path d="M39.35,55.67A3.39,3.39,0,1,0,36,52.28,3.4,3.4,0,0,0,39.35,55.67Z" fill="#181818"/><path d="M39.35,41A11.29,11.29,0,1,0,50.7,52.28,11.33,11.33,0,0,0,39.35,41Zm0,18.08a6.77,6.77,0,1,1,6.81-6.77A6.78,6.78,0,0,1,39.35,59.08Z" fill="#181818"/></g></g></g></g></g></svg>
