<svg xmlns="http://www.w3.org/2000/svg" width="181" height="58.57" viewBox="0 0 181 58.57"><g  class="Layer_2" data-name="Layer 2"><g  class="Layer_1-2" data-name="Layer 1"><g  class="Layer_2-2" data-name="Layer 2"><g  class="chrysler-300"><g  class="solid-body-background"><path d="M22.09,47.43,7.21,45.7a2.93,2.93,0,0,1-1.77-.85L2.2,41.58a3.59,3.59,0,0,1-1-2.23c-.23-2.72-.53-8.81,1.36-9.76C5,28.36,5,27.12,5,27.12S9.26,17.88,8.65,16a1.56,1.56,0,0,1,.24-1.17,1.58,1.58,0,0,1,1-.68c1.22,0,15.3-.61,15.3-.61L49.66,3.71V1.24c0-.61,3.67,0,5.51,1.23,0,0,39.16-1.23,45.29.62,5.12,1.55,19.29,8.73,25.9,12.82a14.59,14.59,0,0,0,6.81,2.15c9.18.54,31.69,2.34,41.32,7.19,0,0,5.51,4.31,4.9,15.41V46.2l.61.62-3.06,2.46h-9.79" fill="#fff"/></g><g  class="body-car"><path d="M22.09,47.43,7.21,45.7a2.93,2.93,0,0,1-1.77-.85L2.2,41.58a3.59,3.59,0,0,1-1-2.23c-.23-2.72-.53-8.81,1.36-9.76C5,28.36,5,27.12,5,27.12S9.26,17.88,8.65,16a1.56,1.56,0,0,1,.24-1.17,1.58,1.58,0,0,1,1-.68c1.22,0,15.3-.61,15.3-.61L49.66,3.71V1.24c0-.61,3.67,0,5.51,1.23,0,0,39.16-1.23,45.29.62,5.12,1.55,19.29,8.73,25.9,12.82a14.59,14.59,0,0,0,6.81,2.15c9.18.54,31.69,2.34,41.32,7.19,0,0,5.51,4.31,4.9,15.41V46.2l.61.62-3.06,2.46h-9.79" fill="none" stroke="#000" stroke-linecap="round" stroke-linejoin="round" stroke-width="2"/><path d="M9.37,14.27s2.93,4.2,1.7,5.43L8,27.71l-3.39.17" fill="none" stroke="#000" stroke-linecap="round" stroke-linejoin="round" stroke-width="2"/><path d="M179.16,42.74s-2.45-.62-3.06,0A13.57,13.57,0,0,0,174.66,45a.6.6,0,0,0-.08.29.51.51,0,0,0,.07.3.52.52,0,0,0,.2.24.67.67,0,0,0,.29.1,7.32,7.32,0,0,0,3.41-.14" fill="none" stroke="#000" stroke-linecap="round" stroke-linejoin="round" stroke-width="2"/><path d="M177.55,29.56s-1.76-2.91-8.62-2.5a.34.34,0,0,0-.17.05.3.3,0,0,0-.12.13.41.41,0,0,0,0,.18.47.47,0,0,0,0,.17L171.56,33a1.79,1.79,0,0,0,.62.66A1.73,1.73,0,0,0,173,34l5.89.42" fill="none" stroke="#000" stroke-linecap="round" stroke-linejoin="round" stroke-width="2"/><path d="M55.14,6.15S46.08,12.62,44.87,16a.49.49,0,0,0,0,.24.63.63,0,0,0,.08.23.55.55,0,0,0,.18.16.73.73,0,0,0,.24.07l77.11,3.08" fill="none" stroke="#000" stroke-linecap="round" stroke-linejoin="round" stroke-width="2"/><path d="M58.81,48.05l62.43.62" fill="none" stroke="#000" stroke-linecap="round" stroke-linejoin="round" stroke-width="2"/><path d="M87.58,22.79h7.34" fill="none" stroke="#000" stroke-linecap="round" stroke-linejoin="round" stroke-width="2"/><path d="M50.24,21.55h7.35" fill="none" stroke="#000" stroke-linecap="round" stroke-linejoin="round" stroke-width="2"/></g><g  class="front-wheel"><path d="M142.23,47.29h13.62" fill="none" stroke="#181818" stroke-linecap="round" stroke-linejoin="round" stroke-width="2"/><path d="M144.2,52.07l9.65-9.57" fill="none" stroke="#181818" stroke-linecap="round" stroke-linejoin="round" stroke-width="2"/><path d="M149,54.06V40.51" fill="none" stroke="#181818" stroke-linecap="round" stroke-linejoin="round" stroke-width="2"/><path d="M153.85,52.07,144.2,42.5" fill="none" stroke="#181818" stroke-linecap="round" stroke-linejoin="round" stroke-width="2"/><path d="M149,50.67a3.39,3.39,0,1,0-3.41-3.39A3.4,3.4,0,0,0,149,50.67Z" fill="#181818"/><path d="M149,36a11.29,11.29,0,1,0,11.35,11.28A11.33,11.33,0,0,0,149,36Zm0,18.08a6.77,6.77,0,1,1,6.81-6.77A6.78,6.78,0,0,1,149,54.08Z" fill="#181818"/></g><g  class="back-wheel"><path d="M31.54,47.29H45.16" fill="none" stroke="#181818" stroke-linecap="round" stroke-linejoin="round" stroke-width="2"/><path d="M33.54,52.07l9.65-9.57" fill="none" stroke="#181818" stroke-linecap="round" stroke-linejoin="round" stroke-width="2"/><path d="M38.35,54.06V40.51" fill="none" stroke="#181818" stroke-linecap="round" stroke-linejoin="round" stroke-width="2"/><path d="M43.19,52.07,33.54,42.5" fill="none" stroke="#181818" stroke-linecap="round" stroke-linejoin="round" stroke-width="2"/><path d="M38.35,50.67A3.39,3.39,0,1,0,35,47.28,3.4,3.4,0,0,0,38.35,50.67Z" fill="#181818"/><path d="M38.35,36A11.29,11.29,0,1,0,49.7,47.28,11.33,11.33,0,0,0,38.35,36Zm0,18.08a6.77,6.77,0,1,1,6.81-6.77A6.78,6.78,0,0,1,38.35,54.08Z" fill="#181818"/></g></g></g></g></g></svg>
