<svg xmlns="http://www.w3.org/2000/svg" width="177.77" height="58.36" viewBox="0 0 177.77 58.36"><g  class="Layer_2" data-name="Layer 2"><g  class="toyota-corolla"><g  class="solid-body-background" opacity="0"><path d="M21.36,49,6,45.77s-6.27-7.9-4.78-11,3.63-3.8,3.63-3.8S3,18.57,5.19,16.42,18.06,14,18.06,14,44.15,3.55,46.53,3.06s25-2.48,34.22-2,18.32.66,25.57,3.63,24.56,12.54,24.56,12.54,13.69,1.65,21.79,3.13,20.64,8.25,20.64,8.25v2.64l3.46,1.91v14.1a19.64,19.64,0,0,1-11.05,3.07H161.1" fill="#ecebe1"/></g><g  class="body-car"><path d="M21.36,49,6,45.77s-6.27-7.9-4.78-11,3.63-3.8,3.63-3.8S3,18.57,5.19,16.42,18.06,14,18.06,14,44.15,3.55,46.53,3.06s25-2.48,34.22-2,18.32.66,25.57,3.63,24.56,12.54,24.56,12.54,13.69,1.65,21.79,3.13,20.64,8.25,20.64,8.25v2.64l3.46,1.91v14.1a19.64,19.64,0,0,1-11.05,3.07H161.1" fill="none" stroke="#000" stroke-linecap="round" stroke-linejoin="round" stroke-width="2"/><path d="M38.35,13.62s-4.26,2.47-1,3,42.06,2.64,49.82,3.13S116.39,22,120,21.37" fill="none" stroke="#000" stroke-linecap="round" stroke-linejoin="round" stroke-width="2"/><line x1="46.53" y1="22.53" x2="54.85" y2="22.53" fill="none" stroke="#000" stroke-linecap="round" stroke-linejoin="round" stroke-width="2"/><path d="M4.31,18.89s10.94.5,12.76.83a12,12,0,0,1,5.61,2.81s-9.79,4-18.26,4.64" fill="none" stroke="#000" stroke-linecap="round" stroke-linejoin="round" stroke-width="2"/><line x1="82.73" y1="24.51" x2="91.48" y2="24.51" fill="none" stroke="#000" stroke-linecap="round" stroke-linejoin="round" stroke-width="2"/><line x1="52.04" y1="50.35" x2="107.81" y2="50.35" fill="none" stroke="#000" stroke-linecap="round" stroke-linejoin="round" stroke-width="2"/><path d="M173.31,28.63,154,25.22a.86.86,0,0,0-.63,1.56c4.58,3,12.46,8.14,15,8.95l-.17-3.8,8.58,1.25" fill="none" stroke="#000" stroke-linecap="round" stroke-linejoin="round" stroke-width="2"/></g><g  class="front-wheel"><line x1="135.98" y1="45.86" x2="150.98" y2="45.86" fill="none" stroke="#000" stroke-linecap="round" stroke-linejoin="round" stroke-width="2"/><line x1="138.17" y1="51.16" x2="148.78" y2="40.56" fill="none" stroke="#000" stroke-linecap="round" stroke-linejoin="round" stroke-width="2"/><line x1="143.48" y1="53.36" x2="143.48" y2="38.36" fill="none" stroke="#000" stroke-linecap="round" stroke-linejoin="round" stroke-width="2"/><line x1="148.78" y1="51.16" x2="138.17" y2="40.56" fill="none" stroke="#000" stroke-linecap="round" stroke-linejoin="round" stroke-width="2"/><circle cx="143.48" cy="45.86" r="3.75"/><path d="M143.47,33.36A12.5,12.5,0,1,0,156,45.86,12.5,12.5,0,0,0,143.47,33.36Zm0,20a7.5,7.5,0,1,1,7.5-7.5A7.49,7.49,0,0,1,143.48,53.39Z"/></g><g  class="back-wheel"><line x1="29.75" y1="45.86" x2="44.75" y2="45.86" fill="none" stroke="#000" stroke-linecap="round" stroke-linejoin="round" stroke-width="2"/><line x1="31.94" y1="51.16" x2="42.55" y2="40.56" fill="none" stroke="#000" stroke-linecap="round" stroke-linejoin="round" stroke-width="2"/><line x1="37.25" y1="53.36" x2="37.25" y2="38.36" fill="none" stroke="#000" stroke-linecap="round" stroke-linejoin="round" stroke-width="2"/><line x1="42.55" y1="51.16" x2="31.94" y2="40.56" fill="none" stroke="#000" stroke-linecap="round" stroke-linejoin="round" stroke-width="2"/><circle cx="37.25" cy="45.86" r="3.75"/><path d="M37.24,33.36a12.5,12.5,0,1,0,12.51,12.5A12.5,12.5,0,0,0,37.24,33.36Zm0,20a7.5,7.5,0,1,1,7.5-7.5A7.49,7.49,0,0,1,37.25,53.39Z"/></g></g></g></svg>