<svg xmlns="http://www.w3.org/2000/svg" width="184" height="64.7" viewBox="0 0 184 64.7"><g  class="Layer_2" data-name="Layer 2"><g  class="Layer_1-2" data-name="Layer 1"><g  class="Layer_2-2" data-name="Layer 2"><g  class="toyota-highlander"><g  class="solid-body-background"><path d="M20.85,52.47S5.3,52.39,2,46.83c0,0-2.19-5.55,0-8.88a38.45,38.45,0,0,1,2.78-3.89L3.17,22.4s-1.11-2.22,5-7.22,9-7.16,9-7.16A15.67,15.67,0,0,0,14.38,5.8c-1.11-.55,0-1.66,0-1.66L26.6,3.08S98.84-2.15,106,4l25.48,14.55s42.78,1.3,48.29,9.1c0,0,3.34,6.11,2.18,11.11a48.18,48.18,0,0,0,.52,7.77c.55,2.22,1.11,5.55-1.15,6.66s-7.77,3.3-7.77,3.3H168" fill="#fff"/></g><g  class="body-car"><path d="M20.85,52.47S5.3,52.39,2,46.83c0,0-2.19-5.55,0-8.88a38.45,38.45,0,0,1,2.78-3.89L3.17,22.4s-1.11-2.22,5-7.22,9-7.16,9-7.16A15.67,15.67,0,0,0,14.38,5.8c-1.11-.55,0-1.66,0-1.66L26.6,3.08S98.84-2.15,106,4l25.48,14.55s42.78,1.3,48.29,9.1c0,0,3.34,6.11,2.18,11.11a48.18,48.18,0,0,0,.52,7.77c.55,2.22,1.11,5.55-1.15,6.66s-7.77,3.3-7.77,3.3H168" fill="none" stroke="#000" stroke-linecap="round" stroke-linejoin="round" stroke-width="2"/><path d="M155.53,23.52a5.54,5.54,0,0,0,2.77,2.22c2.23.56,8.14,2.16,10.39,3.82a6.07,6.07,0,0,0,2.41,1c2.17.43,5.78,1.07,6.94.87l.09,0a.46.46,0,0,0,.07-.07.32.32,0,0,0,0-.09v-.1l-.35-1.4a1.25,1.25,0,0,0-.26-.53,1.36,1.36,0,0,0-.45-.37A55.24,55.24,0,0,0,155.53,23.52Z" fill="none" stroke="#000" stroke-linecap="round" stroke-linejoin="round" stroke-width="2"/><path d="M4.06,27s3-4,5.81-4,10-1.06,11.11-3.28c0,0-15.46-.73-16.9.15" fill="none" stroke="#000" stroke-linecap="round" stroke-linejoin="round" stroke-width="2"/><path d="M39.94,5.35s-17.77,4.92-14.47,7.16a27.92,27.92,0,0,0,7.73,3.22,8.3,8.3,0,0,0,1.11.19c7.16.55,83.76,6.33,92.77,4.26" fill="none" stroke="#000" stroke-linecap="round" stroke-linejoin="round" stroke-width="2"/><path d="M51,21.19l8.86.66" fill="none" stroke="#000" stroke-linecap="round" stroke-linejoin="round" stroke-width="2"/><path d="M91.52,24.44l8.89.08" fill="none" stroke="#000" stroke-linecap="round" stroke-linejoin="round" stroke-width="2"/><path d="M66.66,55.45l58.61.82" fill="none" stroke="#000" stroke-linecap="round" stroke-linejoin="round" stroke-width="2"/></g><g  class="front-wheel"><path d="M143.7,53.45h13.62" fill="none" stroke="#181818" stroke-linecap="round" stroke-linejoin="round" stroke-width="2"/><path d="M145.68,58.22l9.64-9.54" fill="none" stroke="#181818" stroke-linecap="round" stroke-linejoin="round" stroke-width="2"/><path d="M150.51,60.2V46.7" fill="none" stroke="#181818" stroke-linecap="round" stroke-linejoin="round" stroke-width="2"/><path d="M155.32,58.22l-9.64-9.54" fill="none" stroke="#181818" stroke-linecap="round" stroke-linejoin="round" stroke-width="2"/><path d="M150.51,56.83a3.38,3.38,0,1,0-3.4-3.38A3.39,3.39,0,0,0,150.51,56.83Z" fill="#181818"/><path d="M150.51,42.2a11.25,11.25,0,1,0,11.35,11.25A11.3,11.3,0,0,0,150.51,42.2Zm0,18a6.75,6.75,0,1,1,6.81-6.75A6.77,6.77,0,0,1,150.51,60.22Z" fill="#181818"/></g><g  class="back-wheel"><path d="M29.54,53.45H43.15" fill="none" stroke="#181818" stroke-linecap="round" stroke-linejoin="round" stroke-width="2"/><path d="M31.53,58.22l9.65-9.54" fill="none" stroke="#181818" stroke-linecap="round" stroke-linejoin="round" stroke-width="2"/><path d="M36.35,60.2V46.7" fill="none" stroke="#181818" stroke-linecap="round" stroke-linejoin="round" stroke-width="2"/><path d="M41.18,58.22l-9.65-9.54" fill="none" stroke="#181818" stroke-linecap="round" stroke-linejoin="round" stroke-width="2"/><path d="M36.35,56.83a3.38,3.38,0,1,0-3.41-3.38A3.4,3.4,0,0,0,36.35,56.83Z" fill="#181818"/><path d="M36.35,42.2A11.25,11.25,0,1,0,47.69,53.45,11.3,11.3,0,0,0,36.35,42.2Zm0,18a6.75,6.75,0,1,1,6.8-6.75A6.77,6.77,0,0,1,36.35,60.22Z" fill="#181818"/></g></g></g></g></g></svg>
