<svg xmlns="http://www.w3.org/2000/svg" width="188" height="59.57" viewBox="0 0 188 59.57"><g  class="Layer_2" data-name="Layer 2"><g  class="Layer_1-2" data-name="Layer 1"><g  class="Layer_2-2" data-name="Layer 2"><g  class="nissan-frontier"><g  class="solid-body-background"><path d="M175,50.82s7.74-2.39,10.16-4.18,1.82-11.32,1.82-11.32l-1.21-1.79a14.83,14.83,0,0,0-3-8.93c-1.82-5.37-38.21-7.75-38.21-7.75-9.71-6-26.08-14.3-26.08-14.3C116.58.76,82,.76,78.37,1.36s-3,16.68-3,16.68h-70l-.08,0a.1.1,0,0,0,0,.06.19.19,0,0,0,0,.07.11.11,0,0,0,0,.08l1.06,1.56C3.79,23.4,5,37.71,5,37.71l-3.18,1a1,1,0,0,0-.38.22,1,1,0,0,0-.22.38A6.77,6.77,0,0,0,2,44.7a1.68,1.68,0,0,0,.53.53,1.81,1.81,0,0,0,.72.24L8.22,46A1.11,1.11,0,0,0,9,45.77l1.48-1C14.09,44.8,25,46.59,25,46.59S25,30.5,42,29.91c0,0,18.49,1.09,18,19.71" fill="#fff"/></g><g  class="body-car"><path d="M177.84,49.62s4.85-1.19,7.27-3,1.82-11.32,1.82-11.32l-1.21-1.79a14.83,14.83,0,0,0-3-8.93c-1.82-5.37-38.21-7.75-38.21-7.75-9.71-6-26.08-14.3-26.08-14.3C116.58.76,82,.76,78.37,1.36s-3,16.68-3,16.68h-70l-.08,0a.1.1,0,0,0,0,.06.19.19,0,0,0,0,.07.11.11,0,0,0,0,.08l1.06,1.56C3.79,23.4,5,37.71,5,37.71l-3.18,1a1,1,0,0,0-.38.22,1,1,0,0,0-.22.38A6.77,6.77,0,0,0,2,44.7a1.68,1.68,0,0,0,.53.53,1.81,1.81,0,0,0,.72.24L8.22,46A1.11,1.11,0,0,0,9,45.77l1.48-1C14.09,44.8,25,46.59,25,46.59S25,30.5,42,29.91" fill="none" stroke="#000" stroke-linecap="round" stroke-linejoin="round" stroke-width="2"/><path d="M5.78,20.78s4.05,1.43,4.05,2-.61,8.94-1.21,9.53S5,35.1,5,35.1" fill="none" stroke="#000" stroke-linecap="round" stroke-linejoin="round" stroke-width="2"/><path d="M82.61,4.34S80.79,16.85,82,18c.88.86,1.71,1.09,4.54,2.08a5.62,5.62,0,0,0,1.86.3h5.74" fill="none" stroke="#000" stroke-linecap="round" stroke-linejoin="round" stroke-width="2"/><path d="M101.41,4.34l.61,14.3a1.74,1.74,0,0,0,.52,1.27,1.73,1.73,0,0,0,.6.39,1.67,1.67,0,0,0,.7.12h29.72" fill="none" stroke="#000" stroke-linecap="round" stroke-linejoin="round" stroke-width="2"/><path d="M103.23,25.79h5.46" fill="none" stroke="#000" stroke-linecap="round" stroke-linejoin="round" stroke-width="2"/><path d="M185.72,33.53s-4.69-1.15-10.61-5.72a.42.42,0,0,1-.16-.25.44.44,0,0,1,.06-.3l.83-1.19a.58.58,0,0,1,.21-.2.66.66,0,0,1,.27-.09c1.25-.14,5.84-.65,6.37-1.2" fill="none" stroke="#000" stroke-linecap="round" stroke-linejoin="round" stroke-width="2"/><path d="M68.66,50.22l63.08,1.19" fill="none" stroke="#000" stroke-linecap="round" stroke-linejoin="round" stroke-width="2"/></g><g  class="front-wheel"><path d="M149.23,48.29h13.62" fill="none" stroke="#181818" stroke-linecap="round" stroke-linejoin="round" stroke-width="2"/><path d="M151.2,53.07l9.65-9.57" fill="none" stroke="#181818" stroke-linecap="round" stroke-linejoin="round" stroke-width="2"/><path d="M156,55.06V41.51" fill="none" stroke="#181818" stroke-linecap="round" stroke-linejoin="round" stroke-width="2"/><path d="M160.85,53.07,151.2,43.5" fill="none" stroke="#181818" stroke-linecap="round" stroke-linejoin="round" stroke-width="2"/><path d="M156,51.67a3.39,3.39,0,1,0-3.41-3.39A3.4,3.4,0,0,0,156,51.67Z" fill="#181818"/><path d="M156,37a11.29,11.29,0,1,0,11.35,11.28A11.33,11.33,0,0,0,156,37Zm0,18.08a6.77,6.77,0,1,1,6.81-6.77A6.78,6.78,0,0,1,156,55.08Z" fill="#181818"/></g><g  class="back-wheel"><path d="M35.54,48.29H49.16" fill="none" stroke="#181818" stroke-linecap="round" stroke-linejoin="round" stroke-width="2"/><path d="M37.54,53.07l9.65-9.57" fill="none" stroke="#181818" stroke-linecap="round" stroke-linejoin="round" stroke-width="2"/><path d="M42.35,55.06V41.51" fill="none" stroke="#181818" stroke-linecap="round" stroke-linejoin="round" stroke-width="2"/><path d="M47.19,53.07,37.54,43.5" fill="none" stroke="#181818" stroke-linecap="round" stroke-linejoin="round" stroke-width="2"/><path d="M42.35,51.67A3.39,3.39,0,1,0,39,48.28,3.4,3.4,0,0,0,42.35,51.67Z" fill="#181818"/><path d="M42.35,37A11.29,11.29,0,1,0,53.7,48.28,11.33,11.33,0,0,0,42.35,37Zm0,18.08a6.77,6.77,0,1,1,6.81-6.77A6.78,6.78,0,0,1,42.35,55.08Z" fill="#181818"/></g></g></g></g></g></svg>
