<svg xmlns="http://www.w3.org/2000/svg" width="166.85" height="49.12" viewBox="0 0 166.85 49.12"><g  class="Layer_2" data-name="Layer 2"><g  class="chevrolet-corvette"><g  class="solid-body-background"><path d="M15,43.05,3.58,39.84s-4.83-8.9-1.27-15.7L1,17.34l2.58-2.79s48-9.15,56.88-10.92S85.86-.18,93.22,1.85s26.92,9.9,26.92,9.9S147,15,161,22.61a3.86,3.86,0,0,1,2,4.22l-1.44,6.59,4.31,6.42s-9.65,4.26-14.22,4.21" fill="#ecebe1" opacity="0"/></g><g  class="body-car"><path d="M15,43.05,3.58,39.84s-4.83-8.9-1.27-15.7L1,17.34l2.58-2.79s48-9.15,56.88-10.92S85.86-.18,93.22,1.85s26.92,9.9,26.92,9.9S147,15,161,22.61a3.86,3.86,0,0,1,2,4.22l-1.44,6.59,4.31,6.42s-9.65,4.26-14.22,4.21" fill="none" stroke="#000" stroke-linecap="round" stroke-linejoin="round" stroke-width="2"/><line x1="117.86" y1="43.05" x2="45.99" y2="43.05" fill="none" stroke="#000" stroke-linecap="round" stroke-linejoin="round" stroke-width="2"/><path d="M62.75,11.24s3.81,2.54,11.17,3.31,36.06,2,36.06,2" fill="none" stroke="#000" stroke-linecap="round" stroke-linejoin="round" stroke-width="2"/><path d="M79,21.08,62.34,22.25a5.93,5.93,0,0,0-2.47,1.13l-7.53,5.83,6.09,3.71" fill="none" stroke="#000" stroke-linecap="round" stroke-linejoin="round" stroke-width="2"/><path d="M145.71,16.83l-6.16,3.28s14,5.12,21.47,2.5" fill="none" stroke="#000" stroke-linecap="round" stroke-linejoin="round" stroke-width="2"/><path d="M2.11,16.13l16.1.45,5.11,3s-11.66,6-21,4.53" fill="none" stroke="#000" stroke-linecap="round" stroke-linejoin="round" stroke-width="2"/></g><g  class="front-wheel"><line x1="126.18" y1="36.62" x2="141.18" y2="36.62" fill="none" stroke="#000" stroke-linecap="round" stroke-linejoin="round" stroke-width="2"/><line x1="128.38" y1="41.92" x2="138.98" y2="31.32" fill="none" stroke="#000" stroke-linecap="round" stroke-linejoin="round" stroke-width="2"/><line x1="133.68" y1="44.12" x2="133.68" y2="29.12" fill="none" stroke="#000" stroke-linecap="round" stroke-linejoin="round" stroke-width="2"/><line x1="138.98" y1="41.92" x2="128.38" y2="31.32" fill="none" stroke="#000" stroke-linecap="round" stroke-linejoin="round" stroke-width="2"/><circle cx="133.68" cy="36.62" r="3.75"/><path d="M133.67,24.12a12.5,12.5,0,1,0,12.51,12.5A12.5,12.5,0,0,0,133.67,24.12Zm0,20a7.5,7.5,0,1,1,7.5-7.5A7.5,7.5,0,0,1,133.68,44.15Z"/></g><g  class="back-wheel"><line x1="23.21" y1="36.62" x2="38.21" y2="36.62" fill="none" stroke="#000" stroke-linecap="round" stroke-linejoin="round" stroke-width="2"/><line x1="25.41" y1="41.92" x2="36.02" y2="31.32" fill="none" stroke="#000" stroke-linecap="round" stroke-linejoin="round" stroke-width="2"/><line x1="30.71" y1="44.12" x2="30.71" y2="29.12" fill="none" stroke="#000" stroke-linecap="round" stroke-linejoin="round" stroke-width="2"/><line x1="36.02" y1="41.92" x2="25.41" y2="31.32" fill="none" stroke="#000" stroke-linecap="round" stroke-linejoin="round" stroke-width="2"/><circle cx="30.71" cy="36.62" r="3.75"/><path d="M30.71,24.12a12.5,12.5,0,1,0,12.5,12.5A12.5,12.5,0,0,0,30.71,24.12Zm0,20a7.5,7.5,0,1,1,7.5-7.5A7.5,7.5,0,0,1,30.71,44.15Z"/></g></g></g></svg>