<svg xmlns="http://www.w3.org/2000/svg" width="189" height="64" viewBox="0 0 189 64"><g  class="Layer_2" data-name="Layer 2"><g  class="Layer_1-2" data-name="Layer 1"><g  class="Layer_2-2" data-name="Layer 2"><g  class="ford-ranger"><g  class="solid-body-background"><path d="M158.1,33.51c6.85-1.25,17.44.63,19.85,11.09a47.58,47.58,0,0,1,.71,7s5.6,0,6.85-.62S188,46.64,188,46.64v-7.5s-1.87-10-1.87-10.63S183,25.38,183,25.38c-3.74-1.87-38-6.25-38.62-6.25S119.48,5.38,117,4.13,75.25,2.25,75.25,2.25A10.6,10.6,0,0,0,72.14,1V2.25c-4.36.63-6.23,1.88-6.23,1.88C63.42,7.25,62.8,17.26,62.8,17.26H6.73c-3.11,2.5-2.49,21.88-2.49,21.88H1.13c-.63,4.38,1.24,5.63,1.24,5.63,1.87,1.25,19.94,2.5,19.94,2.5A15.57,15.57,0,0,1,23.55,41c2.54-5,5.93-8.41,12.46-8.76,0,0,15-1.09,18.12,5.9S56,50.63,56,50.63l85.68,1S141.56,35.57,158.1,33.51Z" fill="#fff"/></g><g  class="body-car"><path d="M158.1,33.51c6.85-1.25,17.44.63,19.85,11.09a47.58,47.58,0,0,1,.71,7s5.6,0,6.85-.62S188,46.64,188,46.64v-7.5s-1.87-10-1.87-10.63S183,25.38,183,25.38c-3.74-1.87-38-6.25-38.62-6.25S119.48,5.38,117,4.13,75.25,2.25,75.25,2.25A10.6,10.6,0,0,0,72.14,1V2.25c-4.36.63-6.23,1.88-6.23,1.88C63.42,7.25,62.8,17.26,62.8,17.26H6.73c-3.11,2.5-2.49,21.88-2.49,21.88H1.13c-.63,4.38,1.24,5.63,1.24,5.63,1.87,1.25,19.94,2.5,19.94,2.5A15.57,15.57,0,0,1,23.55,41c2.54-5,5.93-8.41,12.46-8.76" fill="none" stroke="#000" stroke-linecap="round" stroke-linejoin="round" stroke-width="2"/><path d="M71.52,4.75s-3.74,11.88,1.24,12.51,41.74,3.75,62.92,5" fill="none" stroke="#000" stroke-linecap="round" stroke-linejoin="round" stroke-width="2"/><path d="M74,23.38l6.85.25" fill="none" stroke="#000" stroke-linecap="round" stroke-linejoin="round" stroke-width="2"/><path d="M107.34,25.17l6.84.43" fill="none" stroke="#000" stroke-linecap="round" stroke-linejoin="round" stroke-width="2"/><path d="M5.49,20.38s6.23,0,5.6,3.13c0,0,0,8.93-2.87,12.35a2.43,2.43,0,0,1-1.77.81l-2,.07" fill="none" stroke="#000" stroke-linecap="round" stroke-linejoin="round" stroke-width="2"/><path d="M186.13,29.76s-1.87-1.88-9.34-1.88c0,0-1.87.63-.63,1.88l3.74,3.13s6.23,1.87,6.85,1.87" fill="none" stroke="#000" stroke-linecap="round" stroke-linejoin="round" stroke-width="2"/><path d="M62.48,49.77l69.77,1.72" fill="none" stroke="#000" stroke-linecap="round" stroke-linejoin="round" stroke-width="2"/></g><g  class="front-wheel"><path d="M153.07,51.5h15" fill="none" stroke="#181818" stroke-linecap="round" stroke-linejoin="round" stroke-width="2"/><path d="M155.25,56.8l10.63-10.6" fill="none" stroke="#181818" stroke-linecap="round" stroke-linejoin="round" stroke-width="2"/><path d="M160.57,59V44" fill="none" stroke="#181818" stroke-linecap="round" stroke-linejoin="round" stroke-width="2"/><path d="M165.88,56.8,155.25,46.2" fill="none" stroke="#181818" stroke-linecap="round" stroke-linejoin="round" stroke-width="2"/><path d="M160.57,55.25a3.75,3.75,0,1,0-3.75-3.75A3.74,3.74,0,0,0,160.57,55.25Z" fill="#181818"/><path d="M160.57,39a12.5,12.5,0,1,0,12.5,12.5A12.51,12.51,0,0,0,160.57,39Zm0,20a7.5,7.5,0,1,1,7.5-7.5A7.5,7.5,0,0,1,160.57,59Z" fill="#181818"/></g><g  class="back-wheel"><path d="M31,51.5H46" fill="none" stroke="#181818" stroke-linecap="round" stroke-linejoin="round" stroke-width="2"/><path d="M33.2,56.8,43.83,46.2" fill="none" stroke="#181818" stroke-linecap="round" stroke-linejoin="round" stroke-width="2"/><path d="M38.5,59V44" fill="none" stroke="#181818" stroke-linecap="round" stroke-linejoin="round" stroke-width="2"/><path d="M43.83,56.8,33.2,46.2" fill="none" stroke="#181818" stroke-linecap="round" stroke-linejoin="round" stroke-width="2"/><path d="M38.5,55.25a3.75,3.75,0,1,0-3.75-3.75A3.75,3.75,0,0,0,38.5,55.25Z" fill="#181818"/><path d="M38.5,39A12.5,12.5,0,1,0,51,51.5,12.5,12.5,0,0,0,38.5,39Zm0,20a7.5,7.5,0,1,1,7.5-7.5A7.5,7.5,0,0,1,38.5,59Z" fill="#181818"/></g></g></g></g></g></svg>
