<svg xmlns="http://www.w3.org/2000/svg" width="173.5" height="52.89" viewBox="0 0 173.5 52.89"><g  class="Layer_2" data-name="Layer 2"><g  class="dodge-challenger"><g  class="solid-body-background"><path d="M21.18,44.94,6.38,42.45s-1.85.34-3.56-6.59c-.69-2.8-1.24-5-1.65-6.53a4.83,4.83,0,0,1,1.24-4.71c1.34-1.28,2.79-3.74,2.72-8.35a2.55,2.55,0,0,1,2.49-2.61c6.27-.09,21.55-.44,23.49-1.68C33.57,10.42,44.39,2,60.33,1.45S90.66-.12,103.47,5.58,122.4,15.4,122.4,15.4s26.48.71,31.89,1.71a78,78,0,0,1,15,4.61,2.07,2.07,0,0,1,.82,3.06c-.77,1.11-2.62,3-2.08,4.76s3.56,2.23,3.56,2.23a1.83,1.83,0,0,1,.75,2.41,72.25,72.25,0,0,1-5.06,8.13s2.27,1.28,2,3.27-11.53,1.24-11.53,1.24" fill="#ecebe1" opacity="0"/></g><g  class="body-car"><path d="M21.18,44.94,6.38,42.45s-1.85.34-3.56-6.59c-.69-2.8-1.24-5-1.65-6.53a4.83,4.83,0,0,1,1.24-4.71c1.34-1.28,2.79-3.74,2.72-8.35a2.55,2.55,0,0,1,2.49-2.61c6.27-.09,21.55-.44,23.49-1.68C33.57,10.42,44.39,2,60.33,1.45S90.66-.12,103.47,5.58,122.4,15.4,122.4,15.4s26.48.71,31.89,1.71a78,78,0,0,1,15,4.61,2.07,2.07,0,0,1,.82,3.06c-.77,1.11-2.62,3-2.08,4.76s3.56,2.23,3.56,2.23a1.83,1.83,0,0,1,.75,2.41,72.25,72.25,0,0,1-5.06,8.13s2.27,1.28,2,3.27-11.53,1.24-11.53,1.24" fill="none" stroke="#000" stroke-linecap="round" stroke-linejoin="round" stroke-width="2"/><path d="M54.21,45.58s58.94,1.2,63.07,1.24" fill="none" stroke="#000" stroke-linecap="round" stroke-linejoin="round" stroke-width="2"/><path d="M56.17,11.31s10.43,4.66,12,5.23,41.43,1.42,43.28,1.57" fill="none" stroke="#000" stroke-linecap="round" stroke-linejoin="round" stroke-width="2"/><line x1="71.44" y1="20.95" x2="76.99" y2="20.95" fill="none" stroke="#000" stroke-linecap="round" stroke-linejoin="round" stroke-width="2"/><line x1="157.83" y1="39.29" x2="162.45" y2="39.29" fill="none" stroke="#000" stroke-linecap="round" stroke-linejoin="round" stroke-width="2"/></g><g  class="front-wheel"><line x1="135.43" y1="40.39" x2="150.43" y2="40.39" fill="none" stroke="#000" stroke-linecap="round" stroke-linejoin="round" stroke-width="2"/><line x1="137.62" y1="45.7" x2="148.23" y2="35.09" fill="none" stroke="#000" stroke-linecap="round" stroke-linejoin="round" stroke-width="2"/><line x1="142.93" y1="47.89" x2="142.93" y2="32.89" fill="none" stroke="#000" stroke-linecap="round" stroke-linejoin="round" stroke-width="2"/><line x1="148.23" y1="45.7" x2="137.62" y2="35.09" fill="none" stroke="#000" stroke-linecap="round" stroke-linejoin="round" stroke-width="2"/><circle cx="142.93" cy="40.39" r="3.75"/><path d="M142.92,27.89a12.5,12.5,0,1,0,12.51,12.5A12.5,12.5,0,0,0,142.92,27.89Zm0,20a7.5,7.5,0,1,1,7.5-7.5A7.5,7.5,0,0,1,142.93,47.93Z"/></g><g  class="back-wheel"><line x1="31.08" y1="40.39" x2="46.08" y2="40.39" fill="none" stroke="#000" stroke-linecap="round" stroke-linejoin="round" stroke-width="2"/><line x1="33.27" y1="45.7" x2="43.88" y2="35.09" fill="none" stroke="#000" stroke-linecap="round" stroke-linejoin="round" stroke-width="2"/><line x1="38.58" y1="47.89" x2="38.58" y2="32.89" fill="none" stroke="#000" stroke-linecap="round" stroke-linejoin="round" stroke-width="2"/><line x1="43.88" y1="45.7" x2="33.27" y2="35.09" fill="none" stroke="#000" stroke-linecap="round" stroke-linejoin="round" stroke-width="2"/><circle cx="38.58" cy="40.39" r="3.75"/><path d="M38.57,27.89a12.5,12.5,0,1,0,12.51,12.5A12.5,12.5,0,0,0,38.57,27.89Zm0,20a7.5,7.5,0,1,1,7.5-7.5A7.5,7.5,0,0,1,38.58,47.93Z"/></g></g></g></svg>