<svg xmlns="http://www.w3.org/2000/svg" width="179.71" height="55.82" viewBox="0 0 179.71 55.82"><g  class="Layer_2" data-name="Layer 2"><g  class="audi-a6"><g  class="solid-body-background" opacity="0"><path d="M22,47.29,6,44.21s-5-1.29-5-5.6c0-6.44,1.4-7.27,2.8-7.55S6.32,14.82,6.32,14.82L22,13.7S45,3.63,54.74,2.23,90.57,0,101.49,3.35s26.31,14,26.31,14,26.59.84,37.51,4.2,12.59,8.68,13.15,13.16a87.78,87.78,0,0,1,0,12.59L163.91,49" fill="#ecebe1"/></g><g  class="body-car"><path d="M22,47.29,6,44.21s-5-1.29-5-5.6c0-6.44,1.4-7.27,2.8-7.55S6.32,14.82,6.32,14.82L22,13.7S45,3.63,54.74,2.23,90.57,0,101.49,3.35s26.31,14,26.31,14,26.59.84,37.51,4.2,12.59,8.68,13.15,13.16a87.78,87.78,0,0,1,0,12.59L163.91,49" fill="none" stroke="#000" stroke-linecap="round" stroke-linejoin="round" stroke-width="2"/><line x1="54.46" y1="48.97" x2="127.52" y2="48.97" fill="none" stroke="#000" stroke-linecap="round" stroke-linejoin="round" stroke-width="2"/><path d="M122.2,19s-27.43-2.8-35.83-2.52-55.7,0-55.7,0a108.1,108.1,0,0,1,14.76-5.69" fill="none" stroke="#000" stroke-linecap="round" stroke-linejoin="round" stroke-width="2"/><line x1="49.39" y1="22.64" x2="57.08" y2="22.64" fill="none" stroke="#000" stroke-linecap="round" stroke-linejoin="round" stroke-width="2"/><line x1="86.42" y1="22.64" x2="95.53" y2="22.64" fill="none" stroke="#000" stroke-linecap="round" stroke-linejoin="round" stroke-width="2"/><path d="M5.89,20.13l13.19-.91a1,1,0,0,1,.72,1.69l-6.26,5.64a2.91,2.91,0,0,1-3.31.42L5.39,24.42" fill="none" stroke="#000" stroke-linecap="round" stroke-linejoin="round" stroke-width="2"/><polyline points="174.51 26.35 160.86 26.35 165.64 33.08 171.96 33.08 173.26 30.36 177.38 30.37" fill="none" stroke="#000" stroke-linecap="round" stroke-linejoin="round" stroke-width="2"/></g><g  class="front-wheel"><line x1="140.86" y1="43.32" x2="155.86" y2="43.32" fill="none" stroke="#000" stroke-linecap="round" stroke-linejoin="round" stroke-width="2"/><line x1="143.06" y1="48.63" x2="153.66" y2="38.02" fill="none" stroke="#000" stroke-linecap="round" stroke-linejoin="round" stroke-width="2"/><line x1="148.36" y1="50.82" x2="148.36" y2="35.82" fill="none" stroke="#000" stroke-linecap="round" stroke-linejoin="round" stroke-width="2"/><line x1="153.66" y1="48.63" x2="143.06" y2="38.02" fill="none" stroke="#000" stroke-linecap="round" stroke-linejoin="round" stroke-width="2"/><circle cx="148.36" cy="43.32" r="3.75"/><path d="M148.36,30.82a12.5,12.5,0,1,0,12.5,12.5A12.5,12.5,0,0,0,148.36,30.82Zm0,20a7.5,7.5,0,1,1,7.5-7.5A7.5,7.5,0,0,1,148.36,50.86Z"/></g><g  class="back-wheel"><line x1="29.93" y1="43.32" x2="44.93" y2="43.32" fill="none" stroke="#000" stroke-linecap="round" stroke-linejoin="round" stroke-width="2"/><line x1="32.12" y1="48.63" x2="42.73" y2="38.02" fill="none" stroke="#000" stroke-linecap="round" stroke-linejoin="round" stroke-width="2"/><line x1="37.43" y1="50.82" x2="37.43" y2="35.82" fill="none" stroke="#000" stroke-linecap="round" stroke-linejoin="round" stroke-width="2"/><line x1="42.73" y1="48.63" x2="32.12" y2="38.02" fill="none" stroke="#000" stroke-linecap="round" stroke-linejoin="round" stroke-width="2"/><circle cx="37.43" cy="43.32" r="3.75"/><path d="M37.42,30.82a12.5,12.5,0,1,0,12.51,12.5A12.5,12.5,0,0,0,37.42,30.82Zm0,20a7.5,7.5,0,1,1,7.5-7.5A7.5,7.5,0,0,1,37.43,50.86Z"/></g></g></g></svg>