<svg xmlns="http://www.w3.org/2000/svg" width="142.34" height="96.51" viewBox="0 0 142.34 96.51"><g  class="Layer_2" data-name="Layer 2"><g  class="trailer"><path  class="solid-body-background" d="M72.57,85.54h68.77V80.48H119.91s3-24.4,3-41.4C122.87,15,115.33,1,96.49,1H25.73C14,1,1,10.5,1,46,1,60.75,4.71,71.47,7.64,77.63c1.77,3.72,5.5,7.91,9.62,7.91H27.94" fill="transparent" opacity="0"/><g  class="body-car"><path d="M72.57,85.54h68.77V80.48H119.91s3-24.4,3-41.4C122.87,15,115.33,1,96.49,1H25.73C14,1,1,10.5,1,46,1,60.75,4.71,71.47,7.64,77.63c1.77,3.72,5.5,7.91,9.62,7.91H27.94" fill="none" stroke="#000" stroke-linecap="round" stroke-linejoin="round" stroke-width="2"/><path d="M31.25,23.38V36.67a5.11,5.11,0,0,0,5.1,5.1h9.54" fill="none" stroke="#000" stroke-linecap="round" stroke-linejoin="round" stroke-width="2"/><line x1="92.24" y1="46.62" x2="94.64" y2="46.62" fill="none" stroke="#000" stroke-linecap="round" stroke-linejoin="round" stroke-width="2"/><line x1="134.75" y1="72.58" x2="134.75" y2="80.16" fill="none" stroke="#000" stroke-linecap="round" stroke-linejoin="round" stroke-width="2"/><line x1="134.75" y1="85.54" x2="134.75" y2="95.28" fill="none" stroke="#000" stroke-linecap="round" stroke-linejoin="round" stroke-width="2"/><path d="M100.46,72.94V21.08A5.44,5.44,0,0,0,95,15.64H80.17a5.44,5.44,0,0,0-5.45,5.44v31" fill="none" stroke="#000" stroke-linecap="round" stroke-linejoin="round" stroke-width="2"/></g><g  class="back-wheel"><path d="M48,71A12.78,12.78,0,1,0,60.8,83.73,12.79,12.79,0,0,0,48,71Zm0,19.93a7.15,7.15,0,1,1,7.16-7.15A7.15,7.15,0,0,1,48.05,90.88Z"/><line x1="48.05" y1="83.73" x2="48.05" y2="74.54" fill="none" stroke="#000" stroke-linecap="round" stroke-linejoin="round" stroke-width="2"/><line x1="48.05" y1="83.73" x2="41.55" y2="77.23" fill="none" stroke="#000" stroke-linecap="round" stroke-linejoin="round" stroke-width="2"/><line x1="48.05" y1="83.73" x2="38.86" y2="83.73" fill="none" stroke="#000" stroke-linecap="round" stroke-linejoin="round" stroke-width="2"/><line x1="48.05" y1="83.73" x2="41.55" y2="90.24" fill="none" stroke="#000" stroke-linecap="round" stroke-linejoin="round" stroke-width="2"/><line x1="48.05" y1="83.73" x2="48.05" y2="92.93" fill="none" stroke="#000" stroke-linecap="round" stroke-linejoin="round" stroke-width="2"/><line x1="48.05" y1="83.73" x2="54.55" y2="90.24" fill="none" stroke="#000" stroke-linecap="round" stroke-linejoin="round" stroke-width="2"/><line x1="48.05" y1="83.73" x2="57.25" y2="83.73" fill="none" stroke="#000" stroke-linecap="round" stroke-linejoin="round" stroke-width="2"/><line x1="48.05" y1="83.73" x2="54.55" y2="77.23" fill="none" stroke="#000" stroke-linecap="round" stroke-linejoin="round" stroke-width="2"/><circle cx="48.01" cy="83.73" r="3.25"/></g></g></g></svg>