<svg xmlns="http://www.w3.org/2000/svg" width="169.15" height="52" viewBox="0 0 169.15 52"><g  class="Layer_2" data-name="Layer 2"><g  class="chevrolet-camaro"><g  class="solid-body-background" opacity="0"><path d="M22,43.32S6,41.67,2.89,35.85,1.42,22.12,1.42,22.12l3.23-2.35L4.06,12H18a22.44,22.44,0,0,0,6.31-.91c6.57-1.94,21.5-6.28,23.33-6.28L46.54,1s6.8.15,9,1.17c0,0,27.57-1.17,32.7,0s27.27,12.76,27.27,12.76,8.38.15,13.43.15,28.08,2.34,37,8.8a9.11,9.11,0,0,0,1.47,6.55c2.2,3.27-2.06,8.41-2.06,8.41l2.21,1.67a1.44,1.44,0,0,1,0,2.3c-1.74,1.29-4.78,3.19-7.77,3.25" fill="#ecebe1"/></g><g  class="body-car"><path d="M22,43.32S6,41.67,2.89,35.85,1.42,22.12,1.42,22.12l3.23-2.35L4.06,12H18a22.44,22.44,0,0,0,6.31-.91c6.57-1.94,21.5-6.28,23.33-6.28L46.54,1s6.8.15,9,1.17c0,0,27.57-1.17,32.7,0s27.27,12.76,27.27,12.76,8.38.15,13.43.15,28.08,2.34,37,8.8a9.11,9.11,0,0,0,1.47,6.55c2.2,3.27-2.06,8.41-2.06,8.41l2.21,1.67a1.44,1.44,0,0,1,0,2.3c-1.74,1.29-4.78,3.19-7.77,3.25" fill="none" stroke="#000" stroke-linecap="round" stroke-linejoin="round" stroke-width="2"/><path d="M52,44.17s55.58,2.08,61.88,1.89" fill="none" stroke="#000" stroke-linecap="round" stroke-linejoin="round" stroke-width="2"/><line x1="65.65" y1="24.17" x2="73.72" y2="24.76" fill="none" stroke="#000" stroke-linecap="round" stroke-linejoin="round" stroke-width="2"/><polyline points="49.94 14.49 65.65 19.18 107.3 21.38" fill="none" stroke="#000" stroke-linecap="round" stroke-linejoin="round" stroke-width="2"/><polyline points="166.25 27.96 156.53 25.54 159.27 30.66 167.84 34.2" fill="none" stroke="#000" stroke-linecap="round" stroke-linejoin="round" stroke-width="2"/><path d="M4.43,16.84s8.79-.79,12.83,2.78a7.54,7.54,0,0,1-5.84,3.91c-3.84.24-10-1.41-10-1.41" fill="none" stroke="#000" stroke-linecap="round" stroke-linejoin="round" stroke-width="2"/></g><g  class="front-wheel"><line x1="134.3" y1="39.5" x2="149.3" y2="39.5" fill="none" stroke="#000" stroke-linecap="round" stroke-linejoin="round" stroke-width="2"/><line x1="136.5" y1="44.8" x2="147.1" y2="34.2" fill="none" stroke="#000" stroke-linecap="round" stroke-linejoin="round" stroke-width="2"/><line x1="141.8" y1="47" x2="141.8" y2="32" fill="none" stroke="#000" stroke-linecap="round" stroke-linejoin="round" stroke-width="2"/><line x1="147.1" y1="44.8" x2="136.5" y2="34.2" fill="none" stroke="#000" stroke-linecap="round" stroke-linejoin="round" stroke-width="2"/><circle cx="141.8" cy="39.5" r="3.75"/><path d="M141.8,27a12.5,12.5,0,1,0,12.5,12.5A12.5,12.5,0,0,0,141.8,27Zm0,20a7.5,7.5,0,1,1,7.5-7.5A7.5,7.5,0,0,1,141.8,47Z"/></g><g  class="back-wheel"><line x1="30.06" y1="39.5" x2="45.06" y2="39.5" fill="none" stroke="#000" stroke-linecap="round" stroke-linejoin="round" stroke-width="2"/><line x1="32.25" y1="44.8" x2="42.86" y2="34.2" fill="none" stroke="#000" stroke-linecap="round" stroke-linejoin="round" stroke-width="2"/><line x1="37.56" y1="47" x2="37.56" y2="32" fill="none" stroke="#000" stroke-linecap="round" stroke-linejoin="round" stroke-width="2"/><line x1="42.86" y1="44.8" x2="32.25" y2="34.2" fill="none" stroke="#000" stroke-linecap="round" stroke-linejoin="round" stroke-width="2"/><circle cx="37.56" cy="39.5" r="3.75"/><path d="M37.55,27A12.5,12.5,0,1,0,50.06,39.5,12.5,12.5,0,0,0,37.55,27Zm0,20a7.5,7.5,0,1,1,7.5-7.5A7.5,7.5,0,0,1,37.56,47Z"/></g></g></g></svg>