<svg xmlns="http://www.w3.org/2000/svg" width="183.71" height="60.95" viewBox="0 0 183.71 60.95"><g  class="Layer_2" data-name="Layer 2"><g  class="toyota-tundra"><g  class="solid-body-background" opacity="0"><path d="M37.45,28.92s-9.7-1.61-11.76,2.65-4,13.68-4,13.68L2.18,43.92,1,36H4.67s-2.35-10.72,0-20.71H61.11S63,1,68,1H112a28.5,28.5,0,0,1,15.29,5c5.37,4.16,14,10.43,18.66,10.73s26.16,1.91,30.28,4.7c1.3.88,1.6,2.45,2.14,2.74,4.13,2.22,1.09,8.72,1.09,8.72s2.79,4,2.94,5.59,1.47,5.88-2.2,7.64a30.06,30.06,0,0,1-7.35,2.34H56.4S55.41,29.36,37.45,28.92Z" fill="#ecebe1"/></g><g  class="body-car"><path d="M37.45,28.92s-9.7-1.61-11.76,2.65-4,13.68-4,13.68L2.18,43.92,1,36H4.67s-2.35-10.72,0-20.71H61.11S63,1,68,1H112a28.5,28.5,0,0,1,15.29,5c5.37,4.16,14,10.43,18.66,10.73s26.16,1.91,30.28,4.7c1.3.88,1.6,2.45,2.14,2.74,4.13,2.22,1.09,8.72,1.09,8.72s2.79,4,2.94,5.59,1.47,5.88-2.2,7.64a30.06,30.06,0,0,1-7.35,2.34" fill="none" stroke="#000" stroke-linecap="round" stroke-linejoin="round" stroke-width="2"/><path d="M155.32,30.54s-9.29-1.62-11.11,3.82S140,47.74,140,47.74H84.33" fill="none" stroke="#000" stroke-linecap="round" stroke-linejoin="round" stroke-width="2"/><path d="M73.15,8.11l-1.37,5.74s-.55,3.28,10.66,3.28,42.64.94,42.64.94" fill="none" stroke="#000" stroke-linecap="round" stroke-linejoin="round" stroke-width="2"/><line x1="66.45" y1="21.36" x2="74.2" y2="21.36" fill="none" stroke="#000" stroke-linecap="round" stroke-linejoin="round" stroke-width="2"/><line x1="104.23" y1="22.39" x2="111.91" y2="22.39" fill="none" stroke="#000" stroke-linecap="round" stroke-linejoin="round" stroke-width="2"/><path d="M4.14,18.07l8,2.43.69,9.65s-1.91,3.75-8.45,3.94" fill="none" stroke="#000" stroke-linecap="round" stroke-linejoin="round" stroke-width="2"/><path d="M179.42,32.89c-3.67.43-10.3-4.78-11.72-6.22-1.08-1.09,0-3.13,0-3.13a28.62,28.62,0,0,1,10.6.57" fill="none" stroke="#000" stroke-linecap="round" stroke-linejoin="round" stroke-width="2"/></g><g  class="front-wheel"><line x1="148.94" y1="48.45" x2="163.94" y2="48.45" fill="none" stroke="#000" stroke-linecap="round" stroke-linejoin="round" stroke-width="2"/><line x1="151.14" y1="53.75" x2="161.75" y2="43.15" fill="none" stroke="#000" stroke-linecap="round" stroke-linejoin="round" stroke-width="2"/><line x1="156.44" y1="55.95" x2="156.44" y2="40.95" fill="none" stroke="#000" stroke-linecap="round" stroke-linejoin="round" stroke-width="2"/><line x1="161.75" y1="53.75" x2="151.14" y2="43.15" fill="none" stroke="#000" stroke-linecap="round" stroke-linejoin="round" stroke-width="2"/><circle cx="156.44" cy="48.45" r="3.75"/><path d="M156.44,36a12.5,12.5,0,1,0,12.5,12.5A12.5,12.5,0,0,0,156.44,36Zm0,20a7.5,7.5,0,1,1,7.5-7.5A7.5,7.5,0,0,1,156.44,56Z"/></g><g  class="back-wheel"><line x1="30.89" y1="48.45" x2="45.89" y2="48.45" fill="none" stroke="#000" stroke-linecap="round" stroke-linejoin="round" stroke-width="2"/><line x1="33.08" y1="53.75" x2="43.69" y2="43.15" fill="none" stroke="#000" stroke-linecap="round" stroke-linejoin="round" stroke-width="2"/><line x1="38.39" y1="55.95" x2="38.39" y2="40.95" fill="none" stroke="#000" stroke-linecap="round" stroke-linejoin="round" stroke-width="2"/><line x1="43.69" y1="53.75" x2="33.08" y2="43.15" fill="none" stroke="#000" stroke-linecap="round" stroke-linejoin="round" stroke-width="2"/><circle cx="38.39" cy="48.45" r="3.75"/><path d="M38.38,36a12.5,12.5,0,1,0,12.51,12.5A12.5,12.5,0,0,0,38.38,36Zm0,20a7.5,7.5,0,1,1,7.5-7.5A7.49,7.49,0,0,1,38.39,56Z"/></g></g></g></svg>