<svg xmlns="http://www.w3.org/2000/svg" width="188.86" height="72.74" viewBox="0 0 188.86 72.74"><g  class="Layer_2" data-name="Layer 2"><g  class="minivan"><g  class="solid-body-background"><path  class="Vector" d="M179.28,63.22c5.57,0,9.19-5.08,8.5-10.61-.93-7.55-1.56-22.35-10.12-23.44-8.31-1.05-41.16-6.51-41.16-6.51s-15-14.4-25.95-18c-13-4.27-78.8-5.09-90.9-.86a18.2,18.2,0,0,0-9.09,7.59C7.29,16.62,1,34.9,1,52.8a8.35,8.35,0,0,0,4.38,7.34c3,1.63,7.94,3.78,7.94,3.78" fill="#ecebe1" opacity="0"/></g><g  class="body-car"><path d="M184.81,37.72H177a2.19,2.19,0,0,0-2,3.18l1.67,3.28a3.71,3.71,0,0,0,3.31,2h7.06" fill="none" stroke="#000" stroke-linecap="round" stroke-linejoin="round" stroke-width="2"/><polyline points="61.75 63.22 61.75 63.22 109.45 63.22" fill="none" stroke="#000" stroke-linecap="round" stroke-linejoin="round" stroke-width="2"/><path d="M179.28,63.22c5.57,0,9.19-5.08,8.5-10.61-.93-7.55-1.56-22.35-10.12-23.44-8.31-1.05-41.16-6.51-41.16-6.51s-15-14.4-25.95-18c-13-4.27-78.8-5.09-90.9-.86a18.2,18.2,0,0,0-9.09,7.59C7.29,16.62,1,34.9,1,52.8a8.35,8.35,0,0,0,4.38,7.34c3,1.63,7.94,3.78,7.94,3.78" fill="none" stroke="#000" stroke-linecap="round" stroke-linejoin="round" stroke-width="2"/><line x1="108.49" y1="32.68" x2="103.71" y2="32.68" fill="none" stroke="#000" stroke-linecap="round" stroke-linejoin="round" stroke-width="2"/><line x1="83.42" y1="32.94" x2="87.61" y2="32.94" fill="none" stroke="#000" stroke-linecap="round" stroke-linejoin="round" stroke-width="2"/><path d="M90.92,25.41H34.3s-13.41,0-19.41-6.2" fill="none" stroke="#000" stroke-linecap="round" stroke-linejoin="round" stroke-width="2"/><path d="M2.82,34.9H9.13a2.5,2.5,0,0,1,2.5,2.51v6.3a2.51,2.51,0,0,1-2.5,2.51h-8" fill="none" stroke="#000" stroke-linecap="round" stroke-linejoin="round" stroke-width="2"/><line x1="93.62" y1="30.44" x2="93.62" y2="52.24" fill="none" stroke="#000" stroke-linecap="round" stroke-linejoin="round" stroke-width="2"/><line x1="101.32" y1="25.41" x2="128.99" y2="25.41" fill="none" stroke="#000" stroke-linecap="round" stroke-linejoin="round" stroke-width="2"/></g><g  class="front-wheel"><line x1="144.87" y1="60.24" x2="159.87" y2="60.24" fill="none" stroke="#000" stroke-linecap="round" stroke-linejoin="round" stroke-width="2"/><line x1="147.07" y1="65.54" x2="157.68" y2="54.93" fill="none" stroke="#000" stroke-linecap="round" stroke-linejoin="round" stroke-width="2"/><line x1="152.37" y1="67.74" x2="152.37" y2="52.74" fill="none" stroke="#000" stroke-linecap="round" stroke-linejoin="round" stroke-width="2"/><line x1="157.68" y1="65.54" x2="147.07" y2="54.93" fill="none" stroke="#000" stroke-linecap="round" stroke-linejoin="round" stroke-width="2"/><circle cx="152.37" cy="60.24" r="3.75"/><path d="M152.37,47.74a12.5,12.5,0,1,0,12.5,12.5A12.5,12.5,0,0,0,152.37,47.74Zm0,20a7.5,7.5,0,1,1,7.5-7.5A7.5,7.5,0,0,1,152.37,67.77Z"/></g><g  class="back-wheel"><line x1="31.57" y1="60.24" x2="46.57" y2="60.24" fill="none" stroke="#000" stroke-linecap="round" stroke-linejoin="round" stroke-width="2"/><line x1="33.77" y1="65.54" x2="44.37" y2="54.93" fill="none" stroke="#000" stroke-linecap="round" stroke-linejoin="round" stroke-width="2"/><line x1="39.07" y1="67.74" x2="39.07" y2="52.74" fill="none" stroke="#000" stroke-linecap="round" stroke-linejoin="round" stroke-width="2"/><line x1="44.37" y1="65.54" x2="33.77" y2="54.93" fill="none" stroke="#000" stroke-linecap="round" stroke-linejoin="round" stroke-width="2"/><circle cx="39.07" cy="60.24" r="3.75"/><path d="M39.07,47.74a12.5,12.5,0,1,0,12.5,12.5A12.5,12.5,0,0,0,39.07,47.74Zm0,20a7.5,7.5,0,1,1,7.5-7.5A7.5,7.5,0,0,1,39.07,67.77Z"/></g></g></g></svg>