<svg xmlns="http://www.w3.org/2000/svg" width="188" height="59" viewBox="0 0 188 59"><g  class="Layer_2" data-name="Layer 2"><g  class="Layer_1-2" data-name="Layer 1"><g  class="Layer_2-2" data-name="Layer 2"><g  class="nissan-maxima"><g  class="solid-body-background"><path d="M170.41,49.55l5.35-.53A48.29,48.29,0,0,0,184.32,48c4.29-2.66,2.14-10.64,2.14-12.77s-2.67-8.52-2.67-8.52c-9.3-7.64-31.13-9.5-41.24-10a30.61,30.61,0,0,1-10.67-2.43L103.52,2.18c-3.75-2.66-43.89,0-43.89,0H54.28l-.53,1.07C46.22,4.65,29.17,11,25.17,12.5a6,6,0,0,1-1.76.38L10.2,14.83c-.42.06-.85.11-1.27.14-1.13.09-4.23.53-3.35,3.19,0,0,1.07,8.52-.53,11.18a42.84,42.84,0,0,1-3.6,4.11.73.73,0,0,0-.2.35c-.64,2.49.09,5.62.63,7.41A6.94,6.94,0,0,0,3.2,43.64l.45.53a5.38,5.38,0,0,0,3.56,1.9L19.5,47.43c4.28.53,7,1.06,7,1.06" fill="#fff"/></g><g  class="body-car"><path d="M170.41,49.55l5.35-.53A48.29,48.29,0,0,0,184.32,48c4.29-2.66,2.14-10.64,2.14-12.77s-2.67-8.52-2.67-8.52c-9.3-7.64-31.13-9.5-41.24-10a30.61,30.61,0,0,1-10.67-2.43L103.52,2.18c-3.75-2.66-43.89,0-43.89,0H54.28l-.53,1.07C46.22,4.65,29.17,11,25.17,12.5a6,6,0,0,1-1.76.38L10.2,14.83c-.42.06-.85.11-1.27.14-1.13.09-4.23.53-3.35,3.19,0,0,1.07,8.52-.53,11.18a42.84,42.84,0,0,1-3.6,4.11.73.73,0,0,0-.2.35c-.64,2.49.09,5.62.63,7.41A6.94,6.94,0,0,0,3.2,43.64l.45.53a5.38,5.38,0,0,0,3.56,1.9L19.5,47.43c4.28.53,7,1.06,7,1.06" fill="none" stroke="#000" stroke-linecap="round" stroke-linejoin="round" stroke-width="2"/><path d="M181.72,28.64v.63a1.55,1.55,0,0,0,.35,1,5.49,5.49,0,0,1,1.22,2.34.43.43,0,0,1,0,.16.38.38,0,0,1-.09.13.27.27,0,0,1-.13.07.26.26,0,0,1-.15,0c-2-.4-10.35-2.13-10.82-2.58s-9.64-4.26-6.43-4.79h8a35.06,35.06,0,0,1,7.7,2.47.69.69,0,0,1,.24.24.66.66,0,0,1,.09.33Z" fill="none" stroke="#000" stroke-linecap="round" stroke-linejoin="round" stroke-width="2"/><path d="M48.92,8,46.1,11.32a.31.31,0,0,0-.09.18.44.44,0,0,0,0,.2.51.51,0,0,0,.09.18.4.4,0,0,0,.16.13c2,.92,9,4.09,11.77,4.54,3.21.53,55.13,3.2,69,1.6" fill="none" stroke="#000" stroke-linecap="round" stroke-linejoin="round" stroke-width="2"/><path d="M52.67,22.41h6.42" fill="none" stroke="#000" stroke-linecap="round" stroke-linejoin="round" stroke-width="2"/><path d="M91.47,24.54h6.42" fill="none" stroke="#000" stroke-linecap="round" stroke-linejoin="round" stroke-width="2"/><path d="M64.44,49.55l66.37.53" fill="none" stroke="#000" stroke-linecap="round" stroke-linejoin="round" stroke-width="2"/><path d="M6.11,23.47c1.24,1.07,3.12,2.44,4.22,2.59,0,0,4.24.22,5.35.15a.34.34,0,0,0,.15-.06.28.28,0,0,0,.1-.14.26.26,0,0,0,0-.15.26.26,0,0,0-.07-.14l-4.4-3.31c-.08-.08.71-.54.83-.54l8.26-.53a3.56,3.56,0,0,0,2-1.87.28.28,0,0,0,0-.09.13.13,0,0,0,0-.08l-.06-.06-.09,0s-15.24,0-16.31.54" fill="none" stroke="#000" stroke-linecap="round" stroke-linejoin="round" stroke-width="2"/></g><g  class="front-wheel"><path d="M145.07,46.5h15" fill="none" stroke="#181818" stroke-linecap="round" stroke-linejoin="round" stroke-width="2"/><path d="M147.25,51.8l10.62-10.6" fill="none" stroke="#181818" stroke-linecap="round" stroke-linejoin="round" stroke-width="2"/><path d="M152.57,54V39" fill="none" stroke="#181818" stroke-linecap="round" stroke-linejoin="round" stroke-width="2"/><path d="M157.87,51.8,147.25,41.2" fill="none" stroke="#181818" stroke-linecap="round" stroke-linejoin="round" stroke-width="2"/><path d="M152.57,50.25a3.75,3.75,0,1,0-3.75-3.75A3.74,3.74,0,0,0,152.57,50.25Z" fill="#181818"/><path d="M152.57,34a12.5,12.5,0,1,0,12.5,12.5A12.51,12.51,0,0,0,152.57,34Zm0,20a7.5,7.5,0,1,1,7.5-7.5A7.5,7.5,0,0,1,152.57,54Z" fill="#181818"/></g><g  class="back-wheel"><path d="M36,46.5H51" fill="none" stroke="#181818" stroke-linecap="round" stroke-linejoin="round" stroke-width="2"/><path d="M38.2,51.8,48.83,41.2" fill="none" stroke="#181818" stroke-linecap="round" stroke-linejoin="round" stroke-width="2"/><path d="M43.5,54V39" fill="none" stroke="#181818" stroke-linecap="round" stroke-linejoin="round" stroke-width="2"/><path d="M48.83,51.8,38.2,41.2" fill="none" stroke="#181818" stroke-linecap="round" stroke-linejoin="round" stroke-width="2"/><path d="M43.5,50.25a3.75,3.75,0,1,0-3.75-3.75A3.75,3.75,0,0,0,43.5,50.25Z" fill="#181818"/><path d="M43.5,34A12.5,12.5,0,1,0,56,46.5,12.5,12.5,0,0,0,43.5,34Zm0,20a7.5,7.5,0,1,1,7.5-7.5A7.5,7.5,0,0,1,43.5,54Z" fill="#181818"/></g></g></g></g></g></svg>
