<svg xmlns="http://www.w3.org/2000/svg" width="172" height="61.57" viewBox="0 0 172 61.57"><g  class="Layer_2" data-name="Layer 2"><g  class="Layer_1-2" data-name="Layer 1"><g  class="Layer_2-2" data-name="Layer 2"><g  class="toyota-sienna"><g  class="solid-body-background"><path d="M157.22,51.92H162l8.94-1.19L169.74,49s2.38-9.51.6-11.88a32.67,32.67,0,0,0-2.39-3s-.15-3.09-3.75-6.35S154,21.29,140.92,20.51a6.57,6.57,0,0,1-3-.91c-5.15-3-23-13.27-29.58-15.81C100.84.91,21.45-.29,13,2.36a.44.44,0,0,0-.19.1.52.52,0,0,0-.11.19.5.5,0,0,0,0,.21.72.72,0,0,0,.09.2L14,4.69a.39.39,0,0,1,.08.27.41.41,0,0,1-.13.27C12.25,6.76,3.41,15.11,2.87,21c-.6,6.53,2.38,11.88-1.19,14.85,0,0-2.39,10.1,1.79,11.88s16.68,3.57,17.87,3" fill="#fff"/></g><g  class="body-car"><path d="M157.22,52H162l8.94-1.19-1.19-1.78s2.38-9.51.6-11.89a35.68,35.68,0,0,0-2.39-3s-.15-3.09-3.75-6.34S154,21.4,140.92,20.62a6.68,6.68,0,0,1-3-.9c-5.15-3-23-13.28-29.58-15.81C100.84,1,21.45-.18,13,2.47a.45.45,0,0,0-.19.11.42.42,0,0,0-.11.18.53.53,0,0,0,0,.22.66.66,0,0,0,.09.19L14,4.8a.4.4,0,0,1,.08.28.38.38,0,0,1-.13.26c-1.67,1.53-10.51,9.88-11,15.8C2.27,27.68,5.25,33,1.68,36c0,0-2.39,10.1,1.79,11.89s16.68,3.56,17.87,3" fill="none" stroke="#000" stroke-linecap="round" stroke-linejoin="round" stroke-width="2"/><path d="M164.38,28.27l-13.12-3s-.59.59,0,1.78S165,30.65,168,34.21" fill="none" stroke="#000" stroke-linecap="round" stroke-linejoin="round" stroke-width="2"/><path d="M27.91,3.91s-6.56.59-11.33,8.91c0,0-3.57,5.94,3.58,6.54s103.69,4.16,104.29,3.56" fill="none" stroke="#000" stroke-linecap="round" stroke-linejoin="round" stroke-width="2"/><path d="M97.63,25.3H90.48" fill="none" stroke="#000" stroke-linecap="round" stroke-linejoin="round" stroke-width="2"/><path d="M85.12,25.3H78" fill="none" stroke="#000" stroke-linecap="round" stroke-linejoin="round" stroke-width="2"/><path d="M123.26,52.63H58.89" fill="none" stroke="#000" stroke-linecap="round" stroke-linejoin="round" stroke-width="2"/><path d="M5.15,17s.11,4.56,1.9,4.56h8.64a.38.38,0,0,1,.1,0,.27.27,0,0,1,.08.07.15.15,0,0,1,0,.09.21.21,0,0,1,0,.11c-.29,1-1.38,4.46-2.9,4.46-1.79,0-8,.31-10-.14" fill="none" stroke="#000" stroke-linecap="round" stroke-linejoin="round" stroke-width="2"/></g><g  class="front-wheel"><path d="M135.23,50.29h13.62" fill="none" stroke="#181818" stroke-linecap="round" stroke-linejoin="round" stroke-width="2"/><path d="M137.2,55.07l9.65-9.57" fill="none" stroke="#181818" stroke-linecap="round" stroke-linejoin="round" stroke-width="2"/><path d="M142,57.06V43.51" fill="none" stroke="#181818" stroke-linecap="round" stroke-linejoin="round" stroke-width="2"/><path d="M146.85,55.07,137.2,45.5" fill="none" stroke="#181818" stroke-linecap="round" stroke-linejoin="round" stroke-width="2"/><path d="M142,53.67a3.39,3.39,0,1,0-3.41-3.39A3.4,3.4,0,0,0,142,53.67Z" fill="#181818"/><path d="M142,39a11.29,11.29,0,1,0,11.35,11.28A11.33,11.33,0,0,0,142,39Zm0,18.08a6.77,6.77,0,1,1,6.81-6.77A6.78,6.78,0,0,1,142,57.08Z" fill="#181818"/></g><g  class="back-wheel"><path d="M29.54,50.29H43.16" fill="none" stroke="#181818" stroke-linecap="round" stroke-linejoin="round" stroke-width="2"/><path d="M31.54,55.07l9.65-9.57" fill="none" stroke="#181818" stroke-linecap="round" stroke-linejoin="round" stroke-width="2"/><path d="M36.35,57.06V43.51" fill="none" stroke="#181818" stroke-linecap="round" stroke-linejoin="round" stroke-width="2"/><path d="M41.19,55.07,31.54,45.5" fill="none" stroke="#181818" stroke-linecap="round" stroke-linejoin="round" stroke-width="2"/><path d="M36.35,53.67A3.39,3.39,0,1,0,33,50.28,3.4,3.4,0,0,0,36.35,53.67Z" fill="#181818"/><path d="M36.35,39A11.29,11.29,0,1,0,47.7,50.28,11.33,11.33,0,0,0,36.35,39Zm0,18.08a6.77,6.77,0,1,1,6.81-6.77A6.78,6.78,0,0,1,36.35,57.08Z" fill="#181818"/></g></g></g></g></g></svg>
