<svg xmlns="http://www.w3.org/2000/svg" width="183.92" height="56.76" viewBox="0 0 183.92 56.76"><g  class="Layer_2" data-name="Layer 2"><g  class="sedan"><g  class="solid-body-background"><path  class="Vector" d="M25.37,45.47c-6.89,0-17.07-2.91-20.86-3.24A3.83,3.83,0,0,1,1,38.31c0-1.62.08-3.6.08-5.42,0-7.43,4.34-8.13,4.34-14.67C5.42,13.79,9,13.76,9,13.76H28.18C32.54,13.76,40.72,1,59,1H87s16,0,25,5,17,8.76,17,8.76,30.34,2.8,43,4.46a7.9,7.9,0,0,1,6.31,4.93c6.13,15.51,7.37,22.61-4,22.61" fill="#ecebe1" opacity="0"/></g><g  class="body-car"><polyline points="63.71 46.76 63.71 46.76 124.08 46.76" fill="none" stroke="#000" stroke-linecap="round" stroke-linejoin="round" stroke-width="2"/><path d="M25.37,45.47c-6.89,0-17.07-2.91-20.86-3.24A3.83,3.83,0,0,1,1,38.31c0-1.62.08-3.6.08-5.42,0-7.43,4.34-8.13,4.34-14.67C5.42,13.79,9,13.76,9,13.76H28.18C32.54,13.76,40.72,1,59,1H87s16,0,25,5,17,8.76,17,8.76,30.34,2.8,43,4.46a7.9,7.9,0,0,1,6.31,4.93c6.13,15.51,7.37,22.61-4,22.61" fill="none" stroke="#000" stroke-linecap="round" stroke-linejoin="round" stroke-width="2"/><line x1="88.96" y1="21.76" x2="82.96" y2="21.76" fill="none" stroke="#000" stroke-linecap="round" stroke-linejoin="round" stroke-width="2"/><line x1="49.96" y1="21.76" x2="55.96" y2="21.76" fill="none" stroke="#000" stroke-linecap="round" stroke-linejoin="round" stroke-width="2"/><path d="M99.12,14.79H52.3a3.36,3.36,0,0,1-3.31-4,9.8,9.8,0,0,1,4.57-6.43" fill="none" stroke="#000" stroke-linecap="round" stroke-linejoin="round" stroke-width="2"/><path d="M5.17,20.76h6.94a1.45,1.45,0,0,1,1.3,2.1L10.86,28a1.46,1.46,0,0,1-1.3.8H1.64" fill="none" stroke="#000" stroke-linecap="round" stroke-linejoin="round" stroke-width="2"/><path d="M175.87,21.26h-5.49a3,3,0,0,0-2.34,5l1.13,1.38a5.94,5.94,0,0,0,4.59,2.16l6.8.33" fill="none" stroke="#000" stroke-linecap="round" stroke-linejoin="round" stroke-width="2"/></g><g  class="back-wheel"><line x1="34.99" y1="44.26" x2="49.99" y2="44.26" fill="none" stroke="#000" stroke-linecap="round" stroke-linejoin="round" stroke-width="2"/><line x1="37.18" y1="49.56" x2="47.79" y2="38.96" fill="none" stroke="#000" stroke-linecap="round" stroke-linejoin="round" stroke-width="2"/><line x1="42.49" y1="51.76" x2="42.49" y2="36.76" fill="none" stroke="#000" stroke-linecap="round" stroke-linejoin="round" stroke-width="2"/><line x1="47.79" y1="49.56" x2="37.18" y2="38.96" fill="none" stroke="#000" stroke-linecap="round" stroke-linejoin="round" stroke-width="2"/><circle cx="42.49" cy="44.26" r="3.75"/><path d="M42.48,31.76A12.5,12.5,0,1,0,55,44.26,12.5,12.5,0,0,0,42.48,31.76Zm0,20A7.5,7.5,0,1,1,50,44.3,7.5,7.5,0,0,1,42.49,51.8Z"/></g><g  class="front-wheel"><line x1="148.29" y1="44.26" x2="163.29" y2="44.26" fill="none" stroke="#000" stroke-linecap="round" stroke-linejoin="round" stroke-width="2"/><line x1="150.48" y1="49.56" x2="161.09" y2="38.96" fill="none" stroke="#000" stroke-linecap="round" stroke-linejoin="round" stroke-width="2"/><line x1="155.79" y1="51.76" x2="155.79" y2="36.76" fill="none" stroke="#000" stroke-linecap="round" stroke-linejoin="round" stroke-width="2"/><line x1="161.09" y1="49.56" x2="150.48" y2="38.96" fill="none" stroke="#000" stroke-linecap="round" stroke-linejoin="round" stroke-width="2"/><circle cx="155.79" cy="44.26" r="3.75"/><path d="M155.78,31.76a12.5,12.5,0,1,0,12.51,12.5A12.5,12.5,0,0,0,155.78,31.76Zm0,20a7.5,7.5,0,1,1,7.5-7.5A7.5,7.5,0,0,1,155.79,51.8Z"/></g></g></g></svg>