<svg xmlns="http://www.w3.org/2000/svg" width="184.05" height="49.96" viewBox="0 0 184.05 49.96"><g  class="Layer_2" data-name="Layer 2"><g  class="sports-car"><g  class="solid-body-background"><path  class="Vector" d="M169.1,44.84h4.36a9.85,9.85,0,0,0,9.28-6.54l.31-.88c0-8-3.33-10.86-7.74-12.61C157.48,17.7,132.48,3.73,101.58,1.54,54.19-1.82,27.83,11.25,1.63,19.59c-2.2.7,2,3.61,2.65,6.38l1.85,7.37s-3,2.72-1.85,4.88,7.31,4.41,10.27,4.41" fill="#ecebe1" opacity="0"/></g><g  class="body-car"><line x1="85.58" y1="27.63" x2="78.73" y2="27.63" fill="none" stroke="#000" stroke-linecap="round" stroke-linejoin="round" stroke-width="2"/><line x1="55.94" y1="46.17" x2="128.95" y2="46.17" fill="none" stroke="#000" stroke-linecap="round" stroke-linejoin="round" stroke-width="2"/><path d="M169.1,44.84h4.36a9.85,9.85,0,0,0,9.28-6.54l.31-.88c0-8-3.33-10.86-7.74-12.61C157.48,17.7,132.48,3.73,101.58,1.54,54.19-1.82,27.83,11.25,1.63,19.59c-2.2.7,2,3.61,2.65,6.38l1.85,7.37s-3,2.72-1.85,4.88,7.31,4.41,10.27,4.41" fill="none" stroke="#000" stroke-linecap="round" stroke-linejoin="round" stroke-width="2"/><path d="M180.71,28.92H163a3.37,3.37,0,0,1-2.83-5.33l2.73-3.3" fill="none" stroke="#000" stroke-linecap="round" stroke-linejoin="round" stroke-width="2"/><path d="M5.23,29.67l7.2,0a2.43,2.43,0,0,1,2.4,1.83L15.47,34a2.43,2.43,0,0,1-2.35,3H4.28" fill="none" stroke="#000" stroke-linecap="round" stroke-linejoin="round" stroke-width="2"/><path d="M130.93,20.87s-40.1,1.38-79.62-4.79" fill="none" stroke="#000" stroke-linecap="round" stroke-linejoin="round" stroke-width="2"/><path d="M1.7,21.3H12.63a2,2,0,0,1,2,2v1.29a2,2,0,0,1-2,2h-8" fill="none" stroke="#000" stroke-linecap="round" stroke-linejoin="round" stroke-width="2"/></g><g  class="front-wheel"><line x1="141.57" y1="37.46" x2="156.57" y2="37.46" fill="none" stroke="#000" stroke-linecap="round" stroke-linejoin="round" stroke-width="2"/><line x1="143.77" y1="42.76" x2="154.38" y2="32.16" fill="none" stroke="#000" stroke-linecap="round" stroke-linejoin="round" stroke-width="2"/><line x1="149.07" y1="44.96" x2="149.07" y2="29.96" fill="none" stroke="#000" stroke-linecap="round" stroke-linejoin="round" stroke-width="2"/><line x1="154.38" y1="42.76" x2="143.77" y2="32.16" fill="none" stroke="#000" stroke-linecap="round" stroke-linejoin="round" stroke-width="2"/><circle cx="149.07" cy="37.46" r="3.75"/><path d="M149.07,25a12.5,12.5,0,1,0,12.5,12.5A12.5,12.5,0,0,0,149.07,25Zm0,20a7.5,7.5,0,1,1,7.5-7.5A7.5,7.5,0,0,1,149.07,45Z"/></g><g  class="back-wheel"><line x1="28.27" y1="37.46" x2="43.27" y2="37.46" fill="none" stroke="#000" stroke-linecap="round" stroke-linejoin="round" stroke-width="2"/><line x1="30.47" y1="42.76" x2="41.07" y2="32.16" fill="none" stroke="#000" stroke-linecap="round" stroke-linejoin="round" stroke-width="2"/><line x1="35.77" y1="44.96" x2="35.77" y2="29.96" fill="none" stroke="#000" stroke-linecap="round" stroke-linejoin="round" stroke-width="2"/><line x1="41.07" y1="42.76" x2="30.47" y2="32.16" fill="none" stroke="#000" stroke-linecap="round" stroke-linejoin="round" stroke-width="2"/><circle cx="35.77" cy="37.46" r="3.75"/><path d="M35.77,25a12.5,12.5,0,1,0,12.5,12.5A12.5,12.5,0,0,0,35.77,25Zm0,20a7.5,7.5,0,1,1,7.5-7.5A7.5,7.5,0,0,1,35.77,45Z"/></g></g></g></svg>