<svg xmlns="http://www.w3.org/2000/svg" width="188.03" height="59.64" viewBox="0 0 188.03 59.64"><g  class="Layer_2" data-name="Layer 2"><g  class="Layer_1-2" data-name="Layer 1"><g  class="Layer_2-2" data-name="Layer 2"><g  class="hyundai-sonata"><g  class="solid-body-background"><path d="M25.07,48.32,5.83,46a2.13,2.13,0,0,1-1.1-.47L1.49,42.76a.6.6,0,0,1-.19-.38A.61.61,0,0,1,1.43,42a2,2,0,0,0,.35-1,2,2,0,0,0-.18-1c-.53-1.59-.6-5-.6-7.06a1.69,1.69,0,0,1,.5-1.19h0A5.54,5.54,0,0,0,2.64,30.1l4.05-8.54a1.26,1.26,0,0,0,.11-.69,1.31,1.31,0,0,0-.28-.65l-2.36-2.8a.15.15,0,0,1,0-.07.22.22,0,0,1,0-.08.13.13,0,0,1,0-.08.17.17,0,0,1,.06-.06l1.24-.82a1.53,1.53,0,0,1,.83-.25H9.74a5.52,5.52,0,0,0,1.8-.29c5.56-1.9,36.21-12.25,40-12.25a4.41,4.41,0,0,0-.6-1.8c-.6-1.19,6.62.6,6.62.6s37.88-3.58,47.5.6,31.27,13.74,31.27,13.74,36.83,1.19,47.91,11.75a1.25,1.25,0,0,1,.31.47c.6,1.53,3.31,9.24,1.7,14.06,0,0-1.21,2.39,0,3a1.46,1.46,0,0,1,.42.32,1.2,1.2,0,0,1,.26.45,1.34,1.34,0,0,1,.07.52,1.5,1.5,0,0,1-.15.51s-3,2.39-17.44,2.39" fill="#fff"/></g><g  class="body-car"><path d="M25.07,48.43,5.83,46.11a2.13,2.13,0,0,1-1.1-.47L1.49,42.87a.63.63,0,0,1-.19-.38.59.59,0,0,1,.13-.41,2.07,2.07,0,0,0,.35-1,2,2,0,0,0-.18-1C1.07,38.48,1,35,1,33a1.66,1.66,0,0,1,.5-1.19h0a5.68,5.68,0,0,0,1.14-1.61l4.05-8.54A1.3,1.3,0,0,0,6.8,21a1.28,1.28,0,0,0-.28-.64l-2.36-2.8a.21.21,0,0,1,0-.07.25.25,0,0,1,0-.08.11.11,0,0,1,0-.08l.06-.06,1.24-.82a1.53,1.53,0,0,1,.83-.25H9.74a5.53,5.53,0,0,0,1.8-.3C17.1,14,47.75,3.62,51.57,3.62A4.42,4.42,0,0,0,51,1.83c-.6-1.19,6.62.6,6.62.6s37.88-3.58,47.5.6,31.27,13.73,31.27,13.73,36.83,1.2,47.91,11.75a1.37,1.37,0,0,1,.31.48c.6,1.53,3.31,9.24,1.7,14.06,0,0-1.21,2.38,0,3a1.3,1.3,0,0,1,.42.32,1.13,1.13,0,0,1,.26.45,1.31,1.31,0,0,1,.07.52,1.39,1.39,0,0,1-.15.5s-3,2.39-17.44,2.39" fill="none" stroke="#000" stroke-linecap="round" stroke-linejoin="round" stroke-width="2"/><path d="M185,39.47h-2.4l-4.21,6,6-2.39" fill="none" stroke="#000" stroke-linecap="round" stroke-linejoin="round" stroke-width="2"/><path d="M180.82,27.52l-12.63-1.79c-3-.6-3.7.08-3,.71a4.34,4.34,0,0,0,1.05.69L176,31.7h6.61c1.21,0,0-3,0-3Z" fill="none" stroke="#000" stroke-linecap="round" stroke-linejoin="round" stroke-width="2"/><path d="M55.14,6.62s-31.87,6.57-6,9.55,64.34,3.59,78.17,3" fill="none" stroke="#000" stroke-linecap="round" stroke-linejoin="round" stroke-width="2"/><path d="M51.53,23.34l7.82.6" fill="none" stroke="#000" stroke-linecap="round" stroke-linejoin="round" stroke-width="2"/><path d="M91.21,25.44l7.84,0" fill="none" stroke="#000" stroke-linecap="round" stroke-linejoin="round" stroke-width="2"/><path d="M5.37,24.87l6.47-.33,4.21-3V20.36l-9.69-.29" fill="none" stroke="#000" stroke-linecap="round" stroke-linejoin="round" stroke-width="2"/><path d="M63.56,49.62l66.75.6" fill="none" stroke="#000" stroke-linecap="round" stroke-linejoin="round" stroke-width="2"/></g><g  class="front-wheel"><path d="M145.45,47.09h15" fill="none" stroke="#181818" stroke-linecap="round" stroke-linejoin="round" stroke-width="2"/><path d="M147.62,52.41l10.64-10.64" fill="none" stroke="#181818" stroke-linecap="round" stroke-linejoin="round" stroke-width="2"/><path d="M153,54.62V39.56" fill="none" stroke="#181818" stroke-linecap="round" stroke-linejoin="round" stroke-width="2"/><path d="M158.26,52.41,147.62,41.77" fill="none" stroke="#181818" stroke-linecap="round" stroke-linejoin="round" stroke-width="2"/><path d="M153,50.85a3.77,3.77,0,1,0-3.76-3.76A3.75,3.75,0,0,0,153,50.85Z" fill="#181818"/><path d="M153,34.54a12.55,12.55,0,1,0,12.51,12.55A12.54,12.54,0,0,0,153,34.54Zm0,20.1a7.53,7.53,0,1,1,7.5-7.53A7.5,7.5,0,0,1,153,54.64Z" fill="#181818"/></g><g  class="back-wheel"><path d="M33.33,47.09h15" fill="none" stroke="#181818" stroke-linecap="round" stroke-linejoin="round" stroke-width="2"/><path d="M35.54,52.41,46.17,41.77" fill="none" stroke="#181818" stroke-linecap="round" stroke-linejoin="round" stroke-width="2"/><path d="M40.84,54.62V39.56" fill="none" stroke="#181818" stroke-linecap="round" stroke-linejoin="round" stroke-width="2"/><path d="M46.17,52.41,35.54,41.77" fill="none" stroke="#181818" stroke-linecap="round" stroke-linejoin="round" stroke-width="2"/><path d="M40.84,50.85a3.77,3.77,0,1,0-3.75-3.76A3.76,3.76,0,0,0,40.84,50.85Z" fill="#181818"/><path d="M40.84,34.54A12.55,12.55,0,1,0,53.36,47.09,12.53,12.53,0,0,0,40.84,34.54Zm0,20.1a7.53,7.53,0,1,1,7.51-7.53A7.51,7.51,0,0,1,40.84,54.64Z" fill="#181818"/></g></g></g></g></g></svg>
