<svg xmlns="http://www.w3.org/2000/svg" width="182.73" height="56.6" viewBox="0 0 182.73 56.6"><g  class="Layer_2" data-name="Layer 2"><g  class="honda-accord"><g  class="solid-body-background" opacity="0"><path d="M17.5,44.59S3.83,42.56,2.15,40s-1-8.94-1-8.94,2.54-3.38,2.7-4.39.51-10.13.51-10.13,10-1.69,14.35-3.37S51.6,1,70,1s30.71-1,43.88,6.59,14.18,9.79,23.8,10.29,21.6,2.32,29.87,4.88,11.81,5,11.81,5v5L181.73,35s-.85,9.79-2,10.46a16.07,16.07,0,0,1-10,3" fill="#ecebe1"/></g><g  class="body-car"><path d="M17.5,44.59S3.83,42.56,2.15,40s-1-8.94-1-8.94,2.54-3.38,2.7-4.39.51-10.13.51-10.13,10-1.69,14.35-3.37S51.6,1,70,1s30.71-1,43.88,6.59,14.18,9.79,23.8,10.29,21.6,2.32,29.87,4.88,11.81,5,11.81,5v5L181.73,35s-.85,9.79-2,10.46a16.07,16.07,0,0,1-10,3" fill="none" stroke="#000" stroke-linecap="round" stroke-linejoin="round" stroke-width="2"/><path d="M46.37,14.88s62.67,3.38,76.28,3.38" fill="none" stroke="#000" stroke-linecap="round" stroke-linejoin="round" stroke-width="2"/><line x1="48.39" y1="19.95" x2="56.66" y2="19.95" fill="none" stroke="#000" stroke-linecap="round" stroke-linejoin="round" stroke-width="2"/><line x1="87.38" y1="21.47" x2="95.82" y2="21.47" fill="none" stroke="#000" stroke-linecap="round" stroke-linejoin="round" stroke-width="2"/><path d="M56.66,47s55.82,2.05,61.75,1.46" fill="none" stroke="#000" stroke-linecap="round" stroke-linejoin="round" stroke-width="2"/><path d="M4.14,21.47,16.06,20s-1.1,4.9-4.61,6.88-8.81,2.11-8.81,2.11" fill="none" stroke="#000" stroke-linecap="round" stroke-linejoin="round" stroke-width="2"/><path d="M181.73,35c-2.37-2.19-15.66-2.77-15.66-2.77l-4.83-4.39s10.75-2.23,15-1.71" fill="none" stroke="#000" stroke-linecap="round" stroke-linejoin="round" stroke-width="2"/></g><g  class="front-wheel"><line x1="142.04" y1="44.1" x2="157.04" y2="44.1" fill="none" stroke="#000" stroke-linecap="round" stroke-linejoin="round" stroke-width="2"/><line x1="144.23" y1="49.4" x2="154.84" y2="38.79" fill="none" stroke="#000" stroke-linecap="round" stroke-linejoin="round" stroke-width="2"/><line x1="149.54" y1="51.6" x2="149.54" y2="36.6" fill="none" stroke="#000" stroke-linecap="round" stroke-linejoin="round" stroke-width="2"/><line x1="154.84" y1="49.4" x2="144.23" y2="38.79" fill="none" stroke="#000" stroke-linecap="round" stroke-linejoin="round" stroke-width="2"/><circle cx="149.54" cy="44.1" r="3.75"/><path d="M149.53,31.6A12.5,12.5,0,1,0,162,44.1,12.5,12.5,0,0,0,149.53,31.6Zm0,20a7.5,7.5,0,1,1,7.5-7.5A7.49,7.49,0,0,1,149.54,51.63Z"/></g><g  class="back-wheel"><line x1="32.15" y1="44.1" x2="47.15" y2="44.1" fill="none" stroke="#000" stroke-linecap="round" stroke-linejoin="round" stroke-width="2"/><line x1="34.35" y1="49.4" x2="44.95" y2="38.79" fill="none" stroke="#000" stroke-linecap="round" stroke-linejoin="round" stroke-width="2"/><line x1="39.65" y1="51.6" x2="39.65" y2="36.6" fill="none" stroke="#000" stroke-linecap="round" stroke-linejoin="round" stroke-width="2"/><line x1="44.95" y1="49.4" x2="34.35" y2="38.79" fill="none" stroke="#000" stroke-linecap="round" stroke-linejoin="round" stroke-width="2"/><circle cx="39.65" cy="44.1" r="3.75"/><path d="M39.64,31.6A12.5,12.5,0,1,0,52.15,44.1,12.5,12.5,0,0,0,39.64,31.6Zm0,20a7.5,7.5,0,1,1,7.5-7.5A7.5,7.5,0,0,1,39.65,51.63Z"/></g></g></g></svg>