<svg xmlns="http://www.w3.org/2000/svg" width="175.07" height="55.39" viewBox="0 0 175.07 55.39"><g  class="Layer_2" data-name="Layer 2"><g  class="honda-civic"><g  class="solid-body-background" opacity="0"><path d="M20.61,44.11,1,41.62,2.25,32l3.57-3.48L4.11,20.77,7.38,13l10.43-.94s12.36-3.2,21.75-5.92l0-3.6,8.79.81c9-3.27,38.76-3,50.74,0s29,13.85,29,13.85,33,.93,43.11,9.49v6.23l3,2.56-.78,9.58a34.16,34.16,0,0,1-11.52,2.39" fill="#ecebe1"/></g><g  class="body-car"><path d="M20.61,44.11,1,41.62,2.25,32l3.57-3.48L4.11,20.77,7.38,13l10.43-.94s12.36-3.2,21.75-5.92l0-3.6,8.79.81c9-3.27,38.76-3,50.74,0s29,13.85,29,13.85,33,.93,43.11,9.49v6.23l3,2.56-.78,9.58a34.16,34.16,0,0,1-11.52,2.39" fill="none" stroke="#000" stroke-linecap="round" stroke-linejoin="round" stroke-width="2"/><path d="M31.25,12.83s20.18,3.42,29.05,3.89l52.29,2.8" fill="none" stroke="#000" stroke-linecap="round" stroke-linejoin="round" stroke-width="2"/><line x1="44.09" y1="19.52" x2="54.38" y2="20.14" fill="none" stroke="#000" stroke-linecap="round" stroke-linejoin="round" stroke-width="2"/><line x1="82.71" y1="22.01" x2="91.11" y2="22.79" fill="none" stroke="#000" stroke-linecap="round" stroke-linejoin="round" stroke-width="2"/><path d="M171.11,26.68l-16.06-2.46s6,8.22,16.06,8.69" fill="none" stroke="#000" stroke-linecap="round" stroke-linejoin="round" stroke-width="2"/><polyline points="6.74 14.51 22.25 19.6 17.43 25.2 5.83 28.49" fill="none" stroke="#000" stroke-linecap="round" stroke-linejoin="round" stroke-width="2"/><path d="M54.38,46.6s45,2.64,58.21,2.56" fill="none" stroke="#000" stroke-linecap="round" stroke-linejoin="round" stroke-width="2"/></g><g  class="front-wheel"><line x1="135.05" y1="42.89" x2="150.05" y2="42.89" fill="none" stroke="#000" stroke-linecap="round" stroke-linejoin="round" stroke-width="2"/><line x1="137.25" y1="48.19" x2="147.85" y2="37.59" fill="none" stroke="#000" stroke-linecap="round" stroke-linejoin="round" stroke-width="2"/><line x1="142.55" y1="50.39" x2="142.55" y2="35.39" fill="none" stroke="#000" stroke-linecap="round" stroke-linejoin="round" stroke-width="2"/><line x1="147.85" y1="48.19" x2="137.25" y2="37.59" fill="none" stroke="#000" stroke-linecap="round" stroke-linejoin="round" stroke-width="2"/><circle cx="142.55" cy="42.89" r="3.75"/><path d="M142.54,30.39a12.5,12.5,0,1,0,12.51,12.5A12.5,12.5,0,0,0,142.54,30.39Zm0,20a7.5,7.5,0,1,1,7.5-7.5A7.5,7.5,0,0,1,142.55,50.42Z"/></g><g  class="back-wheel"><line x1="30.02" y1="42.89" x2="45.02" y2="42.89" fill="none" stroke="#000" stroke-linecap="round" stroke-linejoin="round" stroke-width="2"/><line x1="32.22" y1="48.19" x2="42.83" y2="37.59" fill="none" stroke="#000" stroke-linecap="round" stroke-linejoin="round" stroke-width="2"/><line x1="37.52" y1="50.39" x2="37.52" y2="35.39" fill="none" stroke="#000" stroke-linecap="round" stroke-linejoin="round" stroke-width="2"/><line x1="42.83" y1="48.19" x2="32.22" y2="37.59" fill="none" stroke="#000" stroke-linecap="round" stroke-linejoin="round" stroke-width="2"/><circle cx="37.52" cy="42.89" r="3.75"/><path d="M37.52,30.39A12.5,12.5,0,1,0,50,42.89,12.5,12.5,0,0,0,37.52,30.39Zm0,20a7.5,7.5,0,1,1,7.5-7.5A7.5,7.5,0,0,1,37.52,50.42Z"/></g></g></g></svg>