<svg xmlns="http://www.w3.org/2000/svg" width="178.17" height="69.48" viewBox="0 0 178.17 69.48"><g  class="Layer_2" data-name="Layer 2"><g  class="hatchback"><g  class="solid-body-background"><path  class="Vector" d="M16.67,59.62S3.8,54.23,1,47.7V38l4-4.29S7.31,22.52,11.85,16s5.39-7.63,7.75-8.86C23.06,5.31,38.31.94,64,1s49.9,8,62.5,19.19c0,0,28,1.86,34.51,4.66s13.48,11.94,15,14.26,1.16,7.67,1.16,7.67.35,10.23-4.64,11.74-6.63,1.86-6.63,1.86" fill="#ecebe1" opacity="0"/></g><g  class="body-car"><path d="M16.67,59.62S3.8,54.23,1,47.7V38l4-4.29S7.31,22.52,11.85,16s5.39-7.63,7.75-8.86C23.06,5.31,38.31.94,64,1s49.9,8,62.5,19.19c0,0,28,1.86,34.51,4.66s13.48,11.94,15,14.26,1.16,7.67,1.16,7.67.35,10.23-4.64,11.74-6.63,1.86-6.63,1.86" fill="none" stroke="#000" stroke-linecap="round" stroke-linejoin="round" stroke-width="2"/><line x1="52.86" y1="58.4" x2="126.27" y2="58.4" fill="none" stroke="#000" stroke-linecap="round" stroke-linejoin="round" stroke-width="2"/><path d="M8.09,23.38l11.58,1.31c.92,3-1.61,8-5.46,9a25.51,25.51,0,0,1-8.84,0" fill="none" stroke="#000" stroke-linecap="round" stroke-linejoin="round" stroke-width="2"/><path d="M169.6,31.37s-11.18-2.87-11.94-2.56-.92.91,4.12,4.88,6.73,5.51,6.73,5.51l7.46-.09" fill="none" stroke="#000" stroke-linecap="round" stroke-linejoin="round" stroke-width="2"/><path d="M13.15,18.83h2.38A4.91,4.91,0,0,0,19.31,17l6.33-7.79" fill="none" stroke="#000" stroke-linecap="round" stroke-linejoin="round" stroke-width="2"/><path d="M37.76,9.25S32,16.49,33,18.83s7.59,3.94,29.53,3.94,55.87,1.47,55.87,1.47" fill="none" stroke="#000" stroke-linecap="round" stroke-linejoin="round" stroke-width="2"/><line x1="43.88" y1="27.69" x2="49.2" y2="27.69" fill="none" stroke="#000" stroke-linecap="round" stroke-linejoin="round" stroke-width="2"/><line x1="83.65" y1="28.71" x2="89.64" y2="28.71" fill="none" stroke="#000" stroke-linecap="round" stroke-linejoin="round" stroke-width="2"/><polyline points="176.85 48.31 170.93 48.31 169.52 52.35 176.62 52.35" fill="none" stroke="#000" stroke-linecap="round" stroke-linejoin="round" stroke-width="2"/></g><g  class="front-wheel"><line x1="142.52" y1="56.98" x2="157.52" y2="56.98" fill="none" stroke="#000" stroke-linecap="round" stroke-linejoin="round" stroke-width="2"/><line x1="144.72" y1="62.29" x2="155.32" y2="51.68" fill="none" stroke="#000" stroke-linecap="round" stroke-linejoin="round" stroke-width="2"/><line x1="150.02" y1="64.48" x2="150.02" y2="49.48" fill="none" stroke="#000" stroke-linecap="round" stroke-linejoin="round" stroke-width="2"/><line x1="155.32" y1="62.29" x2="144.72" y2="51.68" fill="none" stroke="#000" stroke-linecap="round" stroke-linejoin="round" stroke-width="2"/><circle cx="150.02" cy="56.98" r="3.75"/><path d="M150,44.48A12.5,12.5,0,1,0,162.52,57,12.5,12.5,0,0,0,150,44.48Zm0,20a7.5,7.5,0,1,1,7.5-7.5A7.5,7.5,0,0,1,150,64.52Z"/></g><g  class="back-wheel"><line x1="24.77" y1="56.98" x2="39.77" y2="56.98" fill="none" stroke="#000" stroke-linecap="round" stroke-linejoin="round" stroke-width="2"/><line x1="26.96" y1="62.29" x2="37.57" y2="51.68" fill="none" stroke="#000" stroke-linecap="round" stroke-linejoin="round" stroke-width="2"/><line x1="32.27" y1="64.48" x2="32.27" y2="49.48" fill="none" stroke="#000" stroke-linecap="round" stroke-linejoin="round" stroke-width="2"/><line x1="37.57" y1="62.29" x2="26.96" y2="51.68" fill="none" stroke="#000" stroke-linecap="round" stroke-linejoin="round" stroke-width="2"/><circle cx="32.27" cy="56.98" r="3.75"/><path d="M32.26,44.48A12.5,12.5,0,1,0,44.77,57,12.5,12.5,0,0,0,32.26,44.48Zm0,20a7.5,7.5,0,1,1,7.5-7.5A7.5,7.5,0,0,1,32.27,64.52Z"/></g></g></g></svg>