<svg xmlns="http://www.w3.org/2000/svg" width="182" height="57.57" viewBox="0 0 182 57.57"><g  class="Layer_2" data-name="Layer 2"><g  class="Layer_1-2" data-name="Layer 1"><g  class="Layer_2-2" data-name="Layer 2"><g  class="chevrolet-colorado"><g  class="solid-body-background"><path d="M169.64,53.17c2.84,1.14,4-.57,4-.57a11.23,11.23,0,0,1,1.13-4c4.55.57,6.25-4.54,6.25-4.54l-1.14-2.27c1.14-.57.57-5.11.57-5.11L179.3,35s-.57-7.95-1.14-10.22-3.41-3.41-3.41-3.41c-7.38-3.4-37.47-4-37.47-4S131,12.86,118.54,5.48,64.6,2.07,64.6,2.07C61.76,6.61,61.19,15.7,61.19,15.7L4.41,15.13c-4.55,10.22.56,21,.56,21H1v4.54c0,.57,1.14,0,1.14,0L2.7,43H1.57l.57,2.27H8.38C9,43,10.65,43,10.65,43a115.17,115.17,0,0,1,14.2,2.84S23.71,32.16,30,31s18.17-.57,19.87,1.13c0,0,3.55,1.42,3.81,5s1,12,1,12l80.67.47,34,1.4Z" fill="#fff"/></g><g  class="body-car"><path d="M169.64,53.17c2.84,1.14,4-.57,4-.57a11.23,11.23,0,0,1,1.13-4c4.55.57,6.25-4.54,6.25-4.54l-1.14-2.27c1.14-.57.57-5.11.57-5.11L179.3,35s-.57-7.95-1.14-10.22-3.41-3.41-3.41-3.41c-7.38-3.4-37.47-4-37.47-4S131,12.86,118.54,5.48,64.6,2.07,64.6,2.07C61.76,6.61,61.19,15.7,61.19,15.7L4.41,15.13c-4.55,10.22.56,21,.56,21H1v4.54c0,.57,1.14,0,1.14,0L2.7,43H1.57l.57,2.27H8.38C9,43,10.65,43,10.65,43a115.17,115.17,0,0,1,14.2,2.84S23.71,32.16,30,31s18.17-.57,19.87,1.13" fill="none" stroke="#000" stroke-linecap="round" stroke-linejoin="round" stroke-width="2"/><path d="M67.44,49.2l61.89,1.13" fill="none" stroke="#000" stroke-linecap="round" stroke-linejoin="round" stroke-width="2"/><path d="M68,6.61s-1.7,8,1.71,9.09A38.29,38.29,0,0,0,83.33,18c6.25,0,47.7,3.4,47.7,3.4" fill="none" stroke="#000" stroke-linecap="round" stroke-linejoin="round" stroke-width="2"/><path d="M69.71,22.51l6.81.57" fill="none" stroke="#000" stroke-linecap="round" stroke-linejoin="round" stroke-width="2"/><path d="M98.65,24.58l6.84-.16" fill="none" stroke="#000" stroke-linecap="round" stroke-linejoin="round" stroke-width="2"/><path d="M3.27,19.1s4-.56,4.54,1.14c.74,2.21.74,8,.63,10.61a1,1,0,0,1-.12.48,1.2,1.2,0,0,1-.3.4,1.26,1.26,0,0,1-.44.24,1.24,1.24,0,0,1-.5.05l-3.53-.39" fill="none" stroke="#000" stroke-linecap="round" stroke-linejoin="round" stroke-width="2"/><path d="M178.73,32.16A14.57,14.57,0,0,0,175.89,31c-1.7-.57-3.37-.69-4.54-1.93a6.49,6.49,0,0,1-1.71-2.61c-.56-2.28-.56-1.71,1.14-1.71,0,0,5.68.57,6.81.57" fill="none" stroke="#000" stroke-linecap="round" stroke-linejoin="round" stroke-width="2"/></g><g  class="front-wheel"><path d="M143.23,46.29h13.62" fill="none" stroke="#181818" stroke-linecap="round" stroke-linejoin="round" stroke-width="2"/><path d="M145.2,51.07l9.65-9.57" fill="none" stroke="#181818" stroke-linecap="round" stroke-linejoin="round" stroke-width="2"/><path d="M150,53.06V39.51" fill="none" stroke="#181818" stroke-linecap="round" stroke-linejoin="round" stroke-width="2"/><path d="M154.85,51.07,145.2,41.5" fill="none" stroke="#181818" stroke-linecap="round" stroke-linejoin="round" stroke-width="2"/><path d="M150,49.67a3.39,3.39,0,1,0-3.41-3.39A3.4,3.4,0,0,0,150,49.67Z" fill="#181818"/><path d="M150,35a11.29,11.29,0,1,0,11.35,11.28A11.33,11.33,0,0,0,150,35Zm0,18.08a6.77,6.77,0,1,1,6.81-6.77A6.78,6.78,0,0,1,150,53.08Z" fill="#181818"/></g><g  class="back-wheel"><path d="M32.54,46.29H46.16" fill="none" stroke="#181818" stroke-linecap="round" stroke-linejoin="round" stroke-width="2"/><path d="M34.54,51.07l9.65-9.57" fill="none" stroke="#181818" stroke-linecap="round" stroke-linejoin="round" stroke-width="2"/><path d="M39.35,53.06V39.51" fill="none" stroke="#181818" stroke-linecap="round" stroke-linejoin="round" stroke-width="2"/><path d="M44.19,51.07,34.54,41.5" fill="none" stroke="#181818" stroke-linecap="round" stroke-linejoin="round" stroke-width="2"/><path d="M39.35,49.67A3.39,3.39,0,1,0,36,46.28,3.4,3.4,0,0,0,39.35,49.67Z" fill="#181818"/><path d="M39.35,35A11.29,11.29,0,1,0,50.7,46.28,11.33,11.33,0,0,0,39.35,35Zm0,18.08a6.77,6.77,0,1,1,6.81-6.77A6.78,6.78,0,0,1,39.35,53.08Z" fill="#181818"/></g></g></g></g></g></svg>
