<svg xmlns="http://www.w3.org/2000/svg" width="186.13" height="69.23" viewBox="0 0 186.13 69.23"><g  class="Layer_2" data-name="Layer 2"><g  class="wagon"><g  class="solid-body-background"><path  class="Vector" d="M13.23,56.75l-6,0c-2.87,0-6.9-3.9-6.16-9.33.64-4.74,7.25-21.92,12.66-32.55A21.65,21.65,0,0,1,31.53,3.14s45-3.27,62.13-1.73c10.52,1,44.56,17.52,44.56,17.52s31.42,3.36,38.87,7.84,8,8.42,8,13.7a68.81,68.81,0,0,1-1,9.68,6.63,6.63,0,0,1-6.52,5.61" fill="#ecebe1" opacity="0"/></g><g  class="body-car"><line x1="95.92" y1="28.2" x2="89.92" y2="28.24" fill="none" stroke="#000" stroke-linecap="round" stroke-linejoin="round" stroke-width="2"/><line x1="64.39" y1="28.39" x2="58.39" y2="28.43" fill="none" stroke="#000" stroke-linecap="round" stroke-linejoin="round" stroke-width="2"/><path d="M4.42,36.7l9.39-.06a1.45,1.45,0,0,1,1.31,2.09L12.6,43.85a1.46,1.46,0,0,1-1.29.81l-9.6.05" fill="none" stroke="#000" stroke-linecap="round" stroke-linejoin="round" stroke-width="2"/><path d="M179.21,28.16l-5.91,0a3,3,0,0,0-2.31,5,14.29,14.29,0,0,0,2.94,3.52c2.49,2.46,11,.35,11,.35" fill="none" stroke="#000" stroke-linecap="round" stroke-linejoin="round" stroke-width="2"/><path d="M13.23,56.75l-6,0c-2.87,0-6.9-3.9-6.16-9.33.64-4.74,7.25-21.92,12.66-32.55A21.65,21.65,0,0,1,31.53,3.14s45-3.27,62.13-1.73c10.52,1,44.56,17.52,44.56,17.52s31.42,3.36,38.87,7.84,8,8.42,8,13.7a68.81,68.81,0,0,1-1,9.68,6.63,6.63,0,0,1-6.52,5.61" fill="none" stroke="#000" stroke-linecap="round" stroke-linejoin="round" stroke-width="2"/><line x1="124.03" y1="56.08" x2="68.14" y2="56.42" fill="none" stroke="#000" stroke-linecap="round" stroke-linejoin="round" stroke-width="2"/><path d="M106.76,21.07l-78.64.47c-8.32.05-2.21-8.34-2.21-8.34" fill="none" stroke="#000" stroke-linecap="round" stroke-linejoin="round" stroke-width="2"/></g><g  class="front-wheel"><line x1="146.09" y1="56.09" x2="161.09" y2="56" fill="none" stroke="#000" stroke-linecap="round" stroke-linejoin="round" stroke-width="2"/><line x1="148.32" y1="61.38" x2="158.86" y2="50.71" fill="none" stroke="#000" stroke-linecap="round" stroke-linejoin="round" stroke-width="2"/><line x1="153.64" y1="63.55" x2="153.55" y2="48.55" fill="none" stroke="#000" stroke-linecap="round" stroke-linejoin="round" stroke-width="2"/><line x1="158.93" y1="61.32" x2="148.26" y2="50.78" fill="none" stroke="#000" stroke-linecap="round" stroke-linejoin="round" stroke-width="2"/><circle cx="153.59" cy="56.05" r="3.75"/><path d="M153.51,43.55A12.5,12.5,0,1,0,166.09,56,12.5,12.5,0,0,0,153.51,43.55Zm.13,20A7.5,7.5,0,1,1,161.09,56,7.5,7.5,0,0,1,153.64,63.58Z"/></g><g  class="back-wheel"><line x1="32.79" y1="56.77" x2="47.79" y2="56.68" fill="none" stroke="#000" stroke-linecap="round" stroke-linejoin="round" stroke-width="2"/><line x1="35.02" y1="62.06" x2="45.57" y2="51.39" fill="none" stroke="#000" stroke-linecap="round" stroke-linejoin="round" stroke-width="2"/><line x1="40.34" y1="64.23" x2="40.25" y2="49.23" fill="none" stroke="#000" stroke-linecap="round" stroke-linejoin="round" stroke-width="2"/><line x1="45.63" y1="62" x2="34.96" y2="51.45" fill="none" stroke="#000" stroke-linecap="round" stroke-linejoin="round" stroke-width="2"/><circle cx="40.29" cy="56.73" r="3.75"/><path d="M40.21,44.23A12.5,12.5,0,1,0,52.79,56.65,12.5,12.5,0,0,0,40.21,44.23Zm.13,20a7.5,7.5,0,1,1,7.45-7.54A7.51,7.51,0,0,1,40.34,64.26Z"/></g></g></g></svg>