<svg xmlns="http://www.w3.org/2000/svg" width="170" height="63.29" viewBox="0 0 170 63.29"><g  class="Layer_2" data-name="Layer 2"><g  class="Layer_1-2" data-name="Layer 1"><g  class="Layer_2-2" data-name="Layer 2"><g  class="honda-pilot"><g  class="solid-body-background"><path d="M19.94,52.62,3.48,49.72.57,45.36l.48-8.22L3,35.69s-.69-8.23.25-13.42A11.4,11.4,0,0,1,4,19.72c1.94-4.35,9.2-12.57,9.2-12.57L11.71,5.69s-.48-1,1.94-1.45l10.17-1L23.33.86s6.3,0,7.27,1.45c0,0,58.15-3.15,70.22,1.45,10.18,3.87,24,13.06,27.61,16.11a3.93,3.93,0,0,0,2.24.9c5.7.37,28.69,2.22,31.66,8.15l1.94,1.45,1.45,4.83-.49.49a13.36,13.36,0,0,0,2.29,4,2.21,2.21,0,0,1,.71,1.45c.22,2.62.68,9.19-.09,9.57a89.63,89.63,0,0,1-10.21,4.06,6,6,0,0,1-1.83.29h-3" fill="#fff"/></g><g  class="body-car"><path d="M20.37,52.76,3.91,49.86,1,45.51l.48-8.23,1.94-1.45s-.69-8.22.25-13.42a11.17,11.17,0,0,1,.72-2.54c1.94-4.36,9.2-12.58,9.2-12.58L12.14,5.84s-.49-1,1.94-1.45l10.17-1L23.76,1S30.06,1,31,2.45c0,0,58.15-3.14,70.22,1.45C111.43,7.77,125.23,17,128.86,20a3.83,3.83,0,0,0,2.24.9c5.7.37,28.69,2.22,31.66,8.15l1.94,1.45,1.45,4.84-.49.48a13.24,13.24,0,0,0,2.29,4,2.23,2.23,0,0,1,.71,1.45c.22,2.62.68,9.19-.09,9.57a89.63,89.63,0,0,1-10.21,4.06,5.71,5.71,0,0,1-1.84.29h-3" fill="none" stroke="#000" stroke-linecap="round" stroke-linejoin="round" stroke-width="2"/><path d="M165.79,35.43l-1.09-.08s-1.45-1.45-1.94-1l-1,.48-11.14-6.28s-2.42-1.46.49-1l3.87,1,7.75.48" fill="none" stroke="#000" stroke-linecap="round" stroke-linejoin="round" stroke-width="2"/><path d="M3.91,22.77l2.9.48h8.91l.07,0a.1.1,0,0,1,.05.06.17.17,0,0,1,0,.07l0,.07c-1.05,1.11-5.88,6.18-8,7,0,0-4.26.37-4.55-.3" fill="none" stroke="#000" stroke-linecap="round" stroke-linejoin="round" stroke-width="2"/><path d="M27.64,7.77S15.53,16.48,19.4,17c0,0,19.38,3.39,26.16,3.87s70.71,3.87,75.07,2.42" fill="none" stroke="#000" stroke-linecap="round" stroke-linejoin="round" stroke-width="2"/><path d="M51.85,24.71l7.27.48" fill="none" stroke="#000" stroke-linecap="round" stroke-linejoin="round" stroke-width="2"/><path d="M86.24,27.12H94" fill="none" stroke="#000" stroke-linecap="round" stroke-linejoin="round" stroke-width="2"/><path d="M164.3,40.67s-3.88-.48-4.85,0c-.8.4-1.27,6.8-1.41,9a1,1,0,0,0,.17.61,1,1,0,0,0,.52.35c1.23.34,3.8.84,5.59-.23" fill="none" stroke="#000" stroke-linecap="round" stroke-linejoin="round" stroke-width="2"/><path d="M56.7,54.21l60.54,1" fill="none" stroke="#000" stroke-linecap="round" stroke-linejoin="round" stroke-width="2"/></g><g  class="front-wheel"><path d="M130.93,52h13.62" fill="none" stroke="#181818" stroke-linecap="round" stroke-linejoin="round" stroke-width="2"/><path d="M132.9,56.79l9.65-9.57" fill="none" stroke="#181818" stroke-linecap="round" stroke-linejoin="round" stroke-width="2"/><path d="M137.74,58.78V45.24" fill="none" stroke="#181818" stroke-linecap="round" stroke-linejoin="round" stroke-width="2"/><path d="M142.55,56.79l-9.65-9.57" fill="none" stroke="#181818" stroke-linecap="round" stroke-linejoin="round" stroke-width="2"/><path d="M137.74,55.39A3.39,3.39,0,1,0,134.33,52,3.39,3.39,0,0,0,137.74,55.39Z" fill="#181818"/><path d="M137.74,40.72A11.29,11.29,0,1,0,149.09,52,11.32,11.32,0,0,0,137.74,40.72Zm0,18.08A6.77,6.77,0,1,1,144.55,52,6.78,6.78,0,0,1,137.74,58.8Z" fill="#181818"/></g><g  class="back-wheel"><path d="M28.24,52H41.86" fill="none" stroke="#181818" stroke-linecap="round" stroke-linejoin="round" stroke-width="2"/><path d="M30.24,56.79l9.65-9.57" fill="none" stroke="#181818" stroke-linecap="round" stroke-linejoin="round" stroke-width="2"/><path d="M35.05,58.78V45.24" fill="none" stroke="#181818" stroke-linecap="round" stroke-linejoin="round" stroke-width="2"/><path d="M39.89,56.79l-9.65-9.57" fill="none" stroke="#181818" stroke-linecap="round" stroke-linejoin="round" stroke-width="2"/><path d="M35.05,55.39A3.39,3.39,0,1,0,31.65,52,3.4,3.4,0,0,0,35.05,55.39Z" fill="#181818"/><path d="M35.05,40.72A11.29,11.29,0,1,0,46.41,52,11.33,11.33,0,0,0,35.05,40.72Zm0,18.08A6.77,6.77,0,1,1,41.86,52,6.78,6.78,0,0,1,35.05,58.8Z" fill="#181818"/></g></g></g></g></g></svg>
