<svg xmlns="http://www.w3.org/2000/svg" width="189.15" height="61.1" viewBox="0 0 189.15 61.1"><g  class="Layer_2" data-name="Layer 2"><g  class="chevrolet-silverado-1500"><g  class="solid-body-background" opacity="0"><path  class="Vector" d="M181.42,50.06c7.83.39,6.67-12.8,6.67-12.8L185.68,35V22.62c-.93-1.49-5.38-3.15-11.12-4.27a144.51,144.51,0,0,0-21.67-2c-7.6-.18-16-7.41-21.55-11.12S113.54,1,113.54,1H70.29a3.8,3.8,0,0,0-3.77,3.36l-1.47,13h-60V42H1v8.1H19s1.1-15.73,8.4-15.73l11.38,0h7.6s12.29-1.6,11.87,15.75Z" fill="#ecebe1"/></g><g  class="body-car"><path d="M181.42,50.06c7.83.39,6.67-12.8,6.67-12.8L185.68,35V22.62c-.93-1.49-5.38-3.15-11.12-4.27a144.51,144.51,0,0,0-21.67-2c-7.6-.18-16-7.41-21.55-11.12S113.54,1,113.54,1H70.29a3.8,3.8,0,0,0-3.77,3.36l-1.47,13h-60V42H1v8.1H19s1.1-15.73,8.4-15.73l11.38,0" fill="none" stroke="#000" stroke-linecap="round" stroke-linejoin="round" stroke-width="2"/><line x1="58.27" y1="50.07" x2="138.61" y2="50.07" fill="none" stroke="#000" stroke-linecap="round" stroke-linejoin="round" stroke-width="2"/><line x1="77.05" y1="23.53" x2="84.08" y2="23.53" fill="none" stroke="#000" stroke-linecap="round" stroke-linejoin="round" stroke-width="2"/><line x1="111.63" y1="23.53" x2="118.66" y2="23.53" fill="none" stroke="#000" stroke-linecap="round" stroke-linejoin="round" stroke-width="2"/><path d="M78.32,9.06s-1.13,7.87,5.76,8.48,51.18,1.24,51.18,1.24" fill="none" stroke="#000" stroke-linecap="round" stroke-linejoin="round" stroke-width="2"/><path d="M5.09,22.66h7.48v2a1.75,1.75,0,0,1-.87,1.51l-3.47,2L10,30a2,2,0,0,1,.59,1.41v3.83H5.09" fill="none" stroke="#000" stroke-linecap="round" stroke-linejoin="round" stroke-width="2"/><path d="M185.68,25.26l-12-1.73,2,5.62,5.51,1.94L181,34s-3.67,1-3.56,1.51.76,3.56.76,3.56h10" fill="none" stroke="#000" stroke-linecap="round" stroke-linejoin="round" stroke-width="2"/></g><g  class="front-wheel"><line x1="152.89" y1="48.6" x2="167.89" y2="48.6" fill="none" stroke="#000" stroke-linecap="round" stroke-linejoin="round" stroke-width="2"/><line x1="155.09" y1="53.9" x2="165.7" y2="43.3" fill="none" stroke="#000" stroke-linecap="round" stroke-linejoin="round" stroke-width="2"/><line x1="160.39" y1="56.1" x2="160.39" y2="41.1" fill="none" stroke="#000" stroke-linecap="round" stroke-linejoin="round" stroke-width="2"/><line x1="165.7" y1="53.9" x2="155.09" y2="43.3" fill="none" stroke="#000" stroke-linecap="round" stroke-linejoin="round" stroke-width="2"/><circle cx="160.39" cy="48.6" r="3.75"/><path d="M160.39,36.1a12.5,12.5,0,1,0,12.5,12.5A12.5,12.5,0,0,0,160.39,36.1Zm0,20a7.5,7.5,0,1,1,7.5-7.5A7.5,7.5,0,0,1,160.39,56.13Z"/></g><g  class="back-wheel"><line x1="31.4" y1="48.6" x2="46.4" y2="48.6" fill="none" stroke="#000" stroke-linecap="round" stroke-linejoin="round" stroke-width="2"/><line x1="33.6" y1="53.9" x2="44.21" y2="43.3" fill="none" stroke="#000" stroke-linecap="round" stroke-linejoin="round" stroke-width="2"/><line x1="38.9" y1="56.1" x2="38.9" y2="41.1" fill="none" stroke="#000" stroke-linecap="round" stroke-linejoin="round" stroke-width="2"/><line x1="44.21" y1="53.9" x2="33.6" y2="43.3" fill="none" stroke="#000" stroke-linecap="round" stroke-linejoin="round" stroke-width="2"/><circle cx="38.9" cy="48.6" r="3.75"/><path d="M38.9,36.1A12.5,12.5,0,1,0,51.4,48.6,12.5,12.5,0,0,0,38.9,36.1Zm0,20a7.5,7.5,0,1,1,7.5-7.5A7.5,7.5,0,0,1,38.9,56.14Z"/></g></g></g></svg>