<svg xmlns="http://www.w3.org/2000/svg" width="169.1" height="66.7" viewBox="0 0 169.1 66.7"><g  class="Layer_2" data-name="Layer 2"><g  class="Layer_1-2" data-name="Layer 1"><g  class="Layer_2-2" data-name="Layer 2"><g  class="bmx-x5"><g  class="solid-body-background"><path d="M19.7,52.8s-14.5-2-15.5-2.5-4-1.5-3-9.5l1.5-1s3-10.5,2-12.5-2-5.5-.5-8.5l11-10a3,3,0,0,0-.1-2.1c-.1,0-.1-.1-.1-.2a.82.82,0,0,1,.4-.6.37.37,0,0,1,.3-.1L25.2,4l6-.5,1-2h3a13.07,13.07,0,0,1,2.7,1.2,1.14,1.14,0,0,0,.8.3C43.5,2.8,78,1.2,90.1,4c13,3,30,16.5,30,16.5s43.5,2.5,47,11V40l1,2s0,10.5-2,11a35,35,0,0,0-8.2,4.1,1.28,1.28,0,0,1-1,.4h-1.1" fill="#fff"/></g><g  class="body-car"><path d="M19.7,52.4s-14.5-2-15.5-2.5-4-1.5-3-9.5l1.5-1s3-10.5,2-12.5-2-5.5-.5-8.5l11-10a3,3,0,0,0-.1-2.1c-.1,0-.1-.2-.1-.3a.82.82,0,0,1,.4-.6.37.37,0,0,1,.3-.1l9.5-1.8,6-.5,1-2h3a13.07,13.07,0,0,1,2.7,1.2,1.14,1.14,0,0,0,.8.3c4.8-.2,39.3-1.8,51.4,1,13,3,30,16.5,30,16.5s43.5,2.5,47,11v8.5l1,2s0,10.5-2,11a35,35,0,0,0-8.2,4.1,1.28,1.28,0,0,1-1,.4h-1.1" fill="none" stroke="#000" stroke-linecap="round" stroke-linejoin="round" stroke-width="2"/><path d="M151,30.9l1.5-1.5s10.5-.5,13,2c0,0,0,3.5-2,3.5H162v.5S155,34.4,151,30.9Z" fill="none" stroke="#000" stroke-linecap="round" stroke-linejoin="round" stroke-width="2"/><path d="M3.7,20.4s17.5-2,14.5,2.5c0,0-2,3.5-5.5,3.5s-8.3-.2-8.3-.2" fill="none" stroke="#000" stroke-linecap="round" stroke-linejoin="round" stroke-width="2"/><path d="M37.7,5s-4.3,0-12.3,7.8a2.18,2.18,0,0,0-.5.8,1.39,1.39,0,0,0,0,.9A2.92,2.92,0,0,0,26.8,17c2,.5,12,2,12,2s74.4,5,76.4,5" fill="none" stroke="#000" stroke-linecap="round" stroke-linejoin="round" stroke-width="2"/><path d="M52.2,54.4l71.9,2" fill="none" stroke="#000" stroke-linecap="round" stroke-linejoin="round" stroke-width="2"/><path d="M165.5,38.9s-1-.5-2,1-1.5,8.5-1.5,8.5-.5,2.5,1,2,1.5-1.5,1.5-1.5" fill="none" stroke="#000" stroke-linecap="round" stroke-linejoin="round" stroke-width="2"/><path d="M42.2,23.4l6,.5" fill="none" stroke="#000" stroke-linecap="round" stroke-linejoin="round" stroke-width="2"/><path d="M81.1,25.9l6.5.5" fill="none" stroke="#000" stroke-linecap="round" stroke-linejoin="round" stroke-width="2"/></g><g  class="front-wheel"><path d="M133.6,55.5h13.6" fill="none" stroke="#181818" stroke-linecap="round" stroke-linejoin="round" stroke-width="2"/><path d="M135.6,60.2l9.6-9.5" fill="none" stroke="#181818" stroke-linecap="round" stroke-linejoin="round" stroke-width="2"/><path d="M140.4,62.2V48.7" fill="none" stroke="#181818" stroke-linecap="round" stroke-linejoin="round" stroke-width="2"/><path d="M145.2,60.2l-9.6-9.5" fill="none" stroke="#181818" stroke-linecap="round" stroke-linejoin="round" stroke-width="2"/><path d="M140.4,58.8a3.4,3.4,0,1,0-3.4-3.4A3.37,3.37,0,0,0,140.4,58.8Z" fill="#181818"/><path d="M140.4,44.2a11.25,11.25,0,1,0,11.3,11.3A11.27,11.27,0,0,0,140.4,44.2Zm0,18a6.75,6.75,0,1,1,.1-13.5,6.75,6.75,0,0,1-.1,13.5Z" fill="#181818"/></g><g  class="back-wheel"><path d="M26.4,55.5H40" fill="none" stroke="#181818" stroke-linecap="round" stroke-linejoin="round" stroke-width="2"/><path d="M28.4,60.2,38,50.7" fill="none" stroke="#181818" stroke-linecap="round" stroke-linejoin="round" stroke-width="2"/><path d="M33.2,62.2V48.7" fill="none" stroke="#181818" stroke-linecap="round" stroke-linejoin="round" stroke-width="2"/><path d="M38,60.2l-9.6-9.5" fill="none" stroke="#181818" stroke-linecap="round" stroke-linejoin="round" stroke-width="2"/><path d="M33.2,58.8a3.4,3.4,0,1,0-3.4-3.4,3.37,3.37,0,0,0,3.4,3.4Z" fill="#181818"/><path d="M33.2,44.2a11.2,11.2,0,0,0,.2,22.4,11.2,11.2,0,1,0-.2-22.4Zm0,18A6.75,6.75,0,1,1,40,55.5a6.79,6.79,0,0,1-6.8,6.7Z" fill="#181818"/></g></g></g></g></g></svg>
