<svg xmlns="http://www.w3.org/2000/svg" width="175.69" height="53.39" viewBox="0 0 175.69 53.39"><g  class="Layer_2" data-name="Layer 2"><g  class="ford-mustang"><g  class="solid-body-background" opacity="0"><path d="M23.43,45.38S8.3,44.92,5.69,42.57A26.65,26.65,0,0,1,1,36.22l1.83-4.58L1,26.67,7.26,15.19H18s30.7-11.13,45.64-13C72.65,1,88.29-.2,97.16,3.45c7,2.88,17.42,9.1,21.51,11.6a6.67,6.67,0,0,0,3.77,1c5.32-.18,19.74-.54,27.5.72,9.63,1.56,24.75,10.17,24.75,10.17l-2.08,4.71,2.08,2.68v13a67.76,67.76,0,0,1-10.43,1" fill="#ecebe1"/></g><g  class="body-car"><path d="M23.43,45.38S8.3,44.92,5.69,42.57A26.65,26.65,0,0,1,1,36.22l1.83-4.58L1,26.67,7.26,15.19H18s30.7-11.13,45.64-13C72.65,1,88.29-.2,97.16,3.45c7,2.88,17.42,9.1,21.51,11.6a6.67,6.67,0,0,0,3.77,1c5.32-.18,19.74-.54,27.5.72,9.63,1.56,24.75,10.17,24.75,10.17l-2.08,4.71,2.08,2.68v13a67.76,67.76,0,0,1-10.43,1" fill="none" stroke="#000" stroke-linecap="round" stroke-linejoin="round" stroke-width="2"/><line x1="61.77" y1="47.28" x2="108.71" y2="47.28" fill="none" stroke="#000" stroke-linecap="round" stroke-linejoin="round" stroke-width="2"/><path d="M44.07,12.06s2.57,3.13,9.87,3.13,51.9,2.09,51.9,2.09" fill="none" stroke="#000" stroke-linecap="round" stroke-linejoin="round" stroke-width="2"/><line x1="64.9" y1="22.23" x2="72.98" y2="22.23" fill="none" stroke="#000" stroke-linecap="round" stroke-linejoin="round" stroke-width="2"/><polygon points="155.01 30.06 161.34 27.27 169.68 29.34 168.03 34.01 160.21 33.32 155.01 30.06" fill="none" stroke="#000" stroke-linecap="round" stroke-linejoin="round" stroke-width="2"/><polyline points="5.11 19.13 9.93 20.85 10.98 26.13 8.87 28.53 1 26.61" fill="none" stroke="#000" stroke-linecap="round" stroke-linejoin="round" stroke-width="2"/></g><g  class="front-wheel"><line x1="135.01" y1="40.89" x2="150.01" y2="40.89" fill="none" stroke="#000" stroke-linecap="round" stroke-linejoin="round" stroke-width="2"/><line x1="137.21" y1="46.19" x2="147.81" y2="35.59" fill="none" stroke="#000" stroke-linecap="round" stroke-linejoin="round" stroke-width="2"/><line x1="142.51" y1="48.39" x2="142.51" y2="33.39" fill="none" stroke="#000" stroke-linecap="round" stroke-linejoin="round" stroke-width="2"/><line x1="147.81" y1="46.19" x2="137.21" y2="35.59" fill="none" stroke="#000" stroke-linecap="round" stroke-linejoin="round" stroke-width="2"/><circle cx="142.51" cy="40.89" r="3.75"/><path d="M142.51,28.39A12.5,12.5,0,1,0,155,40.89,12.5,12.5,0,0,0,142.51,28.39Zm0,20a7.5,7.5,0,1,1,7.5-7.5A7.5,7.5,0,0,1,142.51,48.42Z"/></g><g  class="back-wheel"><line x1="32" y1="40.89" x2="47" y2="40.89" fill="none" stroke="#000" stroke-linecap="round" stroke-linejoin="round" stroke-width="2"/><line x1="34.19" y1="46.19" x2="44.8" y2="35.59" fill="none" stroke="#000" stroke-linecap="round" stroke-linejoin="round" stroke-width="2"/><line x1="39.5" y1="48.39" x2="39.5" y2="33.39" fill="none" stroke="#000" stroke-linecap="round" stroke-linejoin="round" stroke-width="2"/><line x1="44.8" y1="46.19" x2="34.19" y2="35.59" fill="none" stroke="#000" stroke-linecap="round" stroke-linejoin="round" stroke-width="2"/><circle cx="39.5" cy="40.89" r="3.75"/><path d="M39.49,28.39A12.5,12.5,0,1,0,52,40.89,12.5,12.5,0,0,0,39.49,28.39Zm0,20a7.5,7.5,0,1,1,7.5-7.5A7.49,7.49,0,0,1,39.5,48.42Z"/></g></g></g></svg>