<svg xmlns="http://www.w3.org/2000/svg" width="187.7" height="61" viewBox="0 0 187.7 61"><g  class="Layer_2" data-name="Layer 2"><g  class="Layer_1-2" data-name="Layer 1"><g  class="Layer_2-2" data-name="Layer 2"><g  class="chevrolet-impala"><g  class="solid-body-background"><path d="M26.31,48,6.16,46l-4-3.35s-2-8.06-.67-10.08c0,0,3.36-2,4-5.37,0,0,.67-6.71,0-10.07a.67.67,0,0,1,.2-.48.67.67,0,0,1,.47-.19c.67,0,17.46-1.35,18.13-2,0,0,24.85-10.74,29.55-10.07v-2a11.83,11.83,0,0,1,4,.67s41-4,47.68-.67c0,0,28.2,10.74,30.22,13.43,0,0,41.63.67,47.67,8.73,0,0,3.09,6.78,2.75,12.67a7.05,7.05,0,0,0,.05,1.52l-.11,3.94.53,1a.33.33,0,0,1,0,.26.32.32,0,0,1-.15.21h0a13.67,13.67,0,0,1-2.42,1.69,5.19,5.19,0,0,0-1.35.82c-.67.67-.67,2-7.38,2h-6.72" fill="#fff"/></g><g  class="body-car"><path d="M26.31,48,6.16,46l-4-3.35s-2-8.06-.67-10.08c0,0,3.36-2,4-5.37,0,0,.67-6.71,0-10.07a.67.67,0,0,1,.2-.48.67.67,0,0,1,.47-.19c.67,0,17.46-1.35,18.13-2,0,0,24.85-10.74,29.55-10.07v-2a11.83,11.83,0,0,1,4,.67s41-4,47.68-.67c0,0,28.2,10.74,30.22,13.43,0,0,41.63.67,47.67,8.73,0,0,3.09,6.78,2.75,12.67a7.05,7.05,0,0,0,.05,1.52l-.11,3.94.53,1a.33.33,0,0,1,0,.26.32.32,0,0,1-.15.21h0a13.67,13.67,0,0,1-2.42,1.69,5.19,5.19,0,0,0-1.35.82c-.67.67-.67,2-7.38,2h-6.72" fill="none" stroke="#000" stroke-linecap="round" stroke-linejoin="round" stroke-width="2"/><path d="M5.63,26.07l8.59.44,2.69-5.37-2-1.34s-8.14,1-9.1,1.86" fill="none" stroke="#000" stroke-linecap="round" stroke-linejoin="round" stroke-width="2"/><path d="M70,48.85l52,.49" fill="none" stroke="#000" stroke-linecap="round" stroke-linejoin="round" stroke-width="2"/><path d="M57.2,7s-15.45,4.7-12.09,6.71,5.37,2,5.37,2L121,17.11" fill="none" stroke="#000" stroke-linecap="round" stroke-linejoin="round" stroke-width="2"/><path d="M59.88,20.47h7.39" fill="none" stroke="#000" stroke-linecap="round" stroke-linejoin="round" stroke-width="2"/><path d="M94.47,20.47h7.38" fill="none" stroke="#000" stroke-linecap="round" stroke-linejoin="round" stroke-width="2"/><path d="M185.26,30.43s-5.17-2.58-9.88-2.58-5.37-1.34-8-4.7c0,0,14.84,1.25,16.15,2.31" fill="none" stroke="#000" stroke-linecap="round" stroke-linejoin="round" stroke-width="2"/><path d="M182.05,38.83l-5.82-1s-2.89,3.23-2.4,3.83.94,1.79,2.54,1.9l5.85.41" fill="none" stroke="#000" stroke-linecap="round" stroke-linejoin="round" stroke-width="2"/><path d="M2.13,42.63H4.82c.67,0,2.69,2,2.69,2l.14,1.2" fill="none" stroke="#000" stroke-linecap="round" stroke-linejoin="round" stroke-width="2"/></g><g  class="front-wheel"><path d="M143.07,48.5h15" fill="none" stroke="#181818" stroke-linecap="round" stroke-linejoin="round" stroke-width="2"/><path d="M145.25,53.8l10.62-10.6" fill="none" stroke="#181818" stroke-linecap="round" stroke-linejoin="round" stroke-width="2"/><path d="M150.57,56V41" fill="none" stroke="#181818" stroke-linecap="round" stroke-linejoin="round" stroke-width="2"/><path d="M155.87,53.8,145.25,43.2" fill="none" stroke="#181818" stroke-linecap="round" stroke-linejoin="round" stroke-width="2"/><path d="M150.57,52.25a3.75,3.75,0,1,0-3.75-3.75A3.74,3.74,0,0,0,150.57,52.25Z" fill="#181818"/><path d="M150.57,36a12.5,12.5,0,1,0,12.5,12.5A12.51,12.51,0,0,0,150.57,36Zm0,20a7.5,7.5,0,1,1,7.5-7.5A7.5,7.5,0,0,1,150.57,56Z" fill="#181818"/></g><g  class="back-wheel"><path d="M36,48.5H51" fill="none" stroke="#181818" stroke-linecap="round" stroke-linejoin="round" stroke-width="2"/><path d="M38.2,53.8,48.83,43.2" fill="none" stroke="#181818" stroke-linecap="round" stroke-linejoin="round" stroke-width="2"/><path d="M43.5,56V41" fill="none" stroke="#181818" stroke-linecap="round" stroke-linejoin="round" stroke-width="2"/><path d="M48.83,53.8,38.2,43.2" fill="none" stroke="#181818" stroke-linecap="round" stroke-linejoin="round" stroke-width="2"/><path d="M43.5,52.25a3.75,3.75,0,1,0-3.75-3.75A3.75,3.75,0,0,0,43.5,52.25Z" fill="#181818"/><path d="M43.5,36A12.5,12.5,0,1,0,56,48.5,12.5,12.5,0,0,0,43.5,36Zm0,20a7.5,7.5,0,1,1,7.5-7.5A7.5,7.5,0,0,1,43.5,56Z" fill="#181818"/></g></g></g></g></g></svg>
