<svg xmlns="http://www.w3.org/2000/svg" width="182" height="66" viewBox="0 0 182 66"><g  class="Layer_2" data-name="Layer 2"><g  class="Layer_1-2" data-name="Layer 1"><g  class="Layer_2-2" data-name="Layer 2"><g  class="toyota-rav4"><g  class="solid-body-background"><path d="M18.91,54.4S.5,55.42,1,44.23L3.48,38.5a9.08,9.08,0,0,0,.72-2.9l.39-5.08L2.8,20.2A2.22,2.22,0,0,1,3.74,18c2.81-1.86,9.94-6.61,14.12-9.51A.66.66,0,0,0,18,8.31a.5.5,0,0,0,.09-.24.57.57,0,0,0,0-.26A.66.66,0,0,0,18,7.57a24.76,24.76,0,0,0-1.82-2.16.19.19,0,0,1-.07-.11.33.33,0,0,1,0-.14.16.16,0,0,1,.08-.1A.23.23,0,0,1,16.33,5c2.52-.34,14.22-2,17.87-3a14.63,14.63,0,0,1,3.42-.56c9.85-.34,47.92-1.41,59,2.12,0,0,25.06,10.17,33.75,16.79,0,0,34.26,1.52,46,9.15a7.07,7.07,0,0,1,3.07,4.07S181,45.76,180,47.79l-.51,3.56,1.53,1s0,3.05-2,3.56a65.49,65.49,0,0,1-12.28,1.52s3.35-20.67-18.2-22.28c-22.69-1.69-20.86,20.66-20.86,20.66" fill="#fff"/></g><g  class="body-car"><path d="M18.91,54.4S.5,55.42,1,44.23L3.48,38.5a9.08,9.08,0,0,0,.72-2.9l.39-5.08L2.8,20.2A2.22,2.22,0,0,1,3.74,18c2.81-1.86,9.94-6.61,14.12-9.51A.66.66,0,0,0,18,8.31a.5.5,0,0,0,.09-.24.57.57,0,0,0,0-.26A.66.66,0,0,0,18,7.57a24.76,24.76,0,0,0-1.82-2.16.19.19,0,0,1-.07-.11.33.33,0,0,1,0-.14.16.16,0,0,1,.08-.1A.23.23,0,0,1,16.33,5c2.52-.34,14.22-2,17.87-3a14.63,14.63,0,0,1,3.42-.56c9.85-.34,47.92-1.41,59,2.12,0,0,25.06,10.17,33.75,16.79,0,0,34.26,1.52,46,9.15a7.07,7.07,0,0,1,3.07,4.07S181,45.76,180,47.79l-.51,3.56,1.53,1s0,3.05-2,3.56a65.49,65.49,0,0,1-12.28,1.52" fill="none" stroke="#000" stroke-linecap="round" stroke-linejoin="round" stroke-width="2"/><path d="M178.43,38.63s-3.58-1-4.6,0c0,0-3.58,9.16-1.53,10.18a7,7,0,0,0,3.58,1" fill="none" stroke="#000" stroke-linecap="round" stroke-linejoin="round" stroke-width="2"/><path d="M176.39,29.48S166.16,25.92,160,25.92c-4.09,0,19.59,10.1,19.59,10.1" fill="none" stroke="#000" stroke-linecap="round" stroke-linejoin="round" stroke-width="2"/><path d="M47,4.56a8.87,8.87,0,0,0-4.55.67c-.47.2-.92.45-1.4.69-2.95,1.47-13.33,5.92-12.46,9.83,0,0,.49,2.9,11.91,3.05.67,0,1.35,0,2,.08,8.86.6,66.21,4.35,82.71,2.47" fill="none" stroke="#000" stroke-linecap="round" stroke-linejoin="round" stroke-width="2"/><path d="M2.9,19.23s8.85-.43,9.87.59l5.31,5.76a.19.19,0,0,1,.05.1.18.18,0,0,1,0,.1.19.19,0,0,1-.07.08.2.2,0,0,1-.11,0c-2.48-.16-14.1-.89-14.22-.7" fill="none" stroke="#000" stroke-linecap="round" stroke-linejoin="round" stroke-width="2"/><path d="M45,24.39l7.16.51" fill="none" stroke="#000" stroke-linecap="round" stroke-linejoin="round" stroke-width="2"/><path d="M87.42,28l7.16.5" fill="none" stroke="#000" stroke-linecap="round" stroke-linejoin="round" stroke-width="2"/><path d="M62.88,55.42l63.48,1a1.59,1.59,0,0,0,1.06-.4,1.53,1.53,0,0,0,.52-1c.76-6.75,2.62-13.17,6.06-16.51,3-2.93,8.06-2.48,11.2-2.93" fill="none" stroke="#000" stroke-linecap="round" stroke-linejoin="round" stroke-width="2"/></g><g  class="front-wheel"><path d="M140.07,53.5h15" fill="none" stroke="#181818" stroke-linecap="round" stroke-linejoin="round" stroke-width="2"/><path d="M142.25,58.8l10.62-10.6" fill="none" stroke="#181818" stroke-linecap="round" stroke-linejoin="round" stroke-width="2"/><path d="M147.57,61V46" fill="none" stroke="#181818" stroke-linecap="round" stroke-linejoin="round" stroke-width="2"/><path d="M152.87,58.8,142.25,48.2" fill="none" stroke="#181818" stroke-linecap="round" stroke-linejoin="round" stroke-width="2"/><path d="M147.57,57.25a3.75,3.75,0,1,0-3.75-3.75A3.74,3.74,0,0,0,147.57,57.25Z" fill="#181818"/><path d="M147.57,41a12.5,12.5,0,1,0,12.5,12.5A12.51,12.51,0,0,0,147.57,41Zm0,20a7.5,7.5,0,1,1,7.5-7.5A7.5,7.5,0,0,1,147.57,61Z" fill="#181818"/></g><g  class="back-wheel"><path d="M28,53.5H43" fill="none" stroke="#181818" stroke-linecap="round" stroke-linejoin="round" stroke-width="2"/><path d="M30.2,58.8,40.83,48.2" fill="none" stroke="#181818" stroke-linecap="round" stroke-linejoin="round" stroke-width="2"/><path d="M35.5,61V46" fill="none" stroke="#181818" stroke-linecap="round" stroke-linejoin="round" stroke-width="2"/><path d="M40.83,58.8,30.2,48.2" fill="none" stroke="#181818" stroke-linecap="round" stroke-linejoin="round" stroke-width="2"/><path d="M35.5,57.25a3.75,3.75,0,1,0-3.75-3.75A3.75,3.75,0,0,0,35.5,57.25Z" fill="#181818"/><path d="M35.5,41A12.5,12.5,0,1,0,48,53.5,12.5,12.5,0,0,0,35.5,41Zm0,20a7.5,7.5,0,1,1,7.5-7.5A7.49,7.49,0,0,1,35.5,61Z" fill="#181818"/></g></g></g></g></g></svg>
