<svg version="1.1"  class="Layer_1" xmlns="http://www.w3.org/2000/svg" xmlns:xlink="http://www.w3.org/1999/xlink" width="136" height="93.68" x="0px" y="0px"
	 viewBox="0 0 183.9 56.8" style="enable-background:new 0 0 183.9 56.8;" xml:space="preserve">
<style type="text/css">
	.st0{fill:#ECEBE1;fill-opacity:0;}
	.st1{fill:none;stroke:#000000;stroke-width:2;stroke-linecap:round;stroke-linejoin:round;}
</style>
<g  class="Layer_2" data-name="Layer 2">
	<g  class="electric-vehicles">
		<g  class="solid-body-background">
			<path  class="Vector st0" d="M25.4,45.5c-6.9,0-17.1-2.9-20.9-3.2c-2-0.2-3.6-1.9-3.5-3.9c0-1.6,0.1-3.6,0.1-5.4
				c0-7.4,4.3-8.1,4.3-14.7c0-4.4,3.6-4.5,3.6-4.5h19.2C32.5,13.8,40.7,1,59,1h28c0,0,16,0,25,5s17,8.8,17,8.8s30.3,2.8,43,4.5
				c2.8,0.4,5.3,2.3,6.3,4.9c6.1,15.5,7.4,22.6-4,22.6"/>
		</g>
		<g  class="body-car">
			<polyline class="st1" points="63.7,46.8 63.7,46.8 124.1,46.8 			"/>
			<path class="st1" d="M25.4,45.5c-6.9,0-17.1-2.9-20.9-3.2c-2-0.2-3.6-1.9-3.5-3.9c0-1.6,0.1-3.6,0.1-5.4c0-7.4,4.3-8.1,4.3-14.7
				c0-4.4,3.6-4.5,3.6-4.5h19.2C32.5,13.8,40.7,1,59,1h28c0,0,16,0,25,5s17,8.8,17,8.8s30.3,2.8,43,4.5c2.8,0.4,5.3,2.3,6.3,4.9
				c6.1,15.5,7.4,22.6-4,22.6"/>
			<line class="st1" x1="89" y1="21.8" x2="83" y2="21.8"/>
			<line class="st1" x1="50" y1="21.8" x2="56" y2="21.8"/>
			<path class="st1" d="M99.1,14.8H52.3c-1.9,0-3.4-1.5-3.4-3.3c0-0.2,0-0.4,0.1-0.7c0.6-2.7,2.2-5,4.6-6.4"/>
			<path class="st1" d="M5.2,20.8h6.9c0.8,0,1.5,0.6,1.5,1.4c0,0.2-0.1,0.5-0.2,0.7L10.9,28c-0.2,0.5-0.8,0.8-1.3,0.8H1.6"/>
			<path class="st1" d="M175.9,21.3h-5.5c-1.7-0.1-3,1.2-3.1,2.9c0,0.8,0.2,1.5,0.8,2.1l1.1,1.4c1.1,1.4,2.8,2.2,4.6,2.2l6.8,0.3"/>
		</g>
		<g  class="back-wheel">
			<line class="st1" x1="35" y1="44.3" x2="50" y2="44.3"/>
			<line class="st1" x1="37.2" y1="49.6" x2="47.8" y2="39"/>
			<line class="st1" x1="42.5" y1="51.8" x2="42.5" y2="36.8"/>
			<line class="st1" x1="47.8" y1="49.6" x2="37.2" y2="39"/>
			<circle cx="42.5" cy="44.3" r="3.8"/>
			<path d="M42.5,31.8c-6.9,0-12.5,5.6-12.5,12.5c0,6.9,5.6,12.5,12.5,12.5c6.9,0,12.5-5.6,12.5-12.5C55,37.4,49.4,31.8,42.5,31.8
				C42.5,31.8,42.5,31.8,42.5,31.8z M42.5,51.8c-4.1,0-7.5-3.4-7.5-7.5s3.4-7.5,7.5-7.5s7.5,3.4,7.5,7.5c0,0,0,0,0,0
				C50,48.4,46.6,51.8,42.5,51.8C42.5,51.8,42.5,51.8,42.5,51.8L42.5,51.8z"/>
		</g>
		<g  class="front-wheel">
			<line class="st1" x1="148.3" y1="44.3" x2="163.3" y2="44.3"/>
			<line class="st1" x1="150.5" y1="49.6" x2="161.1" y2="39"/>
			<line class="st1" x1="155.8" y1="51.8" x2="155.8" y2="36.8"/>
			<line class="st1" x1="161.1" y1="49.6" x2="150.5" y2="39"/>
			<circle cx="155.8" cy="44.3" r="3.8"/>
			<path d="M155.8,31.8c-6.9,0-12.5,5.6-12.5,12.5c0,6.9,5.6,12.5,12.5,12.5c6.9,0,12.5-5.6,12.5-12.5
				C168.3,37.4,162.7,31.8,155.8,31.8C155.8,31.8,155.8,31.8,155.8,31.8z M155.8,51.8c-4.1,0-7.5-3.4-7.5-7.5s3.4-7.5,7.5-7.5
				s7.5,3.4,7.5,7.5l0,0C163.3,48.4,160,51.8,155.8,51.8C155.8,51.8,155.8,51.8,155.8,51.8L155.8,51.8z"/>
		</g>
	</g>
</g>
<path class="electric-car-symbol" d="M116,23.8l-0.7,1.2h1.4h6.9h0c0,0,0.1,0,0.2,0.1c0,0.1,0,0.2,0,0.3l0,0l0,0l-12.5,14.9l0,0l0,0
	c0,0.1-0.1,0.1-0.1,0.1c0,0-0.1,0-0.1,0c0,0-0.1-0.1-0.1-0.1c0,0,0,0,0-0.1l0,0l0,0l1.8-7.8l0.2-1h-1h-7.4c0,0-0.1,0-0.1-0.1
	c0-0.1,0-0.2,0-0.2l0,0l0,0l8.4-15C112.9,16,113,16,113,16h7c0.1,0,0.2,0.1,0.2,0.1c0,0,0,0.1,0,0.3L116,23.8z"/>
</svg>
