<svg xmlns="http://www.w3.org/2000/svg" width="179" height="68.57" viewBox="0 0 179 68.57"><g  class="Layer_2" data-name="Layer 2"><g  class="Layer_1-2" data-name="Layer 1"><g  class="Layer_2-2" data-name="Layer 2"><g  class="chevrolet-equinox"><g  class="solid-body-background"><path d="M17.7,56.17s-7.54.47-10.84-2.34a44.54,44.54,0,0,1-4.84-5,4.18,4.18,0,0,1-.88-1.68,4.35,4.35,0,0,1-.06-1.9c.17-.87.37-1.88.58-2.71.47-1.88.94-4.22.94-4.22l-.94-1.88L3.07,28l-.94-1.88s0-4.69,2.83-6.09L14.39,9.74l-.47-1.88S12,6,14.39,6L26.65,4.58,30,2.7,29,1.77s3.3-.94,5.18,0c0,0,53.75-2.82,62.71,2.34,0,0,26.41,9.38,34.89,16.89,0,0,37.25,3.28,41.5,10.31a6.43,6.43,0,0,1,1.41,2.82l.94.94.47,2.34S178,42.1,178,44s-.94,11.25-.94,11.25-.47,1.41-3.77,2.35c0,0-4.72.94-6.61,2.34h-2.35" fill="#fff"/></g><g  class="body-car"><path d="M17.7,56.17s-7.54.47-10.84-2.34a44.54,44.54,0,0,1-4.84-5,4.18,4.18,0,0,1-.88-1.68,4.35,4.35,0,0,1-.06-1.9c.17-.87.37-1.88.58-2.71.47-1.88.94-4.22.94-4.22l-.94-1.88L3.07,28l-.94-1.88s0-4.69,2.83-6.09L14.39,9.74l-.47-1.88S12,6,14.39,6L26.65,4.58,30,2.7,29,1.77s3.3-.94,5.18,0c0,0,53.75-2.82,62.71,2.34,0,0,26.41,9.38,34.89,16.89,0,0,37.25,3.28,41.5,10.31a6.43,6.43,0,0,1,1.41,2.82l.94.94.47,2.34S178,42.1,178,44s-.94,11.25-.94,11.25-.47,1.41-3.77,2.35c0,0-4.72.94-6.61,2.34h-2.35" fill="none" stroke="#000" stroke-linecap="round" stroke-linejoin="round" stroke-width="2"/><path d="M165,43s7.07.47,8,2.35c0,0,1.42,3.28,1,4.22s-.47.93-1.89,1.4h-6.6" fill="none" stroke="#000" stroke-linecap="round" stroke-linejoin="round" stroke-width="2"/><path d="M173.53,31.88,158.21,29a1.56,1.56,0,0,0,.28.83,1.61,1.61,0,0,0,.66.58c.94.47,7.54,4.22,7.54,4.22s8.55,2.47,9.7,3.82" fill="none" stroke="#000" stroke-linecap="round" stroke-linejoin="round" stroke-width="2"/><path d="M44,6S28.75,17,24.24,16.59L18,17" fill="none" stroke="#000" stroke-linecap="round" stroke-linejoin="round" stroke-width="2"/><path d="M3.08,28a43.58,43.58,0,0,1,4.42.65,1.89,1.89,0,0,0,.82,0,1.77,1.77,0,0,0,.73-.35l6.26-5.06a.91.91,0,0,0,.25-.3.9.9,0,0,0,.1-.39.88.88,0,0,0-.08-.39.82.82,0,0,0-.24-.32,2.05,2.05,0,0,0-1.41-.44s-9.37-1.11-11,1.09" fill="none" stroke="#000" stroke-linecap="round" stroke-linejoin="round" stroke-width="2"/><path d="M52.59,6.46s-13.2,7.63-14.92,10.78a.63.63,0,0,0-.05.43.59.59,0,0,0,.26.34c6.42,4,74,6.71,89.21,6.25" fill="none" stroke="#000" stroke-linecap="round" stroke-linejoin="round" stroke-width="2"/><path d="M43.63,23.81l7.08.47" fill="none" stroke="#000" stroke-linecap="round" stroke-linejoin="round" stroke-width="2"/><path d="M86.54,26.62l7.54.47" fill="none" stroke="#000" stroke-linecap="round" stroke-linejoin="round" stroke-width="2"/><path d="M54.48,57.58l66.48.94" fill="none" stroke="#000" stroke-linecap="round" stroke-linejoin="round" stroke-width="2"/></g><g  class="front-wheel"><path d="M139.23,57.29h13.62" fill="none" stroke="#181818" stroke-linecap="round" stroke-linejoin="round" stroke-width="2"/><path d="M141.2,62.07l9.65-9.57" fill="none" stroke="#181818" stroke-linecap="round" stroke-linejoin="round" stroke-width="2"/><path d="M146,64.06V50.51" fill="none" stroke="#181818" stroke-linecap="round" stroke-linejoin="round" stroke-width="2"/><path d="M150.85,62.07,141.2,52.5" fill="none" stroke="#181818" stroke-linecap="round" stroke-linejoin="round" stroke-width="2"/><path d="M146,60.67a3.39,3.39,0,1,0-3.41-3.39A3.4,3.4,0,0,0,146,60.67Z" fill="#181818"/><path d="M146,46a11.29,11.29,0,1,0,11.35,11.28A11.33,11.33,0,0,0,146,46Zm0,18.08a6.77,6.77,0,1,1,6.81-6.77A6.78,6.78,0,0,1,146,64.08Z" fill="#181818"/></g><g  class="back-wheel"><path d="M26.54,57.29H40.16" fill="none" stroke="#181818" stroke-linecap="round" stroke-linejoin="round" stroke-width="2"/><path d="M28.54,62.07l9.65-9.57" fill="none" stroke="#181818" stroke-linecap="round" stroke-linejoin="round" stroke-width="2"/><path d="M33.35,64.06V50.51" fill="none" stroke="#181818" stroke-linecap="round" stroke-linejoin="round" stroke-width="2"/><path d="M38.19,62.07,28.54,52.5" fill="none" stroke="#181818" stroke-linecap="round" stroke-linejoin="round" stroke-width="2"/><path d="M33.35,60.67A3.39,3.39,0,1,0,30,57.28,3.4,3.4,0,0,0,33.35,60.67Z" fill="#181818"/><path d="M33.35,46A11.29,11.29,0,1,0,44.7,57.28,11.33,11.33,0,0,0,33.35,46Zm0,18.08a6.77,6.77,0,1,1,6.81-6.77A6.78,6.78,0,0,1,33.35,64.08Z" fill="#181818"/></g></g></g></g></g></svg>
