<svg xmlns="http://www.w3.org/2000/svg" width="182" height="58.57" viewBox="0 0 182 58.57"><g  class="Layer_2" data-name="Layer 2"><g  class="Layer_1-2" data-name="Layer 1"><g  class="Layer_2-2" data-name="Layer 2"><g  class="gmc-sierra-2500hd"><g  class="solid-body-background"><path d="M18.26,45.5H15.35a.16.16,0,0,1-.11,0l-1.1-1.09a.15.15,0,0,0-.11,0H11.27a.12.12,0,0,1-.1,0,.16.16,0,0,1-.05-.11v-.87a.16.16,0,0,0,0-.11.12.12,0,0,0-.1,0H1.15a.12.12,0,0,1-.1,0A.16.16,0,0,1,1,43V35.61a.16.16,0,0,1,.05-.11.15.15,0,0,1,.1,0H3.23a.21.21,0,0,0,.11,0,.21.21,0,0,0,0-.11v-1a.13.13,0,0,0,0-.06l-.05-.06c-.24-.17-1.13-1-1.13-3.5V19a.31.31,0,0,1,0-.08l.06-.05,1-.48a.1.1,0,0,0,0,0,.05.05,0,0,0,0-.05.13.13,0,0,0,0-.06.14.14,0,0,0,0-.06l-1-2a.17.17,0,0,1,0-.07.11.11,0,0,1,0-.08l0-.05a.12.12,0,0,1,.08,0H68.11a.16.16,0,0,0,.11-.05.12.12,0,0,0,0-.1c0-1.18.13-8.7,1.71-11.53a.14.14,0,0,0,0-.06v0l0-.06,0,0c-.84-.31-1.53-1.18,0-2a2.58,2.58,0,0,1,1.19-.26c4.5-.06,38.7-.43,43.66,1a.56.56,0,0,0,.42,0,.61.61,0,0,0,.28-.33l.29-.87a.35.35,0,0,1,.17-.19.34.34,0,0,1,.26,0,6.43,6.43,0,0,1,3.25,2.26c1,1.55,20.24,11.22,20.83,11.81s39.29,1.77,39.29,7.08,0,10.63.6,12.4,1.19,6.49.59,8.27A8.5,8.5,0,0,1,175.5,49a.16.16,0,0,0-.08.06.2.2,0,0,0,0,.09v.92a.12.12,0,0,1-.05.1.16.16,0,0,1-.11,0l-5.32-.3s-4.44-14.81-8.38-18.34c-5.61-5-2.82-4.34-16.29-4.6s-12.52,21.17-12.52,21.17" fill="#fff"/></g><g  class="body-car"><path d="M18.26,45.2H15.35a.16.16,0,0,1-.11-.05l-1.1-1.09A.16.16,0,0,0,14,44H11.27a.12.12,0,0,1-.1,0,.16.16,0,0,1-.05-.11V43a.16.16,0,0,0,0-.11.12.12,0,0,0-.1-.05H1.15a.12.12,0,0,1-.1,0A.16.16,0,0,1,1,42.68V35.31a.16.16,0,0,1,.05-.11.15.15,0,0,1,.1,0H3.23a.16.16,0,0,0,.11,0,.15.15,0,0,0,0-.1v-.95a.2.2,0,0,0,0-.07s0,0-.05-.05c-.24-.17-1.13-1-1.13-3.5V18.72a.24.24,0,0,1,0-.08l.06-.05,1-.48a.1.1,0,0,0,0,0,.05.05,0,0,0,0-.05.13.13,0,0,0,0-.06.14.14,0,0,0,0-.06l-1-2a.17.17,0,0,1,0-.07.11.11,0,0,1,0-.08l0-.05a.12.12,0,0,1,.08,0H68.11a.16.16,0,0,0,.11,0,.12.12,0,0,0,0-.1c0-1.18.13-8.7,1.71-11.53a.14.14,0,0,0,0-.06v0l0-.06,0,0c-.84-.31-1.53-1.18,0-2a2.58,2.58,0,0,1,1.19-.26c4.5-.06,38.7-.44,43.66,1a.62.62,0,0,0,.42-.06.59.59,0,0,0,.28-.32l.29-.87a.32.32,0,0,1,.17-.19.34.34,0,0,1,.26,0,6.43,6.43,0,0,1,3.25,2.26c1,1.55,20.24,11.22,20.83,11.81s39.29,1.77,39.29,7.08,0,10.63.6,12.4,1.19,6.49.59,8.26a8.49,8.49,0,0,1-5.25,5.87.16.16,0,0,0-.08.06.19.19,0,0,0,0,.08v.92a.14.14,0,0,1-.05.11.16.16,0,0,1-.11.05h-4" fill="none" stroke="#000" stroke-linecap="round" stroke-linejoin="round" stroke-width="2"/><path d="M75.41,3.87,74.82,14.5s-.6,1.77,2.38,2.36,53,1.18,53,1.18" fill="none" stroke="#000" stroke-linecap="round" stroke-linejoin="round" stroke-width="2"/><path d="M179.47,22.69A16.74,16.74,0,0,0,176,21.58a27.92,27.92,0,0,0-3.3,0,.43.43,0,0,0-.21.11.4.4,0,0,0-.12.21c-.13.63-.41,2.22.06,2.68s3.12,4.35,3.93,5.55a1.42,1.42,0,0,0,.6.51c.77.34,2.47,1.14,2.78,1.86" fill="none" stroke="#000" stroke-linecap="round" stroke-linejoin="round" stroke-width="2"/><path d="M3.38,18s4.76,0,4.76,1.18S7.19,31.8,2.9,33.48" fill="none" stroke="#000" stroke-linecap="round" stroke-linejoin="round" stroke-width="2"/><path d="M75.41,21.58h5.36" fill="none" stroke="#000" stroke-linecap="round" stroke-linejoin="round" stroke-width="2"/><path d="M105.47,22.17h5.36" fill="none" stroke="#000" stroke-linecap="round" stroke-linejoin="round" stroke-width="2"/><path d="M68.27,48.15l49.73.59h14.13a.56.56,0,0,0,.42-.18.59.59,0,0,0,.18-.41c0-2.32.56-10.63,1.13-12.4a14.9,14.9,0,0,1,5.65-7.08c2.2-1.39,12.5-1.19,16.71-.8a7,7,0,0,1,3.83,1.66c1.32,1.14,2.88,2.79,3.2,4.45" fill="none" stroke="#000" stroke-linecap="round" stroke-linejoin="round" stroke-width="2"/></g><g  class="front-wheel"><path d="M142.23,47.29h13.62" fill="none" stroke="#181818" stroke-linecap="round" stroke-linejoin="round" stroke-width="2"/><path d="M144.2,52.07l9.65-9.57" fill="none" stroke="#181818" stroke-linecap="round" stroke-linejoin="round" stroke-width="2"/><path d="M149,54.06V40.51" fill="none" stroke="#181818" stroke-linecap="round" stroke-linejoin="round" stroke-width="2"/><path d="M153.85,52.07,144.2,42.5" fill="none" stroke="#181818" stroke-linecap="round" stroke-linejoin="round" stroke-width="2"/><path d="M149,50.67a3.39,3.39,0,1,0-3.41-3.39A3.4,3.4,0,0,0,149,50.67Z" fill="#181818"/><path d="M149,36a11.29,11.29,0,1,0,11.35,11.28A11.33,11.33,0,0,0,149,36Zm0,18.08a6.77,6.77,0,1,1,6.81-6.77A6.78,6.78,0,0,1,149,54.08Z" fill="#181818"/></g><g  class="back-wheel"><path d="M29.54,47.29H43.16" fill="none" stroke="#181818" stroke-linecap="round" stroke-linejoin="round" stroke-width="2"/><path d="M31.54,52.07l9.65-9.57" fill="none" stroke="#181818" stroke-linecap="round" stroke-linejoin="round" stroke-width="2"/><path d="M36.35,54.06V40.51" fill="none" stroke="#181818" stroke-linecap="round" stroke-linejoin="round" stroke-width="2"/><path d="M41.19,52.07,31.54,42.5" fill="none" stroke="#181818" stroke-linecap="round" stroke-linejoin="round" stroke-width="2"/><path d="M36.35,50.67A3.39,3.39,0,1,0,33,47.28,3.4,3.4,0,0,0,36.35,50.67Z" fill="#181818"/><path d="M36.35,36A11.29,11.29,0,1,0,47.7,47.28,11.33,11.33,0,0,0,36.35,36Zm0,18.08a6.77,6.77,0,1,1,6.81-6.77A6.78,6.78,0,0,1,36.35,54.08Z" fill="#181818"/></g></g></g></g></g></svg>
