<svg xmlns="http://www.w3.org/2000/svg" width="152.26" height="58.33" viewBox="0 0 152.26 58.33"><g  class="Layer_2" data-name="Layer 2"><g  class="jeep-wrangler"><g  class="solid-body-background"><rect x="0.83" y="12.68" width="8.88" height="22.58" rx="1.16" fill="#ecebe1" opacity="0"/><path d="M17.19,44.59,8.05,43.33v-6H12V20.91c0-2.09,4.51-15.17,4.51-15.17s1-4.7,5.59-4.7H85.24s5.84-.76,9.14,4.19,8.89,13.08,8.89,13.08,21,.63,26.41,1.4,11.94,2.13,12.82,4.57c1,2.7,3.56,9.58,3.56,9.58l5.2,2.22v5.34L148,43.33" fill="#ecebe1" opacity="0"/></g><g  class="body-car"><path d="M17.19,44.59,8.05,43.33v-6H12V20.91c0-2.09,4.51-15.17,4.51-15.17s1-4.7,5.59-4.7H85.24s5.84-.76,9.14,4.19,8.89,13.08,8.89,13.08,21,.63,26.41,1.4,11.94,2.13,12.82,4.57c1,2.7,3.56,9.58,3.56,9.58l5.2,2.22v5.34L148,43.33" fill="none" stroke="#000" stroke-linecap="round" stroke-linejoin="round" stroke-width="2"/><line x1="94.26" y1="45.86" x2="52.61" y2="45.86" fill="none" stroke="#000" stroke-linecap="round" stroke-linejoin="round" stroke-width="2"/><line x1="48.8" y1="24.66" x2="55.02" y2="24.66" fill="none" stroke="#000" stroke-linecap="round" stroke-linejoin="round" stroke-width="2"/><line x1="72.16" y1="24.66" x2="77.62" y2="24.66" fill="none" stroke="#000" stroke-linecap="round" stroke-linejoin="round" stroke-width="2"/><path d="M22.15,8.41l-1,7.23s-.38,3.18,3.3,3.18H37.66" fill="none" stroke="#000" stroke-linecap="round" stroke-linejoin="round" stroke-width="2"/><path d="M47.41,7.64v8.64A2.48,2.48,0,0,0,50.14,19H61.37" fill="none" stroke="#000" stroke-linecap="round" stroke-linejoin="round" stroke-width="2"/><path d="M73.05,6.63V16.79A2.66,2.66,0,0,0,75.91,19H89.3" fill="none" stroke="#000" stroke-linecap="round" stroke-linejoin="round" stroke-width="2"/><polyline points="12.01 30.93 18.94 30.92 18.94 23.25 12.01 23.25" fill="none" stroke="#000" stroke-linecap="round" stroke-linejoin="round" stroke-width="2"/><path d="M8.86,30.48V15.57a2.1,2.1,0,0,0-2.1-2.1H3.1A2.1,2.1,0,0,0,1,15.57V32.13a2.1,2.1,0,0,0,2.1,2.1H4.43" fill="none" stroke="#000" stroke-linecap="round" stroke-linejoin="round" stroke-width="2"/><path d="M129,28.44h-8.68a8.38,8.38,0,0,0-6.8,4c-2.82,4.83-5.63,9.56-5.63,9.56" fill="none" stroke="#000" stroke-linecap="round" stroke-linejoin="round" stroke-width="2"/><line x1="18.94" y1="27.08" x2="15.46" y2="27.08" fill="none" stroke="#000" stroke-linecap="round" stroke-linejoin="round" stroke-width="2"/></g><g  class="front-wheel"><line x1="121.45" y1="45.83" x2="136.45" y2="45.83" fill="none" stroke="#000" stroke-linecap="round" stroke-linejoin="round" stroke-width="2"/><line x1="123.65" y1="51.13" x2="134.25" y2="40.52" fill="none" stroke="#000" stroke-linecap="round" stroke-linejoin="round" stroke-width="2"/><line x1="128.95" y1="53.33" x2="128.95" y2="38.33" fill="none" stroke="#000" stroke-linecap="round" stroke-linejoin="round" stroke-width="2"/><line x1="134.25" y1="51.13" x2="123.65" y2="40.52" fill="none" stroke="#000" stroke-linecap="round" stroke-linejoin="round" stroke-width="2"/><circle cx="128.95" cy="45.83" r="3.75"/><path d="M129,33.33a12.5,12.5,0,1,0,12.5,12.5A12.5,12.5,0,0,0,129,33.33Zm0,20a7.5,7.5,0,1,1,7.5-7.5A7.5,7.5,0,0,1,129,53.36Z"/></g><g  class="back-wheel"><line x1="28.14" y1="45.83" x2="43.14" y2="45.83" fill="none" stroke="#000" stroke-linecap="round" stroke-linejoin="round" stroke-width="2"/><line x1="30.33" y1="51.13" x2="40.94" y2="40.52" fill="none" stroke="#000" stroke-linecap="round" stroke-linejoin="round" stroke-width="2"/><line x1="35.64" y1="53.33" x2="35.64" y2="38.33" fill="none" stroke="#000" stroke-linecap="round" stroke-linejoin="round" stroke-width="2"/><line x1="40.94" y1="51.13" x2="30.33" y2="40.52" fill="none" stroke="#000" stroke-linecap="round" stroke-linejoin="round" stroke-width="2"/><circle cx="35.64" cy="45.83" r="3.75"/><path d="M35.63,33.33a12.5,12.5,0,1,0,12.51,12.5A12.49,12.49,0,0,0,35.63,33.33Zm0,20a7.5,7.5,0,1,1,7.5-7.5A7.5,7.5,0,0,1,35.64,53.36Z"/></g></g></g></svg>