<svg xmlns="http://www.w3.org/2000/svg" width="183" height="68" viewBox="0 0 183 68"><g  class="Layer_2" data-name="Layer 2"><g  class="Layer_1-2" data-name="Layer 1"><g  class="Layer_2-2" data-name="Layer 2"><g  class="dodge-durango"><g  class="solid-body-background"><path d="M21,56.36S8.33,55.21,6,53.47a7.52,7.52,0,0,0-1.18-.65C3.36,52.1.72,50.32,1,47c.08-.8.17-1.6.17-2.41V38.37l1.28-2.58s-1.28-12.89,0-15.46S12.73,6.8,12.73,6.8l-.64-1.93,1.28-.65,5.13-.64,5.77-.65L24.91,1h3.2l3.21,1.29s62.2-.65,69.89,1.93,28.85,12.89,32.06,15.46c0,0,43,2.58,45.52,9l.64,6.44,1.93,4.51.64,5.16s-2.29,8.06-.92,8.94a.93.93,0,0,1,.31.25.91.91,0,0,1,.16.74,1,1,0,0,1-.17.36h0L178.17,57l-8.33.64" fill="#fff"/></g><g  class="body-car"><path d="M21,56.36S8.33,55.21,6,53.47a7.52,7.52,0,0,0-1.18-.65C3.36,52.1.72,50.32,1,47c.08-.8.17-1.6.17-2.41V38.37l1.28-2.58s-1.28-12.89,0-15.46S12.73,6.8,12.73,6.8l-.64-1.93,1.28-.65,5.13-.64,5.77-.65L24.91,1h3.2l3.21,1.29s62.2-.65,69.89,1.93,28.85,12.89,32.06,15.46c0,0,43,2.58,45.52,9l.64,6.44,1.93,4.51.64,5.16s-2.29,8.06-.92,8.94a.93.93,0,0,1,.31.25.91.91,0,0,1,.16.74,1,1,0,0,1-.17.36h0L178.17,57l-8.33.64" fill="none" stroke="#000" stroke-linecap="round" stroke-linejoin="round" stroke-width="2"/><path d="M180.05,47.35h-3.2s-1.93,3.86-1.93,5.15h3.21" fill="none" stroke="#000" stroke-linecap="round" stroke-linejoin="round" stroke-width="2"/><path d="M179.41,35.1,178.77,37a5,5,0,0,0-2.8-1.29,4.81,4.81,0,0,1-.65-.08c-1-.23-4.9-.94-6.18-1.87,0,0-2.56-1.29-1.28-3.22,0,0,1.62-2.71,3.37-2.17a14,14,0,0,0,1.44.43l5.45,1.09.64-1.29" fill="none" stroke="#000" stroke-linecap="round" stroke-linejoin="round" stroke-width="2"/><path d="M2.12,30.09s3.52.51,5.44-.78,3.85-6.44,3.85-6.44H2.12" fill="none" stroke="#000" stroke-linecap="round" stroke-linejoin="round" stroke-width="2"/><path d="M59.51,5.47s-14.75,14.17-7.7,14.17L123,22.22" fill="none" stroke="#000" stroke-linecap="round" stroke-linejoin="round" stroke-width="2"/><path d="M50.53,24.8h6.41" fill="none" stroke="#000" stroke-linecap="round" stroke-linejoin="round" stroke-width="2"/><path d="M90.61,26.09H97" fill="none" stroke="#000" stroke-linecap="round" stroke-linejoin="round" stroke-width="2"/><path d="M51.81,5.47S41.55,18.36,37.07,18.36L18.41,19a17.56,17.56,0,0,0-1.77.13c-1.15.11-3.34-.18,1.19-5.24" fill="none" stroke="#000" stroke-linecap="round" stroke-linejoin="round" stroke-width="2"/><path d="M63.35,57h61.56" fill="none" stroke="#000" stroke-linecap="round" stroke-linejoin="round" stroke-width="2"/></g><g  class="front-wheel"><path d="M139.2,56h14.29" fill="none" stroke="#181818" stroke-linecap="round" stroke-linejoin="round" stroke-width="2"/><path d="M141.27,61.11,151.4,51" fill="none" stroke="#181818" stroke-linecap="round" stroke-linejoin="round" stroke-width="2"/><path d="M146.35,63.21V48.86" fill="none" stroke="#181818" stroke-linecap="round" stroke-linejoin="round" stroke-width="2"/><path d="M151.4,61.11,141.27,51" fill="none" stroke="#181818" stroke-linecap="round" stroke-linejoin="round" stroke-width="2"/><path d="M146.35,59.62A3.59,3.59,0,1,0,142.78,56,3.57,3.57,0,0,0,146.35,59.62Z" fill="#181818"/><path d="M146.35,44.07a12,12,0,1,0,11.91,12A11.94,11.94,0,0,0,146.35,44.07Zm0,19.17a7.18,7.18,0,1,1,7.14-7.18A7.16,7.16,0,0,1,146.35,63.24Z" fill="#181818"/></g><g  class="back-wheel"><path d="M30.53,56H44.82" fill="none" stroke="#181818" stroke-linecap="round" stroke-linejoin="round" stroke-width="2"/><path d="M32.63,61.11,42.75,51" fill="none" stroke="#181818" stroke-linecap="round" stroke-linejoin="round" stroke-width="2"/><path d="M37.68,63.21V48.86" fill="none" stroke="#181818" stroke-linecap="round" stroke-linejoin="round" stroke-width="2"/><path d="M42.75,61.11,32.63,51" fill="none" stroke="#181818" stroke-linecap="round" stroke-linejoin="round" stroke-width="2"/><path d="M37.68,59.62A3.59,3.59,0,1,0,34.1,56,3.57,3.57,0,0,0,37.68,59.62Z" fill="#181818"/><path d="M37.68,44.07a12,12,0,1,0,11.9,12A11.94,11.94,0,0,0,37.68,44.07Zm0,19.17a7.18,7.18,0,1,1,7.14-7.18A7.15,7.15,0,0,1,37.68,63.24Z" fill="#181818"/></g></g></g></g></g></svg>
