<svg xmlns="http://www.w3.org/2000/svg" width="141.05" height="111.5" viewBox="0 0 141.05 111.5"><g  class="Layer_2" data-name="Layer 2"><g  class="industrial"><g  class="solid-body-background" opacity="0"><path  class="Vector" d="M87.06,1V11.85h5.78V72.79h-.33L63.26,12.13H12.11A11.12,11.12,0,0,0,1,23.24V72.79H.19V99.43H106.88V1.82h-9" fill="#ecebe1"/></g><g  class="body-car"><line x1="40.12" y1="104.23" x2="63.54" y2="104.23" fill="none" stroke="#000" stroke-linecap="round" stroke-linejoin="round" stroke-width="2"/><path d="M1,86V23.24A11.12,11.12,0,0,1,12.11,12.13H63.26L92.51,72.79H65.82a4,4,0,0,0-4,4v3.52H47.39V72.54a7.65,7.65,0,0,0-7.65-7.66H10V82.11" fill="none" stroke="#000" stroke-linecap="round" stroke-linejoin="round" stroke-width="2"/><polyline points="62.37 57.38 67.8 60.8 67.8 72.79" fill="none" stroke="#000" stroke-linecap="round" stroke-linejoin="round" stroke-width="2"/><line x1="65" y1="51.33" x2="58.71" y2="62.6" fill="none" stroke="#000" stroke-linecap="round" stroke-linejoin="round" stroke-width="2"/><path d="M17.52,64.33V42a4.8,4.8,0,0,0-4.8-4.79" fill="none" stroke="#000" stroke-linecap="round" stroke-linejoin="round" stroke-width="2"/><path d="M92.51,72.79V12.13H87.06V1h15.71a4.11,4.11,0,0,1,4.11,4.11v93.3h24.65s8.52.09,8.52-8.53" fill="none" stroke="#000" stroke-linecap="round" stroke-linejoin="round" stroke-width="2"/></g><g  class="front-wheel"><path d="M83.26,81.5a15,15,0,1,0,15,15A15,15,0,0,0,83.26,81.5Zm0,23.13a8.13,8.13,0,1,1,8.13-8.13A8.12,8.12,0,0,1,83.3,104.63Z"/><line x1="83.26" y1="104.63" x2="83.26" y2="88.38" fill="none" stroke="#000" stroke-linecap="round" stroke-linejoin="round" stroke-width="2"/><line x1="88.99" y1="102.25" x2="77.5" y2="90.76" fill="none" stroke="#000" stroke-linecap="round" stroke-linejoin="round" stroke-width="2"/><line x1="91.36" y1="96.52" x2="75.11" y2="96.52" fill="none" stroke="#000" stroke-linecap="round" stroke-linejoin="round" stroke-width="2"/><line x1="88.99" y1="90.79" x2="77.5" y2="102.28" fill="none" stroke="#000" stroke-linecap="round" stroke-linejoin="round" stroke-width="2"/><circle cx="83.26" cy="96.5" r="3.82"/></g><g  class="back-wheel"><path d="M14.24,86.24a12.5,12.5,0,1,0,12.5,12.5A12.5,12.5,0,0,0,14.24,86.24Zm0,19.5a7,7,0,1,1,7-7A7,7,0,0,1,14.28,105.74Z"/><line x1="14.24" y1="105.74" x2="14.24" y2="91.75" fill="none" stroke="#000" stroke-linecap="round" stroke-linejoin="round" stroke-width="2"/><line x1="19.2" y1="103.68" x2="9.31" y2="93.79" fill="none" stroke="#000" stroke-linecap="round" stroke-linejoin="round" stroke-width="2"/><line x1="21.26" y1="98.72" x2="7.27" y2="98.72" fill="none" stroke="#000" stroke-linecap="round" stroke-linejoin="round" stroke-width="2"/><line x1="19.2" y1="93.76" x2="9.31" y2="103.65" fill="none" stroke="#000" stroke-linecap="round" stroke-linejoin="round" stroke-width="2"/><circle cx="14.24" cy="98.74" r="3.25"/></g></g></g></svg>