<svg xmlns="http://www.w3.org/2000/svg" width="173.51" height="53.61" viewBox="0 0 173.51 53.61"><g  class="Layer_2" data-name="Layer 2"><g  class="dodge-charger"><g  class="solid-body-background"><path d="M19,44.34,7.58,43a6.57,6.57,0,0,1-6.09-6.46L1,30.37,5.87,26,2.46,14.05,24,12.83s19.88-8,31.81-10,34.35-2.93,44.1,0,24.6,13.39,24.6,13.39,30-1.46,44.34,8.77v6l3.65,2.25v7.85s.23,3.21-9.74,4.54" fill="#ecebe1" opacity="0"/></g><g  class="body-car"><path d="M19,44.34,7.58,43a6.57,6.57,0,0,1-6.09-6.46L1,30.37,5.87,26,2.46,14.05,24,12.83s19.88-8,31.81-10,34.35-2.93,44.1,0,24.6,13.39,24.6,13.39,30-1.46,44.34,8.77v6l3.65,2.25v7.85s.23,3.21-9.74,4.54" fill="none" stroke="#000" stroke-linecap="round" stroke-linejoin="round" stroke-width="2"/><path d="M44.73,11.37l.89,3.81s48.92,3,57.23,3.13,13.74,0,13.74,0" fill="none" stroke="#000" stroke-linecap="round" stroke-linejoin="round" stroke-width="2"/><line x1="47.18" y1="20.62" x2="52.36" y2="20.62" fill="none" stroke="#000" stroke-linecap="round" stroke-linejoin="round" stroke-width="2"/><line x1="82.16" y1="23.33" x2="87.47" y2="23.33" fill="none" stroke="#000" stroke-linecap="round" stroke-linejoin="round" stroke-width="2"/><path d="M105.3,23.33s10.34.69,7.35,6.82-3.54,8-14.84,8.57" fill="none" stroke="#000" stroke-linecap="round" stroke-linejoin="round" stroke-width="2"/><path d="M52.36,45.67s38.23,1,46.22,1.11" fill="none" stroke="#000" stroke-linecap="round" stroke-linejoin="round" stroke-width="2"/><path d="M168.64,25s-4.1-1.87-7.47-.82A5.21,5.21,0,0,0,157.48,29l11.37,2" fill="none" stroke="#000" stroke-linecap="round" stroke-linejoin="round" stroke-width="2"/><path d="M3.37,17.22l10.3,2.56,1.38,3.73a1.93,1.93,0,0,1-1.84,2.59L5.87,26" fill="none" stroke="#000" stroke-linecap="round" stroke-linejoin="round" stroke-width="2"/></g><g  class="front-wheel"><line x1="136.47" y1="41.11" x2="151.47" y2="41.11" fill="none" stroke="#000" stroke-linecap="round" stroke-linejoin="round" stroke-width="2"/><line x1="138.66" y1="46.42" x2="149.27" y2="35.81" fill="none" stroke="#000" stroke-linecap="round" stroke-linejoin="round" stroke-width="2"/><line x1="143.97" y1="48.61" x2="143.97" y2="33.61" fill="none" stroke="#000" stroke-linecap="round" stroke-linejoin="round" stroke-width="2"/><line x1="149.27" y1="46.42" x2="138.66" y2="35.81" fill="none" stroke="#000" stroke-linecap="round" stroke-linejoin="round" stroke-width="2"/><circle cx="143.97" cy="41.11" r="3.75"/><path d="M144,28.61a12.5,12.5,0,1,0,12.51,12.5A12.5,12.5,0,0,0,144,28.61Zm0,20a7.5,7.5,0,1,1,7.5-7.5A7.5,7.5,0,0,1,144,48.65Z"/></g><g  class="back-wheel"><line x1="28.99" y1="41.11" x2="43.99" y2="41.11" fill="none" stroke="#000" stroke-linecap="round" stroke-linejoin="round" stroke-width="2"/><line x1="31.19" y1="46.42" x2="41.8" y2="35.81" fill="none" stroke="#000" stroke-linecap="round" stroke-linejoin="round" stroke-width="2"/><line x1="36.49" y1="48.61" x2="36.49" y2="33.61" fill="none" stroke="#000" stroke-linecap="round" stroke-linejoin="round" stroke-width="2"/><line x1="41.8" y1="46.42" x2="31.19" y2="35.81" fill="none" stroke="#000" stroke-linecap="round" stroke-linejoin="round" stroke-width="2"/><circle cx="36.49" cy="41.11" r="3.75"/><path d="M36.49,28.61A12.5,12.5,0,1,0,49,41.11,12.5,12.5,0,0,0,36.49,28.61Zm0,20a7.5,7.5,0,1,1,7.5-7.5A7.5,7.5,0,0,1,36.49,48.65Z"/></g></g></g></svg>