<svg xmlns="http://www.w3.org/2000/svg" width="182.2" height="62.49" viewBox="0 0 182.2 62.49"><g  class="Layer_2" data-name="Layer 2"><g  class="luxury"><g  class="solid-body-background"><path  class="Vector" d="M22.1,48.44l-17-3.66s-3.66-1-4-7a58.64,58.64,0,0,1-.09-6.87,1.91,1.91,0,0,1,.59-1.23C3,28.45,6.51,24.75,6.5,20.44V16.05a1.28,1.28,0,0,1,1.12-1.27l13-1.6S42.65,1,58.46,1,84.37.89,91.64,2.88,121.2,16.52,121.2,16.52s35.31,4.43,43.89,6a23.54,23.54,0,0,1,13,6.65V40.46l3.14,3.66-2.32,3.44a5.82,5.82,0,0,1-4.13,2.54l-8,1" fill="#ecebe1" opacity="0"/></g><g  class="body-car"><line x1="130.17" y1="51.1" x2="55.46" y2="51.1" fill="none" stroke="#000" stroke-linecap="round" stroke-linejoin="round" stroke-width="2"/><path d="M22.1,48.44l-17-3.66s-3.66-1-4-7a58.64,58.64,0,0,1-.09-6.87,1.91,1.91,0,0,1,.59-1.23C3,28.45,6.51,24.75,6.5,20.44V16.05a1.28,1.28,0,0,1,1.12-1.27l13-1.6S42.65,1,58.46,1,84.37.89,91.64,2.88,121.2,16.52,121.2,16.52s35.31,4.43,43.89,6a23.54,23.54,0,0,1,13,6.65V40.46l3.14,3.66-2.32,3.44a5.82,5.82,0,0,1-4.13,2.54l-8,1" fill="none" stroke="#000" stroke-linecap="round" stroke-linejoin="round" stroke-width="2"/><path d="M42.47,10l-9.24,4.48S96,19.6,112.41,18.58" fill="none" stroke="#000" stroke-linecap="round" stroke-linejoin="round" stroke-width="2"/><line x1="45.88" y1="22.71" x2="55.46" y2="22.71" fill="none" stroke="#000" stroke-linecap="round" stroke-linejoin="round" stroke-width="2"/><line x1="85.9" y1="24.06" x2="94.64" y2="24.06" fill="none" stroke="#000" stroke-linecap="round" stroke-linejoin="round" stroke-width="2"/><path d="M174.82,26.43l-10.91-1.26a.77.77,0,0,0-.48,1.43c3.28,1.92,7.71,4.91,7.53,7h7.1" fill="none" stroke="#000" stroke-linecap="round" stroke-linejoin="round" stroke-width="2"/><path d="M6.5,18.71s11-1,13.2,2.64L12.24,28.2l-8.48-.82" fill="none" stroke="#000" stroke-linecap="round" stroke-linejoin="round" stroke-width="2"/></g><g  class="front-wheel"><line x1="143.73" y1="49.99" x2="158.73" y2="49.99" fill="none" stroke="#000" stroke-linecap="round" stroke-linejoin="round" stroke-width="2"/><line x1="145.92" y1="55.29" x2="156.53" y2="44.68" fill="none" stroke="#000" stroke-linecap="round" stroke-linejoin="round" stroke-width="2"/><line x1="151.23" y1="57.49" x2="151.23" y2="42.49" fill="none" stroke="#000" stroke-linecap="round" stroke-linejoin="round" stroke-width="2"/><line x1="156.53" y1="55.29" x2="145.92" y2="44.68" fill="none" stroke="#000" stroke-linecap="round" stroke-linejoin="round" stroke-width="2"/><circle cx="151.23" cy="49.99" r="3.75"/><path d="M151.22,37.49A12.5,12.5,0,1,0,163.73,50,12.49,12.49,0,0,0,151.22,37.49Zm0,20a7.5,7.5,0,1,1,7.5-7.5A7.5,7.5,0,0,1,151.23,57.52Z"/></g><g  class="back-wheel"><line x1="30.43" y1="49.99" x2="45.43" y2="49.99" fill="none" stroke="#000" stroke-linecap="round" stroke-linejoin="round" stroke-width="2"/><line x1="32.62" y1="55.29" x2="43.23" y2="44.68" fill="none" stroke="#000" stroke-linecap="round" stroke-linejoin="round" stroke-width="2"/><line x1="37.93" y1="57.49" x2="37.93" y2="42.49" fill="none" stroke="#000" stroke-linecap="round" stroke-linejoin="round" stroke-width="2"/><line x1="43.23" y1="55.29" x2="32.62" y2="44.68" fill="none" stroke="#000" stroke-linecap="round" stroke-linejoin="round" stroke-width="2"/><circle cx="37.93" cy="49.99" r="3.75"/><path d="M37.92,37.49A12.5,12.5,0,1,0,50.43,50,12.49,12.49,0,0,0,37.92,37.49Zm0,20a7.5,7.5,0,1,1,7.5-7.5A7.5,7.5,0,0,1,37.93,57.52Z"/></g></g></g></svg>