<svg xmlns="http://www.w3.org/2000/svg" width="179.95" height="69.04" viewBox="0 0 179.95 69.04"><g  class="Layer_2" data-name="Layer 2"><g  class="suv"><g  class="solid-body-background"><path  class="Vector" d="M170.28,59.56c5.58,0,9.52-4.81,8.51-10.61-1.53-8.77-1.56-22.4-10.12-23.43C157.92,24.22,127.51,19,127.51,19L109.33,4.19A11,11,0,0,0,101.56,1H16.94a9.37,9.37,0,0,0-7.2,3.35C5.77,9.08,1,31.25,1,49.14a8.32,8.32,0,0,0,4.38,7.34c3,1.64,7.94,3.78,7.94,3.78" fill="#ecebe1" opacity="0"/></g><g  class="body-car"><path d="M2.48,31.56H9.31a2.5,2.5,0,0,1,2.5,2.5v6.31a2.5,2.5,0,0,1-2.5,2.5h-8" fill="none" stroke="#000" stroke-linecap="round" stroke-linejoin="round" stroke-width="2"/><polyline points="61.75 59.56 61.75 59.56 100.45 59.56" fill="none" stroke="#000" stroke-linecap="round" stroke-linejoin="round" stroke-width="2"/><line x1="112.51" y1="59.56" x2="134.89" y2="59.56" fill="none" stroke="#000" stroke-linecap="round" stroke-linejoin="round" stroke-width="2"/><path d="M170.28,59.56c5.58,0,9.52-4.81,8.51-10.61-1.53-8.77-1.56-22.4-10.12-23.43C157.92,24.22,127.51,19,127.51,19L109.33,4.19A11,11,0,0,0,101.56,1H16.94a9.37,9.37,0,0,0-7.2,3.35C5.77,9.08,1,31.25,1,49.14a8.32,8.32,0,0,0,4.38,7.34c3,1.64,7.94,3.78,7.94,3.78" fill="none" stroke="#000" stroke-linecap="round" stroke-linejoin="round" stroke-width="2"/><line x1="87" y1="29.29" x2="81" y2="29.29" fill="none" stroke="#000" stroke-linecap="round" stroke-linejoin="round" stroke-width="2"/><line x1="48" y1="29.29" x2="54" y2="29.29" fill="none" stroke="#000" stroke-linecap="round" stroke-linejoin="round" stroke-width="2"/><line x1="119.57" y1="21.75" x2="47.91" y2="21.75" fill="none" stroke="#000" stroke-linecap="round" stroke-linejoin="round" stroke-width="2"/><path d="M1.23,42.56h7.9a2.5,2.5,0,0,0,2.5-2.5V33.75a2.5,2.5,0,0,0-2.5-2.5H2.3" fill="none" stroke="#000" stroke-linecap="round" stroke-linejoin="round" stroke-width="2"/><path d="M176.29,34.06H163.94l1.27,5.55a3.8,3.8,0,0,0,3.7,3h9" fill="none" stroke="#000" stroke-linecap="round" stroke-linejoin="round" stroke-width="2"/><line x1="30.85" y1="21.75" x2="8.36" y2="21.75" fill="none" stroke="#000" stroke-linecap="round" stroke-linejoin="round" stroke-width="2"/></g><g  class="back-wheel"><line x1="34.99" y1="56.54" x2="49.99" y2="56.54" fill="none" stroke="#000" stroke-linecap="round" stroke-linejoin="round" stroke-width="2"/><line x1="37.19" y1="61.84" x2="47.8" y2="51.24" fill="none" stroke="#000" stroke-linecap="round" stroke-linejoin="round" stroke-width="2"/><line x1="42.49" y1="64.04" x2="42.49" y2="49.04" fill="none" stroke="#000" stroke-linecap="round" stroke-linejoin="round" stroke-width="2"/><line x1="47.8" y1="61.84" x2="37.19" y2="51.24" fill="none" stroke="#000" stroke-linecap="round" stroke-linejoin="round" stroke-width="2"/><circle cx="42.49" cy="56.54" r="3.75"/><path d="M42.49,44A12.5,12.5,0,1,0,55,56.54,12.5,12.5,0,0,0,42.49,44Zm0,20a7.5,7.5,0,1,1,7.5-7.5A7.5,7.5,0,0,1,42.49,64.07Z"/></g><g  class="front-wheel"><line x1="144.31" y1="56.54" x2="159.31" y2="56.54" fill="none" stroke="#000" stroke-linecap="round" stroke-linejoin="round" stroke-width="2"/><line x1="146.51" y1="61.84" x2="157.11" y2="51.24" fill="none" stroke="#000" stroke-linecap="round" stroke-linejoin="round" stroke-width="2"/><line x1="151.81" y1="64.04" x2="151.81" y2="49.04" fill="none" stroke="#000" stroke-linecap="round" stroke-linejoin="round" stroke-width="2"/><line x1="157.11" y1="61.84" x2="146.51" y2="51.24" fill="none" stroke="#000" stroke-linecap="round" stroke-linejoin="round" stroke-width="2"/><circle cx="151.81" cy="56.54" r="3.75"/><path d="M151.81,44a12.5,12.5,0,1,0,12.5,12.5A12.5,12.5,0,0,0,151.81,44Zm0,20a7.5,7.5,0,1,1,7.5-7.5A7.5,7.5,0,0,1,151.81,64.07Z"/></g></g></g></svg>