<svg xmlns="http://www.w3.org/2000/svg" width="158.9" height="59.61" viewBox="0 0 158.9 59.61"><g  class="Layer_2" data-name="Layer 2"><g  class="ford-escape"><g  class="solid-body-background" opacity="0"><path d="M16,48.71,3.52,47a6,6,0,0,1-2.37-4.57,14.42,14.42,0,0,1,0-4.58H3s-1.18-6.9.68-9.44c0,0-4.4-5.92-1.69-9S16,7.8,16,7.8L12.81,5.43S48.65.53,62.34,1s21.3.67,33,6.76A229.49,229.49,0,0,1,115.93,20s13.18.34,21.8,2.2,16.06,2.7,20.12,9.12c0,0,.34,8.93-.68,11.15,0,0-.67,3.39,0,5.42s-8.62,3.73-13.86,3.73" fill="#ecebe1"/></g><g  class="body-car"><path d="M16,48.71,3.52,47a6,6,0,0,1-2.37-4.57,14.42,14.42,0,0,1,0-4.58H3s-1.18-6.9.68-9.44c0,0-4.4-5.92-1.69-9S16,7.8,16,7.8L12.81,5.43S48.65.53,62.34,1s21.3.67,33,6.76A229.49,229.49,0,0,1,115.93,20s13.18.34,21.8,2.2,16.06,2.7,20.12,9.12c0,0,.34,8.93-.68,11.15,0,0-.67,3.39,0,5.42s-8.62,3.73-13.86,3.73" fill="none" stroke="#000" stroke-linecap="round" stroke-linejoin="round" stroke-width="2"/><path d="M29.84,15.78c6.29,1.6,16.71,4,22.36,4,8.45,0,47,2.7,47,2.7" fill="none" stroke="#000" stroke-linecap="round" stroke-linejoin="round" stroke-width="2"/><path d="M132.52,26.9s7.58-.17,12.65,1.52a24.53,24.53,0,0,1,7.31,4.23,1,1,0,0,1-.64,1.74c-3.15-.09-8.35-.39-11.06-1.4C136.72,31.46,132.52,26.9,132.52,26.9Z" fill="none" stroke="#000" stroke-linecap="round" stroke-linejoin="round" stroke-width="2"/><path d="M24.61,10.16S15,16.08,12.48,17.1s-9.09,1-9.09,1" fill="none" stroke="#000" stroke-linecap="round" stroke-linejoin="round" stroke-width="2"/><path d="M4.75,23.59s-.53-2.1,2.29-2,12.73,1,12.73,1-1.19,3.55-3.72,3.93a70.49,70.49,0,0,1-8.89.06A2,2,0,0,1,5.3,25.21Z" fill="none" stroke="#000" stroke-linecap="round" stroke-linejoin="round" stroke-width="2"/><path d="M46.44,51.59s44.15-1.93,50.13-1.34" fill="none" stroke="#000" stroke-linecap="round" stroke-linejoin="round" stroke-width="2"/><line x1="38.57" y1="24.17" x2="46.44" y2="25" fill="none" stroke="#000" stroke-linecap="round" stroke-linejoin="round" stroke-width="2"/><line x1="75.55" y1="26.3" x2="83.27" y2="26.9" fill="none" stroke="#000" stroke-linecap="round" stroke-linejoin="round" stroke-width="2"/></g><g  class="front-wheel"><line x1="118.59" y1="47.11" x2="133.59" y2="47.11" fill="none" stroke="#000" stroke-linecap="round" stroke-linejoin="round" stroke-width="2"/><line x1="120.79" y1="52.41" x2="131.4" y2="41.8" fill="none" stroke="#000" stroke-linecap="round" stroke-linejoin="round" stroke-width="2"/><line x1="126.09" y1="54.61" x2="126.09" y2="39.61" fill="none" stroke="#000" stroke-linecap="round" stroke-linejoin="round" stroke-width="2"/><line x1="131.4" y1="52.41" x2="120.79" y2="41.8" fill="none" stroke="#000" stroke-linecap="round" stroke-linejoin="round" stroke-width="2"/><circle cx="126.09" cy="47.11" r="3.75"/><path d="M126.09,34.61a12.5,12.5,0,1,0,12.5,12.5A12.5,12.5,0,0,0,126.09,34.61Zm0,20a7.5,7.5,0,1,1,7.5-7.5A7.5,7.5,0,0,1,126.09,54.64Z"/></g><g  class="back-wheel"><line x1="23.59" y1="47.11" x2="38.59" y2="47.11" fill="none" stroke="#000" stroke-linecap="round" stroke-linejoin="round" stroke-width="2"/><line x1="25.79" y1="52.41" x2="36.39" y2="41.8" fill="none" stroke="#000" stroke-linecap="round" stroke-linejoin="round" stroke-width="2"/><line x1="31.09" y1="54.61" x2="31.09" y2="39.61" fill="none" stroke="#000" stroke-linecap="round" stroke-linejoin="round" stroke-width="2"/><line x1="36.39" y1="52.41" x2="25.79" y2="41.8" fill="none" stroke="#000" stroke-linecap="round" stroke-linejoin="round" stroke-width="2"/><circle cx="31.09" cy="47.11" r="3.75"/><path d="M31.09,34.61a12.5,12.5,0,1,0,12.5,12.5A12.5,12.5,0,0,0,31.09,34.61Zm0,20a7.5,7.5,0,1,1,7.5-7.5A7.5,7.5,0,0,1,31.09,54.64Z"/></g></g></g></svg>