<svg xmlns="http://www.w3.org/2000/svg" width="176" height="62.57" viewBox="0 0 176 62.57"><g  class="Layer_2" data-name="Layer 2"><g  class="Layer_1-2" data-name="Layer 1"><g  class="Layer_2-2" data-name="Layer 2"><g  class="subaru-outback"><g  class="solid-body-background"><path d="M22.79,51.42,7.18,49.19s-7.81.56-5.58-5c0,0-1.67-4.46.56-7.8L5,31.91,4.39,21.32l3.9-2.79L15,11.28a2.31,2.31,0,0,0,0-3.34c-1.67-1.67,1.67-1.12,1.67-1.12l9.48-.55s6.13-4.46,9.48-4.46,42.92-2.23,51.84.55,38.47,17.84,41.81,20.07c0,0,36.24.56,42.37,9.48a18.13,18.13,0,0,1,1.67,7.25S175,40.27,175,43.62s-.56,3.9,0,5.57c0,0,.56,2.23-3.34,3.35L161,53.09v1.68s-2.23,1.11-3.35-.56c0,0,2.79-16.17-7.8-18.4,0,0-29-5.88-25.2,17.32" fill="#fff"/></g><g  class="body-car"><path d="M22.79,51.46,7.18,49.23s-7.81.56-5.58-5c0,0-1.67-4.46.56-7.8L5,32,4.39,21.36l3.9-2.79L15,11.32A2.31,2.31,0,0,0,15,8c-1.67-1.68,1.67-1.12,1.67-1.12l9.48-.56s6.13-4.46,9.48-4.46S78.53-.39,87.45,2.4s38.47,17.84,41.81,20.07c0,0,36.24.56,42.37,9.48a18.13,18.13,0,0,1,1.67,7.24S175,40.31,175,43.65s-.56,3.91,0,5.58c0,0,.56,2.23-3.34,3.34L161,53.13V54.8s-2.23,1.12-3.35-.55c0,0,2.79-16.17-7.8-18.4" fill="none" stroke="#000" stroke-linecap="round" stroke-linejoin="round" stroke-width="2"/><path d="M33.38,9.65s-13.08,4.1-11.71,5.57c6.69,7.25,87.52,10,102,8.92" fill="none" stroke="#000" stroke-linecap="round" stroke-linejoin="round" stroke-width="2"/><path d="M62.37,52.57s41.81.56,54.07.56" fill="none" stroke="#000" stroke-linecap="round" stroke-linejoin="round" stroke-width="2"/><path d="M46.76,26.93l7.24.56" fill="none" stroke="#000" stroke-linecap="round" stroke-linejoin="round" stroke-width="2"/><path d="M83.55,28.6h7.8" fill="none" stroke="#000" stroke-linecap="round" stroke-linejoin="round" stroke-width="2"/><path d="M4.39,21.36s8.29-.92,10.64.55a.61.61,0,0,1,.17.19.51.51,0,0,1,.07.24.51.51,0,0,1,0,.25.8.8,0,0,1-.15.21L8.29,28.05l-3.44-.24" fill="none" stroke="#000" stroke-linecap="round" stroke-linejoin="round" stroke-width="2"/><path d="M170.26,30.41s-8.67-3.48-15.36-2.92a7.8,7.8,0,0,0,3.91,3.34s12.31,6.83,13.12,2.58" fill="none" stroke="#000" stroke-linecap="round" stroke-linejoin="round" stroke-width="2"/></g><g  class="front-wheel"><path d="M134.23,51.29h13.62" fill="none" stroke="#181818" stroke-linecap="round" stroke-linejoin="round" stroke-width="2"/><path d="M136.2,56.07l9.65-9.57" fill="none" stroke="#181818" stroke-linecap="round" stroke-linejoin="round" stroke-width="2"/><path d="M141,58.06V44.51" fill="none" stroke="#181818" stroke-linecap="round" stroke-linejoin="round" stroke-width="2"/><path d="M145.85,56.07,136.2,46.5" fill="none" stroke="#181818" stroke-linecap="round" stroke-linejoin="round" stroke-width="2"/><path d="M141,54.67a3.39,3.39,0,1,0-3.41-3.39A3.4,3.4,0,0,0,141,54.67Z" fill="#181818"/><path d="M141,40a11.29,11.29,0,1,0,11.35,11.28A11.33,11.33,0,0,0,141,40Zm0,18.08a6.77,6.77,0,1,1,6.81-6.77A6.78,6.78,0,0,1,141,58.08Z" fill="#181818"/></g><g  class="back-wheel"><path d="M31.54,51.29H45.16" fill="none" stroke="#181818" stroke-linecap="round" stroke-linejoin="round" stroke-width="2"/><path d="M33.54,56.07l9.65-9.57" fill="none" stroke="#181818" stroke-linecap="round" stroke-linejoin="round" stroke-width="2"/><path d="M38.35,58.06V44.51" fill="none" stroke="#181818" stroke-linecap="round" stroke-linejoin="round" stroke-width="2"/><path d="M43.19,56.07,33.54,46.5" fill="none" stroke="#181818" stroke-linecap="round" stroke-linejoin="round" stroke-width="2"/><path d="M38.35,54.67A3.39,3.39,0,1,0,35,51.28,3.4,3.4,0,0,0,38.35,54.67Z" fill="#181818"/><path d="M38.35,40A11.29,11.29,0,1,0,49.7,51.28,11.33,11.33,0,0,0,38.35,40Zm0,18.08a6.77,6.77,0,1,1,6.81-6.77A6.78,6.78,0,0,1,38.35,58.08Z" fill="#181818"/></g></g></g></g></g></svg>
