<svg xmlns="http://www.w3.org/2000/svg" width="150.16" height="54.17" viewBox="0 0 150.16 54.17"><g  class="Layer_2" data-name="Layer 2"><g  class="hybrid"><g  class="solid-body-background" opacity="0"><path  class="Vector" d="M7.16,45.19S1,45.19,1,32.88s9.51-15.11,6.16-21.83S53.05-.7,69.28,1.54,101.17,16,107.89,16.31s36.38,3.56,38.61,12.58,6.16,16.86-3.91,18.54-11.22.75-11.22.75" fill="#ecebe1"/></g><g  class="body-car"><path d="M7.16,45.19S1,45.19,1,32.88s9.51-15.11,6.16-21.83S53.05-.7,69.28,1.54,101.17,16,107.89,16.31s36.38,3.56,38.61,12.58,6.16,16.86-3.91,18.54-11.22.75-11.22.75" fill="none" stroke="#000" stroke-linecap="round" stroke-linejoin="round" stroke-width="2"/><path d="M20.69,9.57S39.22,15.09,52,16.31s38.85,4.41,38.85,4.41" fill="none" stroke="#000" stroke-linecap="round" stroke-linejoin="round" stroke-width="2"/><line x1="42.6" y1="20.72" x2="48.98" y2="22.52" fill="none" stroke="#000" stroke-linecap="round" stroke-linejoin="round" stroke-width="2"/><line x1="36.63" y1="48.43" x2="97.84" y2="48.43" fill="none" stroke="#000" stroke-linecap="round" stroke-linejoin="round" stroke-width="2"/><path d="M145.36,26.7h-8.79A2.18,2.18,0,0,0,135,30.34h0a2.22,2.22,0,0,0,1.23.68l11.46,2.08" fill="none" stroke="#000" stroke-linecap="round" stroke-linejoin="round" stroke-width="2"/><path d="M7,17.15l6.56,6.66c1.41,1.43.27,4.05-2.15,4.05H1.57" fill="none" stroke="#000" stroke-linecap="round" stroke-linejoin="round" stroke-width="2"/></g><g  class="front-wheel"><line x1="108.51" y1="41.67" x2="123.51" y2="41.67" fill="none" stroke="#000" stroke-linecap="round" stroke-linejoin="round" stroke-width="2"/><line x1="110.7" y1="46.98" x2="121.31" y2="36.37" fill="none" stroke="#000" stroke-linecap="round" stroke-linejoin="round" stroke-width="2"/><line x1="116.01" y1="49.17" x2="116.01" y2="34.17" fill="none" stroke="#000" stroke-linecap="round" stroke-linejoin="round" stroke-width="2"/><line x1="121.31" y1="46.98" x2="110.7" y2="36.37" fill="none" stroke="#000" stroke-linecap="round" stroke-linejoin="round" stroke-width="2"/><circle cx="116.01" cy="41.67" r="3.75"/><path d="M116,29.17a12.5,12.5,0,1,0,12.51,12.5A12.5,12.5,0,0,0,116,29.17Zm0,20a7.5,7.5,0,1,1,7.5-7.5A7.5,7.5,0,0,1,116,49.21Z"/></g><g  class="back-wheel"><line x1="14.96" y1="41.67" x2="29.96" y2="41.67" fill="none" stroke="#000" stroke-linecap="round" stroke-linejoin="round" stroke-width="2"/><line x1="17.15" y1="46.98" x2="27.76" y2="36.37" fill="none" stroke="#000" stroke-linecap="round" stroke-linejoin="round" stroke-width="2"/><line x1="22.46" y1="49.17" x2="22.46" y2="34.17" fill="none" stroke="#000" stroke-linecap="round" stroke-linejoin="round" stroke-width="2"/><line x1="27.76" y1="46.98" x2="17.15" y2="36.37" fill="none" stroke="#000" stroke-linecap="round" stroke-linejoin="round" stroke-width="2"/><circle cx="22.46" cy="41.67" r="3.75"/><path d="M22.45,29.17A12.5,12.5,0,1,0,35,41.67,12.5,12.5,0,0,0,22.45,29.17Zm0,20a7.5,7.5,0,1,1,7.5-7.5A7.5,7.5,0,0,1,22.46,49.21Z"/></g></g></g></svg>