<svg xmlns="http://www.w3.org/2000/svg" width="159.91" height="58.09" viewBox="0 0 159.91 58.09"><g  class="Layer_2" data-name="Layer 2"><g  class="ford-explorer"><g  class="solid-body-background" opacity="0"><path d="M19.55,48.81,7.85,46.06a7.11,7.11,0,0,1-3.4-1.9L1.92,41.63l1.55-15s-4.3-5.72-1.55-8.12,10.88-9,10.88-9L9.91,4.35S74.16-.5,84.08,1.47s33.69,16.71,33.69,16.71,26.77,2.11,31.58,3,7.75,5.54,7.52,11.91c0,0,4.51,3.85.11,12.49,0,0-.32,2-7.33,4.55" fill="#ecebe1"/></g><g  class="body-car"><path d="M19.55,48.81,7.85,46.06a7.11,7.11,0,0,1-3.4-1.9L1.92,41.63l1.55-15s-4.3-5.72-1.55-8.12,10.88-9,10.88-9L9.91,4.35S74.16-.5,84.08,1.47s33.69,16.71,33.69,16.71,26.77,2.11,31.58,3,7.75,5.54,7.52,11.91c0,0,4.51,3.85.11,12.49,0,0-.32,2-7.33,4.55" fill="none" stroke="#000" stroke-linecap="round" stroke-linejoin="round" stroke-width="2"/><path d="M137.9,25.09a.88.88,0,0,1,.86-1.24c3.58.25,12.11.88,12.11.88a9,9,0,0,1,.6,4.75c-.13.51-.27,1-1.18,1h-4.8C142,30.45,139.24,27.8,137.9,25.09Z" fill="none" stroke="#000" stroke-linecap="round" stroke-linejoin="round" stroke-width="2"/><path d="M7.53,22.88h12A4.75,4.75,0,0,1,18,26.07H13.28s-1.93,4.63-3.85,5.29-3.14,1-3.14,1Z" fill="none" stroke="#000" stroke-linecap="round" stroke-linejoin="round" stroke-width="2"/><path d="M10.66,17.15H24.53a14.82,14.82,0,0,0,9.17-3.29" fill="none" stroke="#000" stroke-linecap="round" stroke-linejoin="round" stroke-width="2"/><path d="M48.4,11.13l-4,4.37,1.29,2.8s47.71,2.37,55.16,2.12" fill="none" stroke="#000" stroke-linecap="round" stroke-linejoin="round" stroke-width="2"/><line x1="44.44" y1="22.88" x2="50.32" y2="22.88" fill="none" stroke="#000" stroke-linecap="round" stroke-linejoin="round" stroke-width="2"/><line x1="79.95" y1="24.03" x2="87.43" y2="24.03" fill="none" stroke="#000" stroke-linecap="round" stroke-linejoin="round" stroke-width="2"/><line x1="53.39" y1="49.26" x2="96.49" y2="49.26" fill="none" stroke="#000" stroke-linecap="round" stroke-linejoin="round" stroke-width="2"/></g><g  class="front-wheel"><line x1="124.91" y1="45.59" x2="139.91" y2="45.59" fill="none" stroke="#000" stroke-linecap="round" stroke-linejoin="round" stroke-width="2"/><line x1="127.11" y1="50.9" x2="137.72" y2="40.29" fill="none" stroke="#000" stroke-linecap="round" stroke-linejoin="round" stroke-width="2"/><line x1="132.41" y1="53.09" x2="132.41" y2="38.09" fill="none" stroke="#000" stroke-linecap="round" stroke-linejoin="round" stroke-width="2"/><line x1="137.72" y1="50.9" x2="127.11" y2="40.29" fill="none" stroke="#000" stroke-linecap="round" stroke-linejoin="round" stroke-width="2"/><circle cx="132.41" cy="45.59" r="3.75"/><path d="M132.41,33.09a12.5,12.5,0,1,0,12.5,12.5A12.5,12.5,0,0,0,132.41,33.09Zm0,20a7.5,7.5,0,1,1,7.5-7.5A7.5,7.5,0,0,1,132.41,53.13Z"/></g><g  class="back-wheel"><line x1="28.41" y1="45.59" x2="43.41" y2="45.59" fill="none" stroke="#000" stroke-linecap="round" stroke-linejoin="round" stroke-width="2"/><line x1="30.6" y1="50.9" x2="41.21" y2="40.29" fill="none" stroke="#000" stroke-linecap="round" stroke-linejoin="round" stroke-width="2"/><line x1="35.91" y1="53.09" x2="35.91" y2="38.09" fill="none" stroke="#000" stroke-linecap="round" stroke-linejoin="round" stroke-width="2"/><line x1="41.21" y1="50.9" x2="30.6" y2="40.29" fill="none" stroke="#000" stroke-linecap="round" stroke-linejoin="round" stroke-width="2"/><circle cx="35.91" cy="45.59" r="3.75"/><path d="M35.9,33.09a12.5,12.5,0,1,0,12.51,12.5A12.5,12.5,0,0,0,35.9,33.09Zm0,20a7.5,7.5,0,1,1,7.5-7.5A7.5,7.5,0,0,1,35.91,53.13Z"/></g></g></g></svg>