<svg xmlns="http://www.w3.org/2000/svg" width="166" height="61.57" viewBox="0 0 166 61.57"><g  class="Layer_2" data-name="Layer 2"><g  class="Layer_1-2" data-name="Layer 1"><g  class="Layer_2-2" data-name="Layer 2"><g  class="ford-edge"><g  class="solid-body-background"><path d="M151,52.32a93.27,93.27,0,0,0,10.16-1.09.61.61,0,0,0,.18,0,5.85,5.85,0,0,0,2.6-2.14c1-1.46,1.08-5.53,1.08-6.38a1.06,1.06,0,0,0-.05-.31l-.35-1.09a.91.91,0,0,1,0-.65,10.35,10.35,0,0,0,.37-2.82,2.21,2.21,0,0,0-.38-1.32c-2.79-4-2.3-6-2.3-6a7.45,7.45,0,0,1,.54-2.72c.54-1.09-1.62-2.72-1.62-2.72-2.22-2.25-23.93-5.25-31.44-6.22a11.66,11.66,0,0,1-4.6-1.64c-13.93-8.45-33-13.39-33-13.39-7.1-2.56-46.58-1.27-51.31-1.09a1,1,0,0,1-.37,0,1.16,1.16,0,0,1-.32-.2C38.42.68,35.07,1,34.56,1.06h0l0,0a0,0,0,0,0,0,0v0c.09.31.45,1.67.23,1.63v0a1,1,0,0,1-.29.35.84.84,0,0,1-.43.16L20.65,4.88a.85.85,0,0,0-.31.09h0a1,1,0,0,0-.3.24,1.29,1.29,0,0,0-.18.35,1.08,1.08,0,0,0,0,.4,1,1,0,0,0,.15.36l.34.52a.9.9,0,0,0,.42.35l.64.25a1,1,0,0,1,.4.32.93.93,0,0,1,.17.49,1,1,0,0,1-.11.5,1,1,0,0,1-.35.37c-3.85,2.18-13,7.33-13.41,7.77a24.27,24.27,0,0,1-3.38,2,.88.88,0,0,0-.33.28,1,1,0,0,0-.16.4c-.28,2.24.43,7,.6,8a.86.86,0,0,1-.05.42,18.31,18.31,0,0,0-.58,8.34.95.95,0,0,1-.58,1L2,38a.72.72,0,0,0-.33.21.78.78,0,0,0-.21.33l-.37,1.09a1,1,0,0,0-.05.24c-.48,5.9,3.24,8,4.32,9.14s12.4,2.18,12.4,2.18" fill="#fff"/></g><g  class="body-car"><path d="M151,52.32a93.27,93.27,0,0,0,10.16-1.09.61.61,0,0,0,.18,0,5.85,5.85,0,0,0,2.6-2.14c1-1.46,1.08-5.53,1.08-6.38a1.06,1.06,0,0,0-.05-.31l-.35-1.09a.91.91,0,0,1,0-.65,10.35,10.35,0,0,0,.37-2.82,2.21,2.21,0,0,0-.38-1.32c-2.79-4-2.3-6-2.3-6a7.45,7.45,0,0,1,.54-2.72c.54-1.09-1.62-2.72-1.62-2.72-2.22-2.25-23.93-5.25-31.44-6.22a11.66,11.66,0,0,1-4.6-1.64c-13.93-8.45-33-13.39-33-13.39-7.1-2.56-46.58-1.27-51.31-1.09a1,1,0,0,1-.37,0,1.16,1.16,0,0,1-.32-.2C38.42.68,35.07,1,34.56,1.06h0l0,0a0,0,0,0,0,0,0v0c.09.31.45,1.67.23,1.63v0a1,1,0,0,1-.29.35.84.84,0,0,1-.43.16L20.65,4.88a.85.85,0,0,0-.31.09h0a1,1,0,0,0-.3.24,1.29,1.29,0,0,0-.18.35,1.08,1.08,0,0,0,0,.4,1,1,0,0,0,.15.36l.34.52a.9.9,0,0,0,.42.35l.64.25a1,1,0,0,1,.4.32.93.93,0,0,1,.17.49,1,1,0,0,1-.11.5,1,1,0,0,1-.35.37c-3.85,2.18-13,7.33-13.41,7.77a24.27,24.27,0,0,1-3.38,2,.88.88,0,0,0-.33.28,1,1,0,0,0-.16.4c-.28,2.24.43,7,.6,8a.86.86,0,0,1-.05.42,18.31,18.31,0,0,0-.58,8.34.95.95,0,0,1-.58,1L2,38a.72.72,0,0,0-.33.21.78.78,0,0,0-.21.33l-.37,1.09a1,1,0,0,0-.05.24c-.48,5.9,3.24,8,4.32,9.14s12.4,2.18,12.4,2.18" fill="none" stroke="#000" stroke-linecap="round" stroke-linejoin="round" stroke-width="2"/><path d="M49.06,5.46s-8.3,0-17.26,9.26a.59.59,0,0,0-.14.23.57.57,0,0,0,0,.26.6.6,0,0,0,.1.25.65.65,0,0,0,.21.16c1.56.73,5.4,2.39,7.94,2.39,3.23,0,82.5,4.9,82.5,4.9" fill="none" stroke="#000" stroke-linecap="round" stroke-linejoin="round" stroke-width="2"/><path d="M4.36,23.24l3.18-.35H20.48l5.39-3.26A108.64,108.64,0,0,0,12.39,16.9L4.84,19.08" fill="none" stroke="#000" stroke-linecap="round" stroke-linejoin="round" stroke-width="2"/><path d="M143.5,25.54l2.61,2.25a5.63,5.63,0,0,0,1.56,1,7.2,7.2,0,0,0,2.31.66c1.08,0,8.63.55,8.63.55a2.65,2.65,0,0,0,1.12-.89,2.68,2.68,0,0,0,.5-1.36.63.63,0,0,0-.09-.38.55.55,0,0,0-.3-.24c-1.81-.62-9.16-3.05-12-2.58L143.7,25a.35.35,0,0,0-.18.05.33.33,0,0,0-.11.15.28.28,0,0,0,0,.18.32.32,0,0,0,.09.16Z" fill="none" stroke="#000" stroke-linecap="round" stroke-linejoin="round" stroke-width="2"/><path d="M160.84,38.06s-4.85-1.09-5.39.55c0,0-2.16,6-1.62,6.54s6.47,0,6.47,0" fill="none" stroke="#000" stroke-linecap="round" stroke-linejoin="round" stroke-width="2"/><path d="M43.67,22.35l8.62.55" fill="none" stroke="#000" stroke-linecap="round" stroke-linejoin="round" stroke-width="2"/><path d="M83,24.53l8.09.54" fill="none" stroke="#000" stroke-linecap="round" stroke-linejoin="round" stroke-width="2"/><path d="M52.29,51.77l57.17,1.09" fill="none" stroke="#000" stroke-linecap="round" stroke-linejoin="round" stroke-width="2"/></g><g  class="front-wheel"><path d="M126.23,50.29h13.62" fill="none" stroke="#181818" stroke-linecap="round" stroke-linejoin="round" stroke-width="2"/><path d="M128.2,55.07l9.65-9.57" fill="none" stroke="#181818" stroke-linecap="round" stroke-linejoin="round" stroke-width="2"/><path d="M133,57.06V43.51" fill="none" stroke="#181818" stroke-linecap="round" stroke-linejoin="round" stroke-width="2"/><path d="M137.85,55.07,128.2,45.5" fill="none" stroke="#181818" stroke-linecap="round" stroke-linejoin="round" stroke-width="2"/><path d="M133,53.67a3.39,3.39,0,1,0-3.41-3.39A3.4,3.4,0,0,0,133,53.67Z" fill="#181818"/><path d="M133,39a11.29,11.29,0,1,0,11.35,11.28A11.32,11.32,0,0,0,133,39Zm0,18.08a6.77,6.77,0,1,1,6.81-6.77A6.78,6.78,0,0,1,133,57.08Z" fill="#181818"/></g><g  class="back-wheel"><path d="M25.54,50.29H39.16" fill="none" stroke="#181818" stroke-linecap="round" stroke-linejoin="round" stroke-width="2"/><path d="M27.54,55.07l9.65-9.57" fill="none" stroke="#181818" stroke-linecap="round" stroke-linejoin="round" stroke-width="2"/><path d="M32.35,57.06V43.51" fill="none" stroke="#181818" stroke-linecap="round" stroke-linejoin="round" stroke-width="2"/><path d="M37.19,55.07,27.54,45.5" fill="none" stroke="#181818" stroke-linecap="round" stroke-linejoin="round" stroke-width="2"/><path d="M32.35,53.67A3.39,3.39,0,1,0,29,50.28,3.4,3.4,0,0,0,32.35,53.67Z" fill="#181818"/><path d="M32.35,39A11.29,11.29,0,1,0,43.7,50.28,11.33,11.33,0,0,0,32.35,39Zm0,18.08a6.77,6.77,0,1,1,6.81-6.77A6.78,6.78,0,0,1,32.35,57.08Z" fill="#181818"/></g></g></g></g></g></svg>
