<svg xmlns="http://www.w3.org/2000/svg" width="187.02" height="61.32" viewBox="0 0 187.02 61.32"><g  class="Layer_2" data-name="Layer 2"><g  class="convertible"><g  class="solid-body-background" opacity="0"><path  class="Vector" d="M15.27,48.55A12.42,12.42,0,0,1,3.14,38.8L1.27,30.28a11.15,11.15,0,0,1,9.1-13.4s21.42-6.6,31.59-6.6,14.8,7.28,22.37,7.28h37.81L91.52,1h0L121,16.55S160.4,21,178.42,28.68a12.27,12.27,0,0,1,7.35,10.46l.24,3.43a5.6,5.6,0,0,1-5.59,6h-8.61" fill="#ecebe1"/></g><g  class="body-car"><line x1="73.57" y1="26.24" x2="66.72" y2="26.24" fill="none" stroke="#000" stroke-linecap="round" stroke-linejoin="round" stroke-width="2"/><path d="M171.81,48.55h8.61a5.6,5.6,0,0,0,5.59-6l-.24-3.43a12.27,12.27,0,0,0-7.35-10.46C160.4,21,121,16.55,121,16.55L91.52,1" fill="none" stroke="#000" stroke-linecap="round" stroke-linejoin="round" stroke-width="2"/><line x1="56.66" y1="48.55" x2="129.67" y2="48.55" fill="none" stroke="#000" stroke-linecap="round" stroke-linejoin="round" stroke-width="2"/><path d="M102.14,17.56H64.33c-7.57,0-12.21-7.28-22.37-7.28s-31.59,6.6-31.59,6.6a11.15,11.15,0,0,0-9.1,13.4L3.14,38.8a12.42,12.42,0,0,0,12.13,9.75" fill="none" stroke="#000" stroke-linecap="round" stroke-linejoin="round" stroke-width="2"/><path d="M181.94,31.3H169.83A3.36,3.36,0,0,1,167,26l.66-.94" fill="none" stroke="#000" stroke-linecap="round" stroke-linejoin="round" stroke-width="2"/><path d="M1.39,30.41l4.09,0a2.43,2.43,0,0,1,2.4,1.83l.64,2.53a2.43,2.43,0,0,1-2.35,3H3.25" fill="none" stroke="#000" stroke-linecap="round" stroke-linejoin="round" stroke-width="2"/></g><g  class="front-wheel"><line x1="146.71" y1="48.82" x2="161.71" y2="48.82" fill="none" stroke="#000" stroke-linecap="round" stroke-linejoin="round" stroke-width="2"/><line x1="148.91" y1="54.12" x2="159.51" y2="43.52" fill="none" stroke="#000" stroke-linecap="round" stroke-linejoin="round" stroke-width="2"/><line x1="154.21" y1="56.32" x2="154.21" y2="41.32" fill="none" stroke="#000" stroke-linecap="round" stroke-linejoin="round" stroke-width="2"/><line x1="159.51" y1="54.12" x2="148.91" y2="43.52" fill="none" stroke="#000" stroke-linecap="round" stroke-linejoin="round" stroke-width="2"/><circle cx="154.21" cy="48.82" r="3.75"/><path d="M154.2,36.32a12.5,12.5,0,1,0,12.51,12.5A12.5,12.5,0,0,0,154.2,36.32Zm0,20a7.5,7.5,0,1,1,7.5-7.5A7.5,7.5,0,0,1,154.21,56.35Z"/></g><g  class="back-wheel"><line x1="33.41" y1="48.82" x2="48.41" y2="48.82" fill="none" stroke="#000" stroke-linecap="round" stroke-linejoin="round" stroke-width="2"/><line x1="35.6" y1="54.12" x2="46.21" y2="43.52" fill="none" stroke="#000" stroke-linecap="round" stroke-linejoin="round" stroke-width="2"/><line x1="40.91" y1="56.32" x2="40.91" y2="41.32" fill="none" stroke="#000" stroke-linecap="round" stroke-linejoin="round" stroke-width="2"/><line x1="46.21" y1="54.12" x2="35.6" y2="43.52" fill="none" stroke="#000" stroke-linecap="round" stroke-linejoin="round" stroke-width="2"/><circle cx="40.91" cy="48.82" r="3.75"/><path d="M40.9,36.32a12.5,12.5,0,1,0,12.51,12.5A12.5,12.5,0,0,0,40.9,36.32Zm0,20a7.5,7.5,0,1,1,7.5-7.5A7.5,7.5,0,0,1,40.91,56.35Z"/></g></g></g></svg>