<svg xmlns="http://www.w3.org/2000/svg" width="125.12" height="79.09" viewBox="0 0 125.12 79.09"><g  class="Layer_2" data-name="Layer 2"><g  class="lawn-garden"><g  class="solid-body-background" opacity="0"><path  class="Vector" d="M1,45.88C1,35.07,7,32.12,11.92,30.62V3.47A2.47,2.47,0,0,1,14.39,1h4a4.69,4.69,0,0,1,4.68,4.68V25.34a3.31,3.31,0,0,0,3.3,3.31h31.9v-6.8h20.4c15.16,0,25,3,36.45,6.8,6.44,2.15,9,7.76,9,13.82V55.21l-122.38-1Z" fill="#ecebe1"/></g><g  class="body-car"><line x1="51.03" y1="68" x2="71.2" y2="68" fill="none" stroke="#000" stroke-linecap="round" stroke-linejoin="round" stroke-width="2"/><path d="M124.12,55.21V42.47c0-6.06-2.52-11.67-9-13.82-11.44-3.82-21.29-6.8-36.45-6.8H58.31v6.8H26.41a3.31,3.31,0,0,1-3.3-3.31V5.68A4.69,4.69,0,0,0,18.43,1h-4a2.47,2.47,0,0,0-2.47,2.47V30.62C7,32.12,1,35.07,1,45.88" fill="none" stroke="#000" stroke-linecap="round" stroke-linejoin="round" stroke-width="2"/><line x1="117.64" y1="44.96" x2="124.12" y2="44.96" fill="none" stroke="#000" stroke-linecap="round" stroke-linejoin="round" stroke-width="2"/><line x1="117.64" y1="48.09" x2="124.12" y2="48.09" fill="none" stroke="#000" stroke-linecap="round" stroke-linejoin="round" stroke-width="2"/><line x1="117.64" y1="51.21" x2="124.12" y2="51.21" fill="none" stroke="#000" stroke-linecap="round" stroke-linejoin="round" stroke-width="2"/><path d="M51,54.24c.33-5.83-.83-10.43-2.93-14" fill="none" stroke="#000" stroke-linecap="round" stroke-linejoin="round" stroke-width="2"/><line x1="58.71" y1="22.24" x2="53.45" y2="18.82" fill="none" stroke="#000" stroke-linecap="round" stroke-linejoin="round" stroke-width="2"/><line x1="56.08" y1="12.77" x2="49.79" y2="24.03" fill="none" stroke="#000" stroke-linecap="round" stroke-linejoin="round" stroke-width="2"/><path d="M122.13,34.23h-9.34a1.63,1.63,0,0,0-1.62,1.62v3.92a1.62,1.62,0,0,0,1.62,1.61H124.1" fill="none" stroke="#000" stroke-linecap="round" stroke-linejoin="round" stroke-width="2"/></g><g  class="front-wheel"><path d="M94.59,36.59a21.25,21.25,0,1,0,21.25,21.25A21.25,21.25,0,0,0,94.59,36.59Zm.06,33.21a12,12,0,1,1,11.95-12A12,12,0,0,1,94.65,69.8Z"/><circle cx="94.59" cy="57.84" r="5.69"/><line x1="94.65" y1="45.88" x2="94.65" y2="69.8" fill="none" stroke="#000" stroke-linecap="round" stroke-linejoin="round" stroke-width="2"/><line x1="86.2" y1="49.38" x2="103.11" y2="66.3" fill="none" stroke="#000" stroke-linecap="round" stroke-linejoin="round" stroke-width="2"/><line x1="82.69" y1="57.84" x2="106.61" y2="57.84" fill="none" stroke="#000" stroke-linecap="round" stroke-linejoin="round" stroke-width="2"/><line x1="86.2" y1="66.3" x2="103.11" y2="49.38" fill="none" stroke="#000" stroke-linecap="round" stroke-linejoin="round" stroke-width="2"/></g><g  class="back-wheel"><path d="M25.11,36.59A21.25,21.25,0,1,0,46.36,57.84,21.24,21.24,0,0,0,25.11,36.59Zm.06,33.21a12,12,0,1,1,11.95-12A12,12,0,0,1,25.17,69.8Z"/><circle cx="25.11" cy="57.84" r="5.69"/><line x1="25.17" y1="45.88" x2="25.17" y2="69.8" fill="none" stroke="#000" stroke-linecap="round" stroke-linejoin="round" stroke-width="2"/><line x1="16.71" y1="49.38" x2="33.62" y2="66.3" fill="none" stroke="#000" stroke-linecap="round" stroke-linejoin="round" stroke-width="2"/><line x1="13.21" y1="57.84" x2="37.13" y2="57.84" fill="none" stroke="#000" stroke-linecap="round" stroke-linejoin="round" stroke-width="2"/><line x1="16.71" y1="66.3" x2="33.62" y2="49.38" fill="none" stroke="#000" stroke-linecap="round" stroke-linejoin="round" stroke-width="2"/></g></g></g></svg>