<svg xmlns="http://www.w3.org/2000/svg" width="160.96" height="60.83" viewBox="0 0 160.96 60.83"><g  class="Layer_2" data-name="Layer 2"><g  class="honda-cr-v"><g  class="solid-body-background"><path d="M17.85,49.35,1,46v-8l2.88-2.4A69.71,69.71,0,0,1,3.06,24.2l.32-5.95a3.85,3.85,0,0,1,1.36-2.81L15,6.79,11.42,3.91S41.79,1.25,55.54,1s33,1.11,40.57,4.88,22.1,13.52,22.1,13.52,21.8.67,35.54,8.21l1.11,6.87,5.1,4.58s-.22,10.5-2.66,11.38-14,1.52-14,1.52" fill="#ecebe1" opacity="0"/></g><g  class="body-car"><path d="M17.85,49.35,1,46v-8l2.88-2.4A69.71,69.71,0,0,1,3.06,24.2l.32-5.95a3.85,3.85,0,0,1,1.36-2.81L15,6.79,11.42,3.91S41.79,1.25,55.54,1s33,1.11,40.57,4.88,22.1,13.52,22.1,13.52,21.8.67,35.54,8.21l1.11,6.87,5.1,4.58s-.22,10.5-2.66,11.38-14,1.52-14,1.52" fill="none" stroke="#000" stroke-linecap="round" stroke-linejoin="round" stroke-width="2"/><path d="M21.17,11s1.94,3.77,15.27,6,71,4.65,71,4.65" fill="none" stroke="#000" stroke-linecap="round" stroke-linejoin="round" stroke-width="2"/><line x1="40.23" y1="23.19" x2="47.11" y2="23.19" fill="none" stroke="#000" stroke-linecap="round" stroke-linejoin="round" stroke-width="2"/><line x1="73.27" y1="24.75" x2="80.48" y2="24.75" fill="none" stroke="#000" stroke-linecap="round" stroke-linejoin="round" stroke-width="2"/><path d="M50.22,51.48S73.61,52.82,97,52" fill="none" stroke="#000" stroke-linecap="round" stroke-linejoin="round" stroke-width="2"/><path d="M15,6.79l2.71,2.09L10.8,16.64l9.57.27a.8.8,0,0,1,.56,1.38c-2.43,2.4-9.86,5.64-17.87,5.91" fill="none" stroke="#000" stroke-linecap="round" stroke-linejoin="round" stroke-width="2"/><path d="M153,27.23s-13.61-2.38-17.08-2.58a2.89,2.89,0,0,0-.69,0c-1.53.26,15.15,10,19.63,9.84" fill="none" stroke="#000" stroke-linecap="round" stroke-linejoin="round" stroke-width="2"/><path d="M158.57,37.83c-.49.1-7.23.78-7.23.78l-.84,5" fill="none" stroke="#000" stroke-linecap="round" stroke-linejoin="round" stroke-width="2"/></g><g  class="front-wheel"><line x1="119.92" y1="48.33" x2="134.92" y2="48.33" fill="none" stroke="#000" stroke-linecap="round" stroke-linejoin="round" stroke-width="2"/><line x1="122.11" y1="53.64" x2="132.72" y2="43.03" fill="none" stroke="#000" stroke-linecap="round" stroke-linejoin="round" stroke-width="2"/><line x1="127.42" y1="55.83" x2="127.42" y2="40.83" fill="none" stroke="#000" stroke-linecap="round" stroke-linejoin="round" stroke-width="2"/><line x1="132.72" y1="53.64" x2="122.11" y2="43.03" fill="none" stroke="#000" stroke-linecap="round" stroke-linejoin="round" stroke-width="2"/><circle cx="127.42" cy="48.33" r="3.75"/><path d="M127.41,35.83a12.5,12.5,0,1,0,12.51,12.5A12.5,12.5,0,0,0,127.41,35.83Zm0,20a7.5,7.5,0,1,1,7.5-7.5A7.5,7.5,0,0,1,127.42,55.87Z"/></g><g  class="back-wheel"><line x1="25.21" y1="48.33" x2="40.21" y2="48.33" fill="none" stroke="#000" stroke-linecap="round" stroke-linejoin="round" stroke-width="2"/><line x1="27.4" y1="53.64" x2="38.01" y2="43.03" fill="none" stroke="#000" stroke-linecap="round" stroke-linejoin="round" stroke-width="2"/><line x1="32.71" y1="55.83" x2="32.71" y2="40.83" fill="none" stroke="#000" stroke-linecap="round" stroke-linejoin="round" stroke-width="2"/><line x1="38.01" y1="53.64" x2="27.4" y2="43.03" fill="none" stroke="#000" stroke-linecap="round" stroke-linejoin="round" stroke-width="2"/><circle cx="32.71" cy="48.33" r="3.75"/><path d="M32.7,35.83a12.5,12.5,0,1,0,12.51,12.5A12.5,12.5,0,0,0,32.7,35.83Zm0,20a7.5,7.5,0,1,1,7.5-7.5A7.5,7.5,0,0,1,32.71,55.87Z"/></g></g></g></svg>