<svg xmlns="http://www.w3.org/2000/svg" width="256.4" height="145.03" viewBox="0 0 256.4 145.03"><g  class="Layer_2" data-name="Layer 2"><g  class="otr"><g  class="solid-body-background" opacity="0"><path d="M248.52,105.69c1-.38.19-55.76.19-55.76H219.55V20.84s4.65-7.38-10.08-5.1H176l6.86-10.33h36.74V1H162c-14.52,0-17.42,8.72-17.42,8.72H12.38C6.9,9.72,3.22,13.39,1,19.65V36L35.65,49.93,87,71.27c4.55,14.76,13.6,42,14.39,42.42,1.09.63,52.12.5,53.07,0s12.45-37.3,14.23-38.33,26.89-2.84,26.89-2.84l16.89,10.63,5.42,25.54s-1,4.84,0,5.43,33.5-.43,35.5-.43,2-5.83,2-5.83S247.49,106.06,248.52,105.69Z" fill="#ecebe1"/></g><g  class="body-car"><line x1="137.84" y1="113.69" x2="113.52" y2="113.69" fill="none" stroke="#000" stroke-linecap="round" stroke-linejoin="round" stroke-width="2"/><path d="M35.65,49.93,1,36V19.65c2.22-6.26,5.9-9.93,11.38-9.93H144.57S147.47,1,162,1h57.56V5.41H182.81L127.9,88.23,110,80.82" fill="none" stroke="#000" stroke-linecap="round" stroke-linejoin="round" stroke-width="2"/><path d="M183.46,15.74h33.67a2.42,2.42,0,0,1,2.42,2.43V49.93h30v56.23l5.84,1.7v5.83H235.53" fill="none" stroke="#000" stroke-linecap="round" stroke-linejoin="round" stroke-width="2"/><path d="M189.11,22.18v8.33a3.16,3.16,0,0,0,3.16,3.16h13.47" fill="none" stroke="#000" stroke-linecap="round" stroke-linejoin="round" stroke-width="2"/></g><g  class="front-wheel"><path d="M189,65.49a38,38,0,1,0,38,38A38,38,0,0,0,189,65.49Zm.12,63a25,25,0,1,1,25-25A25,25,0,0,1,189.11,128.47Z"/><line x1="189.11" y1="103.51" x2="189.11" y2="74.72" fill="none" stroke="#000" stroke-linecap="round" stroke-linejoin="round" stroke-width="2"/><line x1="189.11" y1="103.51" x2="168.75" y2="83.15" fill="none" stroke="#000" stroke-linecap="round" stroke-linejoin="round" stroke-width="2"/><line x1="189.11" y1="103.51" x2="160.32" y2="103.51" fill="none" stroke="#000" stroke-linecap="round" stroke-linejoin="round" stroke-width="2"/><line x1="189.11" y1="103.51" x2="168.75" y2="123.87" fill="none" stroke="#000" stroke-linecap="round" stroke-linejoin="round" stroke-width="2"/><line x1="189.11" y1="103.51" x2="189.11" y2="132.3" fill="none" stroke="#000" stroke-linecap="round" stroke-linejoin="round" stroke-width="2"/><line x1="189.11" y1="103.51" x2="209.47" y2="123.87" fill="none" stroke="#000" stroke-linecap="round" stroke-linejoin="round" stroke-width="2"/><line x1="189.11" y1="103.51" x2="217.9" y2="103.51" fill="none" stroke="#000" stroke-linecap="round" stroke-linejoin="round" stroke-width="2"/><line x1="189.11" y1="103.51" x2="209.47" y2="83.15" fill="none" stroke="#000" stroke-linecap="round" stroke-linejoin="round" stroke-width="2"/><circle cx="188.99" cy="103.51" r="10.18" stroke="#000" stroke-linecap="round" stroke-miterlimit="10" stroke-width="1"/><rect x="185.49" y="61.99" width="7" height="7"/><rect x="166.48" y="67.08" width="7" height="7" transform="translate(-12.52 94.45) rotate(-30)"/><rect x="152.56" y="81" width="7" height="7" transform="translate(4.85 177.4) rotate(-60)"/><rect x="147.47" y="100.01" width="7" height="7" transform="translate(47.46 254.48) rotate(-90)"/><rect x="152.56" y="119.02" width="7" height="7" transform="translate(127.99 318.94) rotate(-120)"/><rect x="166.48" y="132.94" width="7" height="7" transform="translate(248.97 339.59) rotate(-150)"/><rect x="185.49" y="138.03" width="7" height="7" transform="translate(377.98 283.07) rotate(-180)"/><rect x="204.5" y="132.94" width="7" height="7" transform="translate(456.36 150.6) rotate(150)"/><rect x="218.42" y="119.02" width="7" height="7" transform="translate(438.99 -8.4) rotate(120)"/><rect x="223.51" y="100.01" width="7" height="7" transform="translate(330.53 -123.5) rotate(90)"/><rect x="218.42" y="81" width="7" height="7" transform="translate(184.14 -149.94) rotate(60)"/><rect x="204.5" y="67.08" width="7" height="7" transform="translate(63.16 -94.55) rotate(30)"/></g><g  class="back-wheel"><path d="M68.46,65.49a38,38,0,1,0,38,38A38,38,0,0,0,68.46,65.49Zm.12,63a25,25,0,1,1,25-25A25,25,0,0,1,68.58,128.47Z"/><line x1="68.59" y1="103.51" x2="68.59" y2="74.72" fill="none" stroke="#000" stroke-linecap="round" stroke-linejoin="round" stroke-width="2"/><line x1="68.59" y1="103.51" x2="48.23" y2="83.15" fill="none" stroke="#000" stroke-linecap="round" stroke-linejoin="round" stroke-width="2"/><line x1="68.59" y1="103.51" x2="39.8" y2="103.51" fill="none" stroke="#000" stroke-linecap="round" stroke-linejoin="round" stroke-width="2"/><line x1="68.59" y1="103.51" x2="48.23" y2="123.87" fill="none" stroke="#000" stroke-linecap="round" stroke-linejoin="round" stroke-width="2"/><line x1="68.59" y1="103.51" x2="68.59" y2="132.3" fill="none" stroke="#000" stroke-linecap="round" stroke-linejoin="round" stroke-width="2"/><line x1="68.59" y1="103.51" x2="88.95" y2="123.87" fill="none" stroke="#000" stroke-linecap="round" stroke-linejoin="round" stroke-width="2"/><line x1="68.59" y1="103.51" x2="97.38" y2="103.51" fill="none" stroke="#000" stroke-linecap="round" stroke-linejoin="round" stroke-width="2"/><line x1="68.59" y1="103.51" x2="88.95" y2="83.15" fill="none" stroke="#000" stroke-linecap="round" stroke-linejoin="round" stroke-width="2"/><circle cx="68.47" cy="103.51" r="10.18" stroke="#000" stroke-linecap="round" stroke-miterlimit="10" stroke-width="1"/><rect x="64.97" y="61.99" width="7" height="7"/><rect x="45.96" y="67.08" width="7" height="7" transform="translate(-28.67 34.18) rotate(-30)"/><rect x="32.04" y="81" width="7" height="7" transform="translate(-55.41 73.03) rotate(-60)"/><rect x="26.95" y="100.01" width="7" height="7" transform="translate(-73.07 133.96) rotate(-90)"/><rect x="32.04" y="119.02" width="7" height="7" transform="translate(-52.8 214.56) rotate(-120)"/><rect x="45.96" y="132.94" width="7" height="7" transform="translate(24.07 279.33) rotate(-150)"/><rect x="64.97" y="138.03" width="7" height="7" transform="translate(136.94 283.07) rotate(-180)"/><rect x="83.98" y="132.94" width="7" height="7" transform="translate(231.46 210.86) rotate(150)"/><rect x="97.9" y="119.02" width="7" height="7" transform="translate(258.2 95.97) rotate(120)"/><rect x="102.99" y="100.01" width="7" height="7" transform="translate(210 -2.98) rotate(90)"/><rect x="97.9" y="81" width="7" height="7" transform="translate(123.88 -45.56) rotate(60)"/><rect x="83.98" y="67.08" width="7" height="7" transform="matrix(0.87, 0.5, -0.5, 0.87, 47.01, -34.28)"/></g></g></g></svg>