<svg xmlns="http://www.w3.org/2000/svg" width="176.01" height="55.76" viewBox="0 0 176.01 55.76"><g  class="Layer_2" data-name="Layer 2"><g  class="toyota-camry"><g  class="solid-body-background" opacity="0"><path d="M21.87,46.47l-17-2.09L1.78,39.56,1,30.63l2-3,1.76-10s-2.34-4.29,1.75-4.09,11.51,0,11.51,0S39.82,4.39,44.11,4,62.45.49,74,1.07,93.08.68,104.39,5.56a114.88,114.88,0,0,1,20.88,12.09s15-.19,27.11,2a50.45,50.45,0,0,1,19.71,7.8v4.1L175,33.26V44.77s-7.21,4.12-14.82,3" fill="#ecebe1"/></g><g  class="body-car"><path d="M21.87,46.47l-17-2.09L1.78,39.56,1,30.63l2-3,1.76-10s-2.34-4.29,1.75-4.09,11.51,0,11.51,0S39.82,4.39,44.11,4,62.45.49,74,1.07,93.08.68,104.39,5.56a114.88,114.88,0,0,1,20.88,12.09s15-.19,27.11,2a50.45,50.45,0,0,1,19.71,7.8v4.1L175,33.26V44.77s-7.21,4.12-14.82,3" fill="none" stroke="#000" stroke-linecap="round" stroke-linejoin="round" stroke-width="2"/><line x1="46.1" y1="22.86" x2="54.01" y2="22.86" fill="none" stroke="#000" stroke-linecap="round" stroke-linejoin="round" stroke-width="2"/><line x1="83.49" y1="23.65" x2="90.78" y2="23.65" fill="none" stroke="#000" stroke-linecap="round" stroke-linejoin="round" stroke-width="2"/><path d="M46.1,10.34s-4.68,2.54-1,4.44A31.29,31.29,0,0,0,54,17.31s50.71,2.85,55.31,2.85" fill="none" stroke="#000" stroke-linecap="round" stroke-linejoin="round" stroke-width="2"/><line x1="54.65" y1="47.81" x2="105.99" y2="47.81" fill="none" stroke="#000" stroke-linecap="round" stroke-linejoin="round" stroke-width="2"/><path d="M4.42,20.65s17-2.3,19.65.87c0,0-9.35,4.7-13.95,4.33A45.7,45.7,0,0,1,3.65,25" fill="none" stroke="#000" stroke-linecap="round" stroke-linejoin="round" stroke-width="2"/><path d="M168.58,25.25l-18-.76,4.88,4.83s10.21-1.16,16.59,2.19" fill="none" stroke="#000" stroke-linecap="round" stroke-linejoin="round" stroke-width="2"/></g><g  class="front-wheel"><line x1="134.85" y1="43.26" x2="149.85" y2="43.26" fill="none" stroke="#000" stroke-linecap="round" stroke-linejoin="round" stroke-width="2"/><line x1="137.04" y1="48.57" x2="147.65" y2="37.96" fill="none" stroke="#000" stroke-linecap="round" stroke-linejoin="round" stroke-width="2"/><line x1="142.35" y1="50.76" x2="142.35" y2="35.76" fill="none" stroke="#000" stroke-linecap="round" stroke-linejoin="round" stroke-width="2"/><line x1="147.65" y1="48.57" x2="137.04" y2="37.96" fill="none" stroke="#000" stroke-linecap="round" stroke-linejoin="round" stroke-width="2"/><circle cx="142.35" cy="43.26" r="3.75"/><path d="M142.34,30.76a12.5,12.5,0,1,0,12.51,12.5A12.5,12.5,0,0,0,142.34,30.76Zm0,20a7.5,7.5,0,1,1,7.5-7.5A7.5,7.5,0,0,1,142.35,50.8Z"/></g><g  class="back-wheel"><line x1="31.14" y1="43.26" x2="46.14" y2="43.26" fill="none" stroke="#000" stroke-linecap="round" stroke-linejoin="round" stroke-width="2"/><line x1="33.34" y1="48.57" x2="43.95" y2="37.96" fill="none" stroke="#000" stroke-linecap="round" stroke-linejoin="round" stroke-width="2"/><line x1="38.64" y1="50.76" x2="38.64" y2="35.76" fill="none" stroke="#000" stroke-linecap="round" stroke-linejoin="round" stroke-width="2"/><line x1="43.95" y1="48.57" x2="33.34" y2="37.96" fill="none" stroke="#000" stroke-linecap="round" stroke-linejoin="round" stroke-width="2"/><circle cx="38.64" cy="43.26" r="3.75"/><path d="M38.64,30.76a12.5,12.5,0,1,0,12.5,12.5A12.5,12.5,0,0,0,38.64,30.76Zm0,20a7.5,7.5,0,1,1,7.5-7.5A7.5,7.5,0,0,1,38.64,50.8Z"/></g></g></g></svg>