<svg xmlns="http://www.w3.org/2000/svg" width="81.23" height="45.92" viewBox="0 0 81.23 45.92"><g><g class="motorcycle"><g class="solid-body-background"><path d="M60.86,1,52.23,2.1,51.12,6.7a12.51,12.51,0,0,0-4.65-.92c-8.11,0-15.62.43-15.62,8.11h-8L14.67,5.78H1.21s7.54,8.51,13.63,12c0,0,16.37,5.26,11.79,17.58l3.19-2.07a20.84,20.84,0,0,1-3.19,2.07v4.53h23.3A31.65,31.65,0,0,1,54,24.22c5.8-9.91,16.69-8.84,16.69-8.84C70.76,7.54,60.86,1,60.86,1Z" fill="#ecebe1" opacity="0"/></g><g  class="body-car"><path d="M52.23,2.1,60.86,1s9.9,6.54,9.85,14.38c0,0-10.89-1.07-16.69,8.84a31.65,31.65,0,0,0-4.09,15.62H26.63V35.31s7.12-3.5,7.12-8.39c0-6.15,8-7.45,14.92-10.18" fill="none" stroke="#000" stroke-linecap="round" stroke-linejoin="round" stroke-width="2"/><path d="M59.7,13.89S54.58,5.78,46.47,5.78s-15.62.43-15.62,8.11h-8L14.67,5.78H1.21s7.54,8.51,13.63,12" fill="none" stroke="#000" stroke-linecap="round" stroke-linejoin="round" stroke-width="2"/></g><g  class="front-wheel"><line x1="61.23" y1="33.42" x2="76.23" y2="33.42" fill="none" stroke="#000" stroke-linecap="round" stroke-linejoin="round" stroke-width="2"/><line x1="63.43" y1="38.72" x2="74.03" y2="28.12" fill="none" stroke="#000" stroke-linecap="round" stroke-linejoin="round" stroke-width="2"/><line x1="68.73" y1="40.92" x2="68.73" y2="25.92" fill="none" stroke="#000" stroke-linecap="round" stroke-linejoin="round" stroke-width="2"/><line x1="74.03" y1="38.72" x2="63.43" y2="28.12" fill="none" stroke="#000" stroke-linecap="round" stroke-linejoin="round" stroke-width="2"/><circle cx="68.73" cy="33.42" r="3.75"/><path d="M68.72,20.92a12.5,12.5,0,1,0,12.51,12.5A12.5,12.5,0,0,0,68.72,20.92Zm0,20a7.5,7.5,0,1,1,7.5-7.5A7.5,7.5,0,0,1,68.73,41Z"/></g><g  class="back-wheel"><line x1="5" y1="33.42" x2="20" y2="33.42" fill="none" stroke="#000" stroke-linecap="round" stroke-linejoin="round" stroke-width="2"/><line x1="7.2" y1="38.72" x2="17.8" y2="28.12" fill="none" stroke="#000" stroke-linecap="round" stroke-linejoin="round" stroke-width="2"/><line x1="12.5" y1="40.92" x2="12.5" y2="25.92" fill="none" stroke="#000" stroke-linecap="round" stroke-linejoin="round" stroke-width="2"/><line x1="17.8" y1="38.72" x2="7.2" y2="28.12" fill="none" stroke="#000" stroke-linecap="round" stroke-linejoin="round" stroke-width="2"/><circle cx="12.5" cy="33.42" r="3.75"/><path d="M12.5,20.92A12.5,12.5,0,1,0,25,33.42,12.5,12.5,0,0,0,12.5,20.92Zm0,20a7.5,7.5,0,1,1,7.5-7.5A7.5,7.5,0,0,1,12.5,41Z"/></g></g></g></svg>