<svg xmlns="http://www.w3.org/2000/svg" width="182.74" height="59.85" viewBox="0 0 182.74 59.85"><g  class="Layer_2" data-name="Layer 2"><g  class="gmc-sierra-1500"><g  class="solid-body-background" opacity="0"><path d="M142.89,28.75s14.78-.16,18.66,1.1,10,5.77,10,9.92-.6,12.06-.6,12.06c3.42.28,10.78-4.58,10.78-4.58V39.77s-1.84-2.69-2-3.08,0-14.87,0-14.87l-7.37-3.29-32.62-2.76c-2.63-3.55-18-11.84-24.08-13.68S69.13,1.3,69.13,1.3V4.59l2.76,1.58c-.26,1.58-1.15,8.7-1.15,8.7H3.54V36.12H1v9.26H17.16A34.12,34.12,0,0,1,19.9,31.92c3.06-7.49,9.19-5.5,18.39-5.5s14.07,7.4,14.07,7.4,2.8,4.24,2.83,11.86h76.18S136.24,29,142.89,28.75Z" fill="#ecebe1" opacity="0"/></g><g  class="body-car"><path d="M142.89,28.75s14.78-.16,18.66,1.1,10,5.77,10,9.92-.6,12.06-.6,12.06c3.42.28,10.78-4.58,10.78-4.58V39.77s-1.84-2.69-2-3.08,0-14.87,0-14.87l-7.37-3.29-32.62-2.76c-2.63-3.55-18-11.84-24.08-13.68S69.13,1.3,69.13,1.3V4.59l2.76,1.58c-.26,1.58-1.15,8.7-1.15,8.7H3.54V36.12H1v9.26H17.16A34.12,34.12,0,0,1,19.9,31.92c3.06-7.49,9.19-5.5,18.39-5.5s14.07,7.4,14.07,7.4" fill="none" stroke="#000" stroke-linecap="round" stroke-linejoin="round" stroke-width="2"/><path d="M179.76,23.08H168.13v3.24s4.66,5.9,11.63,5.9" fill="none" stroke="#000" stroke-linecap="round" stroke-linejoin="round" stroke-width="2"/><polyline points="3.54 19.03 9.78 22.05 7.94 33.81 3.54 33.81" fill="none" stroke="#000" stroke-linecap="round" stroke-linejoin="round" stroke-width="2"/><line x1="76.99" y1="24.24" x2="83.41" y2="24.24" fill="none" stroke="#000" stroke-linecap="round" stroke-linejoin="round" stroke-width="2"/><line x1="102.09" y1="24.24" x2="109.39" y2="24.24" fill="none" stroke="#000" stroke-linecap="round" stroke-linejoin="round" stroke-width="2"/><polyline points="80.2 7.03 80.2 14.03 87.79 18.65 129.25 18.65" fill="none" stroke="#000" stroke-linecap="round" stroke-linejoin="round" stroke-width="2"/><line x1="55.19" y1="45.68" x2="117.81" y2="45.68" fill="none" stroke="#000" stroke-linecap="round" stroke-linejoin="round" stroke-width="2"/></g><g  class="front-wheel"><line x1="146.62" y1="47.35" x2="161.62" y2="47.35" fill="none" stroke="#000" stroke-linecap="round" stroke-linejoin="round" stroke-width="2"/><line x1="148.81" y1="52.65" x2="159.42" y2="42.05" fill="none" stroke="#000" stroke-linecap="round" stroke-linejoin="round" stroke-width="2"/><line x1="154.12" y1="54.85" x2="154.12" y2="39.85" fill="none" stroke="#000" stroke-linecap="round" stroke-linejoin="round" stroke-width="2"/><line x1="159.42" y1="52.65" x2="148.81" y2="42.05" fill="none" stroke="#000" stroke-linecap="round" stroke-linejoin="round" stroke-width="2"/><circle cx="154.12" cy="47.35" r="3.75"/><path d="M154.11,34.85a12.5,12.5,0,1,0,12.51,12.5A12.5,12.5,0,0,0,154.11,34.85Zm0,20a7.5,7.5,0,1,1,7.5-7.5A7.5,7.5,0,0,1,154.12,54.89Z"/></g><g  class="back-wheel"><line x1="29.78" y1="47.35" x2="44.78" y2="47.35" fill="none" stroke="#000" stroke-linecap="round" stroke-linejoin="round" stroke-width="2"/><line x1="31.98" y1="52.65" x2="42.59" y2="42.05" fill="none" stroke="#000" stroke-linecap="round" stroke-linejoin="round" stroke-width="2"/><line x1="37.28" y1="54.85" x2="37.28" y2="39.85" fill="none" stroke="#000" stroke-linecap="round" stroke-linejoin="round" stroke-width="2"/><line x1="42.59" y1="52.65" x2="31.98" y2="42.05" fill="none" stroke="#000" stroke-linecap="round" stroke-linejoin="round" stroke-width="2"/><circle cx="37.28" cy="47.35" r="3.75"/><path d="M37.28,34.85a12.5,12.5,0,1,0,12.5,12.5A12.5,12.5,0,0,0,37.28,34.85Zm0,20a7.5,7.5,0,1,1,7.5-7.5A7.5,7.5,0,0,1,37.28,54.89Z"/></g></g></g></svg>