<svg xmlns="http://www.w3.org/2000/svg" width="170.18" height="58.42" viewBox="0 0 170.18 58.42"><g  class="Layer_2" data-name="Layer 2"><g  class="ram-1500"><g  class="solid-body-background"><path  class="Vector" d="M158.72,49.61l10.46-4.27V34.88l-3.4-3.21a60.31,60.31,0,0,1,0-6.62c.22-2.77-1.49-4.91-3.84-6.43s-8.75-2.32-8.75-2.32l-24.35-1.92a101.08,101.08,0,0,0-14.09-9.87c-7-3.89-19-3.5-19-3.5H64.85c-2.58,0-6.28,4.61-6.28,14.86h-54v17.9H1v5.51l10.61,3.25h7.74" fill="#ecebe1" opacity="0"/></g><g  class="body-car"><path d="M158.72,49.61l10.46-4.27V34.88l-3.4-3.21a60.31,60.31,0,0,1,0-6.62c.22-2.77-1.49-4.91-3.84-6.43s-8.75-2.32-8.75-2.32l-24.35-1.92a101.08,101.08,0,0,0-14.09-9.87c-7-3.89-19-3.5-19-3.5H64.85c-2.58,0-6.28,4.61-6.28,14.86h-54v17.9H1v5.51l10.61,3.25h7.74" fill="none" stroke="#000" stroke-linecap="round" stroke-linejoin="round" stroke-width="2"/><line x1="53.46" y1="44.48" x2="113.07" y2="44.48" fill="none" stroke="#000" stroke-linecap="round" stroke-linejoin="round" stroke-width="2"/><path d="M71.79,5.89a15,15,0,0,0-3.42,12.73h54.76" fill="none" stroke="#000" stroke-linecap="round" stroke-linejoin="round" stroke-width="2"/><line x1="65.22" y1="25.31" x2="70.95" y2="25.31" fill="none" stroke="#000" stroke-linecap="round" stroke-linejoin="round" stroke-width="2"/><line x1="95.75" y1="25.31" x2="101.91" y2="25.31" fill="none" stroke="#000" stroke-linecap="round" stroke-linejoin="round" stroke-width="2"/><path d="M165.74,23.93s-5.3.45-6.14,1.38-3.7,4.3-3.7,4.3l1.59,1.9h8.29" fill="none" stroke="#000" stroke-linecap="round" stroke-linejoin="round" stroke-width="2"/><polyline points="4.55 19.87 10.03 21.7 12.69 30.35 4.55 30.35" fill="none" stroke="#000" stroke-linecap="round" stroke-linejoin="round" stroke-width="2"/></g><g  class="front-wheel"><line x1="135.9" y1="45.92" x2="150.9" y2="45.92" fill="none" stroke="#000" stroke-linecap="round" stroke-linejoin="round" stroke-width="2"/><line x1="138.09" y1="51.22" x2="148.7" y2="40.62" fill="none" stroke="#000" stroke-linecap="round" stroke-linejoin="round" stroke-width="2"/><line x1="143.4" y1="53.42" x2="143.4" y2="38.42" fill="none" stroke="#000" stroke-linecap="round" stroke-linejoin="round" stroke-width="2"/><line x1="148.7" y1="51.22" x2="138.09" y2="40.62" fill="none" stroke="#000" stroke-linecap="round" stroke-linejoin="round" stroke-width="2"/><circle cx="143.4" cy="45.92" r="3.75"/><path d="M143.39,33.42a12.5,12.5,0,1,0,12.51,12.5A12.5,12.5,0,0,0,143.39,33.42Zm0,20a7.5,7.5,0,1,1,7.5-7.5A7.49,7.49,0,0,1,143.4,53.45Z"/></g><g  class="back-wheel"><line x1="27.17" y1="45.92" x2="42.17" y2="45.92" fill="none" stroke="#000" stroke-linecap="round" stroke-linejoin="round" stroke-width="2"/><line x1="29.36" y1="51.22" x2="39.97" y2="40.62" fill="none" stroke="#000" stroke-linecap="round" stroke-linejoin="round" stroke-width="2"/><line x1="34.67" y1="53.42" x2="34.67" y2="38.42" fill="none" stroke="#000" stroke-linecap="round" stroke-linejoin="round" stroke-width="2"/><line x1="39.97" y1="51.22" x2="29.36" y2="40.62" fill="none" stroke="#000" stroke-linecap="round" stroke-linejoin="round" stroke-width="2"/><circle cx="34.67" cy="45.92" r="3.75"/><path d="M34.66,33.42a12.5,12.5,0,1,0,12.51,12.5A12.5,12.5,0,0,0,34.66,33.42Zm0,20a7.5,7.5,0,1,1,7.5-7.5A7.5,7.5,0,0,1,34.67,53.46Z"/></g></g></g></svg>