<svg xmlns="http://www.w3.org/2000/svg" width="182.05" height="69.23" viewBox="0 0 182.05 69.23"><g  class="Layer_2" data-name="Layer 2"><g  class="crossover"><g  class="solid-body-background"><path  class="Vector" d="M172.33,59.56A8.72,8.72,0,0,0,180.84,49c-2-8.69-3.69-18.1-12.17-19.66-6.62-1.22-31.15-5.46-38.84-6.79a7.53,7.53,0,0,1-4-2.06L109.33,4.19A11,11,0,0,0,101.56,1L33.85,2.52A18.13,18.13,0,0,0,20.88,8L6.14,24.29C2.52,28.24,1,30.94,1,36.92V49.14a8.32,8.32,0,0,0,4.38,7.34c3,1.64,12.2,3.08,12.2,3.08" fill="#ecebe1" opacity="0"/></g><g  class="body-car"><polyline points="61.75 59.56 61.75 59.56 100.45 59.56" fill="none" stroke="#000" stroke-linecap="round" stroke-linejoin="round" stroke-width="2"/><path d="M172.33,59.56A8.72,8.72,0,0,0,180.84,49c-2-8.69-3.69-18.1-12.17-19.66-6.62-1.22-31.15-5.46-38.84-6.79a7.53,7.53,0,0,1-4-2.06L109.33,4.19A11,11,0,0,0,101.56,1L33.85,2.52A18.13,18.13,0,0,0,20.88,8L6.14,24.29C2.52,28.24,1,30.94,1,36.92V49.14a8.32,8.32,0,0,0,4.38,7.34c3,1.64,12.2,3.08,12.2,3.08" fill="none" stroke="#000" stroke-linecap="round" stroke-linejoin="round" stroke-width="2"/><line x1="87" y1="29.29" x2="81" y2="29.29" fill="none" stroke="#000" stroke-linecap="round" stroke-linejoin="round" stroke-width="2"/><line x1="48" y1="29.29" x2="54" y2="29.29" fill="none" stroke="#000" stroke-linecap="round" stroke-linejoin="round" stroke-width="2"/><path d="M97.38,21.75H46.58c-5.15,0-6.15-5.67-4.88-8.21L46.65,2.23" fill="none" stroke="#000" stroke-linecap="round" stroke-linejoin="round" stroke-width="2"/><path d="M1.92,31.25h9.71v5.21a3.12,3.12,0,0,1-3.12,3.12H1.23" fill="none" stroke="#000" stroke-linecap="round" stroke-linejoin="round" stroke-width="2"/><path d="M175.84,34.06H167a1.76,1.76,0,0,0-1.52,2.64l1.76,3a1.74,1.74,0,0,0,1.51.87h10" fill="none" stroke="#000" stroke-linecap="round" stroke-linejoin="round" stroke-width="2"/></g><g  class="front-wheel"><line x1="148.29" y1="56.73" x2="163.29" y2="56.73" fill="none" stroke="#000" stroke-linecap="round" stroke-linejoin="round" stroke-width="2"/><line x1="150.48" y1="62.03" x2="161.09" y2="51.43" fill="none" stroke="#000" stroke-linecap="round" stroke-linejoin="round" stroke-width="2"/><line x1="155.79" y1="64.23" x2="155.79" y2="49.23" fill="none" stroke="#000" stroke-linecap="round" stroke-linejoin="round" stroke-width="2"/><line x1="161.09" y1="62.03" x2="150.48" y2="51.43" fill="none" stroke="#000" stroke-linecap="round" stroke-linejoin="round" stroke-width="2"/><circle cx="155.79" cy="56.73" r="3.75"/><path d="M155.78,44.23a12.5,12.5,0,1,0,12.51,12.5A12.5,12.5,0,0,0,155.78,44.23Zm0,20a7.5,7.5,0,1,1,7.5-7.5A7.5,7.5,0,0,1,155.79,64.27Z"/></g><g  class="back-wheel"><line x1="34.99" y1="56.73" x2="49.99" y2="56.73" fill="none" stroke="#000" stroke-linecap="round" stroke-linejoin="round" stroke-width="2"/><line x1="37.18" y1="62.03" x2="47.79" y2="51.43" fill="none" stroke="#000" stroke-linecap="round" stroke-linejoin="round" stroke-width="2"/><line x1="42.49" y1="64.23" x2="42.49" y2="49.23" fill="none" stroke="#000" stroke-linecap="round" stroke-linejoin="round" stroke-width="2"/><line x1="47.79" y1="62.03" x2="37.18" y2="51.43" fill="none" stroke="#000" stroke-linecap="round" stroke-linejoin="round" stroke-width="2"/><circle cx="42.49" cy="56.73" r="3.75"/><path d="M42.48,44.23A12.5,12.5,0,1,0,55,56.73,12.5,12.5,0,0,0,42.48,44.23Zm0,20a7.5,7.5,0,1,1,7.5-7.5A7.5,7.5,0,0,1,42.49,64.27Z"/></g></g></g></svg>