<svg xmlns="http://www.w3.org/2000/svg" width="159.76" height="46.77" viewBox="0 0 159.76 46.77"><g  class="Layer_2" data-name="Layer 2"><g  class="racing"><g  class="solid-body-background"><path  class="Vector" d="M146.25,41.59h7.58a4.94,4.94,0,0,0,4.92-5.27l-.21-3a10.81,10.81,0,0,0-6.48-9.21,102.72,102.72,0,0,0-29.58-7.78S100.51,7.81,89,2.69,43.36,5.5,35.76,7.75a114,114,0,0,1-23.63,3.94c-6-.26-8.75,2-9.67,8,0,0-1.71,8.63-1.43,12,.43,5.12,6.93,10,12.07,10" fill="#ecebe1" opacity="0"/></g><g  class="body-car"><line x1="64.46" y1="19.65" x2="58.42" y2="19.65" fill="none" stroke="#000" stroke-linecap="round" stroke-linejoin="round" stroke-width="2"/><line x1="47.14" y1="41.59" x2="111.44" y2="41.59" fill="none" stroke="#000" stroke-linecap="round" stroke-linejoin="round" stroke-width="2"/><path d="M146.25,41.59h7.58a4.94,4.94,0,0,0,4.92-5.27l-.21-3a10.81,10.81,0,0,0-6.48-9.21,102.72,102.72,0,0,0-29.58-7.78S100.51,7.81,89,2.69,43.36,5.5,35.76,7.75a114,114,0,0,1-23.63,3.94c-6-.26-8.75,2-9.67,8,0,0-1.71,8.63-1.43,12,.43,5.12,6.93,10,12.07,10" fill="none" stroke="#000" stroke-linecap="round" stroke-linejoin="round" stroke-width="2"/><path d="M155.25,26.2h-7.77A3,3,0,0,1,145,21.51" fill="none" stroke="#000" stroke-linecap="round" stroke-linejoin="round" stroke-width="2"/><path d="M3.38,16.15h6.8a2.13,2.13,0,0,1,2.11,1.61L12.86,20A10.73,10.73,0,0,1,1.93,22.61" fill="none" stroke="#000" stroke-linecap="round" stroke-linejoin="round" stroke-width="2"/><path d="M110.9,17.38s-37.73-1.74-42.63-3.14A47.24,47.24,0,0,1,54.61,7.75" fill="none" stroke="#000" stroke-linecap="round" stroke-linejoin="round" stroke-width="2"/><line x1="8.17" y1="11.69" x2="5.32" y2="4.46" fill="none" stroke="#000" stroke-linecap="round" stroke-linejoin="round" stroke-width="2"/><line x1="1.6" y1="5.26" x2="9.8" y2="3.5" fill="none" stroke="#000" stroke-linecap="round" stroke-linejoin="round" stroke-width="2"/></g><g  class="front-wheel"><line x1="121.25" y1="34.27" x2="136.25" y2="34.27" fill="none" stroke="#000" stroke-linecap="round" stroke-linejoin="round" stroke-width="2"/><line x1="123.44" y1="39.57" x2="134.05" y2="28.97" fill="none" stroke="#000" stroke-linecap="round" stroke-linejoin="round" stroke-width="2"/><line x1="128.75" y1="41.77" x2="128.75" y2="26.77" fill="none" stroke="#000" stroke-linecap="round" stroke-linejoin="round" stroke-width="2"/><line x1="134.05" y1="39.57" x2="123.44" y2="28.97" fill="none" stroke="#000" stroke-linecap="round" stroke-linejoin="round" stroke-width="2"/><circle cx="128.75" cy="34.27" r="3.75"/><path d="M128.74,21.77a12.5,12.5,0,1,0,12.51,12.5A12.5,12.5,0,0,0,128.74,21.77Zm0,20a7.5,7.5,0,1,1,7.5-7.5A7.49,7.49,0,0,1,128.75,41.8Z"/></g><g  class="back-wheel"><line x1="19.04" y1="34.27" x2="34.04" y2="34.27" fill="none" stroke="#000" stroke-linecap="round" stroke-linejoin="round" stroke-width="2"/><line x1="21.24" y1="39.57" x2="31.85" y2="28.97" fill="none" stroke="#000" stroke-linecap="round" stroke-linejoin="round" stroke-width="2"/><line x1="26.54" y1="41.77" x2="26.54" y2="26.77" fill="none" stroke="#000" stroke-linecap="round" stroke-linejoin="round" stroke-width="2"/><line x1="31.85" y1="39.57" x2="21.24" y2="28.97" fill="none" stroke="#000" stroke-linecap="round" stroke-linejoin="round" stroke-width="2"/><circle cx="26.54" cy="34.27" r="3.75"/><path d="M26.54,21.77A12.5,12.5,0,1,0,39,34.27,12.5,12.5,0,0,0,26.54,21.77Zm0,20A7.5,7.5,0,1,1,34,34.3,7.5,7.5,0,0,1,26.54,41.8Z"/></g></g></g></svg>